<?xml version="1.0" encoding="utf-8"?>
<!-- Generator: Adobe Illustrator 16.0.0, SVG Export Plug-In . SVG Version: 6.00 Build 0)  -->
<!DOCTYPE svg PUBLIC "-//W3C//DTD SVG 1.1//EN" "http://www.w3.org/Graphics/SVG/1.1/DTD/svg11.dtd">
<svg version="1.1" id="Layer_1" xmlns="http://www.w3.org/2000/svg" xmlns:xlink="http://www.w3.org/1999/xlink" x="0px" y="0px"
	 width="100%" height="100%" viewBox="1065.583 165 285 285" enable-background="new 1065.583 165 285 285" xml:space="preserve">
<g>
	<circle fill="#0684BC" cx="1209.925" cy="306.879" r="122.647"/>
	<g>
		<path fill="#FFFFFF" d="M1083.595,307.554c1.138-23.543,6.396-44.54,18.25-65.048c11.258-19.479,28.908-35.112,48.58-45.681
			c20.395-10.955,43.225-15.241,66.228-14.163c11.714,0.548,23.092,3.175,34.167,6.928c10.434,3.534,23.784,14.21,35.195,12.635
			c-8.944,12.076-17.151,24.817-22.751,38.816c-7.122-13.165-24.909-17.54-38.629-19.462c-51.041-7.155-96.049,32.396-98.494,83.073
			c-2.433,50.451,42.145,92.352,91.919,89.564c15.138-0.846,36.693-5.387,44.901-19.689c6.029,13.725,13.848,26.614,22.887,38.552
			c-11.244-1.164-21.477,7.85-31.621,11.285c-10.905,3.693-22.31,7.363-33.918,7.911c-24.26,1.135-50.129-1.761-71.373-14.679
			c-17.845-10.851-32.921-23.525-44.555-41.051C1090.484,355.62,1084.794,332.407,1083.595,307.554
			C1083.79,303.484,1083.835,312.559,1083.595,307.554C1084.73,284.01,1083.835,312.559,1083.595,307.554z"/>
	</g>
</g>
</svg>
