<?xml version="1.0" encoding="utf-8"?>
<!-- Generator: Adobe Illustrator 16.0.0, SVG Export Plug-In . SVG Version: 6.00 Build 0)  -->
<!DOCTYPE svg PUBLIC "-//W3C//DTD SVG 1.1//EN" "http://www.w3.org/Graphics/SVG/1.1/DTD/svg11.dtd">
<svg version="1.1" id="Layer_1" xmlns="http://www.w3.org/2000/svg" xmlns:xlink="http://www.w3.org/1999/xlink" x="0px" y="0px"
	 width="285px" height="285px" viewBox="1060.512 162.763 285 285" enable-background="new 1060.512 162.763 285 285"
	 xml:space="preserve">
<circle fill="#333333" cx="1208.386" cy="306.075" r="122.261"/>
<path fill="#FFFFFF" d="M1299.959,228.351c-11.043,4.232-20.475,8.923-29.908,16.099c-22.372-19.811-47.986-28.711-78.056-23.756
	c-25.406,4.188-46.548,21.049-59.229,42.864l67.739,0.065c8.281-0.446,16.318-0.877,24.43-2.726
	c-15.355,9.048-26.001,22.139-35.337,37.085l-3.399,6.066c-5.404-2-11.559-1.786-17.236-1.924l-46.881-0.041
	c0.257,15.473,2.517,31.308,10.245,45.019c8.026,14.243,19.813,24.714,33.328,33.527l-4.841,12.971
	c-2.176,7.784-2.843,15.271-3.289,23.315l0.005,13.348c-2.152-6.304-8.068-11.174-13.085-15.184
	c-12.171-9.727-23.516-18.692-33.623-30.488c-6.174-7.203-10.992-15.477-15.215-23.929c-8.704-17.428-11.832-36.019-12.583-55.304
	l0.113-3.247l-7.761,0.019c0.363-13.138,2.631-26.25,6.842-38.703l8.066,0.015c10.423-25.278,26.543-49.274,50.723-63.435
	c23.665-13.857,51.218-22.476,78.97-18.956c7.075,0.897,14.072,2.274,20.961,4.113c6.848,1.827,13.563,4.235,20.08,7.009
	c8.719,3.711,16.69,8.864,24.244,14.564c2.123,1.604,4.198,3.271,6.206,5.017c5.705,4.962,12.025,10.994,19.555,12.96
	L1299.959,228.351z"/>
</svg>
