<?xml version="1.0" encoding="utf-8"?>
<!-- Generator: Adobe Illustrator 16.0.0, SVG Export Plug-In . SVG Version: 6.00 Build 0)  -->
<!DOCTYPE svg PUBLIC "-//W3C//DTD SVG 1.1//EN" "http://www.w3.org/Graphics/SVG/1.1/DTD/svg11.dtd">
<svg version="1.1" id="Layer_1" xmlns="http://www.w3.org/2000/svg" xmlns:xlink="http://www.w3.org/1999/xlink" x="0px" y="0px"
	 width="100%" height="100%" viewBox="559.148 -0.005 381.708 500.005"
	 enable-background="new 559.148 -0.005 381.708 500.005" xml:space="preserve">
<g id="X">
</g>
<g id="X_1_">
</g>
<g id="U">
</g>
<g id="N">
</g>
<g id="E">
</g>
<g id="V">
	<g>
		<path fill="#FFFFFF" d="M779.582,201.951c-2.924,5.092-2.229,11.069-0.496,13.879l12.229-21.345
			C791.308,194.485,783.666,194.798,779.582,201.951z"/>
		<path fill="#FFFFFF" d="M931.645,396.643l-84.623-147.33l79.707-139.23c0,0,40.605-64.34-21.23-99.739
			c-61.852-35.407-96.77,32.193-96.77,32.193l-58.767,102.655l-58.69-102.701c0,0-34.88-67.623-96.746-32.262
			c-61.867,35.354-21.307,99.731-21.307,99.731l79.623,139.298l-80.44,140.536c0,0-41.025,64.096,21.284,99.762
			c62.309,35.674,96.99-32.476,96.99-32.476l59.232-103.464l63.027,110.457c0,0,35.688,60.622,95.219,24.368
			C963.723,454.593,931.645,396.643,931.645,396.643z M840.7,70.821l19.101-2.443l-7.627-17.566l7.787-13.589l12.184,29.429
			l36.056-4.634l-7.817,13.657L877.87,78.73l8.909,20.688l-8.207,14.321l-14.062-33.743l-31.254,3.825L840.7,70.821z
			 M815.676,114.503l27.674,15.849c0,0,8.474,5.115,12.863-2.542c4.512-7.878-4.13-12.703-4.13-12.703l-27.666-15.849l6.504-11.344
			l27.666,15.849c0,0,19.245,11.283,8.581,29.879c-11.131,19.429-30.483,8.336-30.483,8.336l-27.666-15.848L815.676,114.503z
			 M730.342,263.451l7.787-13.581l26.788,2l-14.879-22.788l7.397-12.901l33.468,50.583L730.342,263.451z M816.065,222.854
			c-7.657,13.352-24.284,17.176-36.819,9.993c-11.726-6.718-18.001-22.826-9.993-36.804c7.352-12.833,23.887-17.398,36.804-10
			l2.863,1.641l-20.643,36.041c3.946,1.244,12.665,1.076,17.245-6.909c4.344-7.596,0.436-14.681-1.252-16.704l11.367-5.046
			C815.638,195.058,824.173,208.677,816.065,222.854z M810.47,168.46l27.658,15.856l-6.657,11.634l-27.666-15.848
			c0,0-19.359-11.077-8.222-30.513c10.657-18.597,30.108-7.71,30.108-7.71l27.674,15.848l-6.504,11.344l-27.666-15.848
			c0,0-8.535-5.023-13.047,2.855C801.774,163.735,810.47,168.46,810.47,168.46z"/>
	</g>
</g>
</svg>
