<?xml version="1.0" encoding="utf-8"?>
<!-- Generator: Adobe Illustrator 16.0.0, SVG Export Plug-In . SVG Version: 6.00 Build 0)  -->
<!DOCTYPE svg PUBLIC "-//W3C//DTD SVG 1.1//EN" "http://www.w3.org/Graphics/SVG/1.1/DTD/svg11.dtd">
<svg version="1.1" id="Layer_1" xmlns="http://www.w3.org/2000/svg" xmlns:xlink="http://www.w3.org/1999/xlink" x="0px" y="0px"
	 width="285px" height="285px" viewBox="1136.838 186.941 285 285" enable-background="new 1136.838 186.941 285 285"
	 xml:space="preserve">
<g transform="translate(485.13 107.17)">
	<circle fill="#333333" cx="794.2" cy="219.515" r="122.243"/>
	<path fill="#FFFFFF" d="M794.188,238.518c32.773-14.694,59.029-42.517,73.271-75.358c17.928,24.009,23.031,56.796,13.057,85.061
		c-7.863,22.848-25.297,42.554-47.336,52.562c-1.949,1.998-11.186,0.825-8.061,3.398c11.959,11.457,20.656,26.625,23.199,43.091
		c5.33-11.234,17.27-17.117,26.494-24.763c26.451-21.378,45.35-52.589,49.248-86.616c5.359-38.621-7.492-79.338-34.549-107.505
		c-12.258-13.207-27.486-23.574-43.965-30.794c-4.223,29.137-16.613,57.206-36.523,79.036c-4.574,4.96-9.426,9.727-14.836,13.792
		c-28.514-22.582-46.195-57.108-51.355-92.826c-34.33,14.629-61.787,44.401-73.24,79.946
		c-13.199,40.321-5.936,87.065,20.346,120.613c10.627,14.326,24.65,25.558,38.939,36.004c4.322,3.729,9.131,7.605,11.182,13.11
		c2.668-17.082,11.861-32.825,24.609-44.363c-14.195-1.293-25.67-11.256-35.625-20.615c-27.287-26.824-34.092-71.457-16.488-105.344
		c2.396-4.82,5.309-9.355,8.363-13.78c14.271,32.864,40.443,60.647,73.266,75.357"/>
</g>
</svg>
