<?xml version="1.0" encoding="utf-8"?>
<!-- Generator: Adobe Illustrator 16.0.0, SVG Export Plug-In . SVG Version: 6.00 Build 0)  -->
<!DOCTYPE svg PUBLIC "-//W3C//DTD SVG 1.1//EN" "http://www.w3.org/Graphics/SVG/1.1/DTD/svg11.dtd">
<svg version="1.1" id="Layer_1" xmlns="http://www.w3.org/2000/svg" xmlns:xlink="http://www.w3.org/1999/xlink" x="0px" y="0px"
	 width="277px" height="403.467px" viewBox="-6.891 15 277 403.467" enable-background="new -6.891 15 277 403.467"
	 xml:space="preserve">
<g>
	<path fill="#FFFFFF" d="M52.845,92.722v59.34h-1.842l-39.665-59.61h-0.18v55.926h10.197v2.291H-0.072v-2.291h8.939V92.722H-0.7
		v-2.291h22.999l28.075,42.225h0.18V92.722h-9.972v-2.291h21.382v2.291H52.845z"/>
	<path fill="#FFFFFF" d="M90.714,92.722v25.83h5.436c1.917,0,3.541-0.187,4.874-0.562c1.332-0.375,2.529-1.385,3.594-3.032
		c1.063-1.646,1.669-4.223,1.819-7.727h2.336v25.515h-2.336c-0.24-4.852-1.177-8.048-2.809-9.591
		c-1.632-1.542-4.126-2.313-7.479-2.313h-5.436v27.536h12.264c6.946,0,11.762-1.459,14.44-4.38c2.68-2.919,4.275-7.419,4.785-13.498
		h2.29l-0.584,20.169h-53.41v-2.291h9.567V92.722h-9.567v-2.291h51.209l1.033,16.081h-2.291c-0.779-4.88-2.381-8.4-4.807-10.556
		c-2.427-2.156-6.47-3.234-12.13-3.234H90.714z"/>
	<path fill="#FFFFFF" d="M180.823,110.645l10.914,26.502l16.488-44.426h-8.762V90.43h17.521v2.291h-6.199l-22.236,59.339h-1.572
		l-11.5-27.896l-11.23,27.896h-1.661L138.42,92.721h-6.738V90.43h62.845v2.291h-6.471L180.823,110.645z M167.571,137.687
		l6.604-16.62l-11.589-28.345h-13.342L167.571,137.687z M173.546,92.722l6.065,14.779l5.975-14.779H173.546z"/>
	<path fill="#FFFFFF" d="M260.333,89.757l0.27,15.632h-2.111c-2.994-9.373-8.281-14.06-15.857-14.06
		c-4.191,0-7.449,1.161-9.77,3.481c-2.322,2.321-3.48,4.725-3.48,7.21c0,2.306,0.965,4.268,2.896,5.884
		c1.932,1.617,5.457,2.868,10.578,3.751c5.121,0.884,9.021,1.961,11.703,3.234c2.678,1.273,4.939,3.391,6.781,6.356
		s2.764,6.364,2.764,10.197c0,5.899-1.924,10.812-5.773,14.733c-3.848,3.925-8.617,5.886-14.307,5.886
		c-4.643,0-9.27-1.723-13.881-5.167l-4.223,3.773h-1.57v-16.845h1.932c1.766,5.3,4.236,9.284,7.41,11.948
		c3.174,2.666,6.648,3.998,10.422,3.998c3.744,0,7.18-1.234,10.309-3.705c3.129-2.472,4.695-5.594,4.695-9.367
		c0-3.173-1.086-5.846-3.258-8.018c-2.17-2.17-5.689-3.668-10.555-4.492c-4.867-0.823-8.604-1.781-11.209-2.875
		c-2.605-1.092-4.838-2.994-6.691-5.705c-1.857-2.709-2.785-5.711-2.785-9.006c0-4.552,1.617-8.617,4.852-12.196
		c3.232-3.578,7.619-5.368,13.16-5.368c4.643,0,8.971,1.467,12.982,4.402c1.107-1.047,2.066-2.275,2.875-3.684h1.842V89.757z"/>
	<rect x="-6.891" y="46" fill="#FFFFFF" width="129" height="18"/>
	<rect x="141.109" y="46" fill="#FFFFFF" width="129" height="18"/>
	<rect x="-6.891" y="172" fill="#FFFFFF" width="277" height="18"/>
	<rect x="-6.891" y="204" fill="#FFFFFF" width="277" height="18"/>
	<rect x="-6.891" y="235" fill="#FFFFFF" width="277" height="18"/>
	<rect x="-6.891" y="15" fill="#FFFFFF" width="129" height="18"/>
	<rect x="141.109" y="15" fill="#FFFFFF" width="129" height="18"/>
</g>
<g>
	<path fill="#FFFFFF" d="M84.874,308.807c0.016-1.473,0.384-2.801,1.088-3.825c0.672-1.024,1.713-1.776,2.977-1.776
		c1.232,0,2.289,0.752,2.961,1.776c0.688,1.024,1.072,2.353,1.072,3.825c0,1.457-0.384,2.802-1.072,3.826
		c-0.672,1.008-1.729,1.776-2.961,1.776c-1.264,0-2.305-0.769-2.977-1.776C85.259,311.608,84.89,310.264,84.874,308.807z
		 M91.197,308.807c0-1.152-0.32-2.16-0.768-2.849c-0.464-0.673-0.993-0.992-1.489-0.977c-0.496-0.016-1.041,0.304-1.521,0.977
		c-0.448,0.688-0.768,1.696-0.768,2.849c0,1.137,0.32,2.161,0.768,2.833c0.48,0.688,1.024,0.993,1.521,0.993
		s1.024-0.305,1.489-0.993C90.877,310.968,91.197,309.943,91.197,308.807z"/>
	<path fill="#FFFFFF" d="M104.798,311.432c0,0.496-0.4,0.881-0.896,0.881h-0.16v1.217c0,0.496-0.384,0.88-0.88,0.88
		s-0.88-0.384-0.88-0.88v-1.217h-5.01h-0.016h-0.016c-0.192,0-0.384-0.048-0.544-0.192c-0.4-0.304-0.448-0.849-0.144-1.232
		l5.922-7.363c0.016,0,0.016-0.016,0.032-0.031c0.016-0.017,0.032-0.032,0.048-0.064c0.048-0.016,0.064-0.032,0.08-0.048
		c0.016-0.017,0.048-0.032,0.064-0.048c0.032-0.017,0.048-0.032,0.096-0.032c0.016-0.032,0.032-0.048,0.064-0.048
		c0.016-0.017,0.048-0.017,0.096-0.032c0.016,0,0.048,0,0.064-0.016c0.032,0,0.08,0,0.112,0c0,0,0.016,0,0.032,0s0.016,0,0.032,0
		c0.032,0,0.08,0,0.096,0c0.032,0.016,0.048,0.016,0.08,0.016c0.016,0.016,0.064,0.016,0.096,0.032c0.016,0,0.048,0.016,0.064,0.016
		c0.032,0.032,0.064,0.048,0.08,0.064c0.032,0.016,0.048,0.031,0.08,0.048c0,0,0.016,0,0.016,0.016c0.016,0,0.048,0.017,0.048,0.032
		c0.032,0.032,0.048,0.048,0.064,0.064c0.016,0.016,0.032,0.048,0.048,0.063c0.016,0.017,0.032,0.032,0.064,0.08
		c0,0.017,0.016,0.048,0.032,0.064c0.016,0.031,0.016,0.048,0.032,0.096c0,0.016,0.016,0.048,0.016,0.064
		c0.016,0.031,0.016,0.048,0.016,0.096c0,0.032,0.016,0.048,0.016,0.08c0,0.016,0,0.032,0,0.048v6.467h0.16
		C104.397,310.552,104.798,310.952,104.798,311.432z M101.98,306.598l-3.185,3.954h3.185V306.598z"/>
	<path fill="#FFFFFF" d="M106.858,313.192l3.922-9.331c0.192-0.448,0.704-0.656,1.168-0.465c0.432,0.177,0.64,0.704,0.448,1.137
		l-3.922,9.348c-0.144,0.336-0.48,0.528-0.816,0.528c-0.096,0-0.224-0.016-0.32-0.064
		C106.874,314.169,106.666,313.641,106.858,313.192z"/>
	<path fill="#FFFFFF" d="M120.205,313.529c0,0.496-0.384,0.88-0.88,0.88h-5.667c0,0,0,0-0.016,0h-0.016
		c-0.24,0-0.496-0.096-0.656-0.288c-0.336-0.368-0.304-0.912,0.048-1.249l4.738-4.289c0.464-0.416,0.672-0.961,0.672-1.537
		c0-0.512-0.176-0.992-0.528-1.393c-0.416-0.464-0.976-0.672-1.537-0.672c-0.496,0-0.992,0.176-1.393,0.528l-0.496,0.448
		c-0.368,0.336-0.912,0.304-1.249-0.064c-0.32-0.368-0.304-0.912,0.064-1.248l0.497-0.448c0.72-0.673,1.665-0.992,2.577-0.992
		c1.041,0,2.097,0.432,2.849,1.264c0.672,0.721,0.993,1.665,0.993,2.577c0,1.041-0.432,2.097-1.265,2.85l-3.025,2.737h3.409
		C119.821,312.633,120.205,313.032,120.205,313.529z"/>
	<path fill="#FFFFFF" d="M129.901,310.6c0,2.097-1.712,3.81-3.81,3.81c-2.113,0-3.841-1.713-3.841-3.81
		c0-1.328,0.672-2.497,1.713-3.186c-0.336-0.432-0.528-0.992-0.528-1.584c0-1.441,1.185-2.625,2.657-2.625
		c1.441,0,2.625,1.184,2.625,2.625c0,0.592-0.192,1.152-0.528,1.584C129.213,308.103,129.901,309.271,129.901,310.6z M128.156,310.6
		c0-1.137-0.928-2.081-2.065-2.081c-1.152,0-2.081,0.944-2.097,2.081c0.016,1.137,0.944,2.064,2.097,2.064
		C127.228,312.664,128.156,311.736,128.156,310.6z M125.179,305.83c0,0.496,0.4,0.912,0.912,0.912c0.48,0,0.88-0.416,0.88-0.912
		c0-0.48-0.4-0.881-0.88-0.881C125.579,304.949,125.179,305.35,125.179,305.83z"/>
	<path fill="#FFFFFF" d="M132.81,313.192l3.922-9.331c0.192-0.448,0.704-0.656,1.168-0.465c0.432,0.177,0.64,0.704,0.448,1.137
		l-3.922,9.348c-0.144,0.336-0.48,0.528-0.816,0.528c-0.096,0-0.224-0.016-0.32-0.064
		C132.826,314.169,132.618,313.641,132.81,313.192z"/>
	<path fill="#FFFFFF" d="M146.157,313.529c0,0.496-0.384,0.88-0.88,0.88h-5.667c0,0,0,0-0.016,0h-0.016
		c-0.24,0-0.496-0.096-0.656-0.288c-0.336-0.368-0.304-0.912,0.048-1.249l4.738-4.289c0.464-0.416,0.672-0.961,0.672-1.537
		c0-0.512-0.176-0.992-0.528-1.393c-0.416-0.464-0.976-0.672-1.537-0.672c-0.496,0-0.992,0.176-1.393,0.528l-0.496,0.448
		c-0.368,0.336-0.912,0.304-1.249-0.064c-0.32-0.368-0.304-0.912,0.064-1.248l0.497-0.448c0.72-0.673,1.665-0.992,2.577-0.992
		c1.041,0,2.097,0.432,2.849,1.264c0.672,0.721,0.993,1.665,0.993,2.577c0,1.041-0.432,2.097-1.265,2.85l-3.025,2.737h3.409
		C145.773,312.633,146.157,313.032,146.157,313.529z"/>
	<path fill="#FFFFFF" d="M148.362,308.807c0.016-1.473,0.384-2.801,1.088-3.825c0.672-1.024,1.712-1.776,2.977-1.776
		c1.232,0,2.289,0.752,2.961,1.776c0.688,1.024,1.072,2.353,1.072,3.825c0,1.457-0.384,2.802-1.072,3.826
		c-0.672,1.008-1.729,1.776-2.961,1.776c-1.265,0-2.305-0.769-2.977-1.776C148.746,311.608,148.378,310.264,148.362,308.807z
		 M154.684,308.807c0-1.152-0.32-2.16-0.768-2.849c-0.464-0.673-0.993-0.992-1.489-0.977c-0.496-0.016-1.041,0.304-1.521,0.977
		c-0.448,0.688-0.769,1.696-0.769,2.849c0,1.137,0.32,2.161,0.769,2.833c0.48,0.688,1.024,0.993,1.521,0.993
		s1.024-0.305,1.489-0.993C154.365,310.968,154.684,309.943,154.684,308.807z"/>
	<path fill="#FFFFFF" d="M162.971,304.085v9.444c0,0.496-0.416,0.88-0.896,0.88c-0.497,0-0.88-0.384-0.88-0.88v-7.876l-0.641,0.368
		c-0.144,0.097-0.304,0.128-0.448,0.128c-0.304,0-0.592-0.159-0.752-0.447c-0.272-0.4-0.128-0.961,0.288-1.201l1.969-1.168
		c0.016-0.017,0.048-0.017,0.064-0.032c0.032,0,0.048-0.032,0.08-0.048c0.032,0,0.064-0.017,0.096-0.017
		c0.016-0.016,0.048-0.016,0.064-0.016c0.032-0.016,0.08-0.016,0.112-0.016c0.016,0,0.032,0,0.048,0h0.016c0.048,0,0.08,0,0.112,0
		c0.016,0.016,0.048,0.016,0.064,0.016c0.048,0,0.064,0.016,0.096,0.032c0.016,0,0.048,0,0.064,0.016
		c0.048,0.032,0.064,0.048,0.096,0.048c0.016,0.017,0.032,0.032,0.064,0.048c0.016,0.017,0.048,0.032,0.064,0.049
		c0.032,0.016,0.048,0.048,0.064,0.063c0.016,0.017,0.032,0.032,0.048,0.064c0.016,0.016,0.048,0.048,0.064,0.063l0.016,0.032
		c0,0.017,0.016,0.032,0.016,0.048c0.016,0.032,0.032,0.048,0.032,0.08c0.016,0.032,0.016,0.064,0.032,0.08
		c0,0.032,0.016,0.064,0.016,0.08c0,0.048,0,0.08,0.032,0.112C162.971,304.053,162.971,304.069,162.971,304.085z"/>
	<path fill="#FFFFFF" d="M173.566,311.432c0,0.496-0.4,0.881-0.896,0.881h-0.16v1.217c0,0.496-0.384,0.88-0.88,0.88
		s-0.88-0.384-0.88-0.88v-1.217h-5.01h-0.016h-0.016c-0.192,0-0.384-0.048-0.544-0.192c-0.4-0.304-0.448-0.849-0.144-1.232
		l5.922-7.363c0.016,0,0.016-0.016,0.032-0.031c0.016-0.017,0.032-0.032,0.048-0.064c0.048-0.016,0.064-0.032,0.08-0.048
		c0.016-0.017,0.048-0.032,0.064-0.048c0.032-0.017,0.048-0.032,0.096-0.032c0.016-0.032,0.032-0.048,0.064-0.048
		c0.016-0.017,0.048-0.017,0.096-0.032c0.016,0,0.048,0,0.064-0.016c0.032,0,0.08,0,0.112,0c0,0,0.016,0,0.032,0s0.016,0,0.032,0
		c0.032,0,0.08,0,0.096,0c0.032,0.016,0.048,0.016,0.08,0.016c0.016,0.016,0.064,0.016,0.096,0.032c0.016,0,0.048,0.016,0.064,0.016
		c0.032,0.032,0.064,0.048,0.08,0.064c0.032,0.016,0.048,0.031,0.08,0.048c0,0,0.016,0,0.016,0.016c0.016,0,0.048,0.017,0.048,0.032
		c0.032,0.032,0.048,0.048,0.064,0.064c0.016,0.016,0.032,0.048,0.048,0.063c0.016,0.017,0.032,0.032,0.064,0.08
		c0,0.017,0.016,0.048,0.032,0.064c0.016,0.031,0.016,0.048,0.032,0.096c0,0.016,0.016,0.048,0.016,0.064
		c0.016,0.031,0.016,0.048,0.016,0.096c0,0.032,0.016,0.048,0.016,0.08c0,0.016,0,0.032,0,0.048v6.467h0.16
		C173.165,310.552,173.566,310.952,173.566,311.432z M170.748,306.598l-3.185,3.954h3.185V306.598z"/>
	<path fill="#FFFFFF" d="M14.221,338.386c-0.016,0-0.016-0.017-0.016-0.032l-0.016-0.017l-4.337-10.324
		c-0.08-0.191,0.016-0.432,0.208-0.512c0.192-0.096,0.432,0,0.512,0.192l4.001,9.539l4.018-9.539
		c0.064-0.192,0.304-0.288,0.496-0.192c0.192,0.08,0.288,0.32,0.208,0.512l-4.338,10.244c-0.016,0.145-0.096,0.272-0.224,0.32
		h-0.016c-0.048,0.017-0.096,0.032-0.144,0.032s-0.112,0-0.144-0.016c-0.016,0-0.016-0.017-0.016-0.017
		C14.317,338.545,14.253,338.481,14.221,338.386z"/>
	<path fill="#FFFFFF" d="M20.683,334.704c0-2.177,1.697-3.938,3.81-3.938c2.017,0,3.618,1.601,3.778,3.649v0.016v0.048
		c0,0.208-0.176,0.353-0.384,0.353h-6.435c0.08,1.713,1.424,3.009,3.041,3.009c1.041,0,2.001-0.544,2.529-1.425
		c0.112-0.191,0.352-0.224,0.512-0.128c0.176,0.128,0.24,0.353,0.128,0.545c-0.672,1.072-1.841,1.776-3.169,1.776
		C22.38,338.609,20.683,336.849,20.683,334.704z M21.499,334.079h5.938c-0.256-1.472-1.504-2.545-2.945-2.545
		C23.02,331.534,21.787,332.591,21.499,334.079z"/>
	<path fill="#FFFFFF" d="M36.59,333.968c0-1.329-1.072-2.417-2.417-2.417c-1.329,0-2.401,1.088-2.433,2.417v4.258v0.063
		c-0.016,0.064-0.032,0.128-0.08,0.176c-0.064,0.097-0.176,0.145-0.288,0.145h-0.096c-0.112-0.032-0.208-0.112-0.256-0.208
		c-0.016-0.016-0.016-0.032-0.016-0.048c0-0.017-0.016-0.032-0.016-0.032v-0.096v-4.258v-0.128v-2.674
		c0-0.208,0.16-0.384,0.384-0.384c0.208,0,0.368,0.176,0.368,0.384v0.753c0.577-0.688,1.457-1.137,2.433-1.137
		c1.761,0,3.186,1.44,3.186,3.186v4.258c0,0.224-0.176,0.384-0.384,0.384s-0.384-0.16-0.384-0.384V333.968z"/>
	<path fill="#FFFFFF" d="M40.635,331.135c0-0.225,0.176-0.385,0.384-0.385c0.208,0,0.384,0.16,0.384,0.385v4.273
		c0,1.345,1.073,2.417,2.401,2.433c1.344-0.016,2.433-1.088,2.433-2.433v-4.273c0-0.225,0.192-0.385,0.384-0.385
		c0.224,0,0.4,0.16,0.4,0.385v4.273c0,1.761-1.425,3.201-3.217,3.201c-1.761,0-3.169-1.44-3.169-3.201V331.135z"/>
	<path fill="#FFFFFF" d="M50.299,338.001l2.401-3.281l-2.401-3.297c-0.112-0.192-0.08-0.417,0.08-0.545
		c0.16-0.111,0.416-0.08,0.528,0.097l2.273,3.089l2.257-3.089c0.128-0.177,0.368-0.208,0.512-0.097
		c0.192,0.128,0.224,0.353,0.112,0.545l-2.417,3.297l2.417,3.281c0.112,0.176,0.08,0.4-0.112,0.528
		c-0.048,0.048-0.128,0.08-0.192,0.08c-0.128,0-0.256-0.048-0.32-0.16l-2.257-3.089l-2.273,3.089
		c-0.064,0.112-0.192,0.16-0.304,0.16c-0.064,0-0.144-0.032-0.224-0.08C50.219,338.401,50.187,338.177,50.299,338.001z"/>
	<path fill="#FFFFFF" d="M64.635,327.789c0-0.208,0.176-0.384,0.384-0.384c0.224,0,0.4,0.176,0.4,0.384v10.437
		c0,0.208-0.176,0.384-0.4,0.384c-0.208,0-0.384-0.176-0.384-0.384V327.789z"/>
	<path fill="#FFFFFF" d="M75.086,331.15v7.075c0,0.208-0.176,0.384-0.384,0.384s-0.384-0.176-0.384-0.384v-1.169
		c-0.672,0.929-1.745,1.553-2.945,1.553c-2.064,0-3.713-1.776-3.713-3.922c0-2.145,1.649-3.921,3.713-3.921
		c1.201,0,2.273,0.607,2.945,1.536v-1.152c0-0.224,0.176-0.384,0.384-0.384S75.086,330.927,75.086,331.15z M74.317,334.688
		c0-1.761-1.329-3.169-2.945-3.169c-1.601,0-2.945,1.408-2.945,3.169s1.344,3.153,2.945,3.153
		C72.989,337.841,74.317,336.448,74.317,334.688z"/>
	<path fill="#FFFFFF" d="M78.25,331.135c0-0.225,0.176-0.385,0.384-0.385c0.208,0,0.384,0.16,0.384,0.385v4.273
		c0,1.345,1.073,2.417,2.401,2.433c1.344-0.016,2.433-1.088,2.433-2.433v-4.273c0-0.225,0.192-0.385,0.384-0.385
		c0.224,0,0.4,0.16,0.4,0.385v4.273c0,1.761-1.425,3.201-3.217,3.201c-1.761,0-3.169-1.44-3.169-3.201V331.135z"/>
	<path fill="#FFFFFF" d="M93.437,333.968c0-1.329-1.072-2.417-2.417-2.417c-1.329,0-2.401,1.088-2.433,2.417v4.258v0.063
		c-0.016,0.064-0.032,0.128-0.08,0.176c-0.064,0.097-0.176,0.145-0.288,0.145h-0.096c-0.112-0.032-0.208-0.112-0.256-0.208
		c-0.016-0.016-0.016-0.032-0.016-0.048c0-0.017-0.016-0.032-0.016-0.032v-0.096v-4.258v-0.128v-2.674
		c0-0.208,0.16-0.384,0.384-0.384c0.208,0,0.368,0.176,0.368,0.384v0.753c0.576-0.688,1.457-1.137,2.433-1.137
		c1.761,0,3.186,1.44,3.186,3.186v4.258c0,0.224-0.176,0.384-0.384,0.384s-0.384-0.16-0.384-0.384V333.968z"/>
	<path fill="#FFFFFF" d="M97.082,334.672c0-2.177,1.793-3.905,4.034-3.905c0.929,0,1.809,0.319,2.497,0.864
		c0.16,0.111,0.192,0.352,0.048,0.528c-0.128,0.144-0.352,0.191-0.528,0.063c-0.561-0.448-1.265-0.704-2.017-0.704
		c-1.825,0-3.265,1.425-3.265,3.153c0,1.761,1.44,3.169,3.265,3.169c0.752,0,1.457-0.256,2.017-0.688
		c0.176-0.128,0.4-0.079,0.528,0.064c0.144,0.176,0.112,0.416-0.08,0.561c-0.656,0.512-1.536,0.832-2.465,0.832
		C98.875,338.609,97.082,336.881,97.082,334.672z"/>
	<path fill="#FFFFFF" d="M112.541,333.855c0-1.377-1.121-2.305-2.497-2.305c-1.36,0-2.481,0.928-2.481,2.305v4.37v0.048
		c0,0.032-0.016,0.048-0.016,0.063c-0.016,0.032-0.016,0.049-0.032,0.064c-0.048,0.096-0.128,0.16-0.24,0.192
		c0,0-0.016,0.016-0.032,0.016h-0.032h-0.048c-0.112,0-0.224-0.048-0.304-0.128c-0.032-0.048-0.048-0.08-0.064-0.128
		c-0.016-0.048-0.016-0.08-0.016-0.128v-4.37v-0.128v-5.938c0-0.208,0.176-0.384,0.384-0.384c0.224,0,0.4,0.176,0.4,0.384v4.13
		c0.592-0.704,1.489-1.152,2.481-1.152c1.809,0,3.281,1.28,3.281,3.089v4.37c0,0.208-0.176,0.384-0.4,0.384
		c-0.208,0-0.384-0.176-0.384-0.384V333.855z"/>
	<path fill="#FFFFFF" d="M116.026,334.704c0-2.177,1.697-3.938,3.81-3.938c2.017,0,3.618,1.601,3.778,3.649v0.016v0.048
		c0,0.208-0.176,0.353-0.384,0.353h-6.435c0.08,1.713,1.424,3.009,3.041,3.009c1.041,0,2.001-0.544,2.529-1.425
		c0.112-0.191,0.352-0.224,0.512-0.128c0.176,0.128,0.24,0.353,0.128,0.545c-0.672,1.072-1.841,1.776-3.169,1.776
		C117.722,338.609,116.026,336.849,116.026,334.704z M116.842,334.079h5.938c-0.256-1.472-1.504-2.545-2.945-2.545
		C118.363,331.534,117.13,332.591,116.842,334.079z"/>
	<path fill="#FFFFFF" d="M132.605,337.089c-0.688,0.929-1.777,1.521-3.009,1.521c-2.113,0-3.793-1.761-3.793-3.905
		c0-2.177,1.681-3.938,3.793-3.938c1.232,0,2.321,0.607,3.009,1.536v-4.514c0-0.208,0.176-0.384,0.4-0.384
		c0.208,0,0.384,0.176,0.384,0.384v6.755v0.16v3.521c0,0.208-0.176,0.384-0.384,0.384c-0.224,0-0.4-0.176-0.4-0.384V337.089z
		 M132.605,334.832v-0.256c-0.064-1.681-1.393-3.025-3.009-3.025c-1.648,0-3.009,1.408-3.009,3.153c0,1.729,1.361,3.121,3.009,3.121
		C131.212,337.825,132.541,336.496,132.605,334.832z"/>
	<path fill="#FFFFFF" d="M141.705,328.589c0-0.208,0.176-0.384,0.384-0.384c0.224,0,0.4,0.176,0.4,0.384v0.368
		c0,0.225-0.176,0.417-0.4,0.417c-0.208,0-0.384-0.192-0.384-0.417V328.589z M141.705,331.15c0-0.224,0.176-0.384,0.384-0.384
		c0.224,0,0.4,0.16,0.4,0.384v7.075c0,0.208-0.176,0.384-0.4,0.384c-0.208,0-0.384-0.176-0.384-0.384V331.15z"/>
	<path fill="#FFFFFF" d="M148.923,331.15c0,0.192-0.192,0.384-0.384,0.384h-1.009v5.715c0,0.384,0.384,0.576,0.576,0.576
		c0.192,0,0.4,0.208,0.4,0.4c0,0.191-0.208,0.384-0.4,0.384c-0.784,0-1.376-0.576-1.376-1.36v-5.715h-0.976
		c-0.384,0-0.384-0.191-0.384-0.384s0-0.384,0.384-0.384h0.976v-2.914c0-0.191,0.192-0.384,0.384-0.384
		c0.208,0,0.416,0.192,0.416,0.384v2.914h1.009C148.731,330.767,148.923,330.958,148.923,331.15z"/>
	<path fill="#FFFFFF" d="M152.041,336.977c0.128-0.16,0.368-0.192,0.544-0.048c0.544,0.4,1.408,0.912,2.401,0.912
		c0.608,0,1.136-0.191,1.489-0.479c0.384-0.257,0.592-0.608,0.592-0.961c-0.016-0.368-0.16-0.624-0.56-0.96
		c-0.336-0.257-0.896-0.448-1.665-0.576l-0.032-0.017c-0.704-0.128-1.329-0.288-1.776-0.608c-0.497-0.288-0.849-0.8-0.849-1.408
		c0-0.624,0.352-1.169,0.849-1.537c0.464-0.319,1.12-0.527,1.92-0.527c1.008,0,1.729,0.464,2.337,0.848
		c0.176,0.128,0.224,0.368,0.112,0.545c-0.112,0.176-0.352,0.224-0.528,0.111c-0.576-0.384-1.152-0.784-1.921-0.784
		c-0.64,0-1.152,0.176-1.488,0.448c-0.32,0.256-0.497,0.576-0.497,0.896s0.144,0.544,0.448,0.784c0.352,0.24,0.88,0.433,1.601,0.544
		h0.032c0.752,0.112,1.36,0.337,1.905,0.641c0.512,0.336,0.88,0.944,0.88,1.601s-0.368,1.185-0.896,1.585
		c-0.544,0.4-1.185,0.624-1.953,0.624c-1.265-0.016-2.257-0.608-2.897-1.12C151.929,337.345,151.913,337.137,152.041,336.977z"/>
	<path fill="#FFFFFF" d="M171.419,328.109l-2.897,2.977c0.704,0.145,1.376,0.48,1.921,1.024c0.736,0.736,1.104,1.713,1.104,2.689
		s-0.368,1.953-1.121,2.689c-0.736,0.736-1.713,1.12-2.689,1.12c-0.96,0-1.937-0.368-2.673-1.12c-0.16-0.145-0.16-0.4,0-0.561
		c0.144-0.16,0.4-0.16,0.561,0c0.592,0.576,1.344,0.864,2.113,0.864c0.768,0,1.537-0.288,2.129-0.864
		c0.592-0.592,0.88-1.36,0.88-2.129s-0.288-1.536-0.88-2.113c-0.576-0.592-1.345-0.88-2.113-0.88c-0.128,0-0.24-0.064-0.32-0.16
		h-0.016c-0.16-0.16-0.16-0.416,0-0.576l2.785-2.865h-4.29c-0.224,0-0.4-0.176-0.4-0.4c0-0.224,0.176-0.399,0.4-0.399h5.234
		c0.224,0,0.4,0.176,0.4,0.399c0,0.064-0.016,0.128-0.048,0.177C171.484,328.029,171.451,328.077,171.419,328.109z"/>
	<path fill="#FFFFFF" d="M175.609,338.609h-0.064c-0.191-0.016-0.352-0.176-0.352-0.384v-10.437c0-0.208,0.176-0.384,0.385-0.384
		h0.047h2.049c3.09,0,5.604,2.528,5.604,5.618c0,3.089-2.514,5.586-5.604,5.586H175.609z M177.673,337.825
		c2.658,0,4.818-2.145,4.818-4.802c0-2.674-2.16-4.818-4.818-4.834h-1.695v9.636H177.673z"/>
	<path fill="#FFFFFF" d="M193.946,338.545c-0.08-0.031-0.128-0.096-0.16-0.176l-2.945-7.011c-0.08-0.192,0.017-0.416,0.192-0.496
		c0.191-0.08,0.432,0.016,0.496,0.208l2.609,6.179l1.809-4.306c0.064-0.145,0.224-0.24,0.367-0.24c0.16,0,0.32,0.096,0.385,0.24
		l1.809,4.306l2.594-6.179c0.08-0.192,0.32-0.288,0.496-0.208c0.191,0.08,0.287,0.304,0.207,0.496l-2.929,6.979
		c-0.032,0.08-0.079,0.145-0.144,0.192s-0.129,0.08-0.192,0.08h-0.032h-0.048c-0.128-0.016-0.272-0.112-0.304-0.24l-0.017-0.016
		l-1.825-4.338l-1.809,4.321c0,0-0.016,0.017-0.016,0.032c-0.048,0.145-0.208,0.24-0.336,0.24c-0.048,0-0.096-0.016-0.145-0.032
		C193.978,338.577,193.962,338.562,193.946,338.545z"/>
	<path fill="#FFFFFF" d="M203.576,334.704c0-2.177,1.696-3.938,3.81-3.938c2.018,0,3.617,1.601,3.777,3.649v0.016v0.048
		c0,0.208-0.176,0.353-0.384,0.353h-6.435c0.08,1.713,1.424,3.009,3.041,3.009c1.041,0,2.001-0.544,2.529-1.425
		c0.111-0.191,0.352-0.224,0.512-0.128c0.176,0.128,0.24,0.353,0.129,0.545c-0.673,1.072-1.842,1.776-3.17,1.776
		C205.273,338.609,203.576,336.849,203.576,334.704z M204.393,334.079h5.938c-0.256-1.472-1.504-2.545-2.945-2.545
		C205.913,331.534,204.681,332.591,204.393,334.079z"/>
	<path fill="#FFFFFF" d="M213.88,334.864v-0.16v-0.16v-6.755c0-0.208,0.176-0.384,0.385-0.384c0.224,0,0.4,0.176,0.4,0.384v4.514
		c0.688-0.929,1.776-1.536,3.009-1.536c2.112,0,3.794,1.761,3.794,3.938c0,2.145-1.682,3.905-3.794,3.905
		c-1.232,0-2.321-0.592-3.009-1.521v1.137c0,0.208-0.177,0.384-0.4,0.384c-0.209,0-0.385-0.176-0.385-0.384V334.864z
		 M214.665,334.704c0,1.729,1.359,3.121,3.009,3.121c1.665,0,3.009-1.393,3.009-3.121c0-1.745-1.344-3.153-3.009-3.153
		c-1.616,0-2.945,1.345-3.009,3.025V334.704z"/>
	<path fill="#FFFFFF" d="M223.896,336.977c0.129-0.16,0.369-0.192,0.545-0.048c0.544,0.4,1.408,0.912,2.4,0.912
		c0.609,0,1.137-0.191,1.488-0.479c0.385-0.257,0.593-0.608,0.593-0.961c-0.016-0.368-0.159-0.624-0.56-0.96
		c-0.336-0.257-0.896-0.448-1.665-0.576l-0.032-0.017c-0.704-0.128-1.328-0.288-1.776-0.608c-0.497-0.288-0.849-0.8-0.849-1.408
		c0-0.624,0.352-1.169,0.849-1.537c0.464-0.319,1.12-0.527,1.921-0.527c1.008,0,1.729,0.464,2.336,0.848
		c0.177,0.128,0.225,0.368,0.113,0.545c-0.113,0.176-0.353,0.224-0.529,0.111c-0.576-0.384-1.152-0.784-1.92-0.784
		c-0.641,0-1.152,0.176-1.488,0.448c-0.32,0.256-0.497,0.576-0.497,0.896s0.144,0.544,0.448,0.784
		c0.352,0.24,0.881,0.433,1.601,0.544h0.032c0.752,0.112,1.36,0.337,1.904,0.641c0.513,0.336,0.881,0.944,0.881,1.601
		s-0.368,1.185-0.896,1.585c-0.544,0.4-1.185,0.624-1.953,0.624c-1.264-0.016-2.256-0.608-2.896-1.12
		C223.784,337.345,223.769,337.137,223.896,336.977z"/>
	<path fill="#FFFFFF" d="M232.327,328.589c0-0.208,0.177-0.384,0.385-0.384c0.225,0,0.4,0.176,0.4,0.384v0.368
		c0,0.225-0.176,0.417-0.4,0.417c-0.208,0-0.385-0.192-0.385-0.417V328.589z M232.327,331.15c0-0.224,0.177-0.384,0.385-0.384
		c0.225,0,0.4,0.16,0.4,0.384v7.075c0,0.208-0.176,0.384-0.4,0.384c-0.208,0-0.385-0.176-0.385-0.384V331.15z"/>
	<path fill="#FFFFFF" d="M239.544,331.15c0,0.192-0.191,0.384-0.383,0.384h-1.01v5.715c0,0.384,0.385,0.576,0.576,0.576
		c0.193,0,0.4,0.208,0.4,0.4c0,0.191-0.207,0.384-0.4,0.384c-0.783,0-1.376-0.576-1.376-1.36v-5.715h-0.976
		c-0.385,0-0.385-0.191-0.385-0.384s0-0.384,0.385-0.384h0.976v-2.914c0-0.191,0.192-0.384,0.384-0.384
		c0.209,0,0.416,0.192,0.416,0.384v2.914h1.01C239.353,330.767,239.544,330.958,239.544,331.15z"/>
	<path fill="#FFFFFF" d="M242.007,334.704c0-2.177,1.697-3.938,3.811-3.938c2.017,0,3.617,1.601,3.777,3.649v0.016v0.048
		c0,0.208-0.176,0.353-0.385,0.353h-6.434c0.08,1.713,1.424,3.009,3.041,3.009c1.04,0,2-0.544,2.529-1.425
		c0.111-0.191,0.352-0.224,0.512-0.128c0.176,0.128,0.24,0.353,0.128,0.545c-0.673,1.072-1.841,1.776-3.169,1.776
		C243.704,338.609,242.007,336.849,242.007,334.704z M242.823,334.079h5.939c-0.256-1.472-1.505-2.545-2.945-2.545
		C244.345,331.534,243.113,332.591,242.823,334.079z"/>
	<path fill="#FFFFFF" d="M252.777,337.009c0.447,0,0.8,0.353,0.8,0.8c0,0.448-0.353,0.801-0.8,0.801
		c-0.449,0-0.801-0.353-0.801-0.801C251.976,337.361,252.327,337.009,252.777,337.009z"/>
	<path fill="#FFFFFF" d="M35.804,376.785c-0.016,0-0.016-0.017-0.016-0.032l-0.016-0.017l-4.337-10.324
		c-0.08-0.191,0.016-0.432,0.208-0.512c0.192-0.096,0.432,0,0.512,0.192l4.001,9.539l4.018-9.539
		c0.064-0.192,0.304-0.288,0.496-0.192c0.192,0.08,0.289,0.32,0.208,0.512l-4.338,10.244c-0.016,0.145-0.096,0.272-0.224,0.32
		h-0.016c-0.048,0.017-0.096,0.032-0.144,0.032s-0.112,0-0.144-0.016c-0.016,0-0.016-0.017-0.016-0.017
		C35.901,376.944,35.837,376.881,35.804,376.785z"/>
	<path fill="#FFFFFF" d="M42.267,373.104c0-2.177,1.697-3.938,3.81-3.938c2.017,0,3.618,1.601,3.778,3.649v0.016v0.048
		c0,0.208-0.176,0.353-0.384,0.353h-6.435c0.08,1.713,1.424,3.009,3.041,3.009c1.041,0,2.001-0.544,2.529-1.425
		c0.112-0.191,0.352-0.224,0.512-0.128c0.176,0.128,0.24,0.353,0.128,0.545c-0.672,1.072-1.841,1.776-3.169,1.776
		C43.964,377.009,42.267,375.248,42.267,373.104z M43.083,372.479h5.938c-0.256-1.472-1.504-2.545-2.945-2.545
		C44.604,369.934,43.371,370.99,43.083,372.479z"/>
	<path fill="#FFFFFF" d="M58.173,372.367c0-1.329-1.072-2.417-2.417-2.417c-1.329,0-2.401,1.088-2.433,2.417v4.258v0.063
		c-0.016,0.064-0.032,0.128-0.08,0.176c-0.064,0.097-0.176,0.145-0.288,0.145h-0.096c-0.112-0.032-0.208-0.112-0.256-0.208
		c-0.016-0.016-0.016-0.032-0.016-0.048c0-0.017-0.016-0.032-0.016-0.032v-0.096v-4.258v-0.128v-2.674
		c0-0.208,0.16-0.384,0.384-0.384c0.208,0,0.368,0.176,0.368,0.384v0.753c0.576-0.688,1.457-1.137,2.433-1.137
		c1.761,0,3.186,1.44,3.186,3.186v4.258c0,0.224-0.176,0.384-0.384,0.384s-0.384-0.16-0.384-0.384V372.367z"/>
	<path fill="#FFFFFF" d="M62.219,369.534c0-0.225,0.176-0.385,0.384-0.385c0.208,0,0.384,0.16,0.384,0.385v4.273
		c0,1.345,1.073,2.417,2.401,2.433c1.344-0.016,2.433-1.088,2.433-2.433v-4.273c0-0.225,0.192-0.385,0.384-0.385
		c0.224,0,0.4,0.16,0.4,0.385v4.273c0,1.761-1.425,3.201-3.217,3.201c-1.761,0-3.169-1.44-3.169-3.201V369.534z"/>
	<path fill="#FFFFFF" d="M71.883,376.4l2.401-3.281l-2.401-3.297c-0.112-0.192-0.08-0.417,0.08-0.545
		c0.16-0.111,0.416-0.08,0.528,0.097l2.272,3.089l2.257-3.089c0.128-0.177,0.368-0.208,0.512-0.097
		c0.192,0.128,0.224,0.353,0.112,0.545l-2.417,3.297l2.417,3.281c0.112,0.176,0.08,0.4-0.112,0.528
		c-0.048,0.048-0.128,0.08-0.192,0.08c-0.128,0-0.256-0.048-0.32-0.16l-2.257-3.089l-2.272,3.089
		c-0.064,0.112-0.192,0.16-0.304,0.16c-0.064,0-0.144-0.032-0.224-0.08C71.802,376.801,71.77,376.576,71.883,376.4z"/>
	<path fill="#FFFFFF" d="M86.122,366.988c0-0.208,0.176-0.384,0.384-0.384c0.224,0,0.4,0.176,0.4,0.384v0.368
		c0,0.225-0.176,0.417-0.4,0.417c-0.208,0-0.384-0.192-0.384-0.417V366.988z M86.122,369.55c0-0.225,0.176-0.384,0.384-0.384
		c0.224,0,0.4,0.159,0.4,0.384v7.075c0,0.208-0.176,0.384-0.4,0.384c-0.208,0-0.384-0.176-0.384-0.384V369.55z"/>
	<path fill="#FFFFFF" d="M90.058,375.376c0.128-0.16,0.368-0.192,0.544-0.048c0.544,0.4,1.408,0.912,2.401,0.912
		c0.608,0,1.136-0.191,1.489-0.479c0.384-0.257,0.592-0.608,0.592-0.961c-0.016-0.368-0.16-0.624-0.56-0.96
		c-0.336-0.257-0.896-0.448-1.665-0.576l-0.032-0.017c-0.704-0.128-1.329-0.288-1.776-0.608c-0.497-0.288-0.849-0.8-0.849-1.408
		c0-0.624,0.352-1.169,0.849-1.537c0.464-0.319,1.12-0.527,1.92-0.527c1.008,0,1.729,0.464,2.337,0.848
		c0.176,0.128,0.224,0.368,0.112,0.545c-0.112,0.176-0.352,0.224-0.528,0.111c-0.576-0.384-1.152-0.784-1.921-0.784
		c-0.64,0-1.152,0.176-1.488,0.448c-0.32,0.256-0.497,0.576-0.497,0.896s0.144,0.544,0.448,0.784c0.352,0.24,0.88,0.433,1.601,0.544
		h0.032c0.752,0.112,1.36,0.337,1.905,0.641c0.512,0.336,0.88,0.944,0.88,1.601s-0.368,1.185-0.896,1.585
		c-0.544,0.4-1.185,0.624-1.953,0.624c-1.265-0.016-2.257-0.608-2.897-1.12C89.946,375.744,89.93,375.536,90.058,375.376z"/>
	<path fill="#FFFFFF" d="M103.289,366.988c0-0.208,0.176-0.384,0.384-0.384c0.224,0,0.4,0.176,0.4,0.384v0.368
		c0,0.225-0.176,0.417-0.4,0.417c-0.208,0-0.384-0.192-0.384-0.417V366.988z M103.289,369.55c0-0.225,0.176-0.384,0.384-0.384
		c0.224,0,0.4,0.159,0.4,0.384v7.075c0,0.208-0.176,0.384-0.4,0.384c-0.208,0-0.384-0.176-0.384-0.384V369.55z"/>
	<path fill="#FFFFFF" d="M113.372,372.367c0-1.329-1.072-2.417-2.417-2.417c-1.329,0-2.401,1.088-2.433,2.417v4.258v0.063
		c-0.016,0.064-0.032,0.128-0.08,0.176c-0.064,0.097-0.176,0.145-0.288,0.145h-0.096c-0.112-0.032-0.208-0.112-0.256-0.208
		c-0.016-0.016-0.016-0.032-0.016-0.048c0-0.017-0.016-0.032-0.016-0.032v-0.096v-4.258v-0.128v-2.674
		c0-0.208,0.16-0.384,0.384-0.384c0.208,0,0.368,0.176,0.368,0.384v0.753c0.577-0.688,1.457-1.137,2.433-1.137
		c1.761,0,3.186,1.44,3.186,3.186v4.258c0,0.224-0.176,0.384-0.384,0.384s-0.384-0.16-0.384-0.384V372.367z"/>
	<path fill="#FFFFFF" d="M125.114,369.55c0,0.192-0.192,0.384-0.384,0.384h-1.009v5.715c0,0.384,0.384,0.576,0.576,0.576
		c0.192,0,0.4,0.208,0.4,0.4c0,0.191-0.208,0.384-0.4,0.384c-0.784,0-1.376-0.576-1.376-1.36v-5.715h-0.976
		c-0.384,0-0.384-0.191-0.384-0.384s0-0.384,0.384-0.384h0.976v-2.913c0-0.192,0.192-0.385,0.384-0.385
		c0.208,0,0.416,0.192,0.416,0.385v2.913h1.009C124.922,369.166,125.114,369.357,125.114,369.55z"/>
	<path fill="#FFFFFF" d="M134.219,372.255c0-1.377-1.121-2.305-2.497-2.305c-1.36,0-2.481,0.928-2.481,2.305v4.37v0.048
		c0,0.032-0.016,0.048-0.016,0.063c-0.016,0.032-0.016,0.049-0.032,0.064c-0.048,0.096-0.128,0.16-0.24,0.192
		c0,0-0.016,0.016-0.032,0.016h-0.032h-0.048c-0.112,0-0.224-0.048-0.304-0.128c-0.032-0.048-0.048-0.08-0.064-0.128
		c-0.016-0.048-0.016-0.08-0.016-0.128v-4.37v-0.128v-5.938c0-0.208,0.176-0.384,0.384-0.384c0.224,0,0.4,0.176,0.4,0.384v4.13
		c0.592-0.704,1.489-1.152,2.481-1.152c1.809,0,3.281,1.28,3.281,3.089v4.37c0,0.208-0.176,0.384-0.4,0.384
		c-0.208,0-0.384-0.176-0.384-0.384V372.255z"/>
	<path fill="#FFFFFF" d="M137.705,373.104c0-2.177,1.697-3.938,3.81-3.938c2.017,0,3.618,1.601,3.778,3.649v0.016v0.048
		c0,0.208-0.176,0.353-0.384,0.353h-6.435c0.08,1.713,1.424,3.009,3.041,3.009c1.041,0,2.001-0.544,2.529-1.425
		c0.112-0.191,0.352-0.224,0.512-0.128c0.176,0.128,0.24,0.353,0.128,0.545c-0.672,1.072-1.841,1.776-3.169,1.776
		C139.402,377.009,137.705,375.248,137.705,373.104z M138.521,372.479h5.938c-0.256-1.472-1.504-2.545-2.945-2.545
		C140.042,369.934,138.809,370.99,138.521,372.479z"/>
	<path fill="#FFFFFF" d="M152.809,373.215v-0.159v-0.16v-3.346c0-0.208,0.176-0.384,0.384-0.384c0.224,0,0.4,0.176,0.4,0.384v1.137
		c0.672-0.913,1.761-1.521,2.977-1.521c2.113,0,3.793,1.744,3.793,3.89c0,2.128-1.681,3.905-3.793,3.905
		c-1.216,0-2.305-0.608-2.977-1.537v4.482c0,0.208-0.176,0.384-0.4,0.384c-0.208,0-0.384-0.176-0.384-0.384V373.215z
		 M153.593,373.056c0,1.729,1.36,3.121,2.977,3.137c1.665-0.016,3.009-1.408,3.009-3.137c0-1.729-1.344-3.105-3.009-3.105
		c-1.584,0-2.913,1.313-2.977,2.977V373.056z"/>
	<path fill="#FFFFFF" d="M163.369,369.565c0-0.224,0.176-0.384,0.4-0.384c0.192,0,0.368,0.16,0.368,0.384v1.729
		c0.032-0.064,0.064-0.129,0.112-0.192c0.592-0.929,1.632-1.921,3.137-1.921c0.208,0,0.384,0.16,0.384,0.384
		c0,0.208-0.176,0.385-0.384,0.385c-1.024,0-1.729,0.576-2.273,1.28c-0.528,0.704-0.833,1.505-0.944,1.825
		c-0.032,0.063-0.032,0.096-0.032,0.128v3.441c0,0.224-0.176,0.384-0.368,0.384c-0.224,0-0.4-0.16-0.4-0.384V369.565z"/>
	<path fill="#FFFFFF" d="M173.338,369.166c2.065,0,3.714,1.792,3.714,3.921s-1.648,3.922-3.714,3.922
		c-2.049,0-3.713-1.793-3.713-3.922S171.289,369.166,173.338,369.166z M173.338,376.24c1.601,0,2.945-1.408,2.945-3.153
		c0-1.744-1.345-3.169-2.945-3.169s-2.945,1.425-2.945,3.169C170.393,374.832,171.738,376.24,173.338,376.24z"/>
	<path fill="#FFFFFF" d="M179.433,373.071c0-2.177,1.793-3.905,4.033-3.905c0.928,0,1.809,0.319,2.497,0.864
		c0.16,0.111,0.192,0.352,0.048,0.528c-0.128,0.144-0.352,0.191-0.527,0.063c-0.561-0.448-1.266-0.704-2.018-0.704
		c-1.824,0-3.266,1.425-3.266,3.153c0,1.761,1.441,3.169,3.266,3.169c0.752,0,1.457-0.256,2.018-0.688
		c0.176-0.128,0.399-0.08,0.527,0.064c0.145,0.176,0.112,0.416-0.08,0.561c-0.656,0.512-1.537,0.832-2.465,0.832
		C181.226,377.009,179.433,375.28,179.433,373.071z"/>
	<path fill="#FFFFFF" d="M188.328,373.104c0-2.177,1.696-3.938,3.81-3.938c2.018,0,3.617,1.601,3.777,3.649v0.016v0.048
		c0,0.208-0.176,0.353-0.384,0.353h-6.435c0.08,1.713,1.424,3.009,3.041,3.009c1.041,0,2.001-0.544,2.529-1.425
		c0.111-0.191,0.352-0.224,0.512-0.128c0.176,0.128,0.24,0.353,0.129,0.545c-0.673,1.072-1.842,1.776-3.17,1.776
		C190.025,377.009,188.328,375.248,188.328,373.104z M189.145,372.479h5.938c-0.256-1.472-1.504-2.545-2.945-2.545
		C190.665,369.934,189.433,370.99,189.145,372.479z"/>
	<path fill="#FFFFFF" d="M198.089,375.376c0.127-0.16,0.367-0.192,0.544-0.048c0.544,0.4,1.408,0.912,2.401,0.912
		c0.607,0,1.136-0.191,1.488-0.479c0.384-0.257,0.592-0.608,0.592-0.961c-0.016-0.368-0.16-0.624-0.561-0.96
		c-0.336-0.257-0.896-0.448-1.664-0.576l-0.032-0.017c-0.704-0.128-1.329-0.288-1.776-0.608c-0.496-0.288-0.849-0.8-0.849-1.408
		c0-0.624,0.353-1.169,0.849-1.537c0.464-0.319,1.12-0.527,1.92-0.527c1.01,0,1.729,0.464,2.338,0.848
		c0.176,0.128,0.224,0.368,0.111,0.545c-0.111,0.176-0.352,0.224-0.527,0.111c-0.576-0.384-1.152-0.784-1.922-0.784
		c-0.64,0-1.152,0.176-1.488,0.448c-0.32,0.256-0.496,0.576-0.496,0.896s0.145,0.544,0.448,0.784c0.353,0.24,0.88,0.433,1.601,0.544
		h0.032c0.753,0.112,1.36,0.337,1.905,0.641c0.512,0.336,0.88,0.944,0.88,1.601s-0.368,1.185-0.896,1.585
		c-0.544,0.4-1.185,0.624-1.952,0.624c-1.266-0.016-2.258-0.608-2.898-1.12C197.977,375.744,197.96,375.536,198.089,375.376z"/>
	<path fill="#FFFFFF" d="M205.8,375.376c0.129-0.16,0.369-0.192,0.545-0.048c0.544,0.4,1.408,0.912,2.4,0.912
		c0.609,0,1.137-0.191,1.488-0.479c0.385-0.257,0.593-0.608,0.593-0.961c-0.016-0.368-0.159-0.624-0.56-0.96
		c-0.336-0.257-0.896-0.448-1.665-0.576l-0.032-0.017c-0.704-0.128-1.328-0.288-1.776-0.608c-0.497-0.288-0.849-0.8-0.849-1.408
		c0-0.624,0.352-1.169,0.849-1.537c0.464-0.319,1.12-0.527,1.921-0.527c1.008,0,1.729,0.464,2.336,0.848
		c0.177,0.128,0.225,0.368,0.113,0.545c-0.113,0.176-0.353,0.224-0.529,0.111c-0.576-0.384-1.152-0.784-1.92-0.784
		c-0.641,0-1.152,0.176-1.488,0.448c-0.32,0.256-0.497,0.576-0.497,0.896s0.144,0.544,0.448,0.784
		c0.352,0.24,0.881,0.433,1.601,0.544h0.032c0.752,0.112,1.36,0.337,1.904,0.641c0.513,0.336,0.881,0.944,0.881,1.601
		s-0.368,1.185-0.896,1.585c-0.544,0.4-1.185,0.624-1.953,0.624c-1.264-0.016-2.256-0.608-2.896-1.12
		C205.689,375.744,205.673,375.536,205.8,375.376z"/>
	<path fill="#FFFFFF" d="M222.362,369.166c2.065,0,3.714,1.792,3.714,3.921s-1.648,3.922-3.714,3.922
		c-2.049,0-3.714-1.793-3.714-3.922S220.313,369.166,222.362,369.166z M222.362,376.24c1.601,0,2.945-1.408,2.945-3.153
		c0-1.744-1.345-3.169-2.945-3.169s-2.945,1.425-2.945,3.169C219.416,374.832,220.761,376.24,222.362,376.24z"/>
	<path fill="#FFFFFF" d="M231.913,366.221c0,0.208-0.176,0.384-0.384,0.384c-0.544,0-0.833,0.112-0.993,0.305
		c-0.176,0.191-0.319,0.576-0.319,1.296v0.832h1.104c0.224,0,0.4,0.177,0.4,0.385c0,0.224-0.177,0.4-0.4,0.4h-1.104v6.818
		c0,0.208-0.177,0.384-0.384,0.384c-0.225,0-0.4-0.176-0.4-0.384v-6.818h-1.041c-0.208,0-0.384-0.177-0.384-0.4
		c0-0.208,0.176-0.385,0.384-0.385h1.041v-0.832c0.016-0.8,0.144-1.393,0.512-1.824c0.385-0.417,0.961-0.561,1.585-0.561
		C231.738,365.82,231.913,365.996,231.913,366.221z"/>
	<path fill="#FFFFFF" d="M44.011,385.389c0-0.208,0.176-0.384,0.384-0.384c0.224,0,0.4,0.176,0.4,0.384v10.437
		c0,0.208-0.176,0.384-0.4,0.384c-0.208,0-0.384-0.176-0.384-0.384V385.389z"/>
	<path fill="#FFFFFF" d="M54.462,388.75v7.075c0,0.208-0.176,0.384-0.384,0.384s-0.384-0.176-0.384-0.384v-1.169
		c-0.672,0.929-1.745,1.553-2.945,1.553c-2.064,0-3.713-1.776-3.713-3.922c0-2.145,1.649-3.921,3.713-3.921
		c1.201,0,2.273,0.607,2.945,1.536v-1.152c0-0.224,0.176-0.384,0.384-0.384S54.462,388.526,54.462,388.75z M53.693,392.287
		c0-1.761-1.329-3.169-2.945-3.169c-1.601,0-2.945,1.408-2.945,3.169s1.344,3.153,2.945,3.153
		C52.365,395.44,53.693,394.048,53.693,392.287z"/>
	<path fill="#FFFFFF" d="M57.627,388.734c0-0.225,0.176-0.385,0.384-0.385c0.208,0,0.384,0.16,0.384,0.385v4.273
		c0,1.345,1.073,2.417,2.401,2.433c1.344-0.016,2.433-1.088,2.433-2.433v-4.273c0-0.225,0.192-0.385,0.384-0.385
		c0.224,0,0.4,0.16,0.4,0.385v4.273c0,1.761-1.425,3.201-3.217,3.201c-1.761,0-3.169-1.44-3.169-3.201V388.734z"/>
	<path fill="#FFFFFF" d="M72.813,391.567c0-1.329-1.072-2.417-2.417-2.417c-1.329,0-2.401,1.088-2.433,2.417v4.258v0.063
		c-0.016,0.064-0.032,0.128-0.08,0.176c-0.064,0.097-0.176,0.145-0.288,0.145h-0.096c-0.112-0.032-0.208-0.112-0.256-0.208
		c-0.016-0.016-0.016-0.032-0.016-0.048c0-0.017-0.016-0.032-0.016-0.032v-0.096v-4.258v-0.128v-2.674
		c0-0.208,0.16-0.384,0.384-0.384c0.208,0,0.368,0.176,0.368,0.384v0.753c0.577-0.688,1.457-1.137,2.433-1.137
		c1.761,0,3.186,1.44,3.186,3.186v4.258c0,0.224-0.176,0.384-0.384,0.384s-0.384-0.16-0.384-0.384V391.567z"/>
	<path fill="#FFFFFF" d="M76.458,392.271c0-2.177,1.793-3.905,4.034-3.905c0.929,0,1.809,0.319,2.497,0.864
		c0.16,0.111,0.192,0.352,0.048,0.528c-0.128,0.144-0.352,0.191-0.528,0.063c-0.561-0.448-1.265-0.704-2.017-0.704
		c-1.825,0-3.265,1.425-3.265,3.153c0,1.761,1.44,3.169,3.265,3.169c0.752,0,1.457-0.256,2.017-0.688
		c0.176-0.128,0.4-0.079,0.528,0.064c0.144,0.176,0.112,0.416-0.08,0.561c-0.656,0.512-1.536,0.832-2.465,0.832
		C78.251,396.209,76.458,394.48,76.458,392.271z"/>
	<path fill="#FFFFFF" d="M91.917,391.455c0-1.377-1.121-2.305-2.497-2.305c-1.36,0-2.481,0.928-2.481,2.305v4.37v0.048
		c0,0.032-0.016,0.048-0.016,0.063c-0.016,0.032-0.016,0.049-0.032,0.064c-0.048,0.096-0.128,0.16-0.24,0.192
		c0,0-0.016,0.016-0.032,0.016h-0.032h-0.048c-0.112,0-0.224-0.048-0.304-0.128c-0.032-0.048-0.048-0.08-0.064-0.128
		c-0.016-0.048-0.016-0.08-0.016-0.128v-4.37v-0.128v-5.938c0-0.208,0.176-0.384,0.384-0.384c0.224,0,0.4,0.176,0.4,0.384v4.13
		c0.592-0.704,1.489-1.152,2.481-1.152c1.809,0,3.281,1.28,3.281,3.089v4.37c0,0.208-0.176,0.384-0.4,0.384
		c-0.208,0-0.384-0.176-0.384-0.384V391.455z"/>
	<path fill="#FFFFFF" d="M95.978,386.188c0-0.208,0.176-0.384,0.384-0.384c0.224,0,0.4,0.176,0.4,0.384v0.368
		c0,0.225-0.176,0.417-0.4,0.417c-0.208,0-0.384-0.192-0.384-0.417V386.188z M95.978,388.75c0-0.224,0.176-0.384,0.384-0.384
		c0.224,0,0.4,0.16,0.4,0.384v7.075c0,0.208-0.176,0.384-0.4,0.384c-0.208,0-0.384-0.176-0.384-0.384V388.75z"/>
	<path fill="#FFFFFF" d="M106.06,391.567c0-1.329-1.072-2.417-2.417-2.417c-1.329,0-2.401,1.088-2.433,2.417v4.258v0.063
		c-0.016,0.064-0.032,0.128-0.08,0.176c-0.064,0.097-0.176,0.145-0.288,0.145h-0.096c-0.112-0.032-0.208-0.112-0.256-0.208
		c-0.016-0.016-0.016-0.032-0.016-0.048c0-0.017-0.016-0.032-0.016-0.032v-0.096v-4.258v-0.128v-2.674
		c0-0.208,0.16-0.384,0.384-0.384c0.208,0,0.368,0.176,0.368,0.384v0.753c0.577-0.688,1.457-1.137,2.433-1.137
		c1.761,0,3.186,1.44,3.186,3.186v4.258c0,0.224-0.176,0.384-0.384,0.384s-0.384-0.16-0.384-0.384V391.567z"/>
	<path fill="#FFFFFF" d="M117.117,395.585c0,2.032-1.648,3.682-3.697,3.682c-0.577,0-1.121-0.145-1.633-0.368
		c-0.16-0.112-0.256-0.337-0.16-0.513c0.096-0.208,0.32-0.288,0.512-0.176c0.4,0.192,0.8,0.288,1.281,0.288
		c1.632,0,2.929-1.297,2.929-2.913v-0.961c-0.657,0.944-1.729,1.537-2.929,1.537c-2.049,0-3.682-1.745-3.682-3.905
		c0-2.113,1.633-3.89,3.682-3.89c1.2,0,2.272,0.607,2.929,1.536v-1.152c0-0.208,0.176-0.384,0.4-0.384
		c0.192,0,0.368,0.176,0.368,0.384V395.585z M116.349,392.256c0-1.745-1.313-3.122-2.929-3.122c-1.601,0-2.914,1.377-2.914,3.122
		c0,1.76,1.313,3.152,2.914,3.152C115.036,395.408,116.349,394.016,116.349,392.256z"/>
	<path fill="#FFFFFF" d="M132.205,388.75v7.075c0,0.208-0.176,0.384-0.384,0.384s-0.384-0.176-0.384-0.384v-1.169
		c-0.672,0.929-1.745,1.553-2.945,1.553c-2.064,0-3.713-1.776-3.713-3.922c0-2.145,1.649-3.921,3.713-3.921
		c1.201,0,2.273,0.607,2.945,1.536v-1.152c0-0.224,0.176-0.384,0.384-0.384S132.205,388.526,132.205,388.75z M131.436,392.287
		c0-1.761-1.329-3.169-2.945-3.169c-1.601,0-2.945,1.408-2.945,3.169s1.344,3.153,2.945,3.153
		C130.108,395.44,131.436,394.048,131.436,392.287z"/>
	<path fill="#FFFFFF" d="M142.954,396.145c-0.08-0.031-0.128-0.096-0.16-0.176l-2.945-7.011c-0.08-0.192,0.016-0.416,0.192-0.496
		c0.192-0.08,0.432,0.016,0.496,0.208l2.609,6.179l1.809-4.306c0.064-0.145,0.224-0.24,0.368-0.24c0.16,0,0.32,0.096,0.384,0.24
		l1.809,4.306l2.593-6.179c0.08-0.192,0.32-0.288,0.496-0.208c0.192,0.08,0.288,0.304,0.208,0.496l-2.929,6.979
		c-0.032,0.08-0.08,0.145-0.144,0.192c-0.064,0.048-0.128,0.08-0.192,0.08h-0.032h-0.048c-0.128-0.016-0.272-0.112-0.304-0.24
		l-0.016-0.016l-1.825-4.338l-1.809,4.321c0,0-0.016,0.017-0.016,0.032c-0.048,0.145-0.208,0.24-0.336,0.24
		c-0.048,0-0.096-0.016-0.144-0.032C142.986,396.177,142.97,396.161,142.954,396.145z"/>
	<path fill="#FFFFFF" d="M157.051,388.366c2.065,0,3.713,1.792,3.713,3.921s-1.648,3.922-3.713,3.922
		c-2.049,0-3.713-1.793-3.713-3.922S155.002,388.366,157.051,388.366z M157.051,395.44c1.601,0,2.945-1.408,2.945-3.153
		c0-1.744-1.345-3.169-2.945-3.169s-2.945,1.425-2.945,3.169C154.105,394.032,155.45,395.44,157.051,395.44z"/>
	<path fill="#FFFFFF" d="M163.386,388.766c0-0.224,0.176-0.384,0.4-0.384c0.192,0,0.368,0.16,0.368,0.384v1.729
		c0.032-0.064,0.064-0.129,0.112-0.192c0.592-0.929,1.632-1.921,3.137-1.921c0.208,0,0.384,0.16,0.384,0.384
		c0,0.208-0.176,0.385-0.384,0.385c-1.024,0-1.729,0.576-2.273,1.28c-0.528,0.704-0.833,1.505-0.944,1.825
		c-0.032,0.063-0.032,0.096-0.032,0.128v3.441c0,0.224-0.176,0.384-0.368,0.384c-0.224,0-0.4-0.16-0.4-0.384V388.766z"/>
	<path fill="#FFFFFF" d="M170.521,385.389c0-0.208,0.176-0.384,0.384-0.384c0.224,0,0.4,0.176,0.4,0.384v10.437
		c0,0.208-0.176,0.384-0.4,0.384c-0.208,0-0.384-0.176-0.384-0.384V385.389z"/>
	<path fill="#FFFFFF" d="M180.668,394.688c-0.688,0.929-1.776,1.521-3.009,1.521c-2.113,0-3.794-1.761-3.794-3.905
		c0-2.177,1.681-3.938,3.794-3.938c1.232,0,2.32,0.607,3.009,1.536v-4.514c0-0.208,0.177-0.384,0.399-0.384
		c0.209,0,0.385,0.176,0.385,0.384v6.755v0.16v3.521c0,0.208-0.176,0.384-0.385,0.384c-0.223,0-0.399-0.176-0.399-0.384V394.688z
		 M180.668,392.432v-0.256c-0.063-1.681-1.393-3.025-3.009-3.025c-1.648,0-3.01,1.408-3.01,3.153c0,1.729,1.361,3.121,3.01,3.121
		C179.276,395.425,180.605,394.096,180.668,392.432z"/>
	<path fill="#FFFFFF" d="M187.578,396.145c-0.08-0.031-0.128-0.096-0.16-0.176l-2.945-7.011c-0.08-0.192,0.017-0.416,0.192-0.496
		c0.191-0.08,0.432,0.016,0.496,0.208l2.609,6.179l1.809-4.306c0.064-0.145,0.224-0.24,0.367-0.24c0.16,0,0.32,0.096,0.385,0.24
		l1.809,4.306l2.594-6.179c0.08-0.192,0.32-0.288,0.496-0.208c0.191,0.08,0.287,0.304,0.207,0.496l-2.929,6.979
		c-0.032,0.08-0.079,0.145-0.144,0.192s-0.129,0.08-0.192,0.08h-0.032h-0.048c-0.128-0.016-0.272-0.112-0.304-0.24l-0.017-0.016
		l-1.825-4.338l-1.809,4.321c0,0-0.016,0.017-0.016,0.032c-0.048,0.145-0.208,0.24-0.336,0.24c-0.048,0-0.096-0.016-0.145-0.032
		C187.611,396.177,187.595,396.161,187.578,396.145z"/>
	<path fill="#FFFFFF" d="M197.753,386.188c0-0.208,0.176-0.384,0.385-0.384c0.224,0,0.4,0.176,0.4,0.384v0.368
		c0,0.225-0.177,0.417-0.4,0.417c-0.209,0-0.385-0.192-0.385-0.417V386.188z M197.753,388.75c0-0.224,0.176-0.384,0.385-0.384
		c0.224,0,0.4,0.16,0.4,0.384v7.075c0,0.208-0.177,0.384-0.4,0.384c-0.209,0-0.385-0.176-0.385-0.384V388.75z"/>
	<path fill="#FFFFFF" d="M208.507,394.688c-0.688,0.929-1.776,1.521-3.009,1.521c-2.112,0-3.794-1.761-3.794-3.905
		c0-2.177,1.682-3.938,3.794-3.938c1.232,0,2.321,0.607,3.009,1.536v-4.514c0-0.208,0.176-0.384,0.4-0.384
		c0.209,0,0.385,0.176,0.385,0.384v6.755v0.16v3.521c0,0.208-0.176,0.384-0.385,0.384c-0.225,0-0.4-0.176-0.4-0.384V394.688z
		 M208.507,392.432v-0.256c-0.063-1.681-1.393-3.025-3.009-3.025c-1.648,0-3.009,1.408-3.009,3.153c0,1.729,1.36,3.121,3.009,3.121
		C207.115,395.425,208.444,394.096,208.507,392.432z"/>
	<path fill="#FFFFFF" d="M211.992,392.304c0-2.177,1.696-3.938,3.81-3.938c2.018,0,3.617,1.601,3.777,3.649v0.016v0.048
		c0,0.208-0.176,0.353-0.384,0.353h-6.435c0.08,1.713,1.424,3.009,3.041,3.009c1.041,0,2.001-0.544,2.529-1.425
		c0.111-0.191,0.352-0.224,0.512-0.128c0.176,0.128,0.24,0.353,0.129,0.545c-0.673,1.072-1.842,1.776-3.17,1.776
		C213.689,396.209,211.992,394.448,211.992,392.304z M212.809,391.679h5.938c-0.256-1.472-1.504-2.545-2.945-2.545
		C214.329,389.134,213.097,390.19,212.809,391.679z"/>
	<path fill="#FFFFFF" d="M68.194,413.776c0.128-0.16,0.368-0.192,0.544-0.048c0.544,0.4,1.408,0.912,2.401,0.912
		c0.608,0,1.136-0.191,1.488-0.479c0.384-0.257,0.592-0.608,0.592-0.961c-0.016-0.368-0.16-0.624-0.56-0.96
		c-0.336-0.257-0.896-0.448-1.665-0.576l-0.032-0.017c-0.704-0.128-1.329-0.288-1.776-0.608c-0.497-0.288-0.849-0.8-0.849-1.408
		c0-0.624,0.352-1.169,0.849-1.537c0.464-0.319,1.12-0.527,1.92-0.527c1.009,0,1.729,0.464,2.337,0.848
		c0.176,0.128,0.224,0.368,0.112,0.545c-0.112,0.176-0.352,0.224-0.528,0.111c-0.576-0.384-1.152-0.784-1.921-0.784
		c-0.64,0-1.152,0.176-1.488,0.448c-0.32,0.256-0.497,0.576-0.497,0.896s0.144,0.544,0.448,0.784c0.352,0.24,0.88,0.433,1.601,0.544
		h0.032c0.752,0.112,1.36,0.337,1.905,0.641c0.512,0.336,0.88,0.944,0.88,1.601s-0.368,1.185-0.896,1.585
		c-0.544,0.4-1.185,0.624-1.953,0.624c-1.265-0.016-2.257-0.608-2.897-1.12C68.082,414.145,68.066,413.937,68.194,413.776z"/>
	<path fill="#FFFFFF" d="M76.05,411.504c0-2.177,1.697-3.938,3.81-3.938c2.017,0,3.618,1.601,3.778,3.649v0.016v0.048
		c0,0.208-0.176,0.353-0.384,0.353h-6.435c0.08,1.713,1.424,3.009,3.041,3.009c1.041,0,2.001-0.544,2.529-1.425
		c0.112-0.191,0.352-0.224,0.512-0.128c0.176,0.128,0.24,0.353,0.128,0.545c-0.672,1.072-1.841,1.776-3.169,1.776
		C77.747,415.409,76.05,413.648,76.05,411.504z M76.866,410.879h5.938c-0.256-1.472-1.504-2.545-2.945-2.545
		C78.387,408.334,77.155,409.391,76.866,410.879z"/>
	<path fill="#FFFFFF" d="M85.794,411.472c0-2.177,1.793-3.905,4.034-3.905c0.928,0,1.809,0.319,2.497,0.864
		c0.16,0.111,0.192,0.352,0.048,0.528c-0.128,0.144-0.352,0.191-0.528,0.063c-0.561-0.448-1.265-0.704-2.017-0.704
		c-1.825,0-3.265,1.425-3.265,3.153c0,1.761,1.44,3.169,3.265,3.169c0.752,0,1.457-0.256,2.017-0.688
		c0.176-0.128,0.4-0.08,0.528,0.064c0.144,0.176,0.112,0.416-0.08,0.561c-0.657,0.512-1.537,0.832-2.465,0.832
		C87.587,415.409,85.794,413.681,85.794,411.472z"/>
	<path fill="#FFFFFF" d="M95.33,407.935c0-0.225,0.176-0.385,0.384-0.385c0.208,0,0.384,0.16,0.384,0.385v4.273
		c0,1.345,1.073,2.417,2.401,2.433c1.344-0.016,2.433-1.088,2.433-2.433v-4.273c0-0.225,0.192-0.385,0.384-0.385
		c0.224,0,0.4,0.16,0.4,0.385v4.273c0,1.761-1.425,3.201-3.217,3.201c-1.761,0-3.169-1.44-3.169-3.201V407.935z"/>
	<path fill="#FFFFFF" d="M105.298,407.966c0-0.224,0.176-0.384,0.4-0.384c0.192,0,0.368,0.16,0.368,0.384v1.729
		c0.032-0.064,0.064-0.129,0.112-0.192c0.592-0.929,1.632-1.921,3.137-1.921c0.208,0,0.384,0.16,0.384,0.384
		c0,0.208-0.176,0.385-0.384,0.385c-1.024,0-1.729,0.576-2.273,1.28c-0.528,0.704-0.833,1.505-0.944,1.825
		c-0.032,0.063-0.032,0.096-0.032,0.128v3.441c0,0.224-0.176,0.384-0.368,0.384c-0.224,0-0.4-0.16-0.4-0.384V407.966z"/>
	<path fill="#FFFFFF" d="M112.338,405.389c0-0.208,0.176-0.384,0.384-0.384c0.224,0,0.4,0.176,0.4,0.384v0.368
		c0,0.225-0.176,0.417-0.4,0.417c-0.208,0-0.384-0.192-0.384-0.417V405.389z M112.338,407.95c0-0.225,0.176-0.384,0.384-0.384
		c0.224,0,0.4,0.159,0.4,0.384v7.075c0,0.208-0.176,0.384-0.4,0.384c-0.208,0-0.384-0.176-0.384-0.384V407.95z"/>
	<path fill="#FFFFFF" d="M119.554,407.95c0,0.192-0.192,0.384-0.384,0.384h-1.009v5.715c0,0.384,0.384,0.576,0.576,0.576
		c0.192,0,0.4,0.208,0.4,0.4c0,0.191-0.208,0.384-0.4,0.384c-0.784,0-1.376-0.576-1.376-1.36v-5.715h-0.976
		c-0.384,0-0.384-0.191-0.384-0.384s0-0.384,0.384-0.384h0.976v-2.913c0-0.192,0.192-0.385,0.384-0.385
		c0.208,0,0.416,0.192,0.416,0.385v2.913h1.009C119.363,407.566,119.554,407.758,119.554,407.95z"/>
	<path fill="#FFFFFF" d="M122.562,407.935c0-0.209,0.176-0.368,0.368-0.368c0.224,0,0.4,0.159,0.4,0.368v4.257
		c0,1.345,1.072,2.417,2.401,2.417c1.345,0,2.417-1.072,2.433-2.417v-4.257c0-0.064,0.016-0.145,0.064-0.192
		c0-0.017,0.016-0.032,0.016-0.048c0.016,0,0.016-0.017,0.032-0.017c0.032-0.048,0.096-0.08,0.144-0.096h0.032
		c0.016,0,0.032-0.016,0.048-0.016h0.048h0.048c0.064,0.016,0.128,0.048,0.192,0.08c0.032,0.031,0.08,0.079,0.096,0.128
		c0.032,0.048,0.048,0.111,0.048,0.16v4.257v0.145v2.449c0,2.049-1.665,3.682-3.729,3.682c-0.577,0-1.121-0.145-1.617-0.368
		c-0.176-0.112-0.256-0.337-0.16-0.513c0.096-0.192,0.304-0.24,0.496-0.192c0.384,0.192,0.833,0.305,1.281,0.305
		c1.632,0,2.945-1.297,2.961-2.913v-0.513c-0.592,0.673-1.457,1.121-2.433,1.121c-1.745-0.017-3.169-1.441-3.169-3.202V407.935z"/>
	<path fill="#FFFFFF" d="M136.881,413.776c0.128-0.16,0.368-0.192,0.544-0.048c0.544,0.4,1.408,0.912,2.401,0.912
		c0.608,0,1.136-0.191,1.489-0.479c0.384-0.257,0.592-0.608,0.592-0.961c-0.016-0.368-0.16-0.624-0.56-0.96
		c-0.336-0.257-0.896-0.448-1.665-0.576l-0.032-0.017c-0.704-0.128-1.329-0.288-1.776-0.608c-0.497-0.288-0.849-0.8-0.849-1.408
		c0-0.624,0.352-1.169,0.849-1.537c0.464-0.319,1.12-0.527,1.92-0.527c1.008,0,1.729,0.464,2.337,0.848
		c0.176,0.128,0.224,0.368,0.112,0.545c-0.112,0.176-0.352,0.224-0.528,0.111c-0.576-0.384-1.152-0.784-1.921-0.784
		c-0.64,0-1.152,0.176-1.488,0.448c-0.32,0.256-0.497,0.576-0.497,0.896s0.144,0.544,0.448,0.784c0.352,0.24,0.88,0.433,1.601,0.544
		h0.032c0.752,0.112,1.36,0.337,1.905,0.641c0.512,0.336,0.88,0.944,0.88,1.601s-0.368,1.185-0.896,1.585
		c-0.544,0.4-1.185,0.624-1.953,0.624c-1.265-0.016-2.257-0.608-2.897-1.12C136.769,414.145,136.753,413.937,136.881,413.776z"/>
	<path fill="#FFFFFF" d="M145.201,407.935c0-0.209,0.176-0.368,0.368-0.368c0.224,0,0.4,0.159,0.4,0.368v4.257
		c0,1.345,1.072,2.417,2.401,2.417c1.345,0,2.417-1.072,2.433-2.417v-4.257c0-0.064,0.016-0.145,0.064-0.192
		c0-0.017,0.016-0.032,0.016-0.048c0.016,0,0.016-0.017,0.032-0.017c0.032-0.048,0.096-0.08,0.144-0.096h0.032
		c0.016,0,0.032-0.016,0.048-0.016h0.048h0.048c0.064,0.016,0.128,0.048,0.192,0.08c0.032,0.031,0.08,0.079,0.096,0.128
		c0.032,0.048,0.048,0.111,0.048,0.16v4.257v0.145v2.449c0,2.049-1.665,3.682-3.729,3.682c-0.577,0-1.121-0.145-1.617-0.368
		c-0.176-0.112-0.256-0.337-0.16-0.513c0.096-0.192,0.304-0.24,0.496-0.192c0.384,0.192,0.833,0.305,1.281,0.305
		c1.632,0,2.945-1.297,2.961-2.913v-0.513c-0.592,0.673-1.457,1.121-2.433,1.121c-1.745-0.017-3.169-1.441-3.169-3.202V407.935z"/>
	<path fill="#FFFFFF" d="M154.401,413.776c0.128-0.16,0.368-0.192,0.544-0.048c0.544,0.4,1.408,0.912,2.401,0.912
		c0.608,0,1.136-0.191,1.488-0.479c0.384-0.257,0.592-0.608,0.592-0.961c-0.016-0.368-0.16-0.624-0.56-0.96
		c-0.336-0.257-0.896-0.448-1.665-0.576l-0.032-0.017c-0.704-0.128-1.329-0.288-1.776-0.608c-0.497-0.288-0.849-0.8-0.849-1.408
		c0-0.624,0.352-1.169,0.849-1.537c0.464-0.319,1.12-0.527,1.92-0.527c1.009,0,1.729,0.464,2.337,0.848
		c0.176,0.128,0.224,0.368,0.112,0.545c-0.112,0.176-0.352,0.224-0.528,0.111c-0.576-0.384-1.152-0.784-1.921-0.784
		c-0.64,0-1.152,0.176-1.488,0.448c-0.32,0.256-0.497,0.576-0.497,0.896s0.144,0.544,0.448,0.784c0.352,0.24,0.88,0.433,1.601,0.544
		h0.032c0.752,0.112,1.36,0.337,1.905,0.641c0.512,0.336,0.88,0.944,0.88,1.601s-0.368,1.185-0.896,1.585
		c-0.544,0.4-1.185,0.624-1.953,0.624c-1.265-0.016-2.257-0.608-2.897-1.12C154.289,414.145,154.273,413.937,154.401,413.776z"/>
	<path fill="#FFFFFF" d="M165.794,407.95c0,0.192-0.192,0.384-0.384,0.384h-1.009v5.715c0,0.384,0.384,0.576,0.576,0.576
		c0.192,0,0.4,0.208,0.4,0.4c0,0.191-0.208,0.384-0.4,0.384c-0.784,0-1.376-0.576-1.376-1.36v-5.715h-0.976
		c-0.384,0-0.384-0.191-0.384-0.384s0-0.384,0.384-0.384h0.976v-2.913c0-0.192,0.192-0.385,0.384-0.385
		c0.208,0,0.416,0.192,0.416,0.385v2.913h1.009C165.602,407.566,165.794,407.758,165.794,407.95z"/>
	<path fill="#FFFFFF" d="M168.257,411.504c0-2.177,1.697-3.938,3.81-3.938c2.017,0,3.618,1.601,3.778,3.649v0.016v0.048
		c0,0.208-0.177,0.353-0.384,0.353h-6.435c0.08,1.713,1.424,3.009,3.041,3.009c1.041,0,2.001-0.544,2.529-1.425
		c0.112-0.191,0.352-0.224,0.512-0.128c0.176,0.128,0.239,0.353,0.128,0.545c-0.672,1.072-1.841,1.776-3.169,1.776
		C169.953,415.409,168.257,413.648,168.257,411.504z M169.073,410.879h5.938c-0.256-1.472-1.504-2.545-2.945-2.545
		C170.594,408.334,169.361,409.391,169.073,410.879z"/>
	<path fill="#FFFFFF" d="M189.781,410.768c-0.031-1.329-1.088-2.434-2.432-2.434c-1.329,0-2.418,1.104-2.418,2.434v4.273v0.048
		c0,0.017-0.016,0.032-0.016,0.032v0.032c-0.032,0.096-0.112,0.16-0.192,0.208c-0.063,0.032-0.128,0.048-0.192,0.048h-0.047h-0.033
		c-0.016,0-0.031-0.016-0.031-0.016c-0.032,0-0.064-0.032-0.096-0.049c-0.017,0-0.033-0.016-0.049-0.031l-0.048-0.049
		c-0.017-0.016-0.017-0.031-0.032-0.031c0-0.017,0-0.017-0.016-0.032c0,0,0-0.016-0.016-0.032c0-0.016,0-0.032-0.017-0.048v-0.048
		v-0.032v-4.273c0-1.329-1.072-2.434-2.417-2.434c-1.344,0-2.417,1.104-2.417,2.434v4.273c0,0.128-0.063,0.24-0.176,0.304
		c-0.017,0.017-0.063,0.049-0.097,0.049c-0.016,0.016-0.031,0.016-0.063,0.016h-0.048h-0.049c-0.144-0.016-0.271-0.145-0.319-0.288
		v-0.08v-4.273v-0.128v-2.689c0-0.208,0.176-0.368,0.368-0.368c0.225,0,0.384,0.16,0.384,0.368v0.752
		c0.577-0.688,1.44-1.12,2.417-1.12c1.217,0,2.258,0.672,2.801,1.665c0.561-0.993,1.617-1.665,2.818-1.665
		c1.76,0,3.185,1.425,3.185,3.186v4.273c0,0.192-0.16,0.368-0.384,0.368c-0.209,0-0.369-0.176-0.369-0.368V410.768z"/>
	<path fill="#FFFFFF" d="M194.401,413.809c0.448,0,0.8,0.353,0.8,0.8c0,0.448-0.352,0.801-0.8,0.801s-0.8-0.353-0.8-0.801
		C193.601,414.161,193.952,413.809,194.401,413.809z"/>
</g>
<g>
	<path fill="#FFFFFF" d="M252.777,319.539H9.823c-0.276,0-0.5-0.224-0.5-0.5s0.224-0.5,0.5-0.5h242.954c0.276,0,0.5,0.224,0.5,0.5
		S253.053,319.539,252.777,319.539z"/>
</g>
</svg>
