<?xml version="1.0" encoding="utf-8"?>
<!-- Generator: Adobe Illustrator 16.0.0, SVG Export Plug-In . SVG Version: 6.00 Build 0)  -->
<!DOCTYPE svg PUBLIC "-//W3C//DTD SVG 1.1//EN" "http://www.w3.org/Graphics/SVG/1.1/DTD/svg11.dtd">
<svg version="1.1" xmlns="http://www.w3.org/2000/svg" xmlns:xlink="http://www.w3.org/1999/xlink" x="0px" y="0px" viewBox="0 0 1181.135 100" enable-background="new 0 0 1181.135 100" xml:space="preserve">
<g id="Layer_4">
</g>
<g id="Layer_3">
</g>
<g id="Layer_2">
	<g>
		<polygon fill="#FFFFFF" points="94.917,47.855 94.917,1.861 42.086,9.568 42.086,47.855 		"/>
		<polygon fill="#FFFFFF" points="38.365,10.111 0,15.707 0,47.855 38.365,47.855 		"/>
		<polygon fill="#FFFFFF" points="0,51.577 0,84.134 38.365,89.794 38.365,51.577 		"/>
		<polygon fill="#FFFFFF" points="42.086,90.345 94.917,98.139 94.917,51.577 42.086,51.577 		"/>
	</g>
	<g>
		<path fill-rule="evenodd" clip-rule="evenodd" fill="#FFFFFF" d="M256.236,83.833c3.445-0.354,3.9-4,2.277-5.591
			c-1.335-1.311-8.71-6.786-10.634-8.938c-0.894-0.998-2.104-1.489-2.618-2.611c-1.179-2.582-2.004-6.27-0.51-8.916
			c0.271-0.478,0.446-0.263,0.237,0.733c-1.173,5.647,2.502,10.26,3.313,7.895c0.559-1.634,0.042-4.559,0.339-6.881
			c0.53-4.108,4.271-12,5.914-12.449c-2.535-4.693,2.971-8.368,2.903-12.487c-0.044-2.679,2.354,3.294,4.761,4.56
			c2.691,1.414,5.649-2.665,9.846-4.734c1.188-0.586,2.712-1.259,2.608-1.758c-0.492-2.408-5.514,2.971-9.996,3.152
			c-2.046,0.083-2.806-0.402-3.598-1.165c-2.388-2.31,0.245-0.382,3.797-1.025c1.58-0.286,2.109-0.548,3.785-1.226
			s3.592-1.679,5.487-2.194c1.32-0.359,1.209-1.351,0.695-1.648c-0.295-0.171-0.733-0.156-1.079,0.444
			c-0.814,1.407-4.641,2.22-5.833,2.585c-1.534,0.47-3.229,0.907-5.481,0.816c-3.422-0.14-2.625-1.708-5.073-3.112
			c-0.719-0.411-0.524-1.492,0.429-2.445c0.5-0.501,1.871-0.783,2.55-1.921c0.094-0.159,0.971-1.075,1.656-1.549
			c0.237-0.164,0.258-4.343-1.888-4.43c-1.82-0.073-2.339,1.34-2.262,2.746c0.075,1.406,0.821,2.565,1.318,2.562
			c0.957-0.01,0.06,1.046-0.463,1.216c-0.796,0.259-1.887-3.132-1.76-4.76c0.129-1.695,1.013-4.698,3.158-4.64
			c1.934,0.053,3.334,2.475,3.263,6.654c-0.011,0.709,3.135-0.338,4.185,0.771c0.75,0.793-2.573-7.405,4.827-7.969
			c1.949,0.372,3.82,1.021,4.599,5.503c-0.287,0.466,0.485,3.593-0.718,3.963c-1.469,0.453-2.375-0.065-1.527-1.464
			c0.583-1.404,0.016-4.977-2.958-4.763c-2.971,0.215-2.576,5.489-1.762,5.593c0.814,0.104,2.866,1.561,4.299,1.84
			c4.703,0.915,1.249,3.61,1.857,6.872c0.69,3.685,3.116,2.712,5.298,12.469c0.457,0.595,2.264,1.156,4.022,8.651
			c1.585,6.745-0.656,11.649,3.149,11.247c0.857-0.091,2.111-0.331,2.657-2.242c1.425-4.994-0.715-10.945-2.874-14.961
			c-1.258-2.344-2.442-3.938-3.066-4.485c2.475,1.463,5.638,6.135,6.367,9.604c0.959,4.555,1.644,6.483,0.191,11.303
			c0.839,0.418,2.923,1.304,2.923,2.298c-2.171-1.784-8.814-2.1-8.987,2.165c-1.132,0.022-1.989,0.114-2.719,0.981
			c-2.67,3.168-0.19,9.534-0.461,12.948c-0.238,3.003-1.071,5.98-1.542,8.998c-1.591-0.06-1.435-1.224-0.925-2.858
			c0.451-1.438,1.177-3.245,1.224-4.976c0.044-1.566-0.128-2.546-0.522-2.79c-0.395-0.243-1.014,0.25-1.869,1.628
			c-1.824,2.938-5.776,4.229-9.466,4.692c-3.691,0.462-7.121,0.096-8.938-1.939c-0.621-0.695-1.651,0.19-1.773,0.374
			c-0.164,0.249,0.6,0.729,1.177,1.787c0.843,1.546,1.644,3.891-0.352,4.96C259.721,87.478,257.998,87.159,256.236,83.833
			L256.236,83.833z M254.918,83.69c1.324,2.081,5.983,10.846-2.185,11.983c-2.732,0.38-7.131-1.589-11.394-2.633
			c-3.829-0.936-7.717-1.491-9.893-2.102c-1.311-0.367-1.86-0.839-1.973-1.388c-0.303-1.454,1.591-3.494,1.687-5.217
			c0.096-1.725-0.628-2.619-1.221-4.024c-0.596-1.408-0.75-2.463-0.274-3.066c0.37-0.471,1.121-0.668,2.343-0.548
			c1.55,0.152,3.421-0.163,4.427-0.778c1.694-1.032,2.492-3.149,1.728-5.699c0,2.495-0.818,3.441-2.87,4.581
			c-1.935,1.077-4.919,0.206-6.29,1.396c-1.651,1.434,0.589,5.13,0.404,7.846c-0.139,2.085-2.316,4.436-1.346,6.526
			c0.976,2.104,5.53,2.334,10.278,3.327c6.749,1.412,10.683,3.868,13.802,3.984c4.549,0.169,5.244-4.5,12.387-4.563
			c2.083-0.109,4.122-0.174,6.156-0.2c2.308-0.027,4.611-0.009,6.977,0.048c4.754,0.114,3.117,2.595,6.201,4.18
			c2.603,1.337,7.279,0.809,8.4-0.26c1.514-1.443,5.581-4.919,8.695-6.487c3.885-1.959,13.001-5.327,6.382-9.434
			c-1.542-0.957-5.19-1.969-5.496-8.972c-1.383,1.228-1.223,7.753,2.632,9.047c4.307,1.445,6.995,3.868-1.01,6.604
			c-5.299,1.813-6.197,2.371-10.395,5.863c-4.244,3.533-10.544,2.131-9.443-5.309c0.573-3.877,0.902-7.079-0.063-10.449
			c-0.47-1.646-0.705-3.755-0.384-5.237c0.627-2.879,2.186-3.745,3.712-0.979c0.959,1.733,1.296,3.761,4.728,3.927
			c5.394,0.257,6.461-5.211,8.184-5.459c1.149-0.168,2.3-3.421,1.426-8.684c-0.938-5.636-4.256-14.531-8.507-19.044
			c-3.533-3.749-5.76-7.037-7.161-11.729c-1.177-3.941-1.833-7.779-1.593-11.448c0.316-4.753-2.322-11.368-6.518-14.481
			c-2.627-1.947-6.747-2.992-10.474-2.95c-2.093,0.022-4.06,0.328-5.574,1.148c-6.222,3.379-7.093,8.205-6.999,13.714
			c0.087,5.176,0.264,11.08,0.853,16.697c-0.696,2.58-4.321,7.468-6.64,10.443c-3.12,3.082-4.695,9.037-6.715,14.241
			c-1.076,2.774-2.89,4.026-3.042,7.594c-0.042,0.996-0.008,3.578,0.946,2.839C243.455,65.717,248.022,72.832,254.918,83.69
			L254.918,83.69z M273.856,9.105c-0.196,0.587-1.007,1.078-0.493,1.489c0.516,0.411,0.809-0.576,1.843-0.946
			c0.269-0.095,1.512,0.04,1.739-0.551c0.102-0.258-0.639-0.552-1.081-0.974c-0.441-0.421-0.872-0.796-1.29-0.77
			C273.503,7.423,274.029,8.583,273.856,9.105L273.856,9.105z M280.197,30.562c0.387-0.404,0.582,0.697,1.618,1.351
			c0.822,0.52,1.621,0.136,1.83,1.185c0.148,0.753-0.323,1.569-0.953,1.463C281.594,34.375,279.06,31.757,280.197,30.562
			L280.197,30.562z M263.085,23.94c-1.707-0.128-1.824,1.105-1.26,1.085C262.402,25.005,262.049,24.05,263.085,23.94L263.085,23.94z
			 M260.157,20.788c0.201-0.043,0.489,0.3,0.398,0.781c-0.124,0.669-0.069,1.089,0.394,1.09c0.076,0,0.159-0.014,0.188-0.188
			c0.224-1.332-0.468-2.311-0.752-2.384C259.732,19.922,259.813,20.862,260.157,20.788L260.157,20.788z M272.577,20.225
			c0.435,0.129,0.852,0.879,0.942,1.688c0.008,0.075,0.566-0.116,0.571-0.293c0.034-1.304-1.077-1.917-1.37-1.89
			C272.051,19.791,272.24,20.123,272.577,20.225L272.577,20.225z M266.21,24.099c1.554-0.72,2.097,0.396,1.56,0.574
			C267.224,24.855,267.218,23.837,266.21,24.099L266.21,24.099z M247.47,50.538c-0.733-0.089,0.212-0.641,0.613-1.334
			c0.442-0.762,0.357-1.715,0.822-1.574c0.462,0.14,0.205,0.674-0.113,1.548C248.521,49.922,247.741,50.571,247.47,50.538
			L247.47,50.538z"/>
	</g>
	<g>
		<polygon fill-rule="evenodd" clip-rule="evenodd" fill="#FFFFFF" points="494.428,97.985 566.416,97.985 584.348,66.929 
			512.359,66.929 		"/>
		<polygon fill-rule="evenodd" clip-rule="evenodd" fill="#FFFFFF" points="510.009,3.32 474.145,65.621 492.077,96.679 
			528.071,34.393 		"/>
		<polygon fill-rule="evenodd" clip-rule="evenodd" fill="#FFFFFF" points="584.352,64.314 548.487,2.015 512.363,2.015 
			548.357,64.314 		"/>
	</g>
	<g>
		<path fill="#FFFFFF" d="M939.63,64.032c0-4.519-0.889-8.909-2.64-13.05c-1.689-3.992-4.104-7.921-7.177-10.994
			c-3.074-3.073-6.656-5.488-10.648-7.177c-4.141-1.751-8.531-2.64-13.05-2.64s-8.908,0.889-13.049,2.64
			c-3.992,1.688-7.576,4.104-10.648,7.177c-2.339,2.339-4.295,5.172-5.841,8.152c-1.546-2.98-3.502-5.813-5.841-8.152
			c-3.073-3.073-6.656-5.488-10.647-7.177c-4.142-1.751-8.531-2.64-13.05-2.64s-8.909,0.889-13.05,2.64
			c-2.5,1.058-4.839,2.399-6.994,4.011V8.751c0-3.721-3.017-6.736-6.737-6.736s-6.737,3.016-6.737,6.736V63.58
			c0,0.052,0.006,0.097,0.009,0.146c-0.001,0.102-0.004,0.203-0.004,0.306c0,4.518,0.888,8.908,2.639,13.049
			c1.689,3.992,4.104,7.92,7.177,10.994c3.073,3.073,6.656,5.488,10.648,7.177c4.141,1.751,8.531,2.639,13.05,2.639
			s8.908-0.888,13.05-2.639c3.991-1.688,7.574-4.104,10.647-7.177c2.339-2.339,4.295-5.172,5.841-8.152
			c1.546,2.98,3.502,5.813,5.841,8.152c3.072,3.073,6.656,5.488,10.648,7.177c4.141,1.751,8.53,2.639,13.049,2.639
			s8.909-0.888,13.05-2.639c3.992-1.688,7.574-4.104,10.648-7.177c3.073-3.074,5.487-7.002,7.177-10.994
			C938.741,72.94,939.63,68.55,939.63,64.032z M847.039,84.243c-10.972,0-19.866-9.239-19.866-20.211
			c0-10.973,8.895-20.213,19.866-20.213s19.866,9.24,19.866,20.213C866.905,75.004,858.011,84.243,847.039,84.243z M906.115,84.243
			c-10.972,0-19.866-9.239-19.866-20.211c0-10.973,8.895-20.213,19.866-20.213s19.866,9.24,19.866,20.213
			C925.981,75.004,917.087,84.243,906.115,84.243z"/>
		<path fill="#FFFFFF" d="M964.821,64.028l18.723-24.837c1.923-2.552,1.414-6.181-1.138-8.104c-2.553-1.924-6.181-1.415-8.104,1.138
			l-16.728,22.19l-16.729-22.19c-1.924-2.553-5.552-3.062-8.104-1.138c-2.552,1.924-3.062,5.553-1.138,8.104l18.723,24.838
			l-18.607,24.685c-1.924,2.553-1.416,6.182,1.138,8.105c1.043,0.786,2.266,1.166,3.479,1.166c1.755,0,3.487-0.795,4.626-2.304
			l16.612-22.039l16.613,22.039c1.138,1.509,2.871,2.304,4.626,2.304c1.213,0,2.436-0.38,3.479-1.166
			c2.552-1.924,3.062-5.553,1.138-8.105L964.821,64.028z"/>
	</g>
	<g>
		<path fill="#FFFFFF" d="M1169.087,63.854l-3.023-1.082l-0.337-4.137c-1.234-15.121-16.545-24.169-31.902-18.854l-3.175,1.099
			l-3.542-3.722c-6.438-6.763-11.045-8.766-20.275-8.814c-6.498-0.034-9.21,0.571-14.583,3.265c-5.134,2.57-9.938,8.857-12.534,16.4
			c-0.569,1.659-1.037,3.531-1.037,4.162c0,2.003-1.209,2.867-5.137,3.676c-7.89,1.619-13.887,6.023-16.15,11.858
			c-0.925,2.381-1.193,4.155-1.187,7.856c0.015,11.579,5.486,19.382,15.301,21.835c2.043,0.51,13.85,0.641,50.998,0.57l48.343-0.094
			l2.174-1.164c4.628-2.476,7.549-7.463,8.03-13.71C1181.785,73.448,1177.727,66.949,1169.087,63.854z"/>
		<path fill="#FFFFFF" d="M1049.474,76.094c-0.004-11.682,7.032-20.812,19.087-24.766c3.893-1.276,4.806-1.839,4.806-2.966
			c0-1.588,2.874-7.979,5.13-11.404c3.165-4.809,7.354-8.495,12.564-11.065c13.046-6.43,28.394-4.398,37.796,5.007l3.336,3.335
			l3.655-0.952c2.012-0.525,4.313-0.968,5.115-0.983c1.842-0.039,1.921-1.349,0.359-6.024c-4.886-14.634-18.097-24.223-33.429-24.26
			c-5.484-0.014-10.07,1.007-14.48,3.223c-4.085,2.051-9.076,6.081-11.548,9.319c-4.178,5.478-3.954,5.31-5.932,4.519
			c-6.229-2.491-13.424-2.927-19.151-1.158c-10.601,3.273-18.193,13.469-18.646,25.042c-0.072,1.863-0.3,3.656-0.504,3.984
			c-0.206,0.331-1.497,0.882-2.872,1.229c-6.27,1.579-11.309,5.513-14.096,10.957c-1.677,2.882-2.642,6.229-2.642,9.803
			c0,3.928,1.164,7.582,3.16,10.645c3.034,5.334,8.71,9.865,14.085,11.143c2.073,0.492,17.068,0.649,17.534,0.184
			c0.182-0.182-0.138-1.25-0.709-2.374C1050.57,85.548,1049.477,80.347,1049.474,76.094z"/>
	</g>
	<g>
		<path fill="#FFFFFF" d="M751.144,100H641.805v-0.108c-6.747-0.564-13.012-3.489-17.813-8.355
			c-5.275-5.346-8.18-12.427-8.18-19.938c0-6.268,2.002-12.21,5.789-17.185c3.348-4.396,7.979-7.764,13.162-9.6
			c0.359-12.646,10.759-22.822,23.49-22.822c4.939,0,9.696,1.55,13.672,4.411c2.676-7.124,7.382-13.477,13.468-18.113
			C692.511,2.866,701.016,0,709.986,0c22.407,0,40.636,18.23,40.636,40.639c0,1.019-0.042,2.061-0.126,3.118
			c6.627,0.573,12.777,3.446,17.51,8.22c5.259,5.303,8.154,12.338,8.154,19.808c0,7.31-2.789,14.233-7.854,19.499
			C763.708,96.063,757.673,99.28,751.144,100L751.144,100z M644.5,95.971h102.615v-0.023l1.931-0.081
			c12.945-0.538,23.086-11.117,23.086-24.082c0-13.169-10.712-23.982-23.879-24.104l-2.271-0.021l0.293-2.253
			c0.212-1.629,0.319-3.232,0.319-4.768c0-20.187-16.422-36.61-36.607-36.61c-16.169,0-30.62,10.836-35.142,26.35l-0.917,3.146
			l-2.393-2.238c-3.63-3.396-8.346-5.265-13.281-5.265c-10.736,0-19.471,8.734-19.471,19.47c0,0.108,0.009,0.214,0.016,0.319
			c0.009,0.131,0.018,0.261,0.021,0.393l0.054,1.563l-1.501,0.438c-10.323,3.015-17.532,12.635-17.532,23.395
			c0,13.238,10.771,24.167,24.009,24.363L644.5,95.971z"/>
	</g>
	<g>
		<polygon fill="#FFFFFF" points="375.124,2.015 344.772,21.832 365.759,38.638 396.362,19.74 		"/>
		<polygon fill="#FFFFFF" points="344.772,55.444 375.124,75.263 396.362,57.534 365.759,38.638 		"/>
		<polygon fill="#FFFFFF" points="396.362,57.534 417.601,75.263 447.954,55.444 426.968,38.638 		"/>
		<polygon fill="#FFFFFF" points="447.954,21.832 417.601,2.015 396.362,19.74 426.968,38.638 		"/>
		<polygon fill="#FFFFFF" points="396.426,61.35 375.124,79.023 366.01,73.074 366.01,79.743 396.426,97.985 426.842,79.743 
			426.842,73.074 417.728,79.023 		"/>
	</g>
	<g>
		<path fill="#FFFFFF" d="M204.282,72.495c-2.26,5.012-3.343,7.247-6.253,11.678c-4.063,6.183-9.787,13.884-16.88,13.951
			c-6.306,0.057-7.924-4.104-16.479-4.058c-8.555,0.048-10.341,4.131-16.647,4.071c-7.094-0.064-12.519-7.019-16.581-13.202
			c-11.36-17.292-12.546-37.585-5.542-48.374c4.979-7.667,12.832-12.154,20.217-12.154c7.519,0,12.246,4.124,18.463,4.124
			c6.031,0,9.705-4.13,18.398-4.13c6.57,0,13.533,3.576,18.495,9.765C185.219,43.072,187.859,66.288,204.282,72.495z"/>
		<g>
			<path fill="#FFFFFF" d="M176.384,17.493c3.157-4.055,5.557-9.78,4.687-15.631c-5.159,0.355-11.194,3.639-14.718,7.918
				c-3.199,3.884-5.839,9.647-4.811,15.247C167.175,25.2,173.001,21.836,176.384,17.493z"/>
		</g>
	</g>
	<g>
	</g>
	<g>
	</g>
	<g>
	</g>
	<g>
	</g>
	<g>
	</g>
	<g>
	</g>
</g>
</svg>
