<?xml version="1.0" encoding="utf-8"?>
<!-- Generator: Adobe Illustrator 16.0.0, SVG Export Plug-In . SVG Version: 6.00 Build 0)  -->
<!DOCTYPE svg PUBLIC "-//W3C//DTD SVG 1.1//EN" "http://www.w3.org/Graphics/SVG/1.1/DTD/svg11.dtd">
<svg version="1.1" id="Layer_1" xmlns="http://www.w3.org/2000/svg" xmlns:xlink="http://www.w3.org/1999/xlink" x="0px" y="0px"
	 width="100%" height="100%" viewBox="0 0 1500 500" enable-background="new 0 0 1500 500" xml:space="preserve">
<g id="X">
</g>
<g id="X_1_">
</g>
<g id="U">
</g>
<g id="N">
</g>
<g id="E">
</g>
<g id="V">
	<g>
		<path fill="#333333" d="M1338.728,201.949c-2.924,5.092-2.229,11.069-0.496,13.878l12.229-21.345
			C1350.453,194.483,1342.812,194.796,1338.728,201.949z"/>
		<path fill="#333333" d="M1490.789,396.639l-84.622-147.328l79.706-139.229c0,0,40.604-64.339-21.229-99.738
			c-61.852-35.406-96.77,32.193-96.77,32.193l-58.766,102.654l-58.689-102.7c0,0-34.88-67.623-96.745-32.262
			c-61.867,35.354-21.307,99.73-21.307,99.73l79.622,139.296L1131.55,389.79c0,0-41.024,64.096,21.284,99.761
			c62.308,35.674,96.988-32.476,96.988-32.476l59.231-103.463l63.026,110.456c0,0,35.688,60.621,95.219,24.368
			C1522.867,454.589,1490.789,396.639,1490.789,396.639z M1399.845,70.82l19.102-2.443l-7.627-17.566l7.786-13.589l12.185,29.429
			l36.056-4.634l-7.817,13.657l-22.514,3.055l8.909,20.688l-8.207,14.321l-14.063-33.743l-31.253,3.825L1399.845,70.82z
			 M1374.821,114.502l27.674,15.849c0,0,8.474,5.115,12.862-2.542c4.513-7.878-4.129-12.703-4.129-12.703l-27.666-15.849
			l6.504-11.344l27.666,15.849c0,0,19.244,11.283,8.58,29.879c-11.131,19.429-30.482,8.336-30.482,8.336l-27.666-15.848
			L1374.821,114.502z M1289.488,263.448l7.787-13.581l26.787,2l-14.879-22.788l7.397-12.901l33.468,50.583L1289.488,263.448z
			 M1375.21,222.852c-7.656,13.352-24.283,17.176-36.818,9.993c-11.726-6.718-18.001-22.826-9.993-36.804
			c7.353-12.833,23.887-17.398,36.804-10l2.863,1.641l-20.643,36.041c3.945,1.244,12.665,1.076,17.245-6.909
			c4.344-7.596,0.436-14.681-1.253-16.704l11.367-5.046C1374.783,195.056,1383.318,208.675,1375.21,222.852z M1369.615,168.458
			l27.658,15.855l-6.657,11.634L1362.95,180.1c0,0-19.358-11.077-8.222-30.513c10.657-18.597,30.107-7.71,30.107-7.71l27.674,15.848
			l-6.504,11.344l-27.666-15.848c0,0-8.534-5.023-13.047,2.855C1360.92,163.733,1369.615,168.458,1369.615,168.458z"/>
	</g>
</g>
</svg>
