<?xml version="1.0" encoding="utf-8"?>
<!-- Generator: Adobe Illustrator 16.0.0, SVG Export Plug-In . SVG Version: 6.00 Build 0)  -->
<!DOCTYPE svg PUBLIC "-//W3C//DTD SVG 1.1//EN" "http://www.w3.org/Graphics/SVG/1.1/DTD/svg11.dtd">
<svg version="1.1"
	 id="svg2" xmlns:rdf="http://www.w3.org/1999/02/22-rdf-syntax-ns#" xmlns:cc="http://creativecommons.org/ns#" xmlns:dc="http://purl.org/dc/elements/1.1/" xmlns:svg="http://www.w3.org/2000/svg"
	 xmlns="http://www.w3.org/2000/svg" xmlns:xlink="http://www.w3.org/1999/xlink" x="0px" y="0px" width="431.838px"
	 height="284.04px" viewBox="169.795 484.628 431.838 284.04" enable-background="new 169.795 484.628 431.838 284.04"
	 xml:space="preserve">
<g id="layer1">
	<g id="g3348" transform="matrix(8.6367532,0,0,7.5617022,169.79546,484.62779)">
		<g id="g2986">
			<g id="g2988">
				<path id="path2990" fill="#FFFFFF" d="M46.512,35.948c0,0-0.045-0.004-0.121-0.004c-0.41,0-1.904,0.119-2.717,1.618H50v-1.613
					L46.512,35.948z M49.813,37.377H49.25l0.563-0.559V37.377L49.813,37.377z"/>
				<path id="path2992" fill="#FFFFFF" d="M0,35.949v1.613h6.326c-0.813-1.499-2.307-1.618-2.716-1.618
					c-0.077,0-0.121,0.004-0.122,0.004L0,35.949z M0.188,36.819l0.563,0.559H0.188V36.819z"/>
				<path id="path2994" fill="#FFFFFF" d="M37.375,33.405v3.289c0,0.206-0.168,0.373-0.375,0.373H12.875
					c-0.207,0-0.375-0.167-0.375-0.373v-3.289H0v2.356h3.663c0.015-0.001,0.063-0.005,0.135-0.005c0.444,0,1.947,0.133,2.801,1.807
					H25h18.4c0.854-1.674,2.355-1.807,2.802-1.807c0.073,0,0.12,0.004,0.136,0.005H50v-2.356H37.375z"/>
				<path id="path2996" fill="#FFFFFF" d="M33.125,36.383c0,0.14-0.111,0.248-0.25,0.248H17c-0.138,0-0.25-0.108-0.25-0.248l0,0
					c0-0.137,0.112-0.248,0.25-0.248h15.875C33.014,36.135,33.125,36.246,33.125,36.383L33.125,36.383z"/>
				<g id="g2998">
					<path id="path3000" fill="#FFFFFF" d="M12.974,36.386c0-0.071,0.008-0.133,0.023-0.178c0.015-0.045,0.038-0.079,0.068-0.104
						c0.03-0.024,0.068-0.037,0.114-0.037c0.034,0,0.063,0.008,0.088,0.021c0.025,0.013,0.046,0.032,0.063,0.06
						c0.017,0.023,0.03,0.056,0.039,0.093c0.009,0.035,0.014,0.085,0.014,0.146c0,0.073-0.007,0.132-0.022,0.179
						c-0.015,0.045-0.038,0.077-0.068,0.104c-0.03,0.023-0.068,0.036-0.114,0.036c-0.061,0-0.108-0.021-0.142-0.064
						C12.995,36.588,12.974,36.504,12.974,36.386L12.974,36.386z M13.053,36.386c0,0.104,0.012,0.17,0.036,0.204
						c0.024,0.034,0.054,0.051,0.089,0.051c0.035,0,0.065-0.017,0.089-0.052c0.024-0.033,0.036-0.102,0.036-0.203
						c0-0.103-0.012-0.17-0.036-0.204c-0.024-0.032-0.054-0.05-0.09-0.05c-0.035,0-0.063,0.016-0.084,0.044
						C13.066,36.215,13.053,36.285,13.053,36.386z"/>
					<path id="path3002" fill="#FFFFFF" d="M13.46,36.386c0-0.071,0.008-0.133,0.023-0.178c0.015-0.045,0.038-0.079,0.068-0.104
						c0.03-0.024,0.068-0.037,0.113-0.037c0.034,0,0.063,0.008,0.088,0.021c0.025,0.013,0.046,0.032,0.063,0.06
						c0.017,0.024,0.029,0.056,0.039,0.093c0.009,0.035,0.014,0.085,0.014,0.146c0,0.073-0.008,0.132-0.023,0.179
						c-0.015,0.045-0.038,0.077-0.067,0.104c-0.03,0.023-0.068,0.036-0.114,0.036c-0.06,0-0.107-0.021-0.142-0.064
						C13.481,36.588,13.46,36.504,13.46,36.386L13.46,36.386z M13.54,36.386c0,0.104,0.012,0.17,0.036,0.204
						c0.024,0.034,0.054,0.051,0.089,0.051c0.036,0,0.065-0.017,0.089-0.052c0.024-0.033,0.036-0.102,0.036-0.203
						c0-0.103-0.012-0.17-0.036-0.204c-0.024-0.032-0.054-0.05-0.09-0.05c-0.036,0-0.064,0.016-0.085,0.044
						C13.553,36.215,13.54,36.285,13.54,36.386z"/>
					<path id="path3004" fill="#FFFFFF" d="M13.99,36.33v-0.087h0.087v0.087H13.99z M13.99,36.694v-0.087h0.087v0.087H13.99z"/>
					<path id="path3006" fill="#FFFFFF" d="M14.19,36.386c0-0.071,0.007-0.133,0.022-0.178c0.016-0.045,0.038-0.079,0.068-0.104
						c0.03-0.024,0.067-0.037,0.113-0.037c0.034,0,0.063,0.008,0.088,0.021c0.025,0.013,0.046,0.032,0.063,0.06
						c0.016,0.023,0.029,0.056,0.039,0.093c0.009,0.035,0.014,0.085,0.014,0.146c0,0.073-0.007,0.132-0.022,0.179
						c-0.015,0.045-0.038,0.077-0.068,0.104c-0.03,0.023-0.068,0.036-0.114,0.036c-0.061,0-0.108-0.021-0.142-0.064
						C14.211,36.588,14.19,36.504,14.19,36.386z M14.269,36.386c0,0.104,0.012,0.17,0.036,0.204
						c0.024,0.034,0.054,0.051,0.089,0.051c0.035,0,0.065-0.017,0.089-0.052c0.024-0.033,0.036-0.102,0.036-0.203
						c0-0.103-0.012-0.17-0.036-0.204c-0.024-0.032-0.054-0.05-0.09-0.05c-0.035,0-0.063,0.016-0.084,0.044
						C14.283,36.215,14.269,36.285,14.269,36.386z"/>
					<path id="path3008" fill="#FFFFFF" d="M14.677,36.386c0-0.071,0.008-0.133,0.023-0.178c0.015-0.045,0.038-0.079,0.068-0.104
						c0.03-0.025,0.068-0.037,0.113-0.037c0.034,0,0.063,0.008,0.089,0.021c0.025,0.013,0.046,0.032,0.063,0.06
						c0.017,0.024,0.03,0.056,0.039,0.093c0.009,0.035,0.014,0.085,0.014,0.146c0,0.073-0.008,0.132-0.023,0.179
						c-0.015,0.045-0.038,0.077-0.067,0.104c-0.03,0.023-0.068,0.036-0.114,0.036c-0.061,0-0.108-0.021-0.143-0.064
						C14.697,36.588,14.677,36.504,14.677,36.386L14.677,36.386z M14.756,36.386c0,0.104,0.012,0.17,0.036,0.204
						c0.024,0.034,0.054,0.051,0.089,0.051c0.036,0,0.065-0.017,0.089-0.052c0.024-0.033,0.036-0.102,0.036-0.203
						c0-0.103-0.012-0.17-0.036-0.204c-0.024-0.032-0.054-0.05-0.09-0.05c-0.036,0-0.063,0.016-0.085,0.044
						C14.769,36.215,14.756,36.285,14.756,36.386z"/>
					<path id="path3010" fill="#FFFFFF" d="M15.206,36.33v-0.087h0.088v0.087H15.206z M15.206,36.694v-0.087h0.088v0.087H15.206z"/>
					<path id="path3012" fill="#FFFFFF" d="M15.407,36.386c0-0.071,0.007-0.133,0.023-0.178c0.015-0.045,0.038-0.079,0.068-0.104
						c0.03-0.024,0.068-0.037,0.113-0.037c0.034,0,0.063,0.008,0.088,0.021c0.025,0.013,0.046,0.032,0.063,0.06
						c0.016,0.023,0.029,0.056,0.039,0.093c0.01,0.035,0.014,0.085,0.014,0.146c0,0.073-0.007,0.132-0.022,0.179
						c-0.015,0.045-0.038,0.077-0.068,0.104c-0.03,0.023-0.068,0.036-0.114,0.036c-0.061,0-0.108-0.021-0.142-0.064
						C15.427,36.588,15.407,36.504,15.407,36.386L15.407,36.386z M15.486,36.386c0,0.104,0.012,0.17,0.036,0.204
						c0.024,0.034,0.054,0.051,0.089,0.051c0.035,0,0.065-0.017,0.089-0.052c0.024-0.033,0.036-0.102,0.036-0.203
						c0-0.103-0.012-0.17-0.036-0.204c-0.024-0.032-0.054-0.05-0.09-0.05c-0.035,0-0.063,0.016-0.084,0.044
						C15.499,36.215,15.486,36.285,15.486,36.386z"/>
					<path id="path3014" fill="#FFFFFF" d="M15.893,36.386c0-0.071,0.008-0.133,0.023-0.178c0.015-0.045,0.038-0.079,0.068-0.104
						c0.03-0.024,0.068-0.037,0.114-0.037c0.033,0,0.063,0.008,0.088,0.021c0.025,0.013,0.046,0.032,0.063,0.06
						c0.017,0.023,0.03,0.056,0.039,0.093c0.009,0.035,0.014,0.085,0.014,0.146c0,0.073-0.008,0.132-0.022,0.179
						c-0.015,0.045-0.038,0.077-0.068,0.104c-0.03,0.023-0.068,0.036-0.114,0.036c-0.061,0-0.108-0.021-0.143-0.064
						C15.914,36.588,15.893,36.504,15.893,36.386L15.893,36.386z M15.972,36.386c0,0.104,0.012,0.17,0.036,0.204
						c0.024,0.034,0.054,0.051,0.089,0.051s0.065-0.017,0.089-0.052c0.024-0.033,0.036-0.102,0.036-0.203
						c0-0.103-0.012-0.17-0.036-0.204c-0.024-0.032-0.054-0.05-0.09-0.05c-0.036,0-0.063,0.016-0.085,0.044
						C15.985,36.215,15.972,36.285,15.972,36.386L15.972,36.386z"/>
				</g>
				<g id="g3016">
					<path id="path3018" fill="#FFFFFF" d="M33.661,36.386c0-0.071,0.008-0.133,0.022-0.178c0.016-0.045,0.039-0.079,0.066-0.104
						c0.029-0.024,0.066-0.037,0.111-0.037c0.033,0,0.063,0.008,0.091,0.021c0.024,0.013,0.046,0.032,0.063,0.06
						c0.018,0.024,0.029,0.056,0.039,0.093c0.01,0.035,0.016,0.085,0.016,0.146c0,0.073-0.008,0.132-0.023,0.179
						c-0.015,0.045-0.037,0.077-0.066,0.104c-0.029,0.023-0.067,0.036-0.113,0.036c-0.063,0-0.107-0.021-0.145-0.064
						C33.682,36.588,33.661,36.504,33.661,36.386z M33.74,36.386c0,0.104,0.012,0.17,0.035,0.204
						c0.023,0.034,0.055,0.051,0.09,0.051c0.035,0,0.064-0.017,0.09-0.052c0.023-0.033,0.035-0.102,0.035-0.203
						c0-0.103-0.012-0.17-0.035-0.204c-0.023-0.032-0.055-0.05-0.09-0.05c-0.035,0-0.064,0.016-0.086,0.044
						C33.754,36.215,33.74,36.285,33.74,36.386z"/>
					<path id="path3020" fill="#FFFFFF" d="M34.148,36.386c0-0.071,0.008-0.133,0.021-0.178c0.013-0.045,0.038-0.079,0.065-0.104
						c0.031-0.024,0.068-0.037,0.113-0.037c0.034,0,0.063,0.008,0.09,0.021c0.024,0.013,0.045,0.032,0.063,0.06
						c0.017,0.023,0.028,0.056,0.039,0.093c0.009,0.035,0.015,0.085,0.015,0.146c0,0.073-0.009,0.132-0.022,0.179
						c-0.015,0.045-0.037,0.077-0.067,0.104c-0.029,0.023-0.066,0.036-0.113,0.036c-0.061,0-0.106-0.021-0.143-0.064
						C34.168,36.588,34.148,36.504,34.148,36.386L34.148,36.386z M34.227,36.386c0,0.104,0.012,0.17,0.037,0.204
						c0.023,0.034,0.053,0.051,0.088,0.051c0.037,0,0.065-0.017,0.09-0.052c0.023-0.033,0.037-0.102,0.037-0.203
						c0-0.103-0.014-0.17-0.037-0.204c-0.022-0.032-0.055-0.05-0.09-0.05c-0.035,0-0.063,0.016-0.084,0.044
						C34.24,36.215,34.227,36.285,34.227,36.386z"/>
					<path id="path3022" fill="#FFFFFF" d="M34.678,36.33v-0.087h0.088v0.087H34.678z M34.678,36.694v-0.087h0.088v0.087H34.678z"/>
					<path id="path3024" fill="#FFFFFF" d="M34.878,36.386c0-0.071,0.007-0.133,0.022-0.178c0.015-0.045,0.037-0.079,0.066-0.104
						c0.029-0.025,0.067-0.037,0.113-0.037c0.031,0,0.063,0.008,0.088,0.021c0.025,0.013,0.047,0.032,0.063,0.06
						c0.019,0.023,0.029,0.056,0.039,0.093c0.01,0.035,0.016,0.085,0.016,0.146c0,0.073-0.01,0.132-0.021,0.179
						c-0.017,0.045-0.037,0.077-0.068,0.104c-0.028,0.023-0.066,0.036-0.112,0.036c-0.062,0-0.106-0.021-0.144-0.064
						C34.898,36.588,34.878,36.504,34.878,36.386z M34.957,36.386c0,0.104,0.012,0.17,0.035,0.204
						c0.025,0.034,0.055,0.051,0.09,0.051c0.035,0,0.064-0.017,0.089-0.052c0.024-0.033,0.036-0.102,0.036-0.203
						c0-0.103-0.012-0.17-0.036-0.204c-0.024-0.032-0.054-0.05-0.09-0.05c-0.035,0-0.063,0.016-0.085,0.044
						C34.971,36.215,34.957,36.285,34.957,36.386z"/>
					<path id="path3026" fill="#FFFFFF" d="M35.363,36.386c0-0.071,0.009-0.133,0.023-0.178c0.016-0.045,0.036-0.079,0.066-0.104
						c0.029-0.025,0.066-0.037,0.111-0.037c0.033,0,0.063,0.008,0.088,0.021c0.025,0.013,0.049,0.032,0.063,0.06
						c0.017,0.024,0.029,0.056,0.039,0.093c0.009,0.035,0.015,0.085,0.015,0.146c0,0.073-0.008,0.132-0.021,0.179
						c-0.016,0.045-0.037,0.077-0.066,0.104c-0.029,0.023-0.068,0.036-0.113,0.036c-0.063,0-0.107-0.021-0.145-0.064
						C35.385,36.588,35.363,36.504,35.363,36.386z M35.443,36.386c0,0.104,0.012,0.17,0.035,0.204
						c0.023,0.034,0.055,0.051,0.09,0.051c0.035,0,0.063-0.017,0.09-0.052c0.023-0.033,0.035-0.102,0.035-0.203
						c0-0.103-0.012-0.17-0.035-0.204c-0.024-0.032-0.055-0.05-0.09-0.05c-0.036,0-0.064,0.016-0.086,0.044
						C35.457,36.215,35.443,36.285,35.443,36.386z"/>
					<path id="path3028" fill="#FFFFFF" d="M35.895,36.33v-0.087h0.088v0.087H35.895z M35.895,36.694v-0.087h0.088v0.087H35.895z"/>
					<path id="path3030" fill="#FFFFFF" d="M36.094,36.386c0-0.071,0.008-0.133,0.023-0.178c0.015-0.045,0.037-0.079,0.066-0.104
						c0.029-0.025,0.067-0.037,0.113-0.037c0.033,0,0.063,0.008,0.09,0.021c0.023,0.013,0.047,0.032,0.063,0.06
						c0.017,0.023,0.029,0.056,0.039,0.093c0.01,0.035,0.014,0.085,0.014,0.146c0,0.073-0.007,0.132-0.021,0.179
						c-0.016,0.045-0.037,0.077-0.066,0.104c-0.029,0.023-0.066,0.036-0.113,0.036c-0.063,0-0.107-0.021-0.143-0.064
						C36.115,36.588,36.094,36.504,36.094,36.386z M36.174,36.386c0,0.104,0.012,0.17,0.035,0.204
						c0.023,0.034,0.055,0.051,0.09,0.051c0.035,0,0.064-0.017,0.088-0.052c0.025-0.033,0.037-0.102,0.037-0.203
						c0-0.103-0.012-0.17-0.037-0.204c-0.023-0.032-0.053-0.05-0.09-0.05c-0.035,0-0.063,0.016-0.084,0.044
						C36.188,36.215,36.174,36.285,36.174,36.386z"/>
					<path id="path3032" fill="#FFFFFF" d="M36.58,36.386c0-0.071,0.008-0.133,0.023-0.178c0.015-0.045,0.037-0.079,0.066-0.104
						c0.029-0.025,0.066-0.037,0.113-0.037c0.031,0,0.063,0.008,0.088,0.021c0.025,0.013,0.047,0.032,0.063,0.06
						c0.019,0.023,0.029,0.056,0.039,0.093c0.01,0.035,0.014,0.085,0.014,0.146c0,0.073-0.008,0.132-0.021,0.179
						c-0.016,0.045-0.036,0.077-0.067,0.104c-0.028,0.023-0.066,0.036-0.112,0.036c-0.062,0-0.106-0.021-0.144-0.064
						C36.602,36.588,36.58,36.504,36.58,36.386z M36.66,36.386c0,0.104,0.012,0.17,0.035,0.204c0.022,0.034,0.055,0.051,0.09,0.051
						c0.035,0,0.064-0.017,0.089-0.052c0.024-0.033,0.036-0.102,0.036-0.203c0-0.103-0.012-0.17-0.036-0.204
						c-0.024-0.032-0.054-0.05-0.09-0.05c-0.035,0-0.063,0.016-0.085,0.044C36.673,36.215,36.66,36.285,36.66,36.386z"/>
				</g>
				<path id="path3034" fill="#FFFFFF" d="M29,33.59h-8.063c-0.207,0-0.375,0.167-0.375,0.373v1.303
					c0,0.206,0.168,0.373,0.375,0.373H29c0.207,0,0.375-0.167,0.375-0.373v-1.303C29.375,33.757,29.207,33.59,29,33.59z
					 M22.75,35.132l-0.563-0.542v0.542l-0.563-0.542v0.553H21.5v-1.18h0.125v0.563l0.563-0.542v0.542l0.563-0.542L22.75,35.132
					L22.75,35.132z M24.5,35.236v-1.354l1.064,0.678L24.5,35.236z M28.438,35.142h-0.125v-0.553l-0.563,0.542v-0.542l-0.563,0.542
					v-1.146l0.563,0.542v-0.542l0.563,0.542v-0.563h0.125V35.142z"/>
				<g id="g3036">
					<path id="path3038" fill="#FFFFFF" d="M35.25,34.026v0.99h1.438v-0.99H35.25z M36.563,34.893h-1.188V34.15h1.188V34.893z"/>
					<rect id="rect3040" x="35.563" y="34.335" fill="#FFFFFF" width="0.813" height="0.372"/>
				</g>
				<path id="path3042" fill="#FFFFFF" d="M19.609,34.274c0.164,0,0.297,0.132,0.297,0.295c0,0.162-0.133,0.295-0.297,0.295
					c-0.164,0-0.297-0.133-0.297-0.295C19.313,34.406,19.446,34.274,19.609,34.274 M19.609,34.149c-0.233,0-0.422,0.188-0.422,0.42
					c0,0.229,0.189,0.418,0.422,0.418c0.233,0,0.422-0.188,0.422-0.418C20.031,34.336,19.842,34.149,19.609,34.149L19.609,34.149z"
					/>
				<ellipse id="ellipse3044" fill="#FFFFFF" cx="13.336" cy="34.575" rx="0.31" ry="0.31"/>
				<path id="path3046" fill="#FFFFFF" d="M18.477,34.274h-4.141c-0.186,0-0.336,0.147-0.336,0.333v0.016
					c0,0.185,0.15,0.333,0.336,0.333h4.141c0.186,0,0.336-0.148,0.336-0.333v-0.016C18.813,34.422,18.662,34.274,18.477,34.274
					L18.477,34.274z M14.363,34.856c-0.14,0-0.254-0.113-0.254-0.254c0-0.141,0.114-0.253,0.254-0.253
					c0.14,0,0.254,0.112,0.254,0.253C14.617,34.743,14.503,34.856,14.363,34.856z"/>
				<g id="g3048">
					<path id="path3050" fill="#FFFFFF" d="M31.67,34.188H31v-0.104l-0.275,0.158L31,34.401v-0.15h0.67
						c0.145,0,0.268,0.13,0.268,0.281c0,0.149-0.123,0.281-0.268,0.281h-0.732v0.063h0.732c0.18,0,0.33-0.158,0.33-0.344
						C32,34.345,31.85,34.188,31.67,34.188L31.67,34.188z"/>
					<path id="path3052" fill="#FFFFFF" d="M32.725,34.531c0-0.151,0.123-0.281,0.27-0.281h0.633v0.15l0.273-0.158l-0.273-0.158
						v0.104h-0.633c-0.182,0-0.33,0.156-0.33,0.344c0,0.186,0.148,0.344,0.33,0.344h0.758v-0.063h-0.758
						C32.848,34.813,32.725,34.682,32.725,34.531L32.725,34.531z"/>
				</g>
				<path id="path3054" fill="#FFFFFF" d="M49.5,5.188v27.5h-49v-27.5H49.5 M50,4.688H0v28.438h50V4.688L50,4.688z"/>
			</g>
			<path id="path3056" fill="#FFFFFF" d="M0,4.438v-1.25h8.88c1.521,0,2.75,0.414,3.365,1.25H0z"/>
			<path id="path3058" fill="#FFFFFF" d="M50,4.438v-1.25h-8.88c-1.521,0-2.751,0.414-3.366,1.25H50z"/>
			<g id="g3060">
				<path id="path3062" fill="#FFFFFF" d="M21.106,1.017l-0.188,0.547H20.84l-0.188-0.547h0.078l0.151,0.453l0.151-0.453H21.106
					L21.106,1.017z"/>
				<path id="path3064" fill="#FFFFFF" d="M21.311,1.573c-0.065,0-0.116-0.021-0.152-0.057c-0.036-0.035-0.054-0.089-0.054-0.155
					c0-0.066,0.018-0.12,0.052-0.159c0.035-0.04,0.081-0.061,0.137-0.061c0.025,0,0.048,0.006,0.067,0.013
					c0.019,0.007,0.037,0.019,0.051,0.034s0.026,0.033,0.034,0.058c0.008,0.021,0.012,0.05,0.012,0.083v0.038h-0.284
					c0,0.047,0.012,0.084,0.036,0.107c0.024,0.025,0.057,0.038,0.099,0.038c0.015,0,0.03-0.002,0.044-0.005s0.028-0.008,0.04-0.013
					c0.012-0.005,0.023-0.011,0.031-0.017c0.009-0.006,0.016-0.011,0.021-0.016h0.004v0.075c-0.008,0.003-0.018,0.007-0.03,0.012
					c-0.012,0.004-0.023,0.008-0.032,0.012c-0.014,0.005-0.026,0.008-0.037,0.01C21.339,1.573,21.328,1.573,21.311,1.573z
					 M21.392,1.313c-0.001-0.021-0.003-0.035-0.007-0.05c-0.004-0.014-0.009-0.023-0.017-0.032c-0.008-0.012-0.019-0.02-0.031-0.023
					C21.325,1.203,21.309,1.2,21.291,1.2c-0.018,0-0.034,0.003-0.047,0.008c-0.013,0.005-0.024,0.014-0.035,0.024
					c-0.01,0.011-0.018,0.021-0.023,0.034c-0.005,0.015-0.009,0.028-0.01,0.048L21.392,1.313L21.392,1.313L21.392,1.313z"/>
				<path id="path3066" fill="#FFFFFF" d="M21.864,1.563h-0.069V1.329c0-0.021,0-0.036-0.002-0.053
					c-0.002-0.018-0.005-0.029-0.011-0.039c-0.005-0.012-0.013-0.02-0.023-0.022c-0.01-0.005-0.023-0.008-0.041-0.008
					c-0.017,0-0.035,0.005-0.053,0.014c-0.018,0.011-0.036,0.021-0.053,0.036v0.308h-0.069v-0.41h0.069V1.2
					c0.021-0.02,0.041-0.032,0.061-0.042c0.02-0.01,0.042-0.017,0.063-0.017c0.041,0,0.072,0.015,0.095,0.04
					c0.022,0.027,0.034,0.065,0.034,0.115L21.864,1.563L21.864,1.563L21.864,1.563z"/>
				<path id="path3068" fill="#FFFFFF" d="M22.295,1.563h-0.069V1.517c-0.021,0.021-0.042,0.033-0.061,0.042
					c-0.019,0.011-0.041,0.016-0.064,0.016c-0.018,0-0.034-0.003-0.05-0.009c-0.016-0.008-0.029-0.017-0.041-0.028
					c-0.012-0.013-0.021-0.029-0.027-0.048c-0.006-0.021-0.01-0.043-0.01-0.07V1.154h0.069v0.231c0,0.022,0.001,0.04,0.002,0.056
					c0.001,0.014,0.005,0.025,0.011,0.036c0.006,0.012,0.013,0.02,0.023,0.023c0.01,0.005,0.023,0.007,0.042,0.007
					c0.017,0,0.035-0.005,0.054-0.014c0.019-0.01,0.037-0.021,0.053-0.035V1.154h0.069L22.295,1.563L22.295,1.563L22.295,1.563z"/>
				<path id="path3070" fill="#FFFFFF" d="M22.727,1.563h-0.084l-0.099-0.155l-0.102,0.155h-0.078l0.142-0.203l-0.141-0.206h0.084
					l0.099,0.151l0.101-0.151h0.078l-0.141,0.202L22.727,1.563z"/>
				<path id="path3072" fill="#FFFFFF" d="M23.518,1.563h-0.073V1.092l-0.142,0.319h-0.044l-0.141-0.319v0.472h-0.067V1.017h0.099
					l0.136,0.306l0.131-0.306h0.101V1.563L23.518,1.563L23.518,1.563z"/>
				<path id="path3074" fill="#FFFFFF" d="M23.957,1.563h-0.069V1.517c-0.021,0.021-0.042,0.033-0.061,0.042
					c-0.019,0.011-0.04,0.016-0.063,0.016c-0.018,0-0.035-0.003-0.05-0.009c-0.016-0.008-0.03-0.017-0.042-0.028
					c-0.012-0.013-0.021-0.029-0.027-0.048c-0.006-0.021-0.01-0.043-0.01-0.07V1.154h0.069v0.231c0,0.022,0,0.04,0.002,0.056
					c0.002,0.014,0.005,0.025,0.011,0.036c0.005,0.012,0.013,0.02,0.022,0.023c0.01,0.005,0.024,0.007,0.042,0.007
					c0.017,0,0.035-0.005,0.054-0.014c0.019-0.01,0.037-0.021,0.052-0.035V1.154h0.069L23.957,1.563L23.957,1.563z"/>
				<path id="path3076" fill="#FFFFFF" d="M24.142,1.563h-0.069v-0.57h0.069V1.563z"/>
				<path id="path3078" fill="#FFFFFF" d="M24.383,1.571c-0.038,0-0.067-0.012-0.088-0.032c-0.021-0.022-0.031-0.055-0.031-0.101
					V1.21h-0.047V1.154h0.047V1.036h0.069v0.117h0.126V1.21h-0.126v0.195c0,0.021,0,0.037,0.001,0.048
					c0,0.011,0.003,0.021,0.008,0.031c0.004,0.009,0.011,0.015,0.02,0.02C24.371,1.509,24.384,1.51,24.4,1.51
					c0.011,0,0.022-0.001,0.032-0.005c0.011-0.003,0.018-0.006,0.023-0.008h0.004v0.062c-0.013,0.005-0.026,0.008-0.04,0.01
					C24.406,1.571,24.394,1.571,24.383,1.571z"/>
				<path id="path3080" fill="#FFFFFF" d="M24.6,1.085h-0.079V1.013H24.6V1.085z M24.595,1.563h-0.069V1.154h0.069V1.563z"/>
				<path id="path3082" fill="#FFFFFF" d="M25.176,1.563V1.326c0-0.021-0.001-0.037-0.002-0.052
					c-0.001-0.018-0.004-0.029-0.009-0.038c-0.005-0.012-0.012-0.019-0.021-0.022c-0.009-0.004-0.021-0.007-0.037-0.007
					c-0.014,0-0.029,0.004-0.045,0.013c-0.017,0.011-0.033,0.021-0.051,0.038c0,0.004,0.001,0.009,0.001,0.017
					c0,0.006,0,0.013,0,0.021v0.271h-0.069V1.326c0-0.021,0-0.037-0.002-0.052c-0.001-0.018-0.004-0.029-0.009-0.038
					c-0.005-0.012-0.012-0.019-0.021-0.022c-0.009-0.004-0.021-0.007-0.036-0.007c-0.015,0-0.031,0.005-0.047,0.014
					c-0.017,0.011-0.033,0.021-0.048,0.035v0.308h-0.069v-0.41h0.069v0.045c0.018-0.02,0.036-0.032,0.054-0.042
					c0.018-0.01,0.037-0.017,0.058-0.017c0.024,0,0.046,0.007,0.064,0.019c0.019,0.011,0.033,0.029,0.042,0.054
					c0.021-0.021,0.041-0.041,0.061-0.053c0.02-0.012,0.042-0.02,0.064-0.02c0.018,0,0.034,0.003,0.048,0.01
					c0.015,0.005,0.027,0.014,0.038,0.024c0.011,0.015,0.02,0.028,0.025,0.047c0.005,0.021,0.009,0.042,0.009,0.07v0.27h-0.067
					V1.563z"/>
				<path id="path3084" fill="#FFFFFF" d="M25.533,1.573c-0.064,0-0.115-0.021-0.151-0.057c-0.036-0.035-0.054-0.089-0.054-0.155
					c0-0.066,0.017-0.12,0.052-0.159c0.035-0.039,0.081-0.061,0.138-0.061c0.024,0,0.047,0.006,0.065,0.013
					c0.021,0.007,0.037,0.019,0.052,0.034c0.016,0.015,0.026,0.033,0.034,0.058c0.008,0.021,0.013,0.05,0.013,0.083v0.038h-0.285
					c0,0.047,0.012,0.084,0.036,0.107c0.024,0.025,0.057,0.038,0.1,0.038c0.016,0,0.029-0.002,0.045-0.005
					c0.014-0.003,0.027-0.008,0.039-0.013c0.012-0.005,0.021-0.011,0.031-0.017c0.009-0.006,0.016-0.011,0.021-0.016h0.004v0.075
					c-0.008,0.003-0.019,0.007-0.03,0.012c-0.012,0.004-0.021,0.008-0.031,0.012c-0.014,0.005-0.024,0.008-0.035,0.01
					C25.564,1.573,25.551,1.573,25.533,1.573z M25.613,1.313c0-0.021-0.002-0.035-0.006-0.05c-0.004-0.014-0.01-0.023-0.019-0.032
					c-0.008-0.012-0.021-0.02-0.028-0.023C25.544,1.203,25.531,1.2,25.513,1.2c-0.021,0-0.036,0.003-0.049,0.008
					c-0.013,0.005-0.025,0.014-0.035,0.024c-0.01,0.011-0.018,0.021-0.023,0.034c-0.005,0.015-0.009,0.028-0.01,0.048L25.613,1.313
					L25.613,1.313L25.613,1.313z"/>
				<path id="path3086" fill="#FFFFFF" d="M26.081,1.563h-0.069V1.522c-0.01,0.009-0.02,0.017-0.027,0.021
					c-0.006,0.005-0.018,0.011-0.025,0.016c-0.009,0.007-0.021,0.01-0.031,0.013c-0.01,0.003-0.021,0.004-0.035,0.004
					c-0.021,0-0.041-0.004-0.063-0.016c-0.021-0.01-0.035-0.021-0.051-0.041c-0.012-0.019-0.022-0.042-0.03-0.067
					c-0.007-0.026-0.012-0.059-0.012-0.091c0-0.036,0.006-0.067,0.016-0.095c0.012-0.024,0.021-0.049,0.038-0.067
					c0.017-0.02,0.033-0.032,0.056-0.042c0.021-0.01,0.043-0.017,0.064-0.017s0.039,0.002,0.054,0.009
					c0.017,0.005,0.031,0.012,0.05,0.021V0.992h0.067L26.081,1.563L26.081,1.563z M26.012,1.463V1.227
					c-0.017-0.008-0.031-0.014-0.045-0.017c-0.014-0.003-0.029-0.005-0.045-0.005c-0.035,0-0.063,0.013-0.083,0.04
					c-0.021,0.026-0.03,0.063-0.03,0.115c0,0.048,0.008,0.085,0.023,0.108c0.016,0.025,0.04,0.038,0.074,0.038
					c0.018,0,0.035-0.004,0.055-0.012C25.979,1.489,25.996,1.476,26.012,1.463L26.012,1.463z"/>
				<path id="path3088" fill="#FFFFFF" d="M26.271,1.085h-0.078V1.013h0.078V1.085z M26.266,1.563H26.2V1.154h0.066V1.563z"/>
				<path id="path3090" fill="#FFFFFF" d="M26.609,1.519c-0.004,0.006-0.012,0.012-0.021,0.019c-0.01,0.008-0.02,0.014-0.027,0.018
					c-0.012,0.006-0.021,0.013-0.035,0.017c-0.012,0.004-0.025,0.005-0.047,0.005c-0.018,0-0.033-0.003-0.049-0.009
					c-0.016-0.009-0.03-0.019-0.039-0.03c-0.011-0.012-0.021-0.025-0.027-0.042c-0.006-0.018-0.01-0.034-0.01-0.052
					c0-0.028,0.006-0.054,0.02-0.072c0.012-0.021,0.029-0.036,0.059-0.047c0.021-0.011,0.051-0.02,0.082-0.022
					c0.029-0.004,0.063-0.007,0.1-0.009V1.281c0-0.018-0.002-0.029-0.006-0.039c-0.006-0.01-0.014-0.02-0.021-0.023
					c-0.008-0.006-0.02-0.009-0.031-0.011c-0.014-0.002-0.025-0.003-0.039-0.003c-0.017,0-0.035,0.002-0.057,0.007
					c-0.022,0.005-0.043,0.012-0.064,0.021h-0.004v-0.07c0.014-0.004,0.031-0.008,0.055-0.012c0.025-0.004,0.049-0.008,0.07-0.008
					c0.027,0,0.053,0.004,0.07,0.008c0.02,0.004,0.037,0.013,0.053,0.022c0.016,0.009,0.025,0.026,0.033,0.043
					c0.008,0.02,0.012,0.04,0.012,0.065V1.56h-0.072V1.519H26.609L26.609,1.519z M26.609,1.462V1.348
					c-0.018,0.001-0.036,0.003-0.063,0.008c-0.023,0.002-0.046,0.006-0.063,0.011c-0.02,0.005-0.032,0.014-0.045,0.024
					c-0.014,0.013-0.02,0.028-0.02,0.05c0,0.022,0.008,0.041,0.021,0.053c0.013,0.012,0.031,0.018,0.058,0.018
					c0.021,0,0.041-0.005,0.06-0.014C26.578,1.488,26.596,1.475,26.609,1.462z"/>
				<path id="path3092" fill="#FFFFFF" d="M27.045,1.563V1.017h0.342v0.064h-0.269v0.15h0.25v0.063h-0.25v0.203h0.269V1.56h-0.342
					L27.045,1.563L27.045,1.563z"/>
				<path id="path3094" fill="#FFFFFF" d="M27.797,1.563h-0.068V1.329c0-0.021,0-0.036-0.002-0.053
					c-0.002-0.018-0.006-0.029-0.012-0.039c-0.006-0.012-0.014-0.02-0.023-0.022c-0.01-0.005-0.021-0.008-0.041-0.008
					c-0.017,0-0.032,0.005-0.053,0.014c-0.018,0.011-0.035,0.021-0.053,0.036v0.308h-0.068v-0.41h0.068V1.2
					c0.02-0.02,0.041-0.032,0.061-0.042c0.021-0.01,0.041-0.017,0.063-0.017c0.041,0,0.072,0.015,0.097,0.04
					c0.021,0.027,0.032,0.065,0.032,0.115L27.797,1.563L27.797,1.563z"/>
				<path id="path3096" fill="#FFFFFF" d="M27.924,1.628c0.004,0.002,0.012,0.005,0.02,0.008c0.012,0.003,0.021,0.007,0.031,0.012
					c0.014,0.003,0.024,0.005,0.035,0.007c0.012,0.002,0.022,0.003,0.035,0.003c0.021,0,0.039-0.002,0.055-0.008
					c0.014-0.008,0.025-0.016,0.034-0.023c0.009-0.01,0.013-0.021,0.017-0.035c0.004-0.013,0.007-0.026,0.007-0.045V1.508
					c-0.021,0.018-0.037,0.028-0.056,0.036c-0.02,0.008-0.041,0.012-0.066,0.012c-0.049,0-0.084-0.018-0.111-0.052
					C27.9,1.47,27.884,1.42,27.884,1.357c0-0.034,0.006-0.064,0.016-0.092c0.01-0.024,0.021-0.048,0.039-0.065
					c0.016-0.019,0.031-0.031,0.055-0.041c0.021-0.009,0.043-0.016,0.064-0.016c0.021,0,0.039,0.004,0.055,0.009
					c0.017,0.005,0.031,0.012,0.048,0.021l0.004-0.018h0.065v0.361c0,0.069-0.018,0.12-0.047,0.153
					c-0.029,0.032-0.076,0.048-0.141,0.048c-0.021,0-0.04-0.001-0.063-0.005c-0.021-0.003-0.041-0.007-0.059-0.013V1.628H27.924z
					 M28.154,1.451V1.227c-0.018-0.008-0.032-0.014-0.047-0.018c-0.017-0.004-0.029-0.005-0.043-0.005
					c-0.035,0-0.063,0.013-0.082,0.038c-0.021,0.024-0.031,0.063-0.031,0.108c0,0.047,0.008,0.08,0.023,0.104
					c0.014,0.024,0.039,0.036,0.072,0.036c0.02,0,0.036-0.003,0.057-0.01C28.123,1.474,28.141,1.464,28.154,1.451z"/>
				<path id="path3098" fill="#FFFFFF" d="M28.414,1.085h-0.079V1.013h0.079V1.085z M28.408,1.563H28.34V1.154h0.068V1.563z"/>
				<path id="path3100" fill="#FFFFFF" d="M28.848,1.563h-0.07V1.329c0-0.021,0-0.036-0.002-0.053
					c-0.002-0.018-0.006-0.029-0.012-0.039c-0.005-0.012-0.013-0.02-0.021-0.022C28.73,1.21,28.718,1.207,28.7,1.207
					c-0.017,0-0.034,0.005-0.054,0.014c-0.019,0.011-0.035,0.021-0.054,0.036v0.308h-0.067v-0.41h0.067V1.2
					c0.021-0.02,0.041-0.032,0.062-0.042c0.021-0.01,0.041-0.017,0.063-0.017c0.04,0,0.071,0.015,0.096,0.04
					c0.021,0.027,0.035,0.065,0.035,0.115V1.563L28.848,1.563z"/>
				<path id="path3102" fill="#FFFFFF" d="M29.137,1.573c-0.066,0-0.117-0.021-0.152-0.057C28.95,1.481,28.93,1.427,28.93,1.361
					c0-0.066,0.02-0.12,0.053-0.159c0.035-0.039,0.08-0.061,0.139-0.061c0.023,0,0.048,0.006,0.066,0.013
					c0.02,0.007,0.035,0.019,0.051,0.034c0.016,0.015,0.025,0.033,0.033,0.058c0.008,0.021,0.014,0.05,0.014,0.083v0.038H29
					c0,0.047,0.012,0.084,0.035,0.107c0.023,0.025,0.058,0.038,0.1,0.038c0.016,0,0.03-0.002,0.045-0.005
					c0.014-0.003,0.027-0.008,0.039-0.013c0.014-0.005,0.023-0.011,0.031-0.017c0.009-0.006,0.016-0.011,0.021-0.016h0.004v0.075
					c-0.008,0.003-0.02,0.007-0.029,0.012c-0.014,0.004-0.023,0.008-0.033,0.012c-0.014,0.005-0.025,0.008-0.036,0.01
					C29.166,1.572,29.152,1.573,29.137,1.573z M29.217,1.313c-0.001-0.021-0.004-0.035-0.008-0.05
					C29.206,1.251,29.2,1.24,29.193,1.231c-0.01-0.012-0.021-0.02-0.031-0.023C29.148,1.203,29.134,1.2,29.115,1.2
					c-0.02,0-0.033,0.003-0.047,0.008c-0.014,0.005-0.024,0.014-0.035,0.024c-0.01,0.011-0.018,0.021-0.023,0.034
					C29.005,1.281,29.002,1.295,29,1.313H29.217L29.217,1.313z"/>
				<path id="path3104" fill="#FFFFFF" d="M17.953,2.473c-0.032,0-0.06-0.004-0.084-0.012c-0.024-0.009-0.044-0.021-0.061-0.038
					c-0.02-0.019-0.033-0.042-0.041-0.066c-0.008-0.026-0.012-0.061-0.012-0.1v-0.34h0.072v0.34c0,0.025,0.002,0.046,0.005,0.063
					c0.003,0.017,0.009,0.031,0.019,0.046c0.01,0.015,0.023,0.024,0.04,0.033c0.017,0.008,0.037,0.012,0.061,0.012
					c0.023,0,0.043-0.004,0.061-0.012c0.018-0.009,0.031-0.021,0.041-0.033c0.009-0.016,0.015-0.029,0.019-0.046
					c0.003-0.019,0.005-0.038,0.005-0.063v-0.34h0.073v0.34c0,0.038-0.004,0.07-0.012,0.1c-0.008,0.025-0.021,0.05-0.041,0.067
					c-0.017,0.019-0.038,0.029-0.061,0.038C18.014,2.471,17.986,2.473,17.953,2.473z"/>
				<path id="path3106" fill="#FFFFFF" d="M18.585,2.462h-0.069V2.23c0-0.021-0.001-0.036-0.003-0.055
					c-0.002-0.016-0.005-0.027-0.01-0.039c-0.006-0.01-0.014-0.018-0.023-0.021c-0.01-0.005-0.024-0.008-0.041-0.008
					c-0.017,0-0.035,0.005-0.053,0.014c-0.018,0.009-0.036,0.021-0.053,0.036v0.305h-0.069V2.053h0.069v0.045
					c0.021-0.018,0.041-0.03,0.061-0.042c0.02-0.01,0.041-0.015,0.063-0.015c0.041,0,0.072,0.013,0.095,0.04
					c0.023,0.026,0.034,0.065,0.034,0.115L18.585,2.462L18.585,2.462L18.585,2.462z"/>
				<path id="path3108" fill="#FFFFFF" d="M18.771,1.986h-0.078V1.913h0.078V1.986z M18.767,2.462h-0.069V2.053h0.069V2.462z"/>
				<path id="path3110" fill="#FFFFFF" d="M19.205,2.053L19.05,2.462h-0.062l-0.153-0.409h0.074l0.112,0.316l0.111-0.316H19.205
					L19.205,2.053z"/>
				<path id="path3112" fill="#FFFFFF" d="M19.443,2.472c-0.065,0-0.116-0.019-0.152-0.055c-0.036-0.037-0.054-0.089-0.054-0.157
					c0-0.064,0.018-0.12,0.052-0.159c0.035-0.037,0.081-0.059,0.137-0.059c0.025,0,0.048,0.004,0.067,0.011
					c0.019,0.007,0.037,0.021,0.051,0.034c0.014,0.013,0.026,0.035,0.034,0.06c0.008,0.021,0.012,0.05,0.012,0.081v0.037h-0.284
					c0,0.05,0.012,0.084,0.036,0.109c0.024,0.025,0.057,0.038,0.099,0.038c0.015,0,0.03-0.002,0.044-0.005
					c0.014-0.003,0.028-0.008,0.04-0.015c0.012-0.005,0.023-0.011,0.031-0.016c0.009-0.005,0.016-0.01,0.021-0.015h0.004v0.075
					c-0.008,0.003-0.018,0.007-0.03,0.012c-0.012,0.004-0.023,0.008-0.032,0.011c-0.014,0.003-0.026,0.006-0.037,0.008
					C19.471,2.471,19.46,2.472,19.443,2.472L19.443,2.472z M19.524,2.212c0-0.019-0.003-0.035-0.007-0.048
					C19.513,2.151,19.508,2.139,19.5,2.13c-0.008-0.01-0.019-0.018-0.031-0.021c-0.012-0.007-0.028-0.01-0.046-0.01
					c-0.018,0-0.034,0.003-0.047,0.01c-0.013,0.005-0.024,0.014-0.035,0.022c-0.01,0.011-0.018,0.023-0.023,0.036
					c-0.005,0.013-0.009,0.028-0.01,0.045H19.524L19.524,2.212L19.524,2.212z"/>
				<path id="path3114" fill="#FFFFFF" d="M19.892,2.127h-0.003c-0.005-0.001-0.011-0.002-0.017-0.003c-0.006,0-0.013,0-0.021,0
					c-0.019,0-0.037,0.004-0.055,0.012c-0.019,0.008-0.036,0.021-0.052,0.036v0.291h-0.069v-0.41h0.069v0.063
					c0.025-0.022,0.047-0.038,0.066-0.047c0.019-0.011,0.037-0.016,0.054-0.016c0.007,0,0.012,0,0.016,0.001
					c0.003,0,0.007,0,0.012,0.001V2.127L19.892,2.127z"/>
				<path id="path3116" fill="#FFFFFF" d="M20.071,2.472c-0.027,0-0.053-0.004-0.077-0.011c-0.024-0.007-0.043-0.015-0.059-0.021
					V2.362h0.003c0.006,0.004,0.013,0.01,0.021,0.015c0.008,0.006,0.018,0.012,0.031,0.018c0.012,0.007,0.025,0.012,0.039,0.017
					c0.014,0.004,0.028,0.006,0.043,0.006c0.011,0,0.023-0.001,0.035-0.004c0.013-0.002,0.022-0.005,0.028-0.009
					c0.009-0.006,0.015-0.014,0.019-0.02c0.004-0.006,0.006-0.016,0.006-0.027c0-0.018-0.004-0.028-0.014-0.037
					c-0.009-0.01-0.024-0.018-0.047-0.021c-0.009-0.002-0.02-0.005-0.034-0.008c-0.014-0.003-0.027-0.006-0.04-0.009
					c-0.031-0.009-0.054-0.023-0.068-0.042c-0.014-0.021-0.021-0.042-0.021-0.069c0-0.037,0.014-0.067,0.042-0.09
					c0.028-0.023,0.065-0.035,0.111-0.035c0.022,0,0.045,0.003,0.068,0.009c0.023,0.005,0.042,0.015,0.058,0.021V2.15h-0.004
					c-0.018-0.016-0.037-0.025-0.059-0.033c-0.021-0.008-0.043-0.014-0.065-0.014c-0.022,0-0.042,0.006-0.058,0.016
					c-0.016,0.01-0.023,0.022-0.023,0.043c0,0.018,0.005,0.03,0.014,0.039c0.009,0.009,0.024,0.015,0.044,0.021
					c0.01,0.003,0.022,0.005,0.035,0.009c0.012,0.004,0.025,0.007,0.04,0.01c0.03,0.007,0.053,0.02,0.068,0.038
					c0.015,0.018,0.023,0.042,0.023,0.07c0,0.02-0.003,0.034-0.011,0.052c-0.007,0.016-0.017,0.027-0.03,0.041
					c-0.015,0.012-0.031,0.021-0.05,0.026C20.12,2.473,20.099,2.472,20.071,2.472L20.071,2.472z"/>
				<path id="path3118" fill="#FFFFFF" d="M20.539,2.419c-0.006,0.004-0.013,0.01-0.022,0.02c-0.01,0.007-0.019,0.013-0.027,0.018
					c-0.012,0.006-0.024,0.011-0.036,0.015c-0.012,0.004-0.027,0.005-0.048,0.005c-0.017,0-0.033-0.003-0.048-0.009
					c-0.015-0.006-0.028-0.015-0.04-0.025c-0.011-0.013-0.02-0.025-0.026-0.042c-0.006-0.019-0.01-0.034-0.01-0.054
					c0-0.026,0.006-0.052,0.018-0.07c0.012-0.021,0.031-0.036,0.057-0.049c0.023-0.011,0.05-0.018,0.081-0.021
					S20.503,2.2,20.54,2.198V2.18c0-0.016-0.003-0.027-0.008-0.039c-0.005-0.01-0.012-0.018-0.021-0.021
					c-0.009-0.006-0.02-0.009-0.032-0.011c-0.012-0.002-0.025-0.002-0.039-0.002c-0.016,0-0.035,0.002-0.056,0.007
					c-0.021,0.005-0.043,0.012-0.064,0.021h-0.004v-0.07c0.013-0.005,0.031-0.009,0.055-0.014c0.024-0.004,0.047-0.006,0.07-0.006
					c0.028,0,0.052,0.002,0.071,0.006c0.019,0.005,0.037,0.015,0.052,0.024c0.015,0.009,0.026,0.024,0.033,0.043
					c0.007,0.018,0.011,0.04,0.011,0.063v0.28H20.54L20.539,2.419L20.539,2.419L20.539,2.419z M20.539,2.363V2.248
					c-0.017,0.001-0.037,0.003-0.063,0.006c-0.025,0.002-0.045,0.006-0.061,0.011c-0.018,0.007-0.033,0.015-0.045,0.026
					c-0.012,0.012-0.018,0.028-0.018,0.048c0,0.023,0.006,0.042,0.02,0.053c0.013,0.014,0.033,0.02,0.058,0.02
					c0.021,0,0.041-0.005,0.059-0.014C20.507,2.387,20.523,2.375,20.539,2.363L20.539,2.363z"/>
				<path id="path3120" fill="#FFFFFF" d="M20.789,2.462H20.72v-0.57h0.069V2.462z"/>
				<path id="path3122" fill="#FFFFFF" d="M21.627,2.462h-0.072v-0.47l-0.142,0.32h-0.044l-0.141-0.32v0.47H21.16V1.917h0.099
					l0.136,0.304l0.131-0.304h0.101V2.462L21.627,2.462z"/>
				<path id="path3124" fill="#FFFFFF" d="M22.066,2.462h-0.069V2.417c-0.021,0.019-0.042,0.033-0.061,0.042
					c-0.019,0.009-0.041,0.014-0.064,0.014c-0.018,0-0.034-0.003-0.05-0.009c-0.016-0.006-0.029-0.015-0.041-0.028
					c-0.012-0.013-0.021-0.026-0.027-0.048c-0.006-0.019-0.01-0.042-0.01-0.068V2.053h0.069v0.233c0,0.021,0.001,0.04,0.002,0.054
					c0.001,0.016,0.005,0.027,0.011,0.038c0.006,0.01,0.013,0.02,0.023,0.023c0.01,0.005,0.023,0.007,0.042,0.007
					c0.017,0,0.035-0.005,0.054-0.016c0.019-0.01,0.037-0.021,0.053-0.033V2.053h0.069L22.066,2.462L22.066,2.462L22.066,2.462z"/>
				<path id="path3126" fill="#FFFFFF" d="M22.251,2.462h-0.069v-0.57h0.069V2.462z"/>
				<path id="path3128" fill="#FFFFFF" d="M22.493,2.47c-0.038,0-0.067-0.011-0.088-0.03c-0.021-0.021-0.032-0.057-0.032-0.103
					V2.112h-0.046V2.053h0.046V1.936h0.069v0.118h0.127v0.058h-0.127v0.192c0,0.021,0,0.037,0.001,0.048
					c0,0.013,0.003,0.022,0.008,0.032c0.004,0.008,0.011,0.017,0.02,0.021c0.009,0.004,0.022,0.006,0.038,0.006
					c0.011,0,0.022-0.001,0.033-0.005c0.011-0.004,0.018-0.006,0.022-0.008h0.004V2.46c-0.013,0.003-0.026,0.006-0.04,0.009
					C22.516,2.469,22.504,2.47,22.493,2.47L22.493,2.47z"/>
				<path id="path3130" fill="#FFFFFF" d="M22.709,1.986h-0.078V1.913h0.078V1.986z M22.705,2.462h-0.069V2.053h0.069V2.462z"/>
				<path id="path3132" fill="#FFFFFF" d="M23.285,2.462V2.226c0-0.019,0-0.034-0.002-0.052c-0.002-0.016-0.004-0.026-0.009-0.038
					c-0.005-0.01-0.012-0.017-0.021-0.021c-0.009-0.005-0.021-0.007-0.037-0.007c-0.014,0-0.029,0.004-0.045,0.013
					c-0.016,0.009-0.033,0.021-0.05,0.038c0,0.004,0,0.009,0.001,0.015c0,0.006,0,0.015,0,0.021v0.269h-0.069V2.226
					c0-0.019-0.001-0.034-0.002-0.052c-0.001-0.016-0.004-0.026-0.009-0.038c-0.005-0.01-0.012-0.017-0.021-0.021
					C23.012,2.111,23,2.108,22.984,2.108c-0.015,0-0.03,0.005-0.047,0.014c-0.017,0.009-0.032,0.021-0.048,0.036v0.305H22.82v-0.41
					h0.069v0.045c0.018-0.018,0.036-0.03,0.054-0.042c0.018-0.01,0.037-0.015,0.059-0.015c0.024,0,0.045,0.006,0.064,0.017
					c0.019,0.013,0.033,0.029,0.042,0.056c0.021-0.023,0.041-0.041,0.061-0.055c0.02-0.012,0.041-0.018,0.064-0.018
					c0.017,0,0.033,0.003,0.048,0.008c0.014,0.005,0.027,0.016,0.038,0.027c0.011,0.012,0.02,0.028,0.025,0.046
					c0.005,0.018,0.009,0.042,0.009,0.07v0.269L23.285,2.462L23.285,2.462z"/>
				<path id="path3134" fill="#FFFFFF" d="M23.644,2.472c-0.065,0-0.116-0.019-0.152-0.055c-0.036-0.036-0.054-0.089-0.054-0.157
					c0-0.064,0.018-0.12,0.053-0.159c0.035-0.037,0.08-0.059,0.137-0.059c0.025,0,0.048,0.004,0.067,0.011
					c0.019,0.007,0.037,0.021,0.051,0.034c0.014,0.015,0.026,0.035,0.034,0.06c0.008,0.021,0.012,0.05,0.012,0.081v0.037h-0.283
					c0,0.05,0.012,0.084,0.036,0.109c0.024,0.025,0.057,0.038,0.099,0.038c0.015,0,0.03-0.002,0.044-0.005
					c0.015-0.003,0.028-0.008,0.04-0.015c0.013-0.005,0.023-0.011,0.031-0.016c0.009-0.005,0.016-0.01,0.021-0.015h0.004v0.075
					c-0.008,0.003-0.018,0.007-0.03,0.012c-0.012,0.004-0.023,0.008-0.032,0.011c-0.014,0.003-0.026,0.006-0.037,0.008
					C23.674,2.471,23.66,2.472,23.644,2.472L23.644,2.472z M23.724,2.212c0-0.019-0.003-0.035-0.007-0.048
					C23.713,2.151,23.708,2.139,23.7,2.13c-0.008-0.01-0.019-0.018-0.031-0.021c-0.012-0.007-0.028-0.01-0.046-0.01
					c-0.018,0-0.034,0.003-0.047,0.01c-0.013,0.005-0.024,0.014-0.035,0.022c-0.01,0.011-0.018,0.023-0.023,0.036
					c-0.005,0.013-0.009,0.028-0.01,0.045H23.724L23.724,2.212L23.724,2.212z"/>
				<path id="path3136" fill="#FFFFFF" d="M24.19,2.462h-0.069V2.421c-0.011,0.009-0.02,0.019-0.028,0.022
					c-0.008,0.006-0.017,0.011-0.027,0.016c-0.01,0.005-0.02,0.008-0.03,0.011C24.025,2.472,24.013,2.473,24,2.473
					c-0.022,0-0.043-0.004-0.062-0.014c-0.019-0.009-0.035-0.023-0.048-0.041c-0.014-0.018-0.024-0.041-0.031-0.067
					c-0.007-0.024-0.011-0.057-0.011-0.091c0-0.036,0.004-0.065,0.014-0.093c0.01-0.026,0.022-0.049,0.039-0.069
					c0.015-0.018,0.033-0.03,0.054-0.042c0.021-0.01,0.043-0.015,0.067-0.015c0.02,0,0.038,0.002,0.053,0.007
					c0.015,0.005,0.031,0.012,0.048,0.021V1.892h0.069v0.57H24.19z M24.122,2.364V2.127c-0.017-0.008-0.032-0.014-0.046-0.017
					c-0.013-0.003-0.028-0.005-0.044-0.005c-0.036,0-0.063,0.014-0.083,0.04c-0.02,0.024-0.03,0.063-0.03,0.113
					c0,0.048,0.008,0.085,0.023,0.11c0.016,0.024,0.04,0.038,0.074,0.038c0.018,0,0.036-0.004,0.055-0.012
					C24.088,2.388,24.105,2.377,24.122,2.364z"/>
				<path id="path3138" fill="#FFFFFF" d="M24.38,1.986h-0.079V1.913h0.079V1.986z M24.375,2.462h-0.069V2.053h0.069V2.462z"/>
				<path id="path3140" fill="#FFFFFF" d="M24.72,2.419c-0.006,0.004-0.013,0.01-0.022,0.02c-0.01,0.007-0.019,0.013-0.027,0.018
					c-0.012,0.006-0.024,0.011-0.036,0.015c-0.011,0.003-0.027,0.005-0.048,0.005c-0.017,0-0.033-0.003-0.048-0.009
					c-0.015-0.006-0.028-0.015-0.04-0.025c-0.011-0.013-0.02-0.025-0.026-0.042c-0.006-0.019-0.01-0.034-0.01-0.054
					c0-0.026,0.006-0.052,0.018-0.07c0.012-0.021,0.031-0.036,0.057-0.049c0.023-0.011,0.05-0.018,0.082-0.021
					c0.032-0.004,0.065-0.007,0.101-0.009V2.18c0-0.016-0.002-0.027-0.007-0.039c-0.005-0.01-0.012-0.018-0.021-0.021
					c-0.009-0.006-0.02-0.009-0.032-0.011c-0.012-0.002-0.026-0.002-0.04-0.002c-0.016,0-0.035,0.002-0.056,0.007
					c-0.021,0.005-0.043,0.012-0.064,0.021h-0.004v-0.07c0.013-0.005,0.031-0.009,0.055-0.014c0.024-0.004,0.047-0.006,0.07-0.006
					c0.028,0,0.052,0.002,0.071,0.006c0.019,0.005,0.037,0.015,0.052,0.024c0.015,0.011,0.026,0.024,0.033,0.043
					c0.007,0.018,0.011,0.04,0.011,0.063v0.28H24.72V2.419z M24.72,2.363V2.248c-0.017,0.001-0.037,0.003-0.062,0.006
					c-0.025,0.002-0.045,0.006-0.061,0.011c-0.018,0.008-0.033,0.016-0.045,0.026c-0.012,0.012-0.018,0.028-0.018,0.048
					c0,0.023,0.006,0.042,0.02,0.053c0.013,0.014,0.033,0.02,0.058,0.02c0.021,0,0.041-0.005,0.059-0.014
					C24.689,2.387,24.705,2.375,24.72,2.363z"/>
				<path id="path3142" fill="#FFFFFF" d="M25.623,2.462H25.55v-0.47l-0.142,0.32h-0.044l-0.141-0.32v0.47h-0.067V1.917h0.099
					l0.136,0.304l0.13-0.304h0.103L25.623,2.462L25.623,2.462L25.623,2.462z"/>
				<path id="path3144" fill="#FFFFFF" d="M25.971,2.419c-0.006,0.004-0.013,0.01-0.021,0.02c-0.011,0.007-0.021,0.013-0.027,0.018
					c-0.013,0.006-0.024,0.011-0.036,0.015c-0.011,0.004-0.027,0.005-0.048,0.005c-0.017,0-0.032-0.003-0.048-0.009
					c-0.016-0.006-0.027-0.015-0.04-0.025C25.74,2.429,25.73,2.416,25.725,2.4c-0.006-0.019-0.01-0.034-0.01-0.054
					c0-0.026,0.006-0.052,0.02-0.07c0.013-0.021,0.029-0.036,0.058-0.049c0.021-0.011,0.05-0.018,0.081-0.021
					c0.029-0.004,0.063-0.007,0.102-0.009V2.18c0-0.016-0.002-0.027-0.008-0.039c-0.005-0.01-0.013-0.018-0.021-0.021
					c-0.01-0.006-0.021-0.009-0.032-0.011c-0.013-0.002-0.024-0.002-0.039-0.002c-0.017,0-0.034,0.002-0.056,0.007
					c-0.021,0.005-0.045,0.012-0.063,0.021H25.75v-0.07c0.014-0.005,0.029-0.009,0.057-0.014c0.022-0.004,0.047-0.006,0.068-0.006
					c0.027,0,0.052,0.002,0.07,0.006c0.021,0.005,0.037,0.015,0.053,0.024c0.016,0.009,0.025,0.024,0.031,0.043
					c0.009,0.018,0.013,0.04,0.013,0.063v0.28h-0.067V2.419H25.971z M25.971,2.363V2.248c-0.016,0.001-0.037,0.003-0.062,0.006
					c-0.025,0.002-0.046,0.006-0.062,0.011c-0.018,0.007-0.033,0.015-0.045,0.026c-0.011,0.012-0.018,0.028-0.018,0.048
					c0,0.023,0.006,0.042,0.02,0.053c0.014,0.014,0.033,0.02,0.059,0.02c0.021,0,0.041-0.005,0.061-0.014
					C25.941,2.387,25.955,2.375,25.971,2.363L25.971,2.363z"/>
				<path id="path3146" fill="#FFFFFF" d="M26.473,2.462h-0.068V2.23c0-0.021-0.002-0.036-0.004-0.055
					c0-0.016-0.004-0.027-0.01-0.039c-0.006-0.01-0.014-0.018-0.021-0.021c-0.007-0.003-0.021-0.008-0.041-0.008
					c-0.02,0-0.035,0.005-0.055,0.014c-0.019,0.009-0.035,0.021-0.053,0.036v0.305h-0.07V2.053h0.068v0.045
					c0.021-0.018,0.041-0.03,0.063-0.042c0.02-0.01,0.041-0.015,0.063-0.015c0.041,0,0.071,0.013,0.096,0.04
					c0.021,0.026,0.033,0.065,0.033,0.115v0.266H26.473L26.473,2.462z"/>
				<path id="path3148" fill="#FFFFFF" d="M26.813,2.419c-0.006,0.004-0.013,0.01-0.021,0.02c-0.01,0.007-0.021,0.013-0.026,0.018
					c-0.014,0.006-0.023,0.011-0.037,0.015c-0.012,0-0.029,0.001-0.049,0.001c-0.017,0-0.033-0.003-0.048-0.009
					c-0.015-0.006-0.028-0.015-0.04-0.025c-0.011-0.013-0.02-0.025-0.025-0.042c-0.006-0.019-0.01-0.034-0.01-0.054
					c0-0.026,0.006-0.052,0.02-0.07c0.012-0.021,0.029-0.036,0.057-0.049c0.021-0.011,0.051-0.018,0.081-0.021
					c0.031-0.003,0.063-0.007,0.103-0.009V2.18c0-0.016-0.002-0.027-0.008-0.039c-0.006-0.01-0.013-0.018-0.021-0.021
					c-0.01-0.006-0.021-0.009-0.032-0.011c-0.011-0.002-0.024-0.002-0.04-0.002c-0.016,0-0.031,0.002-0.055,0.007
					c-0.024,0.005-0.043,0.012-0.063,0.021H26.59v-0.07c0.012-0.005,0.03-0.009,0.055-0.014c0.023-0.004,0.047-0.006,0.069-0.006
					c0.028,0,0.052,0.002,0.071,0.006c0.02,0.005,0.037,0.015,0.052,0.024c0.015,0.009,0.026,0.024,0.034,0.043
					c0.007,0.018,0.01,0.04,0.01,0.063v0.28h-0.068V2.419L26.813,2.419z M26.813,2.363V2.248c-0.016,0.001-0.037,0.003-0.062,0.006
					c-0.024,0.002-0.046,0.006-0.062,0.011c-0.02,0.008-0.033,0.016-0.045,0.026c-0.014,0.012-0.02,0.028-0.02,0.048
					c0,0.023,0.006,0.042,0.021,0.053c0.014,0.014,0.033,0.02,0.059,0.02c0.021,0,0.041-0.005,0.059-0.014
					C26.782,2.387,26.797,2.375,26.813,2.363L26.813,2.363z"/>
				<path id="path3150" fill="#FFFFFF" d="M27.008,2.529c0.004,0.001,0.012,0.004,0.021,0.008c0.009,0.003,0.019,0.006,0.029,0.009
					c0.015,0.003,0.024,0.005,0.034,0.007c0.013,0.002,0.023,0.003,0.035,0.003c0.021,0,0.039-0.002,0.056-0.008
					c0.016-0.005,0.024-0.013,0.033-0.021c0.01-0.012,0.016-0.021,0.018-0.035c0.004-0.015,0.006-0.028,0.006-0.045V2.408
					c-0.02,0.016-0.036,0.026-0.055,0.036c-0.02,0.008-0.041,0.012-0.067,0.012c-0.046,0-0.083-0.018-0.111-0.052
					c-0.026-0.035-0.041-0.084-0.041-0.149c0-0.034,0.005-0.063,0.015-0.09c0.011-0.027,0.022-0.049,0.039-0.067
					c0.017-0.018,0.032-0.029,0.056-0.041c0.021-0.009,0.043-0.014,0.063-0.014c0.021,0,0.041,0.002,0.055,0.008
					c0.018,0.005,0.031,0.014,0.049,0.021l0.004-0.02h0.064v0.363c0,0.069-0.017,0.12-0.047,0.153
					c-0.029,0.03-0.076,0.048-0.139,0.048c-0.021,0-0.04-0.001-0.063-0.004c-0.021-0.003-0.041-0.008-0.06-0.015v-0.07h0.006V2.529z
					 M27.238,2.351V2.127c-0.016-0.008-0.031-0.014-0.047-0.018c-0.016-0.003-0.029-0.005-0.043-0.005
					c-0.035,0-0.063,0.013-0.082,0.037c-0.021,0.025-0.03,0.063-0.03,0.11c0,0.045,0.007,0.08,0.022,0.104
					c0.016,0.021,0.039,0.033,0.072,0.033c0.02,0,0.037-0.003,0.057-0.01C27.207,2.374,27.225,2.365,27.238,2.351z"/>
				<path id="path3152" fill="#FFFFFF" d="M27.6,2.472c-0.063,0-0.115-0.019-0.149-0.055c-0.036-0.036-0.056-0.089-0.056-0.157
					c0-0.064,0.02-0.12,0.055-0.159c0.033-0.037,0.078-0.059,0.137-0.059c0.023,0,0.048,0.004,0.066,0.011
					c0.02,0.007,0.035,0.021,0.052,0.034c0.015,0.015,0.024,0.035,0.032,0.06c0.01,0.021,0.014,0.05,0.014,0.081v0.037h-0.283
					c0,0.05,0.014,0.084,0.035,0.109c0.023,0.025,0.059,0.038,0.102,0.038c0.016,0,0.027-0.002,0.045-0.005
					c0.014-0.003,0.025-0.008,0.039-0.015c0.012-0.005,0.021-0.011,0.029-0.016c0.01-0.005,0.018-0.01,0.021-0.015h0.005v0.075
					c-0.009,0.003-0.019,0.007-0.03,0.012c-0.012,0.004-0.021,0.008-0.031,0.011c-0.015,0.003-0.024,0.006-0.037,0.008
					C27.632,2.471,27.617,2.472,27.6,2.472z M27.682,2.212c-0.002-0.019-0.004-0.035-0.008-0.048
					c-0.004-0.014-0.01-0.025-0.017-0.034c-0.009-0.01-0.019-0.018-0.03-0.021c-0.014-0.007-0.029-0.01-0.047-0.01
					c-0.02,0-0.034,0.003-0.047,0.01c-0.014,0.004-0.024,0.013-0.035,0.022c-0.01,0.011-0.018,0.023-0.023,0.036
					c-0.004,0.013-0.009,0.028-0.01,0.045H27.682L27.682,2.212L27.682,2.212z"/>
				<path id="path3154" fill="#FFFFFF" d="M28.297,2.462V2.226c0-0.019-0.001-0.034-0.002-0.052
					c-0.002-0.016-0.005-0.026-0.01-0.038c-0.004-0.01-0.012-0.017-0.021-0.021c-0.009-0.005-0.021-0.007-0.035-0.007
					c-0.016,0-0.028,0.004-0.047,0.013c-0.017,0.009-0.033,0.021-0.051,0.038c0.001,0.004,0.001,0.009,0.001,0.015
					c0,0.006,0,0.015,0,0.021v0.269h-0.067V2.226c0-0.019,0-0.034-0.002-0.052c-0.002-0.016-0.004-0.026-0.011-0.038
					c-0.004-0.01-0.012-0.017-0.021-0.021c-0.01-0.005-0.021-0.007-0.036-0.007c-0.015,0-0.031,0.005-0.047,0.014
					c-0.017,0.009-0.033,0.021-0.048,0.036v0.305h-0.069v-0.41H27.9v0.045c0.019-0.018,0.035-0.03,0.054-0.042
					c0.019-0.01,0.037-0.015,0.06-0.015c0.023,0,0.045,0.006,0.063,0.017c0.019,0.013,0.032,0.029,0.042,0.056
					c0.021-0.023,0.041-0.041,0.063-0.055c0.021-0.012,0.041-0.018,0.063-0.018c0.019,0,0.032,0.003,0.047,0.008
					c0.017,0.005,0.026,0.016,0.039,0.027c0.01,0.012,0.019,0.028,0.024,0.046c0.006,0.019,0.008,0.042,0.008,0.07v0.269
					L28.297,2.462L28.297,2.462L28.297,2.462z"/>
				<path id="path3156" fill="#FFFFFF" d="M28.654,2.472c-0.064,0-0.115-0.019-0.151-0.055c-0.036-0.036-0.054-0.089-0.054-0.157
					c0-0.064,0.018-0.12,0.053-0.159c0.035-0.037,0.08-0.059,0.137-0.059c0.025,0,0.049,0.004,0.067,0.011
					c0.018,0.007,0.036,0.021,0.051,0.034c0.015,0.013,0.026,0.035,0.034,0.06c0.008,0.021,0.012,0.05,0.012,0.081v0.037H28.52
					c0,0.05,0.014,0.084,0.035,0.109c0.024,0.025,0.057,0.038,0.1,0.038c0.018,0,0.029-0.002,0.047-0.005
					c0.014-0.003,0.025-0.008,0.037-0.015c0.014-0.005,0.023-0.011,0.031-0.016c0.01-0.005,0.018-0.01,0.021-0.015h0.004v0.075
					c-0.008,0.003-0.018,0.007-0.029,0.012c-0.013,0.004-0.021,0.008-0.033,0.011c-0.014,0.003-0.023,0.006-0.034,0.008
					C28.686,2.471,28.672,2.472,28.654,2.472z M28.734,2.212c0-0.019-0.002-0.035-0.006-0.048c-0.004-0.014-0.012-0.025-0.019-0.034
					c-0.008-0.01-0.021-0.018-0.028-0.021c-0.016-0.007-0.029-0.01-0.049-0.01c-0.02,0-0.032,0.003-0.045,0.009
					c-0.014,0.005-0.024,0.014-0.035,0.022c-0.01,0.011-0.018,0.023-0.022,0.036c-0.006,0.013-0.01,0.028-0.01,0.045L28.734,2.212
					L28.734,2.212L28.734,2.212z"/>
				<path id="path3158" fill="#FFFFFF" d="M29.209,2.462h-0.068V2.23c0-0.021-0.002-0.036-0.004-0.055
					c-0.002-0.016-0.005-0.027-0.01-0.039c-0.006-0.01-0.014-0.018-0.023-0.021c-0.008-0.005-0.021-0.008-0.041-0.008
					c-0.018,0-0.035,0.006-0.053,0.015c-0.02,0.009-0.037,0.021-0.054,0.036v0.305h-0.069v-0.41h0.069v0.045
					c0.021-0.018,0.04-0.03,0.062-0.042c0.021-0.01,0.041-0.015,0.063-0.015c0.041,0,0.071,0.013,0.095,0.04
					c0.022,0.026,0.034,0.065,0.034,0.115L29.209,2.462L29.209,2.462z"/>
				<path id="path3160" fill="#FFFFFF" d="M29.443,2.47c-0.037,0-0.066-0.011-0.088-0.03c-0.021-0.021-0.031-0.057-0.031-0.103
					V2.112h-0.047V2.053h0.047V1.936h0.068v0.118h0.127v0.058h-0.127v0.192c0,0.021,0.002,0.037,0.002,0.048
					c0,0.013,0.004,0.022,0.008,0.032c0.005,0.008,0.012,0.017,0.021,0.021c0.009,0.004,0.02,0.005,0.037,0.005
					c0.013,0,0.021-0.001,0.033-0.005c0.01-0.003,0.019-0.006,0.021-0.008h0.004v0.062c-0.013,0.003-0.024,0.006-0.039,0.009
					C29.467,2.469,29.455,2.47,29.443,2.47z"/>
				<path id="path3162" fill="#FFFFFF" d="M29.993,2.472c-0.04,0-0.073-0.004-0.101-0.013c-0.029-0.008-0.057-0.018-0.078-0.03
					v-0.09h0.004c0.023,0.022,0.052,0.04,0.082,0.052c0.029,0.014,0.06,0.02,0.088,0.02c0.039,0,0.07-0.008,0.09-0.025
					c0.021-0.017,0.031-0.039,0.031-0.064c0-0.022-0.006-0.04-0.018-0.055c-0.012-0.014-0.027-0.022-0.052-0.028
					c-0.019-0.005-0.032-0.011-0.046-0.014c-0.016-0.003-0.031-0.007-0.055-0.013c-0.019-0.005-0.033-0.011-0.051-0.019
					c-0.015-0.009-0.027-0.019-0.039-0.029c-0.012-0.01-0.02-0.026-0.024-0.042c-0.004-0.016-0.011-0.035-0.011-0.056
					c0-0.044,0.019-0.081,0.053-0.111C29.9,1.924,29.943,1.909,30,1.909c0.027,0,0.061,0.003,0.086,0.009
					c0.025,0.006,0.055,0.015,0.076,0.026v0.087h-0.006c-0.02-0.018-0.039-0.03-0.066-0.042c-0.025-0.014-0.056-0.02-0.086-0.02
					c-0.031,0-0.063,0.008-0.082,0.023c-0.02,0.015-0.029,0.037-0.029,0.062c0,0.023,0.006,0.042,0.02,0.057
					c0.012,0.014,0.029,0.022,0.053,0.028C29.982,2.143,30,2.15,30.023,2.155c0.021,0.005,0.041,0.01,0.057,0.014
					c0.038,0.012,0.064,0.029,0.082,0.052c0.018,0.023,0.025,0.054,0.025,0.085c0,0.021-0.004,0.042-0.014,0.063
					c-0.009,0.021-0.021,0.039-0.037,0.053c-0.018,0.018-0.037,0.028-0.059,0.037C30.055,2.468,30.025,2.472,29.993,2.472z"/>
				<path id="path3164" fill="#FFFFFF" d="M30.579,2.053l-0.22,0.562h-0.074l0.074-0.17L30.21,2.053h0.075l0.111,0.305l0.109-0.305
					H30.579z"/>
				<path id="path3166" fill="#FFFFFF" d="M30.757,2.472c-0.026,0-0.053-0.004-0.077-0.011c-0.021-0.007-0.043-0.015-0.059-0.021
					V2.362h0.004c0.006,0.004,0.012,0.01,0.021,0.015c0.008,0.006,0.019,0.012,0.029,0.018c0.014,0.007,0.024,0.012,0.039,0.017
					c0.016,0.004,0.028,0.006,0.044,0.006c0.013,0,0.022-0.001,0.035-0.004c0.013-0.002,0.021-0.005,0.026-0.009
					c0.01-0.006,0.016-0.014,0.02-0.02c0.006-0.006,0.008-0.016,0.008-0.027c0-0.018-0.007-0.028-0.016-0.037
					C30.822,2.31,30.808,2.303,30.783,2.3c-0.009-0.002-0.021-0.005-0.033-0.008c-0.017-0.003-0.026-0.006-0.04-0.009
					c-0.029-0.009-0.054-0.023-0.066-0.042c-0.016-0.021-0.021-0.042-0.021-0.069c0-0.037,0.016-0.067,0.041-0.09
					c0.027-0.023,0.064-0.035,0.109-0.035c0.023,0,0.045,0.003,0.068,0.009c0.023,0.005,0.043,0.015,0.059,0.021V2.15h-0.004
					c-0.018-0.016-0.037-0.025-0.059-0.033c-0.022-0.008-0.044-0.014-0.066-0.014c-0.021,0-0.041,0.006-0.057,0.016
					c-0.016,0.01-0.023,0.022-0.023,0.043c0,0.018,0.006,0.03,0.016,0.039c0.01,0.009,0.021,0.015,0.045,0.021
					c0.012,0.003,0.021,0.005,0.034,0.009c0.013,0.004,0.024,0.007,0.04,0.01c0.027,0.007,0.053,0.02,0.066,0.038
					c0.017,0.018,0.022,0.042,0.022,0.07c0,0.02-0.003,0.034-0.011,0.052c-0.008,0.016-0.018,0.027-0.03,0.041
					c-0.015,0.012-0.03,0.021-0.05,0.026C30.809,2.469,30.785,2.472,30.757,2.472z"/>
				<path id="path3168" fill="#FFFFFF" d="M31.119,2.47c-0.037,0-0.066-0.011-0.088-0.03C31.012,2.417,31,2.383,31,2.337V2.112
					h-0.046V2.053H31V1.936h0.068v0.118h0.127v0.058h-0.127v0.192c0,0.021,0.002,0.037,0.002,0.048c0,0.013,0.004,0.022,0.008,0.032
					c0.005,0.008,0.012,0.017,0.021,0.021c0.008,0.004,0.021,0.006,0.037,0.006c0.012,0,0.021-0.001,0.031-0.005
					c0.012-0.003,0.02-0.006,0.021-0.008h0.004V2.46c-0.012,0.003-0.024,0.006-0.039,0.009C31.143,2.469,31.131,2.47,31.119,2.47z"
					/>
				<path id="path3170" fill="#FFFFFF" d="M31.439,2.472c-0.065,0-0.115-0.019-0.152-0.055c-0.035-0.037-0.055-0.089-0.055-0.157
					c0-0.064,0.019-0.12,0.054-0.159c0.034-0.037,0.081-0.059,0.137-0.059c0.025,0,0.048,0.004,0.067,0.011
					c0.019,0.007,0.037,0.021,0.051,0.034c0.016,0.016,0.025,0.035,0.034,0.06c0.008,0.021,0.012,0.05,0.012,0.081v0.037h-0.282
					c0,0.05,0.012,0.084,0.035,0.109c0.023,0.025,0.057,0.038,0.1,0.038c0.016,0,0.029-0.002,0.045-0.005
					c0.016-0.003,0.027-0.008,0.039-0.015c0.014-0.005,0.021-0.011,0.031-0.016c0.008-0.005,0.016-0.01,0.021-0.015h0.004v0.075
					c-0.008,0.003-0.02,0.007-0.03,0.012c-0.012,0.004-0.021,0.008-0.03,0.011c-0.015,0.003-0.024,0.006-0.037,0.008
					C31.471,2.47,31.456,2.472,31.439,2.472z M31.52,2.212c0-0.019-0.002-0.035-0.006-0.048c-0.004-0.014-0.01-0.025-0.018-0.034
					c-0.008-0.01-0.018-0.018-0.03-0.021c-0.012-0.007-0.028-0.01-0.047-0.01c-0.019,0-0.034,0.003-0.047,0.01
					c-0.013,0.005-0.024,0.014-0.034,0.022c-0.011,0.011-0.02,0.023-0.023,0.036c-0.006,0.013-0.01,0.028-0.01,0.045H31.52
					L31.52,2.212L31.52,2.212z"/>
				<path id="path3172" fill="#FFFFFF" d="M32.137,2.462V2.226c0-0.019-0.002-0.034-0.003-0.052
					c-0.001-0.016-0.005-0.026-0.009-0.038c-0.006-0.01-0.012-0.017-0.021-0.021c-0.008-0.005-0.021-0.007-0.035-0.007
					c-0.016,0-0.029,0.004-0.047,0.013c-0.016,0.009-0.033,0.021-0.051,0.038c0.002,0.004,0.002,0.009,0.002,0.015
					c0,0.006,0,0.015,0,0.021v0.269h-0.068V2.226c0-0.019,0-0.034-0.002-0.052c-0.002-0.016-0.006-0.026-0.01-0.038
					c-0.004-0.01-0.012-0.017-0.021-0.021c-0.009-0.005-0.021-0.007-0.036-0.007c-0.015,0-0.029,0.005-0.047,0.014
					c-0.018,0.009-0.032,0.021-0.048,0.036v0.305h-0.068v-0.41h0.068v0.045c0.019-0.018,0.036-0.03,0.054-0.042
					c0.02-0.01,0.038-0.015,0.059-0.015c0.024,0,0.047,0.006,0.064,0.017c0.02,0.013,0.032,0.029,0.042,0.056
					C31.98,2.091,32,2.073,32.021,2.06c0.021-0.012,0.041-0.018,0.063-0.018c0.019,0,0.033,0.003,0.048,0.008
					c0.016,0.005,0.027,0.016,0.037,0.027c0.012,0.012,0.02,0.028,0.025,0.046c0.005,0.018,0.01,0.042,0.01,0.07v0.269H32.137
					L32.137,2.462z"/>
			</g>
			<path id="path3174" fill="#FFFFFF" d="M47.141,0.547c-0.209,0-0.379,0.17-0.379,0.38s0.17,0.38,0.379,0.38
				c0.211,0,0.381-0.17,0.381-0.38S47.352,0.547,47.141,0.547z M47.141,1.182c-0.141,0-0.254-0.112-0.254-0.255
				c0-0.141,0.113-0.255,0.254-0.255c0.143,0,0.256,0.115,0.256,0.255C47.396,1.068,47.281,1.182,47.141,1.182L47.141,1.182z"/>
			<path id="path3176" fill="#FFFFFF" d="M48.078,0.547c-0.21,0-0.38,0.17-0.38,0.38s0.17,0.38,0.38,0.38
				c0.21,0,0.381-0.17,0.381-0.38S48.288,0.547,48.078,0.547z M48.078,1.182c-0.141,0-0.255-0.112-0.255-0.255
				c0-0.141,0.114-0.255,0.255-0.255c0.141,0,0.256,0.115,0.256,0.255C48.334,1.068,48.219,1.182,48.078,1.182z"/>
			<path id="path3178" fill="#FFFFFF" d="M46.203,0.547c-0.21,0-0.38,0.17-0.38,0.38s0.17,0.38,0.38,0.38
				c0.21,0,0.381-0.17,0.381-0.38S46.413,0.547,46.203,0.547z M46.203,1.182c-0.141,0-0.255-0.112-0.255-0.255
				c0-0.141,0.114-0.255,0.255-0.255c0.141,0,0.256,0.115,0.256,0.255C46.459,1.068,46.344,1.182,46.203,1.182z"/>
			<path id="path3180" fill="#FFFFFF" d="M49.016,0.547c-0.209,0-0.379,0.17-0.379,0.38s0.17,0.38,0.379,0.38
				c0.211,0,0.381-0.17,0.381-0.38S49.227,0.547,49.016,0.547z M49.016,1.182c-0.141,0-0.254-0.112-0.254-0.255
				c0-0.141,0.113-0.255,0.254-0.255c0.143,0,0.256,0.115,0.256,0.255C49.271,1.068,49.156,1.182,49.016,1.182z"/>
			<path id="path3182" fill="#FFFFFF" d="M2.216,1.734l0.021-0.011l0.058-0.026l0.085-0.05l0.105-0.073l0.097-0.082l0.067-0.065
				l0.071-0.08l0.078-0.104l0.068-0.111l0.032-0.061l0.033-0.073l0.041,0.061l0.035,0.063l0.031,0.063L3.063,1.25l0.02,0.068
				l0.014,0.068l0.009,0.073l0.003,0.075L3.105,1.618l-0.01,0.077l-0.018,0.08L3.052,1.85L3.023,1.919L2.986,1.99L2.942,2.054
				L2.897,2.115L2.843,2.171L2.78,2.227L2.72,2.273L2.656,2.314L2.644,2.321L2.629,2.327L2.61,2.336L2.588,2.344L2.562,2.352
				L2.535,2.359L2.52,2.361L2.505,2.363L2.513,2.37l0.024,0.021L2.57,2.427l0.04,0.05l0.04,0.062l0.021,0.037l0.02,0.04l0.024,0.061
				l0.018,0.06L2.74,2.765l0.006,0.032L2.748,2.79l0.004-0.009l0.006-0.013l0.008-0.012l0.01-0.013l0.023-0.026l0.026-0.023
				l0.045-0.04l0.021-0.017l0.115-0.086L3.077,2.49l0.07-0.07l0.081-0.094l0.057-0.078l0.052-0.087l0.051-0.104l0.038-0.095
				l0.03-0.099L3.48,1.749l0.013-0.105l0.004-0.107l-0.006-0.12L3.476,1.302L3.459,1.228l-0.02-0.071L3.401,1.049L3.354,0.948
				L3.318,0.883L3.279,0.822l-0.07-0.097L3.13,0.638L3.083,0.592l-0.05-0.043L2.938,0.478l-0.1-0.063l-0.059-0.03L2.718,0.358
				L2.693,0.49L2.656,0.62L2.632,0.689L2.603,0.758L2.544,0.875L2.49,0.964L2.435,1.042L2.352,1.139L2.283,1.208L2.234,1.249
				L2.217,1.263L2.199,1.249L2.15,1.208L2.081,1.139L1.999,1.042L1.926,0.938L1.878,0.857L1.831,0.759L1.782,0.636L1.744,0.507
				L1.729,0.439L1.715,0.358L1.614,0.406l-0.101,0.06L1.458,0.503L1.4,0.549L1.313,0.628L1.234,0.715L1.192,0.766L1.154,0.822
				l-0.061,0.1L1.044,1.023L1.018,1.084L0.994,1.156L0.965,1.265L0.946,1.378L0.939,1.456L0.937,1.534l0.005,0.123l0.014,0.104
				l0.022,0.104L1.01,1.969l0.038,0.097l0.049,0.096L1.158,2.26l0.06,0.082L1.286,2.42l0.095,0.092l0.078,0.065l0.083,0.061
				l0.02,0.018l0.046,0.039l0.025,0.022l0.023,0.026L1.67,2.761l0.008,0.015l0.005,0.01L1.685,2.79l0.002,0.006l0.011-0.059
				l0.018-0.061l0.012-0.029l0.014-0.033l0.031-0.063l0.025-0.04l0.025-0.036l0.04-0.05L1.896,2.39l0.023-0.02l0.009-0.009
				L1.906,2.36L1.889,2.357L1.871,2.352L1.845,2.344L1.823,2.336L1.804,2.327L1.79,2.321L1.777,2.314L1.705,2.267l-0.06-0.046
				L1.59,2.171L1.533,2.11L1.488,2.051L1.447,1.99L1.41,1.919L1.381,1.85L1.356,1.775L1.338,1.696l-0.01-0.078L1.324,1.533
				l0.003-0.075l0.009-0.072L1.35,1.317L1.37,1.25l0.025-0.066l0.03-0.063L1.46,1.057l0.041-0.061l0.057,0.119l0.068,0.111
				l0.041,0.06l0.046,0.06l0.086,0.096l0.076,0.07l0.074,0.062l0.104,0.074l0.085,0.049C2.138,1.697,2.195,1.724,2.216,1.734z"/>
			<path id="path3184" fill="#FFFFFF" d="M49.375,0H0.625C0.28,0,0,0.281,0,0.625V3h9.023c1.631,0,2.875,0.51,3.509,1.438H25h12.468
				C38.102,3.51,39.346,3,40.977,3H50V0.625C50,0.281,49.721,0,49.375,0z M3.523,1.647L3.511,1.753L3.486,1.87l-0.03,0.102
				L3.417,2.071L3.365,2.175L3.311,2.264l-0.058,0.08L3.17,2.441l-0.071,0.07L3.026,2.575L2.889,2.678L2.821,2.74L2.775,2.804
				L2.736,2.923L2.702,2.74L2.685,2.683L2.672,2.652c-0.14,0.058-0.294,0.09-0.455,0.09c-0.162,0-0.315-0.033-0.456-0.09
				L1.757,2.658l-0.011,0.03L1.729,2.745L1.696,2.918l-0.051-0.14l-0.034-0.04L1.587,2.714L1.523,2.662l-0.082-0.06l-0.08-0.064
				L1.265,2.443l-0.07-0.081L1.131,2.278L1.069,2.177l-0.05-0.099L0.98,1.981L0.947,1.873L0.925,1.769L0.911,1.661L0.905,1.536
				l0.002-0.081l0.007-0.079L0.933,1.26l0.029-0.111l0.025-0.073l0.026-0.064l0.05-0.102l0.063-0.104l0.04-0.056l0.042-0.053
				L1.29,0.608l0.089-0.082l0.06-0.049L1.495,0.44l0.104-0.063l0.14-0.067L1.76,0.433l0.002,0.013c0.14-0.06,0.293-0.09,0.455-0.09
				c0.16,0,0.313,0.03,0.453,0.09l0.025-0.135l0.097,0.047l0.061,0.029l0.102,0.064l0.097,0.073L3.103,0.57l0.049,0.047l0.08,0.089
				l0.072,0.097l0.041,0.064l0.037,0.064L3.43,1.036l0.039,0.106L3.49,1.219l0.017,0.077l0.016,0.117l0.006,0.121L3.523,1.647z
				 M36.813,3.688H25H13.188c-0.345,0-0.625-0.28-0.625-0.625V0.188h24.875v2.875C37.438,3.407,37.158,3.688,36.813,3.688z
				 M49.563,0.946c0,0.271-0.221,0.492-0.492,0.492H46.18c-0.271,0-0.492-0.222-0.492-0.492V0.929c0-0.271,0.223-0.49,0.492-0.49
				h2.891c0.271,0,0.492,0.22,0.492,0.49V0.946z"/>
		</g>
		<g id="g3186">
			<path id="path3188" fill="#FFFFFF" d="M13.962,14.966v-6.79c0-0.509-0.441-0.948-1.002-0.948H8.069
				c-0.54,0-0.978,0.432-0.978,0.948v6.79c0,0.538,0.451,0.969,0.969,0.969h4.908C13.505,15.935,13.962,15.495,13.962,14.966
				L13.962,14.966z M12.969,15.698H8.061c-0.389,0-0.732-0.322-0.732-0.732v-6.79c0-0.385,0.333-0.711,0.741-0.711h4.891
				c0.376,0,0.765,0.3,0.765,0.711v6.79C13.725,15.363,13.372,15.698,12.969,15.698z"/>
			<path id="path3190" fill="#FFFFFF" d="M12.455,9.39c-0.641,0-3.204,0-3.845,0c-0.232,0-0.296,0.064-0.296,0.303
				c0,1.275,0,2.554,0,3.831c0,0.235,0.062,0.3,0.297,0.3c1.282,0,2.563,0,3.845,0c0.224,0,0.286-0.062,0.286-0.28
				c0-1.291,0-2.582,0-3.873C12.742,9.451,12.678,9.39,12.455,9.39z M9.165,13.423c0,0.046-0.038,0.084-0.084,0.084H8.716
				c-0.046,0-0.084-0.038-0.084-0.084v-0.365c0-0.046,0.038-0.084,0.084-0.084h0.365c0.046,0,0.084,0.038,0.084,0.084V13.423z
				 M9.165,12.594c0,0.046-0.038,0.084-0.084,0.084H8.716c-0.046,0-0.084-0.038-0.084-0.084v-0.363c0-0.048,0.038-0.084,0.084-0.084
				h0.365c0.046,0,0.084,0.036,0.084,0.084V12.594z M9.165,11.764c0,0.047-0.038,0.084-0.084,0.084H8.716
				c-0.046,0-0.084-0.038-0.084-0.084v-0.362c0-0.046,0.038-0.084,0.084-0.084h0.365c0.046,0,0.084,0.038,0.084,0.084V11.764z
				 M9.165,10.994c0,0.046-0.038,0.084-0.084,0.084H8.716c-0.046,0-0.084-0.038-0.084-0.084v-0.365c0-0.046,0.038-0.084,0.084-0.084
				h0.365c0.046,0,0.084,0.038,0.084,0.084V10.994z M9.165,10.165c0,0.046-0.038,0.084-0.084,0.084H8.716
				c-0.046,0-0.084-0.038-0.084-0.084V9.801c0-0.046,0.038-0.084,0.084-0.084h0.365c0.046,0,0.084,0.038,0.084,0.084V10.165
				L9.165,10.165z M11.307,11.712c-0.444,0.266-0.888,0.532-1.335,0.792c-0.133,0.077-0.188,0.001-0.188-0.129
				c-0.002-0.259-0.002-1.284,0-1.537c0.001-0.152,0.075-0.196,0.206-0.12c0.441,0.259,0.882,0.521,1.32,0.785
				C11.414,11.567,11.414,11.649,11.307,11.712z M12.422,13.423c0,0.046-0.038,0.084-0.084,0.084h-0.365
				c-0.046,0-0.084-0.038-0.084-0.084v-0.365c0-0.046,0.038-0.084,0.084-0.084h0.365c0.046,0,0.084,0.038,0.084,0.084V13.423z
				 M12.422,12.594c0,0.046-0.038,0.084-0.084,0.084h-0.365c-0.046,0-0.084-0.038-0.084-0.084v-0.363
				c0-0.048,0.038-0.084,0.084-0.084h0.365c0.046,0,0.084,0.036,0.084,0.084V12.594z M12.422,11.764
				c0,0.047-0.038,0.084-0.084,0.084h-0.365c-0.046,0-0.084-0.038-0.084-0.084v-0.362c0-0.046,0.038-0.084,0.084-0.084h0.365
				c0.046,0,0.084,0.038,0.084,0.084V11.764z M12.422,10.994c0,0.046-0.038,0.084-0.084,0.084h-0.365
				c-0.046,0-0.084-0.038-0.084-0.084v-0.365c0-0.046,0.038-0.084,0.084-0.084h0.365c0.046,0,0.084,0.038,0.084,0.084V10.994z
				 M12.422,10.165c0,0.046-0.038,0.084-0.084,0.084h-0.365c-0.046,0-0.084-0.038-0.084-0.084V9.801
				c0-0.046,0.038-0.084,0.084-0.084h0.365c0.046,0,0.084,0.038,0.084,0.084V10.165L12.422,10.165z"/>
		</g>
		<g id="g3192">
			<path id="path3194" fill="#FFFFFF" d="M9.138,17.592c-0.001,0-0.001-0.001-0.001-0.003l-0.001-0.001l-0.339-0.807
				c-0.006-0.017,0.001-0.034,0.016-0.04c0.015-0.007,0.034,0,0.04,0.015l0.313,0.745l0.314-0.745
				c0.005-0.015,0.024-0.021,0.039-0.015c0.015,0.006,0.022,0.023,0.017,0.04l-0.339,0.8c-0.001,0.011-0.008,0.021-0.018,0.025
				H9.177c-0.003,0.001-0.007,0.002-0.011,0.002c-0.003,0-0.009,0-0.011-0.001c-0.001,0-0.001-0.001-0.001-0.001
				C9.146,17.605,9.141,17.599,9.138,17.592z"/>
			<path id="path3196" fill="#FFFFFF" d="M9.75,16.826c0-0.018,0.014-0.03,0.03-0.03c0.018,0,0.031,0.014,0.031,0.03v0.029
				c0,0.018-0.014,0.031-0.031,0.031c-0.017,0-0.03-0.015-0.03-0.031V16.826z M9.75,17.027c0-0.02,0.014-0.03,0.03-0.03
				c0.018,0,0.031,0.012,0.031,0.03v0.553c0,0.016-0.014,0.03-0.031,0.03c-0.017,0-0.03-0.016-0.03-0.03V17.027z"/>
			<path id="path3198" fill="#FFFFFF" d="M10.591,17.49c-0.054,0.072-0.139,0.119-0.235,0.119c-0.165,0-0.296-0.139-0.296-0.307
				c0-0.17,0.131-0.308,0.296-0.308c0.097,0,0.182,0.047,0.235,0.12V16.76c0-0.016,0.014-0.028,0.031-0.028
				c0.016,0,0.03,0.014,0.03,0.028v0.528v0.013v0.275c0,0.016-0.014,0.03-0.03,0.03c-0.018,0-0.031-0.016-0.031-0.03V17.49z
				 M10.591,17.315v-0.021c-0.005-0.131-0.109-0.236-0.235-0.236c-0.128,0-0.235,0.11-0.235,0.246c0,0.137,0.106,0.244,0.235,0.244
				C10.482,17.548,10.586,17.445,10.591,17.315z"/>
			<path id="path3200" fill="#FFFFFF" d="M10.863,17.304c0-0.17,0.132-0.308,0.297-0.308c0.158,0,0.283,0.125,0.295,0.285v0.001
				v0.004c0,0.016-0.014,0.027-0.03,0.027h-0.502c0.006,0.134,0.111,0.233,0.237,0.233c0.082,0,0.156-0.042,0.198-0.109
				c0.009-0.017,0.027-0.02,0.04-0.012c0.014,0.012,0.019,0.027,0.01,0.042c-0.052,0.084-0.144,0.141-0.248,0.141
				C10.996,17.61,10.863,17.471,10.863,17.304z M10.927,17.255h0.464c-0.02-0.115-0.117-0.199-0.23-0.199
				C11.045,17.056,10.949,17.139,10.927,17.255z"/>
			<path id="path3202" fill="#FFFFFF" d="M11.93,16.996c0.161,0,0.29,0.14,0.29,0.306s-0.129,0.308-0.29,0.308
				c-0.16,0-0.291-0.142-0.291-0.308S11.77,16.996,11.93,16.996z M11.93,17.549c0.125,0,0.23-0.108,0.23-0.246
				c0-0.136-0.105-0.248-0.23-0.248c-0.125,0-0.23,0.111-0.23,0.248C11.7,17.441,11.805,17.549,11.93,17.549z"/>
		</g>
		<g id="g3204">
			<path id="path3206" fill="#FFFFFF" d="M27.123,14.966v-6.79c0-0.509-0.467-0.948-1.025-0.948h-4.892
				c-0.541,0-0.953,0.432-0.953,0.948v6.79c0,0.538,0.427,0.969,0.944,0.969h4.909C26.643,15.935,27.123,15.495,27.123,14.966
				L27.123,14.966z M26.105,15.698h-4.911c-0.389,0-0.707-0.322-0.707-0.732v-6.79l0,0c0-0.385,0.308-0.711,0.715-0.711h4.893
				c0.375,0,0.788,0.3,0.788,0.711v6.79C26.887,15.363,26.508,15.698,26.105,15.698z"/>
			<path id="path3208" fill="#FFFFFF" d="M25.41,9.39c-0.135-0.063-0.293-0.018-0.329-0.006c-0.615,0.214-1.221,0.418-1.814,0.631
				c-0.382,0.14-0.507,0.333-0.51,0.753c-0.002,0.345-0.002,0.688-0.002,1.03c0,0.296,0,0.591,0,0.898
				c-0.466-0.096-0.84,0.011-1.106,0.398c-0.182,0.269-0.129,0.637,0.118,0.792l0,0c0.301,0.191,0.613,0.167,0.91,0.002
				c0.27-0.147,0.417-0.391,0.411-0.735c-0.008-0.537,0-1.073-0.003-1.609c-0.001-0.161,0.039-0.297,0.192-0.35
				c0.563-0.197,1.139-0.393,1.725-0.58c0.159-0.052,0.184,0.023,0.184,0.112c0.014,0.485,0.009,0.972,0.009,1.462
				c-0.554-0.096-0.906,0.008-1.164,0.317c-0.244,0.293-0.215,0.701,0.083,0.895c0.316,0.204,0.652,0.177,0.973,0.012
				c0.299-0.154,0.474-0.397,0.472-0.77c-0.008-0.942-0.008-1.888,0.002-2.829C25.563,9.594,25.55,9.47,25.41,9.39z"/>
		</g>
		<g id="g3210">
			<path id="path3212" fill="#FFFFFF" d="M22.538,17.383H22.14l-0.078,0.206c-0.005,0.013-0.016,0.021-0.029,0.021
				c-0.002,0-0.007-0.001-0.011-0.001c-0.015-0.008-0.024-0.025-0.018-0.04l0.304-0.813c0.005-0.011,0.018-0.019,0.03-0.019
				c0.014,0,0.026,0.008,0.03,0.019l0.304,0.813c0.006,0.015-0.001,0.032-0.016,0.04c-0.005,0-0.007,0.001-0.011,0.001
				c-0.011,0-0.024-0.009-0.029-0.021L22.538,17.383L22.538,17.383z M22.161,17.322h0.354l-0.176-0.472L22.161,17.322z"/>
			<path id="path3214" fill="#FFFFFF" d="M22.828,17.026c0-0.02,0.014-0.03,0.03-0.03c0.017,0,0.03,0.013,0.03,0.03v0.333
				c0,0.104,0.083,0.188,0.188,0.188c0.105-0.001,0.19-0.085,0.19-0.188v-0.333c0-0.02,0.015-0.03,0.03-0.03
				c0.017,0,0.031,0.013,0.031,0.03v0.333c0,0.138-0.111,0.25-0.251,0.25c-0.138,0-0.248-0.112-0.248-0.25V17.026L22.828,17.026
				L22.828,17.026z"/>
			<path id="path3216" fill="#FFFFFF" d="M24.097,17.49c-0.054,0.072-0.139,0.119-0.235,0.119c-0.165,0-0.296-0.139-0.296-0.307
				c0-0.17,0.131-0.308,0.296-0.308c0.096,0,0.181,0.047,0.235,0.12V16.76c0-0.016,0.014-0.028,0.031-0.028
				c0.016,0,0.03,0.014,0.03,0.028v0.528v0.013v0.275c0,0.016-0.014,0.03-0.03,0.03c-0.018,0-0.031-0.016-0.031-0.03V17.49z
				 M24.097,17.315v-0.021c-0.005-0.131-0.109-0.236-0.235-0.236c-0.129,0-0.235,0.11-0.235,0.246c0,0.137,0.106,0.244,0.235,0.244
				C23.988,17.548,24.091,17.445,24.097,17.315z"/>
			<path id="path3218" fill="#FFFFFF" d="M24.433,16.826c0-0.018,0.014-0.03,0.03-0.03c0.018,0,0.031,0.014,0.031,0.03v0.029
				c0,0.018-0.014,0.031-0.031,0.031c-0.016,0-0.03-0.015-0.03-0.031V16.826z M24.433,17.027c0-0.02,0.014-0.03,0.03-0.03
				c0.018,0,0.031,0.012,0.031,0.03v0.553c0,0.016-0.014,0.03-0.031,0.03c-0.016,0-0.03-0.016-0.03-0.03V17.027z"/>
			<path id="path3220" fill="#FFFFFF" d="M25.044,16.996c0.161,0,0.29,0.14,0.29,0.306s-0.129,0.308-0.29,0.308
				c-0.16,0-0.29-0.142-0.29-0.308S24.884,16.996,25.044,16.996z M25.044,17.549c0.125,0,0.23-0.108,0.23-0.246
				c0-0.136-0.105-0.248-0.23-0.248s-0.23,0.111-0.23,0.248C24.814,17.441,24.919,17.549,25.044,17.549z"/>
		</g>
		<g id="g3222">
			<path id="path3224" fill="#FFFFFF" d="M41.036,14.966v-6.79c0-0.509-0.427-0.948-0.987-0.948h-4.891
				c-0.541,0-0.992,0.432-0.992,0.948v6.79c0,0.538,0.466,0.969,0.982,0.969h4.908C40.594,15.935,41.036,15.495,41.036,14.966z
				 M34.402,8.177c0-0.385,0.349-0.711,0.756-0.711h4.891c0.377,0,0.75,0.3,0.75,0.711v5.485L38.92,11.72l-0.949,0.461l-1.145-1.065
				l-2.424,1.203V8.177L34.402,8.177z M40.059,15.698H35.15c-0.392,0-0.748-0.322-0.748-0.732v-2.385l2.384-1.182l1.144,1.063
				l0.938-0.457L40.8,14v0.964C40.799,15.363,40.461,15.698,40.059,15.698L40.059,15.698z"/>
			<path id="path3226" fill="#FFFFFF" d="M38.934,10.269c0.504,0,0.914-0.408,0.914-0.911c0-0.506-0.41-0.914-0.914-0.914
				s-0.912,0.408-0.912,0.914C38.021,9.861,38.43,10.269,38.934,10.269z M38.934,8.679c0.373,0,0.676,0.306,0.676,0.679
				c0,0.373-0.303,0.676-0.676,0.676c-0.373,0-0.676-0.303-0.676-0.676C38.258,8.985,38.561,8.679,38.934,8.679z"/>
		</g>
		<g id="g3228">
			<path id="path3230" fill="#FFFFFF" d="M35.753,16.763c0-0.016,0.015-0.028,0.03-0.028c0.018,0,0.031,0.014,0.031,0.028v0.815
				c0,0.016-0.016,0.03-0.031,0.03c-0.018,0-0.03-0.016-0.03-0.03V16.763z"/>
			<path id="path3232" fill="#FFFFFF" d="M36.988,17.246c-0.002-0.104-0.086-0.19-0.189-0.19c-0.103,0-0.189,0.086-0.189,0.19v0.333
				v0.004c0,0.001-0.002,0.002-0.002,0.002v0.002c-0.002,0.008-0.008,0.013-0.014,0.019c-0.006,0.002-0.011,0.003-0.016,0.003
				h-0.004h-0.002c-0.002,0-0.004-0.001-0.004-0.001c-0.002,0-0.004-0.002-0.006-0.006c-0.002,0-0.004-0.001-0.004-0.002
				l-0.004-0.004c-0.004-0.001-0.004-0.002-0.005-0.002c0-0.001,0-0.001-0.001-0.002c0,0,0-0.001-0.002-0.002
				c0-0.001,0-0.002-0.001-0.004v-0.004V17.58v-0.333c0-0.104-0.083-0.19-0.188-0.19c-0.104,0-0.188,0.086-0.188,0.19v0.333
				c0,0.01-0.004,0.019-0.015,0.024c-0.002,0.001-0.004,0.004-0.008,0.004c0,0.001-0.002,0.001-0.004,0.001h-0.004h-0.004
				c-0.013-0.001-0.021-0.013-0.025-0.022v-0.006v-0.333v-0.01v-0.21c0-0.018,0.015-0.029,0.029-0.029
				c0.019,0,0.028,0.013,0.028,0.029v0.059C36.212,17.033,36.279,17,36.355,17c0.096,0,0.177,0.053,0.22,0.13
				c0.043-0.078,0.126-0.13,0.22-0.13c0.139,0,0.249,0.111,0.249,0.249v0.334c0,0.015-0.013,0.028-0.028,0.028
				c-0.019,0-0.029-0.016-0.029-0.028v-0.337H36.988L36.988,17.246z"/>
			<path id="path3234" fill="#FFFFFF" d="M37.814,17.027v0.553c0,0.016-0.016,0.03-0.03,0.03c-0.017,0-0.03-0.016-0.03-0.03v-0.091
				c-0.053,0.071-0.136,0.121-0.229,0.121c-0.162,0-0.291-0.141-0.291-0.308s0.129-0.306,0.291-0.306
				c0.094,0,0.177,0.047,0.229,0.12v-0.09c0-0.02,0.014-0.03,0.03-0.03C37.8,16.997,37.814,17.009,37.814,17.027z M37.754,17.302
				c0-0.138-0.104-0.248-0.229-0.248c-0.125,0-0.23,0.11-0.23,0.248c0,0.14,0.105,0.246,0.23,0.246
				C37.65,17.549,37.754,17.441,37.754,17.302z"/>
			<path id="path3236" fill="#FFFFFF" d="M38.652,17.56c0,0.159-0.129,0.287-0.289,0.287c-0.045,0-0.086-0.011-0.127-0.026
				c-0.012-0.011-0.021-0.026-0.012-0.04c0.006-0.019,0.022-0.022,0.039-0.016c0.029,0.017,0.063,0.022,0.1,0.022
				c0.129,0,0.229-0.103,0.229-0.229v-0.073c-0.052,0.072-0.136,0.12-0.229,0.12c-0.159,0-0.287-0.139-0.287-0.307
				c0-0.165,0.128-0.304,0.287-0.304c0.095,0,0.179,0.047,0.229,0.12v-0.09c0-0.018,0.015-0.03,0.031-0.03
				c0.015,0,0.026,0.014,0.026,0.03v0.533h0.002v0.003H38.652z M38.593,17.3c0-0.136-0.103-0.244-0.229-0.244
				c-0.125,0-0.227,0.107-0.227,0.244c0,0.139,0.102,0.246,0.227,0.246C38.49,17.546,38.593,17.438,38.593,17.3z"/>
			<path id="path3238" fill="#FFFFFF" d="M38.898,17.304c0-0.17,0.133-0.308,0.299-0.308c0.156,0,0.281,0.125,0.295,0.285v0.001
				v0.004c0,0.016-0.014,0.027-0.03,0.027h-0.503c0.006,0.134,0.111,0.233,0.238,0.233c0.08,0,0.156-0.042,0.197-0.109
				c0.008-0.017,0.025-0.02,0.039-0.012c0.015,0.012,0.02,0.027,0.01,0.042c-0.053,0.084-0.145,0.141-0.246,0.141
				C39.031,17.61,38.898,17.471,38.898,17.304z M38.963,17.255h0.464c-0.021-0.115-0.118-0.199-0.229-0.199
				C39.082,17.056,38.984,17.139,38.963,17.255z"/>
		</g>
		<g id="g3240">
			<path id="path3242" fill="#FFFFFF" d="M13.962,27.792v-6.79c0-0.509-0.441-0.947-1.002-0.947H8.069
				c-0.54,0-0.978,0.432-0.978,0.947v6.79c0,0.538,0.451,0.969,0.969,0.969h4.908C13.505,28.76,13.962,28.321,13.962,27.792
				L13.962,27.792z M12.969,28.524H8.061c-0.389,0-0.732-0.321-0.732-0.731v-6.79c0-0.385,0.333-0.71,0.741-0.71h4.891
				c0.376,0,0.765,0.3,0.765,0.71v6.79C13.725,28.188,13.372,28.524,12.969,28.524z"/>
			<g id="g3244">
				<path id="path3246" fill="#FFFFFF" d="M10.625,23.063H9.313c0,0,0,0,0,0.125h1.313C10.625,23.063,10.625,23.063,10.625,23.063z"
					/>
				<path id="path3248" fill="#FFFFFF" d="M8.875,23.5v1.813c0.063,0,0.188,0,0.188,0V23.5C9.063,23.5,8.938,23.5,8.875,23.5z"/>
				<path id="path3250" fill="#FFFFFF" d="M9.313,25.75h2.625c0,0,0-0.063,0-0.125H9.313C9.313,25.688,9.313,25.75,9.313,25.75z"/>
				<path id="path3252" fill="#FFFFFF" d="M11.134,23.5l0.987,1.813c0.04,0,0.079,0,0.118,0L11.252,23.5
					C11.213,23.5,11.175,23.5,11.134,23.5z"/>
				<rect id="rect3254" x="8.75" y="22.875" fill="#FFFFFF" width="0.563" height="0.563"/>
				<rect id="rect3256" x="8.75" y="25.5" fill="#FFFFFF" width="0.563" height="0.5"/>
				<rect id="rect3258" x="12" y="25.5" fill="#FFFFFF" width="0.563" height="0.5"/>
				<rect id="rect3260" x="10.813" y="22.875" fill="#FFFFFF" width="0.563" height="0.563"/>
			</g>
		</g>
		<g id="g3262">
			<path id="path3264" fill="#FFFFFF" d="M8.889,30.405c-0.001,0-0.001-0.002-0.001-0.003l-0.001-0.001l-0.339-0.809
				c-0.006-0.015,0.001-0.033,0.017-0.04c0.015-0.007,0.034,0,0.04,0.017l0.313,0.746l0.313-0.746
				c0.005-0.017,0.024-0.021,0.039-0.017c0.015,0.007,0.022,0.024,0.016,0.04l-0.339,0.801c-0.001,0.013-0.007,0.021-0.018,0.024
				H8.928c-0.004,0.002-0.008,0.004-0.011,0.004c-0.004,0-0.009,0-0.011-0.002c-0.001,0-0.001-0.001-0.001-0.001
				C8.896,30.416,8.891,30.412,8.889,30.405z"/>
			<path id="path3266" fill="#FFFFFF" d="M9.394,30.116c0-0.17,0.133-0.31,0.298-0.31c0.157,0,0.282,0.125,0.295,0.285v0.002v0.004
				c0,0.018-0.014,0.027-0.03,0.027H9.454c0.006,0.133,0.111,0.234,0.238,0.234c0.081,0,0.156-0.043,0.197-0.111
				c0.009-0.015,0.028-0.018,0.04-0.01c0.014,0.01,0.019,0.025,0.01,0.043c-0.053,0.084-0.144,0.139-0.248,0.139
				C9.526,30.422,9.394,30.284,9.394,30.116z M9.458,30.069h0.464c-0.02-0.115-0.118-0.199-0.23-0.199
				C9.576,29.869,9.48,29.951,9.458,30.069z"/>
			<path id="path3268" fill="#FFFFFF" d="M10.155,30.115c0-0.171,0.14-0.308,0.315-0.308c0.072,0,0.141,0.025,0.195,0.068
				c0.013,0.008,0.015,0.027,0.004,0.041c-0.01,0.011-0.028,0.015-0.042,0.005c-0.043-0.035-0.099-0.056-0.157-0.056
				c-0.143,0-0.255,0.109-0.255,0.246c0,0.139,0.113,0.248,0.255,0.248c0.059,0,0.114-0.021,0.157-0.056
				c0.014-0.01,0.031-0.007,0.042,0.005c0.011,0.016,0.009,0.033-0.006,0.046c-0.051,0.039-0.12,0.063-0.192,0.063
				C10.295,30.422,10.155,30.287,10.155,30.115L10.155,30.115z"/>
			<path id="path3270" fill="#FFFFFF" d="M11.126,29.839c0,0.017-0.015,0.03-0.03,0.03h-0.079v0.446c0,0.028,0.03,0.045,0.045,0.045
				c0.015,0,0.031,0.017,0.031,0.029c0,0.016-0.016,0.03-0.031,0.03c-0.061,0-0.107-0.045-0.107-0.104v-0.446h-0.076
				c-0.03,0-0.03-0.018-0.03-0.03c0-0.012,0-0.03,0.03-0.03h0.076v-0.227c0-0.016,0.015-0.031,0.03-0.031
				c0.017,0,0.033,0.018,0.033,0.031v0.227h0.079C11.111,29.808,11.126,29.824,11.126,29.839z"/>
			<path id="path3272" fill="#FFFFFF" d="M11.655,29.808c0.161,0,0.29,0.143,0.29,0.309c0,0.166-0.129,0.307-0.29,0.307
				c-0.16,0-0.29-0.141-0.29-0.307C11.365,29.951,11.495,29.808,11.655,29.808z M11.655,30.362c0.125,0,0.23-0.109,0.23-0.246
				c0-0.137-0.105-0.248-0.23-0.248c-0.125,0-0.23,0.109-0.23,0.248C11.425,30.252,11.53,30.362,11.655,30.362z"/>
			<path id="path3274" fill="#FFFFFF" d="M12.15,29.84c0-0.018,0.014-0.029,0.031-0.029c0.015,0,0.029,0.014,0.029,0.029v0.135
				c0.002-0.004,0.005-0.01,0.009-0.015c0.046-0.072,0.127-0.149,0.245-0.149c0.016,0,0.03,0.014,0.03,0.029
				c0,0.019-0.014,0.03-0.03,0.03c-0.08,0-0.135,0.045-0.178,0.101c-0.041,0.057-0.065,0.117-0.074,0.145
				c-0.002,0.004-0.002,0.007-0.002,0.01v0.269c0,0.02-0.014,0.03-0.029,0.03c-0.017,0-0.031-0.013-0.031-0.03V29.84L12.15,29.84z"
				/>
		</g>
		<g id="g3276">
			<path id="path3278" fill="#FFFFFF" d="M27.123,27.792v-6.79c0-0.509-0.441-0.947-1.002-0.947H21.23
				c-0.54,0-0.978,0.432-0.978,0.947v6.79c0,0.538,0.452,0.969,0.969,0.969h4.908C26.666,28.76,27.123,28.321,27.123,27.792
				L27.123,27.792z M26.131,28.524h-4.909c-0.389,0-0.731-0.321-0.731-0.731v-6.79c0-0.385,0.333-0.71,0.74-0.71h4.891
				c0.377,0,0.767,0.3,0.767,0.71v6.79C26.887,28.188,26.533,28.524,26.131,28.524z"/>
			<g id="g3280">
				<polygon id="polygon3282" fill="#FFFFFF" points="21.938,23.188 21.938,25.438 23.625,26.129 23.625,23.661 				"/>
				<polygon id="polygon3284" fill="#FFFFFF" points="23.875,23.661 23.875,26.149 25.625,25.438 25.625,23.188 				"/>
				<polygon id="polygon3286" fill="#FFFFFF" points="22,22.962 23.718,23.408 25.555,22.962 23.718,22.592 				"/>
			</g>
		</g>
		<g id="g3288">
			<path id="path3290" fill="#FFFFFF" d="M23.455,29.601l-0.226,0.232c0.055,0.012,0.107,0.037,0.15,0.08
				c0.058,0.058,0.086,0.134,0.086,0.21c0,0.076-0.028,0.152-0.087,0.21c-0.057,0.058-0.134,0.088-0.21,0.088
				c-0.075,0-0.151-0.029-0.209-0.088c-0.012-0.012-0.012-0.031,0-0.044c0.011-0.013,0.031-0.013,0.044,0
				c0.046,0.046,0.105,0.067,0.165,0.067c0.06,0,0.12-0.021,0.167-0.067c0.046-0.046,0.068-0.106,0.068-0.166
				c0-0.06-0.022-0.12-0.068-0.165c-0.045-0.047-0.105-0.068-0.165-0.068c-0.01,0-0.019-0.006-0.025-0.014h-0.001
				c-0.013-0.012-0.013-0.031,0-0.045l0.217-0.223h-0.335c-0.018,0-0.031-0.016-0.031-0.031c0-0.019,0.014-0.031,0.031-0.031h0.409
				c0.018,0,0.031,0.014,0.031,0.031c0,0.004-0.001,0.01-0.003,0.014C23.46,29.595,23.458,29.598,23.455,29.601L23.455,29.601z"/>
			<path id="path3292" fill="#FFFFFF" d="M23.783,30.422h-0.005c-0.015-0.002-0.027-0.014-0.027-0.03v-0.813
				c0-0.018,0.014-0.029,0.03-0.029h0.003h0.16c0.241,0,0.438,0.197,0.438,0.438c0,0.239-0.196,0.437-0.438,0.437L23.783,30.422
				L23.783,30.422L23.783,30.422z M23.944,30.361c0.208,0,0.376-0.167,0.376-0.375c0-0.209-0.169-0.376-0.376-0.378h-0.133v0.753
				H23.944z"/>
		</g>
		<g id="g3294">
			<path id="path3296" fill="#FFFFFF" d="M41.036,27.792v-6.79c0-0.509-0.44-0.947-1.002-0.947h-4.892
				c-0.539,0-0.979,0.432-0.979,0.947v6.79c0,0.538,0.451,0.969,0.969,0.969h4.908C40.58,28.76,41.036,28.321,41.036,27.792z
				 M40.043,28.524h-4.908c-0.389,0-0.732-0.321-0.732-0.731v-6.79c0-0.385,0.334-0.71,0.742-0.71h4.892
				c0.376,0,0.765,0.3,0.765,0.71v6.79C40.799,28.188,40.445,28.524,40.043,28.524L40.043,28.524z"/>
			<path id="path3298" fill="#FFFFFF" d="M37.566,20.862c0.504,0,0.914,0.41,0.914,0.914c0,0.27-0.279,0.906-0.523,1.104
				c-0.027,0.021-0.066,0.049-0.1,0.049c-0.027,0-0.063-0.027-0.102-0.053c-0.049-0.031-0.109-0.08-0.188-0.08l-0.008,0.008
				c-0.063,0-0.14,0.041-0.188,0.069c-0.041,0.021-0.073,0.045-0.104,0.045s-0.065-0.018-0.109-0.054
				c-0.234-0.192-0.508-0.823-0.508-1.09C36.652,21.272,37.063,20.862,37.566,20.862 M37.566,20.719
				c-0.584,0-1.059,0.475-1.059,1.059c0,0.304,0.285,0.977,0.561,1.199c0.078,0.065,0.145,0.109,0.201,0.109
				c0.127,0,0.209-0.086,0.295-0.086c0.002,0,0.002,0,0.002,0c0.084,0,0.166,0.095,0.291,0.095c0.055,0,0.115-0.03,0.188-0.093
				c0.279-0.225,0.577-0.91,0.577-1.221C38.625,21.198,38.15,20.719,37.566,20.719L37.566,20.719L37.566,20.719z"/>
			<g id="g3300">
				<path id="path3302" fill="#FFFFFF" d="M38.947,25.813H38.64l-0.203-0.188h0.51c0.074,0,0.135-0.081,0.135-0.156
					c0-0.074-0.061-0.154-0.135-0.154h-0.713l-0.202-0.188h0.915c0.074,0,0.135-0.082,0.135-0.156c0-0.073-0.061-0.154-0.135-0.154
					h-1.119l-0.066-0.111l-0.002-0.201h1.188c0.073,0,0.135-0.02,0.135-0.094c0-0.074-0.062-0.094-0.135-0.094h-2.705
					c-0.074,0-0.136,0.02-0.136,0.094c0,0.074,0.062,0.094,0.136,0.094h1.194v0.179l-0.076,0.133h-1.118
					c-0.074,0-0.136,0.08-0.136,0.154c0,0.074,0.062,0.156,0.136,0.156h0.916l-0.203,0.188h-0.713c-0.074,0-0.136,0.08-0.136,0.154
					c0,0.075,0.062,0.156,0.136,0.156h0.51l-0.203,0.188h-0.307c-0.074,0-0.136,0.081-0.136,0.155c0,0.074,0.062,0.156,0.136,0.156
					h0.104c0.116,0,0.219,0,0.338,0l0.813-1h0.104h0.094l0.813,1c0.111,0,0.222,0,0.339,0h0.104c0.073,0,0.135-0.082,0.135-0.156
					C39.087,25.894,39.021,25.813,38.947,25.813z"/>
				<path id="path3304" fill="#FFFFFF" d="M37.404,23.781c0,0.104,0.086,0.188,0.188,0.188c0.105,0,0.19-0.085,0.19-0.188
					c0-0.074-0.043-0.141-0.104-0.17c0.063-0.031,0.104-0.097,0.104-0.169c0-0.105-0.085-0.19-0.19-0.19
					c-0.104,0-0.188,0.085-0.188,0.19c0,0.072,0.043,0.138,0.104,0.169C37.447,23.642,37.404,23.707,37.404,23.781z"/>
				<path id="path3306" fill="#FFFFFF" d="M40.068,25.171l-0.596-1.112c0.008-0.02,0.012-0.037,0.012-0.062
					c0-0.102-0.082-0.185-0.186-0.185c-0.037,0-0.074,0.014-0.105,0.033c-0.029-0.061-0.092-0.072-0.164-0.072
					c-0.021,0-0.039,0.039-0.059,0.039h-0.996c-0.029,0-0.057-0.008-0.057,0.029c0,0.037,0.023,0.031,0.057,0.031h0.875
					c-0.002,0-0.004,0.033-0.004,0.046c0,0.104,0.08,0.188,0.184,0.188c0.041,0,0.076-0.013,0.107-0.032
					c0.028,0.061,0.092,0.104,0.162,0.104c0.027,0,0.055-0.006,0.076-0.017l0.561,1.043c-0.045,0.033-0.074,0.086-0.074,0.146
					c0,0.051,0.021,0.096,0.053,0.129l-0.822,1.154c-0.023,0.015-0.039,0.037-0.039,0.064c0,0.043,0.035,0.077,0.076,0.077
					c0.035,0,0.063-0.022,0.072-0.054l0.844-1.188c0.102,0,0.184-0.082,0.184-0.186C40.229,25.259,40.16,25.181,40.068,25.171
					L40.068,25.171z"/>
				<path id="path3308" fill="#FFFFFF" d="M37.66,26.401c0.072-0.027,0.125-0.099,0.125-0.181c0-0.072-0.043-0.138-0.104-0.169
					c0.062-0.03,0.104-0.096,0.104-0.17c0-0.074-0.043-0.139-0.104-0.17c0.062-0.031,0.104-0.096,0.104-0.17
					c0-0.104-0.085-0.189-0.189-0.189c-0.104,0-0.191,0.087-0.191,0.189c0,0.074,0.045,0.139,0.105,0.17
					c-0.063,0.031-0.105,0.096-0.105,0.17c0,0.074,0.045,0.14,0.105,0.17c-0.063,0.031-0.105,0.096-0.105,0.169
					c0,0.082,0.054,0.151,0.125,0.181c-0.071,0.024-0.125,0.096-0.125,0.178c0,0.104,0.087,0.189,0.191,0.189
					c0.105,0,0.19-0.086,0.19-0.189C37.786,26.496,37.734,26.427,37.66,26.401z"/>
				<path id="path3310" fill="#FFFFFF" d="M36.104,26.635l-0.828-1.17c0.023-0.031,0.035-0.068,0.035-0.109
					c0-0.063-0.031-0.112-0.074-0.146l0.559-1.043c0.021,0.012,0.048,0.018,0.075,0.018c0.071,0,0.134-0.042,0.164-0.103
					c0.028,0.021,0.065,0.034,0.104,0.034c0.104,0,0.187-0.09,0.187-0.192c0-0.013-0.001-0.046-0.005-0.046h0.873
					c0.031,0,0.057,0.006,0.057-0.031c0-0.037-0.021-0.029-0.057-0.029H36.2c-0.021,0-0.038-0.039-0.062-0.039
					c-0.072,0-0.134,0.025-0.164,0.088c-0.029-0.021-0.064-0.041-0.105-0.041c-0.104,0-0.186,0.078-0.186,0.181
					c0,0.021,0.004,0.04,0.012,0.062L35.1,25.172c-0.092,0.012-0.162,0.088-0.162,0.184c0,0.102,0.084,0.184,0.187,0.184
					c0.009,0,0.019-0.001,0.022-0.002l0.834,1.182c0.008,0.035,0.039,0.063,0.076,0.063c0.045,0,0.08-0.036,0.08-0.08
					C36.137,26.672,36.123,26.649,36.104,26.635L36.104,26.635z"/>
			</g>
		</g>
		<g id="g3312">
			<path id="path3314" fill="#FFFFFF" d="M33.236,29.672l-0.279,0.389c-0.006,0.012-0.018,0.016-0.025,0.016H32.93
				c-0.012,0-0.021-0.004-0.025-0.016l-0.279-0.388v0.719c0,0.019-0.016,0.03-0.027,0.03c-0.02,0-0.031-0.014-0.031-0.03v-0.81
				c0-0.011,0.004-0.02,0.012-0.024c0-0.001,0.002-0.001,0.002-0.003c0.014-0.008,0.033-0.006,0.043,0.01l0.313,0.432l0.311-0.432
				c0.01-0.016,0.027-0.018,0.043-0.01c0.004,0.004,0.006,0.009,0.009,0.012c0.003,0.006,0.005,0.012,0.005,0.018v0.81
				c0,0.019-0.014,0.03-0.027,0.03c-0.02,0-0.031-0.014-0.031-0.03v-0.721L33.236,29.672L33.236,29.672z"/>
			<path id="path3316" fill="#FFFFFF" d="M33.559,30.116c0-0.17,0.133-0.31,0.299-0.31c0.156,0,0.281,0.125,0.295,0.285v0.002v0.004
				c0,0.018-0.014,0.027-0.028,0.027H33.62c0.006,0.133,0.11,0.234,0.237,0.234c0.08,0,0.156-0.043,0.197-0.111
				c0.008-0.015,0.026-0.018,0.038-0.01c0.015,0.01,0.021,0.025,0.013,0.043c-0.055,0.084-0.146,0.139-0.248,0.139
				C33.691,30.422,33.559,30.284,33.559,30.116L33.559,30.116z M33.623,30.069h0.464c-0.021-0.115-0.118-0.199-0.229-0.199
				C33.742,29.869,33.646,29.951,33.623,30.069z"/>
			<path id="path3318" fill="#FFFFFF" d="M34.854,30.302c-0.054,0.072-0.14,0.119-0.233,0.119c-0.165,0-0.296-0.138-0.296-0.306
				c0-0.17,0.131-0.31,0.296-0.31c0.096,0,0.182,0.05,0.233,0.12v-0.353c0-0.018,0.016-0.029,0.031-0.029
				c0.018,0,0.03,0.014,0.03,0.029v0.525v0.015v0.273c0,0.019-0.015,0.03-0.03,0.03c-0.018,0-0.031-0.014-0.031-0.03V30.302z
				 M34.854,30.127v-0.021c-0.004-0.134-0.106-0.236-0.233-0.236c-0.129,0-0.233,0.11-0.233,0.246c0,0.136,0.104,0.244,0.233,0.244
				C34.746,30.361,34.85,30.256,34.854,30.127z"/>
			<path id="path3320" fill="#FFFFFF" d="M35.189,29.638c0-0.016,0.015-0.027,0.031-0.027c0.018,0,0.029,0.014,0.029,0.027v0.029
				c0,0.018-0.016,0.032-0.029,0.032c-0.019,0-0.031-0.017-0.031-0.032V29.638z M35.189,29.839c0-0.018,0.015-0.03,0.031-0.03
				c0.018,0,0.029,0.015,0.029,0.03v0.553c0,0.019-0.016,0.03-0.029,0.03c-0.019,0-0.031-0.014-0.031-0.03V29.839z"/>
			<path id="path3322" fill="#FFFFFF" d="M35.496,30.115c0-0.171,0.141-0.308,0.316-0.308c0.07,0,0.141,0.025,0.192,0.068
				c0.015,0.008,0.017,0.027,0.004,0.041c-0.011,0.011-0.026,0.015-0.042,0.005c-0.043-0.035-0.098-0.056-0.154-0.056
				c-0.145,0-0.256,0.109-0.256,0.246c0,0.139,0.111,0.248,0.256,0.248c0.059,0,0.111-0.021,0.154-0.056
				c0.016-0.01,0.031-0.007,0.042,0.005c0.013,0.016,0.011,0.033-0.007,0.046c-0.051,0.039-0.119,0.063-0.189,0.063
				C35.637,30.422,35.496,30.287,35.496,30.115L35.496,30.115z"/>
			<path id="path3324" fill="#FFFFFF" d="M36.768,29.839v0.553c0,0.019-0.014,0.03-0.029,0.03c-0.014,0-0.028-0.014-0.028-0.03
				v-0.091c-0.052,0.072-0.136,0.121-0.229,0.121c-0.162,0-0.291-0.139-0.291-0.307c0-0.168,0.129-0.309,0.291-0.309
				c0.095,0,0.179,0.05,0.229,0.121v-0.091c0-0.018,0.015-0.03,0.028-0.03C36.754,29.807,36.768,29.822,36.768,29.839z
				 M36.708,30.115c0-0.14-0.104-0.248-0.229-0.248s-0.229,0.108-0.229,0.248c0,0.138,0.104,0.246,0.229,0.246
				S36.708,30.253,36.708,30.115z"/>
			<path id="path3326" fill="#FFFFFF" d="M37.055,29.576c0-0.018,0.014-0.029,0.029-0.029c0.018,0,0.031,0.014,0.031,0.029v0.813
				c0,0.019-0.014,0.03-0.031,0.03c-0.016,0-0.029-0.014-0.029-0.03V29.576z"/>
			<path id="path3328" fill="#FFFFFF" d="M37.754,29.576c0-0.018,0.014-0.029,0.03-0.029c0.018,0,0.03,0.014,0.03,0.029v0.813
				c0,0.019-0.015,0.03-0.03,0.03c-0.017,0-0.03-0.014-0.03-0.03V29.576z"/>
			<path id="path3330" fill="#FFFFFF" d="M38.988,30.058c-0.002-0.104-0.084-0.188-0.189-0.188c-0.104,0-0.188,0.086-0.188,0.188
				v0.334v0.006c0,0.002-0.002,0.002-0.002,0.002v0.003c-0.002,0.008-0.008,0.013-0.017,0.017c-0.004,0.002-0.01,0.004-0.015,0.004
				h-0.003h-0.003c-0.002,0-0.004-0.002-0.004-0.002c-0.002,0-0.006-0.002-0.008-0.004c-0.002,0-0.002-0.001-0.004-0.002
				l-0.004-0.004c0-0.001,0-0.002-0.003-0.002c0-0.002,0-0.002-0.001-0.003c0,0,0-0.001-0.001-0.003c0-0.001,0-0.002-0.002-0.004
				v-0.006v-0.002v-0.334c0-0.104-0.084-0.188-0.188-0.188c-0.104,0-0.188,0.086-0.188,0.188v0.334c0,0.012-0.006,0.021-0.014,0.023
				c-0.002,0.002-0.006,0.004-0.008,0.004c-0.002,0.002-0.002,0.002-0.006,0.002h-0.004h-0.005
				c-0.011-0.002-0.021-0.012-0.022-0.021v-0.008v-0.334v-0.01v-0.21c0-0.017,0.014-0.028,0.027-0.028
				c0.019,0,0.029,0.014,0.029,0.028v0.061c0.045-0.056,0.111-0.089,0.188-0.089c0.096,0,0.178,0.055,0.22,0.132
				c0.044-0.077,0.126-0.132,0.22-0.132c0.139,0,0.249,0.111,0.249,0.248v0.334c0,0.018-0.013,0.029-0.028,0.029
				c-0.017,0-0.029-0.014-0.029-0.029L38.988,30.058L38.988,30.058L38.988,30.058z"/>
			<path id="path3332" fill="#FFFFFF" d="M39.814,29.839v0.553c0,0.019-0.015,0.03-0.029,0.03c-0.016,0-0.029-0.014-0.029-0.03
				v-0.091c-0.053,0.072-0.137,0.121-0.23,0.121c-0.159,0-0.289-0.139-0.289-0.307c0-0.168,0.13-0.309,0.289-0.309
				c0.096,0,0.18,0.05,0.23,0.121v-0.091c0-0.018,0.014-0.03,0.029-0.03C39.802,29.808,39.814,29.822,39.814,29.839z M39.756,30.115
				c0-0.14-0.104-0.248-0.23-0.248c-0.125,0-0.229,0.108-0.229,0.248c0,0.138,0.104,0.246,0.229,0.246
				C39.652,30.362,39.756,30.253,39.756,30.115z"/>
			<path id="path3334" fill="#FFFFFF" d="M40.654,30.373c0,0.158-0.129,0.287-0.289,0.287c-0.045,0-0.088-0.012-0.127-0.028
				c-0.014-0.009-0.021-0.024-0.014-0.04c0.008-0.017,0.023-0.021,0.041-0.014c0.029,0.015,0.063,0.021,0.1,0.021
				c0.128,0,0.229-0.101,0.229-0.227v-0.075c-0.051,0.073-0.135,0.12-0.229,0.12c-0.16,0-0.287-0.137-0.287-0.305
				c0-0.166,0.127-0.307,0.287-0.307c0.094,0,0.178,0.05,0.229,0.12v-0.09c0-0.017,0.014-0.03,0.031-0.03
				c0.016,0,0.029,0.016,0.029,0.03V30.373L40.654,30.373z M40.594,30.114c0-0.139-0.102-0.244-0.229-0.244
				c-0.125,0-0.229,0.105-0.229,0.244c0,0.137,0.104,0.246,0.229,0.246C40.492,30.36,40.594,30.25,40.594,30.114z"/>
			<path id="path3336" fill="#FFFFFF" d="M40.945,29.638c0-0.016,0.014-0.027,0.029-0.027c0.017,0,0.03,0.014,0.03,0.027v0.029
				c0,0.018-0.015,0.032-0.03,0.032c-0.017,0-0.029-0.017-0.029-0.032V29.638z M40.945,29.839c0-0.018,0.014-0.03,0.029-0.03
				c0.017,0,0.03,0.015,0.03,0.03v0.553c0,0.019-0.015,0.03-0.03,0.03c-0.017,0-0.029-0.014-0.029-0.03V29.839z"/>
			<path id="path3338" fill="#FFFFFF" d="M41.732,30.058c0-0.104-0.084-0.188-0.188-0.188c-0.104,0-0.188,0.085-0.19,0.188v0.333
				v0.007c0,0.005-0.002,0.01-0.006,0.014c-0.005,0.008-0.014,0.012-0.021,0.012h-0.009c-0.01-0.003-0.017-0.01-0.021-0.017
				c-0.001-0.001-0.001-0.003-0.001-0.004S41.295,30.4,41.295,30.4v-0.009v-0.333v-0.01v-0.209c0-0.016,0.014-0.029,0.03-0.029
				s0.028,0.016,0.028,0.029V29.9c0.045-0.055,0.112-0.09,0.188-0.09c0.14,0,0.249,0.112,0.249,0.248v0.333
				c0,0.02-0.016,0.03-0.027,0.03c-0.02,0-0.031-0.013-0.031-0.03V30.058L41.732,30.058z"/>
			<path id="path3340" fill="#FFFFFF" d="M42.598,30.373c0,0.158-0.13,0.287-0.289,0.287c-0.045,0-0.088-0.012-0.129-0.028
				c-0.012-0.009-0.02-0.024-0.012-0.04c0.008-0.017,0.025-0.021,0.04-0.014c0.03,0.015,0.063,0.021,0.101,0.021
				c0.127,0,0.229-0.101,0.229-0.227v-0.075c-0.052,0.073-0.136,0.12-0.229,0.12c-0.16,0-0.287-0.137-0.287-0.305
				c0-0.166,0.127-0.307,0.287-0.307c0.094,0,0.178,0.05,0.229,0.12v-0.09c0-0.017,0.014-0.03,0.03-0.03
				c0.016,0,0.029,0.016,0.029,0.03L42.598,30.373L42.598,30.373L42.598,30.373z M42.537,30.114c0-0.139-0.104-0.244-0.229-0.244
				c-0.125,0-0.229,0.105-0.229,0.244c0,0.137,0.103,0.246,0.229,0.246S42.537,30.25,42.537,30.114z"/>
		</g>
	</g>
</g>
</svg>
