<?xml version="1.0" encoding="utf-8"?>
<!-- Generator: Adobe Illustrator 16.0.0, SVG Export Plug-In . SVG Version: 6.00 Build 0)  -->
<!DOCTYPE svg PUBLIC "-//W3C//DTD SVG 1.1//EN" "http://www.w3.org/Graphics/SVG/1.1/DTD/svg11.dtd">
<svg version="1.1" id="Layer_1" xmlns="http://www.w3.org/2000/svg" xmlns:xlink="http://www.w3.org/1999/xlink" x="0px" y="0px"
	 width="100%" height="100%" viewBox="0 0 811.061 566.539" enable-background="new 0 0 811.061 566.539"
	 xml:space="preserve">
<g>
	<path fill="#FFFFFF" d="M419.564,216.693c-1.208,2.103-0.922,4.574-0.206,5.734l5.051-8.819
		C424.409,213.608,421.252,213.739,419.564,216.693z"/>
	<path fill="#FFFFFF" d="M447.433,236.265l32.934-57.531c0,0,16.779-26.586-8.773-41.213
		c-25.555-14.631-39.983,13.303-39.983,13.303l-24.284,42.416l-24.252-42.433c0,0-14.411-27.943-39.973-13.33
		c-25.567,14.608-8.804,41.208-8.804,41.208l32.899,57.558l-33.238,58.066c0,0-16.949,26.486,8.795,41.224
		c25.747,14.74,40.077-13.419,40.077-13.419l24.474-42.75l26.043,45.64c0,0,14.746,25.051,39.343,10.07
		c22.963-13.989,9.71-37.932,9.71-37.932L447.433,236.265z M444.821,162.513l7.892-1.01l-3.151-7.258l3.216-5.614l5.037,12.16
		l14.896-1.915l-3.23,5.642l-9.304,1.262l3.682,8.548l-3.392,5.918l-5.811-13.942l-12.913,1.582L444.821,162.513z M434.479,180.56
		l11.435,6.549c0,0,3.503,2.115,5.314-1.049c1.862-3.254-1.707-5.248-1.707-5.248l-11.432-6.549l2.687-4.687l11.431,6.549
		c0,0,7.951,4.661,3.546,12.347c-4.599,8.029-12.596,3.445-12.596,3.445l-11.432-6.549L434.479,180.56z M399.22,242.105l3.216-5.612
		l11.069,0.826l-6.145-9.417l3.055-5.332l13.828,20.901L399.22,242.105z M434.64,225.331c-3.164,5.515-10.032,7.096-15.214,4.128
		c-4.847-2.777-7.439-9.431-4.129-15.208c3.038-5.303,9.87-7.189,15.208-4.131l1.184,0.678l-8.529,14.893
		c1.629,0.513,5.233,0.443,7.125-2.856c1.796-3.139,0.179-6.065-0.519-6.903l4.699-2.083
		C434.465,213.847,437.991,219.475,434.64,225.331z M432.33,202.855l11.428,6.551l-2.751,4.807l-11.431-6.549
		c0,0-8-4.578-3.398-12.608c4.402-7.684,12.441-3.185,12.441-3.185l11.436,6.549l-2.686,4.688l-11.432-6.549
		c0,0-3.528-2.075-5.392,1.18C428.734,200.903,432.33,202.855,432.33,202.855z"/>
	<path fill="#FFFFFF" d="M232.917,415.222h-3.511h-0.054c-0.234,0-0.432,0.198-0.432,0.432v11.74c0,0.233,0.198,0.432,0.432,0.432
		c0.252,0,0.45-0.198,0.45-0.432v-4.952l3.115-0.036c1.98,0,3.583-1.603,3.583-3.583S234.897,415.222,232.917,415.222z
		 M232.917,421.56h-3.115v-5.456h3.115c1.495,0,2.719,1.225,2.719,2.719C235.635,420.317,234.411,421.541,232.917,421.56z"/>
	<path fill="#FFFFFF" d="M239.773,415.222c-0.234,0-0.432,0.198-0.432,0.432v11.74c0,0.233,0.198,0.432,0.432,0.432
		c0.252,0,0.45-0.198,0.45-0.432v-11.74C240.223,415.42,240.025,415.222,239.773,415.222z"/>
	<path fill="#FFFFFF" d="M243.877,423.432c0,2.413,1.909,4.394,4.285,4.394c1.495,0,2.809-0.792,3.565-1.999
		c0.126-0.216,0.054-0.468-0.144-0.611c-0.18-0.108-0.45-0.072-0.576,0.144c-0.594,0.99-1.674,1.603-2.845,1.603
		c-1.818,0-3.331-1.458-3.421-3.385h7.238c0.234,0,0.433-0.162,0.433-0.396v-0.054v-0.019c-0.18-2.305-1.981-4.104-4.25-4.104
		C245.786,419.003,243.877,420.983,243.877,423.432z M251.475,422.729h-6.68c0.324-1.674,1.71-2.862,3.367-2.862
		C249.783,419.867,251.187,421.073,251.475,422.729z"/>
	<path fill="#FFFFFF" d="M262.437,419.003c-0.234,0-0.432,0.18-0.432,0.432v1.297c-0.756-1.045-1.962-1.729-3.313-1.729
		c-2.323,0-4.177,1.998-4.177,4.411c0,2.412,1.854,4.411,4.177,4.411c1.351,0,2.557-0.702,3.313-1.746v1.314
		c0,0.233,0.198,0.432,0.432,0.432s0.432-0.198,0.432-0.432v-7.959C262.869,419.183,262.671,419.003,262.437,419.003z
		 M258.692,426.961c-1.801,0-3.313-1.566-3.313-3.547s1.512-3.565,3.313-3.565c1.818,0,3.313,1.585,3.313,3.565
		S260.51,426.961,258.692,426.961z"/>
	<path fill="#FFFFFF" d="M266.161,421.325c0,0.685,0.396,1.261,0.954,1.585c0.504,0.359,1.206,0.54,1.999,0.684l0.036,0.019
		c0.864,0.144,1.494,0.359,1.873,0.647c0.45,0.379,0.612,0.667,0.63,1.081c0,0.396-0.234,0.792-0.666,1.08
		c-0.396,0.324-0.99,0.54-1.674,0.54c-1.117,0-2.089-0.576-2.701-1.026c-0.198-0.162-0.468-0.126-0.612,0.054
		c-0.144,0.181-0.126,0.414,0.054,0.576c0.72,0.576,1.837,1.243,3.259,1.261c0.864,0,1.584-0.252,2.196-0.702
		c0.594-0.45,1.008-1.044,1.008-1.782s-0.414-1.423-0.99-1.801c-0.612-0.342-1.296-0.595-2.143-0.721h-0.036
		c-0.81-0.126-1.404-0.342-1.8-0.611c-0.342-0.271-0.504-0.522-0.504-0.883s0.198-0.72,0.559-1.008
		c0.378-0.307,0.954-0.505,1.674-0.505c0.864,0,1.512,0.45,2.161,0.883c0.198,0.126,0.468,0.071,0.594-0.126
		c0.126-0.198,0.072-0.469-0.126-0.612c-0.685-0.433-1.495-0.954-2.629-0.954c-0.9,0-1.639,0.233-2.161,0.594
		C266.557,420.011,266.161,420.623,266.161,421.325z"/>
	<path fill="#FFFFFF" d="M279.122,419.003c-2.377,0-4.285,1.98-4.285,4.429c0,2.413,1.908,4.394,4.285,4.394
		c1.495,0,2.809-0.792,3.565-1.999c0.126-0.216,0.054-0.468-0.144-0.611c-0.18-0.108-0.45-0.072-0.576,0.144
		c-0.594,0.99-1.674,1.603-2.845,1.603c-1.818,0-3.331-1.458-3.421-3.385h7.238c0.234,0,0.432-0.162,0.432-0.396v-0.054v-0.019
		C283.191,420.803,281.39,419.003,279.122,419.003z M275.754,422.729c0.324-1.674,1.711-2.862,3.367-2.862
		c1.621,0,3.025,1.206,3.313,2.862H275.754z"/>
	<path fill="#FFFFFF" d="M298.833,424.224v-4.807c0-0.252-0.198-0.433-0.45-0.433c-0.216,0-0.432,0.181-0.432,0.433v4.807
		c0,1.513-1.225,2.72-2.737,2.737c-1.495-0.018-2.701-1.225-2.701-2.737v-4.807c0-0.252-0.198-0.433-0.432-0.433
		c-0.234,0-0.432,0.181-0.432,0.433v4.807c0,1.981,1.584,3.602,3.565,3.602C297.23,427.825,298.833,426.205,298.833,424.224z"/>
	<path fill="#FFFFFF" d="M308.768,425.341c0-0.738-0.414-1.423-0.99-1.801c-0.612-0.342-1.296-0.595-2.143-0.721h-0.036
		c-0.81-0.126-1.404-0.342-1.8-0.611c-0.342-0.271-0.504-0.522-0.504-0.883s0.198-0.72,0.558-1.008
		c0.378-0.307,0.955-0.505,1.675-0.505c0.864,0,1.512,0.45,2.161,0.883c0.198,0.126,0.468,0.071,0.594-0.126
		c0.126-0.198,0.072-0.469-0.126-0.612c-0.685-0.433-1.495-0.954-2.629-0.954c-0.9,0-1.639,0.233-2.161,0.594
		c-0.558,0.414-0.955,1.026-0.955,1.729c0,0.685,0.396,1.261,0.955,1.585c0.504,0.359,1.207,0.54,1.999,0.684l0.036,0.019
		c0.864,0.144,1.494,0.359,1.873,0.647c0.45,0.379,0.612,0.667,0.63,1.081c0,0.396-0.234,0.792-0.666,1.08
		c-0.396,0.324-0.99,0.54-1.674,0.54c-1.117,0-2.089-0.576-2.701-1.026c-0.198-0.162-0.468-0.126-0.612,0.054
		c-0.144,0.181-0.126,0.414,0.054,0.576c0.72,0.576,1.836,1.243,3.259,1.261c0.864,0,1.584-0.252,2.196-0.702
		C308.354,426.673,308.768,426.079,308.768,425.341z"/>
	<path fill="#FFFFFF" d="M319.623,423.18v-0.054v-0.019c-0.18-2.305-1.981-4.104-4.25-4.104c-2.376,0-4.285,1.98-4.285,4.429
		c0,2.413,1.909,4.394,4.285,4.394c1.495,0,2.809-0.792,3.565-1.999c0.126-0.216,0.054-0.468-0.144-0.611
		c-0.18-0.108-0.45-0.072-0.576,0.144c-0.594,0.99-1.674,1.603-2.845,1.603c-1.818,0-3.331-1.458-3.421-3.385h7.238
		C319.424,423.576,319.623,423.414,319.623,423.18z M312.006,422.729c0.324-1.674,1.71-2.862,3.367-2.862
		c1.621,0,3.025,1.206,3.313,2.862H312.006z"/>
	<path fill="#FFFFFF" d="M329.124,415.294c-0.216,0-0.432,0.216-0.432,0.432v3.277h-1.098c-0.432,0-0.432,0.216-0.432,0.432
		s0,0.433,0.432,0.433h1.098v6.428c0,0.882,0.667,1.53,1.548,1.53c0.216,0,0.45-0.216,0.45-0.432c0-0.217-0.234-0.45-0.45-0.45
		c-0.216,0-0.648-0.217-0.648-0.648v-6.428h1.134c0.216,0,0.432-0.217,0.432-0.433s-0.216-0.432-0.432-0.432h-1.134v-3.277
		C329.592,415.51,329.358,415.294,329.124,415.294z"/>
	<path fill="#FFFFFF" d="M335.406,427.825h0.036c0.018,0,0.036-0.018,0.036-0.018c0.126-0.036,0.216-0.108,0.27-0.217
		c0.018-0.018,0.018-0.036,0.036-0.071c0-0.019,0.018-0.036,0.018-0.072v-0.054v-4.916c0-1.549,1.26-2.593,2.791-2.593
		c1.548,0,2.809,1.044,2.809,2.593v4.916c0,0.233,0.198,0.432,0.432,0.432c0.252,0,0.45-0.198,0.45-0.432v-4.916
		c0-2.034-1.656-3.475-3.691-3.475c-1.116,0-2.125,0.504-2.791,1.296v-4.646c0-0.233-0.198-0.432-0.45-0.432
		c-0.234,0-0.432,0.198-0.432,0.432v6.681v0.144v4.916c0,0.054,0,0.09,0.018,0.144s0.036,0.09,0.072,0.144
		c0.09,0.091,0.216,0.145,0.342,0.145H335.406z"/>
	<path fill="#FFFFFF" d="M353.858,423.18v-0.054v-0.019c-0.18-2.305-1.981-4.104-4.25-4.104c-2.376,0-4.285,1.98-4.285,4.429
		c0,2.413,1.909,4.394,4.285,4.394c1.495,0,2.809-0.792,3.565-1.999c0.126-0.216,0.054-0.468-0.144-0.611
		c-0.18-0.108-0.45-0.072-0.576,0.144c-0.594,0.99-1.674,1.603-2.845,1.603c-1.818,0-3.331-1.458-3.421-3.385h7.238
		C353.66,423.576,353.858,423.414,353.858,423.18z M346.241,422.729c0.324-1.674,1.71-2.862,3.367-2.862
		c1.621,0,3.025,1.206,3.313,2.862H346.241z"/>
	<path fill="#FFFFFF" d="M362.874,415.222c-0.234,0-0.433,0.198-0.433,0.432v11.74c0,0.233,0.198,0.432,0.433,0.432
		c0.252,0,0.45-0.198,0.45-0.432v-11.74C363.323,415.42,363.125,415.222,362.874,415.222z"/>
	<path fill="#FFFFFF" d="M373.765,419.003c-0.234,0-0.432,0.18-0.432,0.432v1.297c-0.756-1.045-1.962-1.729-3.313-1.729
		c-2.323,0-4.177,1.998-4.177,4.411c0,2.412,1.854,4.411,4.177,4.411c1.351,0,2.557-0.702,3.313-1.746v1.314
		c0,0.233,0.198,0.432,0.432,0.432s0.432-0.198,0.432-0.432v-7.959C374.197,419.183,373.999,419.003,373.765,419.003z
		 M370.02,426.961c-1.801,0-3.313-1.566-3.313-3.547s1.512-3.565,3.313-3.565c1.818,0,3.313,1.585,3.313,3.565
		S371.838,426.961,370.02,426.961z"/>
	<path fill="#FFFFFF" d="M380.099,426.943c-0.216,0-0.648-0.217-0.648-0.648v-6.428h1.134c0.216,0,0.432-0.217,0.432-0.433
		s-0.216-0.432-0.432-0.432h-1.134v-3.277c0-0.216-0.234-0.432-0.468-0.432c-0.216,0-0.432,0.216-0.432,0.432v3.277h-1.098
		c-0.432,0-0.432,0.216-0.432,0.432s0,0.433,0.432,0.433h1.098v6.428c0,0.882,0.667,1.53,1.548,1.53c0.216,0,0.45-0.216,0.45-0.432
		C380.549,427.177,380.315,426.943,380.099,426.943z"/>
	<path fill="#FFFFFF" d="M391.639,425.826c0.126-0.216,0.054-0.468-0.144-0.611c-0.18-0.108-0.45-0.072-0.576,0.144
		c-0.594,0.99-1.674,1.603-2.845,1.603c-1.818,0-3.331-1.458-3.421-3.385h7.238c0.234,0,0.432-0.162,0.432-0.396v-0.054v-0.019
		c-0.18-2.305-1.98-4.104-4.249-4.104c-2.377,0-4.285,1.98-4.285,4.429c0,2.413,1.908,4.394,4.285,4.394
		C389.568,427.825,390.882,427.033,391.639,425.826z M388.074,419.867c1.621,0,3.025,1.206,3.313,2.862h-6.68
		C385.031,421.056,386.417,419.867,388.074,419.867z"/>
	<path fill="#FFFFFF" d="M400.296,423.54c-0.612-0.342-1.296-0.595-2.143-0.721h-0.036c-0.81-0.126-1.404-0.342-1.8-0.611
		c-0.342-0.271-0.504-0.522-0.504-0.883s0.198-0.72,0.558-1.008c0.378-0.307,0.955-0.505,1.675-0.505
		c0.864,0,1.512,0.45,2.161,0.883c0.198,0.126,0.468,0.071,0.594-0.126c0.126-0.198,0.072-0.469-0.126-0.612
		c-0.685-0.433-1.495-0.954-2.629-0.954c-0.9,0-1.639,0.233-2.161,0.594c-0.558,0.414-0.955,1.026-0.955,1.729
		c0,0.685,0.396,1.261,0.955,1.585c0.504,0.359,1.207,0.54,1.999,0.684l0.036,0.019c0.864,0.144,1.494,0.359,1.873,0.647
		c0.45,0.379,0.612,0.667,0.63,1.081c0,0.396-0.234,0.792-0.666,1.08c-0.396,0.324-0.99,0.54-1.674,0.54
		c-1.117,0-2.089-0.576-2.701-1.026c-0.198-0.162-0.468-0.126-0.612,0.054c-0.144,0.181-0.126,0.414,0.054,0.576
		c0.72,0.576,1.836,1.243,3.259,1.261c0.864,0,1.584-0.252,2.196-0.702c0.594-0.45,1.008-1.044,1.008-1.782
		S400.872,423.918,400.296,423.54z"/>
	<path fill="#FFFFFF" d="M405.119,426.295c0,0.882,0.666,1.53,1.548,1.53c0.216,0,0.45-0.216,0.45-0.432
		c0-0.217-0.234-0.45-0.45-0.45c-0.216,0-0.648-0.217-0.648-0.648v-6.428h1.134c0.216,0,0.432-0.217,0.432-0.433
		s-0.216-0.432-0.432-0.432h-1.134v-3.277c0-0.216-0.234-0.432-0.468-0.432c-0.216,0-0.432,0.216-0.432,0.432v3.277h-1.098
		c-0.432,0-0.432,0.216-0.432,0.432s0,0.433,0.432,0.433h1.098V426.295z"/>
	<path fill="#FFFFFF" d="M420.023,427.789c0.018,0.019,0.018,0.019,0.036,0.019c0.054,0.018,0.09,0.018,0.144,0.018
		c0.09,0,0.216-0.036,0.288-0.126c0.054-0.072,0.09-0.145,0.108-0.216l3.295-7.814c0.09-0.216,0-0.469-0.216-0.559
		c-0.216-0.09-0.486,0.019-0.558,0.234l-2.935,6.95l-2.935-6.95c-0.072-0.216-0.342-0.324-0.558-0.234
		c-0.198,0.09-0.306,0.343-0.216,0.559l3.313,7.886c0.036,0.091,0.09,0.145,0.144,0.198
		C419.969,427.771,419.987,427.789,420.023,427.789z"/>
	<path fill="#FFFFFF" d="M434.946,423.18v-0.054v-0.019c-0.18-2.305-1.98-4.104-4.249-4.104c-2.377,0-4.285,1.98-4.285,4.429
		c0,2.413,1.908,4.394,4.285,4.394c1.495,0,2.809-0.792,3.565-1.999c0.126-0.216,0.054-0.468-0.144-0.611
		c-0.18-0.108-0.45-0.072-0.576,0.144c-0.594,0.99-1.674,1.603-2.845,1.603c-1.818,0-3.331-1.458-3.421-3.385h7.238
		C434.748,423.576,434.946,423.414,434.946,423.18z M427.33,422.729c0.324-1.674,1.711-2.862,3.367-2.862
		c1.621,0,3.025,1.206,3.313,2.862H427.33z"/>
	<path fill="#FFFFFF" d="M438.076,419.021c-0.252,0-0.45,0.18-0.45,0.433v7.94c0,0.252,0.198,0.432,0.45,0.432
		c0.216,0,0.414-0.18,0.414-0.432v-3.872c0-0.035,0-0.071,0.036-0.144c0.126-0.36,0.468-1.261,1.063-2.053
		c0.612-0.792,1.404-1.44,2.557-1.44c0.234,0,0.432-0.198,0.432-0.432c0-0.253-0.198-0.433-0.432-0.433
		c-1.692,0-2.863,1.116-3.529,2.161c-0.054,0.071-0.09,0.144-0.126,0.216v-1.944C438.49,419.2,438.292,419.021,438.076,419.021z"/>
	<path fill="#FFFFFF" d="M450.443,423.54c-0.612-0.342-1.296-0.595-2.143-0.721h-0.036c-0.81-0.126-1.404-0.342-1.8-0.611
		c-0.342-0.271-0.504-0.522-0.504-0.883s0.198-0.72,0.559-1.008c0.378-0.307,0.954-0.505,1.674-0.505
		c0.864,0,1.512,0.45,2.161,0.883c0.198,0.126,0.468,0.071,0.594-0.126c0.126-0.198,0.072-0.469-0.126-0.612
		c-0.685-0.433-1.495-0.954-2.629-0.954c-0.9,0-1.639,0.233-2.161,0.594c-0.558,0.414-0.954,1.026-0.954,1.729
		c0,0.685,0.396,1.261,0.954,1.585c0.504,0.359,1.206,0.54,1.999,0.684l0.036,0.019c0.864,0.144,1.494,0.359,1.873,0.647
		c0.45,0.379,0.612,0.667,0.63,1.081c0,0.396-0.234,0.792-0.666,1.08c-0.396,0.324-0.99,0.54-1.674,0.54
		c-1.117,0-2.089-0.576-2.701-1.026c-0.198-0.162-0.468-0.126-0.612,0.054c-0.144,0.181-0.126,0.414,0.054,0.576
		c0.72,0.576,1.837,1.243,3.259,1.261c0.864,0,1.584-0.252,2.196-0.702c0.594-0.45,1.008-1.044,1.008-1.782
		S451.019,423.918,450.443,423.54z"/>
	<path fill="#FFFFFF" d="M454.833,417.437c0.252,0,0.45-0.217,0.45-0.469v-0.414c0-0.234-0.198-0.432-0.45-0.432
		c-0.234,0-0.432,0.197-0.432,0.432v0.414C454.401,417.22,454.6,417.437,454.833,417.437z"/>
	<path fill="#FFFFFF" d="M454.401,427.394c0,0.233,0.198,0.432,0.432,0.432c0.252,0,0.45-0.198,0.45-0.432v-7.959
		c0-0.252-0.198-0.432-0.45-0.432c-0.234,0-0.432,0.18-0.432,0.432V427.394z"/>
	<path fill="#FFFFFF" d="M467.382,423.414c0-2.395-1.854-4.411-4.177-4.411c-2.305,0-4.177,2.017-4.177,4.411
		s1.873,4.411,4.177,4.411C465.527,427.825,467.382,425.809,467.382,423.414z M459.892,423.414c0-1.963,1.513-3.565,3.313-3.565
		c1.801,0,3.313,1.603,3.313,3.565c0,1.962-1.512,3.547-3.313,3.547C461.404,426.961,459.892,425.376,459.892,423.414z"/>
	<path fill="#FFFFFF" d="M476.994,422.604v4.79c0,0.252,0.198,0.432,0.432,0.432c0.234,0,0.432-0.18,0.432-0.432v-4.79
		c0-1.963-1.603-3.583-3.583-3.583c-1.099,0-2.089,0.504-2.737,1.278v-0.846c0-0.234-0.18-0.433-0.414-0.433
		c-0.252,0-0.432,0.198-0.432,0.433v3.007v0.144v4.79v0.107c0,0,0.018,0.019,0.018,0.036s0,0.036,0.018,0.054
		c0.054,0.108,0.162,0.198,0.288,0.234h0.108c0.126,0,0.252-0.054,0.324-0.162c0.054-0.054,0.072-0.126,0.09-0.198v-0.071v-4.79
		c0.036-1.494,1.243-2.719,2.737-2.719C475.787,419.885,476.994,421.109,476.994,422.604z"/>
	<path fill="#FFFFFF" d="M490.888,419.003c-2.305,0-4.177,2.017-4.177,4.411s1.873,4.411,4.177,4.411
		c2.323,0,4.177-2.017,4.177-4.411S493.211,419.003,490.888,419.003z M490.888,426.961c-1.8,0-3.313-1.585-3.313-3.547
		c0-1.963,1.513-3.565,3.313-3.565c1.801,0,3.313,1.603,3.313,3.565C494.201,425.376,492.689,426.961,490.888,426.961z"/>
	<path fill="#FFFFFF" d="M498.844,427.411c0,0.234,0.198,0.432,0.45,0.432c0.234,0,0.432-0.197,0.432-0.432v-7.67h1.242
		c0.252,0,0.45-0.198,0.45-0.45c0-0.234-0.198-0.433-0.45-0.433h-1.242v-0.937c0-0.81,0.162-1.242,0.36-1.458
		c0.18-0.216,0.504-0.342,1.116-0.342c0.234,0,0.432-0.198,0.432-0.433c0-0.252-0.198-0.45-0.432-0.45
		c-0.702,0-1.35,0.162-1.782,0.631c-0.414,0.485-0.558,1.152-0.576,2.052v0.937h-1.17c-0.234,0-0.432,0.198-0.432,0.433
		c0,0.252,0.198,0.45,0.432,0.45h1.17V427.411z"/>
	<path fill="#FFFFFF" d="M519.978,425.826c-0.126-0.216-0.414-0.252-0.63-0.107c-0.936,0.792-2.161,1.225-3.493,1.225
		c-3.151,0-5.671-2.467-5.671-5.474c0-3.079,2.521-5.546,5.671-5.546c1.333,0,2.557,0.468,3.529,1.225
		c0.18,0.144,0.468,0.126,0.612-0.091c0.162-0.162,0.126-0.468-0.072-0.63c-1.098-0.847-2.521-1.387-4.069-1.387
		c-3.619,0.019-6.554,2.845-6.554,6.429c0,3.511,2.935,6.355,6.554,6.355c1.549,0,2.971-0.522,4.069-1.368
		C520.122,426.313,520.158,425.988,519.978,425.826z"/>
	<path fill="#FFFFFF" d="M530.903,427.394v-4.916c0-2.034-1.656-3.475-3.691-3.475c-1.116,0-2.125,0.504-2.791,1.296v-4.646
		c0-0.233-0.198-0.432-0.45-0.432c-0.234,0-0.432,0.198-0.432,0.432v6.681v0.144v4.916c0,0.054,0,0.09,0.018,0.144
		s0.036,0.09,0.072,0.144c0.09,0.091,0.216,0.145,0.342,0.145h0.054h0.036c0.018,0,0.036-0.018,0.036-0.018
		c0.126-0.036,0.216-0.108,0.27-0.217c0.018-0.018,0.018-0.036,0.036-0.071c0-0.019,0.018-0.036,0.018-0.072v-0.054v-4.916
		c0-1.549,1.26-2.593,2.791-2.593c1.548,0,2.809,1.044,2.809,2.593v4.916c0,0.233,0.198,0.432,0.432,0.432
		C530.705,427.825,530.903,427.627,530.903,427.394z"/>
	<path fill="#FFFFFF" d="M539.092,419.021c-1.692,0-2.863,1.116-3.529,2.161c-0.054,0.071-0.09,0.144-0.126,0.216v-1.944
		c0-0.253-0.198-0.433-0.414-0.433c-0.252,0-0.45,0.18-0.45,0.433v7.94c0,0.252,0.198,0.432,0.45,0.432
		c0.216,0,0.414-0.18,0.414-0.432v-3.872c0-0.035,0-0.071,0.036-0.144c0.126-0.36,0.468-1.261,1.063-2.053
		c0.612-0.792,1.404-1.44,2.557-1.44c0.234,0,0.432-0.198,0.432-0.432C539.524,419.2,539.326,419.021,539.092,419.021z"/>
	<path fill="#FFFFFF" d="M545.788,427.825c2.323,0,4.177-2.017,4.177-4.411s-1.854-4.411-4.177-4.411
		c-2.305,0-4.177,2.017-4.177,4.411S543.483,427.825,545.788,427.825z M545.788,419.849c1.801,0,3.313,1.603,3.313,3.565
		c0,1.962-1.512,3.547-3.313,3.547c-1.8,0-3.313-1.585-3.313-3.547C542.475,421.451,543.987,419.849,545.788,419.849z"/>
	<path fill="#FFFFFF" d="M563.16,419.021c-1.351,0-2.539,0.756-3.169,1.873c-0.612-1.117-1.782-1.873-3.151-1.873
		c-1.098,0-2.07,0.486-2.719,1.261v-0.847c0-0.234-0.18-0.414-0.432-0.414c-0.216,0-0.415,0.18-0.415,0.414v3.025v0.144v4.808v0.09
		c0.054,0.162,0.198,0.307,0.36,0.324h0.054h0.054c0.036,0,0.054,0,0.072-0.018c0.036,0,0.09-0.036,0.108-0.055
		c0.126-0.072,0.198-0.198,0.198-0.342v-4.808c0-1.494,1.207-2.736,2.719-2.736c1.513,0,2.719,1.242,2.719,2.736v4.808v0.036v0.054
		c0.019,0.019,0.019,0.036,0.019,0.054c0.018,0.019,0.018,0.036,0.018,0.036c0.019,0.019,0.019,0.019,0.019,0.036
		c0.018,0,0.018,0.019,0.036,0.036l0.054,0.054c0.018,0.019,0.036,0.036,0.054,0.036c0.036,0.019,0.072,0.055,0.108,0.055
		c0,0,0.018,0.018,0.036,0.018h0.036h0.054c0.072,0,0.144-0.018,0.216-0.054c0.09-0.055,0.18-0.126,0.216-0.234v-0.036
		c0,0,0.019-0.018,0.019-0.036v-0.054v-4.808c0-1.494,1.225-2.736,2.719-2.736c1.513,0,2.701,1.242,2.736,2.736v4.808
		c0,0.216,0.181,0.414,0.414,0.414c0.253,0,0.433-0.198,0.433-0.414v-4.808C566.743,420.623,565.14,419.021,563.16,419.021z"/>
	<path fill="#FFFFFF" d="M577.613,425.826c0.126-0.216,0.054-0.468-0.144-0.611c-0.181-0.108-0.45-0.072-0.576,0.144
		c-0.595,0.99-1.675,1.603-2.845,1.603c-1.819,0-3.331-1.458-3.422-3.385h7.238c0.234,0,0.433-0.162,0.433-0.396v-0.054v-0.019
		c-0.181-2.305-1.98-4.104-4.249-4.104c-2.377,0-4.286,1.98-4.286,4.429c0,2.413,1.909,4.394,4.286,4.394
		C575.542,427.825,576.857,427.033,577.613,425.826z M574.048,419.867c1.62,0,3.024,1.206,3.313,2.862h-6.68
		C571.005,421.056,572.391,419.867,574.048,419.867z"/>
	<path fill="#FFFFFF" d="M581.571,426.223c-0.342,0-0.594,0.252-0.594,0.595v0.378c0,0.359,0.216,0.558,0.486,0.63
		c0.054,0.63-0.198,1.026-0.847,1.387c-0.09,0.054-0.144,0.144-0.144,0.233c0,0.181,0.144,0.271,0.27,0.271
		c0.162,0,0.612-0.252,0.937-0.576s0.486-0.864,0.486-1.873v-0.449C582.166,426.475,581.914,426.223,581.571,426.223z"/>
	<path fill="#FFFFFF" d="M232.089,436.821h-6.446h-0.072c-0.234,0.018-0.414,0.198-0.414,0.432v11.74
		c0,0.233,0.198,0.432,0.432,0.432c0.252,0,0.45-0.198,0.45-0.432v-5.42h5.293c0.252,0,0.45-0.198,0.45-0.433
		c0-0.252-0.198-0.45-0.45-0.45h-5.293v-4.987h6.05c0.234,0,0.432-0.198,0.432-0.45C232.521,437.02,232.323,436.821,232.089,436.821
		z"/>
	<path fill="#FFFFFF" d="M236.299,440.603c-0.234,0-0.432,0.18-0.432,0.432v7.959c0,0.233,0.198,0.432,0.432,0.432
		c0.252,0,0.45-0.198,0.45-0.432v-7.959C236.749,440.782,236.551,440.603,236.299,440.603z"/>
	<path fill="#FFFFFF" d="M236.299,437.722c-0.234,0-0.432,0.197-0.432,0.432v0.414c0,0.252,0.198,0.469,0.432,0.469
		c0.252,0,0.45-0.217,0.45-0.469v-0.414C236.749,437.919,236.551,437.722,236.299,437.722z"/>
	<path fill="#FFFFFF" d="M245.426,440.62c-1.692,0-2.863,1.116-3.529,2.161c-0.054,0.071-0.09,0.144-0.126,0.216v-1.944
		c0-0.253-0.198-0.433-0.414-0.433c-0.252,0-0.45,0.18-0.45,0.433v7.94c0,0.252,0.198,0.432,0.45,0.432
		c0.216,0,0.414-0.18,0.414-0.432v-3.872c0-0.035,0-0.071,0.036-0.144c0.126-0.36,0.468-1.261,1.063-2.053
		c0.612-0.792,1.404-1.44,2.557-1.44c0.234,0,0.432-0.198,0.432-0.432C245.858,440.8,245.66,440.62,245.426,440.62z"/>
	<path fill="#FFFFFF" d="M251.563,440.603c-2.376,0-4.285,1.98-4.285,4.429c0,2.413,1.909,4.394,4.285,4.394
		c1.495,0,2.809-0.792,3.565-1.999c0.126-0.216,0.054-0.468-0.144-0.611c-0.18-0.108-0.45-0.072-0.576,0.144
		c-0.594,0.99-1.674,1.603-2.845,1.603c-1.818,0-3.331-1.458-3.421-3.385h7.238c0.234,0,0.433-0.162,0.433-0.396v-0.054v-0.019
		C255.633,442.402,253.832,440.603,251.563,440.603z M248.196,444.329c0.324-1.674,1.71-2.862,3.367-2.862
		c1.621,0,3.025,1.206,3.313,2.862H248.196z"/>
	<path fill="#FFFFFF" d="M262.327,436.839c-0.702,0-1.35,0.162-1.782,0.631c-0.414,0.485-0.558,1.152-0.576,2.052v0.937h-1.17
		c-0.234,0-0.432,0.198-0.432,0.433c0,0.252,0.198,0.45,0.432,0.45h1.17v7.67c0,0.234,0.198,0.432,0.45,0.432
		c0.234,0,0.432-0.197,0.432-0.432v-7.67h1.242c0.252,0,0.45-0.198,0.45-0.45c0-0.234-0.198-0.433-0.45-0.433h-1.242v-0.937
		c0-0.81,0.162-1.242,0.36-1.458c0.18-0.216,0.504-0.342,1.116-0.342c0.234,0,0.432-0.198,0.432-0.433
		C262.759,437.037,262.562,436.839,262.327,436.839z"/>
	<path fill="#FFFFFF" d="M268.934,440.603c-2.305,0-4.177,2.017-4.177,4.411s1.873,4.411,4.177,4.411
		c2.323,0,4.177-2.017,4.177-4.411S271.256,440.603,268.934,440.603z M268.934,448.561c-1.8,0-3.313-1.585-3.313-3.547
		c0-1.963,1.513-3.565,3.313-3.565c1.801,0,3.313,1.603,3.313,3.565C272.247,446.976,270.734,448.561,268.934,448.561z"/>
	<path fill="#FFFFFF" d="M281.805,440.729c-0.162-0.126-0.432-0.091-0.576,0.107l-2.539,3.476l-2.557-3.476
		c-0.126-0.198-0.414-0.233-0.594-0.107c-0.18,0.144-0.216,0.396-0.09,0.612l2.701,3.709l-2.701,3.69
		c-0.126,0.198-0.09,0.45,0.09,0.595c0.09,0.054,0.18,0.09,0.252,0.09c0.126,0,0.271-0.054,0.342-0.18l2.557-3.476l2.539,3.476
		c0.072,0.126,0.216,0.18,0.36,0.18c0.072,0,0.162-0.036,0.216-0.09c0.216-0.145,0.252-0.396,0.126-0.595l-2.719-3.69l2.719-3.709
		C282.057,441.124,282.021,440.872,281.805,440.729z"/>
	<path fill="#FFFFFF" d="M286.447,447.822c-0.342,0-0.594,0.252-0.594,0.595v0.378c0,0.359,0.216,0.558,0.486,0.63
		c0.054,0.63-0.198,1.026-0.846,1.387c-0.09,0.054-0.144,0.144-0.144,0.233c0,0.181,0.144,0.271,0.27,0.271
		c0.162,0,0.612-0.252,0.937-0.576s0.486-0.864,0.486-1.873v-0.449C287.041,448.074,286.789,447.822,286.447,447.822z"/>
	<path fill="#FFFFFF" d="M299.354,440.603c-2.305,0-4.177,2.017-4.177,4.411s1.873,4.411,4.177,4.411
		c2.323,0,4.177-2.017,4.177-4.411S301.676,440.603,299.354,440.603z M299.354,448.561c-1.8,0-3.313-1.585-3.313-3.547
		c0-1.963,1.513-3.565,3.313-3.565c1.801,0,3.313,1.603,3.313,3.565C302.667,446.976,301.154,448.561,299.354,448.561z"/>
	<path fill="#FFFFFF" d="M311,440.62c-1.692,0-2.863,1.116-3.529,2.161c-0.054,0.071-0.09,0.144-0.126,0.216v-1.944
		c0-0.253-0.198-0.433-0.414-0.433c-0.252,0-0.45,0.18-0.45,0.433v7.94c0,0.252,0.198,0.432,0.45,0.432
		c0.216,0,0.414-0.18,0.414-0.432v-3.872c0-0.035,0-0.071,0.036-0.144c0.126-0.36,0.468-1.261,1.063-2.053
		c0.612-0.792,1.404-1.44,2.557-1.44c0.234,0,0.432-0.198,0.432-0.432C311.432,440.8,311.234,440.62,311,440.62z"/>
	<path fill="#FFFFFF" d="M325.508,436.641c-3.403,0-6.068,2.863-6.086,6.393c0.018,3.528,2.683,6.392,6.086,6.392
		c3.367,0,6.014-2.863,6.032-6.392C331.522,439.504,328.875,436.641,325.508,436.641z M325.508,448.543
		c-2.863,0-5.204-2.431-5.204-5.51c0-3.115,2.34-5.492,5.204-5.492c2.772,0,5.113,2.377,5.131,5.492
		C330.622,446.112,328.281,448.543,325.508,448.543z"/>
	<path fill="#FFFFFF" d="M339.313,440.603c-1.369,0-2.593,0.684-3.349,1.71v-1.278c0-0.234-0.198-0.432-0.45-0.432
		c-0.234,0-0.432,0.197-0.432,0.432v3.764v0.18v0.18v7.526c0,0.234,0.198,0.433,0.432,0.433c0.252,0,0.45-0.198,0.45-0.433v-5.041
		c0.756,1.044,1.98,1.729,3.349,1.729c2.376,0,4.267-1.999,4.267-4.394C343.581,442.564,341.69,440.603,339.313,440.603z
		 M339.313,448.507c-1.818-0.019-3.349-1.585-3.349-3.529v-0.145c0.072-1.872,1.566-3.349,3.349-3.349
		c1.873,0,3.385,1.549,3.385,3.493S341.186,448.488,339.313,448.507z"/>
	<path fill="#FFFFFF" d="M350.437,440.603c-2.377,0-4.285,1.98-4.285,4.429c0,2.413,1.908,4.394,4.285,4.394
		c1.495,0,2.809-0.792,3.565-1.999c0.126-0.216,0.054-0.468-0.144-0.611c-0.18-0.108-0.45-0.072-0.576,0.144
		c-0.594,0.99-1.674,1.603-2.845,1.603c-1.818,0-3.331-1.458-3.421-3.385h7.238c0.234,0,0.432-0.162,0.432-0.396v-0.054v-0.019
		C354.506,442.402,352.706,440.603,350.437,440.603z M347.07,444.329c0.324-1.674,1.711-2.862,3.367-2.862
		c1.621,0,3.025,1.206,3.313,2.862H347.07z"/>
	<path fill="#FFFFFF" d="M361.885,440.62c-1.692,0-2.863,1.116-3.529,2.161c-0.054,0.071-0.09,0.144-0.126,0.216v-1.944
		c0-0.253-0.198-0.433-0.414-0.433c-0.252,0-0.45,0.18-0.45,0.433v7.94c0,0.252,0.198,0.432,0.45,0.432
		c0.216,0,0.414-0.18,0.414-0.432v-3.872c0-0.035,0-0.071,0.036-0.144c0.126-0.36,0.468-1.261,1.063-2.053
		c0.612-0.792,1.404-1.44,2.557-1.44c0.234,0,0.432-0.198,0.432-0.432C362.317,440.8,362.119,440.62,361.885,440.62z"/>
	<path fill="#FFFFFF" d="M371.786,440.603c-0.234,0-0.432,0.18-0.432,0.432v1.297c-0.756-1.045-1.962-1.729-3.313-1.729
		c-2.323,0-4.177,1.998-4.177,4.411c0,2.412,1.854,4.411,4.177,4.411c1.351,0,2.557-0.702,3.313-1.746v1.314
		c0,0.233,0.198,0.432,0.432,0.432s0.432-0.198,0.432-0.432v-7.959C372.218,440.782,372.02,440.603,371.786,440.603z
		 M368.041,448.561c-1.8,0-3.313-1.566-3.313-3.547s1.513-3.565,3.313-3.565c1.818,0,3.313,1.585,3.313,3.565
		S369.859,448.561,368.041,448.561z"/>
	<path fill="#FFFFFF" d="M384.006,440.603h-1.134v-3.277c0-0.216-0.234-0.432-0.468-0.432c-0.216,0-0.432,0.216-0.432,0.432v3.277
		h-1.098c-0.432,0-0.432,0.216-0.432,0.432s0,0.433,0.432,0.433h1.098v6.428c0,0.882,0.667,1.53,1.548,1.53
		c0.216,0,0.45-0.216,0.45-0.432c0-0.217-0.234-0.45-0.45-0.45c-0.216,0-0.648-0.217-0.648-0.648v-6.428h1.134
		c0.216,0,0.432-0.217,0.432-0.433S384.222,440.603,384.006,440.603z"/>
	<path fill="#FFFFFF" d="M392.052,440.603c-2.305,0-4.177,2.017-4.177,4.411s1.873,4.411,4.177,4.411
		c2.323,0,4.177-2.017,4.177-4.411S394.375,440.603,392.052,440.603z M392.052,448.561c-1.8,0-3.313-1.585-3.313-3.547
		c0-1.963,1.513-3.565,3.313-3.565c1.801,0,3.313,1.603,3.313,3.565C395.365,446.976,393.853,448.561,392.052,448.561z"/>
	<path fill="#FFFFFF" d="M411.511,440.71c-0.216-0.09-0.486,0.019-0.558,0.234l-2.935,6.95l-2.935-6.95
		c-0.072-0.216-0.342-0.324-0.558-0.234c-0.198,0.09-0.306,0.343-0.216,0.559l3.313,7.886c0.036,0.091,0.09,0.145,0.144,0.198
		c0.036,0.019,0.054,0.036,0.09,0.036c0.018,0.019,0.018,0.019,0.036,0.019c0.054,0.018,0.09,0.018,0.144,0.018
		c0.09,0,0.216-0.036,0.288-0.126c0.054-0.072,0.09-0.145,0.108-0.216l3.295-7.814C411.817,441.053,411.727,440.8,411.511,440.71z"
		/>
	<path fill="#FFFFFF" d="M415.865,437.722c-0.234,0-0.432,0.197-0.432,0.432v0.414c0,0.252,0.198,0.469,0.432,0.469
		c0.252,0,0.45-0.217,0.45-0.469v-0.414C416.315,437.919,416.117,437.722,415.865,437.722z"/>
	<path fill="#FFFFFF" d="M415.865,440.603c-0.234,0-0.432,0.18-0.432,0.432v7.959c0,0.233,0.198,0.432,0.432,0.432
		c0.252,0,0.45-0.198,0.45-0.432v-7.959C416.315,440.782,416.117,440.603,415.865,440.603z"/>
	<path fill="#FFFFFF" d="M424.128,440.603c-2.376,0-4.285,1.98-4.285,4.429c0,2.413,1.909,4.394,4.285,4.394
		c1.495,0,2.809-0.792,3.565-1.999c0.126-0.216,0.054-0.468-0.144-0.611c-0.18-0.108-0.45-0.072-0.576,0.144
		c-0.594,0.99-1.674,1.603-2.845,1.603c-1.818,0-3.331-1.458-3.421-3.385h7.238c0.234,0,0.433-0.162,0.433-0.396v-0.054v-0.019
		C428.197,442.402,426.396,440.603,424.128,440.603z M420.761,444.329c0.324-1.674,1.71-2.862,3.367-2.862
		c1.621,0,3.025,1.206,3.313,2.862H420.761z"/>
	<path fill="#FFFFFF" d="M442.544,440.71c-0.198-0.09-0.468,0.019-0.558,0.234l-2.917,6.95l-2.035-4.844
		c-0.072-0.162-0.252-0.27-0.432-0.27c-0.162,0-0.342,0.107-0.414,0.27l-2.035,4.844l-2.935-6.95
		c-0.072-0.216-0.342-0.324-0.558-0.234c-0.198,0.09-0.306,0.343-0.216,0.559l3.313,7.886c0.036,0.091,0.09,0.162,0.18,0.198
		c0.018,0.019,0.036,0.036,0.072,0.036c0.054,0.019,0.108,0.036,0.162,0.036c0.144,0,0.324-0.108,0.378-0.271
		c0-0.018,0.018-0.035,0.018-0.035l2.034-4.862l2.053,4.88l0.018,0.018c0.036,0.145,0.198,0.253,0.342,0.271h0.054h0.036
		c0.072,0,0.144-0.036,0.216-0.09c0.072-0.055,0.126-0.126,0.162-0.216l3.295-7.851C442.868,441.053,442.76,440.8,442.544,440.71z"
		/>
	<path fill="#FFFFFF" d="M455.646,440.603c-2.305,0-4.177,2.017-4.177,4.411s1.873,4.411,4.177,4.411
		c2.323,0,4.177-2.017,4.177-4.411S457.968,440.603,455.646,440.603z M455.646,448.561c-1.8,0-3.313-1.585-3.313-3.547
		c0-1.963,1.513-3.565,3.313-3.565c1.801,0,3.313,1.603,3.313,3.565C458.958,446.976,457.446,448.561,455.646,448.561z"/>
	<path fill="#FFFFFF" d="M469.398,440.584c-0.216,0-0.432,0.181-0.432,0.433v4.807c0,1.513-1.225,2.72-2.737,2.737
		c-1.495-0.018-2.701-1.225-2.701-2.737v-4.807c0-0.252-0.198-0.433-0.432-0.433c-0.234,0-0.432,0.181-0.432,0.433v4.807
		c0,1.981,1.584,3.602,3.565,3.602c2.017,0,3.619-1.62,3.619-3.602v-4.807C469.849,440.765,469.65,440.584,469.398,440.584z"/>
	<path fill="#FFFFFF" d="M478.398,440.62c-1.692,0-2.863,1.116-3.529,2.161c-0.054,0.071-0.09,0.144-0.126,0.216v-1.944
		c0-0.253-0.198-0.433-0.414-0.433c-0.252,0-0.45,0.18-0.45,0.433v7.94c0,0.252,0.198,0.432,0.45,0.432
		c0.216,0,0.414-0.18,0.414-0.432v-3.872c0-0.035,0-0.071,0.036-0.144c0.126-0.36,0.468-1.261,1.063-2.053
		c0.612-0.792,1.404-1.44,2.557-1.44c0.234,0,0.432-0.198,0.432-0.432C478.83,440.8,478.632,440.62,478.398,440.62z"/>
	<path fill="#FFFFFF" d="M494.202,437.47c0.036-0.055,0.054-0.127,0.054-0.198c0-0.252-0.198-0.45-0.45-0.45h-5.888
		c-0.252,0-0.45,0.198-0.45,0.45s0.198,0.45,0.45,0.45h4.826l-3.133,3.223c-0.18,0.18-0.18,0.468,0,0.648h0.018
		c0.09,0.107,0.216,0.18,0.36,0.18c0.864,0,1.729,0.324,2.376,0.99c0.667,0.648,0.991,1.513,0.991,2.377s-0.324,1.729-0.991,2.395
		c-0.666,0.648-1.53,0.973-2.395,0.973s-1.71-0.324-2.376-0.973c-0.18-0.18-0.468-0.18-0.63,0c-0.18,0.18-0.18,0.468,0,0.63
		c0.828,0.847,1.926,1.261,3.007,1.261c1.098,0,2.197-0.432,3.025-1.261c0.846-0.828,1.26-1.926,1.26-3.024
		s-0.414-2.197-1.242-3.025c-0.612-0.611-1.369-0.99-2.161-1.152l3.259-3.349C494.148,437.577,494.184,437.523,494.202,437.47z"/>
	<path fill="#FFFFFF" d="M501.149,436.821h-2.305h-0.054c-0.234,0-0.432,0.198-0.432,0.432v11.74c0,0.233,0.18,0.414,0.396,0.432
		h0.072h2.323c3.475,0,6.302-2.809,6.302-6.284C507.451,439.666,504.624,436.821,501.149,436.821z M501.149,448.543h-1.909v-10.84
		h1.909c2.989,0.019,5.419,2.431,5.419,5.438C506.568,446.13,504.138,448.543,501.149,448.543z"/>
	<path fill="#FFFFFF" d="M528.061,440.71c-0.198-0.09-0.468,0.019-0.558,0.234l-2.917,6.95l-2.035-4.844
		c-0.072-0.162-0.252-0.27-0.432-0.27c-0.162,0-0.342,0.107-0.414,0.27l-2.035,4.844l-2.935-6.95
		c-0.072-0.216-0.342-0.324-0.558-0.234c-0.198,0.09-0.306,0.343-0.216,0.559l3.313,7.886c0.036,0.091,0.09,0.162,0.18,0.198
		c0.018,0.019,0.036,0.036,0.072,0.036c0.054,0.019,0.108,0.036,0.162,0.036c0.144,0,0.324-0.108,0.378-0.271
		c0-0.018,0.018-0.035,0.018-0.035l2.035-4.862l2.053,4.88l0.018,0.018c0.036,0.145,0.198,0.253,0.342,0.271h0.054h0.036
		c0.072,0,0.144-0.036,0.216-0.09c0.072-0.055,0.126-0.126,0.162-0.216l3.295-7.851C528.385,441.053,528.277,440.8,528.061,440.71z"
		/>
	<path fill="#FFFFFF" d="M534.575,440.603c-2.377,0-4.285,1.98-4.285,4.429c0,2.413,1.908,4.394,4.285,4.394
		c1.495,0,2.809-0.792,3.565-1.999c0.126-0.216,0.054-0.468-0.144-0.611c-0.18-0.108-0.45-0.072-0.576,0.144
		c-0.594,0.99-1.674,1.603-2.845,1.603c-1.818,0-3.331-1.458-3.421-3.385h7.238c0.234,0,0.432-0.162,0.432-0.396v-0.054v-0.019
		C538.644,442.402,536.843,440.603,534.575,440.603z M531.208,444.329c0.324-1.674,1.711-2.862,3.367-2.862
		c1.621,0,3.025,1.206,3.313,2.862H531.208z"/>
	<path fill="#FFFFFF" d="M546.148,440.603c-1.387,0-2.611,0.684-3.385,1.729v-5.078c0-0.233-0.198-0.432-0.45-0.432
		c-0.234,0-0.432,0.198-0.432,0.432v7.599v0.18v0.181v3.781c0,0.233,0.198,0.432,0.432,0.432c0.252,0,0.45-0.198,0.45-0.432v-1.279
		c0.774,1.045,1.999,1.711,3.385,1.711c2.376,0,4.267-1.98,4.267-4.394C550.416,442.583,548.525,440.603,546.148,440.603z
		 M546.148,448.543c-1.854,0-3.385-1.567-3.385-3.512v-0.144c0.072-1.891,1.566-3.403,3.385-3.403c1.873,0,3.385,1.585,3.385,3.547
		C549.533,446.976,548.021,448.543,546.148,448.543z"/>
	<path fill="#FFFFFF" d="M558.676,445.14c-0.612-0.342-1.296-0.595-2.143-0.721h-0.036c-0.811-0.126-1.404-0.342-1.8-0.611
		c-0.342-0.271-0.504-0.522-0.504-0.883s0.198-0.72,0.559-1.008c0.378-0.307,0.954-0.505,1.674-0.505
		c0.864,0,1.513,0.45,2.161,0.883c0.198,0.126,0.468,0.071,0.594-0.126c0.126-0.198,0.072-0.469-0.126-0.612
		c-0.684-0.433-1.494-0.954-2.629-0.954c-0.899,0-1.638,0.233-2.16,0.594c-0.558,0.414-0.954,1.026-0.954,1.729
		c0,0.685,0.396,1.261,0.954,1.585c0.504,0.359,1.206,0.54,1.998,0.684l0.036,0.019c0.864,0.144,1.495,0.359,1.873,0.647
		c0.45,0.379,0.612,0.667,0.63,1.081c0,0.396-0.234,0.792-0.666,1.08c-0.396,0.324-0.99,0.54-1.675,0.54
		c-1.116,0-2.088-0.576-2.701-1.026c-0.198-0.162-0.468-0.126-0.612,0.054c-0.144,0.181-0.126,0.414,0.054,0.576
		c0.72,0.576,1.837,1.243,3.259,1.261c0.864,0,1.585-0.252,2.197-0.702c0.594-0.45,1.008-1.044,1.008-1.782
		S559.252,445.518,558.676,445.14z"/>
	<path fill="#FFFFFF" d="M563.068,440.603c-0.234,0-0.433,0.18-0.433,0.432v7.959c0,0.233,0.198,0.432,0.433,0.432
		c0.252,0,0.45-0.198,0.45-0.432v-7.959C563.518,440.782,563.32,440.603,563.068,440.603z"/>
	<path fill="#FFFFFF" d="M563.068,437.722c-0.234,0-0.433,0.197-0.433,0.432v0.414c0,0.252,0.198,0.469,0.433,0.469
		c0.252,0,0.45-0.217,0.45-0.469v-0.414C563.518,437.919,563.32,437.722,563.068,437.722z"/>
	<path fill="#FFFFFF" d="M570.322,440.603h-1.135v-3.277c0-0.216-0.233-0.432-0.468-0.432c-0.216,0-0.432,0.216-0.432,0.432v3.277
		h-1.099c-0.433,0-0.433,0.216-0.433,0.432s0,0.433,0.433,0.433h1.099v6.428c0,0.882,0.666,1.53,1.548,1.53
		c0.216,0,0.45-0.216,0.45-0.432c0-0.217-0.234-0.45-0.45-0.45s-0.648-0.217-0.648-0.648v-6.428h1.135
		c0.216,0,0.432-0.217,0.432-0.433S570.538,440.603,570.322,440.603z"/>
	<path fill="#FFFFFF" d="M577.81,440.603c-2.377,0-4.286,1.98-4.286,4.429c0,2.413,1.909,4.394,4.286,4.394
		c1.494,0,2.809-0.792,3.564-1.999c0.126-0.216,0.054-0.468-0.144-0.611c-0.181-0.108-0.45-0.072-0.576,0.144
		c-0.595,0.99-1.675,1.603-2.845,1.603c-1.819,0-3.331-1.458-3.422-3.385h7.238c0.234,0,0.433-0.162,0.433-0.396v-0.054v-0.019
		C581.878,442.402,580.079,440.603,577.81,440.603z M574.443,444.329c0.324-1.674,1.71-2.862,3.367-2.862
		c1.62,0,3.024,1.206,3.313,2.862H574.443z"/>
	<path fill="#FFFFFF" d="M585.639,447.624c-0.505,0-0.9,0.396-0.9,0.9s0.396,0.9,0.9,0.9c0.504,0,0.9-0.396,0.9-0.9
		S586.143,447.624,585.639,447.624z"/>
	<path fill="#FFFFFF" d="M21.682,0.798c-0.462-0.378-1.134-0.294-1.428,0.168L11.012,13.61l-9.2-12.645
		C1.518,0.504,0.846,0.42,0.384,0.798c-0.42,0.294-0.504,0.967-0.21,1.429l9.872,13.484v13.106c0,0.546,0.462,1.008,1.008,1.008
		c0.588,0,1.008-0.462,1.008-1.008v-13.19l9.83-13.4C22.228,1.765,22.144,1.092,21.682,0.798z"/>
	<path fill="#FFFFFF" d="M31.045,9.241c-5.377,0-9.746,4.705-9.746,10.292s4.369,10.292,9.746,10.292
		c5.419,0,9.746-4.705,9.746-10.292S36.464,9.241,31.045,9.241z M31.045,27.809c-4.201,0-7.729-3.696-7.729-8.275
		s3.528-8.317,7.729-8.317c4.201,0,7.729,3.738,7.729,8.317S35.247,27.809,31.045,27.809z"/>
	<path fill="#FFFFFF" d="M63.135,9.199c-0.504,0-1.008,0.42-1.008,1.009v11.216c0,3.528-2.857,6.343-6.385,6.385
		c-3.487-0.042-6.301-2.856-6.301-6.385V10.208c0-0.589-0.462-1.009-1.008-1.009c-0.546,0-1.008,0.42-1.008,1.009v11.216
		c0,4.621,3.696,8.401,8.317,8.401c4.705,0,8.443-3.78,8.443-8.401V10.208C64.186,9.619,63.724,9.199,63.135,9.199z"/>
	<path fill="#FFFFFF" d="M84.134,9.283c-3.949,0-6.679,2.604-8.233,5.041c-0.126,0.168-0.21,0.336-0.294,0.504v-4.536
		c0-0.588-0.462-1.009-0.966-1.009c-0.588,0-1.05,0.421-1.05,1.009v18.525c0,0.588,0.462,1.008,1.05,1.008
		c0.504,0,0.966-0.42,0.966-1.008v-9.032c0-0.084,0-0.168,0.084-0.336c0.294-0.84,1.092-2.94,2.479-4.789
		c1.428-1.848,3.277-3.36,5.965-3.36c0.546,0,1.008-0.462,1.008-1.008C85.142,9.704,84.68,9.283,84.134,9.283z"/>
	<path fill="#FFFFFF" d="M114.583,9.241c-3.234,0-6.091,1.597-7.897,4.033V1.428c0-0.546-0.462-1.008-1.05-1.008
		c-0.546,0-1.008,0.462-1.008,1.008v17.728v0.42v0.42v8.822c0,0.546,0.462,1.008,1.008,1.008c0.588,0,1.05-0.462,1.05-1.008v-2.982
		c1.807,2.436,4.663,3.99,7.897,3.99c5.545,0,9.956-4.621,9.956-10.25C124.539,13.862,120.128,9.241,114.583,9.241z M114.583,27.767
		c-4.327,0-7.897-3.654-7.897-8.191v-0.336c0.168-4.411,3.655-7.939,7.897-7.939c4.369,0,7.897,3.696,7.897,8.275
		C122.48,24.112,118.952,27.767,114.583,27.767z"/>
	<path fill="#FFFFFF" d="M142.891,9.283c-3.949,0-6.679,2.604-8.233,5.041c-0.126,0.168-0.21,0.336-0.294,0.504v-4.536
		c0-0.588-0.462-1.009-0.966-1.009c-0.588,0-1.05,0.421-1.05,1.009v18.525c0,0.588,0.462,1.008,1.05,1.008
		c0.504,0,0.966-0.42,0.966-1.008v-9.032c0-0.084,0-0.168,0.084-0.336c0.294-0.84,1.092-2.94,2.479-4.789
		c1.428-1.848,3.277-3.36,5.965-3.36c0.546,0,1.008-0.462,1.008-1.008C143.899,9.704,143.437,9.283,142.891,9.283z"/>
	<path fill="#FFFFFF" d="M158.514,9.241c-5.377,0-9.746,4.705-9.746,10.292s4.369,10.292,9.746,10.292
		c5.419,0,9.746-4.705,9.746-10.292S163.933,9.241,158.514,9.241z M158.514,27.809c-4.201,0-7.729-3.696-7.729-8.275
		s3.528-8.317,7.729-8.317c4.201,0,7.729,3.738,7.729,8.317S162.715,27.809,158.514,27.809z"/>
	<path fill="#FFFFFF" d="M201.274,9.493c-0.462-0.21-1.092,0.042-1.302,0.547l-6.805,16.215l-4.747-11.301
		c-0.168-0.378-0.588-0.63-1.008-0.63c-0.378,0-0.798,0.252-0.966,0.63l-4.747,11.301l-6.847-16.215
		c-0.168-0.505-0.798-0.757-1.302-0.547c-0.462,0.211-0.714,0.799-0.504,1.303l7.729,18.399c0.084,0.21,0.21,0.378,0.42,0.462
		c0.042,0.042,0.084,0.084,0.168,0.084c0.126,0.042,0.252,0.084,0.378,0.084c0.336,0,0.756-0.252,0.882-0.63
		c0-0.042,0.042-0.084,0.042-0.084l4.747-11.342l4.789,11.384l0.042,0.042c0.084,0.336,0.462,0.588,0.798,0.63h0.126h0.084
		c0.168,0,0.336-0.084,0.504-0.21s0.294-0.294,0.378-0.504l7.687-18.315C202.03,10.292,201.778,9.704,201.274,9.493z"/>
	<path fill="#FFFFFF" d="M221.305,19.827c-1.428-0.798-3.024-1.386-4.999-1.68h-0.084c-1.891-0.294-3.277-0.799-4.201-1.429
		c-0.798-0.63-1.176-1.218-1.176-2.059c0-0.84,0.462-1.68,1.302-2.353c0.882-0.714,2.226-1.176,3.907-1.176
		c2.016,0,3.528,1.05,5.041,2.059c0.462,0.294,1.092,0.168,1.386-0.294c0.294-0.462,0.168-1.093-0.294-1.429
		c-1.596-1.008-3.486-2.227-6.133-2.227c-2.101,0-3.823,0.547-5.041,1.387c-1.302,0.966-2.227,2.395-2.227,4.032
		c0,1.597,0.924,2.94,2.227,3.697c1.176,0.84,2.814,1.26,4.663,1.596l0.084,0.042c2.017,0.336,3.487,0.841,4.369,1.513
		c1.05,0.882,1.428,1.554,1.47,2.521c0,0.924-0.546,1.849-1.555,2.521c-0.924,0.756-2.31,1.26-3.906,1.26
		c-2.604,0-4.873-1.344-6.301-2.395c-0.462-0.378-1.092-0.294-1.428,0.126c-0.336,0.421-0.294,0.967,0.126,1.345
		c1.68,1.344,4.285,2.898,7.604,2.94c2.016,0,3.696-0.588,5.125-1.639c1.386-1.05,2.353-2.437,2.353-4.158
		C223.615,22.306,222.649,20.71,221.305,19.827z"/>
	<path fill="#FFFFFF" d="M247.345,25.162c0.294-0.504,0.126-1.092-0.336-1.428c-0.42-0.252-1.05-0.168-1.344,0.336
		c-1.386,2.311-3.907,3.738-6.637,3.738c-4.243,0-7.771-3.402-7.981-7.897h16.887c0.546,0,1.008-0.378,1.008-0.924v-0.126v-0.042
		c-0.42-5.377-4.621-9.578-9.914-9.578c-5.545,0-9.998,4.621-9.998,10.334c0,5.629,4.453,10.25,9.998,10.25
		C242.515,29.825,245.581,27.977,247.345,25.162z M239.028,11.258c3.781,0,7.058,2.814,7.729,6.68h-15.585
		C231.929,14.03,235.163,11.258,239.028,11.258z"/>
	<path fill="#FFFFFF" d="M256.247,29.825c0.504,0,0.966-0.42,0.966-1.008v-9.032c0-0.084,0-0.168,0.084-0.336
		c0.294-0.84,1.092-2.94,2.479-4.789c1.428-1.848,3.277-3.36,5.965-3.36c0.546,0,1.008-0.462,1.008-1.008
		c0-0.588-0.462-1.009-1.008-1.009c-3.949,0-6.679,2.604-8.233,5.041c-0.126,0.168-0.21,0.336-0.294,0.504v-4.536
		c0-0.588-0.462-1.009-0.966-1.009c-0.588,0-1.05,0.421-1.05,1.009v18.525C255.196,29.405,255.658,29.825,256.247,29.825z"/>
	<path fill="#FFFFFF" d="M302.701,25.835v2.982c0,0.546,0.462,1.008,1.05,1.008c0.546,0,1.008-0.462,1.008-1.008v-9.242v-0.42V1.428
		c0-0.546-0.462-1.008-1.008-1.008c-0.588,0-1.05,0.462-1.05,1.008v11.847c-1.806-2.437-4.663-4.033-7.897-4.033
		c-5.545,0-9.956,4.621-9.956,10.334c0,5.629,4.411,10.25,9.956,10.25C298.038,29.825,300.895,28.271,302.701,25.835z
		 M286.906,19.575c0-4.579,3.571-8.275,7.897-8.275c4.243,0,7.729,3.528,7.897,7.939v0.672c-0.168,4.369-3.655,7.855-7.897,7.855
		C290.477,27.767,286.906,24.112,286.906,19.575z"/>
	<path fill="#FFFFFF" d="M322.732,29.825c5.419,0,9.746-4.705,9.746-10.292s-4.327-10.292-9.746-10.292
		c-5.377,0-9.746,4.705-9.746,10.292S317.355,29.825,322.732,29.825z M322.732,11.216c4.201,0,7.729,3.738,7.729,8.317
		s-3.528,8.275-7.729,8.275c-4.201,0-7.729-3.696-7.729-8.275S318.532,11.216,322.732,11.216z"/>
	<path fill="#FFFFFF" d="M348.73,29.825c3.487,0,6.553-1.849,8.317-4.663c0.294-0.504,0.126-1.092-0.336-1.428
		c-0.42-0.252-1.05-0.168-1.344,0.336c-1.386,2.311-3.907,3.738-6.637,3.738c-4.243,0-7.771-3.402-7.981-7.897h16.887
		c0.546,0,1.008-0.378,1.008-0.924v-0.126v-0.042c-0.42-5.377-4.621-9.578-9.914-9.578c-5.545,0-9.998,4.621-9.998,10.334
		C338.733,25.204,343.186,29.825,348.73,29.825z M348.73,11.258c3.781,0,7.057,2.814,7.729,6.68h-15.585
		C341.631,14.03,344.866,11.258,348.73,11.258z"/>
	<path fill="#FFFFFF" d="M372.083,29.825c2.016,0,3.696-0.588,5.125-1.639c1.386-1.05,2.353-2.437,2.353-4.158
		c0-1.723-0.966-3.318-2.311-4.201c-1.428-0.798-3.024-1.386-4.999-1.68h-0.084c-1.891-0.294-3.277-0.799-4.201-1.429
		c-0.798-0.63-1.176-1.218-1.176-2.059c0-0.84,0.462-1.68,1.302-2.353c0.882-0.714,2.226-1.176,3.907-1.176
		c2.016,0,3.528,1.05,5.041,2.059c0.462,0.294,1.092,0.168,1.386-0.294c0.294-0.462,0.168-1.093-0.294-1.429
		c-1.596-1.008-3.486-2.227-6.133-2.227c-2.101,0-3.823,0.547-5.041,1.387c-1.302,0.966-2.227,2.395-2.227,4.032
		c0,1.597,0.924,2.94,2.227,3.697c1.176,0.84,2.814,1.26,4.663,1.596l0.084,0.042c2.017,0.336,3.487,0.841,4.369,1.513
		c1.05,0.882,1.428,1.554,1.47,2.521c0,0.924-0.546,1.849-1.555,2.521c-0.924,0.756-2.31,1.26-3.906,1.26
		c-2.604,0-4.873-1.344-6.301-2.395c-0.462-0.378-1.092-0.294-1.428,0.126c-0.336,0.421-0.294,0.967,0.126,1.345
		C366.159,28.229,368.764,29.783,372.083,29.825z"/>
	<path fill="#FFFFFF" d="M399.128,29.279c0.126,0.252,0.378,0.462,0.672,0.546h0.252c0.294,0,0.588-0.126,0.756-0.378
		c0.126-0.126,0.168-0.294,0.21-0.462v-0.168V17.643c0.084-3.486,2.899-6.343,6.385-6.343c3.529,0,6.343,2.856,6.343,6.343v11.175
		c0,0.588,0.462,1.008,1.008,1.008c0.546,0,1.008-0.42,1.008-1.008V17.643c0-4.578-3.738-8.359-8.359-8.359
		c-2.563,0-4.873,1.177-6.385,2.982v-1.974c0-0.546-0.42-1.009-0.966-1.009c-0.588,0-1.008,0.463-1.008,1.009v7.015v0.336v11.175
		v0.252c0,0,0.042,0.042,0.042,0.084S399.086,29.237,399.128,29.279z"/>
	<path fill="#FFFFFF" d="M433.569,29.825c5.419,0,9.746-4.705,9.746-10.292s-4.327-10.292-9.746-10.292
		c-5.377,0-9.746,4.705-9.746,10.292S428.192,29.825,433.569,29.825z M433.569,11.216c4.201,0,7.729,3.738,7.729,8.317
		s-3.528,8.275-7.729,8.275c-4.201,0-7.729-3.696-7.729-8.275S429.368,11.216,433.569,11.216z"/>
	<path fill="#FFFFFF" d="M449.107,11.258h2.563v14.997c0,2.058,1.554,3.57,3.613,3.57c0.504,0,1.05-0.504,1.05-1.008
		c0-0.505-0.546-1.051-1.05-1.051c-0.504,0-1.512-0.504-1.512-1.512V11.258h2.646c0.504,0,1.008-0.504,1.008-1.008
		s-0.504-1.009-1.008-1.009h-2.646V1.597c0-0.505-0.546-1.009-1.092-1.009c-0.504,0-1.008,0.504-1.008,1.009v7.645h-2.563
		c-1.008,0-1.008,0.505-1.008,1.009S448.099,11.258,449.107,11.258z"/>
	<path fill="#FFFFFF" d="M485.942,29.825c2.016,0,3.696-0.588,5.125-1.639c1.386-1.05,2.353-2.437,2.353-4.158
		c0-1.723-0.966-3.318-2.311-4.201c-1.428-0.798-3.024-1.386-4.999-1.68h-0.084c-1.891-0.294-3.277-0.799-4.201-1.429
		c-0.798-0.63-1.176-1.218-1.176-2.059c0-0.84,0.462-1.68,1.302-2.353c0.882-0.714,2.226-1.176,3.907-1.176
		c2.016,0,3.528,1.05,5.041,2.059c0.462,0.294,1.092,0.168,1.386-0.294c0.294-0.462,0.168-1.093-0.294-1.429
		c-1.596-1.008-3.487-2.227-6.133-2.227c-2.101,0-3.823,0.547-5.041,1.387c-1.302,0.966-2.227,2.395-2.227,4.032
		c0,1.597,0.924,2.94,2.227,3.697c1.176,0.84,2.814,1.26,4.663,1.596l0.084,0.042c2.017,0.336,3.487,0.841,4.369,1.513
		c1.05,0.882,1.428,1.554,1.47,2.521c0,0.924-0.546,1.849-1.554,2.521c-0.924,0.756-2.311,1.26-3.907,1.26
		c-2.604,0-4.873-1.344-6.301-2.395c-0.462-0.378-1.092-0.294-1.428,0.126c-0.336,0.421-0.294,0.967,0.126,1.345
		C480.019,28.229,482.624,29.783,485.942,29.825z"/>
	<path fill="#FFFFFF" d="M516.646,21.424V10.208c0-0.589-0.462-1.009-1.05-1.009c-0.504,0-1.008,0.42-1.008,1.009v11.216
		c0,3.528-2.857,6.343-6.385,6.385c-3.487-0.042-6.301-2.856-6.301-6.385V10.208c0-0.589-0.462-1.009-1.008-1.009
		c-0.546,0-1.008,0.42-1.008,1.009v11.216c0,4.621,3.696,8.401,8.317,8.401C512.907,29.825,516.646,26.045,516.646,21.424z"/>
	<path fill="#FFFFFF" d="M527.059,38.437c0.588,0,1.05-0.462,1.05-1.008V25.666c1.765,2.437,4.621,4.033,7.813,4.033
		c5.545,0,9.956-4.663,9.956-10.25c0-5.629-4.411-10.208-9.956-10.208c-3.192,0-6.049,1.597-7.813,3.991V10.25
		c0-0.546-0.462-1.009-1.05-1.009c-0.546,0-1.008,0.463-1.008,1.009v8.779v0.42v0.42v17.56
		C526.05,37.975,526.512,38.437,527.059,38.437z M528.108,19.113c0.168-4.369,3.655-7.813,7.813-7.813
		c4.369,0,7.897,3.612,7.897,8.149s-3.529,8.191-7.897,8.233c-4.243-0.042-7.813-3.696-7.813-8.233V19.113z"/>
	<path fill="#FFFFFF" d="M554.778,38.437c0.588,0,1.05-0.462,1.05-1.008V25.666c1.765,2.437,4.621,4.033,7.813,4.033
		c5.545,0,9.956-4.663,9.956-10.25c0-5.629-4.411-10.208-9.956-10.208c-3.192,0-6.049,1.597-7.813,3.991V10.25
		c0-0.546-0.462-1.009-1.05-1.009c-0.546,0-1.008,0.463-1.008,1.009v8.779v0.42v0.42v17.56
		C553.77,37.975,554.231,38.437,554.778,38.437z M555.828,19.113c0.168-4.369,3.655-7.813,7.813-7.813
		c4.369,0,7.897,3.612,7.897,8.149s-3.528,8.191-7.897,8.233c-4.242-0.042-7.813-3.696-7.813-8.233V19.113z"/>
	<path fill="#FFFFFF" d="M590.269,9.241c-5.377,0-9.746,4.705-9.746,10.292s4.369,10.292,9.746,10.292
		c5.419,0,9.745-4.705,9.745-10.292S595.688,9.241,590.269,9.241z M590.269,27.809c-4.201,0-7.729-3.696-7.729-8.275
		s3.528-8.317,7.729-8.317c4.2,0,7.729,3.738,7.729,8.317S594.469,27.809,590.269,27.809z"/>
	<path fill="#FFFFFF" d="M617.443,9.283c-3.948,0-6.679,2.604-8.233,5.041c-0.126,0.168-0.21,0.336-0.294,0.504v-4.536
		c0-0.588-0.462-1.009-0.966-1.009c-0.588,0-1.051,0.421-1.051,1.009v18.525c0,0.588,0.463,1.008,1.051,1.008
		c0.504,0,0.966-0.42,0.966-1.008v-9.032c0-0.084,0-0.168,0.084-0.336c0.294-0.84,1.093-2.94,2.479-4.789
		c1.429-1.848,3.276-3.36,5.965-3.36c0.547,0,1.009-0.462,1.009-1.008C618.452,9.704,617.99,9.283,617.443,9.283z"/>
	<path fill="#FFFFFF" d="M631.513,9.241h-2.646V1.597c0-0.505-0.546-1.009-1.093-1.009c-0.504,0-1.008,0.504-1.008,1.009v7.645
		h-2.563c-1.008,0-1.008,0.505-1.008,1.009s0,1.008,1.008,1.008h2.563v14.997c0,2.058,1.555,3.57,3.612,3.57
		c0.505,0,1.051-0.504,1.051-1.008c0-0.505-0.546-1.051-1.051-1.051c-0.504,0-1.512-0.504-1.512-1.512V11.258h2.646
		c0.504,0,1.008-0.504,1.008-1.008S632.017,9.241,631.513,9.241z"/>
	<path fill="#FFFFFF" d="M694.769,0.672c-0.588-0.252-1.134,0-1.386,0.504l-10.502,24.995l-7.436-17.686
		c-0.21-0.378-0.588-0.63-1.05-0.63c-0.378,0-0.757,0.252-0.967,0.63l-7.477,17.686L655.451,1.176
		c-0.21-0.504-0.841-0.756-1.345-0.504c-0.504,0.21-0.756,0.84-0.504,1.345l11.342,26.969c0.042,0.21,0.126,0.378,0.252,0.504
		l0.042,0.042l0.084,0.084c0.168,0.126,0.379,0.21,0.631,0.21c0.21,0,0.42-0.042,0.588-0.168c0,0,0.042-0.042,0.084-0.042
		c0.084-0.084,0.168-0.168,0.21-0.294c0.042-0.042,0.084-0.126,0.084-0.21l7.52-17.77l7.478,17.77
		c0.042,0.042,0.042,0.084,0.042,0.126c0.042,0.084,0.126,0.21,0.168,0.252c0.042,0.084,0.126,0.126,0.168,0.168
		c0.168,0.126,0.336,0.168,0.504,0.168h0.126h0.084c0.294-0.042,0.672-0.294,0.84-0.672l11.427-27.137
		C695.526,1.512,695.274,0.882,694.769,0.672z"/>
	<path fill="#FFFFFF" d="M706.819,9.241c-5.545,0-9.998,4.621-9.998,10.334c0,5.629,4.453,10.25,9.998,10.25
		c3.486,0,6.553-1.849,8.317-4.663c0.294-0.504,0.126-1.092-0.336-1.428c-0.421-0.252-1.051-0.168-1.345,0.336
		c-1.386,2.311-3.906,3.738-6.637,3.738c-4.243,0-7.771-3.402-7.981-7.897h16.887c0.546,0,1.008-0.378,1.008-0.924v-0.126v-0.042
		C716.312,13.442,712.112,9.241,706.819,9.241z M698.963,17.938c0.756-3.907,3.99-6.68,7.855-6.68c3.78,0,7.057,2.814,7.729,6.68
		H698.963z"/>
	<path fill="#FFFFFF" d="M733.824,9.241c-3.234,0-6.091,1.597-7.897,4.033V1.428c0-0.546-0.462-1.008-1.05-1.008
		c-0.546,0-1.009,0.462-1.009,1.008v17.728v0.42v0.42v8.822c0,0.546,0.463,1.008,1.009,1.008c0.588,0,1.05-0.462,1.05-1.008v-2.982
		c1.807,2.436,4.663,3.99,7.897,3.99c5.545,0,9.956-4.621,9.956-10.25C743.78,13.862,739.369,9.241,733.824,9.241z M733.824,27.767
		c-4.326,0-7.897-3.654-7.897-8.191v-0.336c0.168-4.411,3.655-7.939,7.897-7.939c4.369,0,7.897,3.696,7.897,8.275
		C741.721,24.112,738.193,27.767,733.824,27.767z"/>
	<path fill="#FFFFFF" d="M766.039,2.059c3.15,0,6.049,1.092,8.191,2.856c0.504,0.336,1.134,0.252,1.47-0.168
		c0.379-0.42,0.253-1.135-0.126-1.429C772.927,1.26,769.693,0,766.039,0c-8.443,0-15.291,6.679-15.291,14.87
		c0,8.318,6.848,14.913,15.291,14.955c3.612,0,6.889-1.176,9.493-3.234c0.21-0.168,0.336-0.462,0.378-0.756v-0.169V15.585
		c0-0.547-0.42-1.009-0.924-1.051h-0.126h-9.073c-0.588,0-1.051,0.462-1.051,1.051c0,0.588,0.463,1.008,1.051,1.008h8.023v8.653
		c-2.185,1.597-4.915,2.521-7.771,2.521c-7.352,0-13.232-5.755-13.232-12.896C752.806,7.813,758.687,2.059,766.039,2.059z"/>
	<path fill="#FFFFFF" d="M800.27,27.767h-14.073V1.428c0-0.546-0.462-1.008-1.05-1.008c-0.546,0-1.008,0.462-1.008,1.008v27.39
		c0,0.546,0.462,1.008,1.008,1.008h0.084h15.039c0.588,0,1.05-0.462,1.05-1.008C801.32,28.229,800.858,27.767,800.27,27.767z"/>
	<path fill="#FFFFFF" d="M808.96,25.624c-1.176,0-2.101,0.925-2.101,2.101c0,1.177,0.925,2.101,2.101,2.101s2.101-0.924,2.101-2.101
		C811.061,26.549,810.136,25.624,808.96,25.624z"/>
</g>
<path fill-rule="evenodd" clip-rule="evenodd" fill="#1A7AAA" d="M487.337,506.54c-17.886,0-27.882,13.431-27.882,30
	c0,16.568,12.482,29.999,27.882,29.999s27.883-13.431,27.883-29.999C515.22,519.971,505.222,506.54,487.337,506.54z
	 M487.349,559.325c-0.001,0-0.012,0-0.012,0s-0.011,0-0.013,0c-8.087,0-10.775-9.503-10.775-22.257
	c0-12.756,2.027-22.743,10.775-22.743c0.002,0,0.013,0,0.013,0s0.011,0,0.012,0c8.749,0,10.776,9.987,10.776,22.743
	C498.125,549.822,495.438,559.325,487.349,559.325z"/>
<path fill-rule="evenodd" clip-rule="evenodd" fill="#1A7AAA" d="M439.911,528.505c-0.117,0.601-0.182,1.048-0.292,1.479
	c-0.104,0.408-0.003,0.917-0.537,1.184c-0.272-5.25-1.222-10.26-4.459-14.551c-0.002,0.697,0.141,1.351,0.275,2.007
	c0.129,0.635,0.325,1.263,0.094,2.054c-1.228-3.241-3.279-5.607-6.082-7.343c-1.113-0.69-2.363-1.104-3.46-1.84
	c-4.374-2.94-9.206-4.643-14.469-4.909c-9.301-0.472-17.181,2.688-23.52,9.55c-0.578,0.627-0.83,0.563-1.186-0.148
	c-0.729-1.455-1.088-3.029-1.454-4.727c-1.104,1.012-1.665,2.178-2.13,3.401c-0.871,2.298-1.034,4.708-1.072,7.131
	c-0.013,0.89-0.301,1.614-0.853,2.348c-0.88,1.175-1.63,2.467-2.141,3.85c-0.388,1.051-0.71,2.145-0.513,3.331
	c0.686-0.077,0.921-0.774,1.683-0.885c-0.09,0.316-0.137,0.506-0.198,0.691c-1.789,5.508-1.462,10.955,0.869,16.184
	c4.818,10.813,13.096,17.259,24.883,18.922c6.445,0.905,12.645-0.159,18.185-3.632c10.887-6.822,15.86-17.153,16.943-29.627
	C440.603,531.533,440.538,530.04,439.911,528.505z M428.925,524.941c0.842,4.096,1.564,8.136,0.39,12.358
	c-0.892-1.114-0.861-2.632-2.073-3.607c0.275,2.585,0.386,5.024-0.001,7.454c-0.39,2.449-1.066,4.783-2.688,6.738
	c-0.103,0.286-0.42,0.633-0.571,0.443c-0.229-0.29,0.075-0.698,0.264-1.023c0.087-1.034,0.482-2.055,0.182-3.262
	c-3.167,4.362-6.718,8.068-12.457,8.229c-4.317,0.126-8.396-1.696-11.43-4.844c1.626-0.054,3.157-0.059,4.665-0.37
	c2.436-0.499,4.438-1.836,6.441-3.188c0.658-0.446,1.294-0.831,2.153-0.633c0.449,0.106,0.914-0.015,1.15-0.49
	c0.26-0.523,0.004-0.923-0.338-1.319c-1.709-1.985-4.574-2.529-7.051-1.322c-1.392,0.677-2.748,1.405-4.407,1.21
	c-1.888-0.225-3.182-1.404-4.485-2.585c-0.544-0.491-0.985-1.098-1.507-1.617c-0.69-0.693-0.677-1.438-0.246-2.229
	c0.444-0.817,1.13-1.148,2.05-0.957c1.041,0.217,2.085,0.421,3.122,0.658c0.577,0.129,0.791-0.027,0.807-0.651
	c0.032-1.222-0.22-2.375-0.803-3.421c-0.362-0.655-0.222-0.992,0.319-1.42c0.964-0.764,1.885-1.577,2.936-2.225
	c0.311-0.192,0.637-0.396,0.878-0.662c0.457-0.515,1.016-1.104,0.756-1.816c-0.247-0.671-1.004-0.387-1.543-0.393
	c-1.667-0.027-3.132-0.45-4.26-1.781c-0.602-0.706-1.819-1.327-1.831-2.005c-0.021-1.334,0.602-2.667,1.418-3.839
	c0.707-1.014,1.765-1.655,2.824-2.746c-2.546,0.279-4.51,1.234-6.222,2.596c-1.112,0.885-2.041,1.473-3.571,1.018
	c-1.283-0.382-2.673,0.041-4.185,0.413c4.292-4.465,9.301-7.177,15.224-8.142c3.639-0.595,7.288-0.543,10.832,0.513
	c1.726,0.514,3.469,1.081,5.079,1.937c0.941,0.5,1.795,1.101,2.348,2.25c-1.283-0.038-2.463-0.145-3.642,0.34
	c0.387,0.533,1.018,0.612,1.539,0.855c3.211,1.482,6.329,3.091,8.631,5.903c1.228,1.496,1.801,3.113,1.756,5.214
	C430.634,525.911,430.062,525.15,428.925,524.941z"/>
<g>
	<path fill-rule="evenodd" clip-rule="evenodd" fill="#1A7AAA" d="M331.367,560.909c0.083-0.142,0.167-0.27,0.248-0.392
		c0.032-0.048,0.064-0.097,0.095-0.144l0.063-0.099c0.181-0.396,0.404-0.743,0.605-1.054c0.115-0.179,0.225-0.348,0.318-0.515
		c0.72-1.276,1.535-2.724,2.378-4.106c0.935-1.534,1.861-3.111,2.762-4.65c-1.368,0.68-2.835,1.133-4.389,1.359
		c-0.82,0.119-1.635,0.179-2.424,0.179c-3.836,0-7.299-1.401-10.292-4.167c-1.752-1.619-3.025-3.635-3.884-6.157
		c-0.312-0.428-0.554-0.869-0.788-1.298c-0.094-0.172-0.184-0.334-0.276-0.493c-2.751-4.76-5.544-9.6-8.244-14.281l-2.181-3.78
		c-2.595,4.463-3.971,9.313-4.096,14.441c-0.096,4.024,0.577,7.912,2.001,11.555c1.655,4.232,4.101,7.902,7.27,10.906
		c3.976,3.769,8.668,6.308,13.95,7.547c1.437,0.336,2.599,0.535,3.663,0.624c0.152-0.27,0.31-0.53,0.465-0.784
		c0.115-0.191,0.225-0.371,0.331-0.554c0.707-1.216,1.432-2.45,2.133-3.643L331.367,560.909z"/>
	<path fill-rule="evenodd" clip-rule="evenodd" fill="#1A7AAA" d="M309.514,523.943c2.199,3.813,4.459,7.73,6.708,11.624
		c0.233-3.359,1.488-6.352,3.74-8.909c2.497-2.837,5.746-4.517,9.659-4.99c0.351-0.043,0.683,0.321,1.002,0.313
		c0.225-0.006,0.437,0.344,0.638,0.344h0.007c0.029,0,0.058,0.01,0.087,0.006c0.097-0.009,0.217-0.006,0.354-0.006h3.814
		c7.245,0,14.493-0.391,21.738-0.389c-3.255-5.555-7.857-9.903-13.68-12.546c-3.882-1.76-8.015-2.75-12.28-2.75
		c-0.599,0-1.21-0.031-1.815,0.004c-2.464,0.141-4.875,0.551-7.166,1.271c-5.556,1.743-10.289,4.865-14.068,9.302
		c-0.511,0.6-1.039,1.236-1.511,1.931c0.062,0.107,0.125,0.212,0.187,0.319L309.514,523.943z"/>
	<path fill-rule="evenodd" clip-rule="evenodd" fill="#1A7AAA" d="M359.418,526.171c-0.296-0.808-0.594-1.598-0.962-2.341
		c-6.516-0.001-13.032-0.001-19.548-0.002c1.015,0.634,1.962,1.398,2.839,2.294c2.405,2.452,3.813,5.419,4.188,8.818
		c0.447,4.059-0.599,7.767-3.11,11.023c-0.117,0.192-0.597,1.013-1.147,1.953c-1.381,2.361-3.47,5.929-4.654,7.871
		c-0.822,1.351-1.628,2.779-2.339,4.041c-0.127,0.225-0.26,0.432-0.389,0.63c-0.197,0.307-0.383,0.594-0.493,0.872l-0.077,0.197
		l-0.154,0.169c-0.017,0.026-0.034,0.054-0.052,0.078c-0.068,0.103-0.132,0.2-0.185,0.29l-0.29,0.493
		c-0.7,1.191-1.423,2.423-2.127,3.636c-0.067,0.115-0.135,0.229-0.202,0.342c0.145,0.002,0.291,0.003,0.435,0.003
		c2.014,0,4.024-0.204,5.975-0.604c5.841-1.202,10.981-3.958,15.28-8.191c1.008-0.993,1.897-2.086,2.922-3.421
		c1.069-1.393,1.999-2.924,2.845-4.681l0.031-0.059c0.467-0.841,0.804-1.754,1.16-2.721l0.098-0.264
		c1.012-2.733,1.597-5.661,1.737-8.699C361.388,533.865,360.788,529.92,359.418,526.171z"/>
	<path fill-rule="evenodd" clip-rule="evenodd" fill="#1A7AAA" d="M319.889,536.646c0.005,6.339,5.094,11.446,11.427,11.446
		c2.272,0.002,4.355-0.63,6.257-1.87c1.48-0.963,2.676-2.202,3.57-3.72c1.256-2.133,1.74-4.434,1.544-6.906
		c-0.428-5.417-5.1-10.346-11.367-10.359C325.083,525.223,319.885,530.287,319.889,536.646z"/>
</g>
</svg>
