<?xml version="1.0" encoding="utf-8"?>
<!-- Generator: Adobe Illustrator 16.0.0, SVG Export Plug-In . SVG Version: 6.00 Build 0)  -->
<!DOCTYPE svg PUBLIC "-//W3C//DTD SVG 1.1//EN" "http://www.w3.org/Graphics/SVG/1.1/DTD/svg11.dtd">
<svg version="1.1" id="Layer_1" xmlns="http://www.w3.org/2000/svg" xmlns:xlink="http://www.w3.org/1999/xlink" x="0px" y="0px"
	 width="100%" height="100%" viewBox="186.933 0 1546.135 1148.565"
	 enable-background="new 186.933 0 1546.135 1148.565" xml:space="preserve">
<g>
	<path fill="#FFFFFF" d="M986.752,413.084c-2.303,4.01-1.758,8.72-0.393,10.932l9.629-16.813
		C995.988,407.203,989.971,407.453,986.752,413.084z"/>
	<path fill="#FFFFFF" d="M1106.539,566.445l-66.66-116.051l62.783-109.672c0,0,31.985-50.681-16.725-78.564
		c-48.716-27.892-76.22,25.359-76.22,25.359l-46.293,80.858l-46.231-80.891c0,0-27.473-53.268-76.201-25.411
		c-48.739,27.847-16.783,78.555-16.783,78.555l62.716,109.724l-63.362,110.692c0,0-32.311,50.49,16.766,78.586
		c49.082,28.099,76.399-25.581,76.399-25.581l46.655-81.495l49.646,87.004c0,0,28.11,47.755,75,19.197
		C1131.804,612.088,1106.539,566.445,1106.539,566.445z M1034.9,309.801l15.044-1.926l-6.007-13.836l6.131-10.702l9.603,23.181
		l28.396-3.65l-6.157,10.756l-17.736,2.405l7.019,16.295l-6.466,11.282l-11.078-26.578l-24.616,3.016L1034.9,309.801z
		 M1015.185,344.204l21.799,12.484c0,0,6.678,4.031,10.13-2c3.55-6.203-3.254-10.005-3.254-10.005l-21.793-12.484l5.123-8.935
		l21.791,12.484c0,0,15.156,8.886,6.76,23.537c-8.768,15.306-24.013,6.567-24.013,6.567l-21.793-12.484L1015.185,344.204z
		 M947.971,461.527l6.13-10.698l21.102,1.575l-11.715-17.952l5.824-10.164l26.36,39.844L947.971,461.527z M1015.492,429.551
		c-6.032,10.514-19.125,13.527-29.003,7.869c-9.24-5.293-14.181-17.978-7.871-28.99c5.791-10.109,18.815-13.705,28.991-7.875
		l2.257,1.292l-16.259,28.391c3.105,0.979,9.976,0.845,13.582-5.444c3.424-5.983,0.342-11.562-0.989-13.159l8.958-3.971
		C1015.158,407.659,1021.88,418.388,1015.492,429.551z M1011.088,386.705l21.785,12.488l-5.244,9.163l-21.791-12.484
		c0,0-15.25-8.727-6.478-24.034c8.392-14.648,23.717-6.072,23.717-6.072l21.801,12.484l-5.12,8.938l-21.793-12.484
		c0,0-6.727-3.956-10.279,2.249C1004.233,382.983,1011.088,386.705,1011.088,386.705z"/>
	<path fill="#FFFFFF" d="M508.309,798.17h-9.184h-0.142c-0.611,0-1.129,0.518-1.129,1.13v30.705c0,0.609,0.519,1.13,1.129,1.13
		c0.659,0,1.178-0.518,1.178-1.13v-12.951l8.148-0.095c5.178,0,9.371-4.192,9.371-9.371S513.487,798.17,508.309,798.17z
		 M508.309,814.747h-8.148v-14.271h8.148c3.91,0,7.11,3.205,7.11,7.112C515.417,811.495,512.215,814.697,508.309,814.747z"/>
	<path fill="#FFFFFF" d="M526.24,798.17c-0.612,0-1.129,0.518-1.129,1.13v30.705c0,0.609,0.517,1.13,1.129,1.13
		c0.659,0,1.176-0.518,1.176-1.13V799.3C527.416,798.688,526.899,798.17,526.24,798.17z"/>
	<path fill="#FFFFFF" d="M559.296,818.988v-0.141v-0.049c-0.47-6.029-5.181-10.735-11.115-10.735
		c-6.214-0.005-11.208,5.175-11.208,11.579c0,6.311,4.994,11.493,11.208,11.493c3.91,0,7.346-2.071,9.324-5.229
		c0.33-0.564,0.141-1.224-0.376-1.597c-0.471-0.283-1.178-0.189-1.508,0.376c-1.553,2.589-4.377,4.192-7.44,4.192
		c-4.755,0-8.713-3.813-8.948-8.854h18.931C558.775,820.024,559.296,819.601,559.296,818.988z M539.374,817.805
		c0.849-4.379,4.473-7.486,8.807-7.486c4.239,0,7.912,3.154,8.665,7.486H539.374z"/>
	<path fill="#FFFFFF" d="M585.516,808.059c-0.611,0-1.129,0.471-1.129,1.131v3.392c-1.978-2.732-5.132-4.522-8.665-4.522
		c-6.076,0-10.925,5.227-10.925,11.537c0,6.308,4.849,11.537,10.925,11.537c3.533,0,6.688-1.837,8.665-4.567v3.437
		c0,0.61,0.519,1.131,1.129,1.131c0.612,0,1.131-0.519,1.131-1.131v-20.815C586.647,808.529,586.128,808.059,585.516,808.059z
		 M575.722,828.873c-4.711,0-8.665-4.096-8.665-9.277s3.954-9.324,8.665-9.324c4.755,0,8.665,4.146,8.665,9.324
		S580.477,828.873,575.722,828.873z"/>
	<path fill="#FFFFFF" d="M607.88,827.461c-1.036,0.847-2.59,1.412-4.379,1.412c-2.922,0-5.464-1.506-7.065-2.684
		c-0.517-0.424-1.223-0.33-1.6,0.142c-0.376,0.473-0.329,1.083,0.141,1.506c1.884,1.506,4.805,3.251,8.524,3.298
		c2.26,0,4.143-0.659,5.744-1.836c1.553-1.177,2.635-2.73,2.635-4.661c0-1.93-1.083-3.721-2.588-4.71
		c-1.601-0.895-3.39-1.557-5.604-1.887h-0.095c-2.119-0.329-3.673-0.894-4.707-1.597c-0.895-0.709-1.318-1.365-1.318-2.31
		c0-0.945,0.517-1.883,1.461-2.637c0.989-0.803,2.495-1.32,4.379-1.32c2.259,0,3.954,1.177,5.651,2.309
		c0.519,0.33,1.225,0.187,1.554-0.329c0.329-0.518,0.188-1.227-0.33-1.602c-1.791-1.132-3.911-2.495-6.876-2.495
		c-2.354,0-4.288,0.61-5.653,1.555c-1.462,1.08-2.498,2.681-2.498,4.517c0,1.791,1.036,3.299,2.495,4.146
		c1.318,0.939,3.154,1.412,5.228,1.789l0.095,0.049c2.259,0.378,3.907,0.939,4.898,1.692c1.176,0.991,1.601,1.744,1.648,2.828
		C609.622,825.672,609.009,826.708,607.88,827.461z"/>
	<path fill="#FFFFFF" d="M629.157,808.059c-6.218,0-11.208,5.18-11.208,11.584c0,6.311,4.99,11.492,11.208,11.492
		c3.91,0,7.346-2.071,9.324-5.229c0.33-0.564,0.141-1.224-0.376-1.597c-0.472-0.283-1.178-0.189-1.507,0.376
		c-1.553,2.589-4.378,4.192-7.44,4.192c-4.755,0-8.713-3.813-8.948-8.854h18.931c0.611,0,1.13-0.424,1.13-1.036v-0.141v-0.049
		C639.799,812.767,635.088,808.059,629.157,808.059z M620.347,817.805c0.847-4.379,4.475-7.486,8.807-7.486
		c4.239,0,7.912,3.154,8.665,7.486H620.347z"/>
	<path fill="#FFFFFF" d="M680.71,821.714v-12.571c0-0.66-0.519-1.134-1.178-1.134c-0.564,0-1.129,0.474-1.129,1.134v12.571
		c0,3.958-3.204,7.114-7.159,7.159c-3.91-0.047-7.064-3.204-7.064-7.159v-12.571c0-0.66-0.519-1.134-1.129-1.134
		c-0.612,0-1.131,0.474-1.131,1.134v12.571c0,5.182,4.143,9.421,9.324,9.421C676.518,831.133,680.71,826.896,680.71,821.714z"/>
	<path fill="#FFFFFF" d="M706.695,824.636c0-1.931-1.084-3.722-2.59-4.711c-1.602-0.895-3.39-1.557-5.605-1.885h-0.094
		c-2.12-0.329-3.672-0.895-4.708-1.599c-0.895-0.709-1.318-1.365-1.318-2.31s0.517-1.883,1.459-2.637
		c0.989-0.803,2.498-1.32,4.381-1.32c2.26,0,3.954,1.177,5.651,2.309c0.519,0.33,1.225,0.187,1.554-0.329
		c0.33-0.518,0.188-1.227-0.33-1.6c-1.791-1.134-3.911-2.496-6.876-2.496c-2.354,0-4.286,0.609-5.653,1.554
		c-1.459,1.083-2.498,2.684-2.498,4.522c0,1.791,1.036,3.299,2.498,4.146c1.318,0.938,3.157,1.412,5.228,1.788l0.095,0.05
		c2.26,0.377,3.907,0.939,4.898,1.692c1.178,0.991,1.601,1.744,1.648,2.827c0,1.037-0.612,2.071-1.742,2.825
		c-1.036,0.848-2.59,1.412-4.378,1.412c-2.922,0-5.464-1.507-7.065-2.684c-0.517-0.423-1.223-0.329-1.6,0.141
		c-0.376,0.475-0.33,1.084,0.141,1.508c1.884,1.506,4.802,3.25,8.524,3.297c2.26,0,4.143-0.659,5.744-1.835
		C705.611,828.12,706.695,826.565,706.695,824.636z"/>
	<path fill="#FFFFFF" d="M735.085,818.983v-0.141v-0.05c-0.47-6.029-5.181-10.734-11.116-10.734c-6.214,0-11.208,5.18-11.208,11.584
		c0,6.311,4.994,11.492,11.208,11.492c3.91,0,7.347-2.071,9.324-5.229c0.33-0.564,0.141-1.224-0.376-1.597
		c-0.47-0.283-1.178-0.189-1.507,0.376c-1.553,2.589-4.377,4.192-7.44,4.192c-4.755,0-8.713-3.813-8.947-8.854h18.931
		C734.565,820.02,735.085,819.596,735.085,818.983z M715.163,817.805c0.848-4.379,4.473-7.486,8.807-7.486
		c4.239,0,7.912,3.154,8.665,7.486H715.163z"/>
	<path fill="#FFFFFF" d="M759.936,798.357c-0.565,0-1.131,0.565-1.131,1.131v8.57h-2.871c-1.13,0-1.13,0.565-1.13,1.131
		c0,0.563,0,1.132,1.13,1.132h2.871v16.813c0,2.307,1.745,4.002,4.049,4.002c0.565,0,1.178-0.565,1.178-1.131
		c0-0.566-0.612-1.177-1.178-1.177c-0.565,0-1.694-0.567-1.694-1.694v-16.813h2.966c0.564,0,1.129-0.568,1.129-1.132
		c0-0.565-0.565-1.131-1.129-1.131h-2.966v-8.571C761.159,798.923,760.547,798.357,759.936,798.357z"/>
	<path fill="#FFFFFF" d="M776.365,831.136v-0.003h0.095c0.047,0,0.094-0.048,0.094-0.048c0.33-0.094,0.565-0.281,0.706-0.566
		c0.047-0.047,0.047-0.096,0.094-0.187c0-0.05,0.048-0.094,0.048-0.188v-0.143v-12.856c0-4.052,3.295-6.783,7.299-6.783
		c4.049,0,7.347,2.731,7.347,6.783v12.856c0,0.61,0.519,1.131,1.129,1.131c0.659,0,1.178-0.519,1.178-1.131v-12.856
		c0-5.321-4.332-9.09-9.654-9.09c-2.919,0-5.558,1.318-7.299,3.39v-12.151c0-0.609-0.519-1.129-1.178-1.129
		c-0.612,0-1.129,0.517-1.129,1.129v17.475v0.377v12.856c0,0.143,0,0.236,0.047,0.377c0.047,0.142,0.094,0.235,0.189,0.376
		c0.234,0.239,0.564,0.381,0.894,0.381H776.365z"/>
	<path fill="#FFFFFF" d="M813.511,831.135c3.91,0,7.347-2.071,9.324-5.229c0.33-0.564,0.141-1.224-0.376-1.597
		c-0.472-0.283-1.178-0.189-1.507,0.376c-1.553,2.589-4.377,4.192-7.44,4.192c-4.755,0-8.711-3.813-8.947-8.854h18.931
		c0.615-0.005,1.132-0.429,1.132-1.041v-0.141v-0.05c-0.47-6.029-5.181-10.734-11.116-10.734c-6.214,0-11.208,5.18-11.208,11.584
		C802.303,825.953,807.297,831.135,813.511,831.135z M813.511,810.318c4.239,0,7.912,3.154,8.665,7.486h-17.472
		C805.552,813.426,809.177,810.318,813.511,810.318z"/>
	<path fill="#FFFFFF" d="M848.208,798.17c-0.612,0-1.134,0.518-1.134,1.13v30.705c0,0.609,0.519,1.13,1.134,1.13
		c0.659,0,1.176-0.518,1.176-1.13V799.3C849.382,798.688,848.864,798.17,848.208,798.17z"/>
	<path fill="#FFFFFF" d="M876.693,808.059c-0.612,0-1.131,0.471-1.131,1.131v3.392c-1.977-2.732-5.132-4.522-8.665-4.522
		c-6.075,0-10.924,5.227-10.924,11.537c0,6.308,4.849,11.537,10.924,11.537c3.535,0,6.688-1.837,8.665-4.567v3.437
		c0,0.61,0.519,1.131,1.131,1.131s1.129-0.519,1.129-1.131v-20.815C877.823,808.529,877.304,808.059,876.693,808.059z
		 M866.897,828.873c-4.709,0-8.665-4.096-8.665-9.277s3.956-9.324,8.665-9.324c4.755,0,8.665,4.146,8.665,9.324
		S871.652,828.873,866.897,828.873z"/>
	<path fill="#FFFFFF" d="M893.259,828.826c-0.565,0-1.694-0.568-1.694-1.695v-16.813h2.966c0.564,0,1.129-0.568,1.129-1.132
		c0-0.565-0.565-1.131-1.129-1.131h-2.966v-8.571c0-0.564-0.612-1.13-1.224-1.13c-0.565,0-1.131,0.565-1.131,1.13v8.571h-2.871
		c-1.13,0-1.13,0.565-1.13,1.131c0,0.563,0,1.132,1.13,1.132h2.871v16.813c0,2.306,1.745,4.002,4.049,4.002
		c0.565,0,1.177-0.565,1.177-1.131C894.436,829.438,893.824,828.826,893.259,828.826z"/>
	<path fill="#FFFFFF" d="M923.442,825.903c0.33-0.563,0.141-1.223-0.376-1.597c-0.472-0.283-1.178-0.189-1.506,0.376
		c-1.554,2.589-4.379,4.192-7.441,4.192c-4.755,0-8.712-3.813-8.948-8.854h18.931c0.612,0,1.129-0.423,1.129-1.035v-0.141v-0.05
		c-0.47-6.029-5.178-10.735-11.112-10.735c-6.217,0-11.208,5.179-11.208,11.585c0,6.311,4.991,11.491,11.208,11.491
		C918.025,831.133,921.462,829.061,923.442,825.903z M914.118,810.318c4.239,0,7.912,3.154,8.665,7.486h-17.472
		C906.159,813.429,909.783,810.318,914.118,810.318z"/>
	<path fill="#FFFFFF" d="M946.084,819.925c-1.601-0.895-3.39-1.557-5.604-1.885h-0.095c-2.118-0.329-3.671-0.895-4.707-1.599
		c-0.896-0.709-1.318-1.365-1.318-2.31s0.517-1.883,1.459-2.637c0.989-0.803,2.497-1.32,4.381-1.32c2.259,0,3.954,1.177,5.652,2.309
		c0.519,0.33,1.225,0.187,1.554-0.329c0.33-0.518,0.188-1.227-0.33-1.6c-1.792-1.134-3.91-2.496-6.876-2.496
		c-2.354,0-4.287,0.609-5.652,1.554c-1.459,1.083-2.498,2.684-2.498,4.522c0,1.791,1.036,3.299,2.498,4.146
		c1.318,0.938,3.158,1.412,5.229,1.788l0.094,0.05c2.259,0.377,3.907,0.939,4.898,1.692c1.176,0.991,1.601,1.744,1.648,2.827
		c0,1.037-0.612,2.071-1.742,2.825c-1.036,0.848-2.59,1.412-4.379,1.412c-2.921,0-5.464-1.507-7.063-2.684
		c-0.519-0.423-1.225-0.329-1.602,0.141c-0.376,0.475-0.329,1.084,0.141,1.508c1.884,1.506,4.802,3.25,8.524,3.297
		c2.26,0,4.143-0.659,5.744-1.835c1.553-1.178,2.635-2.73,2.635-4.661C948.675,822.711,947.59,820.914,946.084,819.925z"/>
	<path fill="#FFFFFF" d="M958.699,827.131c0,2.308,1.742,4.002,4.047,4.002c0.566,0,1.178-0.565,1.178-1.131
		c0-0.566-0.611-1.176-1.178-1.176c-0.563,0-1.693-0.568-1.693-1.695v-16.813h2.965c0.566,0,1.13-0.568,1.13-1.132
		c0-0.565-0.563-1.131-1.13-1.131h-2.965v-8.571c0-0.564-0.612-1.13-1.225-1.13c-0.565,0-1.129,0.565-1.129,1.13v8.571h-2.873
		c-1.129,0-1.129,0.565-1.129,1.131c0,0.563,0,1.132,1.129,1.132h2.873V827.131z"/>
	<path fill="#FFFFFF" d="M997.68,831.038c0.048,0.05,0.048,0.05,0.095,0.05c0.141,0.048,0.234,0.048,0.376,0.048
		c0.236,0,0.566-0.095,0.754-0.329c0.141-0.189,0.235-0.381,0.282-0.565l8.618-20.438c0.234-0.564,0-1.226-0.565-1.462
		c-0.564-0.234-1.271,0.05-1.459,0.612l-7.677,18.178l-7.677-18.178c-0.188-0.565-0.894-0.847-1.459-0.612
		c-0.518,0.236-0.8,0.897-0.565,1.462l8.666,20.626c0.094,0.238,0.234,0.379,0.376,0.519
		C997.539,830.991,997.586,831.038,997.68,831.038z"/>
	<path fill="#FFFFFF" d="M1036.711,818.983v-0.141v-0.05c-0.471-6.029-5.179-10.734-11.113-10.734
		c-6.217,0-11.208,5.18-11.208,11.584c0,6.311,4.991,11.492,11.208,11.492c3.91,0,7.347-2.071,9.324-5.229
		c0.329-0.564,0.141-1.224-0.377-1.597c-0.472-0.283-1.178-0.189-1.507,0.376c-1.553,2.589-4.379,4.192-7.44,4.192
		c-4.755,0-8.713-3.813-8.947-8.854h18.931C1036.192,820.02,1036.711,819.596,1036.711,818.983z M1016.791,817.805
		c0.847-4.379,4.475-7.486,8.807-7.486c4.239,0,7.912,3.154,8.665,7.486H1016.791z"/>
	<path fill="#FFFFFF" d="M1044.896,808.106c-0.658,0-1.178,0.471-1.178,1.132v20.767c0,0.659,0.52,1.131,1.178,1.131
		c0.564,0,1.083-0.472,1.083-1.131v-10.127c0-0.092,0-0.186,0.094-0.376c0.33-0.942,1.225-3.299,2.78-5.37
		c1.602-2.071,3.673-3.767,6.688-3.767c0.612,0,1.13-0.517,1.13-1.129c0-0.662-0.518-1.133-1.13-1.133
		c-4.426,0-7.488,2.918-9.23,5.651c-0.141,0.187-0.235,0.377-0.329,0.565v-5.084
		C1045.979,808.574,1045.461,808.106,1044.896,808.106z"/>
	<path fill="#FFFFFF" d="M1077.242,819.925c-1.6-0.895-3.39-1.557-5.604-1.885h-0.095c-2.119-0.329-3.672-0.895-4.707-1.599
		c-0.896-0.709-1.318-1.365-1.318-2.31s0.519-1.883,1.462-2.637c0.988-0.803,2.494-1.32,4.378-1.32c2.26,0,3.955,1.177,5.652,2.309
		c0.518,0.33,1.225,0.187,1.554-0.329c0.329-0.518,0.188-1.227-0.329-1.6c-1.792-1.134-3.91-2.496-6.877-2.496
		c-2.354,0-4.287,0.609-5.651,1.554c-1.46,1.083-2.496,2.684-2.496,4.522c0,1.791,1.036,3.299,2.496,4.146
		c1.317,0.938,3.154,1.412,5.229,1.788l0.094,0.05c2.259,0.377,3.907,0.939,4.898,1.692c1.178,0.991,1.601,1.744,1.647,2.827
		c0,1.037-0.611,2.071-1.741,2.825c-1.036,0.848-2.59,1.412-4.379,1.412c-2.921,0-5.464-1.507-7.063-2.684
		c-0.519-0.423-1.225-0.329-1.602,0.141c-0.376,0.475-0.329,1.084,0.141,1.508c1.885,1.506,4.805,3.25,8.524,3.297
		c2.261,0,4.143-0.659,5.744-1.835c1.553-1.178,2.636-2.73,2.636-4.661C1079.834,822.711,1078.748,820.914,1077.242,819.925z"/>
	<path fill="#FFFFFF" d="M1089.901,801.653c0-0.612-0.518-1.131-1.177-1.131c-0.612,0-1.131,0.517-1.131,1.131v1.083
		c0,0.659,0.521,1.228,1.131,1.228c0.659,0,1.177-0.568,1.177-1.228V801.653z"/>
	<path fill="#FFFFFF" d="M1088.725,808.059c-0.612,0-1.131,0.471-1.131,1.131v20.815c0,0.609,0.519,1.131,1.131,1.131
		c0.659,0,1.177-0.519,1.177-1.131v-20.815C1089.901,808.529,1089.384,808.059,1088.725,808.059z"/>
	<path fill="#FFFFFF" d="M1121.546,819.596c0-6.264-4.849-11.537-10.925-11.537c-6.028,0-10.926,5.276-10.926,11.537
		s4.9,11.537,10.926,11.537C1116.694,831.133,1121.546,825.859,1121.546,819.596z M1101.956,819.596
		c0-5.135,3.958-9.324,8.665-9.324c4.711,0,8.666,4.192,8.666,9.324s-3.955,9.277-8.666,9.277
		C1105.911,828.873,1101.956,824.728,1101.956,819.596z"/>
	<path fill="#FFFFFF" d="M1146.686,817.478v12.527c0,0.659,0.519,1.131,1.131,1.131c0.611,0,1.13-0.472,1.13-1.131v-12.527
		c0-5.135-4.192-9.371-9.371-9.371c-2.876,0-5.464,1.317-7.159,3.342v-2.212c0-0.612-0.47-1.133-1.082-1.133
		c-0.659,0-1.131,0.518-1.131,1.133v7.864v0.377v12.527v0.28c0,0,0.047,0.05,0.047,0.094s0,0.095,0.048,0.142
		c0.141,0.283,0.424,0.518,0.753,0.612h0.283c0.329,0,0.659-0.142,0.847-0.425c0.141-0.141,0.188-0.329,0.235-0.517v-0.187v-12.527
		c0.094-3.908,3.251-7.112,7.159-7.112C1143.529,810.365,1146.686,813.566,1146.686,817.478z"/>
	<path fill="#FFFFFF" d="M1183.025,808.059c-6.028,0-10.924,5.276-10.924,11.537s4.898,11.537,10.924,11.537
		c6.076,0,10.925-5.276,10.925-11.537S1189.102,808.059,1183.025,808.059z M1183.025,828.873c-4.707,0-8.665-4.146-8.665-9.277
		c0-5.135,3.958-9.324,8.665-9.324c4.711,0,8.665,4.192,8.665,9.324S1187.736,828.873,1183.025,828.873z"/>
	<path fill="#FFFFFF" d="M1203.834,830.049c0,0.612,0.518,1.131,1.177,1.131c0.612,0,1.131-0.516,1.131-1.131v-20.06h3.248
		c0.659,0,1.177-0.519,1.177-1.177c0-0.612-0.518-1.134-1.177-1.134h-3.248v-2.45c0-2.118,0.424-3.248,0.94-3.813
		c0.472-0.565,1.318-0.895,2.92-0.895c0.612,0,1.129-0.518,1.129-1.133c0-0.659-0.517-1.176-1.129-1.176
		c-1.837,0-3.53,0.423-4.661,1.649c-1.083,1.269-1.46,3.013-1.507,5.367v2.45h-3.06c-0.612,0-1.13,0.519-1.13,1.133
		c0,0.659,0.518,1.178,1.13,1.178h3.06V830.049z"/>
	<path fill="#FFFFFF" d="M1259.11,825.903c-0.33-0.563-1.083-0.659-1.648-0.279c-2.448,2.071-5.651,3.204-9.137,3.204
		c-8.239,0-14.832-6.452-14.832-14.317c0-8.053,6.595-14.505,14.832-14.505c3.488,0,6.688,1.225,9.23,3.203
		c0.472,0.377,1.225,0.33,1.602-0.237c0.423-0.425,0.329-1.225-0.188-1.647c-2.873-2.216-6.595-3.629-10.645-3.629
		c-9.464,0.052-17.141,7.442-17.141,16.815c0,9.184,7.677,16.622,17.141,16.622c4.052,0,7.771-1.365,10.645-3.578
		C1259.486,827.178,1259.58,826.328,1259.11,825.903z"/>
	<path fill="#FFFFFF" d="M1287.684,830.005v-12.857c0-5.32-4.332-9.089-9.653-9.089c-2.918,0-5.558,1.318-7.3,3.39v-12.151
		c0-0.609-0.519-1.13-1.176-1.13c-0.613,0-1.131,0.518-1.131,1.13v17.475v0.376v12.857c0,0.143,0,0.236,0.047,0.377
		c0.047,0.142,0.095,0.235,0.188,0.376c0.235,0.238,0.565,0.379,0.896,0.379h0.141h0.094c0.047,0,0.095-0.047,0.095-0.047
		c0.328-0.094,0.564-0.281,0.705-0.566c0.048-0.047,0.048-0.095,0.095-0.187c0-0.049,0.047-0.094,0.047-0.188v-0.142V817.15
		c0-4.052,3.296-6.782,7.3-6.782c4.049,0,7.348,2.73,7.348,6.782v12.857c0,0.609,0.518,1.129,1.13,1.129
		C1287.167,831.133,1287.684,830.614,1287.684,830.005z"/>
	<path fill="#FFFFFF" d="M1309.102,808.106c-4.425,0-7.487,2.918-9.229,5.651c-0.142,0.187-0.235,0.377-0.329,0.565v-5.085
		c0-0.661-0.519-1.132-1.083-1.132c-0.659,0-1.178,0.471-1.178,1.132v20.767c0,0.659,0.519,1.131,1.178,1.131
		c0.564,0,1.083-0.472,1.083-1.131v-10.127c0-0.092,0-0.186,0.094-0.376c0.33-0.942,1.225-3.299,2.78-5.37
		c1.601-2.071,3.673-3.767,6.687-3.767c0.613,0,1.131-0.517,1.131-1.129C1310.232,808.574,1309.714,808.106,1309.102,808.106z"/>
	<path fill="#FFFFFF" d="M1326.616,831.133c6.074,0,10.925-5.276,10.925-11.537s-4.851-11.537-10.925-11.537
		c-6.029,0-10.926,5.276-10.926,11.537S1320.587,831.133,1326.616,831.133z M1326.616,810.271c4.709,0,8.665,4.192,8.665,9.324
		s-3.956,9.277-8.665,9.277c-4.708,0-8.667-4.146-8.667-9.277C1317.949,814.461,1321.905,810.271,1326.616,810.271z"/>
	<path fill="#FFFFFF" d="M1372.052,808.106c-3.533,0-6.642,1.977-8.288,4.898c-1.602-2.922-4.662-4.898-8.242-4.898
		c-2.872,0-5.414,1.271-7.111,3.297v-2.214c0-0.612-0.471-1.083-1.13-1.083c-0.565,0-1.085,0.471-1.085,1.083v7.911v0.377v12.574
		v0.236c0.141,0.423,0.518,0.802,0.941,0.848h0.141h0.141c0.095,0,0.143,0,0.189-0.048c0.094,0,0.234-0.094,0.283-0.144
		c0.329-0.189,0.517-0.519,0.517-0.896v-12.574c0-3.908,3.157-7.156,7.112-7.156c3.956,0,7.111,3.248,7.111,7.156v12.574v0.096
		v0.141c0.049,0.05,0.049,0.094,0.049,0.141c0.048,0.051,0.048,0.095,0.048,0.095c0.05,0.05,0.05,0.05,0.05,0.094
		c0.047,0,0.047,0.05,0.094,0.094l0.141,0.143c0.048,0.05,0.095,0.094,0.142,0.094c0.095,0.05,0.188,0.144,0.283,0.144
		c0,0,0.047,0.048,0.094,0.048h0.094h0.142c0.188,0,0.377-0.048,0.564-0.142c0.236-0.144,0.472-0.33,0.565-0.612v-0.094
		c0,0,0.05-0.047,0.05-0.094v-0.143v-12.574c0-3.908,3.203-7.156,7.111-7.156c3.957,0,7.064,3.248,7.156,7.156v12.574
		c0,0.565,0.474,1.084,1.083,1.084c0.662,0,1.132-0.519,1.132-1.084v-12.574C1381.423,812.296,1377.23,808.106,1372.052,808.106z"/>
	<path fill="#FFFFFF" d="M1409.854,825.903c0.329-0.563,0.142-1.223-0.377-1.597c-0.473-0.283-1.178-0.189-1.508,0.376
		c-1.555,2.589-4.38,4.192-7.439,4.192c-4.758,0-8.712-3.813-8.95-8.854h18.931c0.612,0,1.132-0.423,1.132-1.035v-0.141v-0.05
		c-0.473-6.029-5.179-10.735-11.112-10.735c-6.217,0-11.211,5.179-11.211,11.585c0,6.311,4.994,11.491,11.211,11.491
		C1404.436,831.133,1407.875,829.061,1409.854,825.903z M1400.529,810.318c4.236,0,7.909,3.154,8.664,7.486h-17.472
		C1392.57,813.429,1396.194,810.318,1400.529,810.318z"/>
	<path fill="#FFFFFF" d="M1420.205,826.942c-0.895,0-1.553,0.659-1.553,1.557v0.989c0,0.938,0.563,1.459,1.271,1.646
		c0.141,1.647-0.52,2.684-2.217,3.628c-0.235,0.141-0.376,0.377-0.376,0.609c0,0.474,0.376,0.709,0.706,0.709
		c0.423,0,1.601-0.659,2.45-1.507c0.851-0.847,1.271-2.26,1.271-4.898v-1.174C1421.762,827.602,1421.103,826.942,1420.205,826.942z"
		/>
	<path fill="#FFFFFF" d="M506.142,854.661h-16.859h-0.188c-0.612,0.047-1.083,0.519-1.083,1.131v30.705
		c0,0.609,0.517,1.13,1.129,1.13c0.659,0,1.177-0.518,1.177-1.13v-14.176h13.845c0.659,0,1.176-0.519,1.176-1.133
		c0-0.659-0.517-1.177-1.176-1.177h-13.845v-13.044h15.824c0.612,0,1.129-0.519,1.129-1.176
		C507.271,855.183,506.754,854.661,506.142,854.661z"/>
	<path fill="#FFFFFF" d="M517.154,864.553c-0.612,0-1.131,0.471-1.131,1.13V886.5c0,0.609,0.519,1.129,1.131,1.129
		c0.658,0,1.176-0.517,1.176-1.129v-20.817C518.331,865.021,517.812,864.553,517.154,864.553z"/>
	<path fill="#FFFFFF" d="M517.154,857.018c-0.612,0-1.131,0.516-1.131,1.13v1.082c0,0.659,0.519,1.228,1.131,1.228
		c0.658,0,1.176-0.568,1.176-1.228v-1.082C518.331,857.533,517.812,857.018,517.154,857.018z"/>
	<path fill="#FFFFFF" d="M541.025,864.598c-4.425,0-7.488,2.919-9.23,5.652c-0.141,0.186-0.236,0.377-0.33,0.564v-5.085
		c0-0.66-0.518-1.132-1.083-1.132c-0.659,0-1.178,0.472-1.178,1.132v20.768c0,0.659,0.519,1.13,1.178,1.13
		c0.565,0,1.083-0.471,1.083-1.13v-10.128c0-0.091,0-0.185,0.094-0.376c0.33-0.941,1.225-3.298,2.78-5.369
		c1.602-2.071,3.673-3.767,6.689-3.767c0.612,0,1.129-0.519,1.129-1.131C542.154,865.069,541.637,864.598,541.025,864.598z"/>
	<path fill="#FFFFFF" d="M557.076,864.553c-6.214,0-11.208,5.179-11.208,11.585c0,6.311,4.994,11.491,11.208,11.491
		c3.91,0,7.347-2.071,9.324-5.228c0.33-0.565,0.141-1.225-0.376-1.599c-0.472-0.282-1.178-0.188-1.507,0.377
		c-1.553,2.59-4.377,4.192-7.44,4.192c-4.755,0-8.711-3.813-8.947-8.853h18.931c0.612,0,1.132-0.425,1.132-1.036v-0.142v-0.05
		C567.722,869.259,563.011,864.553,557.076,864.553z M548.27,874.298c0.848-4.377,4.473-7.484,8.807-7.484
		c4.24,0,7.912,3.154,8.665,7.484H548.27z"/>
	<path fill="#FFFFFF" d="M585.229,854.708c-1.837,0-3.532,0.425-4.661,1.65c-1.083,1.269-1.459,3.014-1.506,5.367v2.451h-3.06
		c-0.612,0-1.129,0.517-1.129,1.132c0,0.659,0.517,1.178,1.129,1.178h3.06v20.061c0,0.612,0.517,1.129,1.176,1.129
		c0.612,0,1.13-0.514,1.13-1.129v-20.061h3.249c0.659,0,1.178-0.519,1.178-1.178c0-0.612-0.519-1.132-1.178-1.132h-3.249v-2.451
		c0-2.118,0.425-3.249,0.942-3.813c0.471-0.565,1.318-0.896,2.919-0.896c0.611,0,1.129-0.517,1.129-1.132
		C586.359,855.227,585.843,854.708,585.229,854.708z"/>
	<path fill="#FFFFFF" d="M602.51,864.553c-6.028,0-10.925,5.275-10.925,11.538c0,6.261,4.898,11.536,10.925,11.536
		c6.076,0,10.925-5.275,10.925-11.536C613.435,869.828,608.583,864.553,602.51,864.553z M602.51,885.368
		c-4.708,0-8.665-4.146-8.665-9.277c0-5.135,3.957-9.325,8.665-9.325c4.711,0,8.665,4.193,8.665,9.325
		S607.218,885.368,602.51,885.368z"/>
	<path fill="#FFFFFF" d="M636.173,864.883c-0.423-0.33-1.129-0.238-1.506,0.28l-6.642,9.091l-6.688-9.091
		c-0.33-0.519-1.083-0.61-1.554-0.28c-0.47,0.376-0.564,1.035-0.234,1.601l7.063,9.701l-7.063,9.65
		c-0.33,0.518-0.236,1.177,0.234,1.556c0.236,0.143,0.472,0.236,0.659,0.236c0.33,0,0.709-0.141,0.895-0.471l6.688-9.092
		l6.641,9.092c0.188,0.33,0.564,0.471,0.94,0.471c0.189,0,0.425-0.094,0.565-0.236c0.565-0.379,0.659-1.035,0.33-1.556l-7.112-9.65
		l7.112-9.701C636.833,865.916,636.739,865.257,636.173,864.883z"/>
	<path fill="#FFFFFF" d="M648.315,883.435c-0.895,0-1.554,0.659-1.554,1.556v0.988c0,0.939,0.565,1.461,1.271,1.648
		c0.141,1.647-0.519,2.684-2.213,3.628c-0.234,0.141-0.376,0.377-0.376,0.608c0,0.475,0.376,0.709,0.706,0.709
		c0.423,0,1.601-0.659,2.451-1.506c0.851-0.847,1.271-2.261,1.271-4.898v-1.176C649.868,884.094,649.209,883.435,648.315,883.435z"
		/>
	<path fill="#FFFFFF" d="M682.073,864.553c-6.029,0-10.925,5.275-10.925,11.538c0,6.261,4.898,11.536,10.925,11.536
		c6.076,0,10.924-5.275,10.924-11.536C692.997,869.828,688.146,864.553,682.073,864.553z M682.073,885.368
		c-4.708,0-8.665-4.146-8.665-9.277c0-5.135,3.957-9.325,8.665-9.325c4.709,0,8.665,4.193,8.665,9.325
		S686.78,885.368,682.073,885.368z"/>
	<path fill="#FFFFFF" d="M712.532,864.598c-4.424,0-7.487,2.919-9.229,5.652c-0.142,0.186-0.236,0.377-0.33,0.564v-5.085
		c0-0.66-0.519-1.132-1.083-1.132c-0.659,0-1.178,0.472-1.178,1.132v20.768c0,0.659,0.519,1.13,1.178,1.13
		c0.564,0,1.083-0.471,1.083-1.13v-10.128c0-0.091,0-0.185,0.094-0.376c0.33-0.941,1.225-3.298,2.78-5.369
		c1.601-2.071,3.672-3.767,6.687-3.767c0.612,0,1.131-0.519,1.131-1.131C713.663,865.069,713.144,864.598,712.532,864.598z"/>
	<path fill="#FFFFFF" d="M750.478,854.19c-8.9,0-15.871,7.488-15.917,16.721c0.047,9.228,7.017,16.718,15.917,16.718
		c8.807,0,15.73-7.488,15.777-16.718C766.208,861.679,759.284,854.19,750.478,854.19z M750.478,885.319
		c-7.488,0-13.611-6.357-13.611-14.411c0-8.146,6.12-14.363,13.611-14.363c7.25,0,13.373,6.217,13.42,14.363
		C763.854,878.962,757.73,885.319,750.478,885.319z"/>
	<path fill="#FFFFFF" d="M786.584,864.553c-3.58,0-6.781,1.789-8.759,4.473v-3.343c0-0.612-0.519-1.13-1.178-1.13
		c-0.612,0-1.129,0.515-1.129,1.13v9.845v0.471v0.471v19.685c0,0.612,0.517,1.133,1.129,1.133c0.659,0,1.178-0.519,1.178-1.133
		v-13.186c1.978,2.73,5.179,4.523,8.759,4.523c6.214,0,11.161-5.229,11.161-11.493C797.748,869.682,792.801,864.553,786.584,864.553
		z M786.584,885.226c-4.755-0.05-8.759-4.146-8.759-9.23v-0.379c0.188-4.896,4.096-8.759,8.759-8.759c4.9,0,8.854,4.051,8.854,9.136
		C795.438,881.077,791.484,885.176,786.584,885.226z"/>
	<path fill="#FFFFFF" d="M815.679,864.553c-6.217,0-11.207,5.179-11.207,11.585c0,6.311,4.99,11.491,11.207,11.491
		c3.91,0,7.347-2.071,9.324-5.228c0.33-0.565,0.141-1.225-0.376-1.599c-0.47-0.282-1.176-0.188-1.506,0.377
		c-1.554,2.59-4.379,4.192-7.442,4.192c-4.755,0-8.711-3.813-8.947-8.853h18.931c0.612,0,1.129-0.425,1.129-1.036v-0.142v-0.05
		C826.321,869.259,821.613,864.553,815.679,864.553z M806.874,874.298c0.847-4.377,4.475-7.484,8.805-7.484
		c4.239,0,7.912,3.154,8.665,7.484H806.874z"/>
	<path fill="#FFFFFF" d="M845.621,864.598c-4.425,0-7.488,2.919-9.23,5.652c-0.141,0.186-0.235,0.377-0.33,0.564v-5.085
		c0-0.66-0.517-1.132-1.083-1.132c-0.659,0-1.176,0.472-1.176,1.132v20.768c0,0.659,0.517,1.13,1.176,1.13
		c0.565,0,1.083-0.471,1.083-1.13v-10.128c0-0.091,0-0.185,0.095-0.376c0.33-0.941,1.223-3.298,2.78-5.369
		c1.6-2.071,3.671-3.767,6.687-3.767c0.612,0,1.13-0.519,1.13-1.131C846.75,865.069,846.233,864.598,845.621,864.598z"/>
	<path fill="#FFFFFF" d="M871.518,864.553c-0.613,0-1.131,0.471-1.131,1.13v3.393c-1.977-2.733-5.132-4.522-8.665-4.522
		c-6.075,0-10.925,5.226-10.925,11.538c0,6.308,4.85,11.536,10.925,11.536c3.534,0,6.688-1.836,8.665-4.566v3.437
		c0,0.609,0.518,1.13,1.131,1.13c0.612,0,1.129-0.518,1.129-1.13V865.68C872.646,865.021,872.128,864.553,871.518,864.553z
		 M861.722,885.368c-4.708,0-8.665-4.097-8.665-9.277c0-5.183,3.957-9.325,8.665-9.325c4.755,0,8.665,4.146,8.665,9.325
		C870.387,881.27,866.477,885.368,861.722,885.368z"/>
	<path fill="#FFFFFF" d="M903.478,864.553h-2.966v-8.57c0-0.565-0.612-1.13-1.223-1.13c-0.565,0-1.131,0.564-1.131,1.13v8.57h-2.872
		c-1.129,0-1.129,0.565-1.129,1.13c0,0.565,0,1.134,1.129,1.134h2.872v16.811c0,2.308,1.745,4.002,4.049,4.002
		c0.565,0,1.178-0.564,1.178-1.129c0-0.568-0.612-1.178-1.178-1.178s-1.695-0.566-1.695-1.695v-16.811h2.966
		c0.564,0,1.129-0.568,1.129-1.134C904.607,865.118,904.042,864.553,903.478,864.553z"/>
	<path fill="#FFFFFF" d="M924.522,864.553c-6.028,0-10.925,5.275-10.925,11.538c0,6.261,4.9,11.536,10.925,11.536
		c6.076,0,10.925-5.275,10.925-11.536C935.447,869.828,930.598,864.553,924.522,864.553z M924.522,885.368
		c-4.707,0-8.665-4.146-8.665-9.277c0-5.135,3.958-9.325,8.665-9.325c4.711,0,8.665,4.193,8.665,9.325
		S929.233,885.368,924.522,885.368z"/>
	<path fill="#FFFFFF" d="M975.416,864.833c-0.563-0.235-1.27,0.05-1.459,0.612l-7.676,18.178l-7.678-18.178
		c-0.188-0.565-0.894-0.848-1.459-0.612c-0.517,0.236-0.8,0.896-0.564,1.462l8.665,20.626c0.094,0.238,0.234,0.379,0.377,0.517
		c0.094,0.051,0.141,0.096,0.235,0.096c0.047,0.049,0.047,0.049,0.094,0.049c0.141,0.047,0.236,0.047,0.377,0.047
		c0.234,0,0.564-0.094,0.753-0.329c0.141-0.188,0.235-0.379,0.282-0.565l8.618-20.437
		C976.218,865.729,975.981,865.069,975.416,864.833z"/>
	<path fill="#FFFFFF" d="M986.805,857.018c-0.612,0-1.131,0.516-1.131,1.13v1.082c0,0.659,0.519,1.228,1.131,1.228
		c0.659,0,1.177-0.568,1.177-1.228v-1.082C987.981,857.533,987.464,857.018,986.805,857.018z"/>
	<path fill="#FFFFFF" d="M986.805,864.553c-0.612,0-1.131,0.471-1.131,1.13V886.5c0,0.609,0.519,1.129,1.131,1.129
		c0.659,0,1.177-0.517,1.177-1.129v-20.817C987.981,865.021,987.464,864.553,986.805,864.553z"/>
	<path fill="#FFFFFF" d="M1008.417,864.553c-6.216,0-11.208,5.179-11.208,11.585c0,6.311,4.992,11.491,11.208,11.491
		c3.909,0,7.347-2.071,9.324-5.228c0.329-0.565,0.141-1.225-0.377-1.599c-0.472-0.282-1.178-0.188-1.507,0.377
		c-1.554,2.59-4.379,4.192-7.44,4.192c-4.755,0-8.713-3.813-8.948-8.853h18.93c0.612,0,1.134-0.425,1.134-1.036v-0.142v-0.05
		C1019.058,869.259,1014.349,864.553,1008.417,864.553z M999.61,874.298c0.847-4.377,4.472-7.484,8.807-7.484
		c4.239,0,7.91,3.154,8.665,7.484H999.61z"/>
	<path fill="#FFFFFF" d="M1056.583,864.833c-0.519-0.235-1.225,0.05-1.459,0.612l-7.63,18.178l-5.322-12.67
		c-0.189-0.423-0.659-0.706-1.13-0.706c-0.425,0-0.895,0.28-1.084,0.706l-5.321,12.67l-7.677-18.178
		c-0.188-0.565-0.895-0.848-1.46-0.612c-0.518,0.236-0.8,0.896-0.564,1.462l8.665,20.626c0.094,0.238,0.236,0.423,0.471,0.517
		c0.047,0.051,0.095,0.096,0.188,0.096c0.141,0.049,0.281,0.094,0.424,0.094c0.376,0,0.847-0.283,0.988-0.709
		c0-0.047,0.047-0.091,0.047-0.091l5.32-12.717l5.369,12.764l0.047,0.047c0.094,0.379,0.519,0.661,0.896,0.708h0.141h0.095
		c0.188,0,0.377-0.094,0.564-0.235c0.188-0.144,0.329-0.329,0.423-0.564l8.62-20.534
		C1057.43,865.729,1057.147,865.069,1056.583,864.833z"/>
	<path fill="#FFFFFF" d="M1090.852,864.553c-6.029,0-10.926,5.275-10.926,11.538c0,6.261,4.898,11.536,10.926,11.536
		c6.074,0,10.924-5.275,10.924-11.536C1101.775,869.828,1096.924,864.553,1090.852,864.553z M1090.852,885.368
		c-4.709,0-8.665-4.146-8.665-9.277c0-5.135,3.956-9.325,8.665-9.325s8.664,4.193,8.664,9.325
		C1099.514,881.223,1095.559,885.368,1090.852,885.368z"/>
	<path fill="#FFFFFF" d="M1126.819,864.504c-0.565,0-1.131,0.473-1.131,1.132v12.573c0,3.956-3.203,7.113-7.158,7.159
		c-3.91-0.049-7.063-3.205-7.063-7.159v-12.573c0-0.659-0.52-1.132-1.13-1.132c-0.612,0-1.131,0.473-1.131,1.132v12.573
		c0,5.181,4.143,9.42,9.324,9.42c5.276,0,9.466-4.236,9.466-9.42v-12.573C1127.999,864.977,1127.478,864.504,1126.819,864.504z"/>
	<path fill="#FFFFFF" d="M1150.358,864.598c-4.426,0-7.488,2.919-9.23,5.652c-0.141,0.186-0.234,0.377-0.329,0.564v-5.085
		c0-0.66-0.518-1.132-1.083-1.132c-0.659,0-1.177,0.472-1.177,1.132v20.768c0,0.659,0.518,1.13,1.177,1.13
		c0.565,0,1.083-0.471,1.083-1.13v-10.128c0-0.091,0-0.185,0.095-0.376c0.329-0.941,1.224-3.298,2.778-5.369
		c1.602-2.071,3.673-3.767,6.689-3.767c0.611,0,1.129-0.519,1.129-1.131C1151.487,865.069,1150.971,864.598,1150.358,864.598z"/>
	<path fill="#FFFFFF" d="M1191.692,856.358c0.096-0.144,0.143-0.332,0.143-0.517c0-0.659-0.519-1.178-1.178-1.178h-15.399
		c-0.659,0-1.178,0.519-1.178,1.178s0.519,1.176,1.178,1.176h12.622l-8.195,8.431c-0.47,0.47-0.47,1.224,0,1.694h0.049
		c0.234,0.279,0.563,0.471,0.94,0.471c2.26,0,4.523,0.847,6.214,2.589c1.745,1.694,2.593,3.958,2.593,6.218
		c0,2.259-0.848,4.522-2.593,6.264c-1.741,1.695-4.001,2.545-6.264,2.545c-2.262,0-4.473-0.847-6.214-2.545
		c-0.471-0.472-1.224-0.472-1.648,0c-0.47,0.471-0.47,1.224,0,1.647c2.167,2.216,5.038,3.298,7.865,3.298
		c2.871,0,5.746-1.129,7.912-3.298c2.213-2.166,3.296-5.037,3.296-7.908c0-2.873-1.083-5.747-3.249-7.913
		c-1.6-1.598-3.58-2.589-5.652-3.012l8.524-8.761C1191.552,856.639,1191.646,856.498,1191.692,856.358z"/>
	<path fill="#FFFFFF" d="M1209.862,854.661h-6.028h-0.142c-0.611,0-1.13,0.519-1.13,1.131v30.705c0,0.609,0.471,1.083,1.036,1.13
		h0.188h6.075c9.09,0,16.483-7.347,16.483-16.437C1226.346,862.103,1218.952,854.661,1209.862,854.661z M1209.862,885.319h-4.992
		v-28.352h4.992c7.818,0.05,14.175,6.358,14.175,14.223C1224.037,879.009,1217.681,885.319,1209.862,885.319z"/>
	<path fill="#FFFFFF" d="M1280.25,864.833c-0.517-0.235-1.223,0.05-1.459,0.612l-7.629,18.178l-5.322-12.67
		c-0.188-0.423-0.659-0.706-1.131-0.706c-0.423,0-0.894,0.28-1.082,0.706l-5.322,12.67l-7.678-18.178
		c-0.188-0.565-0.894-0.848-1.459-0.612c-0.517,0.236-0.8,0.896-0.563,1.462l8.665,20.626c0.094,0.238,0.234,0.423,0.47,0.517
		c0.047,0.051,0.094,0.096,0.189,0.096c0.141,0.049,0.281,0.094,0.423,0.094c0.377,0,0.847-0.283,0.989-0.709
		c0-0.047,0.047-0.091,0.047-0.091l5.321-12.717l5.37,12.764l0.047,0.047c0.095,0.379,0.519,0.661,0.894,0.708h0.143h0.094
		c0.189,0,0.377-0.094,0.565-0.235c0.188-0.144,0.329-0.329,0.423-0.564l8.618-20.534
		C1281.099,865.729,1280.815,865.069,1280.25,864.833z"/>
	<path fill="#FFFFFF" d="M1297.288,864.553c-6.217,0-11.208,5.179-11.208,11.585c0,6.311,4.991,11.491,11.208,11.491
		c3.911,0,7.347-2.071,9.324-5.228c0.329-0.565,0.142-1.225-0.377-1.599c-0.47-0.282-1.177-0.188-1.506,0.377
		c-1.555,2.59-4.379,4.192-7.441,4.192c-4.755,0-8.712-3.813-8.948-8.853h18.932c0.612,0,1.131-0.425,1.131-1.036v-0.142v-0.05
		C1307.931,869.259,1303.22,864.553,1297.288,864.553z M1288.481,874.298c0.848-4.377,4.475-7.484,8.807-7.484
		c4.239,0,7.911,3.154,8.665,7.484H1288.481z"/>
	<path fill="#FFFFFF" d="M1327.557,864.553c-3.627,0-6.828,1.789-8.854,4.522v-13.28c0-0.61-0.518-1.131-1.177-1.131
		c-0.612,0-1.13,0.519-1.13,1.131v19.874v0.472v0.473v9.89c0,0.609,0.518,1.129,1.13,1.129c0.659,0,1.177-0.517,1.177-1.129v-3.346
		c2.025,2.733,5.229,4.475,8.854,4.475c6.214,0,11.161-5.179,11.161-11.491C1338.721,869.731,1333.773,864.553,1327.557,864.553z
		 M1327.557,885.319c-4.849,0-8.854-4.097-8.854-9.185v-0.377c0.188-4.946,4.097-8.9,8.854-8.9c4.898,0,8.854,4.146,8.854,9.277
		C1336.41,881.223,1332.455,885.319,1327.557,885.319z"/>
	<path fill="#FFFFFF" d="M1360.324,876.42c-1.602-0.895-3.391-1.557-5.606-1.887h-0.094c-2.121-0.329-3.671-0.895-4.708-1.598
		c-0.894-0.709-1.317-1.365-1.317-2.309c0-0.945,0.518-1.884,1.462-2.637c0.989-0.803,2.495-1.321,4.379-1.321
		c2.259,0,3.956,1.178,5.651,2.31c0.518,0.33,1.225,0.185,1.554-0.329c0.33-0.519,0.188-1.228-0.329-1.602
		c-1.79-1.132-3.908-2.495-6.876-2.495c-2.352,0-4.285,0.61-5.65,1.554c-1.459,1.083-2.495,2.684-2.495,4.522
		c0,1.792,1.036,3.298,2.495,4.146c1.318,0.938,3.155,1.413,5.227,1.789l0.094,0.05c2.26,0.376,3.91,0.939,4.898,1.692
		c1.177,0.991,1.601,1.744,1.648,2.827c0,1.035-0.612,2.071-1.742,2.824c-1.035,0.848-2.59,1.412-4.381,1.412
		c-2.918,0-5.461-1.506-7.063-2.683c-0.519-0.425-1.225-0.329-1.602,0.141c-0.376,0.474-0.329,1.083,0.141,1.506
		c1.884,1.508,4.805,3.252,8.524,3.299c2.259,0,4.146-0.659,5.746-1.835c1.554-1.178,2.636-2.731,2.636-4.662
		S1361.83,877.407,1360.324,876.42z"/>
	<path fill="#FFFFFF" d="M1371.811,864.553c-0.612,0-1.132,0.471-1.132,1.13V886.5c0,0.609,0.517,1.129,1.132,1.129
		c0.659,0,1.178-0.517,1.178-1.129v-20.817C1372.988,865.021,1372.47,864.553,1371.811,864.553z"/>
	<path fill="#FFFFFF" d="M1371.811,857.018c-0.612,0-1.132,0.516-1.132,1.13v1.082c0,0.659,0.517,1.228,1.132,1.228
		c0.659,0,1.178-0.568,1.178-1.228v-1.082C1372.988,857.533,1372.47,857.018,1371.811,857.018z"/>
	<path fill="#FFFFFF" d="M1390.784,864.553h-2.969v-8.57c0-0.565-0.61-1.13-1.225-1.13c-0.564,0-1.13,0.564-1.13,1.13v8.57h-2.874
		c-1.134,0-1.134,0.565-1.134,1.13c0,0.565,0,1.134,1.134,1.134h2.874v16.811c0,2.308,1.742,4.002,4.049,4.002
		c0.564,0,1.177-0.564,1.177-1.129c0-0.568-0.612-1.178-1.177-1.178c-0.565,0-1.694-0.566-1.694-1.695v-16.811h2.969
		c0.564,0,1.13-0.568,1.13-1.134C1391.914,865.118,1391.349,864.553,1390.784,864.553z"/>
	<path fill="#FFFFFF" d="M1410.367,864.553c-6.217,0-11.209,5.179-11.209,11.585c0,6.311,4.992,11.491,11.209,11.491
		c3.908,0,7.348-2.071,9.323-5.228c0.329-0.565,0.141-1.225-0.377-1.599c-0.474-0.282-1.178-0.188-1.507,0.377
		c-1.556,2.59-4.38,4.192-7.44,4.192c-4.758,0-8.713-3.813-8.95-8.853h18.931c0.611,0,1.132-0.425,1.132-1.036v-0.142v-0.05
		C1421.009,869.259,1416.303,864.553,1410.367,864.553z M1401.563,874.298c0.847-4.377,4.472-7.484,8.805-7.484
		c4.238,0,7.911,3.154,8.666,7.484H1401.563z"/>
	<path fill="#FFFFFF" d="M1430.845,882.916c-1.32,0-2.354,1.035-2.354,2.354s1.036,2.354,2.354,2.354s2.354-1.036,2.354-2.354
		S1432.163,882.916,1430.845,882.916z"/>
	<path fill="#FFFFFF" d="M228.265,1.521c-0.881-0.721-2.162-0.561-2.722,0.32l-17.618,24.104L190.387,1.84
		c-0.561-0.879-1.842-1.039-2.722-0.318c-0.801,0.56-0.961,1.843-0.4,2.724l18.819,25.705v24.984c0,1.041,0.881,1.922,1.922,1.922
		c1.121,0,1.921-0.881,1.921-1.922V29.79l18.739-25.545C229.306,3.365,229.146,2.082,228.265,1.521z"/>
	<path fill="#FFFFFF" d="M246.114,17.616c-10.25,0-18.579,8.969-18.579,19.62c0,10.651,8.329,19.62,18.579,19.62
		c10.331,0,18.579-8.969,18.579-19.62C264.693,26.585,256.444,17.616,246.114,17.616z M246.114,53.013
		c-8.008,0-14.734-7.046-14.734-15.775s6.726-15.854,14.734-15.854s14.734,7.125,14.734,15.854S254.124,53.013,246.114,53.013z"/>
	<path fill="#FFFFFF" d="M307.288,17.536c-0.961,0-1.922,0.801-1.922,1.923v21.381c0,6.726-5.446,12.092-12.171,12.172
		c-6.647-0.08-12.012-5.444-12.012-12.172V19.459c0-1.123-0.881-1.923-1.922-1.923s-1.921,0.801-1.921,1.923v21.381
		c0,8.809,7.045,16.015,15.855,16.015c8.969,0,16.095-7.206,16.095-16.015V19.459C309.291,18.337,308.41,17.536,307.288,17.536z"/>
	<path fill="#FFFFFF" d="M347.318,17.696c-7.528,0-12.732,4.964-15.695,9.61c-0.24,0.32-0.4,0.64-0.561,0.96V19.62
		c0-1.121-0.881-1.923-1.841-1.923c-1.121,0-2.002,0.803-2.002,1.923v35.314c0,1.121,0.881,1.922,2.002,1.922
		c0.96,0,1.841-0.801,1.841-1.922V37.716c0-0.16,0-0.32,0.16-0.641c0.561-1.601,2.082-5.604,4.726-9.129
		c2.722-3.522,6.247-6.405,11.371-6.405c1.041,0,1.922-0.881,1.922-1.922C349.24,18.499,348.359,17.696,347.318,17.696z"/>
	<path fill="#FFFFFF" d="M405.363,17.616c-6.165,0-11.611,3.044-15.054,7.688V2.722c0-1.041-0.88-1.921-2.001-1.921
		c-1.041,0-1.922,0.881-1.922,1.921v33.795v0.8v0.801v16.817c0,1.041,0.881,1.921,1.922,1.921c1.121,0,2.001-0.88,2.001-1.921
		v-5.685c3.445,4.644,8.889,7.606,15.054,7.606c10.57,0,18.979-8.809,18.979-19.54C424.343,26.425,415.934,17.616,405.363,17.616z
		 M405.363,52.933c-8.248,0-15.054-6.966-15.054-15.615v-0.641c0.32-8.409,6.967-15.134,15.054-15.134
		c8.329,0,15.055,7.046,15.055,15.775C420.418,45.965,413.692,52.933,405.363,52.933z"/>
	<path fill="#FFFFFF" d="M459.327,17.696c-7.528,0-12.732,4.964-15.694,9.61c-0.24,0.32-0.4,0.64-0.561,0.96V19.62
		c0-1.121-0.881-1.923-1.842-1.923c-1.121,0-2.002,0.803-2.002,1.923v35.314c0,1.121,0.881,1.922,2.002,1.922
		c0.961,0,1.842-0.801,1.842-1.922V37.716c0-0.16,0-0.32,0.16-0.641c0.561-1.601,2.082-5.604,4.726-9.129
		c2.722-3.522,6.247-6.405,11.371-6.405c1.041,0,1.922-0.881,1.922-1.922C461.249,18.499,460.368,17.696,459.327,17.696z"/>
	<path fill="#FFFFFF" d="M507.688,37.236c0-10.65-8.249-19.62-18.579-19.62c-10.25,0-18.579,8.969-18.579,19.62
		c0,10.651,8.329,19.62,18.579,19.62C499.439,56.856,507.688,47.887,507.688,37.236z M474.376,37.238
		c0-8.729,6.726-15.854,14.733-15.854c8.009,0,14.734,7.125,14.734,15.854s-6.726,15.775-14.734,15.775
		C481.102,53.013,474.376,45.967,474.376,37.238z"/>
	<path fill="#FFFFFF" d="M531.546,55.655c0.16,0.4,0.4,0.721,0.801,0.881c0.08,0.08,0.16,0.16,0.32,0.16
		c0.24,0.08,0.48,0.16,0.721,0.16c0.641,0,1.44-0.48,1.681-1.201c0-0.08,0.08-0.16,0.08-0.16l9.05-21.622l9.129,21.702l0.08,0.08
		c0.16,0.641,0.881,1.121,1.521,1.201h0.24h0.16c0.32,0,0.641-0.16,0.961-0.4s0.561-0.561,0.721-0.961l14.653-34.914
		c0.4-0.961-0.08-2.082-1.041-2.484c-0.881-0.4-2.081,0.08-2.481,1.042L555.169,50.05l-9.049-21.543
		c-0.32-0.721-1.121-1.201-1.922-1.201c-0.721,0-1.521,0.48-1.842,1.201l-9.049,21.543L520.255,19.14
		c-0.32-0.963-1.521-1.443-2.481-1.043c-0.881,0.402-1.361,1.523-0.961,2.484L531.546,55.655z"/>
	<path fill="#FFFFFF" d="M598.961,56.854c3.843,0,7.046-1.121,9.77-3.125c2.643-2.002,4.485-4.646,4.485-7.927
		c-0.003-3.28-1.845-6.323-4.407-8.006c-2.722-1.521-5.765-2.642-9.529-3.203h-0.16c-3.605-0.561-6.247-1.523-8.009-2.724
		c-1.521-1.201-2.241-2.322-2.241-3.925c0-1.602,0.881-3.203,2.481-4.486c1.682-1.361,4.243-2.242,7.448-2.242
		c3.843,0,6.726,2.001,9.609,3.925c0.881,0.56,2.082,0.32,2.643-0.561c0.561-0.881,0.32-2.084-0.561-2.724
		c-3.043-1.922-6.646-4.246-11.691-4.246c-4.005,0-7.288,1.043-9.609,2.644c-2.482,1.842-4.246,4.566-4.246,7.687
		c0,3.044,1.762,5.604,4.246,7.047c2.241,1.602,5.364,2.402,8.889,3.042l0.16,0.08c3.845,0.641,6.647,1.604,8.328,2.884
		c2.002,1.682,2.723,2.962,2.803,4.806c0,1.762-1.041,3.525-2.964,4.806c-1.762,1.441-4.404,2.402-7.446,2.402
		c-4.964,0-9.289-2.562-12.012-4.565c-0.881-0.721-2.082-0.561-2.723,0.24c-0.641,0.802-0.561,1.843,0.24,2.563
		C587.668,53.812,592.634,56.774,598.961,56.854z"/>
	<path fill="#FFFFFF" d="M642.595,17.616c-10.571,0-19.06,8.809-19.06,19.7c0,10.731,8.488,19.54,19.06,19.54
		c6.647,0,12.491-3.523,15.854-8.889c0.561-0.961,0.24-2.082-0.641-2.723c-0.801-0.48-2.002-0.32-2.563,0.641
		c-2.642,4.406-7.447,7.126-12.651,7.126c-8.089,0-14.814-6.485-15.215-15.054h32.192c1.041,0,1.921-0.721,1.921-1.761v-0.24v-0.08
		C660.693,25.625,652.685,17.616,642.595,17.616z M627.618,34.195c1.443-7.45,7.608-12.734,14.977-12.734
		c7.207,0,13.454,5.364,14.733,12.734H627.618z"/>
	<path fill="#FFFFFF" d="M675.419,56.856c0.961,0,1.842-0.801,1.842-1.922V37.716c0-0.16,0-0.32,0.16-0.641
		c0.561-1.601,2.082-5.604,4.726-9.129c2.723-3.522,6.247-6.405,11.371-6.405c1.041,0,1.922-0.881,1.922-1.922
		c0-1.121-0.881-1.923-1.922-1.923c-7.527,0-12.732,4.964-15.694,9.61c-0.24,0.32-0.4,0.64-0.561,0.96V19.62
		c0-1.121-0.881-1.923-1.842-1.923c-1.121,0-2.001,0.803-2.001,1.923v35.314C673.416,56.055,674.297,56.856,675.419,56.856z"/>
	<path fill="#FFFFFF" d="M765.977,0.801c-1.121,0-2.002,0.881-2.002,1.921v22.584c-3.442-4.646-8.889-7.688-15.054-7.688
		c-10.57,0-18.979,8.809-18.979,19.7c0,10.731,8.409,19.54,18.979,19.54c6.165-0.001,11.611-2.964,15.054-7.608v5.685
		c0,1.041,0.881,1.922,2.002,1.922c1.041,0,1.922-0.881,1.922-1.922V37.316v-0.8V2.722C767.898,1.682,767.018,0.801,765.977,0.801z
		 M763.973,37.957c-0.32,8.329-6.967,14.974-15.054,14.974c-8.247,0.002-15.054-6.966-15.054-15.615
		c0-8.729,6.807-15.774,15.054-15.774c8.089,0,14.733,6.725,15.054,15.134V37.957z"/>
	<path fill="#FFFFFF" d="M820.739,37.236c0-10.65-8.249-19.62-18.579-19.62c-10.25,0-18.579,8.969-18.579,19.62
		c0,10.651,8.329,19.62,18.579,19.62C812.49,56.856,820.739,47.887,820.739,37.236z M802.16,53.011
		c-8.008,0-14.733-7.046-14.733-15.775s6.728-15.854,14.733-15.854c8.009,0,14.734,7.125,14.734,15.854
		S810.169,53.011,802.16,53.011z"/>
	<path fill="#FFFFFF" d="M851.721,56.856c6.647,0,12.492-3.525,15.854-8.889c0.561-0.961,0.24-2.082-0.641-2.723
		c-0.801-0.48-2.001-0.32-2.562,0.641c-2.643,4.406-7.448,7.126-12.652,7.126c-8.089,0-14.814-6.485-15.215-15.054h32.192
		c1.041,0,1.922-0.721,1.922-1.761v-0.24v-0.08c-0.801-10.25-8.81-18.259-18.899-18.259c-10.57,0-19.06,8.809-19.06,19.7
		C832.663,48.047,841.152,56.856,851.721,56.856z M851.721,21.461c7.208,0,13.453,5.364,14.733,12.734h-29.71
		C838.188,26.746,844.354,21.461,851.721,21.461z"/>
	<path fill="#FFFFFF" d="M896.238,56.856c3.844,0,7.046-1.121,9.771-3.125c2.642-2.002,4.485-4.646,4.485-7.927
		c0-3.284-1.842-6.325-4.405-8.008c-2.723-1.521-5.765-2.642-9.53-3.203h-0.16c-3.604-0.561-6.246-1.523-8.008-2.724
		c-1.521-1.201-2.242-2.322-2.242-3.925c0-1.602,0.881-3.203,2.482-4.486c1.682-1.361,4.243-2.242,7.447-2.242
		c3.844,0,6.726,2.001,9.61,3.925c0.881,0.56,2.081,0.32,2.642-0.561c0.561-0.881,0.32-2.084-0.561-2.724
		c-3.042-1.922-6.645-4.246-11.691-4.246c-4.005,0-7.287,1.043-9.609,2.644c-2.482,1.842-4.245,4.566-4.245,7.687
		c0,3.044,1.762,5.604,4.245,7.047c2.242,1.602,5.364,2.402,8.889,3.042l0.16,0.08c3.846,0.641,6.647,1.604,8.329,2.884
		c2.002,1.682,2.723,2.962,2.803,4.806c0,1.762-1.041,3.525-2.965,4.806c-1.761,1.441-4.403,2.402-7.446,2.402
		c-4.964,0-9.289-2.562-12.012-4.565c-0.88-0.721-2.081-0.561-2.722,0.24c-0.641,0.802-0.561,1.843,0.24,2.563
		C884.945,53.813,889.912,56.776,896.238,56.856z"/>
	<path fill="#FFFFFF" d="M947.795,55.815c0.24,0.48,0.721,0.881,1.281,1.041h0.48c0.561,0,1.121-0.24,1.441-0.721
		c0.24-0.24,0.319-0.561,0.399-0.881v-0.32V33.633c0.16-6.645,5.526-12.091,12.172-12.091c6.728,0,12.092,5.444,12.092,12.091
		v21.303c0,1.121,0.881,1.921,1.922,1.921s1.921-0.8,1.921-1.921V33.633c0-8.727-7.125-15.935-15.935-15.935
		c-4.886,0-9.289,2.244-12.172,5.685V19.62c0-1.041-0.8-1.923-1.841-1.923c-1.121,0-1.922,0.883-1.922,1.923v13.373v0.64v21.303
		v0.48c0,0,0.08,0.08,0.08,0.16S947.715,55.735,947.795,55.815z"/>
	<path fill="#FFFFFF" d="M1013.45,56.856c10.33,0,18.579-8.969,18.579-19.62c0-10.65-8.249-19.62-18.579-19.62
		c-10.25,0-18.579,8.969-18.579,19.62C994.871,47.887,1003.2,56.856,1013.45,56.856z M1013.45,21.381
		c8.009,0,14.733,7.125,14.733,15.854s-6.725,15.775-14.733,15.775s-14.733-7.046-14.733-15.775S1005.441,21.381,1013.45,21.381z"/>
	<path fill="#FFFFFF" d="M1043.07,21.461h4.886V50.05c0,3.923,2.963,6.806,6.888,6.806c0.961,0,2.002-0.961,2.002-1.922
		c0-0.962-1.041-2.003-2.002-2.003s-2.883-0.961-2.883-2.882V21.461h5.045c0.961,0,1.921-0.961,1.921-1.922
		c0-0.96-0.96-1.923-1.921-1.923h-5.045V3.044c0-0.963-1.04-1.923-2.081-1.923c-0.961,0-1.922,0.96-1.922,1.923v14.574h-4.886
		c-1.922,0-1.922,0.963-1.922,1.923C1041.15,20.502,1041.148,21.461,1043.07,21.461z"/>
	<path fill="#FFFFFF" d="M1113.289,56.856c3.844,0,7.046-1.121,9.771-3.125c2.642-2.002,4.485-4.646,4.485-7.927
		c0-3.284-1.842-6.325-4.405-8.008c-2.723-1.521-5.765-2.642-9.53-3.203h-0.16c-3.604-0.561-6.247-1.523-8.008-2.724
		c-1.521-1.201-2.242-2.322-2.242-3.925c0-1.602,0.881-3.203,2.482-4.486c1.681-1.361,4.243-2.242,7.447-2.242
		c3.844,0,6.726,2.001,9.61,3.925c0.881,0.56,2.081,0.32,2.642-0.561c0.561-0.881,0.32-2.084-0.561-2.724
		c-3.042-1.922-6.646-4.246-11.691-4.246c-4.005,0-7.287,1.043-9.609,2.644c-2.482,1.842-4.245,4.566-4.245,7.687
		c0,3.044,1.761,5.604,4.245,7.047c2.242,1.602,5.364,2.402,8.889,3.042l0.16,0.08c3.846,0.641,6.647,1.604,8.329,2.884
		c2.002,1.682,2.723,2.962,2.802,4.806c0,1.762-1.04,3.525-2.962,4.806c-1.762,1.441-4.405,2.402-7.448,2.402
		c-4.964,0-9.289-2.562-12.012-4.565c-0.881-0.721-2.081-0.561-2.722,0.24c-0.641,0.802-0.561,1.843,0.24,2.563
		C1101.998,53.813,1106.965,56.776,1113.289,56.856z"/>
	<path fill="#FFFFFF" d="M1169.819,17.536c-0.961,0-1.922,0.801-1.922,1.923v21.381c0,6.726-5.446,12.092-12.172,12.172
		c-6.647-0.08-12.012-5.444-12.012-12.172V19.459c0-1.123-0.88-1.923-1.921-1.923s-1.922,0.801-1.922,1.923v21.381
		c0,8.809,7.046,16.015,15.854,16.015c8.968,0,16.095-7.206,16.095-16.015V19.459C1171.82,18.337,1170.94,17.536,1169.819,17.536z"
		/>
	<path fill="#FFFFFF" d="M1208.566,17.616c-6.084,0-11.531,3.044-14.894,7.608V19.54c0-1.041-0.881-1.923-2.001-1.923
		c-1.041,0-1.922,0.883-1.922,1.923v16.736v0.8v0.801v33.475c-0.002,1.041,0.879,1.921,1.922,1.921c1.12,0,2.001-0.881,2.001-1.921
		V48.927c3.364,4.646,8.81,7.688,14.894,7.688c10.571,0,18.979-8.889,18.979-19.54C1227.546,26.345,1219.138,17.616,1208.566,17.616
		z M1208.564,52.771c-8.088-0.08-14.894-7.046-14.894-15.695v-0.64c0.32-8.329,6.968-14.894,14.894-14.894
		c8.329,0,15.055,6.885,15.055,15.534S1216.892,52.69,1208.564,52.771z"/>
	<path fill="#FFFFFF" d="M1244.513,73.273c1.12,0,2.001-0.881,2.001-1.921V48.927c3.365,4.646,8.81,7.688,14.895,7.688
		c10.57,0,18.979-8.889,18.979-19.54c0-10.73-8.408-19.459-18.979-19.459c-6.085,0-11.531,3.044-14.895,7.608V19.54
		c0-1.041-0.881-1.923-2.001-1.923c-1.041,0-1.922,0.883-1.922,1.923v16.736v0.8v0.801v33.475
		C1242.591,72.392,1243.47,73.273,1244.513,73.273z M1246.514,36.436c0.32-8.329,6.968-14.894,14.895-14.894
		c8.328,0,15.054,6.885,15.054,15.534s-6.726,15.615-15.054,15.695c-8.087-0.08-14.895-7.046-14.895-15.695V36.436z"/>
	<path fill="#FFFFFF" d="M1330.746,37.236c0-10.65-8.246-19.62-18.577-19.62c-10.25,0-18.579,8.969-18.579,19.62
		c0,10.651,8.329,19.62,18.579,19.62C1322.5,56.856,1330.746,47.887,1330.746,37.236z M1312.169,53.013
		c-8.008,0-14.733-7.046-14.733-15.775s6.726-15.854,14.733-15.854c8.007,0,14.734,7.125,14.734,15.854
		S1320.176,53.013,1312.169,53.013z"/>
	<path fill="#FFFFFF" d="M1347.717,54.934V37.716c0-0.16,0-0.32,0.16-0.641c0.56-1.601,2.083-5.604,4.725-9.129
		c2.725-3.522,6.246-6.405,11.372-6.405c1.042,0,1.923-0.881,1.923-1.922c-0.002-1.121-0.883-1.923-1.925-1.923
		c-7.526,0-12.732,4.964-15.695,9.61c-0.239,0.32-0.399,0.64-0.56,0.96V19.62c0-1.121-0.881-1.923-1.842-1.923
		c-1.121,0-2.004,0.803-2.004,1.923v35.314c0,1.121,0.883,1.922,2.004,1.922C1346.836,56.856,1347.717,56.055,1347.717,54.934z"/>
	<path fill="#FFFFFF" d="M1376.857,21.463h4.887v28.589c0,3.923,2.964,6.805,6.885,6.805c0.963,0,2.004-0.96,2.004-1.921
		c0-0.962-1.041-2.003-2.004-2.003c-0.96,0-2.882-0.961-2.882-2.882V21.461h5.044c0.961,0,1.922-0.961,1.922-1.922
		c0-0.96-0.959-1.923-1.92-1.923h-5.044V3.044c0-0.963-1.041-1.923-2.083-1.923c-0.961,0-1.922,0.96-1.922,1.923v14.574h-4.887
		c-1.921,0-1.921,0.963-1.921,1.923C1374.937,20.502,1374.937,21.463,1376.857,21.463z"/>
	<path fill="#FFFFFF" d="M1511.379,1.281c-1.121-0.48-2.162,0-2.643,0.96l-20.02,47.648l-14.176-33.715
		c-0.4-0.72-1.121-1.201-2.002-1.201c-0.72,0-1.442,0.48-1.843,1.201l-14.253,33.715l-20.017-47.648
		c-0.4-0.96-1.604-1.441-2.564-0.96c-0.961,0.4-1.44,1.601-0.961,2.564l21.622,51.411c0.08,0.4,0.24,0.721,0.48,0.961l0.08,0.08
		l0.16,0.16c0.32,0.24,0.722,0.4,1.202,0.4c0.4,0,0.801-0.08,1.121-0.32c0,0,0.08-0.08,0.16-0.08c0.16-0.16,0.32-0.32,0.4-0.561
		c0.08-0.08,0.16-0.24,0.16-0.4l14.335-33.875l14.256,33.875c0.08,0.08,0.08,0.16,0.08,0.24c0.08,0.16,0.24,0.4,0.32,0.48
		c0.08,0.16,0.24,0.24,0.32,0.32c0.32,0.24,0.641,0.32,0.961,0.32h0.24h0.16c0.561-0.08,1.281-0.56,1.602-1.281l21.783-51.731
		C1512.822,2.882,1512.342,1.682,1511.379,1.281z"/>
	<path fill="#FFFFFF" d="M1534.35,17.616c-10.57,0-19.059,8.809-19.059,19.7c0,10.731,8.488,19.54,19.059,19.54
		c6.646,0,12.492-3.525,15.855-8.889c0.561-0.961,0.24-2.082-0.641-2.723c-0.803-0.48-2.004-0.32-2.564,0.641
		c-2.642,4.406-7.445,7.126-12.652,7.126c-8.088,0-14.813-6.485-15.214-15.054h32.192c1.04,0,1.921-0.721,1.921-1.761v-0.24v-0.08
		C1552.446,25.625,1544.439,17.616,1534.35,17.616z M1519.374,34.195c1.44-7.448,7.606-12.734,14.974-12.734
		c7.206,0,13.453,5.364,14.734,12.734H1519.374z"/>
	<path fill="#FFFFFF" d="M1585.83,17.616c-6.165,0-11.611,3.044-15.055,7.688V2.722c0-1.041-0.881-1.921-2.001-1.921
		c-1.041,0-1.924,0.881-1.924,1.921v33.795v0.8v0.801v16.817c0,1.041,0.883,1.921,1.924,1.921c1.12,0,2.001-0.88,2.001-1.921v-5.685
		c3.445,4.644,8.89,7.606,15.055,7.606c10.57,0,18.979-8.809,18.979-19.54C1604.809,26.425,1596.4,17.616,1585.83,17.616z
		 M1585.83,52.933c-8.247,0-15.055-6.966-15.055-15.615v-0.641c0.32-8.409,6.968-15.134,15.055-15.134
		c8.328,0,15.054,7.046,15.054,15.775C1600.884,45.965,1594.158,52.933,1585.83,52.933z"/>
	<path fill="#FFFFFF" d="M1647.242,3.925c6.004,0,11.531,2.082,15.614,5.444c0.961,0.641,2.161,0.48,2.802-0.32
		c0.723-0.801,0.482-2.164-0.24-2.724C1660.372,2.402,1654.207,0,1647.242,0c-16.096,0-29.15,12.732-29.15,28.347
		c0,15.857,13.055,28.429,29.15,28.509c6.885,0,13.132-2.242,18.096-6.165c0.4-0.32,0.641-0.881,0.721-1.441v-0.322V29.71
		c0-1.043-0.801-1.924-1.762-2.003h-0.24h-17.295c-1.121,0-2.004,0.88-2.004,2.003c0,1.121,0.883,1.921,2.004,1.921h15.294v16.496
		c-4.165,3.044-9.37,4.806-14.813,4.806c-14.016,0-25.225-10.971-25.225-24.584C1622.016,14.894,1633.227,3.925,1647.242,3.925z"/>
	<path fill="#FFFFFF" d="M1712.496,52.933h-26.827V2.722c0-1.041-0.88-1.921-2.001-1.921c-1.041,0-1.922,0.881-1.922,1.921v52.214
		c0,1.041,0.881,1.921,1.922,1.921h0.16h28.668c1.121,0,2.002-0.88,2.002-1.921C1714.498,53.813,1713.617,52.933,1712.496,52.933z"
		/>
	<path fill="#FFFFFF" d="M1729.063,48.847c-2.242,0-4.005,1.764-4.005,4.005c0,2.244,1.763,4.005,4.005,4.005
		s4.005-1.761,4.005-4.005C1733.067,50.611,1731.305,48.847,1729.063,48.847z"/>
</g>
<path fill="#1A7AAA" d="M1217.623,957.062c-57.088,0-88.992,42.867-88.992,95.751c0,52.88,39.84,95.747,88.992,95.747
	c49.15,0,88.992-42.867,88.992-95.747C1306.615,999.929,1274.705,957.062,1217.623,957.062z M1217.66,1125.535
	c-0.003,0-0.037,0-0.037,0s-0.036,0-0.043,0c-25.811,0-34.39-30.332-34.39-71.037c0-40.714,6.47-72.589,34.39-72.589
	c0.007,0,0.043,0,0.043,0s0.034,0,0.037,0c27.925,0,34.393,31.875,34.393,72.589
	C1252.053,1095.203,1243.478,1125.535,1217.66,1125.535z"/>
<path fill="#1A7AAA" d="M1066.254,1027.167c-0.375,1.918-0.581,3.345-0.933,4.72c-0.332,1.304-0.01,2.927-1.714,3.78
	c-0.867-16.757-3.9-32.748-14.232-46.442c-0.007,2.225,0.451,4.312,0.878,6.405c0.412,2.026,1.038,4.03,0.301,6.555
	c-3.919-10.343-10.466-17.895-19.413-23.437c-3.551-2.2-7.54-3.523-11.043-5.871c-13.959-9.383-29.381-14.819-46.18-15.668
	c-29.685-1.506-54.837,8.579-75.068,30.479c-1.845,2.002-2.649,1.797-3.785-0.472c-2.327-4.644-3.473-9.667-4.64-15.087
	c-3.524,3.23-5.314,6.952-6.798,10.855c-2.78,7.334-3.3,15.025-3.422,22.759c-0.041,2.841-0.959,5.152-2.722,7.495
	c-2.809,3.749-5.203,7.873-6.833,12.287c-1.238,3.355-2.266,6.846-1.637,10.631c2.188-0.245,2.938-2.47,5.371-2.823
	c-0.288,1.007-0.438,1.613-0.633,2.206c-5.709,17.578-4.666,34.963,2.775,51.653c15.377,34.511,41.798,55.084,79.418,60.393
	c20.571,2.888,40.359-0.508,58.041-11.592c34.747-21.773,50.62-54.747,54.077-94.561
	C1068.462,1036.831,1068.255,1032.066,1066.254,1027.167z M1031.19,1015.792c2.687,13.073,4.99,25.967,1.244,39.443
	c-2.847-3.557-2.749-8.401-6.617-11.514c0.878,8.252,1.233,16.036-0.003,23.791c-1.244,7.817-3.402,15.266-8.579,21.505
	c-0.329,0.913-1.341,2.021-1.823,1.415c-0.729-0.926,0.24-2.229,0.844-3.266c0.278-3.299,1.539-6.56,0.58-10.412
	c-10.107,13.923-21.441,25.751-39.759,26.266c-13.778,0.402-26.796-5.414-36.48-15.461c5.189-0.173,10.077-0.188,14.89-1.181
	c7.775-1.593,14.165-5.859,20.557-10.176c2.1-1.423,4.13-2.652,6.872-2.02c1.433,0.338,2.917-0.048,3.671-1.564
	c0.829-1.668,0.011-2.945-1.079-4.209c-5.455-6.336-14.6-8.072-22.505-4.22c-4.444,2.161-8.77,4.484-14.066,3.861
	c-6.025-0.718-10.155-4.481-14.315-8.25c-1.736-1.568-3.144-3.504-4.81-5.162c-2.203-2.21-2.16-4.589-0.785-7.113
	c1.417-2.608,3.606-3.664,6.543-3.055c3.323,0.693,6.655,1.344,9.964,2.101c1.841,0.412,2.524-0.086,2.577-2.078
	c0.101-3.899-0.703-7.579-2.564-10.918c-1.156-2.092-0.708-3.167,1.019-4.532c3.076-2.438,6.016-5.034,9.371-7.102
	c0.992-0.613,2.032-1.264,2.802-2.114c1.458-1.643,3.243-3.523,2.414-5.796c-0.788-2.14-3.205-1.234-4.925-1.254
	c-5.32-0.085-9.997-1.436-13.597-5.684c-1.921-2.253-5.806-4.236-5.844-6.399c-0.069-4.258,1.921-8.512,4.525-12.253
	c2.257-3.235,5.633-5.282,9.013-8.764c-8.126,0.89-14.395,3.938-19.859,8.285c-3.548,2.825-6.514,4.702-11.396,3.248
	c-4.096-1.218-8.532,0.131-13.358,1.32c13.698-14.251,29.686-22.907,48.589-25.987c11.616-1.9,23.261-1.733,34.573,1.637
	c5.509,1.642,11.072,3.451,16.211,6.182c3.004,1.596,5.729,3.516,7.494,7.183c-4.095-0.122-7.861-0.463-11.624,1.084
	c1.234,1.702,3.249,1.954,4.912,2.729c10.248,4.729,20.2,9.865,27.547,18.84c3.921,4.776,5.748,9.937,5.604,16.642
	C1036.645,1018.889,1034.818,1016.459,1031.19,1015.792z"/>
<g>
	<path fill="#1A7AAA" d="M719.815,1130.59c0.265-0.452,0.533-0.861,0.792-1.25c0.103-0.154,0.205-0.311,0.304-0.46l0.201-0.317
		c0.577-1.264,1.288-2.37,1.931-3.363c0.366-0.572,0.718-1.109,1.014-1.643c2.299-4.073,4.9-8.695,7.59-13.106
		c2.986-4.896,5.94-9.93,8.816-14.842c-4.366,2.17-9.048,3.617-14.009,4.338c-2.616,0.38-5.217,0.572-7.737,0.572
		c-12.243,0-23.296-4.472-32.848-13.301c-5.592-5.167-9.655-11.601-12.397-19.651c-0.996-1.365-1.767-2.772-2.515-4.142
		c-0.301-0.549-0.587-1.065-0.881-1.574c-8.78-15.192-17.694-30.639-26.313-45.58l-6.96-12.064
		c-8.283,14.244-12.675,29.725-13.074,46.091c-0.306,12.844,1.843,25.252,6.386,36.88c5.283,13.507,13.09,25.221,23.205,34.809
		c12.689,12.028,27.665,20.134,44.523,24.087c4.586,1.072,8.296,1.709,11.69,1.991c0.485-0.861,0.991-1.69,1.484-2.501
		c0.368-0.61,0.719-1.184,1.056-1.768c2.256-3.882,4.572-7.82,6.809-11.629L719.815,1130.59z"/>
	<path fill="#1A7AAA" d="M650.068,1012.606c7.018,12.17,14.231,24.671,21.409,37.101c0.744-10.721,4.75-20.274,11.938-28.435
		c7.969-9.055,18.34-14.418,30.828-15.927c1.12-0.138,2.18,1.025,3.198,0.999c0.718-0.02,1.395,1.099,2.036,1.099h0.023
		c0.093,0,0.185,0.031,0.278,0.018c0.309-0.027,0.692-0.018,1.13-0.018h12.173c23.124,0,46.256-1.249,69.381-1.243
		c-10.389-17.729-25.077-31.606-43.662-40.041c-12.391-5.618-25.582-8.779-39.195-8.779c-1.911,0-3.86-0.098-5.793,0.014
		c-7.864,0.449-15.559,1.759-22.871,4.057c-17.733,5.563-32.839,15.527-44.901,29.688c-1.63,1.916-3.316,3.945-4.822,6.164
		c0.198,0.342,0.399,0.677,0.597,1.019L650.068,1012.606z"/>
	<path fill="#1A7AAA" d="M809.347,1019.718c-0.945-2.579-1.897-5.1-3.071-7.473c-20.797-0.001-41.595-0.001-62.391-0.006
		c3.239,2.023,6.262,4.462,9.06,7.323c7.677,7.825,12.171,17.295,13.368,28.144c1.426,12.954-1.913,24.788-9.926,35.181
		c-0.375,0.613-1.905,3.234-3.661,6.234c-4.408,7.536-11.076,18.924-14.854,25.12c-2.624,4.313-5.196,8.87-7.465,12.899
		c-0.406,0.718-0.829,1.378-1.241,2.011c-0.629,0.979-1.223,1.896-1.575,2.783l-0.245,0.628l-0.492,0.539
		c-0.054,0.084-0.107,0.174-0.165,0.249c-0.217,0.33-0.422,0.639-0.59,0.927l-0.925,1.573c-2.235,3.801-4.542,7.733-6.789,11.605
		c-0.214,0.366-0.432,0.73-0.646,1.09c0.463,0.007,0.929,0.01,1.388,0.01c6.429,0,12.845-0.65,19.071-1.928
		c18.643-3.837,35.049-12.632,48.77-26.143c3.216-3.17,6.054-6.657,9.326-10.918c3.411-4.447,6.38-9.333,9.079-14.941l0.1-0.188
		c1.489-2.685,2.565-5.599,3.701-8.686l0.313-0.842c3.231-8.723,5.098-18.069,5.544-27.765
		C815.633,1044.273,813.719,1031.683,809.347,1019.718z"/>
	<path fill="#1A7AAA" d="M683.181,1053.15c0.016,20.231,16.259,36.531,36.473,36.531c7.251,0.007,13.899-2.011,19.97-5.968
		c4.724-3.073,8.54-7.029,11.395-11.873c4.007-6.809,5.553-14.151,4.928-22.042c-1.367-17.289-16.278-33.021-36.281-33.063
		C699.76,1016.692,683.17,1032.854,683.181,1053.15z"/>
</g>
</svg>
