<?xml version="1.0" encoding="utf-8"?>
<!-- Generator: Adobe Illustrator 16.0.0, SVG Export Plug-In . SVG Version: 6.00 Build 0)  -->
<!DOCTYPE svg PUBLIC "-//W3C//DTD SVG 1.1//EN" "http://www.w3.org/Graphics/SVG/1.1/DTD/svg11.dtd">
<svg version="1.1" id="Layer_3" xmlns="http://www.w3.org/2000/svg" xmlns:xlink="http://www.w3.org/1999/xlink" x="0px" y="0px"
	 width="100%" height="100%" viewBox="0 0 1104 729.104" enable-background="new 0 0 1104 729.104" xml:space="preserve">
<g>
	<path fill="#FFFFFF" d="M618.746,676c-14.641,0-26.551,11.91-26.551,26.551c0,14.642,11.91,26.553,26.551,26.553
		s26.552-11.911,26.552-26.553C645.298,687.91,633.387,676,618.746,676z M618.746,723.104c-11.332,0-20.551-9.22-20.551-20.553
		c0-11.332,9.219-20.551,20.551-20.551s20.552,9.219,20.552,20.551C639.298,713.884,630.078,723.104,618.746,723.104z"/>
	<rect x="673.541" y="697.91" fill="#FFFFFF" width="386" height="10"/>
	<path fill="#FFFFFF" d="M618.746,601c-14.641,0-26.551,11.91-26.551,26.551c0,14.642,11.91,26.553,26.551,26.553
		s26.552-11.911,26.552-26.553C645.298,612.91,633.387,601,618.746,601z M618.746,648.104c-11.332,0-20.551-9.22-20.551-20.553
		c0-11.332,9.219-20.551,20.551-20.551s20.552,9.219,20.552,20.551C639.298,638.884,630.078,648.104,618.746,648.104z"/>
	<rect x="673.541" y="622.91" fill="#FFFFFF" width="386" height="10"/>
	<path fill="#FFFFFF" d="M618.746,53.103c14.641,0,26.552-11.911,26.552-26.552S633.387,0,618.746,0s-26.551,11.911-26.551,26.551
		S604.105,53.103,618.746,53.103z M618.746,6c11.332,0,20.552,9.219,20.552,20.551s-9.22,20.552-20.552,20.552
		s-20.551-9.22-20.551-20.552S607.414,6,618.746,6z"/>
	<rect x="673.541" y="21.91" fill="#FFFFFF" width="386" height="10"/>
	<path fill="#FFFFFF" d="M836.754,262.143c-5.082-0.32-7.7-0.405-13.231-0.351c-0.031,0-0.047,0.001-0.078,0.001
		c-2.332,0.024-3.701,3.436-3.333,9.51c1.15,41.473,2.635,85.645-0.388,127.037c-0.436,4.875,0.756,8.325,3.018,8.397
		c2.337,0.074,4.88-3.148,5.326-8.075c1.095-14.271,0.563-28.602,0.304-42.894c3.668-0.296,5.364-0.468,8.626-0.838
		c13.51-7.093,13.588-31.496,14.031-43.823C851.485,298.398,854.425,266.831,836.754,262.143z M844.21,310.521
		c-0.5,13.913-3.384,22.952-7.205,22.982c-3.242,0.026-4.939,0.034-8.646,0.014c0.253-16.657,0.862-33.31,0.724-49.971
		c3.646,0.128,5.372,0.218,8.724,0.442C844.771,290.224,844.526,301.709,844.21,310.521z"/>
	<path fill="#FFFFFF" d="M863.229,265.469c-0.065-0.011-0.066-0.012-0.066-0.012c-2.045-0.355-3.526,2.48-3.604,8.57
		c-0.967,41.417-1.182,82.328-0.95,123.744c-0.04,5.025,1.37,7.589,3.425,7.356s3.78-3.001,3.738-8.008
		c-0.172-15.392-0.662-30.776-1.15-46.161c3.069-0.44,4.656-0.66,8.064-1.078c0.66,0.32,2.606,1.659,4.24,4.456
		c0.934,1.598,1.85,3.725,2.359,6.11c0.511,2.393,0.916,5.437,0.973,9.807c0.165,12.671,0.527,20.37,1.597,24.9
		c0.519,2.196,1.496,3.79,2.474,4.579c1.075,0.867,2.213,0.855,2.973,0.721c0.076-0.014,0.078-0.013,0.078-0.013
		c0.76-0.135,1.394-0.457,1.676-0.631c2.189-1.35,3.633-6.011,2.996-11.25c-0.373-3.069-2.172-5.53-2.59-6.265
		c-0.561-0.984-0.269-6.182-0.162-12.894c0.149-9.387-0.944-17.506-2.567-22.796c-0.837-2.727-2.953-5.395-2.962-6.132
		c-0.031-2.593,6.826-11.305,6.623-25.479c-0.192-13.383,0.959-41.246-15.332-47.37
		C870.265,266.732,867.927,266.285,863.229,265.469z M881.273,314.408c-0.247,12.822-4.269,18.863-8.491,18.801
		c-3.644-0.053-5.315-0.062-8.517-0.058c0.807-15.294,1.457-30.593,2.057-45.896c3.17,0.469,4.783,0.716,8.146,1.225
		C878.366,289.068,881.529,301.126,881.273,314.408z"/>
	<path fill="#FFFFFF" d="M566.574,285.166c0.232,0.822,0.789,2.004,1.433,2.19c4.44,1.29,3.8,5.104,4.169,8.27
		c1.087,9.35,4.334,17.589,11.268,24.247c1.096,1.059,1.955,3.229,1.713,4.678c-2.127,12.586,2.281,22.174,12.436,29.66
		c3.076,2.264,5.387,5.57,8.753,9.146c3.368-3.576,5.677-6.883,8.753-9.146c10.155-7.486,14.563-17.074,12.434-29.66
		c-0.24-1.449,0.619-3.619,1.716-4.678c6.932-6.658,10.179-14.897,11.267-24.247c0.368-3.165-0.273-6.979,4.168-8.27
		c0.646-0.187,1.202-1.368,1.433-2.19c1.65-5.862,3.394-11.711,4.718-17.647c0.807-3.621,0.729-7.296-4.421-7.796
		c0-6.5,0.353-12.65-0.071-18.748c-0.965-13.84-6.046-25.414-19.91-30.815c-6.543-2.547-13.281-3.501-20.085-3.388
		c-6.804-0.113-13.542,0.841-20.085,3.388c-13.863,5.401-18.945,16.975-19.908,30.815c-0.424,6.098-0.073,12.248-0.073,18.748
		c-5.149,0.5-5.23,4.175-4.422,7.796C563.181,273.455,564.924,279.304,566.574,285.166z"/>
	<path fill="#FFFFFF" d="M624.412,376.422c-4.02-2.377-7.436-4.399-11.416-6.754c-1.322,13.481,7.164,43.201,11.774,58.46
		c32.038-19.79,56.552-5.063,82.522-17.199c10.051-5.776,3.454-18.598,2.023-21.783c-1.955-4.349-5.34-9.282-7.527-10.497
		c-19.977-11.051-39.281-16.505-63.67-35.316C634.582,355.873,624.527,362.994,624.412,376.422z"/>
	<path fill="#FFFFFF" d="M1012.541,319.56v41.511c0,2.182,1.783,3.87,3.965,3.87c2.111,0,4.035-1.688,4.035-3.87V319.56
		c0-2.181-1.924-3.87-4.035-3.87C1014.324,315.689,1012.541,317.378,1012.541,319.56z"/>
	<path fill="#FFFFFF" d="M1060.52,356.91h-18.979V319.56c0-2.111-1.854-3.87-4.035-3.87s-3.965,1.759-3.965,3.87v41.511
		c0,2.111,1.789,3.84,3.971,3.84c0,0,0,0,0.07,0c0,0,0,0,0.141,0h22.797c2.039,0,3.869-1.854,3.869-3.965
		C1064.389,358.764,1062.559,356.91,1060.52,356.91z"/>
	<path fill="#FFFFFF" d="M1100.131,356.91h-18.59v-13h15.916c2.111,0,3.869-1.854,3.869-4.035c0-2.041-1.758-3.965-3.869-3.965
		h-15.916v-12h18.59c2.04,0,3.869-1.854,3.869-4.035s-1.829-3.965-3.869-3.965h-22.797c-0.141,0-0.141,0-0.141,0h-0.07
		c-2.181,0-3.582,1.468-3.582,3.649v41.511c0,2.111,2,3.87,4,3.87v-0.03h22.59c2.04,0,3.869-1.854,3.869-3.965
		C1104,358.764,1102.171,356.91,1100.131,356.91z"/>
	<path fill="#FFFFFF" d="M770.541,327.782c0-94.754-77.088-171.842-171.842-171.842c-0.497,0-0.992,0.012-1.488,0.016
		c-3.708,2.692-7.33,5.509-10.863,8.447c4.095-0.305,8.213-0.463,12.352-0.463c90.343,0,163.842,73.499,163.842,163.842
		s-73.499,163.842-163.842,163.842c-2.93,0-5.847-0.101-8.757-0.256c3.585,2.842,7.279,5.589,11.093,8.227
		C694.715,498.338,770.541,421.755,770.541,327.782z"/>
	<path fill="#FFFFFF" d="M601.625,369.668c-3.98,2.354-7.396,4.377-11.414,6.754c-0.117-13.428-10.17-20.549-13.709-33.09
		c-22.899,17.663-41.317,23.551-60.017,33.352c3.332,13.578,7.996,26.838,13.968,39.558c18.164,1.098,36.931-1.991,59.398,11.887
		C594.461,412.869,602.947,383.149,601.625,369.668z"/>
	<path fill="#FFFFFF" d="M920.088,394.803c2.112-6.159,3.917-12.381,5.432-18.645c-0.357,0.147-0.715,0.272-1.07,0.347
		c-4.232,0.884-7.73-3.196-10.361-11.568c-2.934-9.336-4.766-19.649-4.861-29.053c-0.096-9.43,1.874-19.789,4.877-29.101
		c2.754-8.542,6.442-12.496,10.824-11.308c1.535,0.417,3.084,1.508,4.59,3.127c-0.953-7.105-2.271-14.155-3.937-21.125
		c-0.758-0.404-1.538-0.776-2.365-1.078c-5.748-2.093-11.243,1.459-15.065,13.424c-4.671,14.623-7.088,31.08-6.97,46.062
		c0.115,14.712,2.023,30.847,6.611,45.217C910.968,391.048,915.146,394.94,920.088,394.803z"/>
	<path fill="#FFFFFF" d="M780.541,327.782c0-95.94-74.688-174.755-168.971-181.38c-1.974,1.198-3.929,2.426-5.862,3.689
		c94.825,3.695,170.833,81.977,170.833,177.691c0,94.372-73.892,171.798-166.855,177.492c1.958,1.219,3.932,2.404,5.922,3.556
		C707.978,500.272,780.541,422.348,780.541,327.782z"/>
	<path fill="#FFFFFF" d="M638.559,132.554c-2.348,0.996-4.67,2.047-6.979,3.127c92.087,15.643,162.418,95.831,162.418,192.315
		c0,94.76-67.84,173.803-157.502,191.416c2.142,0.938,4.296,1.844,6.464,2.71c88.663-20.178,155.038-99.627,155.038-194.313
		C797.998,231.563,729.417,151.066,638.559,132.554z"/>
	<path fill="#FFFFFF" d="M969.617,361.096c0.015,2.1,1.754,3.845,3.926,3.845c2.182,0,3.998-1.759,3.998-3.87v-17.16h16.277
		c2.111,0,3.869-1.854,3.869-4.035c0-2.041-1.758-3.965-3.869-3.965h-16.277v-12h18.951c2.04,0,3.869-1.854,3.869-4.035
		c0-2.11-1.829-3.965-3.869-3.965h-22.797c-0.141,0-0.141,0-0.141,0h-0.07c-0.625,0-1.201,0.047-1.717,0.303
		c-2.544-63.192-28.342-122.292-73.324-167.273c-47.428-47.428-110.487-73.576-177.561-73.576
		c-67.074,0-130.133,26.106-177.562,73.535c-47.428,47.428-73.548,110.48-73.548,177.554c0,25.427,3.762,50.272,11.006,73.912
		l-62.215,22.581c-10.249-18.478-29.858-30.339-51.495-30.339c-6.565,0-13.063,1.1-19.312,3.269L39.638,502.72
		c-14.857,5.135-26.822,15.755-33.691,29.903c-6.879,14.17-7.822,30.172-2.658,45.051c8.21,23.709,30.579,39.639,55.661,39.639
		c6.558,0,13.05-1.098,19.298-3.263L386.37,507.178c14.878-5.153,26.851-15.788,33.714-29.943
		c5.405-11.147,7.116-23.431,5.084-35.408l62.248-22.593c12.463,31.38,31.311,60.183,55.905,84.776
		c47.428,47.428,110.487,73.547,177.562,73.547c35.841,0,70.532-7.465,102.308-21.646h236.351v-10H843.119
		c20.035-11.198,38.648-25.227,55.324-41.902c7.642-7.642,14.721-15.693,21.234-24.098h139.863v-10H927.039
		C949.682,437.51,964.226,400.397,969.617,361.096z M402.088,468.509c-4.531,9.346-12.438,16.367-22.268,19.771L71.695,595.153
		c-4.134,1.433-8.423,2.159-12.746,2.159c-16.565,0-31.339-10.522-36.765-26.19c-3.413-9.834-2.791-20.404,1.754-29.764
		c4.533-9.339,12.429-16.348,22.242-19.739l308.133-106.849c4.137-1.437,8.428-2.164,12.756-2.164
		c16.56,0,31.33,10.518,36.756,26.178C407.235,448.608,406.618,459.164,402.088,468.509z M720.657,573.082
		c-48.336,0-95.288-14.149-135.779-40.919c-54.95-36.327-92.464-91.879-105.632-156.423
		c-13.168-64.543-0.414-130.351,35.914-185.302C560.961,121.163,637.95,79.805,721.106,79.805
		c48.336,0,95.286,14.149,135.776,40.917c54.95,36.33,92.464,91.882,105.631,156.425c13.168,64.543,0.413,130.351-35.914,185.3
		C880.802,531.724,803.813,573.082,720.657,573.082z"/>
	<path fill="#FFFFFF" d="M851.92,128.23c-39.014-25.792-84.248-39.425-130.813-39.425c-80.126,0-154.31,39.849-198.439,106.596
		c-72.254,109.297-42.12,257,67.173,329.254c39.015,25.793,84.25,39.427,130.816,39.427c80.126,0,154.308-39.85,198.435-106.597
		C991.346,348.191,961.213,200.488,851.92,128.23z M904.892,448.099c-40.967,61.964-109.831,98.958-184.211,98.958
		c-43.237,0-85.236-12.657-121.456-36.603c-49.15-32.495-82.705-82.185-94.482-139.917c-11.778-57.732-0.369-116.595,32.126-165.746
		c40.966-61.966,109.832-98.96,184.213-98.96c43.235,0,85.232,12.656,121.451,36.601c49.15,32.495,82.705,82.186,94.482,139.919
		C948.794,340.083,937.386,398.947,904.892,448.099z"/>
</g>
</svg>
