<?xml version="1.0" encoding="utf-8"?>
<!-- Generator: Adobe Illustrator 16.0.0, SVG Export Plug-In . SVG Version: 6.00 Build 0)  -->
<!DOCTYPE svg PUBLIC "-//W3C//DTD SVG 1.1//EN" "http://www.w3.org/Graphics/SVG/1.1/DTD/svg11.dtd">
<svg version="1.1" id="Layer_1" xmlns="http://www.w3.org/2000/svg" xmlns:xlink="http://www.w3.org/1999/xlink" x="0px" y="0px"
	 width="100%" height="100%" viewBox="0 0 992.388 424.498" enable-background="new 0 0 992.388 424.498"
	 xml:space="preserve">
<g>
	<path fill="#FFFFFF" d="M825.892,372.481c-0.012-0.048-0.033-0.091-0.053-0.136c-0.037-0.096-0.084-0.183-0.143-0.267
		c-0.033-0.042-0.063-0.08-0.1-0.12c-0.066-0.072-0.145-0.134-0.23-0.19c-0.041-0.029-0.078-0.06-0.125-0.082
		c-0.018-0.009-0.027-0.021-0.043-0.028l-3.377-1.52c-14.418-6.49-29.326-13.199-44.037-19.701
		c-1.367-0.604-3.197-1.626-5.135-2.709c-4.891-2.734-10.979-6.135-15.545-6.244c-0.6-0.015-1.172,0.028-1.697,0.125
		c-8.469,1.569-16.93,3.068-25.148,4.456c-34.678,5.85-70.277,9.084-104.707,12.211l-0.828,0.077
		c-45.182,4.105-90.838,5.646-135.707,4.576c-45.484-1.083-90.004-4.854-132.48-11.202l4.711-8.333
		c0.102-0.179,0.158-0.381,0.163-0.587l0.27-10.052c0.001-0.01-0.004-0.018-0.004-0.027c0-0.147-0.025-0.293-0.076-0.434
		c-0.013-0.037-0.035-0.069-0.051-0.104c-0.029-0.062-0.051-0.125-0.089-0.182c-0.025-0.035-0.058-0.06-0.085-0.092
		c-0.03-0.036-0.059-0.069-0.092-0.101c-0.089-0.085-0.187-0.155-0.295-0.211c-0.021-0.011-0.039-0.027-0.061-0.036
		c-0.137-0.061-0.281-0.341-0.432-0.349c-0.015,0-0.024-0.26-0.038-0.26c-0.001,0-0.002,0-0.004,0c-0.028,0-0.053,0.262-0.081,0.264
		c-0.059,0.004-0.118,0.119-0.177,0.131l-130.522,23.589c-0.056,0.011-0.105,0.066-0.158,0.083
		c-0.043,0.014-0.083,0.039-0.124,0.058c-0.132,0.059-0.256,0.139-0.36,0.237c-0.011,0.011-0.019,0.029-0.03,0.041
		c-0.09,0.092-0.163,0.197-0.222,0.314c-0.021,0.041-0.036,0.083-0.052,0.124c-0.017,0.045-0.043,0.085-0.055,0.132
		c-0.018,0.07-0.171,0.137-0.177,0.207c-0.002,0.026-0.171,0.043-0.171,0.069l-0.201,8.424c-0.009,0.385,0.312,0.756,0.607,1.002
		c0.232,0.195,23.356,19.477,31.726,26.393l38.983,32.18c0.219,0.182,0.512,0.283,0.793,0.29c0.069,0,0.149-0.004,0.22-0.013
		c0.352-0.051,0.672-0.248,0.871-0.542l15.248-22.536c67.592,11.398,142.44,16.231,235.45,15.22
		c80.166-0.875,169.158-11.846,272.057-33.543c0.539-0.114,0.945-0.564,0.996-1.114l0.865-9.04c0-0.014-0.006-0.025-0.008-0.039
		C825.942,372.75,825.929,372.613,825.892,372.481z M359.03,337.427l-0.134,4.998l-5.03,8.897c-1.007-0.151-2.019-0.298-3.024-0.456
		L359.03,337.427z M822.651,380.789c-102.354,21.534-190.893,32.442-270.654,33.314c-93.223,1.014-168.148-3.852-235.801-15.32
		c-0.481-0.082-0.979,0.127-1.256,0.535l-14.922,22.058l-37.79-31.291c-7.701-6.363-28.153-23.214-31.087-25.986l0.125-5.245
		c14.712,12.225,61.617,50.064,68.187,55.394c0.219,0.177,0.447,0.273,0.724,0.28c0.07,0.003,0.12-0.003,0.189-0.013
		c0.348-0.05,0.65-0.243,0.85-0.532l15.282-22.505c57.079,9.461,123.329,12.483,168.963,13.483c0.003,0,0.004,0,0.007,0
		c21.819,1,43.963,1.021,65.812,0.797c87.052-0.892,176.04-11.094,271.985-31.532L822.651,380.789z"/>
	<path fill="#FFFFFF" d="M562.406,146.98l-0.12,5.021c-0.016,0.66,0.328,1.218,0.984,1.282c0.672,0.067,67.408,6.696,98.17,11.438
		c17.666,2.723,33.748,5.598,49.254,8.786c5.336,1.1,14.479,3.394,22.563,5.419c2.379,0.597,4.672,1.173,6.766,1.69l-3.148,0.761
		c-0.037,0.01-0.068,0.032-0.104,0.045c-0.068,0.023-0.131,0.052-0.193,0.085c-0.078,0.042-0.148,0.089-0.213,0.146
		c-0.055,0.042-0.1,0.086-0.145,0.138c-0.059,0.068-0.105,0.141-0.148,0.22c-0.031,0.059-0.061,0.112-0.084,0.175
		c-0.033,0.091-0.045,0.186-0.057,0.283c-0.006,0.047-0.027,0.088-0.027,0.136l-0.004,5.675c-0.002,0.671,0.521,1.338,1.191,1.373
		l64.721,3.569c0.063-0.658,0.117-1.318,0.178-1.976c0.025-0.242,0.043-0.486,0.063-0.729l-63.701-3.435l0.039-3.142l30.145,1.697
		c11.158,0.628,22.93,1.29,33.76,1.898c0.045-0.589,0.088-1.178,0.133-1.769c0.324-4.5,0.66-9.15,1.566-13.67
		c0.188-0.932,0.342-1.891,0.498-2.852c0.123-0.752,0.25-1.515,0.391-2.278l-9.967,2.272c-4.996-1.231-71.736-17.563-118.793-24
		c-48.186-6.594-100.15-9.135-100.67-9.16c-0.311-0.005-0.613,0.085-0.852,0.277l-12.027,9.66c-0.017,0.013-0.027,0.031-0.043,0.046
		c-0.035,0.03-0.061,0.065-0.092,0.1c-0.072,0.078-0.133,0.161-0.179,0.254c-0.022,0.041-0.043,0.081-0.062,0.125
		c-0.049,0.124,0.074,0.256,0.066,0.39C562.263,146.948,562.405,146.964,562.406,146.98z M564.372,148.375
		c55.898,5.005,124.223,11.261,187.326,29.387l-6.387,1.56c-2.986-0.708-7.074-1.745-11.461-2.844
		c-8.105-2.031-17.295-4.333-22.688-5.441c-15.543-3.2-31.816-6.083-49.525-8.813c-28.578-4.406-88.344-10.438-97.324-11.345
		L564.372,148.375z"/>
	<path fill="#FFFFFF" d="M809.907,264.671c2.602,4.847,6.309,9.426,10.369,13.092c2.258,2.038,4.482,4.172,7.043,5.836
		c2.303,1.498,4.82,2.62,7.24,3.913c5.031,2.682,10.561,4.181,16.164,5.078c5.975,0.958,12.154,1.327,18.129,0.165
		c5.627-1.097,10.936-2.676,16.115-5.099c2.568-1.201,5.094-2.407,7.379-4.107c2.148-1.595,4.131-3.396,6.178-5.114
		c2.229-1.87,3.893-4.112,5.678-6.39c1.699-2.173,3.242-4.148,4.434-6.635c1.236-2.59,2.838-5.041,3.635-7.824
		c0.83-2.893,1.385-5.892,2.064-8.822c1.346-5.806,1.592-11.926,2.295-17.839c0.729-6.128,1.461-12.255,2.189-18.382
		c1.414-11.824,3.334-23.629,3.146-35.561c0.01-0.12,0.012-0.452-0.008-1.153c-0.387-1.862-0.777-3.724-1.17-5.583
		c-0.357-1.686-0.492-3.77-1.193-5.345c-1.424-3.2-2.594-6.795-4.406-9.793c-3.426-5.678-7.994-10.404-12.902-14.787
		c-2.246-2.006-4.814-3.471-7.363-5.054c-2.396-1.487-4.834-2.786-7.504-3.72c-3.316-1.158-5.662-2.38-10.072-2.958
		s-12.033-0.688-16.377-0.391c-4.34,0.299-13.813,2.161-16.57,3.209c-2.549,0.968-5.197,1.789-7.531,3.217
		c-4.674,2.855-8.803,6.16-12.783,9.9c-2.107,1.979-3.771,4.134-5.422,6.5c-1.568,2.241-3.193,4.35-4.275,6.871
		c-1.182,2.755-2.727,5.563-3.58,8.434c-0.76,2.56-1.031,5.38-1.557,8.001c-1.186,5.885-1.316,12.061-1.879,18.034
		c-1.182,12.578-2.115,25.215-3.582,37.763c-0.678,5.809-1.023,12.191,0.154,17.954C805.144,253.951,807.071,259.39,809.907,264.671
		z"/>
	<circle fill="#FFFFFF" cx="879.394" cy="88.321" r="35.5"/>
	<path fill="#FFFFFF" d="M196.675,165.96c0.123,0,0.185,0.75,0.252,1.222l0.014,0.007c0.087,0.883,0.149,1.467,0.15,1.959
		c0.08,1.031,0.143,2.042,0.198,3.076c15.083-3.722,34.557-8.363,54.244-12.028c18.688-3.479,36.897-6.135,54.124-7.884
		c9.064-0.918,19.396-1.849,21.097-2.001l17.608,5.291c0.36,0.11,0.829,0.053,1.142-0.157l20.979-13.947l-0.052,2.145
		l-21.447,14.875l-18.484-5.691c-0.161-0.05-0.351-0.066-0.518-0.049c-0.464,0.046-46.87,4.777-83.607,12.074
		c-12.228,2.429-29.001,6.466-44.943,10.729c0.03,0.867,0.057,1.732,0.08,2.593c16.037-4.301,33.016-8.393,45.361-10.846
		c35.209-6.992,79.342-11.625,83.098-12.013l18.783,5.796c0.371,0.115,0.772,0.051,1.091-0.171l22.215-15.599
		c0.331-0.23,0.347-0.608,0.357-1.011l0.124-5.215c0-0.024,0.172-0.041,0.172-0.065c-0.003-0.098,0.086-0.194,0.059-0.291
		c-0.007-0.025,0.022-0.045,0.014-0.069c-0.018-0.053-0.02-0.098-0.044-0.146c-0.043-0.091-0.083-0.171-0.146-0.247
		c-0.033-0.039-0.06-0.078-0.099-0.114c-0.077-0.073-0.162-0.132-0.256-0.184c-0.037-0.021-0.067-0.046-0.107-0.063
		c-0.133-0.057-0.272-0.095-0.422-0.103l-82.061-4.368c-0.011,0-0.021,0.005-0.032,0.005c-0.009-0.001-0.016-0.006-0.025-0.006
		c-0.063-0.001-0.116,0.025-0.176,0.034c-0.087,0.013-0.173,0.019-0.254,0.049c-0.083,0.029-0.152,0.075-0.226,0.121
		c-0.059,0.036-0.118,0.067-0.17,0.112c-0.062,0.054-0.109,0.115-0.16,0.179c-0.049,0.062-0.094,0.12-0.131,0.189
		c-0.035,0.067-0.057,0.137-0.08,0.209c-0.015,0.049-0.045,0.091-0.055,0.144c-0.007,0.039,0.004,0.077,0,0.116
		c-0.003,0.034-0.021,0.063-0.021,0.099l-0.036,4.703c-29.545,2.886-59.522,7.75-90.291,14.273
		c1.062,4.105,2.018,8.267,2.686,12.267H196.675z M293.544,138.559c-2.24,0.191-4.488,0.415-6.733,0.626l0.021-2.74L293.544,138.559
		z"/>
	<path fill="#FFFFFF" d="M75.072,195.141c0.811,12.671,1.621,25.342,2.434,38.011c0.372,5.828,0.899,11.944,2.865,17.493
		c0.951,2.684,2.033,5.39,3.21,7.979c1.102,2.421,2.739,4.576,4.208,6.785c3.095,4.661,6.984,8.379,11.322,11.886
		c2.145,1.734,4.606,3.013,6.972,4.413c2.288,1.356,4.585,2.69,7.097,3.597c11.265,4.059,22.821,5.089,34.581,2.755
		c5.792-1.149,11.076-3.572,16.361-6.141c2.542-1.234,4.723-2.945,6.98-4.617c2.123-1.573,4.296-3.112,6.153-5.001
		c8.13-8.27,13.224-18.422,15.876-29.641c0.684-2.895,0.528-6.168,0.728-9.13c0.196-2.921,0.122-5.744-0.066-8.664
		c-0.391-6.144-0.491-12.317-0.723-18.469c-0.238-6.257-0.476-12.515-0.716-18.773c-0.217-5.693-0.186-11.41-0.64-17.094
		c0.051,0.302,0.042,0.017-0.116-1.597c-0.187-1.307-0.239-1.559-0.226-1.315c-0.819-5.06-2.129-9.979-3.487-14.921
		c-1.412-5.132-4.208-9.063-6.968-13.533c-1.384-2.245-3.382-4.014-5.2-5.888c-1.691-1.743-3.176-3.497-5.201-4.878
		c-2.266-1.545-4.498-3.142-6.727-4.74c-2.126-1.525-4.761-2.385-7.146-3.432c-7.455-3.269-15.661-5.113-23.862-5.186l-4.519,0.142
		c-2.211,0.159-4.413,0.452-6.589,0.888c-5.699,1.14-11.271,2.765-16.369,5.584c-2.49,1.378-5.074,2.601-7.376,4.292
		c-2.24,1.644-4.281,3.547-6.486,5.235c-2.415,1.854-4.158,4.493-6.057,6.85c-1.717,2.129-3.385,4.151-4.588,6.624
		c-1.168,2.397-2.637,4.841-3.549,7.339c-0.884,2.417-1.427,5.025-2.136,7.503c-0.865,3.019-0.938,6.008-1.073,9.126
		c-0.125,2.893-0.393,5.818-0.219,8.715C74.179,183.272,74.692,189.206,75.072,195.141z"/>
	<circle fill="#FFFFFF" cx="124.607" cy="70.334" r="40.5"/>
	<path fill="#FFFFFF" d="M442.802,123.5c-0.072,3.17-0.079,6.27,0.193,9.433c0.24,2.788,0.8,5.145,1.517,7.83
		c2.771,10.389,11.856,19.376,22.005,22.683c10.988,3.582,23.238,1.72,32.442-5.299c4.428-3.378,7.727-7.549,10.429-12.384
		c1.588-2.842,2.444-6.115,2.952-9.441l-0.25,1.943c0.105-0.74,0.198-1.484,0.295-2.227c0.086-0.574,0.162-1.147,0.229-1.723
		c0.133-1.06,0.267-2.121,0.402-3.181l-0.344,2.662c0.182-1.746,0.303-3.48,0.393-5.147c0.664-12.532,0.758-25.119,1.125-37.664
		c-0.15-2.155-0.203-4.317-0.467-6.463c-0.25-2.066-0.984-3.975-1.531-5.97c-1.064-3.888-3.213-7.099-5.566-10.305
		c-5.932-8.075-15.383-12.765-25.208-13.614l-3.851-0.141c-10.8,0.184-21.983,6.14-27.968,15.206
		c-3.243,4.91-5.53,10.663-5.962,16.544c-0.455,6.156-0.482,12.254-0.567,18.424C442.978,110.945,442.942,117.224,442.802,123.5z"/>
	<circle fill="#FFFFFF" cx="479.746" cy="26.783" r="24.283"/>
	<path fill="#FFFFFF" d="M690.536,128.833l69.879,7.66c0.057,0.006,0.115,0.01,0.172,0.011c7.785,0.187,14.271-5.94,14.453-13.658
		l2.313-96.972c0.182-7.718-6.059-14.149-13.912-14.336c-0.047-0.001-0.096,0-0.143,0.002l-69.906,3.331
		c-7.617-0.142-13.947,5.975-14.129,13.667l-2.051,85.976C677.026,122.33,682.872,128.603,690.536,128.833z M683.261,28.631
		c0.131-5.512,4.666-9.892,10.109-9.762c0.047,0.001,0.096,0.001,0.143,0l69.9-3.331c5.525,0.17,10.07,4.843,9.941,10.24
		l-2.311,96.972c-0.131,5.486-4.736,9.847-10.281,9.758l-69.873-7.659c-0.057-0.006-0.115-0.01-0.172-0.012
		c-5.465-0.13-9.641-4.624-9.506-10.229L683.261,28.631z"/>
	<path fill="#FFFFFF" d="M696.896,101.457c4.305,2.552,8.805,2.19,13.088-0.029c3.869-2.003,6.004-5.206,6.037-9.779
		c0.049-7.098,0.332-14.195,0.461-21.294c0.039-2.123,0.641-3.907,2.801-4.548c7.865-2.332,15.756-4.584,23.668-6.736
		c2.131-0.58,2.436,0.417,2.41,1.559c0.027,6.235-0.184,12.47-0.336,18.76c-7.357-1.344-12.133-0.111-15.746,3.881
		c-3.438,3.797-3.158,9.148,0.852,11.666c4.232,2.652,8.748,2.302,13.082,0.179c4.008-1.962,6.375-5.062,6.451-9.803
		c0.193-12.068,0.471-24.136,0.887-36.199c0.096-2.799-0.027-4.397-1.834-5.525c-1.762-0.935-3.869-0.446-4.338-0.314
		c-8.287,2.326-16.594,4.571-24.859,6.977c-5.404,1.574-7.225,4.089-7.393,9.673c-0.139,4.563-0.244,9.125-0.359,13.689
		c-0.096,3.926-0.188,7.853-0.283,11.933c-6.619-1.337-12.037,0.009-16.045,5.225C692.681,94.359,693.337,99.347,696.896,101.457z"
		/>
	<path fill="#FFFFFF" d="M259.503,120.158c0.057,0.001,0.114,0,0.171-0.003l67.275-4.153c7.368,0.129,13.266-5.655,13.446-13.205
		l1.968-82.56c0.18-7.555-5.482-13.619-12.904-13.834l-66.796-6.389c-0.047-0.005-0.095-0.008-0.143-0.009
		c-7.551-0.18-13.839,5.739-14.016,13.193l-2.219,93.119C246.107,113.77,252.037,119.98,259.503,120.158z M252.503,13.292
		c0.125-5.227,4.538-9.381,9.853-9.291l66.79,6.389c0.048,0.005,0.095,0.008,0.144,0.009c5.216,0.124,9.202,4.404,9.075,9.741
		l-1.519,63.704L309.998,67c-0.707-0.443-1.612-0.403-2.275,0.103l-5.594,4.263l-18.154-15.627
		c-0.699-0.603-1.721-0.646-2.471-0.107L250.97,77.59L252.503,13.292z M250.851,82.603l31.709-22.804l18.188,15.655
		c0.716,0.617,1.766,0.648,2.517,0.075l5.781-4.404l27.689,17.373l-0.338,14.204c-0.127,5.338-4.274,9.423-9.44,9.3
		c-0.057-0.002-0.114-0.001-0.171,0.003l-67.269,4.152c-5.222-0.169-9.357-4.523-9.232-9.745L250.851,82.603z"/>
	<path fill="#FFFFFF" d="M312.308,52.431c6.719,0.159,12.327-5.605,12.5-12.849c0.173-7.245-5.154-13.27-11.874-13.43
		s-12.327,5.604-12.5,12.849C300.261,46.245,305.588,52.271,312.308,52.431z M312.839,30.15c4.514,0.108,8.09,4.296,7.97,9.336
		c-0.121,5.039-3.892,9.052-8.406,8.945c-4.516-0.108-8.09-4.296-7.97-9.335C304.553,34.056,308.324,30.042,312.839,30.15z"/>
	<path fill="#FFFFFF" d="M586.993,118.31l59.502,6.527c0.057,0.006,0.113,0.01,0.17,0.011c6.775,0.161,12.418-5.191,12.58-11.931
		l1.508-63.316c0.002-0.155-0.014-0.306-0.045-0.452c-0.006-0.03-0.018-0.06-0.025-0.089c-0.039-0.152-0.094-0.296-0.164-0.431
		c-0.02-0.031-0.031-0.063-0.049-0.093c-0.092-0.155-0.201-0.292-0.33-0.416c-0.01-0.009-0.016-0.023-0.025-0.033L629.544,19.7
		c-0.02-0.018-0.043-0.026-0.063-0.043c-0.107-0.092-0.223-0.17-0.344-0.237c-0.045-0.026-0.092-0.05-0.141-0.072
		c-0.129-0.058-0.268-0.104-0.406-0.132c-0.025-0.006-0.049-0.017-0.074-0.021c-0.135-0.023-0.271-0.033-0.408-0.028l-38.67,1.459
		c-6.74-0.126-12.139,5.092-12.303,11.906l-1.746,73.271C575.229,112.627,580.317,118.104,586.993,118.31z M581.136,32.627
		c0.109-4.594,3.742-8.108,8.271-8.001c0.041,0.001,0.082,0.001,0.123-0.001l36.602-1.381l-0.619,25.516
		c-0.012,0.53,0.186,1.043,0.553,1.428c0.365,0.384,0.869,0.607,1.398,0.62l29.242,0.697l-1.461,61.316
		c-0.107,4.508-3.867,8.093-8.402,8.028l-59.494-6.524c-0.057-0.006-0.115-0.01-0.172-0.011c-4.477-0.107-7.898-3.804-7.787-8.416
		L581.136,32.627z"/>
	<path fill="#FFFFFF" d="M590.925,41.96c0.031,0,0.061,0,0.09,0l25.988-0.837c1.104-0.023,1.982-1.095,1.959-2.2
		c-0.021-1.105-0.951-2.073-2.039-2.04l-25.984,0.48c-1.104,0.022-1.984,1.234-1.961,2.339
		C588.999,40.777,589.862,41.96,590.925,41.96z"/>
	<path fill="#FFFFFF" d="M590.56,56.932l25.992,0.619c1.105,0.027,2.021-0.847,2.047-1.952c0.027-1.104-0.848-2.02-1.951-2.047
		l-25.992-0.619c-1.104-0.027-2.021,0.848-2.047,1.952C588.581,55.989,589.456,56.905,590.56,56.932z"/>
	<path fill="#FFFFFF" d="M588.226,70.949c-0.057,1.103,0.789,2.049,1.891,2.106l53.443,2.905c0.02,0,0.039,0,0.057,0
		c1.078,0,1.994-0.926,2.051-2.01c0.057-1.102-0.787-2.218-1.889-2.275l-53.449-2.713C589.235,68.907,588.282,69.847,588.226,70.949
		z"/>
	<path fill="#FFFFFF" d="M643.396,90.453l-53.408-4.5c-1.092-0.102-2.068,0.723-2.16,1.824c-0.092,1.101,0.725,2.067,1.826,2.161
		l53.408,4.5c0.041,0.004,0.08,0.006,0.121,0.007c1.049,0.024,1.951-0.772,2.039-1.832
		C645.315,91.513,644.497,90.546,643.396,90.453z"/>
	<path fill="#FFFFFF" d="M555.604,245.236c-10.816-0.262-54.088-1.29-64.902-1.547c-3.917-0.094-5.027,0.971-5.124,4.959
		c-0.517,21.556-1.031,43.112-1.541,64.669c-0.096,4.002,0.929,5.087,4.894,5.183c21.634,0.52,43.269,1.035,64.904,1.547
		c3.786,0.089,4.847-0.894,4.937-4.609c0.527-21.792,1.046-43.585,1.559-65.378C560.417,246.383,559.368,245.328,555.604,245.236z
		 M498.448,312.387c-0.02,0.785-0.672,1.407-1.457,1.389l-6.153-0.146c-0.785-0.019-1.407-0.671-1.388-1.456l0.146-6.155
		c0.02-0.784,0.671-1.405,1.455-1.388l6.154,0.147c0.785,0.019,1.407,0.67,1.388,1.454L498.448,312.387z M498.781,298.39
		c-0.02,0.785-0.671,1.406-1.456,1.388l-6.154-0.146c-0.784-0.018-1.406-0.67-1.387-1.455l0.146-6.152
		c0.02-0.786,0.671-1.407,1.456-1.389l6.152,0.146c0.787,0.019,1.408,0.67,1.39,1.455L498.781,298.39z M499.114,284.395
		c-0.019,0.785-0.67,1.406-1.455,1.388l-6.154-0.146c-0.785-0.019-1.407-0.67-1.388-1.455l0.146-6.155
		c0.02-0.784,0.671-1.404,1.456-1.387l6.152,0.146c0.787,0.02,1.408,0.67,1.389,1.454L499.114,284.395z M499.425,271.398
		c-0.02,0.786-0.671,1.407-1.457,1.39l-6.152-0.148c-0.785-0.018-1.407-0.669-1.388-1.455l0.146-6.153
		c0.02-0.785,0.672-1.407,1.457-1.389l6.151,0.147c0.787,0.019,1.409,0.669,1.39,1.455L499.425,271.398z M499.759,257.403
		c-0.02,0.784-0.671,1.406-1.457,1.387l-6.152-0.146c-0.786-0.019-1.408-0.67-1.389-1.454l0.146-6.154
		c0.02-0.785,0.671-1.407,1.457-1.389l6.151,0.146c0.786,0.02,1.408,0.671,1.39,1.456L499.759,257.403z M535.289,283.958
		c-7.597,4.313-15.2,8.628-22.858,12.833c-2.267,1.245-3.165-0.063-3.129-2.26c0.075-4.37,0.484-21.666,0.621-25.941
		c0.08-2.565,1.35-3.281,3.523-1.934c7.346,4.557,14.676,9.146,21.969,13.784C537.156,281.551,537.117,282.921,535.289,283.958z
		 M553.433,313.699c-0.02,0.785-0.672,1.405-1.457,1.388l-6.152-0.146c-0.787-0.019-1.409-0.671-1.39-1.456l0.146-6.155
		c0.02-0.785,0.672-1.406,1.459-1.387l6.152,0.146c0.785,0.018,1.408,0.67,1.389,1.455L553.433,313.699z M553.765,299.701
		c-0.018,0.785-0.67,1.406-1.455,1.388l-6.152-0.146c-0.787-0.02-1.41-0.672-1.391-1.457l0.146-6.153
		c0.02-0.784,0.672-1.405,1.457-1.387l6.153,0.146c0.786,0.019,1.407,0.671,1.389,1.455L553.765,299.701z M554.099,285.707
		c-0.019,0.785-0.67,1.404-1.455,1.387l-6.152-0.146c-0.788-0.019-1.41-0.67-1.391-1.455l0.146-6.155
		c0.02-0.786,0.67-1.405,1.457-1.386l6.152,0.146c0.787,0.018,1.408,0.668,1.39,1.453L554.099,285.707z M554.409,272.708
		c-0.019,0.786-0.67,1.407-1.457,1.389l-6.152-0.146c-0.785-0.02-1.408-0.671-1.389-1.457l0.146-6.153
		c0.02-0.785,0.67-1.406,1.456-1.388l6.153,0.147c0.786,0.018,1.408,0.67,1.389,1.455L554.409,272.708z M554.743,258.713
		c-0.02,0.785-0.671,1.405-1.457,1.388l-6.153-0.147c-0.786-0.019-1.407-0.67-1.388-1.455l0.146-6.154
		c0.018-0.785,0.67-1.406,1.455-1.388l6.153,0.146c0.787,0.019,1.409,0.671,1.39,1.456L554.743,258.713z"/>
	<path fill="#FFFFFF" d="M991.073,330.634c-1.041-0.379-2.189,0.158-2.566,1.196c-1.658,4.569-9.023,9.009-20.727,12.498
		c-27.168,8.1-73.172,10.223-117.197,5.411c-53.09-5.803-97.918-20.662-126.221-41.841c-0.348-0.258-0.758-0.413-1.199-0.397
		l-143.578,0.072l0.133-5.564l146.15,0.018c0.059,0,0.104,0.025,0.158,0.033c0.094,0.012,0.182,0.025,0.273,0.058
		c0.09,0.032,0.168,0.082,0.246,0.131c0.039,0.025,0.086,0.034,0.123,0.065c7.205,5.906,16.072,10.19,23.793,13.603
		c9.703,4.283,20.688,8.153,34.563,12.18c22.936,6.654,47.445,11.34,72.855,13.926c27.477,2.795,51.939,3.339,74.797,1.663
		c13.096-0.961,24.516-2.96,34.914-6.118c4.107-1.248,10.174-3.3,15.357-6.706c2.164-1.426,4.422-3.012,6.252-4.953
		c2.689-2.846,2.627-6.449,2.625-6.485c0.076-3.256-0.824-6.253-2.672-8.976c-3.465-5.1-8.168-8.81-11.881-11.473
		c-9.219-6.619-19.68-11.019-30.479-15.307c-10.197-4.05-20.637-7.073-30.613-9.76l-0.012,0.006
		c-0.016-0.004-0.064-0.012-0.123-0.03c-0.254-0.047-0.561-0.114-0.832-0.185c-0.766-0.195-1.918-0.475-2.799-0.706
		c-0.547-0.145-17.885,30.124-57.188,26.563c-46.926-4.255-53.674-40.597-54.512-40.617c-8.957,0.032-17.59,0.399-26.117,1.08
		c-6.033,0.481-11.713,1.184-17.123,2.081c-0.033,0.007,0.002-0.005-0.029,0c-0.049,0.004-0.064,0.021-0.115,0.02
		c-0.057-0.001-0.098-0.02-0.154-0.028c-0.049-0.009-0.088-0.013-0.135-0.024c-0.02-0.007-0.035-0.006-0.055-0.013l-215.205-72.101
		c10.471-2.527,21.449-6.332,23.668-12.263c0.389-1.036-0.139-2.188-1.172-2.575c-1.033-0.385-2.186,0.139-2.573,1.173
		c-0.848,2.268-5.545,6.711-27.279,11.2l-4.978-1.667c-0.059-0.022-0.104-0.066-0.158-0.095c-0.079-0.039-0.158-0.073-0.226-0.128
		c-0.067-0.056-0.116-0.121-0.171-0.187c-0.049-0.06-0.102-0.113-0.139-0.183c-0.045-0.08-0.068-0.168-0.094-0.258
		c-0.018-0.056-0.051-0.104-0.06-0.164c-0.003-0.015,0.003-0.028,0.002-0.042c-0.01-0.083,0.006-0.166,0.014-0.252
		c0.007-0.084,0.007-0.17,0.03-0.25c0.006-0.013,0-0.028,0.007-0.042c0.019-0.059,0.062-0.102,0.089-0.155
		c0.041-0.081,0.076-0.162,0.133-0.233c0.053-0.063,0.116-0.109,0.18-0.163c0.063-0.051,0.117-0.104,0.188-0.145
		c0.08-0.043,0.166-0.064,0.256-0.091c0.058-0.018,0.105-0.052,0.168-0.06c4.219-0.623,8.271-1.371,12.045-2.222
		c5.603-1.265,9.978-2.6,13.768-4.199c4.436-1.872,6.75-4.006,7.282-6.72c0.016-0.093,0.356-2.577-3.992-4.967
		c-4.706-2.589-9.772-4.663-15.056-6.166c-10.938-3.112-23.498-4.89-34.464-6.17c-2.452,3.531-5.715,6.792-8.891,9.216
		c-6.585,5.021-15.121,7.267-23.6,7.065c-3.714-0.088-7.386-0.717-10.912-1.866c-8.075-2.632-16.011-8.447-20.417-15.613
		c-25.397,1.534-40.039,5.267-45.721,6.908c-11.316,3.271-10.969,6.661-10.821,8.108c0.235,2.301,3.689,4.89,6.841,6.546
		c2.87,1.506,6.11,2.748,10.506,4.028c6.237,1.813,12.929,3.301,20.459,4.544c0.049,0.007,0.086,0.036,0.132,0.05
		c0.085,0.024,0.166,0.051,0.244,0.092c0.072,0.039,0.135,0.084,0.198,0.136c0.061,0.049,0.118,0.099,0.169,0.161
		c0.058,0.067,0.103,0.141,0.145,0.22c0.024,0.041,0.06,0.071,0.078,0.117c0.011,0.027,0.006,0.057,0.015,0.084
		c0.029,0.084,0.039,0.17,0.047,0.258c0.008,0.081,0.016,0.159,0.008,0.239c-0.002,0.031,0.008,0.061,0.004,0.094
		c-0.01,0.06-0.042,0.107-0.059,0.164c-0.02,0.063-0.036,0.125-0.066,0.185c-0.045,0.089-0.101,0.164-0.164,0.238
		c-0.037,0.045-0.068,0.092-0.11,0.131c-0.087,0.08-0.187,0.141-0.293,0.192c-0.032,0.015-0.053,0.042-0.085,0.056l-0.048,0.019
		c-0.001,0-0.003,0.001-0.004,0.002l-4.661,1.859c-30.223-6.739-32.444-12.793-32.576-13.96c-0.123-1.097-1.114-1.889-2.211-1.764
		c-1.097,0.124-1.888,1.113-1.764,2.211c0.674,5.987,10.534,11.276,30.059,16.103l-182.814,73.068c0,0-8.533-0.999-8.533-1v-0.004
		c-7-0.857-13.472-1.504-20.766-1.974c-3.721-0.298-5.5-0.423-9.286-0.564c-3.125,7.58-14.278,33.438-51.493,36.801
		c-43.224,3.908-60.588-25.95-60.802-26.264c-11.633,2.332-18.037,4.003-21.416,4.99c-11.935,3.491-22.791,7.833-32.737,12.893
		c-6.148,3.128-26.05,14.235-25.53,25.788c0.385,8.577,7.013,15.782,19.583,21.413c9.833,4.406,20.849,7.581,33.617,9.707
		c13.598,2.263,25.694,3.604,36.95,4.1c26.813,1.179,51.261,0.358,74.725-2.514c28.147-3.445,51.159-8.233,72.412-15.066
		c13.121-4.218,23.605-9.017,32.296-14.271c8.129-4.915,14.522-10.849,16.622-13.881l175.106,0.021l-0.133,5.635l-169.607,0.083
		c-0.612,0-1.19,0.281-1.568,0.762c-25.224,31.947-131.335,51.255-205.784,46.567c-43.786-2.762-73.219-13.113-82.878-29.146
		c-0.571-0.945-1.799-1.253-2.746-0.681c-0.946,0.569-1.25,1.798-0.681,2.743c10.357,17.193,40.918,28.228,86.053,31.076
		c4.75,0.3,9.595,0.507,14.526,0.625c35.066,0.834,74.174-2.896,109.5-10.563c42.119-9.144,72.062-22.396,84.533-37.384
		l168.557-0.084l-0.61,25.565c-0.215,9.088,7.083,16.945,15.937,17.156l82.852,1.974c8.939,0.214,16.967-7.435,17.18-16.367
		l0.676-28.385l143.014-0.071c28.891,21.387,74.186,36.37,127.645,42.215c12.293,1.342,24.742,2.148,36.91,2.438
		c31.902,0.76,61.859-2.03,81.863-7.994c13.326-3.974,21.18-9.007,23.346-14.964C992.646,332.16,992.108,331.012,991.073,330.634z
		 M260.601,265.592c-2.062-0.616-4.156-1.217-6.305-1.78l187.33-77.342c10.701,1.227,21.636,1.975,32.731,2.239
		c10.25,0.244,20.638,0.078,31.087-0.503c3.498-0.192,6.701-0.412,9.787-0.667l222.904,76.456c-2.094,0.655-4.141,1.388-6.129,2.195
		c-0.211-0.503-0.621-0.922-1.176-1.114c-3.602-1.257-39.869-13.681-81.865-28.071c-57.264-19.618-122.17-41.856-131.104-44.971
		c-0.279-0.097-0.576-0.131-0.874-0.099c-15.198,1.659-57.589,2.339-78.006-1.055c-0.371-0.059-0.754-0.017-1.103,0.13
		c-18.245,7.668-59.174,24.667-98.756,41.108c-33.625,13.964-65.385,27.155-77.39,32.199
		C261.16,264.56,260.767,265.041,260.601,265.592z M463.879,293.84c-84.563-0.056-159.813-0.104-170.132-0.111
		c-0.212-3.088-0.828-6.542-2.956-9.766c-4.687-7.099-13.002-12.623-25.372-16.851c13.324-5.585,43.442-18.095,75.239-31.301
		c39.207-16.284,79.737-33.118,98.243-40.891c20.742,3.312,62.46,2.667,78.072,1.038c4.479,1.559,18.882,6.504,38.333,13.176
		l-72.874-1.738c-9.243-0.219-16.646,6.456-16.854,15.195L463.879,293.84z M574.813,339.863
		c-0.158,6.684-6.395,12.625-13.084,12.466l-82.852-1.975c-6.572-0.156-12.195-6.262-12.033-13.064l2.732-114.603
		c0.154-6.499,5.76-11.457,12.76-11.29l82.557,1.968c7.129,0.17,12.805,5.506,12.652,11.895L574.813,339.863z M579.36,217.385
		c21.279,7.292,45.406,15.559,68.309,23.403c37.943,13.002,71.203,24.397,79.91,27.396c-0.512,0.251-1.031,0.493-1.533,0.755
		c-9.855,5.148-12.121,10.291-12.992,14.197c-0.871,3.897,1.107,8.216,2.68,10.863c-16.961-0.011-71.393-0.046-135.822-0.087
		l1.633-68.557C581.612,222.462,580.802,219.742,579.36,217.385z"/>
</g>
</svg>
