<?xml version="1.0" encoding="utf-8"?>
<!-- Generator: Adobe Illustrator 16.0.0, SVG Export Plug-In . SVG Version: 6.00 Build 0)  -->
<!DOCTYPE svg PUBLIC "-//W3C//DTD SVG 1.1//EN" "http://www.w3.org/Graphics/SVG/1.1/DTD/svg11.dtd">
<svg version="1.1" id="Layer_2" xmlns="http://www.w3.org/2000/svg" xmlns:xlink="http://www.w3.org/1999/xlink" x="0px" y="0px"
	 width="100%" height="100%" viewBox="0 0 1134 600.125" enable-background="new 0 0 1134 600.125" xml:space="preserve">
<g>
	<path fill="#FFFFFF" d="M132.889,14.631c-0.72,0-1.403-0.24-1.871-0.528l-0.264,0.875c0.432,0.288,1.283,0.516,2.063,0.516
		c1.907,0,2.831-1.08,2.831-2.327c0-1.187-0.696-1.847-2.063-2.375c-1.115-0.432-1.607-0.804-1.607-1.559
		c0-0.552,0.42-1.211,1.523-1.211c0.732,0,1.271,0.24,1.535,0.384l0.288-0.852c-0.36-0.204-0.959-0.396-1.787-0.396
		c-1.571,0-2.614,0.936-2.614,2.195c0,1.139,0.815,1.823,2.135,2.291c1.091,0.42,1.523,0.852,1.523,1.607
		C134.58,14.068,133.956,14.631,132.889,14.631z"/>
	<path fill="#FFFFFF" d="M139.548,15.495c0.924,0,1.559-0.192,1.931-0.36l-0.18-0.756c-0.396,0.168-0.852,0.3-1.607,0.3
		c-1.055,0-1.967-0.587-1.991-2.015h4.078c0.012-0.108,0.036-0.276,0.036-0.492c0-1.067-0.504-2.734-2.399-2.734
		c-1.691,0-2.723,1.379-2.723,3.13S137.761,15.495,139.548,15.495z M139.332,10.194c1.188,0,1.475,1.043,1.463,1.715h-3.083
		C137.797,11.177,138.265,10.194,139.332,10.194z"/>
	<path fill="#FFFFFF" d="M142.67,13.84c0,0.839,0.6,1.667,1.775,1.667c0.828,0,1.451-0.408,1.775-0.863h0.036l0.084,0.731h0.959
		c-0.072-0.396-0.096-0.888-0.096-1.391v-2.171c0-1.164-0.432-2.375-2.207-2.375c-0.732,0-1.427,0.204-1.907,0.516l0.24,0.695
		c0.408-0.264,0.971-0.432,1.511-0.432c1.187,0,1.319,0.864,1.319,1.343v0.12C143.917,11.669,142.67,12.437,142.67,13.84z
		 M146.184,12.413v1.007c0,0.108-0.024,0.228-0.06,0.336c-0.168,0.492-0.648,0.972-1.403,0.972c-0.54,0-0.996-0.324-0.996-1.008
		C143.725,12.593,145.032,12.389,146.184,12.413z"/>
	<path fill="#FFFFFF" d="M148.909,15.375h1.043v-3.094c0-0.18,0.024-0.348,0.048-0.492c0.144-0.792,0.672-1.355,1.416-1.355
		c0.144,0,0.251,0.012,0.359,0.036V9.474c-0.096-0.024-0.18-0.036-0.3-0.036c-0.708,0-1.343,0.492-1.607,1.271h-0.048l-0.036-1.139
		h-0.923c0.036,0.54,0.048,1.127,0.048,1.811V15.375z"/>
	<path fill="#FFFFFF" d="M155.184,15.495c0.78,0,1.391-0.192,1.667-0.336l-0.18-0.792c-0.3,0.132-0.696,0.288-1.295,0.288
		c-1.151,0-2.015-0.828-2.015-2.171c0-1.211,0.72-2.194,2.051-2.194c0.576,0,0.971,0.132,1.223,0.275l0.24-0.815
		c-0.288-0.144-0.839-0.3-1.463-0.3c-1.895,0-3.119,1.295-3.119,3.083C152.293,14.308,153.433,15.495,155.184,15.495z"/>
	<path fill="#FFFFFF" d="M159.145,11.873c0-0.204,0.012-0.36,0.072-0.504c0.192-0.576,0.731-1.055,1.415-1.055
		c0.996,0,1.343,0.792,1.343,1.727v3.334h1.056v-3.454c0-2.003-1.248-2.482-2.027-2.482c-0.396,0-0.768,0.12-1.08,0.3
		c-0.324,0.18-0.587,0.443-0.755,0.743h-0.024V6.86h-1.056v8.515h1.056V11.873z"/>
	<path fill="#FFFFFF" d="M165.205,15.507c0.444,0,0.72-0.324,0.72-0.755c0-0.444-0.288-0.756-0.708-0.756s-0.72,0.312-0.72,0.756
		C164.497,15.183,164.785,15.507,165.205,15.507z"/>
	<path fill="#FFFFFF" d="M167.688,15.507c0.444,0,0.72-0.324,0.72-0.755c0-0.444-0.288-0.756-0.708-0.756s-0.72,0.312-0.72,0.756
		C166.981,15.183,167.269,15.507,167.688,15.507z"/>
	<path fill="#FFFFFF" d="M170.172,15.507c0.444,0,0.72-0.324,0.72-0.755c0-0.444-0.288-0.756-0.708-0.756s-0.72,0.312-0.72,0.756
		C169.465,15.183,169.753,15.507,170.172,15.507z"/>
	<path fill="#FFFFFF" d="M654.889,97.631c-0.72,0-1.403-0.24-1.871-0.528l-0.264,0.875c0.432,0.288,1.283,0.516,2.063,0.516
		c1.907,0,2.83-1.08,2.83-2.327c0-1.187-0.695-1.847-2.063-2.375c-1.115-0.432-1.607-0.804-1.607-1.559
		c0-0.552,0.42-1.211,1.523-1.211c0.732,0,1.271,0.24,1.535,0.384l0.288-0.852c-0.36-0.204-0.96-0.396-1.787-0.396
		c-1.571,0-2.614,0.936-2.614,2.195c0,1.139,0.815,1.823,2.135,2.291c1.092,0.42,1.523,0.852,1.523,1.607
		C656.58,97.068,655.956,97.631,654.889,97.631z"/>
	<path fill="#FFFFFF" d="M661.548,98.495c0.924,0,1.56-0.192,1.931-0.36l-0.18-0.756c-0.396,0.168-0.852,0.3-1.607,0.3
		c-1.055,0-1.967-0.587-1.99-2.015h4.078c0.012-0.108,0.035-0.276,0.035-0.492c0-1.067-0.504-2.734-2.398-2.734
		c-1.691,0-2.723,1.379-2.723,3.13S659.761,98.495,661.548,98.495z M661.332,93.194c1.188,0,1.475,1.043,1.463,1.715h-3.082
		C659.797,94.177,660.265,93.194,661.332,93.194z"/>
	<path fill="#FFFFFF" d="M664.67,96.84c0,0.839,0.6,1.667,1.775,1.667c0.827,0,1.451-0.408,1.774-0.863h0.036l0.084,0.731h0.959
		c-0.072-0.396-0.096-0.888-0.096-1.391v-2.171c0-1.164-0.432-2.375-2.207-2.375c-0.731,0-1.427,0.204-1.906,0.516l0.24,0.695
		c0.407-0.264,0.971-0.432,1.511-0.432c1.187,0,1.319,0.864,1.319,1.343v0.12C665.917,94.669,664.67,95.437,664.67,96.84z
		 M668.184,95.413v1.007c0,0.108-0.023,0.228-0.06,0.336c-0.168,0.492-0.647,0.972-1.403,0.972c-0.539,0-0.996-0.324-0.996-1.008
		C665.725,95.593,667.032,95.389,668.184,95.413z"/>
	<path fill="#FFFFFF" d="M670.909,98.375h1.044v-3.094c0-0.18,0.023-0.348,0.047-0.492c0.145-0.792,0.672-1.355,1.416-1.355
		c0.144,0,0.252,0.012,0.359,0.036v-0.996c-0.096-0.024-0.18-0.036-0.3-0.036c-0.708,0-1.343,0.492-1.606,1.271h-0.049l-0.035-1.139
		h-0.924c0.036,0.54,0.048,1.127,0.048,1.811V98.375z"/>
	<path fill="#FFFFFF" d="M677.184,98.495c0.78,0,1.392-0.192,1.668-0.336l-0.18-0.792c-0.301,0.132-0.696,0.288-1.296,0.288
		c-1.151,0-2.015-0.828-2.015-2.171c0-1.211,0.719-2.194,2.051-2.194c0.576,0,0.971,0.132,1.223,0.275l0.24-0.815
		c-0.287-0.144-0.84-0.3-1.463-0.3c-1.895,0-3.119,1.295-3.119,3.083C674.293,97.308,675.434,98.495,677.184,98.495z"/>
	<path fill="#FFFFFF" d="M681.145,94.873c0-0.204,0.012-0.36,0.072-0.504c0.191-0.576,0.731-1.055,1.415-1.055
		c0.995,0,1.343,0.792,1.343,1.727v3.334h1.057v-3.454c0-2.003-1.248-2.482-2.027-2.482c-0.396,0-0.768,0.12-1.08,0.3
		c-0.323,0.18-0.587,0.443-0.755,0.743h-0.024V89.86h-1.055v8.515h1.055V94.873z"/>
	<path fill="#FFFFFF" d="M687.205,98.507c0.443,0,0.719-0.324,0.719-0.755c0-0.444-0.287-0.756-0.707-0.756s-0.72,0.312-0.72,0.756
		C686.497,98.183,686.785,98.507,687.205,98.507z"/>
	<path fill="#FFFFFF" d="M689.688,98.507c0.444,0,0.72-0.324,0.72-0.755c0-0.444-0.287-0.756-0.707-0.756s-0.721,0.312-0.721,0.756
		C688.98,98.183,689.27,98.507,689.688,98.507z"/>
	<path fill="#FFFFFF" d="M692.172,98.507c0.444,0,0.721-0.324,0.721-0.755c0-0.444-0.288-0.756-0.708-0.756s-0.72,0.312-0.72,0.756
		C691.465,98.183,691.753,98.507,692.172,98.507z"/>
	<path fill="#FFFFFF" d="M513.098,475.125H8v-3.209h137.625c5.5,0,10-4.517,10-10.037V48.537c0-5.521-4.5-10.037-10-10.037H8v-3.375
		h704v41h8v-49H0v455h513.098V475.125z M8,463.971h137.042c1.65,0,3-1.354,3-3.011V48.202c0-1.656-1.35-3.011-3-3.011H8v-1.757
		h137.292c2.75,0,5,2.259,5,5.019v413.008c0,2.761-2.25,5.019-5,5.019H8V463.971z M133.998,111.955v1h-120v-1H133.998z
		 M65.479,61.125v-6.656c0.419-0.07,0.969-0.13,1.669-0.13c0.859,0,1.489,0.2,1.889,0.56c0.37,0.32,0.59,0.81,0.59,1.409
		c0,0.61-0.18,1.089-0.52,1.439c-0.46,0.49-1.209,0.739-2.059,0.739c-0.26,0-0.5-0.01-0.7-0.06v2.699H65.479z M70.569,56.288h0.77
		l0.03,0.95h0.04c0.22-0.65,0.75-1.06,1.339-1.06c0.1,0,0.169,0.01,0.25,0.03v0.83c-0.09-0.02-0.18-0.03-0.3-0.03
		c-0.62,0-1.06,0.47-1.179,1.129c-0.02,0.12-0.04,0.26-0.04,0.41v2.579h-0.87v-3.328C70.609,57.227,70.6,56.737,70.569,56.288z
		 M73.43,58.746c0-1.619,1.06-2.568,2.398-2.568c1.389,0,2.329,1.009,2.329,2.489c0,1.789-1.24,2.568-2.409,2.568
		C74.439,61.235,73.43,60.275,73.43,58.746z M83.037,56.288v4.837h-0.87v-4.167h-1.939v4.167h-0.87v-4.167H78.68v-0.67h0.679v-0.26
		c0-1.279,0.75-2.109,2.109-2.109c0.45,0,0.979,0.14,1.229,0.32l-0.25,0.669c-0.21-0.15-0.589-0.28-1.02-0.28
		c-0.929,0-1.199,0.65-1.199,1.419v0.24H83.037z M84.499,61.125v-7.096h0.879v7.096H84.499z M89.008,60.545
		c0.63,0,1.009-0.11,1.339-0.25l0.15,0.63c-0.31,0.14-0.84,0.3-1.609,0.3c-1.489,0-2.378-0.979-2.378-2.439
		c0-1.459,0.859-2.608,2.269-2.608c1.579,0,1.999,1.389,1.999,2.279c0,0.18-0.02,0.32-0.03,0.41h-3.398
		C87.369,60.056,88.129,60.545,89.008,60.545z M51.223,137.838c1.794,0,3.248,2.095,3.248,4.679c0,1.706-0.635,3.192-1.58,4.011
		c1.041-0.598,2.159-1.721,2.159-3.803h1.146c0,3.504-2.649,5.045-4.399,5.48v0.716h2.125v1.146h-2.125h-0.572H48.55v-1.146h2.101
		V148.2c-1.223-0.331-4.25-1.574-4.25-5.761h1.146c0,2.128,0.926,3.304,1.858,3.955c-0.861-0.841-1.428-2.264-1.428-3.876
		c0-0.227,0.025-0.444,0.046-0.663h2.543v-0.572h-2.461c0.03-0.157,0.059-0.312,0.099-0.458h2.362v-0.574H48.4
		c0.062-0.163,0.125-0.321,0.201-0.472h1.965v-0.573H48.93C49.518,138.361,50.328,137.838,51.223,137.838z M50.32,131.663
		c0-1.619,1.059-2.568,2.398-2.568c1.389,0,2.329,1.009,2.329,2.489c0,1.789-1.24,2.568-2.409,2.568
		C51.329,134.151,50.32,133.192,50.32,131.663z M62.029,166.422c0.589,0,1-0.41,1.159-0.8c0.05-0.13,0.08-0.29,0.08-0.45v-2.968
		h0.879v3.518c0,0.5,0.01,0.939,0.04,1.319h-0.78l-0.05-0.79h-0.02c-0.23,0.39-0.74,0.899-1.599,0.899
		c-0.76,0-1.669-0.42-1.669-2.119v-2.829h0.879v2.679C60.949,165.802,61.229,166.422,62.029,166.422z M63.988,129.204v0.67h-1.259
		v2.608c0,0.6,0.17,0.939,0.66,0.939c0.23,0,0.4-0.03,0.51-0.06l0.04,0.66c-0.17,0.07-0.44,0.12-0.78,0.12
		c-0.41,0-0.74-0.13-0.949-0.37c-0.25-0.26-0.34-0.689-0.34-1.259v-2.638h-0.75v-0.67h0.75v-1.159l0.859-0.23v1.389H63.988z
		 M66.409,129.744c-0.45,0-0.919,0.14-1.259,0.36l-0.2-0.58c0.4-0.26,0.979-0.43,1.589-0.43c1.479,0,1.839,1.009,1.839,1.979v1.809
		c0,0.419,0.02,0.83,0.08,1.159h-0.799l-0.07-0.61h-0.03c-0.27,0.38-0.79,0.72-1.479,0.72c-0.979,0-1.479-0.689-1.479-1.389
		c0-1.169,1.04-1.809,2.909-1.799v-0.1C67.508,130.463,67.398,129.744,66.409,129.744z M73.379,139.11v2.344l4.202-2.622v11.253
		l-4.202-2.476v2.366H62.058V139.11H73.379z M72.018,133.442c0.5,0,0.83-0.13,1.08-0.24l0.15,0.66c-0.23,0.12-0.74,0.28-1.389,0.28
		c-1.459,0-2.409-0.99-2.409-2.469c0-1.489,1.02-2.569,2.599-2.569c0.52,0,0.979,0.13,1.219,0.25l-0.2,0.68
		c-0.209-0.12-0.54-0.23-1.019-0.23c-1.109,0-1.709,0.82-1.709,1.829C70.339,132.752,71.059,133.442,72.018,133.442z
		 M76.728,129.204v0.67h-1.259v2.608c0,0.6,0.17,0.939,0.66,0.939c0.23,0,0.4-0.03,0.51-0.06l0.04,0.66
		c-0.17,0.07-0.44,0.12-0.78,0.12c-0.41,0-0.74-0.13-0.949-0.37c-0.25-0.26-0.34-0.689-0.34-1.259v-2.638h-0.75v-0.67h0.75v-1.159
		l0.859-0.23v1.389H76.728z M78.799,131.883c-0.87-0.31-1.279-0.79-1.279-1.369c0-0.78,0.629-1.419,1.669-1.419
		c0.49,0,0.919,0.14,1.189,0.3l-0.22,0.64c-0.19-0.12-0.54-0.28-0.99-0.28c-0.52,0-0.81,0.3-0.81,0.66c0,0.4,0.29,0.58,0.919,0.819
		c0.84,0.32,1.27,0.74,1.27,1.459c0,0.85-0.66,1.449-1.809,1.449c-0.53,0-1.02-0.13-1.359-0.33l0.22-0.669
		c0.26,0.17,0.719,0.35,1.159,0.35c0.64,0,0.939-0.32,0.939-0.72C79.698,132.353,79.448,132.123,78.799,131.883z M62.058,205.592
		h11.322v2.344l4.202-2.622v11.253l-4.202-2.476v2.366H62.058V205.592z M60.8,197.538c0-1.619,1.06-2.568,2.398-2.568
		c1.389,0,2.329,1.009,2.329,2.489c0,1.789-1.24,2.568-2.409,2.568C61.809,200.026,60.8,199.067,60.8,197.538z M66.599,195.079h0.77
		l0.03,0.95h0.04c0.22-0.65,0.75-1.06,1.339-1.06c0.1,0,0.17,0.01,0.25,0.03v0.83c-0.09-0.02-0.18-0.03-0.3-0.03
		c-0.62,0-1.059,0.47-1.179,1.129c-0.02,0.12-0.04,0.26-0.04,0.41v2.579h-0.87v-3.328C66.639,196.019,66.629,195.529,66.599,195.079
		z M71.309,199.537l-1.789-4.458h0.959l1.06,2.858c0.11,0.32,0.23,0.7,0.31,0.99h0.02c0.09-0.29,0.19-0.66,0.31-1.01l0.959-2.838
		h0.93l-1.319,3.448c-0.63,1.659-1.06,2.508-1.659,3.028c-0.43,0.38-0.859,0.53-1.08,0.57l-0.22-0.74c0.22-0.07,0.51-0.21,0.77-0.43
		c0.24-0.19,0.54-0.53,0.74-0.979c0.04-0.09,0.07-0.16,0.07-0.21S71.349,199.646,71.309,199.537z M73.379,182.329v2.366H62.058
		v-10.866h11.322v2.344l4.202-2.622v11.253L73.379,182.329z M65.569,162.204h0.79l0.04,0.83h0.02c0.36-0.59,0.93-0.939,1.719-0.939
		c1.169,0,2.049,0.989,2.049,2.458c0,1.739-1.06,2.599-2.199,2.599c-0.64,0-1.199-0.28-1.489-0.759h-0.02v2.628h-0.87v-5.237
		C65.609,163.164,65.589,162.664,65.569,162.204z M72.379,164.883c-0.87-0.31-1.279-0.79-1.279-1.369
		c0-0.78,0.629-1.419,1.669-1.419c0.49,0,0.919,0.14,1.189,0.3l-0.22,0.64c-0.19-0.12-0.54-0.28-0.99-0.28
		c-0.52,0-0.81,0.3-0.81,0.66c0,0.4,0.29,0.58,0.919,0.819c0.84,0.32,1.27,0.74,1.27,1.459c0,0.85-0.66,1.449-1.809,1.449
		c-0.53,0-1.02-0.13-1.359-0.33l0.22-0.669c0.26,0.17,0.719,0.35,1.159,0.35c0.64,0,0.939-0.32,0.939-0.72
		C73.278,165.353,73.028,165.123,72.379,164.883z M59.619,199.297c0.23,0,0.4-0.03,0.51-0.06l0.04,0.66
		c-0.17,0.07-0.44,0.12-0.78,0.12c-0.41,0-0.74-0.13-0.949-0.37c-0.25-0.26-0.34-0.689-0.34-1.259v-2.638h-0.75v-0.67h0.75v-1.159
		l0.859-0.23v1.389h1.259v0.67h-1.259v2.608C58.959,198.957,59.129,199.297,59.619,199.297z M53.922,215.403v1.146h-2.125h-0.572
		H48.55v-1.146h2.101v-0.721c-1.223-0.331-4.25-1.574-4.25-5.761h1.146c0,2.128,0.926,3.304,1.858,3.955
		c-0.861-0.841-1.428-2.264-1.428-3.876c0-0.227,0.025-0.444,0.046-0.663h2.543v-0.572h-2.461c0.03-0.157,0.059-0.312,0.099-0.458
		h2.362v-0.574H48.4c0.062-0.163,0.125-0.321,0.201-0.472h1.965v-0.573H48.93c0.588-0.844,1.398-1.367,2.293-1.367
		c1.794,0,3.248,2.095,3.248,4.679c0,1.706-0.635,3.192-1.58,4.011c1.041-0.598,2.159-1.721,2.159-3.803h1.146
		c0,3.504-2.649,5.045-4.399,5.48v0.716H53.922z M49.137,195.999v-2.818h0.879v6.736h-0.879v-3.158h-3.258v3.158H45.01v-6.736h0.869
		v2.818H49.137z M47.977,177.236c0-0.227,0.025-0.444,0.046-0.663h2.543v-0.572h-2.461c0.03-0.157,0.059-0.312,0.099-0.458h2.362
		v-0.574H48.4c0.062-0.163,0.125-0.321,0.201-0.472h1.965v-0.573H48.93c0.588-0.844,1.398-1.367,2.293-1.367
		c1.794,0,3.248,2.095,3.248,4.679c0,1.706-0.635,3.192-1.58,4.011c1.041-0.598,2.159-1.721,2.159-3.803h1.146
		c0,3.504-2.649,5.045-4.399,5.48v0.716h2.125v1.146h-2.125h-0.572H48.55v-1.146h2.101v-0.721c-1.223-0.331-4.25-1.574-4.25-5.761
		h1.146c0,2.128,0.926,3.304,1.858,3.955C48.543,180.271,47.977,178.849,47.977,177.236z M51.399,162.204h0.77l0.03,0.95h0.04
		c0.22-0.65,0.75-1.06,1.339-1.06c0.1,0,0.169,0.01,0.25,0.03v0.83c-0.09-0.02-0.18-0.03-0.3-0.03c-0.62,0-1.06,0.47-1.179,1.129
		c-0.02,0.12-0.04,0.26-0.04,0.41v2.579h-0.87v-3.328C51.439,163.144,51.43,162.654,51.399,162.204z M52.02,194.26
		c-0.31,0-0.53-0.24-0.53-0.54c0-0.31,0.23-0.549,0.55-0.549c0.33,0,0.54,0.24,0.54,0.549C52.589,194.02,52.369,194.26,52.02,194.26
		z M52.479,195.079v4.837H51.6v-4.837H52.479z M54.959,200.017c-0.53,0-1.02-0.13-1.359-0.33l0.22-0.669
		c0.26,0.17,0.719,0.35,1.159,0.35c0.64,0,0.939-0.32,0.939-0.72c0-0.419-0.25-0.649-0.899-0.889c-0.87-0.31-1.279-0.79-1.279-1.369
		c0-0.78,0.629-1.419,1.669-1.419c0.49,0,0.919,0.14,1.189,0.3l-0.22,0.64c-0.19-0.12-0.54-0.28-0.99-0.28
		c-0.52,0-0.81,0.3-0.81,0.66c0,0.4,0.29,0.58,0.919,0.819c0.84,0.32,1.27,0.74,1.27,1.459
		C56.768,199.417,56.108,200.017,54.959,200.017z M56.579,167.151c-1.31,0-2.319-0.959-2.319-2.489c0-1.619,1.06-2.568,2.398-2.568
		c1.389,0,2.329,1.009,2.329,2.489C58.987,166.372,57.748,167.151,56.579,167.151z M60.277,134.042h-0.879v-2.789
		c0-0.779-0.29-1.429-1.119-1.429c-0.58,0-1.03,0.41-1.18,0.899c-0.04,0.11-0.06,0.26-0.06,0.41v2.908H56.16v-3.528
		c0-0.5-0.01-0.91-0.04-1.31h0.78l0.05,0.8h0.02c0.24-0.46,0.8-0.91,1.599-0.91c0.67,0,1.709,0.4,1.709,2.059V134.042z
		 M48.118,133.412c0.53,0,1.07-0.11,1.419-0.28l0.18,0.69c-0.32,0.16-0.959,0.32-1.779,0.32c-1.899,0-3.328-1.2-3.328-3.408
		c0-2.109,1.429-3.538,3.518-3.538c0.839,0,1.369,0.18,1.599,0.3l-0.21,0.709c-0.33-0.16-0.799-0.28-1.359-0.28
		c-1.579,0-2.628,1.009-2.628,2.778C45.529,132.353,46.479,133.412,48.118,133.412z M48.258,160.235c0.78,0,1.389,0.17,1.679,0.31
		l-0.21,0.71c-0.36-0.16-0.81-0.29-1.489-0.29c-1.639,0-2.708,1.02-2.708,2.708c0,1.709,1.029,2.719,2.599,2.719
		c0.57,0,0.959-0.08,1.159-0.18v-2.009h-1.369v-0.7h2.219v3.238c-0.39,0.14-1.159,0.37-2.069,0.37c-1.02,0-1.859-0.26-2.519-0.889
		c-0.58-0.56-0.939-1.459-0.939-2.509C44.62,161.705,45.999,160.235,48.258,160.235z M133.998,230.625v1h-120v-1H133.998z
		 M86.764,147.299c-2.022-0.623-2.974-1.585-2.974-3.098c0-2.116,2.727-3.832,6.089-3.832c3.362,0,6.088,1.715,6.088,3.832
		c0,2.117-1.97,3.636-5.424,3.81c-1.613,0.112-1.793,1.348-3.672,1.975C87.282,149.323,87.837,147.676,86.764,147.299z
		 M89.879,175.088c3.362,0,6.088,1.715,6.088,3.832c0,2.117-1.97,3.636-5.424,3.81c-1.613,0.112-1.793,1.348-3.672,1.975
		c0.411-0.662,0.966-2.309-0.107-2.686c-2.022-0.623-2.974-1.585-2.974-3.098C83.79,176.803,86.517,175.088,89.879,175.088z
		 M89.879,206.852c3.362,0,6.088,1.715,6.088,3.832c0,2.117-1.97,3.636-5.424,3.81c-1.613,0.112-1.793,1.348-3.672,1.975
		c0.411-0.662,0.966-2.309-0.107-2.686c-2.022-0.623-2.974-1.585-2.974-3.098C83.79,208.567,86.517,206.852,89.879,206.852z
		 M107.552,141.552l-0.196,0.311c-0.122,0.195-0.431,0.822-0.366,1.361c0.136,1.139,1.55,3.26,2.364,3.544
		c0.931,0.327,1.48,0.171,1.482,0.17l0.383-0.089l2.468,3.625l-0.507,0.314c-0.075,0.047-0.77,0.457-1.976,0.457
		c-0.803,0-1.647-0.182-2.511-0.541c-2.403-1.002-5.139-5.237-5.504-7.79c-0.411-2.881,1.306-4.654,1.378-4.728l0.504-0.51
		L107.552,141.552z M105.492,137.2l0.96-0.627l2.655,4.065l-0.959,0.627L105.492,137.2z M114.371,184.969l-2.642-3.791l0.94-0.656
		l2.642,3.792L114.371,184.969z M115.312,216.078l-0.94,0.655l-2.642-3.791l0.94-0.656L115.312,216.078z M114.371,150.25
		l-2.642-3.791l0.94-0.656l2.642,3.792L114.371,150.25z M109.107,175.356l-0.959,0.627l-2.656-4.065l0.96-0.627L109.107,175.356z
		 M104.567,172.904l0.504-0.51l2.481,3.876l-0.196,0.311c-0.122,0.195-0.431,0.822-0.366,1.361c0.136,1.139,1.55,3.26,2.364,3.544
		c0.931,0.327,1.48,0.171,1.482,0.17l0.383-0.089l2.468,3.625l-0.507,0.314c-0.075,0.047-0.77,0.457-1.976,0.457
		c-0.803,0-1.647-0.182-2.511-0.541c-2.403-1.002-5.139-5.237-5.504-7.79C102.778,174.75,104.495,172.978,104.567,172.904z
		 M109.107,207.12l-0.959,0.627l-2.656-4.065l0.96-0.627L109.107,207.12z M104.567,204.667l0.504-0.51l2.481,3.876l-0.196,0.311
		c-0.122,0.195-0.431,0.822-0.366,1.361c0.136,1.139,1.55,3.26,2.364,3.544c0.931,0.327,1.48,0.171,1.482,0.17l0.383-0.089
		l2.468,3.625l-0.507,0.314c-0.075,0.047-0.77,0.457-1.976,0.457c-0.803,0-1.647-0.182-2.511-0.541
		c-2.403-1.002-5.139-5.237-5.504-7.79C102.778,206.514,104.495,204.741,104.567,204.667z M37.639,102.125
		c-13.255,0-24-10.745-24-24s10.745-24,24-24s24,10.745,24,24S50.894,102.125,37.639,102.125z M24.806,126.625
		c6.433,0,11.667,5.234,11.667,11.667s-5.234,11.667-11.667,11.667s-11.667-5.234-11.667-11.667S18.373,126.625,24.806,126.625z
		 M24.806,159.625c6.433,0,11.667,5.234,11.667,11.667s-5.234,11.667-11.667,11.667s-11.667-5.234-11.667-11.667
		S18.373,159.625,24.806,159.625z M24.806,192.625c6.433,0,11.667,5.234,11.667,11.667s-5.234,11.667-11.667,11.667
		s-11.667-5.234-11.667-11.667S18.373,192.625,24.806,192.625z M133.998,54.125c0-2.761,2.238-5,5-5s5,2.239,5,5s-2.238,5-5,5
		S133.998,56.886,133.998,54.125z"/>
	<path fill="#FFFFFF" d="M68.757,56.348c0-0.89-0.629-1.319-1.589-1.319c-0.38,0-0.67,0.03-0.82,0.07v2.619
		c0.19,0.05,0.43,0.07,0.72,0.07C68.118,57.787,68.757,57.277,68.757,56.348z"/>
	<path fill="#FFFFFF" d="M77.257,58.696c0-0.819-0.41-1.859-1.449-1.859c-1.039,0-1.489,0.959-1.489,1.879
		c0,1.06,0.609,1.859,1.469,1.859C76.628,60.575,77.257,59.786,77.257,58.696z"/>
	<path fill="#FFFFFF" d="M88.708,56.808c-0.89,0-1.279,0.819-1.349,1.429h2.568C89.938,57.677,89.698,56.808,88.708,56.808z"/>
	<polygon fill="#FFFFFF" points="76.394,207.453 73.379,209.334 73.379,212.716 76.394,214.491 	"/>
	<polygon fill="#FFFFFF" points="63.245,215.272 72.193,215.272 72.193,213.394 72.193,208.676 72.193,206.778 63.245,206.778 	"/>
	<polygon fill="#FFFFFF" points="63.245,183.508 72.193,183.508 72.193,181.63 72.193,176.913 72.193,175.015 63.245,175.015 	"/>
	<polygon fill="#FFFFFF" points="73.379,180.952 76.394,182.727 76.394,175.689 73.379,177.571 	"/>
	<polygon fill="#FFFFFF" points="72.193,146.912 72.193,142.194 72.193,140.296 63.245,140.296 63.245,148.79 72.193,148.79 	"/>
	<polygon fill="#FFFFFF" points="76.394,140.971 73.379,142.853 73.379,146.234 76.394,148.009 	"/>
	<circle fill="#FFFFFF" cx="138.998" cy="54.125" r="3.556"/>
	<path fill="#FFFFFF" d="M674.251,17.515c3.359,0,6.083-2.724,6.083-6.083s-2.724-6.083-6.083-6.083s-6.083,2.724-6.083,6.083
		S670.892,17.515,674.251,17.515z M674.251,7.349c2.251,0,4.083,1.832,4.083,4.083s-1.832,4.083-4.083,4.083
		s-4.083-1.832-4.083-4.083S672,7.349,674.251,7.349z"/>
	<path fill="#FFFFFF" d="M689.251,17.515c3.359,0,6.083-2.724,6.083-6.083s-2.724-6.083-6.083-6.083s-6.083,2.724-6.083,6.083
		S685.892,17.515,689.251,17.515z M689.251,7.349c2.251,0,4.083,1.832,4.083,4.083s-1.832,4.083-4.083,4.083
		s-4.083-1.832-4.083-4.083S687,7.349,689.251,7.349z"/>
	<path fill="#FFFFFF" d="M659.251,17.515c3.359,0,6.083-2.724,6.083-6.083s-2.724-6.083-6.083-6.083s-6.083,2.724-6.083,6.083
		S655.892,17.515,659.251,17.515z M659.251,7.349c2.251,0,4.083,1.832,4.083,4.083s-1.832,4.083-4.083,4.083
		s-4.083-1.832-4.083-4.083S657,7.349,659.251,7.349z"/>
	<path fill="#FFFFFF" d="M704.251,17.515c3.359,0,6.083-2.724,6.083-6.083s-2.724-6.083-6.083-6.083s-6.083,2.724-6.083,6.083
		S700.892,17.515,704.251,17.515z M704.251,7.349c2.251,0,4.083,1.832,4.083,4.083s-1.832,4.083-4.083,4.083
		s-4.083-1.832-4.083-4.083S702,7.349,704.251,7.349z"/>
	<path fill="#FFFFFF" d="M5,22.863h69c0-2.089,0-8.255,0-11.432C74,3.292,67.167,0,67.167,0H5C2.238,0,0,2.238,0,5v12.863
		C0,20.625,2.238,22.863,5,22.863z M14.688,3.432h46.001c4.418,0,8,3.582,8,8s-3.582,8-8,8H14.688c-4.418,0-8-3.582-8-8
		S10.27,3.432,14.688,3.432z"/>
	<path fill="#FFFFFF" d="M645.709,22.863H715c2.762,0,5-2.238,5-5V5c0-2.762-2.238-5-5-5h-62.458c0,0-6.833,3.292-6.833,11.432
		C645.709,14.608,645.709,20.774,645.709,22.863z M659,3.432h46.001c4.418,0,8,3.582,8,8s-3.582,8-8,8H659c-4.418,0-8-3.582-8-8
		S654.582,3.432,659,3.432z"/>
	<path fill="#FFFFFF" d="M14.688,17.841h45.903c3.54,0,6.409-2.87,6.409-6.409s-2.87-6.409-6.409-6.409H14.688
		c-3.54,0-6.409,2.87-6.409,6.409S11.148,17.841,14.688,17.841z"/>
	<path fill="#FFFFFF" d="M76.542,11.432c0,5.749,0,9.855,0,11.432h566.625c0-1.577,0-5.683,0-11.432
		c0-7.89,5.167-11.432,5.167-11.432H71.375C71.375,0,76.542,3.542,76.542,11.432z M632.687,16.577h-3.812v-2h3.812V16.577z
		 M632.687,12.452h-9.499v-2h9.499V12.452z M628.875,6.286h3.812v2h-3.812V6.286z M617.5,6.286h9.499v2H617.5V6.286z M617.5,10.452
		h3.812v2H617.5V10.452z M617.5,14.577h9.499v2H617.5V14.577z M590.814,5.356h3.823V3.571h1v1.786h2.042V3.571h1v1.786h4.219V3.571
		h1v1.786h2V3.571h1v1.786h3.75v12.229h-3.75v1.786h-1v-1.786h-2v1.786h-1v-1.786h-4.219v1.786h-1v-1.786h-2.042v1.786h-1v-1.786
		h-3.823V5.356z M122,5.807c0-1.657,1.902-3,4.248-3h453.379c2.347,0,4.248,1.343,4.248,3v11c0,1.657-1.901,3-4.248,3H126.248
		c-2.346,0-4.248-1.343-4.248-3V5.807z M91.25,6.708H107v2H91.25V6.708z M91.25,10.765H107v2H91.25V10.765z M91.25,14.875H107v2
		H91.25V14.875z"/>
	<path fill="#FFFFFF" d="M603.917,9.078c-0.395,0-0.693,0.035-0.896,0.079v4.667c0.193,0.035,0.475,0.044,0.772,0.044
		c1.632,0,2.519-0.912,2.519-2.509C606.321,9.964,605.531,9.078,603.917,9.078z"/>
	<path fill="#FFFFFF" d="M609.648,6.356h-17.834v10.229h17.834V6.356z M598.831,11.965c0,1.815-0.956,2.562-2.237,2.562
		c-1.211,0-2.123-0.693-2.123-2.526V8.517h0.771v3.501c0,1.324,0.588,1.886,1.378,1.886c0.877,0,1.438-0.579,1.438-1.886V8.517
		h0.772V11.965z M600.923,14.43h-0.763V8.517h0.763V14.43z M606.26,13.632c-0.553,0.553-1.466,0.851-2.615,0.851
		c-0.544,0-1-0.026-1.386-0.07V8.596c0.465-0.07,1.018-0.123,1.623-0.123c1.097,0,1.878,0.254,2.396,0.737
		c0.526,0.482,0.833,1.166,0.833,2.123C607.11,12.298,606.813,13.088,606.26,13.632z"/>
	<path fill="#FFFFFF" d="M37.639,55.958c-12.242,0-22.167,9.924-22.167,22.167s9.925,22.167,22.167,22.167
		s22.167-9.924,22.167-22.167S49.881,55.958,37.639,55.958z M37.639,98.792c-11.414,0-20.667-9.252-20.667-20.667
		s9.253-20.667,20.667-20.667s20.667,9.252,20.667,20.667S49.053,98.792,37.639,98.792z"/>
	<path fill="#FFFFFF" d="M24.806,148.958c5.882,0,10.667-4.785,10.667-10.667s-4.785-10.667-10.667-10.667
		s-10.667,4.785-10.667,10.667S18.924,148.958,24.806,148.958z"/>
	<path fill="#FFFFFF" d="M24.806,181.958c5.882,0,10.667-4.785,10.667-10.667s-4.785-10.667-10.667-10.667
		s-10.667,4.785-10.667,10.667S18.924,181.958,24.806,181.958z"/>
	<path fill="#FFFFFF" d="M24.806,214.958c5.882,0,10.667-4.785,10.667-10.667s-4.785-10.667-10.667-10.667
		s-10.667,4.785-10.667,10.667S18.924,214.958,24.806,214.958z"/>
	<path fill="#FFFFFF" d="M54.147,131.613c0-0.819-0.41-1.859-1.449-1.859c-1.039,0-1.489,0.959-1.489,1.879
		c0,1.06,0.609,1.859,1.469,1.859C53.518,133.492,54.147,132.702,54.147,131.613z"/>
	<path fill="#FFFFFF" d="M65.479,132.662c0,0.57,0.379,0.84,0.83,0.84c0.629,0,1.029-0.4,1.169-0.81c0.03-0.09,0.05-0.19,0.05-0.28
		v-0.84C66.569,131.553,65.479,131.723,65.479,132.662z"/>
	<path fill="#FFFFFF" d="M67.838,166.462c0.929,0,1.469-0.76,1.469-1.869c0-0.969-0.51-1.799-1.439-1.799
		c-0.6,0-1.159,0.43-1.329,1.089c-0.03,0.11-0.06,0.24-0.06,0.36v0.83c0,0.13,0.02,0.25,0.04,0.36
		C66.679,166.042,67.208,166.462,67.838,166.462z"/>
	<path fill="#FFFFFF" d="M56.638,162.754c-1.039,0-1.489,0.959-1.489,1.879c0,1.06,0.609,1.859,1.469,1.859
		c0.84,0,1.469-0.79,1.469-1.879C58.087,163.793,57.678,162.754,56.638,162.754z"/>
	<path fill="#FFFFFF" d="M64.627,197.488c0-0.819-0.41-1.859-1.449-1.859c-1.039,0-1.489,0.959-1.489,1.879
		c0,1.06,0.609,1.859,1.469,1.859C63.998,199.367,64.627,198.577,64.627,197.488z"/>
	<path fill="#FFFFFF" d="M1134,570.126H522v29.999h612V570.126z M525,596.875v-8.916l9,8.916H525z M1122,596.875l9-8.916v8.916H1122
		z"/>
	<path fill="#FFFFFF" d="M324.348,240.406c10.402-7.667,14.917-17.488,12.738-30.38c-0.25-1.483,0.632-3.706,1.754-4.79
		c7.101-6.825,10.426-15.262,11.541-24.835c0.377-3.245-0.28-7.152,4.269-8.473c0.66-0.19,1.231-1.398,1.468-2.247
		c1.691-6,3.477-11.99,4.833-18.068c0.827-3.713,0.746-7.475-4.529-7.987c0-6.657,0.361-12.958-0.074-19.205
		c-0.986-14.178-6.191-26.03-20.394-31.564c-6.7-2.61-13.602-3.585-20.571-3.469c-6.968-0.117-13.871,0.858-20.571,3.469
		c-14.201,5.535-19.406,17.387-20.393,31.564c-0.436,6.247-0.074,12.547-0.074,19.205c-5.275,0.513-5.357,4.274-4.53,7.987
		c1.356,6.078,3.143,12.068,4.833,18.068c0.237,0.849,0.808,2.057,1.468,2.247c4.549,1.321,3.893,5.229,4.269,8.473
		c1.115,9.573,4.44,18.01,11.541,24.835c1.123,1.084,2.005,3.306,1.755,4.79c-2.179,12.892,2.335,22.712,12.738,30.38
		c3.15,2.319,5.515,5.706,8.964,9.368C318.833,246.111,321.198,242.725,324.348,240.406z"/>
	<path fill="#FFFFFF" d="M283.065,229.266c-24.977,19.266-44.757,24.852-65.212,36.17c-2.245,1.244-5.709,6.297-7.714,10.751
		c-1.46,3.265-8.219,16.397,2.074,22.312c26.6,12.432,51.709-2.651,84.523,17.617c4.724-15.628,13.417-46.068,12.063-59.878
		c-4.08,2.412-7.579,4.484-11.692,6.918C296.987,249.403,286.693,242.106,283.065,229.266z"/>
	<path fill="#FFFFFF" d="M418.692,298.499c10.294-5.915,3.535-19.047,2.075-22.312c-2.004-4.454-5.47-9.507-7.714-10.751
		c-20.455-11.319-40.234-16.904-65.212-36.17c-3.627,12.841-13.921,20.138-14.042,33.89c-4.114-2.434-7.613-4.506-11.692-6.918
		c-1.355,13.81,7.338,44.25,12.062,59.878C366.983,295.848,392.092,310.931,418.692,298.499z"/>
	<path fill="#FFFFFF" d="M40.643,77.886c-0.034-0.207,0.088-0.515,0.245-0.666c0.986-0.948,1.448-2.12,1.603-3.45
		c0.053-0.451-0.039-0.993,0.593-1.176c0.092-0.027,0.171-0.195,0.204-0.313c0.235-0.833,0.482-1.666,0.671-2.509
		c0.115-0.516,0.103-1.039-0.629-1.11c0-0.924,0.05-1.799-0.01-2.667c-0.137-1.969-0.86-3.615-2.833-4.384
		c-0.931-0.362-1.889-0.498-2.857-0.482c-0.968-0.016-1.927,0.12-2.857,0.482c-1.973,0.769-2.696,2.415-2.833,4.384
		c-0.061,0.868-0.011,1.743-0.011,2.667c-0.732,0.071-0.744,0.594-0.628,1.11c0.188,0.844,0.436,1.676,0.671,2.509
		c0.033,0.118,0.112,0.286,0.204,0.313c0.631,0.183,0.541,0.726,0.593,1.176c0.155,1.33,0.617,2.501,1.603,3.45
		c0.156,0.15,0.278,0.459,0.244,0.666c-0.303,1.791,0.324,3.154,1.769,4.219c0.438,0.322,0.767,0.792,1.246,1.301
		c0.479-0.509,0.808-0.979,1.245-1.301C40.319,81.041,40.946,79.677,40.643,77.886z"/>
	<path fill="#FFFFFF" d="M35.091,85.266c-0.017-1.91-1.447-2.924-1.951-4.708c-3.469,2.676-6.216,3.452-9.057,5.024
		c-0.312,0.173-0.793,0.875-1.071,1.493c-0.204,0.453-1.142,2.277,0.288,3.099c3.694,1.727,7.182-0.368,11.74,2.447
		c0.656-2.17,1.863-6.398,1.675-8.316C36.148,84.64,35.662,84.927,35.091,85.266z"/>
	<path fill="#FFFFFF" d="M51.195,85.582c-2.841-1.572-5.588-2.348-9.057-5.024c-0.504,1.784-1.934,2.797-1.951,4.708
		c-0.571-0.338-1.057-0.626-1.624-0.961c-0.188,1.918,1.02,6.146,1.675,8.316c4.558-2.815,8.045-0.72,11.74-2.447
		c1.43-0.822,0.491-2.646,0.288-3.099C51.988,86.457,51.507,85.755,51.195,85.582z"/>
	<polygon fill="#FFFFFF" points="501.862,366.357 516.516,366.357 516.516,363.556 516.516,355.335 516.516,352.314 
		501.862,352.314 	"/>
	<polygon fill="#FFFFFF" points="518.957,362.239 523.639,365.314 523.639,353.412 518.957,356.621 	"/>
	<path fill="#FFFFFF" d="M513.098,337.479c-12.09,0-21.891,9.801-21.891,21.892c0,12.09,9.801,21.891,21.891,21.891
		c12.091,0,21.892-9.801,21.892-21.891C534.989,347.279,525.188,337.479,513.098,337.479z M526.08,369.842l-7.123-4.682v3.639
		H499.42v-18.926h19.537v3.787l7.123-4.885V369.842z"/>
	<path fill="#FFFFFF" d="M554.216,351.289c-7.164,0-12.975,3.655-12.975,8.165c0,3.225,2.027,5.274,6.336,6.602
		c2.289,0.802,1.105,4.312,0.229,5.724c4.006-1.336,4.389-3.969,7.826-4.208c7.361-0.37,11.559-3.606,11.559-8.117
		C567.19,354.944,561.38,351.289,554.216,351.289z M555.464,365.135c-1.943,0.137-3.264,0.854-4.301,1.622
		c-0.031-0.118-0.066-0.235-0.109-0.353c-0.445-1.264-1.393-2.207-2.758-2.682c-4.611-1.422-4.611-3.273-4.611-4.269
		c0-2.706,4.326-5.724,10.531-5.724s10.531,3.018,10.531,5.724C564.747,363.297,559.976,364.907,555.464,365.135z"/>
	<path fill="#FFFFFF" d="M598.874,365.285c-0.006,0.002-1.176,0.334-3.158-0.362c-1.736-0.606-4.75-5.126-5.039-7.554
		c-0.137-1.147,0.52-2.482,0.781-2.899l0.418-0.661l-5.287-8.261l-1.074,1.087c-0.154,0.156-3.813,3.936-2.936,10.074
		c0.777,5.439,6.607,14.466,11.729,16.6c1.84,0.766,3.639,1.152,5.35,1.152c2.572,0,4.053-0.871,4.213-0.972l1.08-0.67l-5.26-7.726
		L598.874,365.285z M599.657,372.02c-1.387,0-2.871-0.324-4.408-0.965c-3.969-1.652-9.525-9.616-10.252-14.691
		c-0.438-3.069,0.512-5.39,1.311-6.725l2.703,4.225c-0.402,0.83-0.939,2.271-0.758,3.793c0.369,3.121,3.875,8.599,6.656,9.572
		c1.262,0.441,2.666,0.618,3.67,0.551l2.758,4.063C600.888,371.943,600.325,372.02,599.657,372.02z"/>
	
		<rect x="586.165" y="346.976" transform="matrix(0.5469 0.8372 -0.8372 0.5469 559.4641 -337.2991)" fill="#FFFFFF" width="10.346" height="2.444"/>
	
		<rect x="599.671" y="366.386" transform="matrix(-0.5716 -0.8205 0.8205 -0.5716 648.5569 1073.8201)" fill="#FFFFFF" width="9.847" height="2.442"/>
	<path fill="#FFFFFF" d="M475.397,364.412c2.015-1.743,3.368-4.912,3.368-8.546c0-5.507-3.098-9.972-6.921-9.972
		c-1.908,0-3.635,1.114-4.887,2.914h3.487v1.221h-4.188c-0.16,0.319-0.296,0.659-0.429,1.005h4.617v1.222h-5.032
		c-0.086,0.315-0.148,0.646-0.212,0.979h5.245v1.221h-5.421c-0.045,0.465-0.098,0.928-0.098,1.411c0,3.438,1.207,6.468,3.042,8.261
		c-1.986-1.386-3.958-3.894-3.958-8.428h-2.442c0,8.924,6.451,11.57,9.058,12.275v1.537h-4.479v2.443h5.7h1.221h4.527v-2.443h-4.529
		v-1.524c3.729-0.928,9.375-4.21,9.375-11.678h-2.442C479.998,360.744,477.615,363.137,475.397,364.412z"/>
	<circle fill="#FFFFFF" cx="377.766" cy="179.646" r="5.41"/>
	<circle fill="#FFFFFF" cx="397.602" cy="179.646" r="5.41"/>
	<circle fill="#FFFFFF" cx="416.085" cy="179.646" r="5.41"/>
	<polygon fill="#FFFFFF" points="429.049,168.501 429.049,190.791 452.986,179.646 	"/>
	<path fill="#FFFFFF" d="M513.098,487.126H0v29.999h513.098V487.126z M3,513.875v-8.916l9,8.916H3z"/>
	<path fill="#FFFFFF" d="M88.395,147.463c0.021,0.055,0.037,0.11,0.052,0.166c0.486-0.36,1.106-0.697,2.018-0.761
		c2.118-0.107,4.356-0.863,4.356-2.667c0-1.269-2.03-2.685-4.942-2.685c-2.912,0-4.942,1.416-4.942,2.685
		c0,0.468,0,1.336,2.164,2.003C87.742,146.427,88.186,146.87,88.395,147.463z"/>
	<path fill="#FFFFFF" d="M104.939,139.595c-0.375,0.626-0.82,1.716-0.615,3.156c0.341,2.382,2.948,6.119,4.811,6.895
		c0.721,0.301,1.417,0.453,2.069,0.453c0.313,0,0.577-0.036,0.788-0.083l-1.294-1.907c-0.472,0.032-1.13-0.05-1.722-0.258
		c-1.305-0.458-2.951-3.027-3.123-4.492c-0.086-0.714,0.166-1.39,0.355-1.781L104.939,139.595z"/>
	<path fill="#FFFFFF" d="M87.101,180.923c0.641,0.223,1.085,0.666,1.293,1.258c0.021,0.055,0.037,0.11,0.052,0.166
		c0.486-0.36,1.106-0.697,2.018-0.761c2.118-0.107,4.356-0.863,4.356-2.667c0-1.269-2.03-2.685-4.942-2.685
		c-2.912,0-4.942,1.416-4.942,2.685C84.937,179.387,84.937,180.255,87.101,180.923z"/>
	<path fill="#FFFFFF" d="M109.135,184.364c0.721,0.301,1.417,0.453,2.069,0.453c0.313,0,0.577-0.036,0.788-0.083l-1.294-1.907
		c-0.472,0.032-1.13-0.05-1.722-0.258c-1.305-0.458-2.951-3.027-3.123-4.492c-0.086-0.714,0.166-1.39,0.355-1.781l-1.269-1.982
		c-0.375,0.626-0.82,1.716-0.615,3.156C104.665,179.851,107.272,183.588,109.135,184.364z"/>
	<path fill="#FFFFFF" d="M87.101,212.687c0.641,0.223,1.085,0.666,1.293,1.258c0.021,0.055,0.037,0.11,0.052,0.166
		c0.486-0.36,1.106-0.697,2.018-0.761c2.118-0.107,4.356-0.863,4.356-2.667c0-1.269-2.03-2.685-4.942-2.685
		c-2.912,0-4.942,1.416-4.942,2.685C84.937,211.151,84.937,212.019,87.101,212.687z"/>
	<path fill="#FFFFFF" d="M109.135,216.127c0.721,0.301,1.417,0.453,2.069,0.453c0.313,0,0.577-0.036,0.788-0.083l-1.294-1.907
		c-0.472,0.032-1.13-0.05-1.722-0.258c-1.305-0.458-2.951-3.027-3.123-4.492c-0.086-0.714,0.166-1.39,0.355-1.781l-1.269-1.982
		c-0.375,0.626-0.82,1.716-0.615,3.156C104.665,211.615,107.272,215.352,109.135,216.127z"/>
	<path fill="#FFFFFF" d="M1134,565.125v-455H522v219.881h-67.847c-10.201,0-18.5,8.299-18.5,18.5v22c0,10.201,8.299,18.5,18.5,18.5
		H522v176.119H1134z M530,118.125h598.696v440H530V389.006h5.334v163.118H1123V123.427H535.334v206.579H530V118.125z
		 M670.873,294.624l26.55-12.36v24.722L670.873,294.624z M793.131,350.918c4.023,14.242,15.439,22.334,15.574,37.588
		c4.562-2.699,8.443-4.998,12.967-7.674c1.503,15.318-8.139,49.08-13.378,66.412c-36.396-22.479-64.243-5.75-93.747-19.539
		c-11.416-6.561-3.92-21.125-2.3-24.746c2.224-4.939,6.065-10.545,8.556-11.924C743.49,378.48,765.428,372.285,793.131,350.918z
		 M727.918,294.625c0-3.313,2.687-6,6-6s6,2.687,6,6s-2.687,6-6,6S727.918,297.938,727.918,294.625z M748.418,294.625
		c0-3.313,2.687-6,6-6s6,2.687,6,6s-2.687,6-6,6S748.418,297.938,748.418,294.625z M783.54,234.633
		c1.095-15.725,6.867-28.87,22.618-35.009c7.432-2.895,15.087-3.977,22.815-3.847c7.729-0.129,15.386,0.952,22.816,3.847
		c15.751,6.139,21.524,19.284,22.618,35.009c0.483,6.928,0.083,13.916,0.083,21.3c5.851,0.568,5.94,4.74,5.023,8.858
		c-1.505,6.741-3.485,13.385-5.36,20.04c-0.263,0.94-0.896,2.28-1.629,2.491c-5.045,1.466-4.315,5.799-4.734,9.397
		c-1.236,10.618-4.924,19.976-12.8,27.545c-1.245,1.203-2.223,3.668-1.946,5.313c2.416,14.299-2.59,25.191-14.127,33.695
		c-3.494,2.572-6.118,6.328-9.944,10.391c-3.825-4.063-6.448-7.818-9.942-10.391c-11.538-8.504-16.544-19.396-14.127-33.695
		c0.275-1.645-0.703-4.109-1.947-5.313c-7.875-7.569-11.563-16.927-12.8-27.545c-0.418-3.599,0.31-7.932-4.735-9.397
		c-0.732-0.211-1.365-1.551-1.629-2.491c-1.873-6.655-3.855-13.299-5.359-20.04c-0.918-4.118-0.826-8.29,5.024-8.858
		C783.458,248.549,783.057,241.561,783.54,234.633z M937.301,391.035c2.489,1.379,6.333,6.984,8.557,11.924
		c1.619,3.621,9.115,18.186-2.302,24.746c-29.502,13.789-57.351-2.939-93.747,19.539c-5.238-17.332-14.881-51.094-13.377-66.412
		c4.524,2.676,8.405,4.975,12.968,7.674c0.134-15.254,11.55-23.346,15.573-37.588C892.676,372.285,914.613,378.48,937.301,391.035z
		 M711.918,300.625c-3.313,0-6-2.687-6-6s2.687-6,6-6s6,2.687,6,6S715.231,300.625,711.918,300.625z M454.153,384.006
		c-7.444,0-13.5-6.056-13.5-13.5v-22c0-7.444,6.056-13.5,13.5-13.5h157.694c7.444,0,13.5,6.056,13.5,13.5v22
		c0,7.444-6.056,13.5-13.5,13.5H454.153z"/>
	<path fill="#FFFFFF" d="M1088.251,100.515c3.359,0,6.083-2.724,6.083-6.083s-2.724-6.083-6.083-6.083s-6.083,2.724-6.083,6.083
		S1084.892,100.515,1088.251,100.515z M1088.251,90.349c2.251,0,4.083,1.832,4.083,4.083s-1.832,4.083-4.083,4.083
		s-4.083-1.832-4.083-4.083S1086,90.349,1088.251,90.349z"/>
	<path fill="#FFFFFF" d="M1103.251,100.515c3.359,0,6.083-2.724,6.083-6.083s-2.724-6.083-6.083-6.083s-6.083,2.724-6.083,6.083
		S1099.892,100.515,1103.251,100.515z M1103.251,90.349c2.251,0,4.083,1.832,4.083,4.083s-1.832,4.083-4.083,4.083
		s-4.083-1.832-4.083-4.083S1101,90.349,1103.251,90.349z"/>
	<path fill="#FFFFFF" d="M1073.251,100.515c3.359,0,6.083-2.724,6.083-6.083s-2.724-6.083-6.083-6.083s-6.083,2.724-6.083,6.083
		S1069.892,100.515,1073.251,100.515z M1073.251,90.349c2.251,0,4.083,1.832,4.083,4.083s-1.832,4.083-4.083,4.083
		s-4.083-1.832-4.083-4.083S1071,90.349,1073.251,90.349z"/>
	<path fill="#FFFFFF" d="M1118.251,100.515c3.359,0,6.083-2.724,6.083-6.083s-2.724-6.083-6.083-6.083s-6.083,2.724-6.083,6.083
		S1114.892,100.515,1118.251,100.515z M1118.251,90.349c2.251,0,4.083,1.832,4.083,4.083s-1.832,4.083-4.083,4.083
		s-4.083-1.832-4.083-4.083S1116,90.349,1118.251,90.349z"/>
	<path fill="#FFFFFF" d="M596,105.863c0-2.089,0-8.255,0-11.432c0-8.14-6.833-11.432-6.833-11.432H527c-2.762,0-5,2.238-5,5v12.863
		c0,2.762,2.238,5,5,5H596z M536.688,86.432h46.001c4.418,0,8,3.582,8,8s-3.582,8-8,8h-46.001c-4.418,0-8-3.582-8-8
		S532.27,86.432,536.688,86.432z"/>
	<path fill="#FFFFFF" d="M1059.709,105.863H1129c2.762,0,5-2.238,5-5V88c0-2.762-2.238-5-5-5h-62.458c0,0-6.833,3.292-6.833,11.432
		C1059.709,97.608,1059.709,103.774,1059.709,105.863z M1073,86.432h46.001c4.418,0,8,3.582,8,8s-3.582,8-8,8H1073
		c-4.418,0-8-3.582-8-8S1068.582,86.432,1073,86.432z"/>
	<path fill="#FFFFFF" d="M536.688,100.841h45.903c3.54,0,6.409-2.87,6.409-6.409s-2.869-6.409-6.409-6.409h-45.903
		c-3.539,0-6.409,2.87-6.409,6.409S533.148,100.841,536.688,100.841z"/>
	<path fill="#FFFFFF" d="M598.542,94.432c0,5.749,0,9.855,0,11.432h458.625c0-1.577,0-5.683,0-11.432
		c0-7.89,5.167-11.432,5.167-11.432H593.375C593.375,83,598.542,86.542,598.542,94.432z M1046.687,99.577h-3.812v-2h3.812V99.577z
		 M1046.687,95.452h-9.499v-2h9.499V95.452z M1042.875,89.286h3.812v2h-3.812V89.286z M1031.5,89.286h9.499v2h-9.499V89.286z
		 M1031.5,93.452h3.812v2h-3.812V93.452z M1031.5,97.577h9.499v2h-9.499V97.577z M1004.814,88.356h3.823v-1.786h1v1.786h2.042
		v-1.786h1v1.786h4.219v-1.786h1v1.786h2v-1.786h1v1.786h3.75v12.229h-3.75v1.786h-1v-1.786h-2v1.786h-1v-1.786h-4.219v1.786h-1
		v-1.786h-2.042v1.786h-1v-1.786h-3.823V88.356z M644,88.807c0-1.657,1.902-3,4.248-3h345.379c2.347,0,4.248,1.343,4.248,3v11
		c0,1.657-1.901,3-4.248,3H648.248c-2.346,0-4.248-1.343-4.248-3V88.807z M613.25,89.708H629v2h-15.75V89.708z M613.25,93.765H629v2
		h-15.75V93.765z M613.25,97.875H629v2h-15.75V97.875z"/>
	<path fill="#FFFFFF" d="M1017.917,92.078c-0.395,0-0.693,0.035-0.896,0.079v4.667c0.193,0.035,0.475,0.044,0.772,0.044
		c1.632,0,2.519-0.912,2.519-2.509C1020.321,92.964,1019.531,92.078,1017.917,92.078z"/>
	<path fill="#FFFFFF" d="M1023.648,89.356h-17.834v10.229h17.834V89.356z M1012.831,94.965c0,1.815-0.956,2.562-2.237,2.562
		c-1.211,0-2.123-0.693-2.123-2.526v-3.483h0.771v3.501c0,1.324,0.588,1.886,1.378,1.886c0.877,0,1.438-0.579,1.438-1.886v-3.501
		h0.772V94.965z M1014.923,97.43h-0.763v-5.913h0.763V97.43z M1020.26,96.632c-0.553,0.553-1.466,0.851-2.615,0.851
		c-0.544,0-1-0.026-1.386-0.07v-5.816c0.465-0.07,1.018-0.123,1.623-0.123c1.097,0,1.878,0.254,2.396,0.737
		c0.526,0.482,0.833,1.166,0.833,2.123C1021.11,95.298,1020.813,96.088,1020.26,96.632z"/>
</g>
</svg>
