<?xml version="1.0" encoding="utf-8"?>
<!-- Generator: Adobe Illustrator 16.0.0, SVG Export Plug-In . SVG Version: 6.00 Build 0)  -->
<!DOCTYPE svg PUBLIC "-//W3C//DTD SVG 1.1//EN" "http://www.w3.org/Graphics/SVG/1.1/DTD/svg11.dtd">
<svg version="1.1" id="Layer_1" xmlns="http://www.w3.org/2000/svg" xmlns:xlink="http://www.w3.org/1999/xlink" x="0px" y="0px"
	 width="100%" height="100%" viewBox="339.191 586.263 1487.785 900.138"
	 enable-background="new 339.191 586.263 1487.785 900.138" xml:space="preserve">
<g>
	<path fill="#FFFFFF" d="M590.512,916.832c1.147,0.757,2.262,1.201,3.422,1.396c3.646,0.604,6.037-2.497,6.937-9.268
		c2.115-15.587,7.307-30.64,13.776-44.928c19.765,1.073,39.552,1.683,59.345,2.045c1.078,16.063,3.399,32.08,7.538,47.638
		c1.875,7.149,8.158,10.844,15.286,10.939c2.268,0.029,4.604-0.24,6.291-0.779c9.73-3.104,15.477-12.848,12.88-23.198
		c-8.514-35.868-9.258-70.416-13.21-106.672c-4.102-37.63-10.183-73.328-10.07-111.552c0.088-7.471-2.489-10.932-6.141-10.525
		c-3.265,0.365-8.593,4.736-12.39,12.394c-17.179,37.771-28.976,79.306-48.973,115.632c-17.518,31.824-36.23,56.97-44.737,93.344
		c-1.189,9.451,4.249,19.704,10.054,23.533 M670.241,750.669c2.005,25.179,5.028,48.416,3.317,73.696
		c-16.08-0.094-23.603-0.164-38.25-0.385c15.676-24.438,25.346-45.818,34.933-73.306"/>
	<path fill="#FFFFFF" d="M856.24,845.376c2.637,4.143,5.08,9.229,6.722,16.479c3.316,14.639,5.62,30.495,12.218,43.552
		c2.225,4.402,5.614,8.283,8.896,10.416c3.585,2.331,7.251,2.612,9.68,2.405c0.244-0.021,0.244-0.021,0.244-0.021
		c2.433-0.208,4.428-0.918,5.333-1.313c6.857-2.988,10.972-13.038,7.516-22.691c-2.028-5.667-8.428-9.547-10.148-11.379
		c-1.396-1.484-2.883-10.686-5.361-21.892c-3.482-15.745-11.216-29.732-19.2-39.847c-4.099-5.193-11.899-10.393-12.497-12.468
		c-2.015-7.006,11.842-35.231,10.443-54.832c-2.2-30.843-18.811-79.86-55.794-83.695c-15.229-1.162-23.034-1.533-39.013-1.896
		c-0.226-0.005-0.224-0.005-0.224-0.005c-6.96-0.156-12.438,7.104-12.427,18.674c0.113,73.712,0.008,147.408-0.207,221.12
		c-0.023,10.154,9.696,17.053,21.278,16.986c11.583-0.064,20.068-7.063,19.543-17.17c-1.474-27.438-3.992-54.784-6.912-82.111
		c13.68,0.044,20.19,0.05,32.755,0.018c2.549,0.721,10.048,3.594,16.765,8.786c3.839,2.97,7.831,6.864,10.396,10.893
		 M822.882,789.709c-11.858,0.063-17.938,0.099-30.592,0.174c-0.794-26.788-1.408-53.579-2.366-80.367
		c11.833,0.354,17.6,0.593,28.928,1.198c18.395,3.409,25.26,26.544,26.307,42.329c0.96,14.48-4.35,35.729-22.283,36.662"/>
	<path fill="#FFFFFF" d="M1084.768,949.04c-10.757,9.387-27.046,15.763-51.472,15.763c-98.368,0-201.296,0-201.296,0v62.4
		c0,0,161.695,0,204.256,0c18.889,0,32.112,3.81,41.403,9.146c4.986-22.253,7.637-45.378,7.637-69.12
		c0-6.107-0.193-12.171-0.536-18.194"/>
	<path fill="#FFFFFF" d="M476.768,1085.776c12.527,30.814,29.778,59.216,50.861,84.313c5.604-4.097,14.048-6.89,26.677-6.89
		c14.057,0,172.097,0,172.097,0V1104c0,0-158.448,0-198.527,0c-20.88,0-37.664-7.303-51.09-18.226"/>
	<path fill="#FFFFFF" d="M454.112,950.368c-0.296,5.584-0.453,11.2-0.453,16.862c0,23.434,2.587,46.271,7.453,68.264
		c9.195-4.885,21.998-8.296,39.866-8.296c42.572,0,225.407,0,225.407,0v-62.399c0,0-124.079,0-222.446,0
		c-23.23,0-39.078-5.786-49.824-14.433"/>
	<path fill="#FFFFFF" d="M1002.128,897.216c20.353-8.847,40.626-20.377,58.616-33.099c2.128-1.504,3.963-3.269,5.437-5.132
		c-2.188-5.982-4.57-11.872-7.106-17.681c-3.801,0.078-7.713,1.523-10.234,4.389c-9.965,11.312-22.719,20.004-35.722,22.701
		c-15.845,3.288-31.12-5.521-41.583-16.866c-15.005-16.272-32.617-37.744-38.051-55.181c-4.478-14.363,0.754-38.163,9.063-53.878
		c6.698-12.664,17.182-18.494,30.416-14.719c1.162,0.331,2.313,0.706,3.461,1.1c-13.843-12.033-28.745-22.875-44.537-32.383
		c-22.747,17.11-26.279,89.222-23.531,99.984c5.688,22.299,50.627,119.52,93.775,100.76"/>
	<path fill="#FFFFFF" d="M832,1104v59.2c0,0,113.33,0,155.904,0c10.933,0,18.021,3.192,22.56,7.921
		c21.939-25.889,39.797-55.336,52.556-87.354c-17.418,11.602-41.205,20.232-73.457,20.232c-98.368,0-157.553,0-157.553,0"/>
	<path fill="#FFFFFF" d="M614.112,700.656c2.659-4.729,4.155-8.402,4.48-10.8c-19.122,10.441-37.04,22.817-53.519,36.848
		c9.664-1.984,19.344-3.866,29.056-5.581c5.562-0.979,14.416-10.579,19.981-20.461"/>
	<path fill="#FFFFFF" d="M507.439,889.904c-0.065-0.063-0.1-0.092-0.162-0.152c0,0,0.352,0.233,0.728,0.393
		c17.115,7.137,34.112,14.331,51.785,20c4.228,1.319,3.674-4.553,1.128-13.974c-2.632-9.735-7.539-19.059-12.963-20.019
		c-18.01-3.445-35.816-7.31-53.674-11.475c-3.95-18.77-5.31-33.181,0.783-51.852c18.25,0.854,36.498,1.637,54.752,2.331
		c6.678,0.237,15.053-7.467,18.923-15.878c3.62-7.869-0.899-16.08-7.656-15.925c-16.398,0.397-32.794,0.851-49.19,1.336
		c-16.44,23.133-29.833,48.568-39.622,75.712c1.992,4.018,4.376,8.031,7.246,12.063c7.445,7.325,22.07,14.959,27.919,17.434"/>
	<path fill="#FFFFFF" d="M339.2,1470.4h387.2v16H339.2V1470.4z"/>
	<path fill="#FFFFFF" d="M832,1470.4h366.4v16H832V1470.4z"/>
	<path fill="#FFFFFF" d="M339.2,1393.6h387.2v16H339.2V1393.6z"/>
	<path fill="#FFFFFF" d="M832,1393.6h366.4v16H832V1393.6z"/>
	<path fill="#FFFFFF" d="M1035.2,1281.6h163.2v16h-163.2V1281.6z"/>
	<path fill="#FFFFFF" d="M339.2,1281.6H505.6v16H339.2V1281.6z"/>
	<path fill="#FFFFFF" d="M1158.4,780.8v52.978c0,6.881,5.006,12.211,11.89,12.211c6.883,0,12.11-5.33,12.11-12.211V702.784
		c0-6.884-5.229-12.212-12.11-12.212c-6.882,0-11.89,5.328-11.89,12.212v54.021H1100.8v-54.021c0-6.884-6.027-12.212-12.912-12.212
		c-6.882,0-12.688,5.328-12.688,12.212v38.118c9.6,12.707,18.264,25.501,25.968,39.899h57.232"/>
	<path fill="#FFFFFF" d="M1820.512,1361.952c-8.912-22.183-25.932-39.565-47.925-48.946l-450.624-192.079
		c-11.196-4.777-23-7.2-35.081-7.2c-30.544,0-58.479,15.468-74.807,40.433l-92.765-37.979c1.714-4.035,3.387-8.094,4.959-12.188
		h74.128v-16h-68.4c12.226-36.714,18.823-75.472,19.392-115.2h58.613v-16h-58.696c-2.613-97.854-41.937-189.456-111.44-258.943
		C965.91,625.891,870.25,586.263,768.489,586.263S571.064,625.89,499.113,697.847c-20.489,20.489-38.333,42.913-53.411,66.841
		c-1.963-1.187-3.99-2.315-6.095-3.342c-8.881-4.22-19.313-7.747-30.641-9.348h-0.443c-11.989-1.6-21.979-5.737-27.752-9.734
		c-2.888-1.998-4.886-3.979-5.996-5.755c-1.109-1.775-1.556-3.544-1.556-6.208c0-4.662,2.441-9.543,8.438-13.981
		c5.995-4.44,14.876-7.548,24.866-7.548c13.544,0,24.422,6.662,35.744,14.212c5.328,3.552,12.435,1.997,15.765-3.331
		c3.552-5.105,1.998-12.21-3.109-15.765c-11.328-7.325-27.086-17.76-48.399-17.76c-14.433,0-27.975,4.22-38.416,11.767
		c-10.213,7.55-17.76,19.095-17.76,32.414c0,6.661,1.775,12.849,5.105,18.184c4.885,7.77,12.211,13.298,20.646,17.294
		c8.438,3.997,18.205,7.014,28.641,8.613h0.442c12.242,3.085,22.528,5.834,29.072,9.663c-6.784,12.339-12.848,25.03-18.192,38.021
		c-2.918,0.5-5.955,0.806-9.104,0.806c-15.764,0.224-32.637-9.103-42.406-17.096c-4.885-3.997-12.212-3.331-16.208,1.554
		c-3.773,4.886-3.106,12.211,1.775,16.208c12.656,9.99,32.858,21.98,56.837,22.201c0.092,0,0.183-0.003,0.271-0.005
		c-12.039,35.92-18.727,73.792-19.604,112.641h-48.433v16h48.416c0.72,39.175,7.309,77.376,19.36,113.601h-67.776v16h73.51
		c18.879,49.163,48.048,94.258,86.397,132.607c71.955,71.955,167.616,111.584,269.376,111.584
		c101.761,0,197.424-39.629,269.376-111.584c27.376-27.375,50.048-58.207,67.664-91.487l94.063,38.512
		c-3.982,17.565-2.576,35.901,4.288,52.978c8.918,22.176,25.941,39.55,47.928,48.916l450.592,192.097
		c11.183,4.782,22.979,7.208,35.062,7.208c35.918,0,68.229-21.366,82.305-54.416c9.379-21.969,9.632-46.28,0.729-68.454
		 M768.466,1340.193c-205.647,0-372.96-167.313-372.96-372.96s167.313-372.96,372.96-372.96s372.96,167.313,372.96,372.96
		C1141.425,1172.882,974.113,1340.193,768.466,1340.193 M1790.321,1417.854c-9.05,21.246-29.806,34.975-52.88,34.975
		c-7.732,0-15.297-1.559-22.496-4.637l-450.624-192.112c-14.123-6.018-25.057-17.173-30.782-31.417
		c-5.729-14.24-5.566-29.854,0.459-43.977c9.045-21.235,29.789-34.959,52.848-34.959c7.741,0,15.318,1.56,22.528,4.635
		l450.624,192.079c14.127,6.025,25.059,17.19,30.782,31.438c5.722,14.243,5.556,29.858-0.472,43.978"/>
	<path fill="#FFFFFF" d="M1028.112,709.488C959.057,640.432,867.248,602.406,769.6,602.406
		c-97.646,0-189.472,38.028-258.512,107.082C442.032,778.544,404.006,870.352,404.006,968s38.029,189.472,107.082,258.512
		c69.057,69.058,160.864,107.084,258.512,107.084c97.648,0,189.474-38.031,258.514-107.084
		c69.056-69.056,107.081-160.863,107.081-258.512C1135.193,870.336,1097.163,778.528,1028.112,709.488 M769.6,1293.6
		C590.064,1293.6,444,1147.536,444,968s146.064-325.6,325.6-325.6c179.536,0,325.602,146.063,325.602,325.6
		S949.136,1293.6,769.6,1293.6"/>
</g>
</svg>
