<?xml version="1.0" encoding="utf-8"?>
<!-- Generator: Adobe Illustrator 16.0.0, SVG Export Plug-In . SVG Version: 6.00 Build 0)  -->
<!DOCTYPE svg PUBLIC "-//W3C//DTD SVG 1.1//EN" "http://www.w3.org/Graphics/SVG/1.1/DTD/svg11.dtd">
<svg version="1.1" id="Layer_1" xmlns="http://www.w3.org/2000/svg" xmlns:xlink="http://www.w3.org/1999/xlink" x="0px" y="0px"
	 width="100%" height="100%" viewBox="0 0 393 488" enable-background="new 0 0 393 488" xml:space="preserve">
<path fill="#FFFFFF" d="M257.566,0H59.83C30.094,0,0,18.607,0,48.343v380.315C0,458.395,30.094,488,59.83,488h285.317
	C374.883,488,393,458.395,393,428.658V135.922L257.566,0z M376,428.658c0,11.182-3.051,22.432-9.229,30.43
	C362.66,464.408,355.98,471,345.146,471H59.83C39.495,471,17,448.992,17,428.658V48.343c0-10.834,6.837-17.759,12.157-21.87
	C37.155,20.294,48.648,17,59.83,17h190.926L251,17.735V142h124.527l0.473,0.964V428.658z"/>
</svg>
