<?xml version="1.0" encoding="utf-8"?>
<!-- Generator: Adobe Illustrator 16.0.0, SVG Export Plug-In . SVG Version: 6.00 Build 0)  -->
<!DOCTYPE svg PUBLIC "-//W3C//DTD SVG 1.1//EN" "http://www.w3.org/Graphics/SVG/1.1/DTD/svg11.dtd">
<svg version="1.1" id="Layer_2" xmlns="http://www.w3.org/2000/svg" xmlns:xlink="http://www.w3.org/1999/xlink" x="0px" y="0px"
	 width="100%" height="100%" viewBox="0 0 1027.56 457.489" enable-background="new 0 0 1027.56 457.489"
	 xml:space="preserve">
<g>
	<path fill="#FFFFFF" d="M399.846,152.804c-0.025,0-0.048-0.014-0.074-0.013c-0.039,0.001-0.071,0.02-0.108,0.024
		c-0.104,0.011-0.203,0.031-0.3,0.066c-0.053,0.02-0.102,0.041-0.151,0.067c-0.087,0.046-0.165,0.102-0.239,0.167
		c-0.044,0.039-0.087,0.075-0.125,0.12c-0.061,0.07-0.106,0.148-0.15,0.232c-0.03,0.057-0.063,0.11-0.085,0.172
		c-0.007,0.021-0.023,0.037-0.029,0.059c-0.024,0.083-0.02,0.165-0.027,0.248c-0.004,0.044-0.024,0.083-0.023,0.129l0.061,3.226
		c-72.799,3.473-142.71,15.674-196.085,26.077c-0.068,0.013-0.125,0.049-0.189,0.073c-0.058,0.021-0.117,0.036-0.17,0.066
		c-0.091,0.049-0.167,0.115-0.241,0.184c-0.038,0.035-0.082,0.062-0.115,0.101c-0.091,0.107-0.163,0.229-0.214,0.362
		c-0.004,0.012-0.014,0.021-0.019,0.034c-0.049,0.138-0.075,0.287-0.072,0.441c0,0.01,0.005,0.018,0.005,0.028
		c0,0.009-0.004,0.016-0.003,0.025l0.306,5.193c0.035,0.59,0.474,1.077,1.057,1.172c5.171,0.844,36.839,6.083,36.839,6.083
		c0.068,0.011,0.137,0.017,0.206,0.017c0.083,0,0.166-0.008,0.248-0.025c0.639-0.127,64.213-12.809,92.707-16.319
		c28.704-3.536,84.903-7.347,89.721-7.67l10.011,4.725c0.273,0.128,0.581,0.155,0.873,0.076c0.245-0.067,24.831-6.747,36.037-10.602
		c0.51-0.175,1.064-0.655,1.064-1.194v-4.5c0-0.021-0.224-0.039-0.225-0.06c-0.001-0.025-0.099-0.049-0.102-0.075
		c-0.009-0.084-0.096-0.158-0.121-0.236c-0.015-0.049-0.048-0.1-0.068-0.146c-0.063-0.139-0.159-0.268-0.266-0.374
		c-0.004-0.004-0.017-0.006-0.021-0.01c-0.104-0.102-0.229-0.182-0.364-0.243c-0.047-0.021-0.102-0.027-0.152-0.043
		c-0.077-0.024-0.149-0.058-0.232-0.067l-69.076-7.597C399.904,152.795,399.876,152.806,399.846,152.804z M432.534,172.955
		c0.265,0.122,0.539,0.148,0.821,0.076c0.234-0.061,22.204-5.828,34.204-9.637v1.853c-11,3.566-31.051,9.234-34.343,10.141
		l-9.873-4.666c-0.194-0.091-0.402-0.136-0.616-0.118c-0.599,0.04-60.261,4.02-90.185,7.706
		c-27.727,3.416-88.452,15.465-92.666,16.304c-2.697-0.446-28.661-4.742-35.62-5.883l-0.154-2.616l13.978,2.234
		c9.147,1.461,21.336,3.476,21.337,3.476c0.068,0.011,0.137,0.017,0.206,0.017c0.086,0,0.171-0.009,0.256-0.026
		c0.619-0.128,62.33-12.861,101.35-17.12c32.905-3.592,77.114-6.136,81.273-6.371L432.534,172.955z M403.109,157.094
		c-0.665,0.028-1.327,0.063-1.991,0.093l-0.021-1.084L403.109,157.094z"/>
	<path fill="#FFFFFF" d="M619.36,187.159c14.296-0.816,27.039-9.979,31.493-23.579c5.1-15.579,5.257-20.589,6.26-37.147
		c0,0,3.592-47.472-33.218-49.886c-33.52-2.198-40.658,29.063-42.016,49.128c-0.998,14.753-2.831,34.06,7.288,46.48
		C596.717,181.415,607.016,187.866,619.36,187.159z"/>
	<path fill="#FFFFFF" d="M700.745,280.468c-0.722,17.686-1.469,35.972,9.237,52.675c8.146,12.707,21.07,22.42,36.394,27.349
		c5.696,1.832,11.832,2.761,18.236,2.761c24.542,0,47.155-13.107,56.27-32.616c6.787-14.526,7.677-29.462,8.62-45.274
		c0.147-2.474,0.295-4.955,0.468-7.442c0.235-3.387,0.49-6.77,0.746-10.15c1.081-14.319,2.2-29.126,1.67-43.791
		c-0.003-0.088-0.023-0.174-0.037-0.262c-3.289-20.554-11.21-31.025-23.414-41.378c-8.178-6.935-19.398-10.71-31.196-12.639
		c-3.174-0.519-6.41-0.781-9.62-0.781c-13.761,0-27.961,4.884-41.064,14.125c-25.678,18.11-25.866,51.56-26.033,81.073
		C700.988,269.852,700.958,275.271,700.745,280.468z"/>
	<path fill="#FFFFFF" d="M558.938,394.952l-11.451-34.945c-0.17-0.52-0.654-0.918-1.199-0.918c-0.007,0-0.014,0-0.02,0
		c-0.107,0-10.88,0.219-27.435,0.219c-36.208,0-103.927-0.778-150.659-6.163c-36.851-4.247-95.848-11.038-137.968-22.612
		l18.412-8.262c0.002-0.004,0.002-0.182,0.003-0.182c0.002,0,0.003,0,0.005,0c0.286,0,0.934-0.167,0.934-0.431c0,0,0,0.092,0,0.091
		c0-0.078-0.088-0.115-0.067-0.201c0.029-0.125-0.241-0.232-0.251-0.362l-0.682-7.8c0-0.002,0-0.003,0-0.004
		c0-0.002,0-0.003,0-0.004c0-0.034,0.185-0.062,0.18-0.095c-0.005-0.041,0.105-0.082,0.096-0.123
		c-0.012-0.05,0.009-0.09-0.008-0.137c-0.015-0.042,0.01-0.089-0.008-0.128c-0.009-0.018-0.012-0.028-0.021-0.045
		c-0.004-0.009-0.005-0.014-0.01-0.022c-0.041-0.07-0.086-0.131-0.14-0.192c-0.047-0.056-0.089-0.11-0.146-0.156
		c-0.067-0.056-0.143-0.094-0.22-0.134c-0.058-0.029-0.108-0.066-0.171-0.087c-0.136-0.046-0.281-0.117-0.433-0.115
		c-0.012,0-0.021-0.055-0.034-0.055c-0.001,0-0.001,0-0.002,0c-0.002,0-0.003,0-0.005,0l-128.979,7.443
		c-0.157,0.008-0.303,0.078-0.441,0.14c-0.044,0.021-0.081,0.06-0.122,0.084c-0.089,0.053-0.17,0.119-0.243,0.191
		c-0.037,0.036-0.07,0.074-0.102,0.115c-0.064,0.08-0.114,0.17-0.158,0.266c-0.02,0.044-0.043,0.083-0.058,0.129
		c-0.006,0.017-0.017,0.031-0.022,0.049l-13.613,49.195c-0.028,0.102-0.184,0.205-0.187,0.308c0,0.01-0.152,0.019-0.152,0.029v9.426
		c0,0.423,0.358,0.817,0.71,1.052c0.353,0.234,0.872,0.277,1.261,0.112c8.1-3.398,35.021-14.805,38.88-16.442
		c5.366,1.952,55.109,19.366,148.308,30.157c86.61,10.028,171.273,11.747,250.425,11.747c4.839,0,9.674-0.007,14.471-0.018
		c0.689-0.002,1.254-0.557,1.263-1.246l0.122-9.464c0-0.014-0.007-0.025-0.007-0.038
		C558.99,395.199,558.978,395.074,558.938,394.952z M226.987,323.728c0.001-0.001,0.002-0.002,0.003-0.002l19.55-8.4l0.264,5.17
		l-20.427,8.972c-2.557-0.739-5.054-1.495-7.461-2.272L226.987,323.728z M556.377,403.549
		c-82.831,0.183-172.032-1.142-263.349-11.715c-97.986-11.346-147.672-29.999-148.163-30.187c-0.304-0.116-0.552-0.108-0.853,0.018
		c-0.287,0.122-27.453,11.518-37.453,15.897v-6.679l37.354-15.371c9.427,3.1,78.047,22.293,149.609,29.704
		c76.385,7.911,151.701,11.439,244.258,11.439c6.212,0,12.43-0.017,18.69-0.044L556.377,403.549z"/>
	<path fill="#FFFFFF" d="M77.409,184.928l0.076,1.227c1.031,16.609,2.201,35.436,14.137,49.363
		c9.225,10.764,22.365,16.691,37.001,16.691c9.79,0,19.651-2.643,28.516-7.641c13.057-7.362,20.981-22.277,21.742-40.922
		c0.651-15.943-0.686-27.154-2.535-42.67l-0.267-2.239c-2.106-17.39-6.501-31.059-21.103-41.243
		c-8.525-5.946-19.524-9.221-30.968-9.221c-19.01,0-34.583,8.835-41.657,23.635c-7.554,15.804-6.727,27.483-5.476,45.16
		C77.051,179.545,77.236,182.155,77.409,184.928z"/>
	<circle fill="#FFFFFF" cx="116.328" cy="66.148" r="35.898"/>
	<circle fill="#FFFFFF" cx="771.328" cy="115.148" r="47.397"/>
	<circle fill="#FFFFFF" cx="623.06" cy="44.588" r="26"/>
	<polygon fill="#FFFFFF" points="837.193,270.088 837.56,270.117 837.56,270.088 	"/>
	<path fill="#FFFFFF" d="M344.685,138.588c0.057,0,0.114-0.002,0.17-0.007l70.043-5.993c7.668-0.047,13.662-6.179,13.662-14v-86
		c0-7.695-6.184-13.959-13.801-14l-69.807-4.995c-0.047-0.003-0.095-0.005-0.143-0.005c-7.857,0-14.25,6.28-14.25,14v97
		C330.56,132.308,336.896,138.588,344.685,138.588z M334.56,27.588c0-5.398,4.655-9.962,10.182-10l40.818,2.921v27.579
		c0,0.398,0.119,0.704,0.341,1.034l10.334,15.25c0.365,0.542,0.972,0.715,1.625,0.715c0.011,0,0.023,0,0.034,0
		c0.64,0,1.243-0.14,1.619-0.659l9.666-13.167c0.248-0.341,0.381-0.752,0.381-1.174V22.227l4.982,0.356
		c0.047,0.003,0.095,0.005,0.143,0.005c5.445,0,9.875,4.486,9.875,10v86c0,5.607-4.283,10-9.75,10c-0.057,0-0.114,0.002-0.17,0.007
		l-70.036,5.992c-5.545-0.043-10.043-4.512-10.043-10V27.588z"/>
	<path fill="#FFFFFF" d="M351.888,39.585l27.782,1.5c0.037,0.002,0.073,0.003,0.11,0.003c1.055,0,1.938-0.826,1.995-1.892
		c0.06-1.103-0.786-2.045-1.889-2.105l-27.782-1.5c-1.081-0.053-2.045,0.787-2.105,1.889
		C349.939,38.583,350.785,39.526,351.888,39.585z"/>
	<path fill="#FFFFFF" d="M351.927,56.086l28.813,1.002c0.023,0,0.047,0,0.071,0c1.072,0,1.96-0.85,1.998-1.931
		c0.038-1.104-0.826-2.03-1.93-2.068l-28.813-1.002c-1.071-0.021-2.03,0.825-2.068,1.93
		C349.959,55.121,350.823,56.047,351.927,56.086z"/>
	<path fill="#FFFFFF" d="M351.533,72.462l56,0.626c0.009,0,0.018,0,0.027,0c1.092,0,1.985-0.762,2-1.857
		c0.015-1.104-0.869-1.896-1.973-1.911l-56-0.766c-1.101,0.009-2.012,0.838-2.027,1.942
		C349.545,71.602,350.428,72.447,351.533,72.462z"/>
	<path fill="#FFFFFF" d="M351.559,91.088c0.005,0,0.01,0,0.015,0l56-0.313c1.105-0.008,1.994-0.806,1.985-1.91
		c-0.008-1.1-0.902-1.777-2-1.777c-0.005,0-0.01,0-0.015,0l-56,0.208c-1.105,0.009-1.994,0.702-1.985,1.807
		C349.568,90.203,350.461,91.088,351.559,91.088z"/>
	<path fill="#FFFFFF" d="M407.476,105.423l-55.563,2.334c-1.104,0.046-1.96,0.979-1.914,2.082c0.045,1.075,0.931,1.916,1.997,1.916
		c0.028,0,0.057,0,0.085-0.002l55.563-2.334c1.104-0.046,1.96-0.979,1.914-2.082C409.511,106.233,408.583,105.359,407.476,105.423z"
		/>
	<path fill="#FFFFFF" d="M484.56,212.679v2.136c25.82-3.635,52.149-7.304,78.1-10.703c7.042,1.646,14.166,2.756,18.444,3.423
		c0.858,0.134,1.603,0.25,2.21,0.349c17.146,2.799,35.243,4.427,53.79,4.84c2.606,0.058,5.214,0.09,7.821,0.115
		c15.531,24.438,34.086,53.631,50.146,78.896c0.071-3.22,0.198-6.465,0.332-9.735c0.372-9.101,0.242-19.013,0.407-29.112
		l-23.963-33.844c9.424-0.564,18.577-1.544,27.358-2.916c0.191-0.886,0.392-1.768,0.605-2.643
		c-9.485,1.521-19.428,2.57-29.681,3.132l-2.971-4.194c0.354-0.031,0.727-0.063,1.116-0.096c12.845-1.098,23.748-2.303,32.84-3.641
		c3.189-10.572,8.302-20.189,16.503-27.941c-14.678-4.594-30.597-6.758-45.878-8.367c-6.632-0.61-13.002-1.094-19.178-1.461
		c-5.941,12.787-18.841,21.221-33.179,22.04c-13.639,0.78-25.018-6.347-33.355-16.576c-1.005-1.233-1.899-2.53-2.702-3.878
		c-5.007,0.62-9.925,1.35-14.756,2.213c-0.64,0.115-1.387,0.236-2.218,0.372c-8.028,1.31-22.971,3.748-26.052,12.503
		c-0.019,0.053-0.034,0.106-0.047,0.16c-0.581,2.521-0.114,4.513,0.99,6.15c0.962,1.646,3.254,3.875,6.129,4.458l-63.962,8.72
		C484.143,208.821,484.56,210.704,484.56,212.679z"/>
	<path fill="#FFFFFF" d="M672.249,263.081c-14.045-22.367-27.311-43.494-28.493-45.392c-0.222-0.355-0.605-0.578-1.024-0.594
		c-0.26-0.009-26.262-1.002-54.155-5.089c-7.512-1.102-25.884-5.294-26.068-5.336c-0.152-0.035-0.307-0.042-0.458-0.02
		c-17.94,2.543-45.668,6.502-77.49,11.055v2.551c31.835-4.555,59.601-8.52,77.613-11.072c2.241,0.51,18.795,4.258,26.038,5.32
		c25.532,3.742,49.487,4.902,53.756,5.086c2.47,3.944,14.964,23.842,28.145,44.832c9.247,14.729,18.683,29.754,25.082,39.949
		c-0.086-1.66-0.137-3.33-0.162-5.008C688.785,289.414,680.446,276.133,672.249,263.081z"/>
	<path fill="#FFFFFF" d="M29.839,288.327c17.937,4.099,37.552,6.091,59.966,6.091c18.633,0,38.801-1.364,63.47-4.292
		c22.281-2.644,41.691-6.273,59.341-11.096c1.004-0.273,2.153-0.568,3.416-0.887l152.528,27.585v-12.28l-118.243-20.825
		c2.686-1.45,6.186-3.852,9.302-7.649c4.317-5.262,4.869-10.799,4.878-13.207c15.185-2.156,56.237-8.039,104.063-14.893v-2.551
		c-49.218,7.054-91.324,13.088-105.545,15.104c-0.673,0.095-1.15,0.711-1.078,1.387c0.007,0.064,0.636,6.579-4.27,12.559
		c-4.426,5.394-9.817,7.768-11.726,8.48l-5.549-0.978c13.862-5.53,20.557-12.206,20.421-20.322c0-0.06-0.005-0.12-0.013-0.179
		c-0.222-1.617-0.759-3.049-1.345-4.236c27.024-3.758,54.075-7.502,81.125-11.246c9.33-1.292,18.651-2.588,27.98-3.88v-8.259
		L252.355,238.61c-1.009-0.591-2.118-1.155-3.371-1.717c-18.641-8.355-40.061-9.603-58.985-10.705
		c-2.86-0.117-5.764-0.205-8.689-0.268c-3.973,11.572-11.086,20.709-20.724,26.144c-9.898,5.581-20.908,8.531-31.839,8.531
		c-16.341,0-31.012-6.618-41.312-18.638c-2.419-2.822-4.437-5.826-6.135-8.961c-52.069,7.99-71.246,20.037-78.046,29.045
		c-3.667,4.858-3.276,8.293-3.212,8.713c2.064,11.328,18.549,15.039,28.398,17.257L29.839,288.327z"/>
	<path fill="#FFFFFF" d="M591.769,353.123c-2.326,5.478-1.857,10.76-1.826,11.054c1.357,24.57,33.694,38.904,51.067,46.605
		c24.354,10.795,50.43,16.648,70.425,20.543c29.559,5.756,60.188,8.676,91.04,8.676c10.935,0,22.032-0.371,32.984-1.104
		c21.468-1.434,41.864-5.013,60.622-10.638l0.595-0.179c16.534-4.953,41.521-12.441,42.961-33.004
		c1.319-21.524-17.918-34.834-34.824-44.024c-19.003-10.331-39.473-16.716-57.024-21.606c-6.103-1.548-12.21-2.978-18.313-4.292
		c-1.122,3.88-2.508,7.721-4.277,11.508c-13.322,28.516-51.546,41.477-80.454,32.179c-15.97-5.136-30.27-15.367-39.378-29.577
		c-4.98-7.77-7.668-15.831-9.047-24.136c-15.418,1.127-30.383,3.137-44.608,6.025c-17.635,3.58-30.866,8.302-41.571,14.842
		l-125.58-22.117v12.83l111.438,20.154c-1.26,1.223-2.255,2.551-3.054,3.91l-77.585-14.291c-10.543-1.942-20.931-3.852-31.193-5.736
		c-0.188,0.832-0.453,1.639-0.768,2.426c10.363,1.903,20.854,3.832,31.504,5.793L591.769,353.123z"/>
	<path fill="#FFFFFF" d="M220.218,285.026c52.012,9.58,100.404,18.407,147.201,26.943c0.379,0.068,0.761,0.139,1.141,0.207v-2.566
		c-0.229-0.041-0.459-0.083-0.688-0.125c-46.894-8.554-95.384-17.398-147.518-27.002c-0.209-0.037-0.426-0.023-0.63,0.045
		c-27.542,9.244-60.818,14.545-101.729,16.206C31.274,302.255,7.254,284.578,7.024,284.401c-0.55-0.429-1.343-0.33-1.772,0.219
		c-0.429,0.55-0.331,1.344,0.218,1.771c0.878,0.686,20.527,15.343,90.06,15.342c7.002-0.001,14.521-0.149,22.567-0.477
		C159.098,299.592,192.507,294.282,220.218,285.026z"/>
	<path fill="#FFFFFF" d="M388.013,202.088c-8.521,0-15.453,6.606-15.453,14.727v106.449c0,8.577,7.014,15.824,15.316,15.824h76.955
		c8.379,0,15.729-7.395,15.729-15.824V216.815c0-8.12-7.117-14.727-15.865-14.727H388.013z M476.56,216.815v106.449
		c0,6.188-5.59,11.824-11.729,11.824h-76.955c-6.028,0-11.316-5.525-11.316-11.824V216.815c0-6.015,5.031-10.727,11.453-10.727
		h76.682C471.237,206.088,476.56,210.901,476.56,216.815z"/>
	<path fill="#FFFFFF" d="M453.863,239.323c-1.979-0.992-4.308-0.394-4.824-0.234c-9.139,2.803-18.306,5.516-27.416,8.405
		c-5.959,1.891-7.915,4.729-7.953,10.936c-0.031,5.068-0.03,10.137-0.036,15.206c-0.004,4.361-0.001,8.725-0.001,13.256
		c-7.382-1.309-13.362,0.329-17.673,6.227c-2.967,4.058-2.107,9.577,1.898,11.826c4.848,2.719,9.834,2.197,14.53-0.378
		c4.243-2.326,6.532-5.939,6.446-11.017c-0.133-7.883-0.006-15.77-0.051-23.654c-0.014-2.358,0.607-4.355,2.989-5.123
		c8.669-2.799,17.368-5.508,26.098-8.107c2.351-0.699,2.717,0.399,2.718,1.668c0.197,6.921,0.125,13.85,0.125,20.838
		c-8.207-1.298-13.476,0.197-17.383,4.726c-3.715,4.306-3.265,10.24,1.256,12.929c4.768,2.834,9.773,2.325,14.529-0.146
		c4.398-2.285,6.944-5.789,6.902-11.056c-0.105-13.403-0.115-26.81,0.027-40.213C456.078,242.299,455.899,240.528,453.863,239.323z"
		/>
	<path fill="#FFFFFF" d="M214.358,154.177c0.057,0,0.114-0.002,0.171-0.007l86.702-7.439c9.163-0.048,16.328-7.451,16.328-16.894
		V23.099c0-9.448-7.204-16.854-16.415-16.894l-86.405-6.2C214.692,0.002,214.645,0,214.597,0c-9.395,0-17.037,7.579-17.037,16.894
		v120.39C197.56,146.598,205.096,154.177,214.358,154.177z M201.56,16.894c0-7.086,5.811-12.856,12.968-12.894l86.401,6.201
		c0.047,0.003,0.095,0.005,0.143,0.005c7.003,0,12.488,5.664,12.488,12.894v106.737c0,7.23-5.454,12.894-12.417,12.894
		c-0.057,0-0.114,0.002-0.171,0.007l-86.696,7.439c-7.02-0.045-12.716-5.812-12.716-12.893V16.894z"/>
	<path fill="#FFFFFF" d="M228.89,112.8c21.751-1.723,41.318-3.276,59.015-4.683c2.925-0.233,3.717-1.063,3.717-3.898
		c0.006-16.616,0.006-35.278,0-51.895c-0.001-2.803-0.821-3.656-3.728-3.903c-8.633-0.73-47.848-4.033-59.021-4.972
		c-4.198-0.354-5.377,0.54-5.378,4.174c-0.003,19.647-0.003,41.341,0,60.989C223.495,112.261,224.636,113.137,228.89,112.8z
		 M282.146,52.672l4.806,0.367c0.614,0.044,0.608,0.56,0.608,1.166v5.155c0,0.605-0.271,1.074-0.887,1.043l-4.64-0.26
		c-0.636-0.031-0.473-0.551-0.473-1.167v-5.259C281.56,53.1,281.511,52.627,282.146,52.672z M281.56,70.749v-5.257
		c0-0.617-0.049-1.101,0.586-1.076l4.806,0.2c0.614,0.024,0.608,0.53,0.608,1.134v5.154c0,0.606-0.271,1.088-0.887,1.078
		l-4.64-0.093C281.396,71.877,281.56,71.366,281.56,70.749z M281.56,80.383v-5.257c0-0.618-0.049-1.109,0.586-1.102l4.806,0.062
		c0.614,0.007,0.608,0.506,0.608,1.111v5.154c0,0.605-0.271,1.099-0.887,1.105l-4.64,0.042C281.396,81.503,281.56,81,281.56,80.383z
		 M281.56,91.087V85.83c0-0.618-0.049-1.119,0.586-1.13l4.806-0.091c0.614-0.011,0.608,0.478,0.608,1.083v5.154
		c0,0.605-0.271,1.111-0.887,1.135l-4.64,0.194C281.396,92.2,281.56,91.703,281.56,91.087z M281.56,102.861v-5.258
		c0-0.617-0.049-1.128,0.586-1.161l4.806-0.258c0.614-0.031,0.608,0.448,0.608,1.052v5.156c0,0.605-0.271,1.123-0.887,1.167
		l-4.64,0.36C281.396,103.965,281.56,103.479,281.56,102.861z M248.877,66.042c0.019-2.195,1.218-2.787,3.312-1.608
		c6.914,3.894,13.57,7.676,19.968,11.373c1.498,0.865,1.492,1.965-0.034,2.833c-6.481,3.689-13.197,7.511-20.215,11.384
		c-2.127,1.176-3.018,0.102-3.032-1.776C248.848,84.507,248.845,69.702,248.877,66.042z M228.56,50.261
		c0-0.705,1.387-1.219,2.213-1.161l7.625,0.5c0.794,0.056,2.162,0.671,2.162,1.357v5.853c0,0.687-1.015,1.208-1.808,1.168
		l-7.789-0.353c-0.826-0.041-2.403-0.654-2.403-1.358V50.261z M228.56,63.712c0-0.706,1.387-1.248,2.213-1.216l7.625,0.266
		c0.794,0.03,2.162,0.615,2.162,1.302v5.851c0,0.688-1.015,1.236-1.808,1.222l-7.789-0.119c-0.826-0.015-2.403-0.597-2.403-1.302
		V63.712z M228.56,74.717c0-0.706,1.387-1.271,2.213-1.261l7.625,0.075c0.794,0.008,2.162,0.569,2.162,1.256v5.851
		c0,0.687-1.015,1.258-1.808,1.266l-7.789,0.073c-0.826,0.008-2.403-0.55-2.403-1.255V74.717z M228.56,86.944
		c0-0.705,1.387-1.294,2.213-1.31l7.625-0.139c0.794-0.015,2.162,0.52,2.162,1.207v5.851c0,0.687-1.015,1.282-1.808,1.314
		l-7.789,0.285c-0.826,0.032-2.403-0.498-2.403-1.203V86.944z M228.56,100.394c0-0.706,1.387-1.322,2.213-1.364l7.625-0.373
		c0.794-0.041,2.162,0.463,2.162,1.15v5.853c0,0.687-1.015,1.308-1.808,1.367l-7.789,0.519c-0.826,0.06-2.403-0.44-2.403-1.145
		V100.394z"/>
	<path fill="#FFFFFF" d="M880.089,92.075c0,7.247,5.469,13.143,12.191,13.143c6.722,0,12.189-5.896,12.189-13.143
		s-5.468-13.143-12.189-13.143C885.558,78.932,880.089,84.828,880.089,92.075z M900.47,92.075c0,5.042-3.674,9.143-8.189,9.143
		c-4.517,0-8.191-4.102-8.191-9.143s3.675-9.143,8.191-9.143C896.796,82.932,900.47,87.033,900.47,92.075z"/>
	<path fill="#FFFFFF" d="M840.688,168.422l62.872,5.387v-4.014l-62.612-5.365c-0.057-0.005-0.114-0.007-0.171-0.007
		c-5.168,0-9.217-4.183-9.217-9.523v-18.055l31.156-23.552l18.556,15.218c0.732,0.6,1.779,0.606,2.519,0.015l5.674-4.542
		l14.096,8.382v-4.654l-13.241-7.874c-0.716-0.425-1.622-0.364-2.272,0.158l-5.49,4.395l-18.521-15.189
		c-0.715-0.586-1.737-0.606-2.475-0.049l-30.001,22.679V72.317c0-5.34,4.087-9.523,9.305-9.523c0.048,0,0.096-0.001,0.143-0.005
		l66.924-4.796c5.315,0.037,9.629,4.294,9.629,9.523V96.76c0.774-0.116,1.561-0.198,2.366-0.201l1.634-0.104v-28.94
		c0-7.457-6.145-13.523-13.697-13.523c-0.048,0-0.096,0.001-0.143,0.005l-66.93,4.796c-7.426,0.039-13.23,5.965-13.23,13.523V154.9
		C827.56,162.452,833.319,168.375,840.688,168.422z"/>
	<path fill="#FFFFFF" d="M1012.3,286.321c-0.014-0.07-0.023-0.139-0.047-0.204c-0.031-0.085-0.077-0.159-0.125-0.235
		c-0.036-0.056-0.065-0.113-0.109-0.162c-0.062-0.071-0.137-0.125-0.214-0.18c-0.05-0.037-0.094-0.08-0.149-0.108
		c-0.098-0.051-0.206-0.177-0.317-0.201c-0.044-0.01-0.081-0.142-0.128-0.142c-0.006,0-0.01,0-0.016,0s-0.011,0.098-0.017,0.098
		l-43.227-3.408c0.864-4.548,1.297-18.285-18.298-36.528l-28.544-2.418c-9.686-0.048-17.55-7.952-17.55-17.677v-9.396
		c-23.467-10.702-49.213-17.937-49.52-18.022c-0.15-0.042-0.31-0.056-0.463-0.04l-22.735,2.252
		c2.574,5.337,4.591,11.088,6.285,17.395c17.788,8.521,34.841,18.939,42.979,30.797c2.954,4.301,4.523,8.391,4.898,12.834
		c-2.062-5.687-6.374-13.636-15.366-20.939c-7.063-5.737-19.772-12.66-31.84-18.637c0.027,0.959,0.051,1.918,0.066,2.877
		c11.608,5.789,23.576,12.354,30.182,17.72c14.156,11.499,16.087,24.934,16.285,26.736c-0.77,2.556-2.125,4.845-3.929,4.698
		l-42.843-3.312v0.12c0-0.002-0.227,0.082-0.248,0.082c-0.133-0.002-0.357,0.046-0.481,0.084c-0.101,0.029-0.233,0.102-0.321,0.154
		c-0.043,0.026-0.111,0.054-0.151,0.084c-0.07,0.055-0.137,0.126-0.193,0.194c-0.047,0.054-0.098,0.106-0.135,0.169
		c-0.038,0.064-0.065,0.134-0.091,0.205c-0.02,0.052-0.055,0.096-0.066,0.15c-0.008,0.036-0.001,0.07-0.006,0.106
		c-0.005,0.031-0.023,0.058-0.025,0.09l-0.49,7.005c-0.038,0.545,0.278,1.053,0.784,1.258l77.09,31.381
		c0.151,0.062,0.313,0.094,0.476,0.094c0.069,0,0.14-0.006,0.208-0.018l96.605-16.176c0.56-0.094,0.988-0.549,1.048-1.112
		l0.771-7.31c0.003-0.029-0.01-0.057-0.008-0.086c0.001-0.033,0.016-0.064,0.014-0.098
		C1012.337,286.433,1012.311,286.379,1012.3,286.321z M1009.15,292.768l-95.306,15.958l-75.911-30.9l0.306-4.37l75.652,30.119
		c0.149,0.06,0.308,0.09,0.467,0.09c0.068,0,0.137-0.006,0.204-0.017l95.085-15.588L1009.15,292.768z"/>
	<path fill="#FFFFFF" d="M1025.722,137.104l-44.267-39.183c-0.058-0.051-0.128-0.081-0.19-0.125
		c-0.048-0.033-0.095-0.067-0.146-0.096c-0.098-0.056-0.195-0.104-0.3-0.143c-0.021-0.008-0.044-0.013-0.066-0.02
		c-0.226-0.075-0.458-0.109-0.696-0.101c-0.017,0-0.032-0.003-0.049-0.002l-0.024,0.001c-0.053,0.004-0.104,0.001-0.157,0.01
		l-55.563,3.41c-9.217,0.034-16.704,7.482-16.704,16.633v105.149c0,9.164,7.414,16.624,16.546,16.672l86.058,7.329
		c0.057,0.005,0.113,0.007,0.17,0.007c9.338,0,17.227-7.635,17.227-16.672v-90.887
		C1027.56,138.04,1026.749,137.188,1025.722,137.104z M1023.56,229.975c0,6.843-6.011,12.628-13.145,12.672l-86.052-7.329
		c-0.057-0.005-0.113-0.007-0.17-0.007c-6.966,0-12.634-5.685-12.634-12.672V117.49c0-6.966,5.728-12.633,12.768-12.633
		c0.041,0,0.082-0.001,0.122-0.004l53.68-3.295l-0.017,37.529c0,0.531,0.21,1.04,0.586,1.415c0.375,0.375,0.884,0.586,1.414,0.586
		h43.447V229.975z"/>
	<path fill="#FFFFFF" d="M927.388,128.76c0.03,0,0.06,0,0.09-0.002l37.25-1.634c1.104-0.048,1.959-0.982,1.91-2.086
		c-0.049-1.104-0.985-1.972-2.086-1.91l-37.25,1.634c-1.104,0.048-1.959,0.982-1.91,2.086
		C925.438,127.921,926.324,128.76,927.388,128.76z"/>
	<path fill="#FFFFFF" d="M964.56,147.088h-37c-1.104,0-2,0.896-2,2s0.896,2,2,2h37c1.104,0,2-0.896,2-2
		S965.664,147.088,964.56,147.088z"/>
	<path fill="#FFFFFF" d="M925.391,172.01c-0.031,1.104,0.839,1.981,1.943,2.012l76.754,2.066c0.019,0,0.038,0,0.057,0
		c1.078,0,1.968-0.777,1.998-1.862c0.031-1.104-0.839-1.943-1.943-1.974l-76.754-2.163
		C926.358,170.065,925.422,170.907,925.391,172.01z"/>
	<path fill="#FFFFFF" d="M1004.264,199.166l-76.754-4.631c-1.106-0.074-2.051,0.773-2.116,1.876
		c-0.066,1.103,0.773,2.05,1.876,2.117l76.754,4.631c0.041,0.002,0.081,0.003,0.122,0.003c1.05,0,1.931-0.818,1.994-1.879
		C1006.206,200.181,1005.366,199.233,1004.264,199.166z"/>
	<path fill="#FFFFFF" d="M937.814,414.448c-0.427,0.49-44.193,48.875-179.348,35.818c-70.462-6.808-111.985-24.083-134.411-37.377
		c-24.22-14.356-31.942-27.26-32.018-27.389c-0.69-1.191-2.219-1.599-3.41-0.912c-1.196,0.689-1.607,2.219-0.918,3.414
		c0.323,0.562,8.201,13.904,33.31,28.898c22.882,13.666,65.218,31.41,136.967,38.342c16.199,1.566,31.078,2.246,44.713,2.246
		c46.774,0,78.854-8.006,98.913-15.734c28.373-10.931,39.515-23.496,39.976-24.025c0.906-1.042,0.796-2.621-0.246-3.527
		C940.301,413.297,938.721,413.406,937.814,414.448z"/>
</g>
</svg>
