<?xml version="1.0" encoding="utf-8"?>
<!-- Generator: Adobe Illustrator 16.0.0, SVG Export Plug-In . SVG Version: 6.00 Build 0)  -->
<!DOCTYPE svg PUBLIC "-//W3C//DTD SVG 1.1//EN" "http://www.w3.org/Graphics/SVG/1.1/DTD/svg11.dtd">
<svg version="1.1" id="view" xmlns="http://www.w3.org/2000/svg" xmlns:xlink="http://www.w3.org/1999/xlink" x="0px" y="0px"
	 width="100%" height="100%" viewBox="5.745 11.783 39.072 26.434" enable-background="new 5.745 11.783 39.072 26.434"
	 xml:space="preserve">
<path fill="#FFFFFF" d="M44.701,24.746c-0.059-0.13-6.09-12.963-19.831-12.963c-13.764,0-18.986,12.864-19.037,12.994L5.745,25
	l0.088,0.223c0.051,0.13,5.273,12.994,19.037,12.994c13.741,0,19.773-12.833,19.832-12.963L44.816,25L44.701,24.746z M24.92,34.385
	c-5.175,0-9.385-4.209-9.385-9.385c0-5.175,4.21-9.385,9.385-9.385c1.877,0,3.691,0.553,5.242,1.599L29.14,18.73
	c-1.249-0.841-2.708-1.287-4.22-1.287c-4.166,0-7.556,3.39-7.556,7.556c0,4.166,3.39,7.557,7.556,7.557
	c1.514,0,2.976-0.446,4.225-1.29l1.024,1.516C28.615,33.83,26.801,34.385,24.92,34.385z M24.932,31.049
	c-3.349,0-6.063-2.715-6.063-6.063c0-1.047,0.206-2.066,0.733-2.891l5.331,2.891l-1.819-5.786c0.575-0.18,1.186-0.278,1.819-0.278
	c3.349,0,6.064,2.715,6.064,6.064S28.28,31.049,24.932,31.049z"/>
</svg>
