<?xml version="1.0" encoding="utf-8"?>
<!-- Generator: Adobe Illustrator 16.0.0, SVG Export Plug-In . SVG Version: 6.00 Build 0)  -->
<!DOCTYPE svg PUBLIC "-//W3C//DTD SVG 1.1//EN" "http://www.w3.org/Graphics/SVG/1.1/DTD/svg11.dtd">
<svg version="1.1" id="Layer_11" xmlns="http://www.w3.org/2000/svg" xmlns:xlink="http://www.w3.org/1999/xlink" x="0px" y="0px"
	 width="100%" height="100%" viewBox="0 0 800 601" enable-background="new 0 0 800 601" xml:space="preserve">
<g>
	<g>
		<path fill="#FFFFFF" d="M744.184,575.174c-0.007-0.002-0.718-0.067-1.946-0.067c-6.551,0-30.45,1.908-43.452,25.894H800v-25.819
			L744.184,575.174z M797,598.021h-9l9-8.937V598.021z"/>
		<path fill="#FFFFFF" d="M0,575.181V601h101.215c-13.002-23.985-36.901-25.894-43.452-25.894c-1.229,0-1.939,0.065-1.946,0.067
			L0,575.181z M3,589.084l9,8.937H3V589.084z"/>
		<path fill="#FFFFFF" d="M598,534.467v52.631c0,3.29-2.687,5.958-6,5.958H206c-3.313,0-6-2.668-6-5.958v-52.631H0v37.735h58.604
			c0.24-0.021,0.998-0.075,2.158-0.075c7.106,0,31.151,2.114,44.821,28.873H400h294.416c13.67-26.759,37.715-28.873,44.821-28.873
			c1.16,0,1.918,0.055,2.158,0.075H800v-37.735H598z"/>
		<path fill="#FFFFFF" d="M530,582.132c0,2.194-1.791,3.973-4,3.973H272c-2.209,0-4-1.778-4-3.973l0,0c0-2.194,1.791-3.972,4-3.972
			h254C528.209,578.16,530,579.938,530,582.132L530,582.132z"/>
		<g>
			<path fill="#FFFFFF" d="M207.581,582.19c0-1.178,0.122-2.125,0.366-2.842s0.606-1.271,1.087-1.66
				c0.481-0.388,1.086-0.583,1.815-0.583c0.538,0,1.009,0.106,1.415,0.322c0.406,0.214,0.741,0.524,1.005,0.931
				c0.264,0.404,0.472,0.897,0.622,1.479c0.15,0.58,0.226,1.365,0.226,2.353c0,1.166-0.121,2.109-0.362,2.825
				c-0.242,0.719-0.603,1.273-1.083,1.664c-0.481,0.392-1.088,0.588-1.822,0.588c-0.966,0-1.725-0.345-2.276-1.033
				C207.912,585.408,207.581,584.058,207.581,582.19z M208.846,582.19c0,1.633,0.192,2.721,0.578,3.26
				c0.385,0.542,0.86,0.812,1.425,0.812s1.04-0.271,1.425-0.814c0.385-0.542,0.578-1.629,0.578-3.257
				c0-1.64-0.192-2.728-0.578-3.267s-0.865-0.808-1.439-0.808c-0.565,0-1.016,0.238-1.354,0.714
				C209.058,579.437,208.846,580.555,208.846,582.19z"/>
			<path fill="#FFFFFF" d="M215.367,582.19c0-1.178,0.122-2.125,0.366-2.842s0.606-1.271,1.087-1.66
				c0.481-0.388,1.086-0.583,1.815-0.583c0.538,0,1.009,0.106,1.415,0.322c0.406,0.214,0.741,0.524,1.005,0.931
				c0.264,0.404,0.472,0.897,0.622,1.479c0.15,0.58,0.226,1.365,0.226,2.353c0,1.166-0.121,2.109-0.362,2.825
				c-0.242,0.719-0.603,1.273-1.083,1.664c-0.481,0.392-1.088,0.588-1.822,0.588c-0.966,0-1.725-0.345-2.276-1.033
				C215.698,585.408,215.367,584.058,215.367,582.19z M216.632,582.19c0,1.633,0.192,2.721,0.578,3.26
				c0.385,0.542,0.86,0.812,1.425,0.812s1.04-0.271,1.425-0.814c0.385-0.542,0.578-1.629,0.578-3.257
				c0-1.64-0.192-2.728-0.578-3.267s-0.865-0.808-1.439-0.808c-0.565,0-1.016,0.238-1.354,0.714
				C216.844,579.437,216.632,580.555,216.632,582.19z"/>
			<path fill="#FFFFFF" d="M223.837,581.28v-1.392h1.401v1.392H223.837z M223.837,587.098v-1.392h1.401v1.392H223.837z"/>
			<path fill="#FFFFFF" d="M227.043,582.19c0-1.178,0.122-2.125,0.366-2.842s0.606-1.271,1.087-1.66
				c0.481-0.388,1.086-0.583,1.815-0.583c0.538,0,1.009,0.106,1.415,0.322c0.406,0.214,0.741,0.524,1.005,0.931
				c0.264,0.404,0.472,0.897,0.622,1.479c0.15,0.58,0.226,1.365,0.226,2.353c0,1.166-0.121,2.109-0.362,2.825
				c-0.242,0.719-0.603,1.273-1.083,1.664c-0.481,0.392-1.088,0.588-1.822,0.588c-0.966,0-1.725-0.345-2.276-1.033
				C227.374,585.408,227.043,584.058,227.043,582.19z M228.308,582.19c0,1.633,0.192,2.721,0.578,3.26
				c0.385,0.542,0.86,0.812,1.425,0.812s1.04-0.271,1.425-0.814c0.385-0.542,0.578-1.629,0.578-3.257
				c0-1.64-0.192-2.728-0.578-3.267s-0.865-0.808-1.439-0.808c-0.565,0-1.016,0.238-1.354,0.714
				C228.52,579.437,228.308,580.555,228.308,582.19z"/>
			<path fill="#FFFFFF" d="M234.829,582.19c0-1.178,0.122-2.125,0.366-2.842s0.606-1.271,1.087-1.66
				c0.481-0.388,1.086-0.583,1.815-0.583c0.538,0,1.009,0.106,1.415,0.322c0.406,0.214,0.741,0.524,1.005,0.931
				c0.264,0.404,0.472,0.897,0.622,1.479c0.15,0.58,0.226,1.365,0.226,2.353c0,1.166-0.121,2.109-0.362,2.825
				c-0.242,0.719-0.603,1.273-1.083,1.664c-0.481,0.392-1.088,0.588-1.822,0.588c-0.966,0-1.725-0.345-2.276-1.033
				C235.16,585.408,234.829,584.058,234.829,582.19z M236.094,582.19c0,1.633,0.192,2.721,0.578,3.26
				c0.385,0.542,0.86,0.812,1.425,0.812s1.04-0.271,1.425-0.814c0.385-0.542,0.578-1.629,0.578-3.257
				c0-1.64-0.192-2.728-0.578-3.267s-0.865-0.808-1.439-0.808c-0.565,0-1.016,0.238-1.354,0.714
				C236.306,579.437,236.094,580.555,236.094,582.19z"/>
			<path fill="#FFFFFF" d="M243.299,581.28v-1.392h1.401v1.392H243.299z M243.299,587.098v-1.392h1.401v1.392H243.299z"/>
			<path fill="#FFFFFF" d="M246.505,582.19c0-1.178,0.122-2.125,0.366-2.842s0.606-1.271,1.087-1.66
				c0.481-0.388,1.086-0.583,1.815-0.583c0.538,0,1.009,0.106,1.415,0.322c0.406,0.214,0.741,0.524,1.005,0.931
				c0.264,0.404,0.472,0.897,0.622,1.479c0.15,0.58,0.226,1.365,0.226,2.353c0,1.166-0.121,2.109-0.362,2.825
				c-0.242,0.719-0.603,1.273-1.083,1.664c-0.481,0.392-1.088,0.588-1.822,0.588c-0.966,0-1.725-0.345-2.276-1.033
				C246.835,585.408,246.505,584.058,246.505,582.19z M247.77,582.19c0,1.633,0.192,2.721,0.578,3.26
				c0.385,0.542,0.86,0.812,1.425,0.812s1.04-0.271,1.425-0.814c0.385-0.542,0.578-1.629,0.578-3.257
				c0-1.64-0.192-2.728-0.578-3.267s-0.865-0.808-1.439-0.808c-0.565,0-1.016,0.238-1.354,0.714
				C247.981,579.437,247.77,580.555,247.77,582.19z"/>
			<path fill="#FFFFFF" d="M254.291,582.19c0-1.178,0.122-2.125,0.366-2.842s0.606-1.271,1.087-1.66
				c0.481-0.388,1.086-0.583,1.815-0.583c0.538,0,1.009,0.106,1.415,0.322c0.406,0.214,0.741,0.524,1.005,0.931
				c0.264,0.404,0.472,0.897,0.622,1.479c0.15,0.58,0.226,1.365,0.226,2.353c0,1.166-0.121,2.109-0.362,2.825
				c-0.242,0.719-0.603,1.273-1.083,1.664c-0.481,0.392-1.088,0.588-1.822,0.588c-0.966,0-1.725-0.345-2.276-1.033
				C254.622,585.408,254.291,584.058,254.291,582.19z M255.556,582.19c0,1.633,0.192,2.721,0.578,3.26
				c0.385,0.542,0.86,0.812,1.425,0.812s1.04-0.271,1.425-0.814c0.385-0.542,0.578-1.629,0.578-3.257
				c0-1.64-0.192-2.728-0.578-3.267s-0.865-0.808-1.439-0.808c-0.565,0-1.016,0.238-1.354,0.714
				C255.768,579.437,255.556,580.555,255.556,582.19z"/>
		</g>
		<g>
			<path fill="#FFFFFF" d="M538.581,582.19c0-1.178,0.122-2.125,0.366-2.842c0.243-0.717,0.605-1.271,1.086-1.66
				c0.481-0.388,1.086-0.583,1.815-0.583c0.538,0,1.009,0.106,1.415,0.322c0.406,0.214,0.74,0.524,1.005,0.931
				c0.265,0.404,0.472,0.897,0.622,1.479c0.15,0.58,0.226,1.365,0.226,2.353c0,1.166-0.12,2.109-0.362,2.825
				c-0.242,0.719-0.603,1.273-1.084,1.664c-0.48,0.392-1.088,0.588-1.821,0.588c-0.966,0-1.726-0.345-2.276-1.033
				C538.912,585.408,538.581,584.058,538.581,582.19z M539.846,582.19c0,1.633,0.192,2.721,0.578,3.26
				c0.385,0.542,0.859,0.812,1.425,0.812s1.04-0.271,1.425-0.814c0.386-0.542,0.578-1.629,0.578-3.257
				c0-1.64-0.192-2.728-0.578-3.267c-0.385-0.539-0.864-0.808-1.438-0.808c-0.565,0-1.017,0.238-1.354,0.714
				C540.058,579.437,539.846,580.555,539.846,582.19z"/>
			<path fill="#FFFFFF" d="M546.367,582.19c0-1.178,0.122-2.125,0.365-2.842c0.244-0.717,0.606-1.271,1.088-1.66
				c0.48-0.388,1.086-0.583,1.814-0.583c0.537,0,1.01,0.106,1.415,0.322c0.405,0.214,0.741,0.524,1.005,0.931
				c0.264,0.404,0.472,0.897,0.622,1.479c0.15,0.58,0.226,1.365,0.226,2.353c0,1.166-0.121,2.109-0.362,2.825
				c-0.241,0.719-0.603,1.273-1.083,1.664c-0.481,0.392-1.088,0.588-1.822,0.588c-0.967,0-1.725-0.345-2.276-1.033
				C546.697,585.408,546.367,584.058,546.367,582.19z M547.632,582.19c0,1.633,0.192,2.721,0.577,3.26
				c0.386,0.542,0.861,0.812,1.426,0.812s1.04-0.271,1.426-0.814c0.385-0.542,0.577-1.629,0.577-3.257
				c0-1.64-0.192-2.728-0.577-3.267c-0.386-0.539-0.865-0.808-1.439-0.808c-0.564,0-1.016,0.238-1.354,0.714
				C547.844,579.437,547.632,580.555,547.632,582.19z"/>
			<path fill="#FFFFFF" d="M554.837,581.28v-1.392h1.401v1.392H554.837z M554.837,587.098v-1.392h1.401v1.392H554.837z"/>
			<path fill="#FFFFFF" d="M558.043,582.19c0-1.178,0.122-2.125,0.365-2.842c0.244-0.717,0.606-1.271,1.088-1.66
				c0.48-0.388,1.086-0.583,1.814-0.583c0.537,0,1.01,0.106,1.415,0.322c0.405,0.214,0.741,0.524,1.005,0.931
				c0.264,0.404,0.472,0.897,0.622,1.479c0.15,0.58,0.226,1.365,0.226,2.353c0,1.166-0.121,2.109-0.362,2.825
				c-0.241,0.719-0.603,1.273-1.083,1.664c-0.481,0.392-1.088,0.588-1.822,0.588c-0.967,0-1.725-0.345-2.276-1.033
				C558.373,585.408,558.043,584.058,558.043,582.19z M559.308,582.19c0,1.633,0.192,2.721,0.577,3.26
				c0.386,0.542,0.861,0.812,1.426,0.812s1.04-0.271,1.426-0.814c0.385-0.542,0.577-1.629,0.577-3.257
				c0-1.64-0.192-2.728-0.577-3.267c-0.386-0.539-0.865-0.808-1.439-0.808c-0.564,0-1.016,0.238-1.354,0.714
				C559.52,579.437,559.308,580.555,559.308,582.19z"/>
			<path fill="#FFFFFF" d="M565.829,582.19c0-1.178,0.122-2.125,0.366-2.842c0.243-0.717,0.605-1.271,1.086-1.66
				c0.481-0.388,1.086-0.583,1.815-0.583c0.538,0,1.009,0.106,1.415,0.322c0.406,0.214,0.74,0.524,1.005,0.931
				c0.265,0.404,0.472,0.897,0.622,1.479c0.15,0.58,0.226,1.365,0.226,2.353c0,1.166-0.12,2.109-0.362,2.825
				c-0.242,0.719-0.603,1.273-1.084,1.664c-0.48,0.392-1.088,0.588-1.821,0.588c-0.966,0-1.726-0.345-2.276-1.033
				C566.16,585.408,565.829,584.058,565.829,582.19z M567.094,582.19c0,1.633,0.192,2.721,0.578,3.26
				c0.385,0.542,0.859,0.812,1.425,0.812s1.04-0.271,1.425-0.814c0.386-0.542,0.578-1.629,0.578-3.257
				c0-1.64-0.192-2.728-0.578-3.267c-0.385-0.539-0.864-0.808-1.438-0.808c-0.565,0-1.017,0.238-1.354,0.714
				C567.306,579.437,567.094,580.555,567.094,582.19z"/>
			<path fill="#FFFFFF" d="M574.299,581.28v-1.392h1.401v1.392H574.299z M574.299,587.098v-1.392h1.401v1.392H574.299z"/>
			<path fill="#FFFFFF" d="M577.505,582.19c0-1.178,0.122-2.125,0.366-2.842c0.243-0.717,0.605-1.271,1.086-1.66
				c0.481-0.388,1.086-0.583,1.815-0.583c0.538,0,1.009,0.106,1.415,0.322c0.406,0.214,0.74,0.524,1.005,0.931
				c0.265,0.404,0.472,0.897,0.622,1.479c0.15,0.58,0.226,1.365,0.226,2.353c0,1.166-0.12,2.109-0.362,2.825
				c-0.242,0.719-0.603,1.273-1.084,1.664c-0.48,0.392-1.088,0.588-1.821,0.588c-0.966,0-1.726-0.345-2.276-1.033
				C577.836,585.408,577.505,584.058,577.505,582.19z M578.77,582.19c0,1.633,0.192,2.721,0.578,3.26
				c0.385,0.542,0.859,0.812,1.425,0.812s1.04-0.271,1.425-0.814c0.386-0.542,0.578-1.629,0.578-3.257
				c0-1.64-0.192-2.728-0.578-3.267c-0.385-0.539-0.864-0.808-1.438-0.808c-0.565,0-1.017,0.238-1.354,0.714
				C578.981,579.437,578.77,580.555,578.77,582.19z"/>
			<path fill="#FFFFFF" d="M585.291,582.19c0-1.178,0.122-2.125,0.365-2.842c0.244-0.717,0.606-1.271,1.088-1.66
				c0.48-0.388,1.086-0.583,1.814-0.583c0.537,0,1.01,0.106,1.415,0.322c0.405,0.214,0.741,0.524,1.005,0.931
				c0.264,0.404,0.472,0.897,0.622,1.479c0.15,0.58,0.226,1.365,0.226,2.353c0,1.166-0.121,2.109-0.362,2.825
				c-0.241,0.719-0.603,1.273-1.083,1.664c-0.481,0.392-1.088,0.588-1.822,0.588c-0.967,0-1.725-0.345-2.276-1.033
				C585.621,585.408,585.291,584.058,585.291,582.19z M586.556,582.19c0,1.633,0.192,2.721,0.577,3.26
				c0.386,0.542,0.861,0.812,1.426,0.812s1.04-0.271,1.426-0.814c0.385-0.542,0.577-1.629,0.577-3.257
				c0-1.64-0.192-2.728-0.577-3.267c-0.386-0.539-0.865-0.808-1.439-0.808c-0.564,0-1.016,0.238-1.354,0.714
				C586.768,579.437,586.556,580.555,586.556,582.19z"/>
		</g>
		<path fill="#FFFFFF" d="M464,537.445H335c-3.313,0-6,2.668-6,5.958v20.854c0,3.29,2.687,5.958,6,5.958h129
			c3.313,0,6-2.668,6-5.958v-20.854C470,540.113,467.313,537.445,464,537.445z M364,562.107l-9-8.668v8.668l-9-8.668v8.832h-2
			v-18.868h2v9.022l9-8.67v8.67l9-8.67V562.107z M392,563.763v-21.661l17.026,10.831L392,563.763z M455,562.271h-2v-8.832l-9,8.668
			v-8.668l-9,8.668v-18.352l9,8.67v-8.67l9,8.67v-9.022h2V562.271z"/>
		<g>
			<path fill="#FFFFFF" d="M564,544.396v15.889h23v-15.889H564z M585,558.299h-19v-11.916h19V558.299z"/>
			<rect x="569" y="549.362" fill="#FFFFFF" width="13" height="5.958"/>
		</g>
		<path fill="#FFFFFF" d="M313.75,548.368c2.619,0,4.75,2.117,4.75,4.718s-2.131,4.718-4.75,4.718s-4.75-2.117-4.75-4.718
			S311.131,548.368,313.75,548.368 M313.75,546.383c-3.728,0-6.75,3.001-6.75,6.703c0,3.701,3.022,6.703,6.75,6.703
			s6.75-3.002,6.75-6.703C320.5,549.384,317.478,546.383,313.75,546.383L313.75,546.383z"/>
		<ellipse fill="#FFFFFF" cx="213.375" cy="553.211" rx="5" ry="4.964"/>
		<path fill="#FFFFFF" d="M295.625,548.368h-66.25c-2.969,0-5.375,2.39-5.375,5.338v0.249c0,2.947,2.406,5.337,5.375,5.337h66.25
			c2.969,0,5.375-2.39,5.375-5.337v-0.249C301,550.758,298.594,548.368,295.625,548.368z M229.813,557.679
			c-2.243,0-4.063-1.807-4.063-4.034c0-2.229,1.819-4.034,4.063-4.034s4.063,1.806,4.063,4.034
			C233.875,555.872,232.056,557.679,229.813,557.679z"/>
		<g>
			<path fill="#FFFFFF" d="M506.709,547H496v-1.652l-4.404,2.524l4.404,2.525V548h10.709c2.326,0,4.291,2.078,4.291,4.5
				s-1.965,4.5-4.291,4.5H495v1h11.709c2.868,0,5.291-2.538,5.291-5.5S509.577,547,506.709,547z"/>
			<path fill="#FFFFFF" d="M523.584,552.5c0-2.422,1.965-4.5,4.291-4.5H538v2.397l4.404-2.525L538,545.348V547h-10.125
				c-2.868,0-5.291,2.538-5.291,5.5s2.423,5.5,5.291,5.5H540v-1h-12.125C525.549,557,523.584,554.922,523.584,552.5z"/>
		</g>
		<path fill="#FFFFFF" d="M792,83v440H8V83H792 M800,75H0v455h800V75L800,75z"/>
	</g>
	<path fill="#FFFFFF" d="M0,71V51h142.082c24.341,0,44.007,6.656,53.844,20H0z"/>
	<path fill="#FFFFFF" d="M800,71V51H657.918c-24.341,0-44.008,6.656-53.844,20H800z"/>
	<g>
		<path fill="#FFFFFF" d="M337.692,16.276l-3,8.725h-1.254l-3-8.725h1.242l2.414,7.242l2.414-7.242H337.692z"/>
		<path fill="#FFFFFF" d="M340.973,25.153c-1.043,0-1.853-0.294-2.429-0.882s-0.864-1.423-0.864-2.505
			c0-1.066,0.279-1.915,0.838-2.546s1.289-0.946,2.191-0.946c0.406,0,0.766,0.059,1.078,0.176s0.586,0.301,0.82,0.551
			s0.414,0.556,0.539,0.917s0.188,0.804,0.188,1.327v0.598h-4.535c0,0.762,0.191,1.344,0.574,1.746s0.912,0.604,1.588,0.604
			c0.242,0,0.479-0.027,0.712-0.082s0.442-0.125,0.63-0.211c0.199-0.09,0.367-0.177,0.504-0.261s0.25-0.163,0.34-0.237h0.064v1.201
			c-0.129,0.051-0.289,0.114-0.48,0.19s-0.363,0.136-0.516,0.179c-0.215,0.059-0.409,0.104-0.583,0.135
			S341.239,25.153,340.973,25.153z M342.262,20.999c-0.008-0.297-0.043-0.553-0.105-0.768s-0.152-0.396-0.27-0.545
			c-0.129-0.164-0.294-0.289-0.495-0.375s-0.45-0.129-0.747-0.129c-0.293,0-0.542,0.044-0.747,0.132s-0.392,0.216-0.56,0.384
			c-0.164,0.172-0.289,0.362-0.375,0.571s-0.141,0.452-0.164,0.729H342.262z"/>
		<path fill="#FFFFFF" d="M349.832,25h-1.102v-3.727c0-0.301-0.015-0.581-0.044-0.841s-0.085-0.468-0.167-0.624
			c-0.09-0.164-0.215-0.286-0.375-0.366s-0.379-0.12-0.656-0.12c-0.273,0-0.556,0.073-0.847,0.22s-0.575,0.337-0.853,0.571V25
			h-1.102v-6.545h1.102v0.727c0.328-0.293,0.652-0.518,0.973-0.674s0.658-0.234,1.014-0.234c0.645,0,1.148,0.212,1.512,0.636
			s0.545,1.038,0.545,1.843V25z"/>
		<path fill="#FFFFFF" d="M356.717,25h-1.102v-0.727c-0.34,0.297-0.662,0.522-0.967,0.677s-0.645,0.231-1.02,0.231
			c-0.285,0-0.554-0.047-0.806-0.141s-0.472-0.242-0.659-0.445s-0.333-0.459-0.437-0.768s-0.155-0.684-0.155-1.125v-4.248h1.102
			v3.727c0,0.348,0.013,0.636,0.038,0.864s0.083,0.429,0.173,0.601c0.09,0.168,0.212,0.291,0.366,0.369s0.376,0.117,0.665,0.117
			c0.27,0,0.557-0.076,0.861-0.229s0.584-0.34,0.838-0.563v-4.887h1.102V25z"/>
		<path fill="#FFFFFF" d="M363.636,25h-1.354l-1.588-2.473L359.06,25h-1.248l2.273-3.246l-2.25-3.299h1.354l1.576,2.449l1.617-2.449
			h1.254l-2.262,3.223L363.636,25z"/>
		<path fill="#FFFFFF" d="M376.286,25h-1.16v-7.518l-2.273,5.115h-0.703l-2.256-5.115V25h-1.084v-8.725h1.582l2.18,4.857
			l2.104-4.857h1.611V25z"/>
		<path fill="#FFFFFF" d="M383.306,25h-1.102v-0.727c-0.34,0.297-0.662,0.522-0.967,0.677s-0.645,0.231-1.02,0.231
			c-0.285,0-0.554-0.047-0.806-0.141s-0.472-0.242-0.659-0.445s-0.333-0.459-0.437-0.768s-0.155-0.684-0.155-1.125v-4.248h1.102
			v3.727c0,0.348,0.013,0.636,0.038,0.864s0.083,0.429,0.173,0.601c0.09,0.168,0.212,0.291,0.366,0.369s0.376,0.117,0.665,0.117
			c0.27,0,0.557-0.076,0.861-0.229s0.584-0.34,0.838-0.563v-4.887h1.102V25z"/>
		<path fill="#FFFFFF" d="M386.264,25h-1.102v-9.117h1.102V25z"/>
		<path fill="#FFFFFF" d="M390.125,25.129c-0.602,0-1.07-0.171-1.406-0.513s-0.504-0.882-0.504-1.62V19.37h-0.744v-0.914h0.744
			v-1.881h1.102v1.881h2.027v0.914h-2.027v3.111c0,0.332,0.006,0.588,0.018,0.768s0.057,0.348,0.135,0.504
			c0.066,0.137,0.174,0.239,0.322,0.308s0.35,0.103,0.604,0.103c0.18,0,0.354-0.026,0.521-0.079s0.289-0.097,0.363-0.132h0.064v0.99
			c-0.207,0.059-0.417,0.104-0.63,0.138S390.305,25.129,390.125,25.129z"/>
		<path fill="#FFFFFF" d="M393.6,17.36h-1.254v-1.143h1.254V17.36z M393.523,25h-1.102v-6.545h1.102V25z"/>
		<path fill="#FFFFFF" d="M402.811,25v-3.785c0-0.301-0.012-0.579-0.035-0.835s-0.072-0.456-0.146-0.601
			c-0.078-0.156-0.189-0.271-0.334-0.346s-0.34-0.111-0.586-0.111c-0.227,0-0.47,0.069-0.729,0.208s-0.528,0.339-0.806,0.601
			c0.004,0.066,0.009,0.146,0.015,0.237s0.009,0.2,0.009,0.325V25h-1.102v-3.785c0-0.301-0.012-0.579-0.035-0.835
			s-0.072-0.456-0.146-0.601c-0.078-0.156-0.189-0.271-0.334-0.346s-0.34-0.111-0.586-0.111c-0.238,0-0.488,0.074-0.75,0.223
			s-0.516,0.338-0.762,0.568V25h-1.102v-6.545h1.102v0.727c0.289-0.289,0.575-0.513,0.858-0.671s0.595-0.237,0.935-0.237
			c0.387,0,0.729,0.088,1.028,0.264s0.526,0.465,0.683,0.867c0.332-0.371,0.656-0.652,0.973-0.844s0.66-0.287,1.031-0.287
			c0.281,0,0.537,0.044,0.768,0.132s0.432,0.229,0.604,0.425c0.176,0.199,0.312,0.447,0.407,0.744s0.144,0.67,0.144,1.119V25
			H402.811z"/>
		<path fill="#FFFFFF" d="M408.541,25.153c-1.043,0-1.853-0.294-2.429-0.882s-0.864-1.423-0.864-2.505
			c0-1.066,0.279-1.915,0.838-2.546s1.289-0.946,2.191-0.946c0.406,0,0.766,0.059,1.078,0.176s0.586,0.301,0.82,0.551
			s0.414,0.556,0.539,0.917s0.188,0.804,0.188,1.327v0.598h-4.535c0,0.762,0.191,1.344,0.574,1.746s0.912,0.604,1.588,0.604
			c0.242,0,0.479-0.027,0.712-0.082s0.442-0.125,0.63-0.211c0.199-0.09,0.367-0.177,0.504-0.261s0.25-0.163,0.34-0.237h0.064v1.201
			c-0.129,0.051-0.289,0.114-0.48,0.19s-0.363,0.136-0.516,0.179c-0.215,0.059-0.409,0.104-0.583,0.135
			S408.806,25.153,408.541,25.153z M409.83,20.999c-0.008-0.297-0.043-0.553-0.105-0.768s-0.152-0.396-0.27-0.545
			c-0.129-0.164-0.294-0.289-0.495-0.375s-0.45-0.129-0.747-0.129c-0.293,0-0.542,0.044-0.747,0.132s-0.392,0.216-0.56,0.384
			c-0.164,0.172-0.289,0.362-0.375,0.571s-0.141,0.452-0.164,0.729H409.83z"/>
		<path fill="#FFFFFF" d="M417.294,25h-1.102v-0.668c-0.172,0.145-0.32,0.264-0.445,0.357s-0.271,0.18-0.439,0.258
			c-0.156,0.074-0.318,0.132-0.486,0.173s-0.363,0.062-0.586,0.062c-0.355,0-0.685-0.074-0.987-0.223s-0.56-0.365-0.771-0.65
			c-0.215-0.289-0.381-0.646-0.498-1.069s-0.176-0.911-0.176-1.462c0-0.574,0.074-1.071,0.223-1.491s0.354-0.786,0.615-1.099
			c0.238-0.285,0.526-0.509,0.864-0.671s0.692-0.243,1.063-0.243c0.328,0,0.613,0.036,0.855,0.108s0.498,0.185,0.768,0.337v-2.836
			h1.102V25z M416.193,23.407v-3.773c-0.273-0.133-0.519-0.225-0.735-0.275s-0.452-0.076-0.706-0.076
			c-0.566,0-1.01,0.212-1.33,0.636s-0.48,1.036-0.48,1.837c0,0.77,0.123,1.358,0.369,1.767s0.641,0.612,1.184,0.612
			c0.289,0,0.58-0.065,0.873-0.196S415.935,23.629,416.193,23.407z"/>
		<path fill="#FFFFFF" d="M420.329,17.36h-1.254v-1.143h1.254V17.36z M420.253,25h-1.102v-6.545h1.102V25z"/>
		<path fill="#FFFFFF" d="M425.767,24.303c-0.09,0.066-0.21,0.159-0.36,0.278s-0.296,0.214-0.437,0.284
			c-0.195,0.102-0.384,0.18-0.565,0.234s-0.437,0.082-0.765,0.082c-0.27,0-0.525-0.051-0.768-0.152s-0.455-0.244-0.639-0.428
			c-0.176-0.18-0.316-0.401-0.422-0.665s-0.158-0.542-0.158-0.835c0-0.453,0.096-0.839,0.287-1.157s0.494-0.571,0.908-0.759
			c0.367-0.168,0.801-0.284,1.301-0.349s1.039-0.112,1.617-0.144v-0.211c0-0.258-0.039-0.466-0.117-0.624s-0.188-0.28-0.328-0.366
			c-0.141-0.09-0.313-0.149-0.516-0.179s-0.412-0.044-0.627-0.044c-0.254,0-0.553,0.038-0.896,0.114s-0.688,0.187-1.031,0.331
			h-0.064v-1.119c0.203-0.059,0.494-0.123,0.873-0.193s0.754-0.105,1.125-0.105c0.449,0,0.828,0.035,1.137,0.105
			s0.586,0.197,0.832,0.381c0.238,0.18,0.416,0.412,0.533,0.697s0.176,0.633,0.176,1.043V25h-1.096V24.303z M425.767,23.389v-1.816
			c-0.262,0.023-0.593,0.056-0.993,0.097s-0.724,0.099-0.97,0.173c-0.293,0.09-0.535,0.228-0.727,0.413s-0.287,0.444-0.287,0.776
			c0,0.375,0.105,0.658,0.316,0.85s0.52,0.287,0.926,0.287c0.348,0,0.662-0.075,0.943-0.226S425.521,23.608,425.767,23.389z"/>
		<path fill="#FFFFFF" d="M432.727,25v-8.725h5.455v1.031h-4.295v2.391h4.002v1.031h-4.002v3.24h4.295V25H432.727z"/>
		<path fill="#FFFFFF" d="M444.756,25h-1.102v-3.727c0-0.301-0.015-0.581-0.044-0.841s-0.085-0.468-0.167-0.624
			c-0.09-0.164-0.215-0.286-0.375-0.366s-0.379-0.12-0.656-0.12c-0.273,0-0.556,0.073-0.847,0.22s-0.575,0.337-0.853,0.571V25
			h-1.102v-6.545h1.102v0.727c0.328-0.293,0.652-0.518,0.973-0.674s0.658-0.234,1.014-0.234c0.645,0,1.148,0.212,1.512,0.636
			s0.545,1.038,0.545,1.843V25z"/>
		<path fill="#FFFFFF" d="M446.777,26.049c0.074,0.031,0.184,0.073,0.328,0.126s0.309,0.103,0.492,0.149
			c0.203,0.051,0.391,0.092,0.563,0.123s0.359,0.047,0.563,0.047c0.34,0,0.628-0.045,0.864-0.135s0.421-0.215,0.554-0.375
			c0.125-0.16,0.213-0.346,0.264-0.557s0.076-0.451,0.076-0.721v-0.574c-0.297,0.258-0.588,0.448-0.873,0.571
			s-0.643,0.185-1.072,0.185c-0.746,0-1.34-0.277-1.781-0.832s-0.662-1.352-0.662-2.391c0-0.543,0.076-1.024,0.229-1.444
			s0.357-0.776,0.615-1.069c0.246-0.281,0.537-0.498,0.873-0.65s0.684-0.229,1.043-0.229c0.34,0,0.634,0.04,0.882,0.12
			s0.497,0.194,0.747,0.343l0.064-0.281h1.037v5.801c0,1.109-0.242,1.924-0.727,2.443s-1.225,0.779-2.221,0.779
			c-0.32,0-0.647-0.025-0.981-0.076s-0.646-0.119-0.935-0.205v-1.148H446.777z M450.48,23.225v-3.592
			c-0.273-0.133-0.526-0.228-0.759-0.284s-0.464-0.085-0.694-0.085c-0.559,0-0.998,0.205-1.318,0.615s-0.48,0.998-0.48,1.764
			c0,0.727,0.122,1.279,0.366,1.658s0.64,0.568,1.187,0.568c0.285,0,0.579-0.057,0.882-0.17S450.238,23.428,450.48,23.225z"/>
		<path fill="#FFFFFF" d="M454.617,17.36h-1.254v-1.143h1.254V17.36z M454.541,25h-1.102v-6.545h1.102V25z"/>
		<path fill="#FFFFFF" d="M461.543,25h-1.102v-3.727c0-0.301-0.016-0.581-0.045-0.841s-0.084-0.468-0.166-0.624
			c-0.09-0.164-0.215-0.286-0.375-0.366s-0.379-0.12-0.656-0.12c-0.273,0-0.557,0.073-0.848,0.22s-0.574,0.337-0.852,0.571V25
			h-1.102v-6.545h1.102v0.727c0.328-0.293,0.652-0.518,0.973-0.674s0.658-0.234,1.014-0.234c0.645,0,1.148,0.212,1.512,0.636
			s0.545,1.038,0.545,1.843V25z"/>
		<path fill="#FFFFFF" d="M466.171,25.153c-1.043,0-1.853-0.294-2.429-0.882s-0.864-1.423-0.864-2.505
			c0-1.066,0.279-1.915,0.838-2.546s1.289-0.946,2.191-0.946c0.406,0,0.766,0.059,1.078,0.176s0.586,0.301,0.82,0.551
			s0.414,0.556,0.539,0.917s0.188,0.804,0.188,1.327v0.598h-4.535c0,0.762,0.191,1.344,0.574,1.746s0.912,0.604,1.588,0.604
			c0.242,0,0.479-0.027,0.712-0.082s0.442-0.125,0.63-0.211c0.199-0.09,0.367-0.177,0.504-0.261s0.25-0.163,0.34-0.237h0.064v1.201
			c-0.129,0.051-0.289,0.114-0.48,0.19s-0.363,0.136-0.516,0.179c-0.215,0.059-0.409,0.104-0.583,0.135
			S466.437,25.153,466.171,25.153z M467.46,20.999c-0.008-0.297-0.043-0.553-0.105-0.768s-0.152-0.396-0.27-0.545
			c-0.129-0.164-0.294-0.289-0.495-0.375s-0.45-0.129-0.747-0.129c-0.293,0-0.542,0.044-0.747,0.132s-0.392,0.216-0.56,0.384
			c-0.164,0.172-0.289,0.362-0.375,0.571s-0.141,0.452-0.164,0.729H467.46z"/>
		<path fill="#FFFFFF" d="M287.239,39.582c-0.512,0-0.959-0.067-1.342-0.202s-0.709-0.335-0.979-0.601
			c-0.305-0.305-0.52-0.669-0.645-1.093s-0.188-0.946-0.188-1.567v-5.443h1.16v5.443c0,0.402,0.025,0.741,0.076,1.017
			s0.15,0.522,0.299,0.741c0.156,0.234,0.368,0.412,0.636,0.533s0.595,0.182,0.981,0.182c0.363,0,0.686-0.061,0.967-0.182
			s0.5-0.299,0.656-0.533c0.145-0.223,0.243-0.469,0.296-0.738s0.079-0.6,0.079-0.99v-5.473h1.16v5.443
			c0,0.605-0.062,1.125-0.185,1.559s-0.339,0.801-0.647,1.102c-0.277,0.27-0.601,0.471-0.97,0.604S287.774,39.582,287.239,39.582z"
			/>
		<path fill="#FFFFFF" d="M297.358,39.4h-1.102v-3.727c0-0.301-0.015-0.581-0.044-0.841s-0.085-0.468-0.167-0.624
			c-0.09-0.164-0.215-0.286-0.375-0.366s-0.379-0.12-0.656-0.12c-0.273,0-0.556,0.073-0.847,0.22s-0.575,0.337-0.853,0.571V39.4
			h-1.102v-6.545h1.102v0.727c0.328-0.293,0.652-0.518,0.973-0.674s0.658-0.234,1.014-0.234c0.645,0,1.148,0.212,1.512,0.636
			s0.545,1.038,0.545,1.843V39.4z"/>
		<path fill="#FFFFFF" d="M300.346,31.76h-1.254v-1.143h1.254V31.76z M300.27,39.4h-1.102v-6.545h1.102V39.4z"/>
		<path fill="#FFFFFF" d="M307.271,32.855l-2.467,6.545h-0.99l-2.449-6.545h1.189l1.793,5.051l1.775-5.051H307.271z"/>
		<path fill="#FFFFFF" d="M311.091,39.553c-1.043,0-1.853-0.294-2.429-0.882s-0.864-1.423-0.864-2.505
			c0-1.066,0.279-1.915,0.838-2.546s1.289-0.946,2.191-0.946c0.406,0,0.766,0.059,1.078,0.176s0.586,0.301,0.82,0.551
			s0.414,0.556,0.539,0.917s0.188,0.804,0.188,1.327v0.598h-4.535c0,0.762,0.191,1.344,0.574,1.746s0.912,0.604,1.588,0.604
			c0.242,0,0.479-0.027,0.712-0.082s0.442-0.125,0.63-0.211c0.199-0.09,0.367-0.177,0.504-0.261s0.25-0.163,0.34-0.237h0.064v1.201
			c-0.129,0.051-0.289,0.114-0.48,0.19s-0.363,0.136-0.516,0.179c-0.215,0.059-0.409,0.104-0.583,0.135
			S311.357,39.553,311.091,39.553z M312.38,35.398c-0.008-0.297-0.043-0.553-0.105-0.768s-0.152-0.396-0.27-0.545
			c-0.129-0.164-0.294-0.289-0.495-0.375s-0.45-0.129-0.747-0.129c-0.293,0-0.542,0.044-0.747,0.132s-0.392,0.216-0.56,0.384
			c-0.164,0.172-0.289,0.362-0.375,0.571s-0.141,0.452-0.164,0.729H312.38z"/>
		<path fill="#FFFFFF" d="M318.275,34.039h-0.059c-0.082-0.023-0.169-0.038-0.261-0.044s-0.202-0.009-0.331-0.009
			c-0.297,0-0.592,0.064-0.885,0.193s-0.57,0.32-0.832,0.574V39.4h-1.102v-6.545h1.102v0.973c0.402-0.355,0.753-0.606,1.052-0.753
			s0.589-0.22,0.87-0.22c0.113,0,0.198,0.003,0.255,0.009s0.12,0.015,0.19,0.026V34.039z"/>
		<path fill="#FFFFFF" d="M321.14,39.559c-0.438,0-0.847-0.059-1.228-0.176s-0.696-0.242-0.946-0.375v-1.236h0.059
			c0.094,0.074,0.204,0.156,0.331,0.246s0.296,0.184,0.507,0.281c0.188,0.086,0.394,0.162,0.618,0.229s0.458,0.1,0.7,0.1
			c0.176,0,0.363-0.021,0.563-0.062s0.348-0.093,0.445-0.155c0.137-0.09,0.235-0.186,0.296-0.287s0.091-0.254,0.091-0.457
			c0-0.262-0.071-0.459-0.214-0.592s-0.396-0.244-0.759-0.334c-0.141-0.035-0.324-0.076-0.551-0.123s-0.436-0.098-0.627-0.152
			c-0.5-0.145-0.863-0.368-1.09-0.671s-0.34-0.669-0.34-1.099c0-0.59,0.223-1.07,0.668-1.441s1.037-0.557,1.775-0.557
			c0.363,0,0.729,0.045,1.096,0.135s0.676,0.203,0.926,0.34v1.178h-0.059c-0.281-0.223-0.595-0.398-0.94-0.527
			s-0.694-0.193-1.046-0.193c-0.363,0-0.67,0.076-0.92,0.229s-0.375,0.383-0.375,0.691c0,0.273,0.074,0.478,0.223,0.612
			s0.387,0.245,0.715,0.331c0.164,0.043,0.347,0.085,0.548,0.126s0.413,0.089,0.636,0.144c0.484,0.121,0.849,0.322,1.093,0.604
			s0.366,0.664,0.366,1.148c0,0.281-0.056,0.548-0.167,0.8s-0.274,0.468-0.489,0.647c-0.234,0.195-0.499,0.344-0.794,0.445
			S321.585,39.559,321.14,39.559z"/>
		<path fill="#FFFFFF" d="M328.622,38.703c-0.09,0.066-0.21,0.159-0.36,0.278s-0.296,0.214-0.437,0.284
			c-0.195,0.102-0.384,0.18-0.565,0.234s-0.437,0.082-0.765,0.082c-0.27,0-0.525-0.051-0.768-0.152s-0.455-0.244-0.639-0.428
			c-0.176-0.18-0.316-0.401-0.422-0.665s-0.158-0.542-0.158-0.835c0-0.453,0.096-0.839,0.287-1.157s0.494-0.571,0.908-0.759
			c0.367-0.168,0.801-0.284,1.301-0.349s1.039-0.112,1.617-0.144v-0.211c0-0.258-0.039-0.466-0.117-0.624s-0.188-0.28-0.328-0.366
			c-0.141-0.09-0.313-0.149-0.516-0.179s-0.412-0.044-0.627-0.044c-0.254,0-0.553,0.038-0.896,0.114s-0.688,0.187-1.031,0.331
			h-0.064v-1.119c0.203-0.059,0.494-0.123,0.873-0.193s0.754-0.105,1.125-0.105c0.449,0,0.828,0.035,1.137,0.105
			s0.586,0.197,0.832,0.381c0.238,0.18,0.416,0.412,0.533,0.697s0.176,0.633,0.176,1.043V39.4h-1.096V38.703z M328.622,37.789
			v-1.816c-0.262,0.023-0.593,0.056-0.993,0.097s-0.724,0.099-0.97,0.173c-0.293,0.09-0.535,0.228-0.727,0.413
			s-0.287,0.444-0.287,0.776c0,0.375,0.105,0.658,0.316,0.85s0.52,0.287,0.926,0.287c0.348,0,0.662-0.075,0.943-0.226
			S328.376,38.008,328.622,37.789z"/>
		<path fill="#FFFFFF" d="M332.629,39.4h-1.102v-9.117h1.102V39.4z"/>
		<path fill="#FFFFFF" d="M346.041,39.4h-1.16v-7.518l-2.273,5.115h-0.703l-2.256-5.115V39.4h-1.084v-8.725h1.582l2.18,4.857
			l2.104-4.857h1.611V39.4z"/>
		<path fill="#FFFFFF" d="M353.061,39.4h-1.102v-0.727c-0.34,0.297-0.662,0.522-0.967,0.677s-0.645,0.231-1.02,0.231
			c-0.285,0-0.554-0.047-0.806-0.141s-0.472-0.242-0.659-0.445s-0.333-0.459-0.437-0.768s-0.155-0.684-0.155-1.125v-4.248h1.102
			v3.727c0,0.348,0.013,0.636,0.038,0.864s0.083,0.429,0.173,0.601c0.09,0.168,0.212,0.291,0.366,0.369s0.376,0.117,0.665,0.117
			c0.27,0,0.557-0.076,0.861-0.229s0.584-0.34,0.838-0.563v-4.887h1.102V39.4z"/>
		<path fill="#FFFFFF" d="M356.019,39.4h-1.102v-9.117h1.102V39.4z"/>
		<path fill="#FFFFFF" d="M359.88,39.529c-0.602,0-1.07-0.171-1.406-0.513s-0.504-0.882-0.504-1.62V33.77h-0.744v-0.914h0.744
			v-1.881h1.102v1.881h2.027v0.914h-2.027v3.111c0,0.332,0.006,0.588,0.018,0.768s0.057,0.348,0.135,0.504
			c0.066,0.137,0.174,0.239,0.322,0.308s0.35,0.103,0.604,0.103c0.18,0,0.354-0.026,0.521-0.079s0.289-0.097,0.363-0.132h0.064v0.99
			c-0.207,0.059-0.417,0.104-0.63,0.138S360.06,39.529,359.88,39.529z"/>
		<path fill="#FFFFFF" d="M363.354,31.76h-1.254v-1.143h1.254V31.76z M363.278,39.4h-1.102v-6.545h1.102V39.4z"/>
		<path fill="#FFFFFF" d="M372.565,39.4v-3.785c0-0.301-0.012-0.579-0.035-0.835s-0.072-0.456-0.146-0.601
			c-0.078-0.156-0.189-0.271-0.334-0.346s-0.34-0.111-0.586-0.111c-0.227,0-0.47,0.069-0.729,0.208s-0.528,0.339-0.806,0.601
			c0.004,0.066,0.009,0.146,0.015,0.237s0.009,0.2,0.009,0.325V39.4h-1.102v-3.785c0-0.301-0.012-0.579-0.035-0.835
			s-0.072-0.456-0.146-0.601c-0.078-0.156-0.189-0.271-0.334-0.346s-0.34-0.111-0.586-0.111c-0.238,0-0.488,0.074-0.75,0.223
			s-0.516,0.338-0.762,0.568V39.4h-1.102v-6.545h1.102v0.727c0.289-0.289,0.575-0.513,0.858-0.671s0.595-0.237,0.935-0.237
			c0.387,0,0.729,0.088,1.028,0.264s0.526,0.465,0.683,0.867c0.332-0.371,0.656-0.652,0.973-0.844s0.66-0.287,1.031-0.287
			c0.281,0,0.537,0.044,0.768,0.132s0.432,0.229,0.604,0.425c0.176,0.199,0.312,0.447,0.407,0.744s0.144,0.67,0.144,1.119V39.4
			H372.565z"/>
		<path fill="#FFFFFF" d="M378.295,39.553c-1.043,0-1.853-0.294-2.429-0.882s-0.864-1.423-0.864-2.505
			c0-1.066,0.279-1.915,0.838-2.546s1.289-0.946,2.191-0.946c0.406,0,0.766,0.059,1.078,0.176s0.586,0.301,0.82,0.551
			s0.414,0.556,0.539,0.917s0.188,0.804,0.188,1.327v0.598h-4.535c0,0.762,0.191,1.344,0.574,1.746s0.912,0.604,1.588,0.604
			c0.242,0,0.479-0.027,0.712-0.082s0.442-0.125,0.63-0.211c0.199-0.09,0.367-0.177,0.504-0.261s0.25-0.163,0.34-0.237h0.064v1.201
			c-0.129,0.051-0.289,0.114-0.48,0.19s-0.363,0.136-0.516,0.179c-0.215,0.059-0.409,0.104-0.583,0.135
			S378.561,39.553,378.295,39.553z M379.584,35.398c-0.008-0.297-0.043-0.553-0.105-0.768s-0.152-0.396-0.27-0.545
			c-0.129-0.164-0.294-0.289-0.495-0.375s-0.45-0.129-0.747-0.129c-0.293,0-0.542,0.044-0.747,0.132s-0.392,0.216-0.56,0.384
			c-0.164,0.172-0.289,0.362-0.375,0.571s-0.141,0.452-0.164,0.729H379.584z"/>
		<path fill="#FFFFFF" d="M387.049,39.4h-1.102v-0.668c-0.172,0.145-0.32,0.264-0.445,0.357s-0.271,0.18-0.439,0.258
			c-0.156,0.074-0.318,0.132-0.486,0.173s-0.363,0.062-0.586,0.062c-0.355,0-0.685-0.074-0.987-0.223s-0.56-0.365-0.771-0.65
			c-0.215-0.289-0.381-0.646-0.498-1.069s-0.176-0.911-0.176-1.462c0-0.574,0.074-1.071,0.223-1.491s0.354-0.786,0.615-1.099
			c0.238-0.285,0.526-0.509,0.864-0.671s0.692-0.243,1.063-0.243c0.328,0,0.613,0.036,0.855,0.108s0.498,0.185,0.768,0.337v-2.836
			h1.102V39.4z M385.948,37.807v-3.773c-0.273-0.133-0.519-0.225-0.735-0.275s-0.452-0.076-0.706-0.076
			c-0.566,0-1.01,0.212-1.33,0.636s-0.48,1.036-0.48,1.837c0,0.77,0.123,1.358,0.369,1.767s0.641,0.612,1.184,0.612
			c0.289,0,0.58-0.065,0.873-0.196S385.69,38.029,385.948,37.807z"/>
		<path fill="#FFFFFF" d="M390.084,31.76h-1.254v-1.143h1.254V31.76z M390.008,39.4h-1.102v-6.545h1.102V39.4z"/>
		<path fill="#FFFFFF" d="M395.521,38.703c-0.09,0.066-0.21,0.159-0.36,0.278s-0.296,0.214-0.437,0.284
			c-0.195,0.102-0.384,0.18-0.565,0.234s-0.437,0.082-0.765,0.082c-0.27,0-0.525-0.051-0.768-0.152s-0.455-0.244-0.639-0.428
			c-0.176-0.18-0.316-0.401-0.422-0.665s-0.158-0.542-0.158-0.835c0-0.453,0.096-0.839,0.287-1.157s0.494-0.571,0.908-0.759
			c0.367-0.168,0.801-0.284,1.301-0.349s1.039-0.112,1.617-0.144v-0.211c0-0.258-0.039-0.466-0.117-0.624s-0.188-0.28-0.328-0.366
			c-0.141-0.09-0.313-0.149-0.516-0.179s-0.412-0.044-0.627-0.044c-0.254,0-0.553,0.038-0.896,0.114s-0.688,0.187-1.031,0.331
			h-0.064v-1.119c0.203-0.059,0.494-0.123,0.873-0.193s0.754-0.105,1.125-0.105c0.449,0,0.828,0.035,1.137,0.105
			s0.586,0.197,0.832,0.381c0.238,0.18,0.416,0.412,0.533,0.697s0.176,0.633,0.176,1.043V39.4h-1.096V38.703z M395.521,37.789
			v-1.816c-0.262,0.023-0.593,0.056-0.993,0.097s-0.724,0.099-0.97,0.173c-0.293,0.09-0.535,0.228-0.727,0.413
			s-0.287,0.444-0.287,0.776c0,0.375,0.105,0.658,0.316,0.85s0.52,0.287,0.926,0.287c0.348,0,0.662-0.075,0.943-0.226
			S395.275,38.008,395.521,37.789z"/>
		<path fill="#FFFFFF" d="M409.958,39.4h-1.16v-7.518l-2.273,5.115h-0.703l-2.256-5.115V39.4h-1.084v-8.725h1.582l2.18,4.857
			l2.104-4.857h1.611V39.4z"/>
		<path fill="#FFFFFF" d="M415.536,38.703c-0.09,0.066-0.21,0.159-0.36,0.278s-0.296,0.214-0.437,0.284
			c-0.195,0.102-0.384,0.18-0.565,0.234s-0.437,0.082-0.765,0.082c-0.27,0-0.525-0.051-0.768-0.152s-0.455-0.244-0.639-0.428
			c-0.176-0.18-0.316-0.401-0.422-0.665s-0.158-0.542-0.158-0.835c0-0.453,0.096-0.839,0.287-1.157s0.494-0.571,0.908-0.759
			c0.367-0.168,0.801-0.284,1.301-0.349s1.039-0.112,1.617-0.144v-0.211c0-0.258-0.039-0.466-0.117-0.624s-0.188-0.28-0.328-0.366
			c-0.141-0.09-0.313-0.149-0.516-0.179s-0.412-0.044-0.627-0.044c-0.254,0-0.553,0.038-0.896,0.114s-0.688,0.187-1.031,0.331
			h-0.064v-1.119c0.203-0.059,0.494-0.123,0.873-0.193s0.754-0.105,1.125-0.105c0.449,0,0.828,0.035,1.137,0.105
			s0.586,0.197,0.832,0.381c0.238,0.18,0.416,0.412,0.533,0.697s0.176,0.633,0.176,1.043V39.4h-1.096V38.703z M415.536,37.789
			v-1.816c-0.262,0.023-0.593,0.056-0.993,0.097s-0.724,0.099-0.97,0.173c-0.293,0.09-0.535,0.228-0.727,0.413
			s-0.287,0.444-0.287,0.776c0,0.375,0.105,0.658,0.316,0.85s0.52,0.287,0.926,0.287c0.348,0,0.662-0.075,0.943-0.226
			S415.29,38.008,415.536,37.789z"/>
		<path fill="#FFFFFF" d="M423.563,39.4h-1.102v-3.727c0-0.301-0.015-0.581-0.044-0.841s-0.085-0.468-0.167-0.624
			c-0.09-0.164-0.215-0.286-0.375-0.366s-0.379-0.12-0.656-0.12c-0.273,0-0.556,0.073-0.847,0.22s-0.575,0.337-0.853,0.571V39.4
			h-1.102v-6.545h1.102v0.727c0.328-0.293,0.652-0.518,0.973-0.674s0.658-0.234,1.014-0.234c0.645,0,1.148,0.212,1.512,0.636
			s0.545,1.038,0.545,1.843V39.4z"/>
		<path fill="#FFFFFF" d="M429.006,38.703c-0.09,0.066-0.21,0.159-0.36,0.278s-0.296,0.214-0.437,0.284
			c-0.195,0.102-0.384,0.18-0.565,0.234s-0.437,0.082-0.765,0.082c-0.27,0-0.525-0.051-0.768-0.152s-0.455-0.244-0.639-0.428
			c-0.176-0.18-0.316-0.401-0.422-0.665s-0.158-0.542-0.158-0.835c0-0.453,0.096-0.839,0.287-1.157s0.494-0.571,0.908-0.759
			c0.367-0.168,0.801-0.284,1.301-0.349s1.039-0.112,1.617-0.144v-0.211c0-0.258-0.039-0.466-0.117-0.624s-0.188-0.28-0.328-0.366
			c-0.141-0.09-0.313-0.149-0.516-0.179s-0.412-0.044-0.627-0.044c-0.254,0-0.553,0.038-0.896,0.114s-0.688,0.187-1.031,0.331
			h-0.064v-1.119c0.203-0.059,0.494-0.123,0.873-0.193s0.754-0.105,1.125-0.105c0.449,0,0.828,0.035,1.137,0.105
			s0.586,0.197,0.832,0.381c0.238,0.18,0.416,0.412,0.533,0.697s0.176,0.633,0.176,1.043V39.4h-1.096V38.703z M429.006,37.789
			v-1.816c-0.262,0.023-0.593,0.056-0.993,0.097s-0.724,0.099-0.97,0.173c-0.293,0.09-0.535,0.228-0.727,0.413
			s-0.287,0.444-0.287,0.776c0,0.375,0.105,0.658,0.316,0.85s0.52,0.287,0.926,0.287c0.348,0,0.662-0.075,0.943-0.226
			S428.76,38.008,429.006,37.789z"/>
		<path fill="#FFFFFF" d="M432.124,40.449c0.074,0.031,0.184,0.073,0.328,0.126s0.309,0.103,0.492,0.149
			c0.203,0.051,0.391,0.092,0.563,0.123s0.359,0.047,0.563,0.047c0.34,0,0.628-0.045,0.864-0.135s0.421-0.215,0.554-0.375
			c0.125-0.16,0.213-0.346,0.264-0.557s0.076-0.451,0.076-0.721v-0.574c-0.297,0.258-0.588,0.448-0.873,0.571
			s-0.643,0.185-1.072,0.185c-0.746,0-1.34-0.277-1.781-0.832s-0.662-1.352-0.662-2.391c0-0.543,0.076-1.024,0.229-1.444
			s0.357-0.776,0.615-1.069c0.246-0.281,0.537-0.498,0.873-0.65s0.684-0.229,1.043-0.229c0.34,0,0.634,0.04,0.882,0.12
			s0.497,0.194,0.747,0.343l0.064-0.281h1.037v5.801c0,1.109-0.242,1.924-0.727,2.443s-1.225,0.779-2.221,0.779
			c-0.32,0-0.647-0.025-0.981-0.076s-0.646-0.119-0.935-0.205v-1.148H432.124z M435.827,37.625v-3.592
			c-0.273-0.133-0.526-0.228-0.759-0.284s-0.464-0.085-0.694-0.085c-0.559,0-0.998,0.205-1.318,0.615s-0.48,0.998-0.48,1.764
			c0,0.727,0.122,1.279,0.366,1.658s0.64,0.568,1.187,0.568c0.285,0,0.579-0.057,0.882-0.17S435.584,37.828,435.827,37.625z"/>
		<path fill="#FFFFFF" d="M441.604,39.553c-1.043,0-1.853-0.294-2.429-0.882s-0.864-1.423-0.864-2.505
			c0-1.066,0.279-1.915,0.838-2.546s1.289-0.946,2.191-0.946c0.406,0,0.766,0.059,1.078,0.176s0.586,0.301,0.82,0.551
			s0.414,0.556,0.539,0.917s0.188,0.804,0.188,1.327v0.598h-4.535c0,0.762,0.191,1.344,0.574,1.746s0.912,0.604,1.588,0.604
			c0.242,0,0.479-0.027,0.712-0.082s0.442-0.125,0.63-0.211c0.199-0.09,0.367-0.177,0.504-0.261s0.25-0.163,0.34-0.237h0.064v1.201
			c-0.129,0.051-0.289,0.114-0.48,0.19s-0.363,0.136-0.516,0.179c-0.215,0.059-0.409,0.104-0.583,0.135
			S441.87,39.553,441.604,39.553z M442.893,35.398c-0.008-0.297-0.043-0.553-0.105-0.768s-0.152-0.396-0.27-0.545
			c-0.129-0.164-0.294-0.289-0.495-0.375s-0.45-0.129-0.747-0.129c-0.293,0-0.542,0.044-0.747,0.132s-0.392,0.216-0.56,0.384
			c-0.164,0.172-0.289,0.362-0.375,0.571s-0.141,0.452-0.164,0.729H442.893z"/>
		<path fill="#FFFFFF" d="M452.748,39.4v-3.785c0-0.301-0.012-0.579-0.035-0.835s-0.072-0.456-0.146-0.601
			c-0.078-0.156-0.189-0.271-0.334-0.346s-0.34-0.111-0.586-0.111c-0.227,0-0.47,0.069-0.729,0.208s-0.528,0.339-0.806,0.601
			c0.004,0.066,0.009,0.146,0.015,0.237s0.009,0.2,0.009,0.325V39.4h-1.102v-3.785c0-0.301-0.012-0.579-0.035-0.835
			s-0.072-0.456-0.146-0.601c-0.078-0.156-0.189-0.271-0.334-0.346s-0.34-0.111-0.586-0.111c-0.238,0-0.488,0.074-0.75,0.223
			s-0.516,0.338-0.762,0.568V39.4h-1.102v-6.545h1.102v0.727c0.289-0.289,0.575-0.513,0.858-0.671s0.595-0.237,0.935-0.237
			c0.387,0,0.729,0.088,1.028,0.264s0.526,0.465,0.683,0.867c0.332-0.371,0.656-0.652,0.973-0.844s0.66-0.287,1.031-0.287
			c0.281,0,0.537,0.044,0.768,0.132s0.432,0.229,0.604,0.425c0.176,0.199,0.312,0.447,0.407,0.744s0.144,0.67,0.144,1.119V39.4
			H452.748z"/>
		<path fill="#FFFFFF" d="M458.479,39.553c-1.043,0-1.853-0.294-2.429-0.882s-0.864-1.423-0.864-2.505
			c0-1.066,0.279-1.915,0.838-2.546s1.289-0.946,2.191-0.946c0.406,0,0.766,0.059,1.078,0.176s0.586,0.301,0.82,0.551
			s0.414,0.556,0.539,0.917s0.188,0.804,0.188,1.327v0.598h-4.535c0,0.762,0.191,1.344,0.574,1.746s0.912,0.604,1.588,0.604
			c0.242,0,0.479-0.027,0.712-0.082s0.442-0.125,0.63-0.211c0.199-0.09,0.367-0.177,0.504-0.261s0.25-0.163,0.34-0.237h0.064v1.201
			c-0.129,0.051-0.289,0.114-0.48,0.19s-0.363,0.136-0.516,0.179c-0.215,0.059-0.409,0.104-0.583,0.135
			S458.744,39.553,458.479,39.553z M459.768,35.398c-0.008-0.297-0.043-0.553-0.105-0.768s-0.152-0.396-0.27-0.545
			c-0.129-0.164-0.294-0.289-0.495-0.375s-0.45-0.129-0.747-0.129c-0.293,0-0.542,0.044-0.747,0.132s-0.392,0.216-0.56,0.384
			c-0.164,0.172-0.289,0.362-0.375,0.571s-0.141,0.452-0.164,0.729H459.768z"/>
		<path fill="#FFFFFF" d="M467.338,39.4h-1.102v-3.727c0-0.301-0.016-0.581-0.045-0.841s-0.084-0.468-0.166-0.624
			c-0.09-0.164-0.215-0.286-0.375-0.366s-0.379-0.12-0.656-0.12c-0.273,0-0.557,0.073-0.848,0.22s-0.574,0.337-0.852,0.571V39.4
			h-1.102v-6.545h1.102v0.727c0.328-0.293,0.652-0.518,0.973-0.674s0.658-0.234,1.014-0.234c0.645,0,1.148,0.212,1.512,0.636
			s0.545,1.038,0.545,1.843V39.4z"/>
		<path fill="#FFFFFF" d="M471.105,39.529c-0.602,0-1.07-0.171-1.406-0.513s-0.504-0.882-0.504-1.62V33.77h-0.744v-0.914h0.744
			v-1.881h1.102v1.881h2.027v0.914h-2.027v3.111c0,0.332,0.006,0.588,0.018,0.768s0.057,0.348,0.135,0.504
			c0.066,0.137,0.174,0.239,0.322,0.308s0.35,0.103,0.604,0.103c0.18,0,0.354-0.026,0.521-0.079s0.289-0.097,0.363-0.132h0.064v0.99
			c-0.207,0.059-0.418,0.104-0.631,0.138S471.285,39.529,471.105,39.529z"/>
		<path fill="#FFFFFF" d="M479.888,39.559c-0.633,0-1.171-0.065-1.614-0.196s-0.86-0.292-1.251-0.483v-1.453h0.082
			c0.383,0.359,0.816,0.638,1.301,0.835s0.951,0.296,1.4,0.296c0.641,0,1.125-0.134,1.453-0.401s0.492-0.62,0.492-1.058
			c0-0.348-0.086-0.631-0.258-0.85s-0.445-0.381-0.82-0.486c-0.27-0.078-0.516-0.143-0.738-0.193s-0.502-0.119-0.838-0.205
			c-0.301-0.078-0.57-0.178-0.809-0.299s-0.449-0.279-0.633-0.475c-0.18-0.191-0.319-0.417-0.419-0.677s-0.149-0.56-0.149-0.899
			c0-0.707,0.275-1.3,0.826-1.778s1.254-0.718,2.109-0.718c0.488,0,0.95,0.049,1.386,0.146s0.839,0.236,1.21,0.416v1.389h-0.088
			c-0.277-0.254-0.633-0.476-1.066-0.665s-0.889-0.284-1.365-0.284c-0.539,0-0.975,0.126-1.307,0.378s-0.498,0.583-0.498,0.993
			c0,0.371,0.098,0.666,0.293,0.885s0.479,0.379,0.85,0.48c0.246,0.066,0.547,0.142,0.902,0.226s0.65,0.161,0.885,0.231
			c0.602,0.184,1.041,0.461,1.318,0.832s0.416,0.828,0.416,1.371c0,0.34-0.069,0.676-0.208,1.008s-0.333,0.613-0.583,0.844
			c-0.281,0.254-0.599,0.449-0.952,0.586S480.419,39.559,479.888,39.559z"/>
		<path fill="#FFFFFF" d="M489.268,32.855l-3.521,8.959h-1.178l1.172-2.73l-2.379-6.229h1.189l1.787,4.846l1.781-4.846H489.268z"/>
		<path fill="#FFFFFF" d="M492.109,39.559c-0.438,0-0.846-0.059-1.227-0.176s-0.697-0.242-0.947-0.375v-1.236h0.059
			c0.094,0.074,0.205,0.156,0.332,0.246s0.295,0.184,0.506,0.281c0.188,0.086,0.395,0.162,0.619,0.229s0.457,0.1,0.699,0.1
			c0.176,0,0.363-0.021,0.563-0.062s0.348-0.093,0.445-0.155c0.137-0.09,0.236-0.186,0.297-0.287s0.09-0.254,0.09-0.457
			c0-0.262-0.07-0.459-0.213-0.592s-0.396-0.244-0.76-0.334c-0.141-0.035-0.324-0.076-0.551-0.123s-0.436-0.098-0.627-0.152
			c-0.5-0.145-0.863-0.368-1.09-0.671s-0.34-0.669-0.34-1.099c0-0.59,0.223-1.07,0.668-1.441s1.037-0.557,1.775-0.557
			c0.363,0,0.729,0.045,1.096,0.135s0.676,0.203,0.926,0.34v1.178h-0.059c-0.281-0.223-0.594-0.398-0.939-0.527
			s-0.695-0.193-1.047-0.193c-0.363,0-0.67,0.076-0.92,0.229s-0.375,0.383-0.375,0.691c0,0.273,0.074,0.478,0.223,0.612
			s0.387,0.245,0.715,0.331c0.164,0.043,0.348,0.085,0.549,0.126s0.412,0.089,0.635,0.144c0.484,0.121,0.85,0.322,1.094,0.604
			s0.365,0.664,0.365,1.148c0,0.281-0.055,0.548-0.166,0.8s-0.275,0.468-0.49,0.647c-0.234,0.195-0.498,0.344-0.793,0.445
			S492.555,39.559,492.109,39.559z"/>
		<path fill="#FFFFFF" d="M497.916,39.529c-0.602,0-1.07-0.171-1.406-0.513s-0.504-0.882-0.504-1.62V33.77h-0.744v-0.914h0.744
			v-1.881h1.102v1.881h2.027v0.914h-2.027v3.111c0,0.332,0.006,0.588,0.018,0.768s0.057,0.348,0.135,0.504
			c0.066,0.137,0.174,0.239,0.322,0.308s0.35,0.103,0.604,0.103c0.18,0,0.354-0.026,0.521-0.079s0.289-0.097,0.363-0.132h0.064v0.99
			c-0.207,0.059-0.417,0.104-0.63,0.138S498.096,39.529,497.916,39.529z"/>
		<path fill="#FFFFFF" d="M503.031,39.553c-1.043,0-1.853-0.294-2.429-0.882s-0.864-1.423-0.864-2.505
			c0-1.066,0.279-1.915,0.838-2.546s1.289-0.946,2.191-0.946c0.406,0,0.766,0.059,1.078,0.176s0.586,0.301,0.82,0.551
			s0.414,0.556,0.539,0.917s0.188,0.804,0.188,1.327v0.598h-4.535c0,0.762,0.191,1.344,0.574,1.746s0.912,0.604,1.588,0.604
			c0.242,0,0.479-0.027,0.712-0.082s0.442-0.125,0.63-0.211c0.199-0.09,0.367-0.177,0.504-0.261s0.25-0.163,0.34-0.237h0.064v1.201
			c-0.129,0.051-0.289,0.114-0.48,0.19s-0.363,0.136-0.516,0.179c-0.215,0.059-0.409,0.104-0.583,0.135
			S503.297,39.553,503.031,39.553z M504.32,35.398c-0.008-0.297-0.043-0.553-0.105-0.768s-0.152-0.396-0.27-0.545
			c-0.129-0.164-0.294-0.289-0.495-0.375s-0.45-0.129-0.747-0.129c-0.293,0-0.542,0.044-0.747,0.132s-0.392,0.216-0.56,0.384
			c-0.164,0.172-0.289,0.362-0.375,0.571s-0.141,0.452-0.164,0.729H504.32z"/>
		<path fill="#FFFFFF" d="M514.176,39.4v-3.785c0-0.301-0.012-0.579-0.035-0.835s-0.072-0.456-0.146-0.601
			c-0.078-0.156-0.189-0.271-0.334-0.346s-0.34-0.111-0.586-0.111c-0.227,0-0.471,0.069-0.73,0.208s-0.527,0.339-0.805,0.601
			c0.004,0.066,0.008,0.146,0.014,0.237s0.01,0.2,0.01,0.325V39.4h-1.102v-3.785c0-0.301-0.012-0.579-0.035-0.835
			s-0.072-0.456-0.146-0.601c-0.078-0.156-0.189-0.271-0.334-0.346s-0.34-0.111-0.586-0.111c-0.238,0-0.488,0.074-0.75,0.223
			s-0.516,0.338-0.762,0.568V39.4h-1.102v-6.545h1.102v0.727c0.289-0.289,0.574-0.513,0.857-0.671s0.596-0.237,0.936-0.237
			c0.387,0,0.729,0.088,1.027,0.264s0.527,0.465,0.684,0.867c0.332-0.371,0.656-0.652,0.973-0.844s0.66-0.287,1.031-0.287
			c0.281,0,0.537,0.044,0.768,0.132s0.432,0.229,0.604,0.425c0.176,0.199,0.311,0.447,0.406,0.744s0.145,0.67,0.145,1.119V39.4
			H514.176z"/>
	</g>
	<path fill="#FFFFFF" d="M754.251,8.75c-3.359,0-6.083,2.724-6.083,6.083s2.724,6.083,6.083,6.083s6.083-2.724,6.083-6.083
		S757.61,8.75,754.251,8.75z M754.251,18.917c-2.251,0-4.083-1.832-4.083-4.083s1.832-4.083,4.083-4.083s4.083,1.832,4.083,4.083
		S756.502,18.917,754.251,18.917z"/>
	<path fill="#FFFFFF" d="M769.251,8.75c-3.359,0-6.083,2.724-6.083,6.083s2.724,6.083,6.083,6.083s6.083-2.724,6.083-6.083
		S772.61,8.75,769.251,8.75z M769.251,18.917c-2.251,0-4.083-1.832-4.083-4.083s1.832-4.083,4.083-4.083s4.083,1.832,4.083,4.083
		S771.502,18.917,769.251,18.917z"/>
	<path fill="#FFFFFF" d="M739.251,8.75c-3.359,0-6.083,2.724-6.083,6.083s2.724,6.083,6.083,6.083s6.083-2.724,6.083-6.083
		S742.61,8.75,739.251,8.75z M739.251,18.917c-2.251,0-4.083-1.832-4.083-4.083s1.832-4.083,4.083-4.083s4.083,1.832,4.083,4.083
		S741.502,18.917,739.251,18.917z"/>
	<path fill="#FFFFFF" d="M784.251,8.75c-3.359,0-6.083,2.724-6.083,6.083s2.724,6.083,6.083,6.083s6.083-2.724,6.083-6.083
		S787.61,8.75,784.251,8.75z M784.251,18.917c-2.251,0-4.083-1.832-4.083-4.083s1.832-4.083,4.083-4.083s4.083,1.832,4.083,4.083
		S786.502,18.917,784.251,18.917z"/>
	<path fill="#FFFFFF" d="M35.463,27.729l0.335-0.142l0.917-0.45l1.364-0.794l1.677-1.175l1.552-1.306l1.065-1.044l1.139-1.281
		l1.249-1.664l1.1-1.782l0.511-0.973l0.537-1.161l0.645,0.963l0.566,0.989l0.486,1.018l0.403,1.049l0.317,1.083l0.229,1.121
		l0.14,1.16l0.047,1.203l-0.061,1.345l-0.166,1.23l-0.286,1.266l-0.396,1.219l-0.468,1.101l-0.594,1.115l-0.69,1.055l-0.732,0.933
		l-0.862,0.926l-1.001,0.9l-0.963,0.727l-1.027,0.654l-0.198,0.112l-0.23,0.115l-0.303,0.136l-0.361,0.137l-0.41,0.125l-0.428,0.094
		l-0.243,0.034l-0.249,0.021l0.139,0.121l0.372,0.357l0.538,0.581l0.633,0.793l0.639,0.952l0.336,0.59l0.318,0.64l0.39,0.965
		l0.28,0.934l0.111,0.492l0.09,0.508l0.036-0.111l0.065-0.147l0.102-0.185l0.125-0.186l0.157-0.206l0.378-0.421l0.409-0.394
		l0.733-0.617l0.322-0.245l1.844-1.382l1.132-0.988l1.124-1.119l1.288-1.501l0.904-1.25l0.854-1.394l0.82-1.641l0.6-1.521
		l0.476-1.578l0.384-1.841l0.201-1.691l0.069-1.742l-0.085-1.882l-0.252-1.834l-0.256-1.193l-0.324-1.167l-0.609-1.694l-0.75-1.622
		l-0.574-1.037L52.46,13.13l-1.124-1.513l-1.256-1.403l-0.762-0.736l-0.797-0.696l-1.505-1.136L45.408,6.65l-0.947-0.495
		l-0.975-0.447l-0.399,2.139l-0.585,2.086l-0.389,1.086l-0.472,1.133l-0.93,1.845l-0.876,1.434l-0.886,1.242l-1.316,1.561
		l-1.112,1.104l-0.769,0.657l-0.287,0.217l-0.288-0.217l-0.769-0.657l-1.111-1.104l-1.317-1.561l-1.162-1.669l-0.76-1.297
		l-0.77-1.555l-0.778-1.972l-0.604-2.062L27.66,7.014l-0.221-1.305L25.83,6.48l-1.626,0.967l-0.872,0.608l-0.928,0.726l-1.393,1.266
		l-1.271,1.388l-0.658,0.831l-0.615,0.864l-0.984,1.617l-0.787,1.601l-0.405,0.997l-0.39,1.137l-0.46,1.759l-0.305,1.817
		l-0.113,1.24l-0.038,1.26l0.085,1.957l0.218,1.685l0.349,1.632l0.51,1.674l0.607,1.518l0.779,1.548l0.969,1.564l0.982,1.323
		l1.094,1.257l1.519,1.478l1.247,1.038l1.334,0.974L25,42.451l0.733,0.617l0.408,0.394l0.378,0.421l0.217,0.29l0.125,0.203
		l0.082,0.165l0.032,0.082l0.031,0.095l0.185-0.94l0.277-0.938l0.185-0.497l0.225-0.525l0.497-0.964l0.396-0.644l0.399-0.573
		l0.635-0.793l0.536-0.581l0.372-0.357l0.139-0.121l-0.36-0.035l-0.276-0.047l-0.282-0.066l-0.411-0.125l-0.362-0.137l-0.301-0.136
		l-0.23-0.115l-0.198-0.112l-1.151-0.741l-0.955-0.736l-0.886-0.804l-0.911-0.982l-0.727-0.938l-0.646-0.994l-0.594-1.115
		l-0.469-1.101l-0.396-1.219l-0.286-1.266l-0.166-1.23l-0.061-1.345l0.047-1.203l0.14-1.16l0.229-1.121l0.318-1.083l0.402-1.049
		l0.485-1.018l0.565-0.989l0.645-0.963l0.917,1.896l1.089,1.81l0.649,0.924l0.742,0.951l1.367,1.517l1.213,1.147l1.177,0.967
		l1.676,1.175l1.364,0.794C34.21,27.136,35.127,27.586,35.463,27.729z"/>
	<path fill="#FFFFFF" d="M790,0H10C4.478,0,0,4.477,0,10v38h144.375c26.091,0,45.994,8.166,56.14,23H400h199.485
		c10.146-14.834,30.049-23,56.14-23H800V10C800,4.477,795.522,0,790,0z M56.374,26.319l-0.204,1.73l-0.391,1.884l-0.486,1.62
		l-0.613,1.561l-0.838,1.681l-0.875,1.431l-0.925,1.282l-1.313,1.534l-1.151,1.148l-1.156,1.01l-2.192,1.648l-1.097,0.973
		l-0.735,1.051l-0.618,1.903l-0.547-2.948l-0.271-0.9l-0.21-0.516c-2.246,0.928-4.705,1.447-7.286,1.447
		c-2.582,0-5.042-0.519-7.288-1.447l-0.063,0.13l-0.175,0.474l-0.266,0.905l-0.543,2.771l-0.817-2.256l-0.541-0.639l-0.383-0.368
		l-1.011-0.824l-1.327-0.968l-1.271-1.058l-1.547-1.503l-1.123-1.288L18.1,36.434l-0.993-1.599l-0.8-1.587l-0.625-1.557
		l-0.524-1.714l-0.359-1.673l-0.226-1.725l-0.089-2l0.038-1.297l0.115-1.27l0.31-1.855l0.47-1.803l0.401-1.172l0.415-1.023
		l0.802-1.633l1.005-1.656l0.635-0.895l0.673-0.852l1.295-1.415l1.425-1.298l0.956-0.75l0.894-0.624l1.657-0.987l2.246-1.08
		l0.333,1.959l0.039,0.173c2.242-0.924,4.696-1.441,7.272-1.441c2.57,0,5.018,0.515,7.256,1.436l0.393-2.11l1.558,0.713l0.97,0.506
		l1.64,1.013l1.543,1.162l0.825,0.719l0.78,0.753l1.281,1.429l1.152,1.549l0.653,1.029l0.589,1.062l0.766,1.654l0.626,1.734
		l0.335,1.202l0.263,1.222l0.258,1.872l0.09,1.928L56.374,26.319z M589,59H400H211c-5.522,0-10-4.477-10-10V3h398v46
		C599,54.523,594.522,59,589,59z M793,15.125c0,4.349-3.525,7.875-7.875,7.875h-46.25c-4.35,0-7.875-3.526-7.875-7.875v-0.25
		C731,10.526,734.525,7,738.875,7h46.25c4.35,0,7.875,3.526,7.875,7.875V15.125z"/>
</g>
<g>
	<path fill="#FFFFFF" d="M223.39,239.458v-108.63c0-8.146-7.066-15.162-16.029-15.162h-78.253c-8.643,0-15.639,6.879-15.639,15.162
		v108.63c0,8.614,7.221,15.504,15.5,15.504h78.532C216.085,254.962,223.39,247.923,223.39,239.458z M207.501,251.171h-78.532
		c-6.225,0-11.71-5.152-11.71-11.713v-108.63c0-6.159,5.332-11.372,11.849-11.372h78.253c6.021,0,12.239,4.803,12.239,11.372v108.63
		C219.6,245.793,213.952,251.171,207.501,251.171z"/>
	<path fill="#FFFFFF" d="M199.281,150.247c-10.253-0.003-51.268-0.002-61.521,0c-3.711,0-4.74,1.034-4.74,4.814
		c-0.003,20.433-0.003,40.863,0,61.297c0,3.794,0.995,4.799,4.753,4.799c20.507,0.004,41.014,0.004,61.521,0
		c3.59-0.002,4.573-0.954,4.573-4.479c0.008-20.655,0.008-41.313,0-61.969C203.866,151.227,202.849,150.249,199.281,150.247z
		 M146.635,214.763c0,0.744-0.604,1.348-1.348,1.348h-5.832c-0.743,0-1.348-0.604-1.348-1.348v-5.834
		c0-0.741,0.604-1.348,1.348-1.348h5.832c0.745,0,1.348,0.606,1.348,1.348V214.763z M146.635,201.496
		c0,0.744-0.604,1.348-1.348,1.348h-5.832c-0.743,0-1.348-0.604-1.348-1.348v-5.832c0-0.743,0.604-1.348,1.348-1.348h5.832
		c0.745,0,1.348,0.604,1.348,1.348V201.496z M146.635,188.23c0,0.745-0.604,1.349-1.348,1.349h-5.832
		c-0.743,0-1.348-0.604-1.348-1.349v-5.834c0-0.742,0.604-1.347,1.348-1.347h5.832c0.745,0,1.348,0.604,1.348,1.347V188.23z
		 M146.635,175.912c0,0.744-0.604,1.348-1.348,1.348h-5.832c-0.743,0-1.348-0.604-1.348-1.348v-5.831c0-0.746,0.604-1.35,1.348-1.35
		h5.832c0.745,0,1.348,0.604,1.348,1.35V175.912z M146.635,162.646c0,0.744-0.604,1.348-1.348,1.348h-5.832
		c-0.743,0-1.348-0.604-1.348-1.348v-5.833c0-0.743,0.604-1.348,1.348-1.348h5.832c0.745,0,1.348,0.604,1.348,1.348V162.646z
		 M180.909,187.391c-7.101,4.256-14.202,8.515-21.363,12.671c-2.12,1.233-3,0.012-3.015-2.069c-0.028-4.142-0.031-20.536,0-24.589
		c0.019-2.432,1.207-3.14,3.296-1.912c7.063,4.15,14.109,8.332,21.122,12.563C182.626,185.066,182.618,186.365,180.909,187.391z
		 M198.752,214.763c0,0.744-0.603,1.348-1.348,1.348h-5.832c-0.744,0-1.349-0.604-1.349-1.348v-5.834
		c0-0.741,0.604-1.348,1.349-1.348h5.832c0.745,0,1.348,0.606,1.348,1.348V214.763z M198.752,201.496
		c0,0.744-0.603,1.348-1.348,1.348h-5.832c-0.744,0-1.349-0.604-1.349-1.348v-5.832c0-0.743,0.604-1.348,1.349-1.348h5.832
		c0.745,0,1.348,0.604,1.348,1.348V201.496z M198.752,188.23c0,0.745-0.603,1.349-1.348,1.349h-5.832
		c-0.744,0-1.349-0.604-1.349-1.349v-5.834c0-0.742,0.604-1.347,1.349-1.347h5.832c0.745,0,1.348,0.604,1.348,1.347V188.23z
		 M198.752,175.912c0,0.744-0.603,1.348-1.348,1.348h-5.832c-0.744,0-1.349-0.604-1.349-1.348v-5.831c0-0.746,0.604-1.35,1.349-1.35
		h5.832c0.745,0,1.348,0.604,1.348,1.35V175.912z M198.752,162.646c0,0.744-0.603,1.348-1.348,1.348h-5.832
		c-0.744,0-1.349-0.604-1.349-1.348v-5.833c0-0.743,0.604-1.348,1.349-1.348h5.832c0.745,0,1.348,0.604,1.348,1.348V162.646z"/>
</g>
<g>
	<path fill="#FFFFFF" d="M146.211,281.465c-0.02,0-0.02-0.021-0.02-0.04l-0.02-0.021l-5.421-12.902c-0.1-0.24,0.02-0.54,0.26-0.64
		c0.24-0.12,0.54,0,0.64,0.24l5.001,11.923l5.021-11.923c0.08-0.24,0.38-0.36,0.62-0.24c0.24,0.1,0.36,0.4,0.26,0.64l-5.421,12.803
		c-0.02,0.18-0.12,0.34-0.28,0.4h-0.02c-0.06,0.02-0.12,0.039-0.18,0.039s-0.14,0-0.18-0.02c-0.02,0-0.02-0.02-0.02-0.02
		C146.331,281.664,146.251,281.584,146.211,281.465z"/>
	<path fill="#FFFFFF" d="M156.01,269.222c0-0.26,0.22-0.48,0.48-0.48c0.28,0,0.5,0.22,0.5,0.48v0.46c0,0.28-0.22,0.52-0.5,0.52
		c-0.26,0-0.48-0.24-0.48-0.52V269.222z M156.01,272.423c0-0.28,0.22-0.48,0.48-0.48c0.28,0,0.5,0.2,0.5,0.48v8.842
		c0,0.26-0.22,0.479-0.5,0.479c-0.26,0-0.48-0.22-0.48-0.479V272.423z"/>
	<path fill="#FFFFFF" d="M169.452,279.844c-0.86,1.16-2.221,1.9-3.761,1.9c-2.641,0-4.741-2.2-4.741-4.88
		c0-2.721,2.101-4.921,4.741-4.921c1.54,0,2.9,0.76,3.761,1.92v-5.641c0-0.26,0.22-0.48,0.5-0.48c0.26,0,0.48,0.22,0.48,0.48v8.442
		v0.2v4.401c0,0.26-0.22,0.479-0.48,0.479c-0.28,0-0.5-0.22-0.5-0.479V279.844z M169.452,277.023v-0.32
		c-0.08-2.101-1.74-3.781-3.761-3.781c-2.061,0-3.761,1.76-3.761,3.941c0,2.16,1.7,3.901,3.761,3.901
		C167.712,280.765,169.372,279.104,169.452,277.023z"/>
	<path fill="#FFFFFF" d="M173.81,276.864c0-2.721,2.121-4.921,4.761-4.921c2.521,0,4.521,2,4.721,4.561v0.02v0.06
		c0,0.26-0.22,0.44-0.48,0.44h-8.042c0.1,2.141,1.78,3.761,3.801,3.761c1.3,0,2.5-0.68,3.161-1.78c0.14-0.24,0.44-0.279,0.64-0.16
		c0.22,0.16,0.3,0.44,0.16,0.68c-0.84,1.341-2.301,2.221-3.961,2.221C175.93,281.744,173.81,279.544,173.81,276.864z
		 M174.83,276.083h7.421c-0.32-1.84-1.88-3.181-3.681-3.181C176.73,272.903,175.19,274.223,174.83,276.083z"/>
	<path fill="#FFFFFF" d="M190.871,271.942c2.581,0,4.641,2.241,4.641,4.901c0,2.66-2.06,4.9-4.641,4.9
		c-2.561,0-4.641-2.24-4.641-4.9C186.23,274.183,188.311,271.942,190.871,271.942z M190.871,280.784c2,0,3.681-1.761,3.681-3.94
		c0-2.181-1.681-3.961-3.681-3.961c-2,0-3.681,1.78-3.681,3.961C187.19,279.023,188.871,280.784,190.871,280.784z"/>
</g>
<g>
	<path fill="#FFFFFF" d="M433.971,239.458v-108.63c0-8.146-7.462-15.162-16.425-15.162h-78.253c-8.644,0-15.244,6.879-15.244,15.162
		v108.63c0,8.614,6.824,15.504,15.104,15.504h78.532C426.271,254.962,433.971,247.923,433.971,239.458z M417.684,251.171h-78.532
		c-6.224,0-11.313-5.152-11.313-11.713v-108.63h0.001c0-6.159,4.935-11.372,11.452-11.372h78.253c6.02,0,12.635,4.803,12.635,11.372
		v108.63C430.18,245.793,424.135,251.171,417.684,251.171z"/>
	<path fill="#FFFFFF" d="M406.565,150.241c-2.165-1.045-4.7-0.291-5.261-0.095c-9.837,3.426-19.54,6.697-29.025,10.107
		c-6.118,2.197-8.114,5.321-8.153,12.047c-0.031,5.492-0.03,10.984-0.035,16.477c-0.005,4.728-0.002,9.455-0.002,14.364
		c-7.463-1.508-13.437,0.17-17.704,6.401c-2.918,4.26-2.073,10.157,1.878,12.673h-0.001c4.816,3.064,9.814,2.671,14.563,0.037
		c4.324-2.393,6.672-6.263,6.584-11.793c-0.139-8.584-0.007-17.167-0.052-25.751c-0.016-2.566,0.623-4.744,3.077-5.602
		c9.023-3.144,18.222-6.245,27.603-9.271c2.552-0.825,2.949,0.403,2.951,1.825c0.216,7.754,0.136,15.52,0.136,23.354
		c-8.868-1.496-14.492,0.13-18.627,5.1c-3.903,4.691-3.433,11.225,1.326,14.291c5.061,3.259,10.424,2.831,15.565,0.194
		c4.794-2.457,7.588-6.348,7.541-12.282c-0.115-15.099-0.127-30.197,0.03-45.297C408.995,153.515,408.798,151.526,406.565,150.241z"
		/>
</g>
<g>
	<path fill="#FFFFFF" d="M360.604,278.124h-6.381l-1.24,3.301c-0.08,0.2-0.26,0.319-0.46,0.319c-0.04,0-0.12-0.02-0.18-0.02
		c-0.24-0.1-0.38-0.4-0.28-0.641l4.861-12.982c0.08-0.18,0.28-0.3,0.48-0.3c0.22,0,0.42,0.12,0.48,0.3l4.861,12.982
		c0.1,0.24-0.02,0.541-0.26,0.641c-0.08,0-0.12,0.02-0.18,0.02c-0.18,0-0.38-0.119-0.46-0.319L360.604,278.124z M354.582,277.144
		h5.661l-2.82-7.521L354.582,277.144z"/>
	<path fill="#FFFFFF" d="M365.242,272.403c0-0.28,0.22-0.48,0.48-0.48c0.26,0,0.48,0.2,0.48,0.48v5.341c0,1.68,1.34,3.021,3,3.041
		c1.681-0.02,3.041-1.36,3.041-3.041v-5.341c0-0.28,0.24-0.48,0.48-0.48c0.28,0,0.5,0.2,0.5,0.48v5.341c0,2.201-1.78,4-4.021,4
		c-2.2,0-3.961-1.8-3.961-4V272.403z"/>
	<path fill="#FFFFFF" d="M385.543,279.844c-0.86,1.16-2.221,1.9-3.761,1.9c-2.641,0-4.741-2.2-4.741-4.88
		c0-2.721,2.101-4.921,4.741-4.921c1.54,0,2.9,0.76,3.761,1.92v-5.641c0-0.26,0.22-0.48,0.5-0.48c0.26,0,0.48,0.22,0.48,0.48v8.442
		v0.2v4.401c0,0.26-0.22,0.479-0.48,0.479c-0.28,0-0.5-0.22-0.5-0.479V279.844z M385.543,277.023v-0.32
		c-0.08-2.101-1.74-3.781-3.761-3.781c-2.061,0-3.761,1.76-3.761,3.941c0,2.16,1.7,3.901,3.761,3.901
		C383.803,280.765,385.463,279.104,385.543,277.023z"/>
	<path fill="#FFFFFF" d="M390.921,269.222c0-0.26,0.22-0.48,0.48-0.48c0.28,0,0.5,0.22,0.5,0.48v0.46c0,0.28-0.22,0.52-0.5,0.52
		c-0.26,0-0.48-0.24-0.48-0.52V269.222z M390.921,272.423c0-0.28,0.22-0.48,0.48-0.48c0.28,0,0.5,0.2,0.5,0.48v8.842
		c0,0.26-0.22,0.479-0.5,0.479c-0.26,0-0.48-0.22-0.48-0.479V272.423z"/>
	<path fill="#FFFFFF" d="M400.702,271.942c2.581,0,4.641,2.241,4.641,4.901c0,2.66-2.06,4.9-4.641,4.9
		c-2.561,0-4.641-2.24-4.641-4.9C396.061,274.183,398.142,271.942,400.702,271.942z M400.702,280.784c2,0,3.681-1.761,3.681-3.94
		c0-2.181-1.681-3.961-3.681-3.961c-2,0-3.681,1.78-3.681,3.961C397.021,279.023,398.702,280.784,400.702,280.784z"/>
</g>
<g>
	<path fill="#FFFFFF" d="M656.577,239.458v-108.63c0-8.146-6.831-15.162-15.794-15.162H562.53c-8.644,0-15.875,6.879-15.875,15.162
		v108.63c0,8.614,7.455,15.504,15.734,15.504h78.532C649.508,254.962,656.577,247.923,656.577,239.458z M550.447,130.828
		c0-6.159,5.565-11.372,12.083-11.372h78.252c6.02,0,12.004,4.803,12.004,11.372v87.76l-30.075-31.075l-15.183,7.374l-18.311-17.066
		l-38.771,19.243V130.828z M640.922,251.171H562.39c-6.224,0-11.943-5.152-11.943-11.713v-38.161l38.122-18.912l18.27,17.046
		l15.041-7.313l30.908,31.914v15.426C652.787,245.793,647.372,251.171,640.922,251.171z"/>
	<path fill="#FFFFFF" d="M622.938,164.31c8.056,0,14.61-6.555,14.61-14.61c0-8.057-6.554-14.611-14.61-14.611
		s-14.611,6.555-14.611,14.611C608.327,157.755,614.881,164.31,622.938,164.31z M622.938,138.879c5.966,0,10.82,4.854,10.82,10.82
		s-4.854,10.82-10.82,10.82c-5.967,0-10.821-4.854-10.821-10.82S616.971,138.879,622.938,138.879z"/>
</g>
<g>
	<path fill="#FFFFFF" d="M572.048,268.222c0-0.26,0.22-0.48,0.48-0.48c0.28,0,0.5,0.22,0.5,0.48v13.043c0,0.26-0.22,0.479-0.5,0.479
		c-0.26,0-0.48-0.22-0.48-0.479V268.222z"/>
	<path fill="#FFFFFF" d="M591.811,275.943c-0.04-1.66-1.36-3.041-3.041-3.041c-1.66,0-3.021,1.38-3.021,3.041v5.342v0.06
		c0,0.021-0.02,0.04-0.02,0.04v0.04c-0.04,0.12-0.14,0.2-0.24,0.26c-0.08,0.04-0.16,0.06-0.24,0.06h-0.06h-0.04
		c-0.02,0-0.04-0.02-0.04-0.02c-0.04,0-0.08-0.04-0.12-0.061c-0.02,0-0.04-0.02-0.06-0.039l-0.06-0.061
		c-0.02-0.02-0.02-0.04-0.04-0.04c0-0.021,0-0.021-0.02-0.04c0,0,0-0.02-0.02-0.04c0-0.02,0-0.04-0.02-0.06v-0.061v-0.039v-5.342
		c0-1.66-1.34-3.041-3.021-3.041s-3.021,1.38-3.021,3.041v5.342c0,0.159-0.08,0.299-0.22,0.379c-0.02,0.021-0.08,0.061-0.12,0.061
		c-0.02,0.02-0.04,0.02-0.08,0.02h-0.06h-0.06c-0.18-0.02-0.34-0.18-0.4-0.359v-0.1v-5.342v-0.16v-3.36c0-0.26,0.22-0.46,0.46-0.46
		c0.28,0,0.48,0.2,0.48,0.46v0.94c0.72-0.86,1.8-1.4,3.021-1.4c1.521,0,2.82,0.84,3.5,2.081c0.7-1.24,2.021-2.081,3.521-2.081
		c2.2,0,3.981,1.781,3.981,3.981v5.342c0,0.239-0.2,0.459-0.48,0.459c-0.26,0-0.46-0.22-0.46-0.459V275.943z"/>
	<path fill="#FFFFFF" d="M605.029,272.423v8.842c0,0.26-0.22,0.479-0.48,0.479s-0.48-0.22-0.48-0.479v-1.46
		c-0.84,1.16-2.181,1.939-3.681,1.939c-2.581,0-4.641-2.221-4.641-4.9c0-2.681,2.061-4.901,4.641-4.901c1.5,0,2.84,0.76,3.681,1.92
		v-1.44c0-0.28,0.22-0.48,0.48-0.48S605.029,272.143,605.029,272.423z M604.069,276.844c0-2.201-1.661-3.961-3.681-3.961
		c-2,0-3.681,1.76-3.681,3.961c0,2.2,1.681,3.94,3.681,3.94C602.408,280.784,604.069,279.044,604.069,276.844z"/>
	<path fill="#FFFFFF" d="M618.449,280.965c0,2.54-2.061,4.601-4.621,4.601c-0.72,0-1.4-0.181-2.041-0.46
		c-0.2-0.141-0.32-0.42-0.2-0.641c0.12-0.26,0.4-0.359,0.64-0.22c0.5,0.24,1,0.36,1.601,0.36c2.041,0,3.661-1.621,3.661-3.641
		v-1.201c-0.82,1.181-2.16,1.921-3.661,1.921c-2.561,0-4.601-2.181-4.601-4.881c0-2.641,2.041-4.861,4.601-4.861
		c1.5,0,2.841,0.76,3.661,1.92v-1.44c0-0.26,0.22-0.48,0.5-0.48c0.24,0,0.46,0.22,0.46,0.48V280.965z M617.488,276.804
		c0-2.181-1.64-3.901-3.661-3.901c-2,0-3.641,1.72-3.641,3.901c0,2.2,1.64,3.94,3.641,3.94
		C615.848,280.744,617.488,279.004,617.488,276.804z"/>
	<path fill="#FFFFFF" d="M622.386,276.864c0-2.721,2.121-4.921,4.761-4.921c2.521,0,4.521,2,4.721,4.561v0.02v0.06
		c0,0.26-0.22,0.44-0.48,0.44h-8.042c0.1,2.141,1.78,3.761,3.801,3.761c1.3,0,2.5-0.68,3.161-1.78c0.14-0.24,0.44-0.279,0.64-0.16
		c0.22,0.16,0.3,0.44,0.16,0.68c-0.84,1.341-2.301,2.221-3.961,2.221C624.507,281.744,622.386,279.544,622.386,276.864z
		 M623.407,276.083h7.421c-0.32-1.84-1.88-3.181-3.681-3.181C625.307,272.903,623.767,274.223,623.407,276.083z"/>
</g>
<g>
	<path fill="#FFFFFF" d="M223.39,444.669v-108.63c0-8.146-7.066-15.162-16.029-15.162h-78.252c-8.644,0-15.639,6.879-15.639,15.162
		v108.63c0,8.616,7.221,15.503,15.5,15.503h78.532C216.085,460.172,223.39,453.136,223.39,444.669z M207.501,456.383H128.97
		c-6.226,0-11.71-5.152-11.71-11.714v-108.63c0-6.158,5.332-11.371,11.849-11.371h78.252c6.021,0,12.239,4.802,12.239,11.371v108.63
		C219.6,451.004,213.951,456.383,207.501,456.383z"/>
	<g>
		<path fill="#FFFFFF" d="M170,369h-21c0,0,0,0,0,2h21C170,369,170,369,170,369z"/>
		<path fill="#FFFFFF" d="M142,376v29c1,0,3,0,3,0v-29C145,376,143,376,142,376z"/>
		<path fill="#FFFFFF" d="M149,412h42c0,0,0-1,0-2h-42C149,411,149,412,149,412z"/>
		<path fill="#FFFFFF" d="M178.143,376l15.788,29c0.642,0,1.257,0,1.88,0l-15.789-29C179.412,376,178.795,376,178.143,376z"/>
		<rect x="140" y="366" fill="#FFFFFF" width="9" height="9"/>
		<rect x="140" y="408" fill="#FFFFFF" width="9" height="8"/>
		<rect x="192" y="408" fill="#FFFFFF" width="9" height="8"/>
		<rect x="173" y="366" fill="#FFFFFF" width="9" height="9"/>
	</g>
</g>
<g>
	<path fill="#FFFFFF" d="M142.221,486.465c-0.02,0-0.02-0.021-0.02-0.04l-0.02-0.021l-5.421-12.902c-0.1-0.24,0.02-0.54,0.26-0.641
		c0.24-0.119,0.54,0,0.64,0.24l5.001,11.923l5.021-11.923c0.08-0.24,0.38-0.359,0.62-0.24c0.24,0.101,0.36,0.4,0.26,0.641
		l-5.421,12.803c-0.02,0.18-0.12,0.34-0.28,0.4h-0.02c-0.06,0.02-0.12,0.039-0.18,0.039s-0.14,0-0.18-0.02
		c-0.02,0-0.02-0.02-0.02-0.02C142.341,486.664,142.261,486.584,142.221,486.465z"/>
	<path fill="#FFFFFF" d="M150.3,481.863c0-2.721,2.121-4.921,4.761-4.921c2.521,0,4.521,2.001,4.721,4.562v0.02v0.061
		c0,0.26-0.22,0.439-0.48,0.439h-8.042c0.1,2.141,1.78,3.761,3.801,3.761c1.3,0,2.5-0.68,3.161-1.78c0.14-0.24,0.44-0.279,0.64-0.16
		c0.22,0.16,0.3,0.44,0.16,0.68c-0.84,1.341-2.301,2.221-3.961,2.221C152.42,486.744,150.3,484.544,150.3,481.863z M151.32,481.084
		h7.421c-0.32-1.841-1.88-3.182-3.681-3.182C153.221,477.902,151.68,479.223,151.32,481.084z"/>
	<path fill="#FFFFFF" d="M162.479,481.824c0-2.721,2.241-4.882,5.041-4.882c1.16,0,2.261,0.4,3.121,1.081
		c0.2,0.139,0.24,0.439,0.06,0.66c-0.16,0.18-0.44,0.239-0.66,0.079c-0.7-0.56-1.58-0.88-2.521-0.88c-2.28,0-4.081,1.78-4.081,3.941
		c0,2.199,1.8,3.96,4.081,3.96c0.94,0,1.82-0.319,2.521-0.86c0.22-0.16,0.5-0.1,0.66,0.08c0.18,0.221,0.14,0.521-0.1,0.701
		c-0.82,0.64-1.921,1.039-3.081,1.039C164.72,486.744,162.479,484.584,162.479,481.824z"/>
	<path fill="#FFFFFF" d="M178.021,477.423c0,0.239-0.24,0.479-0.48,0.479h-1.261v7.143c0,0.479,0.48,0.72,0.72,0.72
		c0.24,0,0.5,0.26,0.5,0.5c0,0.239-0.26,0.479-0.5,0.479c-0.98,0-1.72-0.72-1.72-1.699v-7.143h-1.22c-0.48,0-0.48-0.24-0.48-0.479
		c0-0.24,0-0.48,0.48-0.48h1.22v-3.641c0-0.24,0.24-0.479,0.48-0.479c0.26,0,0.52,0.239,0.52,0.479v3.641h1.261
		C177.781,476.942,178.021,477.183,178.021,477.423z"/>
	<path fill="#FFFFFF" d="M186.481,476.942c2.581,0,4.641,2.241,4.641,4.901s-2.06,4.9-4.641,4.9c-2.561,0-4.641-2.24-4.641-4.9
		S183.92,476.942,186.481,476.942z M186.481,485.784c2,0,3.681-1.761,3.681-3.94c0-2.181-1.681-3.961-3.681-3.961
		c-2,0-3.681,1.78-3.681,3.961C182.8,484.023,184.48,485.784,186.481,485.784z"/>
	<path fill="#FFFFFF" d="M194.4,477.443c0-0.281,0.22-0.48,0.5-0.48c0.24,0,0.46,0.199,0.46,0.48v2.16
		c0.04-0.08,0.08-0.16,0.14-0.24c0.74-1.16,2.041-2.4,3.921-2.4c0.26,0,0.48,0.199,0.48,0.48c0,0.26-0.22,0.479-0.48,0.479
		c-1.28,0-2.16,0.72-2.84,1.601c-0.66,0.88-1.041,1.88-1.18,2.28c-0.04,0.08-0.04,0.12-0.04,0.159v4.302
		c0,0.28-0.22,0.479-0.46,0.479c-0.28,0-0.5-0.199-0.5-0.479V477.443z"/>
</g>
<g>
	<path fill="#FFFFFF" d="M433.971,444.669v-108.63c0-8.146-7.066-15.162-16.029-15.162h-78.253c-8.643,0-15.64,6.879-15.64,15.162
		v108.63c0,8.616,7.222,15.503,15.501,15.503h78.532C426.667,460.172,433.971,453.136,433.971,444.669z M418.083,456.383H339.55
		c-6.226,0-11.71-5.152-11.71-11.714v-108.63c0-6.158,5.332-11.371,11.849-11.371h78.253c6.021,0,12.239,4.802,12.239,11.371v108.63
		C430.181,451.004,424.533,456.383,418.083,456.383z"/>
	<g>
		<polygon fill="#FFFFFF" points="351,370.993 351,407.001 378,418.058 378,378.574 		"/>
		<polygon fill="#FFFFFF" points="382,378.574 382,418.373 410,407.001 410,370.993 		"/>
		<polygon fill="#FFFFFF" points="352.005,367.388 379.486,374.533 408.861,367.388 379.486,361.464 		"/>
	</g>
</g>
<g>
	<path fill="#FFFFFF" d="M375.282,473.622l-3.621,3.721c0.88,0.18,1.72,0.601,2.4,1.28c0.92,0.92,1.38,2.141,1.38,3.36
		c0,1.221-0.46,2.44-1.4,3.36c-0.92,0.921-2.141,1.4-3.361,1.4c-1.2,0-2.42-0.459-3.341-1.4c-0.2-0.18-0.2-0.5,0-0.699
		c0.18-0.2,0.5-0.2,0.7,0c0.74,0.72,1.681,1.08,2.641,1.08c0.96,0,1.92-0.36,2.661-1.08c0.74-0.74,1.1-1.701,1.1-2.661
		s-0.36-1.921-1.1-2.64c-0.72-0.74-1.68-1.102-2.641-1.102c-0.16,0-0.3-0.08-0.4-0.199h-0.02c-0.2-0.2-0.2-0.521,0-0.721l3.48-3.58
		h-5.361c-0.28,0-0.5-0.221-0.5-0.5c0-0.28,0.22-0.5,0.5-0.5h6.542c0.28,0,0.5,0.22,0.5,0.5c0,0.08-0.02,0.16-0.06,0.22
		C375.362,473.521,375.322,473.582,375.282,473.622z"/>
	<path fill="#FFFFFF" d="M380.521,486.744h-0.08c-0.24-0.02-0.44-0.22-0.44-0.479v-13.043c0-0.26,0.22-0.479,0.48-0.479h0.06h2.561
		c3.861,0,7.001,3.16,7.001,7.021c0,3.86-3.141,6.98-7.001,6.98H380.521z M383.101,485.765c3.321,0,6.021-2.681,6.021-6.001
		c0-3.342-2.7-6.021-6.021-6.042h-2.121v12.043H383.101z"/>
</g>
<g>
	<path fill="#FFFFFF" d="M656.578,444.669v-108.63c0-8.146-7.066-15.162-16.029-15.162h-78.253c-8.643,0-15.639,6.879-15.639,15.162
		v108.63c0,8.616,7.221,15.503,15.5,15.503h78.532C649.273,460.172,656.578,453.136,656.578,444.669z M640.688,456.383h-78.532
		c-6.225,0-11.71-5.152-11.71-11.714v-108.63c0-6.158,5.332-11.371,11.849-11.371h78.253c6.021,0,12.239,4.802,12.239,11.371v108.63
		C652.788,451.004,647.139,456.383,640.688,456.383z"/>
	<path fill="#FFFFFF" d="M601.07,333.784c8.067,0,14.631,6.563,14.631,14.631c0,4.304-4.493,14.531-8.377,17.67
		c-0.443,0.357-1.081,0.785-1.599,0.785c-0.452,0-0.979-0.463-1.589-0.848c-0.793-0.5-1.78-1.277-3.023-1.277l-0.152,0.129
		c-1,0-2.195,0.646-3.002,1.111c-0.635,0.367-1.164,0.717-1.657,0.717c-0.475,0-1.064-0.277-1.767-0.854
		c-3.758-3.08-8.101-13.174-8.101-17.441C586.434,340.34,593.002,333.784,601.07,333.784 M601.07,331.495
		c-9.344,0-16.92,7.575-16.92,16.92c0,4.851,4.558,15.627,8.943,19.221c1.261,1.032,2.314,1.741,3.229,1.741
		c2.018,0,3.353-1.377,4.719-1.377c0.01,0,0.02,0,0.029,0c1.351,0,2.641,1.514,4.654,1.514c0.86,0,1.853-0.514,3.038-1.472
		c4.47-3.612,9.228-14.582,9.228-19.538C617.99,339.159,610.414,331.495,601.07,331.495L601.07,331.495z"/>
	<g>
		<path fill-rule="evenodd" clip-rule="evenodd" fill="#FFFFFF" d="M623.151,413h-4.887l-3.25-3h8.137
			c1.198,0,2.169-1.301,2.169-2.5c0-1.197-0.971-2.5-2.169-2.5h-11.389l-3.25-3h14.639c1.198,0,2.169-1.302,2.169-2.5
			s-0.971-2.5-2.169-2.5h-17.89l-1.092-1.791L604.152,392h18.999c1.198,0,2.169-0.302,2.169-1.5s-0.971-1.5-2.169-1.5h-43.268
			c-1.198,0-2.168,0.302-2.168,1.5s0.971,1.5,2.168,1.5H599v2.901L597.773,397h-17.89c-1.198,0-2.168,1.302-2.168,2.5
			s0.971,2.5,2.168,2.5h14.64l-3.251,3h-11.389c-1.198,0-2.168,1.303-2.168,2.5c0,1.199,0.971,2.5,2.168,2.5h8.139l-3.252,3h-4.887
			c-1.198,0-2.168,1.303-2.168,2.5s0.971,2.5,2.168,2.5h1.637c1.899,0,3.521,0,5.422,0l13.003-16h1.632h1.515l13.002,16
			c1.783,0,3.52,0,5.421,0h1.636c1.198,0,2.169-1.303,2.169-2.5S624.35,413,623.151,413z"/>
		<path fill-rule="evenodd" clip-rule="evenodd" fill="#FFFFFF" d="M598.467,380.497c0,1.686,1.366,3.051,3.051,3.051
			c1.684,0,3.05-1.365,3.05-3.051c0-1.19-0.687-2.209-1.681-2.712c0.994-0.503,1.681-1.522,1.681-2.711
			c0-1.687-1.366-3.05-3.05-3.05c-1.685,0-3.051,1.363-3.051,3.05c0,1.188,0.688,2.208,1.681,2.711
			C599.154,378.288,598.467,379.307,598.467,380.497z"/>
		<path fill-rule="evenodd" clip-rule="evenodd" fill="#FFFFFF" d="M641.096,402.737l-9.518-17.795
			c0.11-0.31,0.186-0.638,0.186-0.988c0-1.628-1.317-2.949-2.946-2.949c-0.64,0-1.227,0.209-1.708,0.555
			c-0.485-0.969-1.474-1.185-2.628-1.185c-0.333,0-0.648,0.625-0.947,0.625H607.6c-0.481,0-0.871-0.098-0.871,0.5
			s0.389,0.5,0.871,0.5h13.996c-0.042,0-0.065,0.531-0.065,0.738c0,1.631,1.32,3.016,2.95,3.016c0.639,0,1.226-0.176,1.709-0.522
			c0.483,0.971,1.473,1.656,2.628,1.656c0.435,0,0.842-0.091,1.213-0.261l8.931,16.687c-0.702,0.539-1.162,1.378-1.162,2.332
			c0,0.788,0.314,1.504,0.819,2.031l-13.146,18.501c-0.369,0.213-0.628,0.593-0.628,1.05c0,0.679,0.551,1.229,1.229,1.229
			c0.54,0,0.985-0.354,1.15-0.837l13.485-19.023c1.619-0.014,2.958-1.327,2.958-2.948
			C643.669,404.143,642.553,402.915,641.096,402.737z"/>
		<path fill-rule="evenodd" clip-rule="evenodd" fill="#FFFFFF" d="M602.574,422.396c1.161-0.432,1.994-1.54,1.994-2.852
			c0-1.188-0.687-2.209-1.681-2.711c0.994-0.504,1.681-1.524,1.681-2.713s-0.687-2.208-1.681-2.712
			c0.994-0.503,1.681-1.522,1.681-2.711c0-1.685-1.366-3.051-3.05-3.051c-1.685,0-3.051,1.366-3.051,3.051
			c0,1.188,0.688,2.208,1.681,2.711c-0.994,0.504-1.681,1.523-1.681,2.712s0.688,2.209,1.681,2.713
			c-0.994,0.502-1.681,1.522-1.681,2.711c0,1.312,0.833,2.42,1.994,2.852c-1.167,0.432-2.004,1.545-2.004,2.861
			c0,1.69,1.37,3.061,3.061,3.061s3.061-1.37,3.061-3.061C604.578,423.941,603.741,422.828,602.574,422.396z"/>
		<path fill-rule="evenodd" clip-rule="evenodd" fill="#FFFFFF" d="M577.647,426.151l-13.257-18.719
			c0.38-0.497,0.563-1.11,0.563-1.785c0-0.954-0.485-1.79-1.186-2.331l8.918-16.681c0.371,0.169,0.772,0.268,1.206,0.268
			c1.156,0,2.142-0.671,2.627-1.638c0.483,0.345,1.068,0.554,1.707,0.554c1.628,0,2.949-1.45,2.949-3.081
			c0-0.207-0.025-0.738-0.066-0.738h13.997c0.479,0,0.869,0.098,0.869-0.5s-0.389-0.5-0.869-0.5H579.17
			c-0.299,0-0.613-0.625-0.948-0.625c-1.155,0-2.145,0.443-2.628,1.412c-0.483-0.348-1.071-0.667-1.71-0.667
			c-1.627,0-2.948,1.263-2.948,2.893c0,0.346,0.071,0.647,0.182,0.958l-9.526,17.78c-1.456,0.178-2.587,1.398-2.587,2.903
			c0,1.63,1.32,2.945,2.948,2.945c0.135,0,0.264-0.021,0.394-0.041l13.339,18.907c0.135,0.563,0.619,0.99,1.224,0.99
			c0.708,0,1.283-0.574,1.283-1.282C578.192,426.745,577.969,426.385,577.647,426.151z"/>
	</g>
</g>
<g>
	<path fill="#FFFFFF" d="M531.791,474.742l-4.481,6.221c-0.1,0.16-0.26,0.221-0.4,0.221h-0.04c-0.18,0-0.32-0.061-0.42-0.221
		l-4.481-6.201v11.503c0,0.26-0.22,0.479-0.48,0.479c-0.28,0-0.5-0.22-0.5-0.479v-12.963c0-0.16,0.08-0.3,0.2-0.38
		c0-0.02,0.02-0.02,0.04-0.04c0.22-0.14,0.521-0.101,0.68,0.12l4.981,6.901l4.961-6.901c0.14-0.221,0.46-0.26,0.68-0.12
		c0.06,0.06,0.1,0.1,0.14,0.159c0.04,0.08,0.08,0.181,0.08,0.261v12.963c0,0.26-0.22,0.479-0.48,0.479c-0.28,0-0.48-0.22-0.48-0.479
		V474.742z"/>
	<path fill="#FFFFFF" d="M536.948,481.863c0-2.721,2.121-4.921,4.761-4.921c2.521,0,4.521,2.001,4.721,4.562v0.02v0.061
		c0,0.26-0.22,0.439-0.48,0.439h-8.042c0.1,2.141,1.78,3.761,3.801,3.761c1.3,0,2.5-0.68,3.161-1.78c0.14-0.24,0.44-0.279,0.64-0.16
		c0.22,0.16,0.3,0.44,0.16,0.68c-0.84,1.341-2.301,2.221-3.961,2.221C539.069,486.744,536.948,484.544,536.948,481.863z
		 M537.969,481.084h7.421c-0.32-1.841-1.88-3.182-3.681-3.182C539.869,477.902,538.329,479.223,537.969,481.084z"/>
	<path fill="#FFFFFF" d="M557.67,484.844c-0.86,1.16-2.221,1.9-3.761,1.9c-2.641,0-4.741-2.2-4.741-4.881
		c0-2.721,2.101-4.921,4.741-4.921c1.54,0,2.9,0.761,3.761,1.921v-5.642c0-0.26,0.22-0.479,0.5-0.479c0.26,0,0.48,0.22,0.48,0.479
		v8.442v0.199v4.401c0,0.26-0.22,0.479-0.48,0.479c-0.28,0-0.5-0.22-0.5-0.479V484.844z M557.67,482.023v-0.32
		c-0.08-2.1-1.74-3.78-3.761-3.78c-2.061,0-3.761,1.761-3.761,3.94c0,2.16,1.7,3.901,3.761,3.901
		C555.93,485.765,557.59,484.104,557.67,482.023z"/>
	<path fill="#FFFFFF" d="M563.048,474.223c0-0.261,0.22-0.48,0.48-0.48c0.28,0,0.5,0.22,0.5,0.48v0.459c0,0.28-0.22,0.521-0.5,0.521
		c-0.26,0-0.48-0.24-0.48-0.521V474.223z M563.048,477.423c0-0.28,0.22-0.48,0.48-0.48c0.28,0,0.5,0.2,0.5,0.48v8.842
		c0,0.26-0.22,0.479-0.5,0.479c-0.26,0-0.48-0.22-0.48-0.479V477.423z"/>
	<path fill="#FFFFFF" d="M567.948,481.824c0-2.721,2.241-4.882,5.041-4.882c1.16,0,2.261,0.4,3.121,1.081
		c0.2,0.139,0.24,0.439,0.06,0.66c-0.16,0.18-0.44,0.239-0.66,0.079c-0.7-0.56-1.58-0.88-2.521-0.88c-2.28,0-4.081,1.78-4.081,3.941
		c0,2.199,1.8,3.96,4.081,3.96c0.94,0,1.82-0.319,2.521-0.86c0.22-0.16,0.5-0.1,0.66,0.08c0.18,0.221,0.14,0.521-0.1,0.701
		c-0.82,0.64-1.921,1.039-3.081,1.039C570.188,486.744,567.948,484.584,567.948,481.824z"/>
	<path fill="#FFFFFF" d="M588.29,477.423v8.842c0,0.26-0.22,0.479-0.48,0.479s-0.48-0.22-0.48-0.479v-1.46
		c-0.84,1.16-2.181,1.939-3.681,1.939c-2.581,0-4.641-2.221-4.641-4.9c0-2.681,2.061-4.901,4.641-4.901
		c1.5,0,2.84,0.761,3.681,1.921v-1.44c0-0.28,0.22-0.48,0.48-0.48S588.29,477.143,588.29,477.423z M587.33,481.844
		c0-2.201-1.661-3.961-3.681-3.961c-2,0-3.681,1.76-3.681,3.961c0,2.2,1.681,3.94,3.681,3.94
		C585.669,485.784,587.33,484.044,587.33,481.844z"/>
	<path fill="#FFFFFF" d="M592.868,473.222c0-0.26,0.22-0.479,0.48-0.479c0.28,0,0.5,0.22,0.5,0.479v13.043
		c0,0.26-0.22,0.479-0.5,0.479c-0.26,0-0.48-0.22-0.48-0.479V473.222z"/>
	<path fill="#FFFFFF" d="M604.067,473.222c0-0.26,0.22-0.479,0.48-0.479c0.28,0,0.5,0.22,0.5,0.479v13.043
		c0,0.26-0.22,0.479-0.5,0.479c-0.26,0-0.48-0.22-0.48-0.479V473.222z"/>
	<path fill="#FFFFFF" d="M623.83,480.943c-0.04-1.66-1.36-3.041-3.041-3.041c-1.66,0-3.021,1.381-3.021,3.041v5.342v0.06
		c0,0.021-0.02,0.04-0.02,0.04v0.04c-0.04,0.12-0.14,0.2-0.24,0.26c-0.08,0.04-0.16,0.06-0.24,0.06h-0.06h-0.04
		c-0.02,0-0.04-0.02-0.04-0.02c-0.04,0-0.08-0.04-0.12-0.061c-0.02,0-0.04-0.02-0.06-0.039l-0.06-0.061
		c-0.02-0.02-0.02-0.04-0.04-0.04c0-0.021,0-0.021-0.02-0.04c0,0,0-0.02-0.02-0.04c0-0.02,0-0.04-0.02-0.06v-0.061v-0.039v-5.342
		c0-1.66-1.34-3.041-3.021-3.041s-3.021,1.381-3.021,3.041v5.342c0,0.159-0.08,0.299-0.22,0.379c-0.02,0.021-0.08,0.061-0.12,0.061
		c-0.02,0.02-0.04,0.02-0.08,0.02h-0.06h-0.06c-0.18-0.02-0.34-0.18-0.4-0.359v-0.1v-5.342v-0.16v-3.36c0-0.261,0.22-0.46,0.46-0.46
		c0.28,0,0.48,0.199,0.48,0.46v0.94c0.72-0.861,1.8-1.4,3.021-1.4c1.521,0,2.82,0.84,3.5,2.08c0.7-1.24,2.021-2.08,3.521-2.08
		c2.2,0,3.981,1.78,3.981,3.98v5.342c0,0.239-0.2,0.459-0.48,0.459c-0.26,0-0.46-0.22-0.46-0.459V480.943z"/>
	<path fill="#FFFFFF" d="M637.048,477.423v8.842c0,0.26-0.22,0.479-0.48,0.479s-0.48-0.22-0.48-0.479v-1.46
		c-0.84,1.16-2.181,1.939-3.681,1.939c-2.581,0-4.641-2.221-4.641-4.9c0-2.681,2.061-4.901,4.641-4.901
		c1.5,0,2.84,0.761,3.681,1.921v-1.44c0-0.28,0.22-0.48,0.48-0.48S637.048,477.143,637.048,477.423z M636.088,481.844
		c0-2.201-1.661-3.961-3.681-3.961c-2,0-3.681,1.76-3.681,3.961c0,2.2,1.681,3.94,3.681,3.94
		C634.428,485.784,636.088,484.044,636.088,481.844z"/>
	<path fill="#FFFFFF" d="M650.468,485.965c0,2.54-2.061,4.601-4.621,4.601c-0.72,0-1.4-0.181-2.041-0.46
		c-0.2-0.141-0.32-0.42-0.2-0.641c0.12-0.26,0.4-0.359,0.64-0.22c0.5,0.24,1,0.36,1.601,0.36c2.041,0,3.661-1.621,3.661-3.641
		v-1.201c-0.82,1.181-2.16,1.921-3.661,1.921c-2.561,0-4.601-2.181-4.601-4.881c0-2.641,2.041-4.861,4.601-4.861
		c1.5,0,2.841,0.761,3.661,1.921v-1.44c0-0.261,0.22-0.48,0.5-0.48c0.24,0,0.46,0.22,0.46,0.48V485.965z M649.508,481.804
		c0-2.181-1.64-3.901-3.661-3.901c-2,0-3.641,1.721-3.641,3.901c0,2.2,1.64,3.94,3.641,3.94
		C647.868,485.744,649.508,484.004,649.508,481.804z"/>
	<path fill="#FFFFFF" d="M655.126,474.223c0-0.261,0.22-0.48,0.48-0.48c0.28,0,0.5,0.22,0.5,0.48v0.459c0,0.28-0.22,0.521-0.5,0.521
		c-0.26,0-0.48-0.24-0.48-0.521V474.223z M655.126,477.423c0-0.28,0.22-0.48,0.48-0.48c0.28,0,0.5,0.2,0.5,0.48v8.842
		c0,0.26-0.22,0.479-0.5,0.479c-0.26,0-0.48-0.22-0.48-0.479V477.423z"/>
	<path fill="#FFFFFF" d="M667.728,480.943c0-1.66-1.34-3.021-3.021-3.021c-1.661,0-3,1.36-3.041,3.021v5.321v0.08
		c-0.02,0.08-0.04,0.159-0.1,0.22c-0.08,0.12-0.22,0.18-0.36,0.18h-0.12c-0.14-0.039-0.26-0.14-0.32-0.26
		c-0.02-0.02-0.02-0.04-0.02-0.06c0-0.021-0.02-0.04-0.02-0.04v-0.12v-5.321v-0.16v-3.34c0-0.261,0.2-0.48,0.48-0.48
		c0.26,0,0.46,0.22,0.46,0.48v0.939c0.72-0.86,1.82-1.42,3.041-1.42c2.2,0,3.981,1.8,3.981,3.98v5.321c0,0.28-0.22,0.479-0.48,0.479
		c-0.26,0-0.48-0.199-0.48-0.479V480.943z"/>
	<path fill="#FFFFFF" d="M681.548,485.965c0,2.54-2.061,4.601-4.621,4.601c-0.72,0-1.4-0.181-2.041-0.46
		c-0.2-0.141-0.32-0.42-0.2-0.641c0.12-0.26,0.4-0.359,0.64-0.22c0.5,0.24,1,0.36,1.601,0.36c2.041,0,3.661-1.621,3.661-3.641
		v-1.201c-0.82,1.181-2.16,1.921-3.661,1.921c-2.561,0-4.601-2.181-4.601-4.881c0-2.641,2.041-4.861,4.601-4.861
		c1.5,0,2.84,0.761,3.661,1.921v-1.44c0-0.261,0.22-0.48,0.5-0.48c0.24,0,0.46,0.22,0.46,0.48V485.965z M680.587,481.804
		c0-2.181-1.64-3.901-3.661-3.901c-2,0-3.641,1.721-3.641,3.901c0,2.2,1.64,3.94,3.641,3.94
		C678.947,485.744,680.587,484.004,680.587,481.804z"/>
</g>
<g>
</g>
<g>
</g>
<g>
</g>
<g>
</g>
<g>
</g>
<g>
</g>
<g>
</g>
<g>
</g>
<g>
</g>
<g>
</g>
<g>
</g>
<g>
</g>
<g>
</g>
<g>
</g>
<g>
</g>
</svg>
