<?xml version="1.0" encoding="iso-8859-1"?>
<!-- Generator: Adobe Illustrator 16.0.0, SVG Export Plug-In . SVG Version: 6.00 Build 0)  -->
<!DOCTYPE svg PUBLIC "-//W3C//DTD SVG 1.1//EN" "http://www.w3.org/Graphics/SVG/1.1/DTD/svg11.dtd">
<svg version="1.1" id="Layer_2" xmlns="http://www.w3.org/2000/svg" xmlns:xlink="http://www.w3.org/1999/xlink" x="0px" y="0px"
	 width="100%" height="100%" viewBox="0 0 1048.779 446.258" style="enable-background:new 0 0 1048.779 446.258;"
	 xml:space="preserve">
<g>
	<path style="fill:#FFFFFF;" d="M582.247,162.546l2.094,7.081l3.453,6.5l0.229,0.374l4.644,5.623l0.308,0.325l5.613,4.502
		l0.33,0.258l0.412,0.255l0.491,0.252l6.042,3.033l0.395,0.17l0.45,0.168l0.499,0.162l0.547,0.156l0.596,0.149l5.335,1.255
		l0.325,0.074l0.346,0.069l0.365,0.065l0.385,0.059l0.4,0.057l0.416,0.05l0.43,0.047l0.44,0.04l0.449,0.035l0.458,0.028l0.465,0.024
		l0.469,0.018l0.471,0.037l0.473,0.027h0.471l0.467-0.027l0.462-0.023l0.454-0.023l0.446-0.027l0.436-0.031l0.425-0.034l0.408-0.042
		l0.393-0.044l0.376-0.052l0.358-0.056l0.336-0.06l5.268-1.054l0.619-0.127l0.574-0.135l0.527-0.143l0.477-0.149l0.426-0.157
		l0.372-0.161l6.277-2.881l0.456-0.24l0.375-0.246l5.79-4.308l0.365-0.313l4.882-5.477l0.297-0.367l3.729-6.406l0.182-0.402
		l2.395-7.057l0.947-7.408l0.036-0.409l0.149-5.48l0.149-5.492l0.15-5.504l0.15-5.518l0.151-5.528l0.15-5.542l0.151-5.555
		l0.151-5.566l-0.545-7.581l-2.037-7.327l-0.104-0.27l-3.433-6.749l-4.713-5.937l-0.178-0.189l-5.769-4.84l-0.216-0.143
		l-6.568-3.549l-0.202-0.096l-0.261-0.094l-6.947-2.065l-0.157-0.046l-0.187-0.046l-0.213-0.045l-0.242-0.043l-0.266-0.042
		l-0.289-0.039l-0.313-0.039l-0.335-0.039l-0.355-0.034l-0.375-0.032l-0.393-0.03l-0.408-0.029l-0.424-0.024l-0.437-0.022
		l-0.446-0.021l-0.457-0.018l-0.465-0.014l-0.471-0.014l-0.475,0.23l-0.477,0.232h-0.079h-0.144h-0.255h-0.476l-0.473-0.237
		l-0.466-0.114l-0.462,0.159l-0.451,0.192h-0.441l-0.429-0.201l-0.415-0.088l-0.4-0.032l-0.382-0.001l-0.364,0.014l-0.346,0.024
		l-0.322,0.028l-0.301,0.033l-0.277,0.038l-0.25,0.037l-0.227,0.04l-0.199,0.042l-0.172,0.043l-6.941,1.93l-0.286,0.088
		l-0.229,0.091l-6.632,3.409l-0.256,0.138l-0.173,0.138l-5.714,4.565l-0.229,0.184l-4.885,5.805l-0.149,0.229l-3.671,6.669
		l-2.291,7.234c0,0-0.037,0.299-0.869,7.837l-0.065,5.543l-0.064,5.532l-0.063,5.52l-0.064,5.507l-0.063,5.495l-0.063,5.483
		l-0.063,5.471l-0.062,5.458l0.651,7.388L582.247,162.546z"/>
	<path style="fill:#FFFFFF;" d="M225.776,199.311v5.379c0,0.338-0.067,0.904,0.173,1.142c0.236,0.233,0.353,0.607,0.685,0.607
		c0.005,0,0.01,0,0.015,0l84.893-1.273c0.342-0.005,0.667-0.27,0.902-0.518s0.359-0.642,0.344-0.983l-0.24-5.472
		c-0.001-0.036-0.021-0.079-0.025-0.114c-0.012-0.096-0.035-0.192-0.068-0.281c-0.021-0.058-0.041-0.117-0.07-0.169
		c-0.053-0.098-0.121-0.184-0.197-0.265c-0.024-0.024-0.043-0.054-0.07-0.076c-0.111-0.099-0.238-0.177-0.381-0.231
		c-0.003-0.002-0.005-0.004-0.008-0.005c-0.031-0.013-0.056-0.035-0.089-0.045l-1.21-0.353l2.595-0.517l17.037-2.932l22.319-3.268
		l22.494-2.768l25.976-2.643l29.478-2.382l26.155-1.628l28.315-1.152c0.677-0.027,0.978-0.584,0.978-1.261v-5.074
		c0-0.363,0.077-0.684-0.168-0.915l-3.462-4.372l-3.075-4.037c-0.251-0.324-0.62-0.515-1.025-0.487l-40.339,1.834l-36.105,2.261
		l-32.05,2.571l-33.199,3.314l-27.419,3.335l-21.468,3.083l-17.184,2.873l-6.898,1.309l-2.001,0.413l-14.363-3.958
		c-0.414-0.113-0.855-0.01-1.175,0.274l-20.049,17.838c-0.011,0.01-0.017,0.022-0.027,0.032c-0.03,0.029-0.052,0.064-0.079,0.096
		c-0.071,0.083-0.132,0.17-0.179,0.266c-0.021,0.044-0.038,0.088-0.055,0.135c-0.038,0.107,0.143,0.218,0.135,0.332
		C225.588,199.257,225.776,199.281,225.776,199.311z M389.67,180.359c35.25-4.067,85.105-5.76,94.105-6.028v2.561l-27.394,1.104
		l-26.22,1.631l-29.535,2.386l-26.032,2.648l-22.55,2.775l-22.38,3.276l-17.102,2.943l-7.386,1.472l-5.341-1.555
		C314.056,190.917,355.037,183.581,389.67,180.359z M227.776,200.558l82.243-1.062l0.098,2.916l-82.341,0.999V200.558z"/>
	<path style="fill:#FFFFFF;" d="M81.849,193.383l0.707,7.751l0.703,7.725l0.702,7.701l0.7,7.676l0.696,7.652l0.696,7.627l0.078,0.77
		l2.058,10.23l0.309,0.762l4.184,9.552l0.512,0.72l6.081,8.43l0.66,0.641l7.646,6.922l0.729,0.533l0.883,0.512l7.921,4.594
		l0.702,0.403l0.818,0.385l0.935,0.36l1.047,0.338l8.631,2.74l0.796,0.215l0.862,0.195l0.93,0.176l0.99,0.156l1.049,0.136
		l1.104,0.114l1.151,0.091l1.196,0.069l1.237,0.047l4.454-0.036l0.644-0.13h0.654l0.67,0.132l0.679,0.048l0.686,0.002l0.688-0.026
		l0.689-0.049l0.688-0.064l0.683-0.075l0.675-0.089l0.667-0.098l0.65-0.108l0.638-0.115l4.058-0.811l1.221-0.25l1.178-0.264
		l1.132-0.279l1.082-0.291l1.027-0.305l0.966-0.315l0.906-0.325l0.839-0.334l0.768-0.34l0.7-0.346l8.055-4.193l0.895-0.502
		l0.781-0.506l0.664-0.508l7.538-6.318l0.685-0.635l0.53-0.629l6.211-7.941l0.429-0.716l4.45-9.075l0.266-0.762l2.47-9.807
		l0.063-0.77l0.376-10.109l-0.502-7.43l-0.505-7.454l-0.505-7.476l-0.506-7.498l-0.508-7.523l-0.51-7.546l-0.512-7.568l-0.513-7.593
		l-1.772-10.287l-0.14-0.55l-3.851-9.786L183.384,142l-0.281-0.417l-7.513-7.7l-0.379-0.331l-8.904-6.129l-0.407-0.243l-0.526-0.234
		l-9.752-4.225l-0.437-0.15l-0.518-0.142l-0.594-0.136l-9.75-2.064l-0.34-0.064l-0.379-0.061l-0.414-0.055l-0.447-0.051
		l-0.482-0.045l-0.513-0.04l-0.542-0.035l-0.568-0.029l-0.593-0.023l-0.615-0.017l-0.635-0.012l-0.653-0.006l-0.667-0.001
		l-0.679,0.006l-0.691,0.012l-0.695,0.017l-0.703,0.023l-0.702,0.029l-0.702,0.035l-0.7,0.04l-0.691,0.045l-0.685,0.049
		l-0.671,0.054l-0.659,0.061l-0.641,0.063l-0.622,0.07l-0.6,0.072l-0.575,0.075l-0.551,0.079l-0.521,0.083l-0.489,0.085
		l-0.459,0.088l-0.423,0.091l-0.389,0.091l-0.348,0.092l-0.313,0.095l-9.66,2.966l-0.54,0.188l-0.457,0.19l-0.378,0.189
		l-9.355,5.181l-0.438,0.283l-8.127,6.995l-0.415,0.372l-6.513,8.52l-0.315,0.454l-4.587,9.686c0,0-0.148,0.521-2.583,10.955
		l-0.167,10.685l0.71,7.798L81.849,193.383z"/>
	<path style="fill:#FFFFFF;" d="M811.125,220.002l-0.543,9.185l-0.541,9.148l-0.539,9.115l-0.537,9.08l-0.535,9.045l-0.533,9.012
		l-0.531,8.978l-0.529,8.944l0.56,12.159l0.177,1.157l3.078,11.772l0.419,1.144l5.444,10.852l0.61,1.068l0.831,1.079l7.429,9.288
		l0.905,0.94l1.088,0.938l8.855,7.183l1.008,0.745l1.143,0.738l1.275,0.729l1.401,0.713l8.78,4.211l1.055,0.482l1.133,0.467
		l1.206,0.453l1.275,0.436l1.339,0.414l1.4,0.393l1.451,0.371l1.5,0.346l1.541,0.318l1.576,0.291l1.604,0.263l1.626,0.233
		l1.642,0.201l1.649,0.168l1.651,0.137l1.646,0.104l1.634,0.086l1.614,0.051h1.587l1.557-0.05l1.516-0.077l1.471-0.104l1.419-0.136
		l1.36-0.169l1.299-0.2l1.229-0.23l1.155-0.262l9.318-2.416l1.568-0.422l1.445-0.463l1.318-0.5l1.185-0.537l10.044-5.422
		l1.323-0.721l1.139-0.758l0.95-0.795l9.189-8.028l0.877-0.955l7.315-9.957l0.702-1.073l5.025-11.409l0.457-1.14l2.453-12.311
		l0.178-1.148l0.811-9.206l0.813-9.241l0.816-9.275l0.821-9.313l0.821-9.351l0.827-9.385l0.831-9.424l0.832-9.458l-0.252-12.99
		l-0.121-0.873l-3.001-12.643l-0.366-0.794l-5.592-11.727l-8-10.425l-0.443-0.559l-0.637-0.562l-9.813-8.424l-0.632-0.426
		l-11.264-6.196l-0.522-0.285l-0.62-0.283l-0.716-0.281l-0.809-0.278l-0.899-0.273l-10.682-3.157l-0.497-0.134l-0.54-0.131
		l-0.58-0.129l-0.618-0.123l-0.653-0.12l-0.686-0.115l-0.717-0.108l-0.744-0.103l-0.769-0.096l-0.788-0.089l-0.81-0.082
		l-0.823-0.075l-0.836-0.068l-0.846-0.061l-0.85-0.051l-0.854-0.043l-0.854-0.036l-0.848-0.026l-0.841-0.155l-0.829-0.145h-0.816
		l-0.801,0.145l-0.779,0.086l-0.758,0.06l-0.73,0.051l-0.703,0.052l-0.671,0.056l-0.639,0.062l-0.601,0.067l-0.563,0.075
		l-0.521,0.083l-0.479,0.09l-11.191,2.12l-0.854,0.189l-0.766,0.201l-0.674,0.214l-0.577,0.224l-11.647,4.902l-0.713,0.346
		l-0.568,0.361l-10.646,7.263l-0.561,0.49l-8.966,9.197l-0.462,0.616l-6.91,10.744l-0.291,0.734c0,0-4.567,11.846-6.602,24.244
		L811.125,220.002z"/>
	<path style="fill:#FFFFFF;" d="M675.273,390.557c0.5-0.191,0.826-0.677,0.812-1.212c-0.014-0.535-0.363-1.004-0.873-1.169
		l-109.108-35.321c-0.331-0.106-0.693-0.073-0.998,0.096c-0.306,0.169-0.528,0.456-0.614,0.794l-4.516,17.718l-11.298,0.425
		l-29.139,0.273l-36.703-0.793l-45.49-2.489l-42.892-3.843l-45.69-5.78l-46.681-7.941l-36.831-7.993
		c-0.236-0.052-0.482-0.033-0.709,0.051l-68.302,25.48c-0.522,0.194-0.854,0.709-0.818,1.265s0.433,1.022,0.976,1.148l69.52,16.058
		l56.924,9.96l65.563,8.406l58.911,5.001l48.962,2.321l41.087,0.499l17.141-0.306l4.336-0.167l-1.255,7.255l-3.214,0.124
		l-17.04,0.313l-40.918-0.506l-48.768-2.361l-58.69-5.088l-65.324-8.555l-56.695-10.128l-69.341-16.355
		c-0.683-0.165-1.359,0.26-1.519,0.938s0.261,1.358,0.939,1.519l69.409,16.37l56.821,10.151l65.437,8.569l58.793,5.097l48.861,2.366
		l41.002,0.508l17.105-0.313l2.701-0.104l-1.998,11.547c-0.007,0.039-0.001,0.077-0.005,0.115c-0.001,0.02-0.012,0.036-0.013,0.056
		l-0.372,10.396c-0.016,0.425,0.185,0.829,0.531,1.074c0.217,0.154,0.473,0.233,0.73,0.233c0.155,0,0.311-0.028,0.46-0.087
		l118.502-46.313c0.649-0.254,0.97-0.986,0.716-1.636c-0.253-0.649-0.986-0.972-1.636-0.716L557.352,443.12l0.273-7.641
		L675.273,390.557z"/>
	<circle style="fill:#FFFFFF;" cx="897.683" cy="91.438" r="53.352"/>
	<circle style="fill:#FFFFFF;" cx="625.437" cy="31.438" r="31.438"/>
	<circle style="fill:#FFFFFF;" cx="126.999" cy="63.877" r="46"/>
	<path style="fill:#FFFFFF;" d="M338.957,146.938c0.057,0,0.114-0.002,0.17-0.007l70.099-5.993c7.606-0.047,13.55-6.179,13.55-14
		v-86c0-7.695-6.159-13.959-13.745-14l-69.75-4.995c-0.048-0.003-0.095-0.005-0.143-0.005c-7.785,0-14.361,6.411-14.361,14v97
		C324.776,140.658,331.137,146.938,338.957,146.938z M328.776,35.938c0-5.399,4.707-9.963,10.293-10l69.745,4.995
		c0.048,0.003,0.095,0.005,0.143,0.005c5.506,0,9.819,4.393,9.819,10v86c0,5.607-4.234,10-9.639,10c-0.057,0-0.114,0.002-0.17,0.007
		l-70.092,5.992c-5.576-0.043-10.099-4.512-10.099-10V35.938z"/>
	<path style="fill:#FFFFFF;" d="M347.539,113.418c4.364,2.449,8.854,1.979,13.083-0.34c3.82-2.095,5.882-5.348,5.805-9.92
		c-0.12-7.098-0.006-14.199-0.046-21.299c-0.013-2.124,0.547-3.921,2.691-4.613c7.806-2.519,15.639-4.958,23.499-7.299
		c2.117-0.63,2.446,0.359,2.447,1.502c0.178,6.231,0.112,12.47,0.112,18.762c-7.39-1.168-12.134,0.178-15.651,4.255
		c-3.345,3.877-2.94,9.221,1.131,11.642c4.292,2.551,8.8,2.093,13.082-0.132c3.96-2.057,6.253-5.212,6.215-9.955
		c-0.095-12.069-0.104-24.14,0.024-36.209c0.029-2.801-0.132-4.396-1.965-5.481c-1.782-0.893-3.878-0.354-4.344-0.211
		c-8.229,2.523-16.482,4.966-24.687,7.568c-5.365,1.702-7.127,4.259-7.161,9.847c-0.028,4.564-0.026,9.127-0.032,13.692
		c-0.004,3.928-0.001,7.855-0.001,11.937c-6.646-1.179-12.031,0.296-15.913,5.606C343.157,106.423,343.931,111.393,347.539,113.418z
		"/>
	<path style="fill:#FFFFFF;" d="M470.51,204.438h-82.58c-9.459,0-17.154,6.994-17.154,15.591v114.636
		c0,8.936,7.947,16.773,17.007,16.773h82.875c8.737,0,16.118-7.682,16.118-16.773V220.029
		C486.776,211.287,479.631,204.438,470.51,204.438z M482.776,334.665c0,6.924-5.549,12.773-12.118,12.773h-82.875
		c-6.807,0-13.007-6.088-13.007-12.773V220.029c0-6.934,6.802-11.591,13.154-11.591h82.58c6.878,0,12.266,5.091,12.266,11.591
		V334.665z"/>
	<path style="fill:#FFFFFF;" d="M461.38,240.522c-10.82-0.002-54.103-0.004-64.923,0c-3.765,0.002-4.838,1.033-4.84,4.709
		c-0.007,21.799-0.007,43.598,0,65.396c0.001,3.718,1.038,4.725,4.826,4.727c21.641,0.004,43.282,0.004,64.922,0
		c3.967-0.001,5.017-1.063,5.017-5.066c0.004-21.563,0.004-43.124,0-64.686C466.381,241.613,465.296,240.522,461.38,240.522z
		 M405.776,309.017c0,0.785-0.637,1.422-1.423,1.422h-6.154c-0.786,0-1.423-0.637-1.423-1.422v-6.156
		c0-0.785,0.637-1.422,1.423-1.422h6.154c0.786,0,1.423,0.637,1.423,1.422V309.017z M405.776,295.017
		c0,0.785-0.637,1.422-1.423,1.422h-6.154c-0.786,0-1.423-0.637-1.423-1.422v-6.156c0-0.785,0.637-1.422,1.423-1.422h6.154
		c0.786,0,1.423,0.637,1.423,1.422V295.017z M405.776,281.017c0,0.785-0.637,1.422-1.423,1.422h-6.154
		c-0.786,0-1.423-0.637-1.423-1.422v-6.156c0-0.785,0.637-1.422,1.423-1.422h6.154c0.786,0,1.423,0.637,1.423,1.422V281.017z
		 M405.776,268.016c0,0.786-0.637,1.423-1.423,1.423h-6.154c-0.786,0-1.423-0.637-1.423-1.423v-6.154
		c0-0.786,0.637-1.423,1.423-1.423h6.154c0.786,0,1.423,0.637,1.423,1.423V268.016z M405.776,254.017
		c0,0.785-0.637,1.422-1.423,1.422h-6.154c-0.786,0-1.423-0.637-1.423-1.422v-6.156c0-0.785,0.637-1.422,1.423-1.422h6.154
		c0.786,0,1.423,0.637,1.423,1.422V254.017z M441.572,290.907c-0.016,2.195-0.944,3.484-3.182,2.184
		c-7.557-4.387-15.052-8.881-22.546-13.373c-1.803-1.08-1.811-2.451-0.041-3.52c7.401-4.465,14.837-8.877,22.29-13.257
		c2.205-1.296,3.458-0.55,3.478,2.017C441.604,269.235,441.601,286.535,441.572,290.907z M460.776,309.017
		c0,0.785-0.637,1.422-1.423,1.422h-6.154c-0.786,0-1.423-0.637-1.423-1.422v-6.156c0-0.785,0.637-1.422,1.423-1.422h6.154
		c0.786,0,1.423,0.637,1.423,1.422V309.017z M460.776,295.017c0,0.785-0.637,1.422-1.423,1.422h-6.154
		c-0.786,0-1.423-0.637-1.423-1.422v-6.156c0-0.785,0.637-1.422,1.423-1.422h6.154c0.786,0,1.423,0.637,1.423,1.422V295.017z
		 M460.776,281.017c0,0.785-0.637,1.422-1.423,1.422h-6.154c-0.786,0-1.423-0.637-1.423-1.422v-6.156
		c0-0.785,0.637-1.422,1.423-1.422h6.154c0.786,0,1.423,0.637,1.423,1.422V281.017z M460.776,268.016
		c0,0.786-0.637,1.423-1.423,1.423h-6.154c-0.786,0-1.423-0.637-1.423-1.423v-6.154c0-0.786,0.637-1.423,1.423-1.423h6.154
		c0.786,0,1.423,0.637,1.423,1.423V268.016z M460.776,254.017c0,0.785-0.637,1.422-1.423,1.422h-6.154
		c-0.786,0-1.423-0.637-1.423-1.422v-6.156c0-0.785,0.637-1.422,1.423-1.422h6.154c0.786,0,1.423,0.637,1.423,1.422V254.017z"/>
	<path style="fill:#FFFFFF;" d="M728.015,147.772l67.102,5.754c0.057,0.005,0.114,0.007,0.171,0.007
		c7.438,0,13.488-6.066,13.488-13.523v-24.615c0.039-0.229,0.041-0.46,0-0.688V46.866c0-7.457-6.095-13.523-13.586-13.523
		c-0.048,0-0.096,0.001-0.143,0.005l-66.985,4.796c-7.333,0.041-13.286,6.091-13.286,13.523v82.583
		C714.776,141.803,720.583,147.726,728.015,147.772z M718.776,51.667c0-5.34,4.111-9.523,9.36-9.523
		c0.048,0,0.096-0.001,0.143-0.005l66.979-4.796c5.254,0.037,9.518,4.295,9.518,9.523v64.147l-29.778-22.51
		c-0.736-0.558-1.759-0.536-2.475,0.049l-18.521,15.189l-5.49-4.395c-0.652-0.521-1.559-0.583-2.272-0.158l-27.464,16.332V51.667z
		 M718.776,120.175l28.318-16.84l5.674,4.542c0.739,0.59,1.787,0.584,2.519-0.015l18.556-15.218l30.934,23.383v23.985
		c0,5.224-4.212,9.479-9.407,9.522l-67.094-5.753c-0.057-0.005-0.114-0.007-0.171-0.007c-5.23,0-9.328-4.183-9.328-9.523V120.175z"
		/>
	<path style="fill:#FFFFFF;" d="M756.469,71.425c0-7.247-5.469-13.143-12.191-13.143c-6.722,0-12.189,5.896-12.189,13.143
		s5.468,13.143,12.189,13.143C751,84.568,756.469,78.672,756.469,71.425z M744.278,80.568c-4.516,0-8.189-4.102-8.189-9.143
		s3.674-9.143,8.189-9.143c4.517,0,8.191,4.102,8.191,9.143S748.794,80.568,744.278,80.568z"/>
	<path style="fill:#FFFFFF;" d="M721.695,197.862l0.016,0.021c0.02,0.025,0.044,0.043,0.064,0.066
		c0.036,0.041,0.069,0.085,0.111,0.122c0.005,0.005,0.012,0.008,0.018,0.012c0.037,0.031,0.078,0.056,0.118,0.082
		c0.039,0.025,0.076,0.055,0.118,0.075c0.047,0.024,0.096,0.04,0.144,0.058c0.04,0.015,0.078,0.031,0.119,0.042
		c0.052,0.014,0.105,0.019,0.159,0.025c0.04,0.005,0.079,0.013,0.119,0.014c0.012,0,0.024,0.004,0.036,0.004
		c0.021,0,0.041-0.009,0.062-0.01c0.054-0.003,0.106-0.001,0.16-0.01l21.404-3.829l6.479,0.946l15.704,2.657l19.851,3.942
		l18.579,4.325c0.195-0.831,0.395-1.649,0.598-2.452l-18.645-4.341l-19.926-3.958l-15.768-2.668l-5.58-0.815l0.121-2.697
		l5.314,0.759l15.724,2.603l19.879,3.863l19.613,4.465c2.18-7.992,4.436-13.846,4.436-13.846l0.325-0.82l0.946-1.471l-14.556-2.589
		l0.273-4.924c0.002-0.03-0.012-0.056-0.013-0.085c0-0.032,0.013-0.061,0.01-0.093c-0.005-0.061-0.034-0.113-0.048-0.171
		c-0.017-0.072-0.03-0.142-0.059-0.209c-0.035-0.082-0.083-0.152-0.134-0.224c-0.04-0.057-0.074-0.114-0.122-0.164
		c-0.063-0.064-0.137-0.111-0.212-0.161c-0.057-0.038-0.107-0.08-0.171-0.108c-0.087-0.039-0.183-0.054-0.279-0.073
		c-0.056-0.011-0.104-0.039-0.163-0.042c-0.01,0-0.019,0.004-0.028,0.004c-0.01,0-0.019,0.065-0.029,0.065l-85.356-0.814
		c-0.004,0-0.009,0-0.013,0c-0.146,0-0.286-0.039-0.421,0.009c-0.021,0.007-0.038-0.018-0.059-0.01
		c-0.125,0.052-0.238,0.104-0.34,0.193c-0.017,0.015-0.034,0.017-0.05,0.032c-0.104,0.099-0.196,0.206-0.262,0.339
		c-0.003,0.006-0.004,0.011-0.007,0.018c-0.006,0.012-0.007,0.025-0.013,0.038c-0.055,0.127-0.085,0.258-0.097,0.393
		c-0.002,0.021-0.014,0.039-0.015,0.061l-0.189,4.983c-0.011,0.292,0.079,0.578,0.256,0.811L721.695,197.862z M795.101,178.977
		l-0.134,2.412l-1.709,0.321l-7.033-1.096L795.101,178.977z M724.153,192.882l19.074-3.339l-0.119,2.647l-19.066,3.411
		L724.153,192.882z M712.224,180.072l9.428,12.15l-0.055,1.332l-9.414-12.417L712.224,180.072z"/>
	<path style="fill:#FFFFFF;" d="M209.559,328.812l8.344-1.968l7.958-2.075l7.54-2.17l7.094-2.254l6.623-2.323l6.131-2.388
		l5.27-2.281l105.256,10.569v-2.537l-105.33-10.577c-0.213-0.026-0.43,0.011-0.627,0.098l-5.528,2.394l-6.048,2.354l-6.547,2.297
		l-7.025,2.232l-7.476,2.151l-7.899,2.06l-8.289,1.954l-8.643,1.84l-8.955,1.712l-9.23,1.575l-9.455,1.427l-9.632,1.269
		l-9.766,1.104l-9.841,0.931l-9.87,0.752l-9.838,0.566l-9.759,0.379l-9.621,0.188l-9.434-0.004l-9.194-0.196l-8.902-0.387
		l-8.562-0.574l-8.181-0.759l-7.754-0.935l-7.286-1.106l-6.785-1.27l-6.251-1.424l-5.688-1.566l-5.1-1.696l-4.491-1.81l-3.916-1.941
		l-3.237-2.001l-2.591-2.06l-1.949-2.089l-1.315-2.071c-0.528-1.767-0.538-3.599-0.4-5.058l1.801,1.891
		c0.043,0.046,0.09,0.088,0.14,0.126l2.725,2.116c0.039,0.03,0.079,0.058,0.121,0.083l3.349,2.025
		c0.033,0.021,0.068,0.039,0.103,0.057l4.058,1.96l4.655,1.837l5.243,1.703l5.813,1.565l6.361,1.414l6.886,1.259l7.376,1.095
		l7.838,0.924l8.26,0.748l8.639,0.564l8.977,0.382l9.264,0.193l9.502,0.004l9.689-0.187l9.824-0.372l9.908-0.556l9.932-0.739
		l9.909-0.914l9.832-1.085l9.701-1.248l9.523-1.401l9.297-1.547l9.025-1.686l8.712-1.811l8.363-1.924l7.977-2.029l7.555-2.121
		l7.111-2.204l6.638-2.272l6.144-2.334l1.706-0.721l108.457,10.837v-10.95l-81.751-7.95l0.106-0.113
		c0.038-0.04,0.072-0.082,0.104-0.127l1.729-2.419c0.04-0.055,0.074-0.113,0.104-0.174l1.181-2.381
		c0.037-0.073,0.065-0.149,0.087-0.229l0.637-2.335c0.024-0.09,0.039-0.182,0.043-0.274l0.104-2.277c0.002-0.04,0.001-0.081,0-0.121
		l-0.404-8.013c-0.001-0.017-0.01-0.029-0.012-0.046c-0.004-0.043-0.001-0.086-0.009-0.129l-0.416-2.169
		c-0.018-0.094-0.046-0.186-0.085-0.272l-0.93-2.101c-0.033-0.075-0.074-0.147-0.122-0.215l-1.428-2.029
		c-0.04-0.056-0.084-0.109-0.132-0.158l-0.775-0.79l81.969-16.419v-2.576l-84.304,16.887l-1.312-1.025
		c-0.035-0.027-0.07-0.053-0.107-0.075l-2.354-1.477l88.078-17.315v-8.517l-104.018,20.011l-1.3-0.401l-4.889-1.289l-5.225-1.178
		l-5.55-1.065l-5.853-0.95l-6.139-0.836l-6.401-0.719l-6.65-0.602l-6.874-0.48l-6.81-0.351l-1.247,4.953l-0.297,0.853l-4.98,10.156
		l-0.479,0.801l-6.951,8.888l-0.593,0.704l-0.766,0.71l-8.436,7.071l-0.743,0.568l-0.874,0.565l-1.001,0.563l-9.014,4.692
		l-0.783,0.387l-0.859,0.381l-0.938,0.374l-1.014,0.363l-1.081,0.354l-1.15,0.341l-1.211,0.325l-1.267,0.313l-1.318,0.295
		l-1.366,0.28l-4.541,0.907l-0.713,0.129l-0.728,0.122l-0.747,0.109l-0.755,0.101l-0.764,0.088l-0.769,0.076l-0.772,0.064
		l-0.769,0.051l-0.768,0.038l-0.759-0.147l-0.75-0.162h-0.732l-0.72,0.158l-4.985-0.032l-1.385-0.01l-1.338-0.055l-1.289-0.091
		l-1.236-0.123l-1.174-0.149l-1.108-0.173l-1.041-0.196l-0.965-0.218l-0.891-0.24l-9.659-3.066l-1.171-0.379l-1.046-0.402
		l-0.916-0.431l-0.786-0.452l-8.865-5.141l-0.988-0.572l-0.815-0.597l-8.557-7.747l-0.739-0.717l-6.806-9.434l-0.573-0.806
		l-2.291-5.231l-5.277,1.05l-7.313,1.588l-7.113,1.687l-6.892,1.78l-6.64,1.87l-6.364,1.956l-6.061,2.035l-5.73,2.113l-5.379,2.184
		l-4.996,2.25l-4.589,2.311l-4.161,2.364l-3.706,2.418l-3.141,2.393c-0.031,0.022-0.06,0.048-0.088,0.074l-2.628,2.412
		c-0.036,0.032-0.069,0.067-0.101,0.104l-2.096,2.424c-0.028,0.033-0.055,0.067-0.08,0.104c-0.212,0.304-1.287,1.855-1.643,2.604
		c-1.533,3.231-0.375,7.491-0.296,7.764l0.822,2.266c-0.345,1.388-1.103,5.276,0.087,9.032c0.033,0.104,0.079,0.202,0.138,0.295
		l1.469,2.313c0.042,0.065,0.09,0.128,0.143,0.185l2.094,2.244c0.043,0.046,0.089,0.088,0.138,0.127l2.723,2.164
		c0.039,0.031,0.08,0.06,0.122,0.086l3.35,2.07c0.033,0.021,0.067,0.039,0.103,0.057l4.057,2.008l4.653,1.877l5.237,1.742l5.806,1.6
		l6.354,1.447l6.876,1.287l7.367,1.118l7.827,0.944l8.248,0.765l8.624,0.579l8.959,0.39l9.248,0.197l9.485,0.004l9.67-0.188
		l9.807-0.381l9.884-0.569l9.917-0.756l9.887-0.935l9.813-1.109l9.679-1.275l9.502-1.435l9.278-1.583l9.005-1.722L209.559,328.812z
		 M276.378,294.514c0.029-0.021,0.057-0.042,0.084-0.064l2.85-2.412c0.034-0.028,0.066-0.06,0.096-0.091l2.291-2.395
		c0.038-0.04,0.073-0.082,0.105-0.126l1.735-2.364c0.012-0.016,0.02-0.033,0.031-0.05l0.024,0.48l-0.095,2.077l-0.567,2.081
		l-1.081,2.181l-1.623,2.27l-1.37,1.468l-5.967-0.58L276.378,294.514z"/>
	<path style="fill:#FFFFFF;" d="M1048.616,386.347l0.158-3.562c0.008-0.086,0.007-0.173-0.004-0.259l-0.418-3.597
		c-0.009-0.079-0.025-0.157-0.05-0.233l-1.14-3.619c-0.021-0.066-0.047-0.131-0.078-0.192l-1.838-3.623
		c-0.026-0.052-0.056-0.102-0.089-0.148l-2.509-3.612c-0.027-0.04-0.058-0.078-0.089-0.114l-3.154-3.586
		c-0.026-0.029-0.054-0.059-0.083-0.085l-3.843-3.611l-4.419-3.542l-4.964-3.466l-5.477-3.381l-5.958-3.287l-6.407-3.185
		l-6.822-3.075l-7.207-2.957l-7.558-2.837l-7.879-2.703l-8.167-2.57l-8.423-2.429l-8.653-2.288l-5.542-1.337l-0.021,0.105
		l-0.51,1.271l-5.601,12.717l-0.783,1.196l-8.154,11.098l-0.977,1.065l-10.243,8.948l-1.059,0.886l-1.27,0.845l-1.475,0.804
		l-11.195,6.043l-1.32,0.599l-1.47,0.558l-1.61,0.516l-1.748,0.471l-10.387,2.692l-1.288,0.293l-1.37,0.256l-1.448,0.222
		l-1.517,0.188l-1.581,0.149l-1.64,0.112l-1.688,0.198l-1.735,0.16h-1.769l-1.8-0.16l-1.82-0.139l-1.835-0.146l-1.84-0.167
		l-1.839-0.196l-1.829-0.228l-1.813-0.262l-1.787-0.295l-1.756-0.323l-1.718-0.356l-1.672-0.385l-1.618-0.414l-1.562-0.438
		l-1.491-0.462l-1.422-0.485l-1.344-0.505l-1.263-0.521l-1.176-0.537l-9.787-4.693l-1.562-0.795l-1.422-0.813l-1.273-0.823
		l-1.123-0.829l-9.87-8.006l-1.213-1.046l-1.009-1.049l-8.28-10.353l-0.926-1.203l-0.682-1.191l-6.068-12.095l-0.467-1.274
		l-3.431-13.122l-0.197-1.29l-0.308-6.681c-26.673-17.415-98.809-64.515-127.547-83.279l0.932-0.104l5.322-0.697l5.045-0.772
		l4.746-0.843l4.43-0.909l4.097-0.972l3.746-1.032l3.393-1.085l3.025-1.139l2.655-1.192l2.174-1.184
		c0.036-0.02,0.071-0.041,0.105-0.063l1.779-1.207c0.046-0.031,0.09-0.065,0.131-0.103l1.379-1.229
		c0.056-0.05,0.106-0.104,0.152-0.162l0.98-1.247c0.061-0.076,0.111-0.16,0.152-0.248l0.584-1.256
		c0.067-0.145,0.106-0.3,0.116-0.459l0.328-5.626c0.267-1.063,0.104-1.909,0.085-1.981l-0.199-1.231
		c-0.019-0.118-0.055-0.233-0.106-0.342l-0.584-1.227c-0.04-0.084-0.089-0.163-0.146-0.236l-0.956-1.219
		c-0.044-0.056-0.092-0.107-0.144-0.155l-1.321-1.202c-0.038-0.035-0.079-0.067-0.121-0.097l-1.677-1.185
		c-0.032-0.022-0.065-0.043-0.1-0.063l-2.1-1.203l-2.414-1.162l-2.721-1.124l-3.014-1.083l-3.297-1.043l-3.563-0.998l-3.815-0.952
		l-4.054-0.905l-4.272-0.852l-4.48-0.803l-4.669-0.748l-4.84-0.69l-4.996-0.633l-4.485-0.502l-3.552,6.102l-0.334,0.412l-5.49,6.159
		l-0.41,0.352l-6.512,4.844l-0.421,0.276l-0.514,0.27l-7.059,3.24l-0.418,0.182l-0.479,0.176l-0.536,0.168l-0.593,0.16l-0.646,0.151
		l-0.696,0.143l-5.924,1.186l-0.378,0.067l-0.402,0.063l-0.423,0.059l-0.441,0.049l-0.459,0.046l-0.479,0.039l-0.489,0.033
		l-0.502,0.027l-0.511,0.02l-2.635,0.119l-0.526-0.081l-0.523-0.058l-0.515-0.046l-0.505-0.048l-0.496-0.049l-0.482-0.055
		l-0.468-0.057l-0.45-0.063l-0.434-0.067l-0.41-0.073l-0.389-0.078l-0.366-0.084l-5.999-1.411l-0.67-0.168l-0.615-0.175
		l-0.561-0.182l-0.507-0.189l-0.443-0.19l-6.795-3.411l-0.552-0.283L596.21,194l-0.371-0.29l-6.313-5.063l-0.346-0.366l-5.222-6.323
		l-0.257-0.421l-3.296-6.202l-4.252,0.319l-5.013,0.451l-4.863,0.513l-4.696,0.572l-4.515,0.632l-4.316,0.691l-4.104,0.749
		l-3.873,0.802l-3.634,0.856l-3.377,0.909l-3.111,0.96l-2.828,1.011l-2.535,1.063l-2.145,1.066
		c-0.032,0.016-0.063,0.033-0.092,0.051l-1.815,1.101c-0.04,0.024-0.078,0.05-0.114,0.078l-1.475,1.131
		c-0.049,0.037-0.095,0.078-0.138,0.123l-1.125,1.16c-0.057,0.059-0.109,0.124-0.154,0.193l-0.765,1.182
		c-0.059,0.091-0.105,0.188-0.139,0.292l-0.442,1.202c-0.04,0.121-0.109,0.248-0.109,0.375v0.022c-1,2.454-1.3,6.712,2.957,11.221
		c1.928,2.042,4.785,3.586,7.457,4.703l-37.413,7.216v7.97l67.971-13.362l5.851,0.911l5.621,0.756l5.845,0.683l6.042,0.607
		l6.213,0.527l6.353,0.443l6.463,0.359l6.544,0.271l6.59,0.183l6.604,0.093l6.587,0.003l6.535-0.089l3.376-0.094l140.649,96.503
		l-4.577,0.597L643.49,219.361c-0.036-0.025-0.077-0.029-0.115-0.05c-0.078-0.045-0.156-0.08-0.244-0.106
		c-0.078-0.024-0.153,0.114-0.233,0.106c-0.045-0.006-0.084,0.127-0.13,0.127c-0.013,0-0.024,0-0.036,0l-5.94,0.015l-6.491,0.016
		l-6.541-0.04l-6.561-0.113l-6.548-0.195l-6.496-0.281l-6.418-0.368l-6.309-0.454l-6.167-0.534l-5.993-0.62l-5.794-0.692
		l-5.568-0.769l-5.314-0.835l-4.73-0.846c-0.156-0.026-0.315-0.024-0.471,0.005l-63.613,12.742v2.576l63.875-12.795l4.521,0.808
		l5.364,0.843l5.615,0.775l5.837,0.697l6.033,0.623l6.206,0.538l6.346,0.455l6.455,0.368l6.532,0.277l6.583,0.187l6.597,0.096
		l6.577,0.002l6.526-0.093l5.541-0.156l130.379,91.178l-6.443,1.015l-7.166,1.347l-6.836,1.508l-6.481,1.674l-6.107,1.835
		l-5.71,1.992l-5.294,2.154l-4.848,2.313l-4.304,2.413c-0.028,0.017-0.058,0.034-0.085,0.053l-3.811,2.555
		c-0.033,0.022-0.064,0.046-0.096,0.071l-3.291,2.688c-0.036,0.029-0.071,0.062-0.104,0.095l-2.753,2.817
		c-0.039,0.04-0.076,0.083-0.109,0.127l-1.342,1.798l-214.207-20.832v11.297l210.233,21.006l0.083,3.273
		c0.002,0.096,0.016,0.191,0.04,0.284l0.369,1.427c-0.165-0.108-0.349-0.191-0.555-0.212l-210.171-21.104v2.537l208.986,20.986
		l1.863,9.479c0.018,0.089,0.045,0.176,0.081,0.259l1.544,3.565c0.023,0.054,0.051,0.106,0.081,0.157l2.217,3.622
		c0.026,0.043,0.056,0.085,0.087,0.124l2.897,3.662c0.026,0.034,0.055,0.066,0.085,0.097l3.586,3.689
		c0.025,0.025,0.052,0.051,0.078,0.074l4.348,3.762l5.029,3.743l5.707,3.715l6.377,3.67l7.033,3.606l7.675,3.527l8.294,3.432
		l8.889,3.314l9.446,3.178l9.971,3.027l10.452,2.854l10.889,2.66l11.271,2.454l11.599,2.229l11.865,1.988l12.07,1.734l12.21,1.464
		l12.278,1.188l12.28,0.9l12.208,0.606l12.067,0.309l11.855,0.006l11.577-0.294l11.23-0.594l10.822-0.889l10.354-1.178l9.83-1.459
		l9.258-1.727l8.641-1.986l7.982-2.231l7.296-2.465l6.576-2.684l5.746-2.836c0.032-0.016,0.063-0.033,0.095-0.052l4.978-3.007
		c0.037-0.022,0.072-0.047,0.106-0.072l4.203-3.161c0.041-0.031,0.08-0.064,0.117-0.1l3.418-3.296
		c0.044-0.043,0.085-0.088,0.122-0.137l2.639-3.409c0.044-0.057,0.083-0.117,0.116-0.182l1.856-3.504
		c0.038-0.071,0.069-0.146,0.093-0.224l1.088-3.58c0.022-0.074,0.202-0.15,0.21-0.227l1.326-10.393c0-0.003,0-0.006,0-0.009
		C1048.776,386.359,1048.616,386.354,1048.616,386.347z M536.031,207.833c-3.098-0.941-7.833-2.736-10.435-5.491
		c-1.414-1.497-2.164-2.928-2.53-4.224c8.07,6.167,22.146,7.945,22.146,7.945L536.031,207.833z M662.467,214.046l5.341-0.481
		l5.583-0.604l5.328-0.68l5.051-0.755l4.752-0.822l4.432-0.891l4.102-0.948l3.751-1.007l3.394-1.063l3.026-1.111l2.656-1.164
		l2.177-1.154c0.036-0.02,0.071-0.04,0.105-0.063l1.757-1.17l-0.085,1.454l-0.421,0.904l-0.821,1.044l-1.233,1.1l-1.659,1.126
		l-2.031,1.11l-2.496,1.119l-2.894,1.089l-3.283,1.05l-3.653,1.006l-4.016,0.952l-4.359,0.895l-4.684,0.831l-4.988,0.764l-5.27,0.69
		l-3.955,0.438C665.796,216.22,663.896,214.979,662.467,214.046z M1044.79,396.37l-1.019,3.352l-1.748,3.302l-2.517,3.251
		l-3.295,3.178l-4.091,3.076l-4.878,2.948l-5.615,2.774l-6.421,2.619l-7.159,2.418l-7.862,2.197l-8.531,1.961l-9.161,1.708
		l-9.741,1.446l-10.272,1.168l-10.746,0.882l-11.159,0.591l-11.51,0.292l-11.791-0.006l-12.006-0.307l-12.147-0.604l-12.221-0.896
		l-12.221-1.183l-12.152-1.457l-12.012-1.726l-11.807-1.979l-11.539-2.217l-11.209-2.44l-10.825-2.645l-10.384-2.835l-9.901-3.006
		l-9.372-3.152l-8.809-3.285l-8.207-3.396l-7.582-3.483l-6.931-3.553l-6.264-3.604l-5.583-3.634l-4.893-3.64l-4.232-3.668
		l-3.505-3.605l-2.81-3.551l-2.131-3.481l-1.454-3.359l-1.55-7.882l1.11,2.498c0.024,0.055,0.052,0.107,0.084,0.158l2.225,3.543
		c0.027,0.044,0.057,0.085,0.089,0.125l2.908,3.584c0.027,0.033,0.056,0.064,0.086,0.095l3.596,3.611
		c0.025,0.025,0.052,0.051,0.08,0.073l4.36,3.682l5.043,3.662l5.723,3.637l6.394,3.589l7.055,3.53l7.695,3.453l8.317,3.357
		l8.91,3.245l9.473,3.11l9.997,2.963l10.48,2.792l10.914,2.606l11.303,2.402l11.628,2.181l11.896,1.945l12.103,1.698l12.238,1.434
		l12.311,1.164l12.31,0.881l12.238,0.593l12.097,0.09l11.853-0.203c0.011,0,0.021,0,0.032,0l11.602-0.079l11.257-0.475l10.846-0.816
		l10.374-1.128l9.851-1.414l9.275-1.686l8.655-1.939l7.995-2.184l7.304-2.41l6.586-2.625l5.752-2.777
		c0.032-0.015,0.063-0.031,0.094-0.05l4.983-2.943c0.036-0.021,0.072-0.045,0.106-0.07l4.203-3.096
		c0.041-0.03,0.08-0.063,0.117-0.099l3.419-3.226c0.045-0.042,0.087-0.087,0.125-0.136l2.41-3.053L1044.79,396.37z"/>
</g>
</svg>
