<?xml version="1.0" encoding="utf-8"?>
<!-- Generator: Adobe Illustrator 16.0.0, SVG Export Plug-In . SVG Version: 6.00 Build 0)  -->
<!DOCTYPE svg PUBLIC "-//W3C//DTD SVG 1.1//EN" "http://www.w3.org/Graphics/SVG/1.1/DTD/svg11.dtd">
<svg version="1.1" id="Layer_1" xmlns="http://www.w3.org/2000/svg" xmlns:xlink="http://www.w3.org/1999/xlink" x="0px" y="0px"
	 width="90%" height="90%" viewBox="119.127 486.4 1720.689 1156.575"
	 enable-background="new 119.127 486.4 1720.689 1156.575" xml:space="preserve">
<g>
	<path fill="#FFFFFF" d="M1111.439,1220.799c10.896,0,19.799-8.803,19.847-19.688c0.032-5.303-2.006-10.27-5.737-14.039
		c-3.729-3.77-8.701-5.844-14.101-5.871c-10.894,0-19.8,8.809-19.854,19.697c-0.057,10.941,8.8,19.9,19.743,19.9H1111.439
		 M1099.732,1200.948c0.033-6.502,5.213-11.76,11.775-11.76c3.163,0,6.13,1.275,8.355,3.525c2.227,2.248,3.718,5.178,3.699,8.352
		c-0.03,6.498-5.173,11.734-11.571,11.734h-0.335C1105.123,1212.799,1099.697,1207.481,1099.732,1200.948"/>
	<path fill="#FFFFFF" d="M1616.305,816.993c-0.248-0.445-0.496-0.893-0.748-1.336c0.146,0.301,0.301,0.604,0.438,0.906
		C1616.104,816.708,1616.198,816.848,1616.305,816.993"/>
	<path fill="#FFFFFF" d="M1174.4,1468.799H1780.8v16H1174.4V1468.799z"/>
	<path fill="#FFFFFF" d="M1174.4,1579.2H1780.8v16H1174.4V1579.2z"/>
	<path fill="#FFFFFF" d="M1174.4,523.2H1780.8v16H1174.4V523.2z"/>
	<path fill="#FFFFFF" d="M1039.264,1507.792c3.846,0,7.606-1.01,10.803-3.016c6.082-3.814,9.434-10.549,9.437-18.963
		c0.004-6.207,0.012-11.898,0.021-17.488c0.021-0.477,0.021-0.924,0-1.34c0-0.643,0.004-1.285,0.004-1.928
		c0.013-7.707,0.024-15.363,0.024-24.049c0-4.664,0.798-5.82,4.489-6.516c4.832-0.912,11.944-2.57,17.664-3.904
		c1.839-0.432,3.251-0.832,4.755-1.176l1.553-0.428v-19.826l-2.586,0.617c-3.538,0.75-6.416,1.443-9.354,2.121
		c-4.161,0.953-8.185,1.855-13.146,2.824c-5.586,1.09-8.514,4.766-8.514,10.922v15.365c0,8.691,0.162,16.346,0.148,24.049
		c0,0.949,0.084,1.898,0.084,2.852c-0.079,2.203-0.768,8.344-6.448,8.986c-1.136,0.125-3.138,0.273-5.409,0.441
		c-4.322,0.318-9.21,0.68-11.386,1.109c-6.285,1.248-9.893,5.057-10.441,11.014c-0.621,6.779,2.689,13.078,8.486,16.064
		c3.133,1.516,6.514,2.266,9.827,2.266 M1059.213,1425.631c0-4.912,2.516-5.781,4.711-6.209c5.038-0.982,8.778-1.896,12.979-2.857
		c2.085-0.48,4.709-0.969,6.309-1.48v10.066c0,0.234-1.783,0.486-2.91,0.752c-5.669,1.322-12.739,2.969-17.472,3.861
		c-1.428,0.27-2.018,0.66-3.618,1.152L1059.213,1425.631 M1025.739,1489.887c0.354-3.828,2.391-5.906,6.604-6.744
		c1.888-0.375,6.837-0.738,10.814-1.031c2.368-0.176,4.416-0.326,5.616-0.461c2.481-0.281,4.43-1.168,5.942-2.41
		c0,2.135-0.003,4.313-0.005,6.563c-0.005,6.703-2.558,11.994-7.188,14.902c-4.565,2.863-10.692,3.053-15.935,0.521
		C1027.594,1499.163,1025.298,1494.709,1025.739,1489.887"/>
	<path fill="#FFFFFF" d="M1025.6,1642.975l85.854-52.633l-85.854-53.881v106.512 M1030.4,1545.133l71.946,45.152l-71.946,44.107
		v-89.266"/>
	<path fill="#FFFFFF" d="M1088.304,518.4h0.054c5.714,0,10.385-4.293,10.41-10.002c0.019-2.779-1.051-5.225-3.008-7.2
		c-1.957-1.979-4.566-2.987-7.398-3c-5.712,0-10.384,4.336-10.413,10.048C1077.918,513.984,1082.564,518.4,1088.304,518.4
		 M1088.389,503.086c1.499,0.007,2.904,0.599,3.959,1.664c1.055,1.066,1.454,2.479,1.444,3.979
		c-0.015,3.054-2.546,5.532-5.709,5.572c-3.058-0.055-5.438-2.563-5.424-5.632C1082.661,505.591,1085.281,503.086,1088.389,503.086"
		/>
	<path fill="#FFFFFF" d="M1115.2,486.4h-110.4v88h110.4V486.4 M1110.4,569.6H1009.6v-38.021l0.549,0.807l31.656-21.474
		l26.021,27.528l13.48-9.781l29.088,31.659v9.28 M1110.395,553.226l-28.454-30.962l-13.528,9.816l-25.928-27.424l-32.891,22.311
		v-35.759h100.801v62.025"/>
	<path fill="#FFFFFF" d="M873.2,1132.639l-84.363,30.625c-16.397-29.564-47.771-48.543-82.399-48.543
		c-10.505,0-20.896,1.762-30.899,5.23l-492.992,170.945c-23.771,8.215-42.915,25.207-53.905,47.844
		c-11.006,22.672-12.515,48.271-4.253,72.08c13.136,37.934,48.926,63.422,89.058,63.422c10.493,0,20.88-1.756,30.877-5.221
		l492.991-170.992c23.806-8.244,42.963-25.26,53.942-47.908c8.648-17.836,11.386-37.49,8.136-56.652l84.382-30.625
		c-3.896-9.895-7.436-19.965-10.587-30.203 M762.466,1236.161c-7.25,14.955-19.901,26.188-35.629,31.635l-492.992,170.992
		c-6.614,2.293-13.477,3.453-20.394,3.453c-26.504,0-50.144-16.834-58.824-41.902c-5.46-15.734-4.465-32.646,2.807-47.623
		c7.253-14.941,19.886-26.156,35.584-31.582l493.008-170.961c6.618-2.299,13.484-3.463,20.409-3.463
		c26.496,0,50.129,16.83,58.811,41.891c5.456,15.717,4.469,32.605-2.779,47.559"/>
	<path fill="#FFFFFF" d="M1229.872,1166.624c-6.474-0.229-11.063,4.785-11.167,12.775c-1.262,52.848-2.721,104.287-10.95,156.398
		c8.358,1.654,16.789,2.986,25.275,3.992c10.618-53.867,11.778-104.111,9.73-159.328c-0.405-7.99-6.626-13.617-12.896-13.836"/>
	<path fill="#FFFFFF" d="M1415.952,1172.208c-0.22-0.002-0.224,0-0.224,0c-4.023,0.037-7.496,2.252-9.961,6.158
		c-16.259,23.074-35.172,43.871-52.832,65.854c-13.089-23.531-27.313-46.295-42.358-68.619c-2.532-3.859-7.086-6.004-11.028-6.166
		c-0.494-0.02-0.496-0.02-0.741-0.029c-7.389-0.301-13.013,5.461-12.682,13.119c2.2,54.863-0.376,106.207-12.387,159.551
		c7.96-0.035,15.87-0.369,23.73-0.959c8.802-37.85,12.767-75.188,14.433-114.176c10.152,17.01,19.408,34.291,27.09,52.574
		c1.958,4.32,5.404,6.484,9.42,6.273c0.09-0.004,0.137-0.01,0.227-0.014c0.09-0.006,0.135-0.008,0.225-0.012
		c4.021-0.213,7.938-2.732,10.933-7.221c12.642-19.377,26.063-37.01,41.543-54.219c-3.426,33.902-7.739,66.547-17.744,98.758
		c8.91-3.141,17.664-6.682,26.246-10.559c14.33-40.793,19.491-82.84,19.093-126.656c-0.064-7.225-6.388-13.611-12.968-13.684"/>
	<path fill="#FFFFFF" d="M1526.512,1166.223c-4.943,0.525-10.971,4.314-13.988,9.867c-20.692,38.832-40.519,78.297-63.74,115.664
		c13.232-8.248,25.89-17.451,37.89-27.529c-1.179,0.234-2.427,0.479-3.766,0.738c9.891-16.51,19.392-33.193,29.924-49.311
		c-0.324,10.684-0.985,18.557-1.933,26.115c8.81-9.029,17.125-18.621,24.939-28.709c1.184-14.203,1.282-28.031,1.143-39.701
		c-0.637-5.115-5.162-7.693-10.469-7.131"/>
	<path fill="#FFFFFF" d="M1163.2,1185.6c0-16.42-13.312-28.801-30.965-28.801H974.043c1.323,2.684,2.677,5.35,4.074,7.998
		l154.111,0.002c13.093,0,22.965,8.943,22.965,20.801v104.801l-56.527-61.502l-26.761,19.416l-51.313-54.293l-17,11.59
		c1.571,2.154,3.173,4.291,4.8,6.416l11.07-7.547l51.456,54.432l26.679-19.361l57.579,62.656
		c-0.063,6.365-2.879,11.875-7.444,15.654c2.695,1.094,5.404,2.145,8.127,3.164c4.578-5.08,7.328-11.695,7.328-19.035v-1.367
		l0.76-0.697l-0.76-0.822v-113.51"/>
	<path fill="#FFFFFF" d="M1214.08,1122.688c1.291,0.76,2.65,1.223,4.183,1.457c4.815,0.736,9.345-2.066,11.409-8.293
		c4.512-14.762,7.155-23.525,12.448-40.336c17.507,1.051,34.998,2.01,52.531,2.545c3.63,17.76,5.555,27.035,9.92,43.012
		c1.782,6.758,6.512,10.465,11.366,10.551c1.543,0.027,3.082-0.244,4.161-0.781c6.188-3.076,9.009-12.531,6.678-21.939
		c-14.964-59.891-29.104-119.584-46.528-178.863c-2.029-6.064-6.904-9.217-11.664-9.014c-4.541,0.193-9.529,3.752-11.371,9.898
		c-15,57.648-34.14,112.879-50.967,169.92c-2.198,8.488,1.438,18.074,7.836,21.836 M1270.043,982.022
		c5.959,19.828,13.871,39.303,17.396,59.775c-13.233-0.254-19.959-0.408-34.341-0.813c7.54-19.199,12.357-38.896,16.943-58.971"/>
	<path fill="#FFFFFF" d="M1415.775,1130.817c42.638-0.395,62.673-58.824,65.713-93.025c2.486-34.211-0.76-68.789-3.232-102.975
		c-0.72-8.902-6.113-15.459-12.334-15.439c-6.221,0.021-10.854,6.592-10.332,15.48c1.811,34.338,4.5,68.977,2.453,103.328
		c-1.705,22.973-15.455,58.781-42.734,58.803c-28.026,0.021-41.574-34.789-42.685-58.674c-1.431-34.5,2.056-69.15,4.19-103.598
		c0.557-8.889-4.736-15.373-11.326-15.395c-6.813-0.021-12.459,6.398-12.95,15.305c-1.843,34.471-4.63,69.072-3.511,103.58
		C1350.328,1076.594,1369.129,1131.249,1415.775,1130.817"/>
	<path fill="#FFFFFF" d="M1527.088,920.127c-5.934-0.223-9.76,6.189-8.986,15.057c4.344,59.125,3.149,115.775-5.479,174.496
		c-1.519,9.07,1.542,15.586,7.478,14.936c9.032-0.994,13.586-1.543,22.832-2.742c18.377-2.762,36.862-13.984,52.135-29.182
		c12.279-47.406,13.746-96.48,5.119-143.664c-14.129-15.176-31.834-26.186-50.412-27.729c-9.142-0.611-13.65-0.836-22.685-1.176
		 M1603.008,1018.715c-0.216,29.252-23.562,65.744-54.309,70.463c-4.899,0.502-7.32,0.748-12.135,1.213
		c5.254-46.252,6.097-91.92,3.935-138.4c4.755,0.166,7.147,0.262,11.968,0.48c30.254,2.379,50.742,38.801,50.541,66.238"/>
	<path fill="#FFFFFF" d="M1005.344,1110.032c6.416,3.102,13.342,4.641,20.127,4.641c7.857,0,15.536-2.063,22.063-6.158
		c12.422-7.791,19.264-21.582,19.278-38.834c0.006-12.988,0.021-24.908,0.039-36.609c0.041-0.988,0.041-1.924,0.004-2.787
		c0.002-1.391,0.005-2.781,0.008-4.17c0.024-16.098,0.05-32.08,0.05-50.236c0-9.543,1.479-12.996,10.229-14.645
		c10.131-1.908,25.043-5.395,37.023-8.191c3.813-0.893,7.498-1.727,10.616-2.441l3.216-0.713v-39.426l-4.938,1.027
		c-7.381,1.566-13.816,3.021-19.938,4.43c-8.736,2.006-16.845,3.9-27.266,5.936c-11.146,2.168-16.653,9.521-16.653,21.859v32.16
		c0,18.143-0.166,34.135-0.191,50.223c-0.004,2.123-0.077,4.248-0.084,6.381c-0.196,5.037-1.963,18.115-14.544,19.533
		c-2.341,0.264-6.767,0.588-11.434,0.932c-9.015,0.664-19.248,1.418-23.735,2.311c-12.668,2.518-19.947,10.176-21.049,22.146
		c-1.271,13.773,5.433,26.564,17.18,32.629 M1067.198,943.706c0-10.545,4.815-12.965,10.185-14.008
		c10.558-2.061,18.903-3.969,27.705-5.99c4.709-1.082,10.109-2.191,14.909-3.359v23.162c-3.2,0.537-4.929,1.123-7.544,1.732
		c-11.906,2.781-26.636,6.244-36.598,8.121c-3.647,0.688-7.06,1.781-8.658,3.178v-12.832L1067.198,943.706z M996.127,1078.122
		c0.771-8.424,5.425-13.199,14.637-15.031c4.012-0.797,14.399-1.563,22.758-2.178c4.95-0.365,9.229-0.68,11.723-0.961
		c5.935-0.668,10.348-3.084,13.583-6.363c-0.005,5.209-0.01,10.545-0.012,16.08c-0.011,14.4-5.524,25.793-15.531,32.064
		c-9.851,6.176-23.053,6.596-34.364,1.137c-8.741-4.51-13.762-14.225-12.792-24.74"/>
	<path fill="#FFFFFF" d="M1260.688,869.952c0.363,0.59,0.784,1.842,0.824,2.332c0.021,0.234,0.182,0.295,0.182,0.295
		c0.153,0.574,0.771,1.285,0.877,1.734c0.088,0.371,0.073,0.697,0.127,0.85c0.152,0.436,1.013,1.268,1.326,1.447
		c0.095,0.055,0.209,0.006,0.209,0.006c0.572,0.576,1.399,1.6,1.724,1.721c0.139,0.047,0.206,0.006,0.206,0.006
		s0.133,0.229,0.181,0.281c0.058,0.063,1.307,0.488,1.634,0.6c0.139,0.049,0.416,0.014,0.416,0.014
		c0.603,0.293,1.446,0.314,2.077,0.332c0.632,0.016,1.366-0.119,2.12-0.219c0.176-0.021,0.422,0.014,0.422,0.014
		c0.653-0.26,1.396-0.361,1.725-0.506c0.183-0.08,0.277-0.236,0.44-0.268c0.552-0.1,1.345-1.074,1.781-1.344
		c0.438-0.27,0.436-0.271,0.436-0.271c0.46-0.549,0.896-0.818,1.353-1.373c0.229-0.275,0.228-0.275,0.473-0.838
		c0.244-0.563,0.925-1.537,1.152-1.684c0.072-0.047,0.152-0.094,0.225-0.281c0.18-0.467,0.721-1.713,0.961-2.287
		c19.011-58.207,32.287-118.398,49.256-177.264c1.179-4.049,1.149-8.527,0.181-12.533c-7.021-1.246-14.083-2.277-21.188-3.068
		c-0.065,0.203-0.142,0.395-0.201,0.605c-12.281,47.285-22.39,94.832-35.844,141.842c-11.396-48.416-29.071-94.346-46.641-140.816
		c-0.066-0.174-0.146-0.33-0.216-0.5c-7.369,1.016-14.678,2.271-21.92,3.766c-1.041,4.631-0.882,9.809,0.903,14.238
		c22.593,58.176,42.265,111.852,54.801,173.168"/>
	<path fill="#FFFFFF" d="M1376.912,880.223c7.492-0.049,14.658-7.104,14.664-16.531c-0.022-57.232-1.742-112.24-7.848-169.039
		c-6.773-2.404-13.619-4.592-20.528-6.549c-0.052,58.867,0.325,117.695,1.03,176.559c0.11,9.109,4.939,15.619,12.682,15.568"/>
	<path fill="#FFFFFF" d="M1464.704,878.481c15.099-0.488,22.774-0.775,37.653-1.443c28.664-0.66,47.076-20.141,53.459-43.602
		c-9.521-15.428-20.363-30.16-32.488-44.023c5.143,22.029-6.193,46.027-32.736,48.369c-6.83,0.701-10.273,1.047-17.178,1.717
		c-11.953-42.717-24.176-83.617-42.579-123.873c-5.909-3.197-11.899-6.209-17.968-9.033
		c15.854,51.082,24.676,100.424,32.096,154.047c1.295,9.934,9.828,18.176,19.746,17.855"/>
	<path fill="#FFFFFF" d="M1081.744,735.649l73.021,44.594l-138.768,85.248v-68.514c-3.2,3.314-6.4,6.693-8,10.129v72.672
		l162.032-99.535l-80.939-49.529c-2.442,1.617-4.943,3.254-7.344,4.932"/>
	<path fill="#FFFFFF" d="M1544.096,1281.696c72.672-72.672,112.704-169.313,112.704-272.098
		c0-102.781-40.032-199.406-112.704-272.096c-72.672-72.67-169.312-112.703-272.096-112.703s-199.408,40.033-272.096,112.705
		C927.216,810.176,887.2,906.817,887.2,1009.6s40.032,199.408,112.704,272.098c72.672,72.672,169.312,112.703,272.096,112.703
		S1471.408,1354.368,1544.096,1281.696 M927.2,1009.6c0-190.129,154.672-344.801,344.8-344.801s344.8,154.672,344.8,344.801
		s-154.672,344.801-344.8,344.801S927.2,1199.729,927.2,1009.6"/>
	<path fill="#FFFFFF" d="M1689.552,1201.696c-22.853,0-41.542,18.014-41.542,40.639c0,22.512,18.688,40.416,41.541,40.416
		c9.567,0,18.241-3.266,25.334-8.781c1.127-0.787,1.918-1.688,1.918-2.701v-0.109c0-0.227,0.633-0.338,0.744-0.564
		c0.112-0.676,0.855-1.127,0.855-1.914v-24.877c0-3.604-3.523-6.998-7.125-6.998c0,0,0,0-0.112,0c0,0,0,0-0.112,0h-22.178
		c-3.489,0-6.416,2.742-6.416,6.346c0,3.49,2.927,6.447,6.416,6.447h16.729v16.031c-4.801,2.59-10.108,4.277-15.738,4.277
		c-8.104,0-15.355-3.037-20.422-8.217c-5.291-5.066-8.521-11.934-8.521-19.361c0-7.654,3.11-14.527,8.401-19.586
		c5.066-5.178,12.141-8.219,20.246-8.219c6.754,0,12.928,2.363,17.775,6.078c2.814,2.252,6.975,1.689,9.113-1.014
		c2.139-2.814,1.688-6.979-1.24-9.117c-6.979-5.516-16.096-8.781-25.664-8.781"/>
	<path fill="#FFFFFF" d="M1786.145,1216c3.265,0,6.189-2.967,6.189-6.449c0-3.48-2.926-6.344-6.189-6.344h-36.475
		c-0.225,0-0.225,0-0.225,0h-0.114c-3.489,0-6.923,3.447-6.923,6.939v66.418c0,3.377,3.068,6.189,6.557,6.189l0.299,0.115
		c0,0,0.184,0.338,0.408,0.338h36.475c3.265,0,6.189-2.967,6.189-6.344c0-3.49-2.926-6.447-6.189-6.447h-30.938v-20.801h26.657
		c3.376,0,6.191-2.967,6.191-6.447c0-3.266-2.815-6.344-6.191-6.344h-26.657v-20.803h30.937"/>
	<path fill="#FFFFFF" d="M1739.136,973.2c-3.491,0-6.344,2.703-6.344,6.191v66.42c0,3.488,2.853,6.189,6.344,6.189
		c3.378,0,6.464-2.701,6.464-6.189v-66.42C1745.6,975.903,1742.521,973.2,1739.136,973.2"/>
	<path fill="#FFFFFF" d="M1828.448,982.993c-6.642-7.432-16.55-12.047-26.904-12.047c-10.808,0-20.714,4.615-27.581,12.047
		c-6.979,7.43-11.145,17.336-11.145,28.479c0,11.146,4.166,21.164,11.145,28.48c6.867,7.318,16.773,12.045,27.581,12.045
		c10.356,0,20.263-4.727,26.904-12.045c6.979-7.316,11.368-17.336,11.368-28.48C1839.816,1000.329,1835.429,990.42,1828.448,982.993
		 M1819.33,1031.055c-4.729,5.066-11.034,8.104-17.793,8.104c-7.204,0-13.508-3.037-18.236-8.104
		c-4.728-4.832-7.654-11.932-7.654-19.588c0-7.654,2.927-14.748,7.654-19.701c4.729-5.064,11.033-7.992,18.236-7.992
		c6.754,0,13.059,2.928,17.793,7.992c4.615,4.953,7.654,12.047,7.654,19.701C1826.984,1019.124,1823.945,1026.215,1819.33,1031.055"
		/>
	<path fill="#FFFFFF" d="M1711.184,832c3.266,0,6.191-2.967,6.191-6.344c0-3.49-2.927-6.465-6.191-6.465h-31.186v-20.801h26.908
		c3.375,0,6.19-2.967,6.19-6.465c0-3.266-2.815-6.344-6.19-6.344h-26.908v-19.199h31.186c3.266,0,6.191-2.967,6.191-6.449
		c0-3.48-2.927-6.344-6.191-6.344h-36.473c-0.227,0-0.227,0-0.227,0h-0.113c-3.49,0-5.572,2.301-5.572,5.791v66.418
		c0,3.363,1.59,6.164,6.344,6.189c-0.123,0-0.445,0.004-0.433,0.004h36.474"/>
	<path fill="#FFFFFF" d="M1742.592,762.993c-6.979,7.43-11.146,17.336-11.146,28.479c0,11.146,4.167,21.164,11.146,28.48
		c6.867,7.318,16.773,12.045,27.581,12.045c10.356,0,20.263-4.729,26.903-12.045c6.98-7.316,11.369-17.336,11.369-28.48
		s-4.391-21.051-11.369-28.479c-6.641-7.432-16.549-12.047-26.903-12.047C1759.365,750.946,1749.459,755.563,1742.592,762.993
		 M1795.616,791.471c0,7.656-3.038,14.748-7.655,19.59c-4.729,5.064-11.033,8.104-17.791,8.104c-7.205,0-13.51-3.039-18.237-8.104
		c-4.728-4.832-7.653-11.934-7.653-19.59c0-7.652,2.927-14.746,7.653-19.699c4.729-5.066,11.034-7.994,18.237-7.994
		c6.753,0,13.057,2.928,17.791,7.994C1792.576,776.725,1795.616,783.817,1795.616,791.471"/>
	<path fill="#FFFFFF" d="M1558.992,1296.592c6.464-6.465,12.688-13.127,18.662-19.945c0.127,2.443,1.6,4.766,4.047,5.691
		c0.675,0.227,1.35,0.371,2.137,0.371c2.479,0,4.832-1.529,5.855-4.008l5.515-14.699h27.36l5.515,14.719
		c0.901,2.48,3.265,3.982,5.741,3.982c0.789,0,1.576-0.09,2.139-0.314c3.266-1.236,4.848-4.832,3.715-8.096l-20.462-54.264
		c30.842-50.695,50.097-107.535,56.368-167.23h0.544c21.728,0,39.288-18.074,39.288-39.914c0-21.568-17.488-39.609-39.15-39.686
		c-4.594-51.973-19.002-101.904-42.307-147.631c10.647-7.064,17.68-19.043,17.68-32.848c0-21.613-17.563-39.131-39.288-39.131
		h-13.284c-3.49,0-5.459,2.301-5.459,5.789v2.543c-10.609-13.719-22.146-26.859-34.609-39.324
		c-76.656-76.654-178.576-118.879-286.992-118.879s-210.336,42.217-286.992,118.879c-76.656,76.66-118.88,178.576-118.88,286.992
		s42.218,210.336,118.88,286.99c76.659,76.66,178.576,118.881,286.992,118.881s210.336-42.217,286.992-118.881 M1677.184,985.735
		c14.362,0.555,25.743,12.342,25.743,26.738c0,14.684-11.696,26.807-26.157,27.359c0.732-10.018,1.104-20.104,1.104-30.252
		c0-7.988-0.232-15.939-0.689-23.854 M1599.711,1251.186l1.801-4.523c3.254-4.504,6.416-9.064,9.467-13.684l6.97,18.207H1599.711
		 M1604.801,766.385h7.543c14.859,0,26.793,11.693,26.793,26.439c0,9.031-4.359,16.756-11.063,21.646
		c-7.054-12.832-14.806-25.309-23.271-37.375L1604.801,766.385 M875.729,1009.586c0-218.496,177.761-396.271,396.271-396.271
		s396.271,177.76,396.271,396.271c0,218.496-177.761,396.271-396.271,396.271S875.729,1228.098,875.729,1009.586"/>
</g>
</svg>
