<?xml version="1.0" encoding="utf-8"?>
<!-- Generator: Adobe Illustrator 16.0.0, SVG Export Plug-In . SVG Version: 6.00 Build 0)  -->
<!DOCTYPE svg PUBLIC "-//W3C//DTD SVG 1.1//EN" "http://www.w3.org/Graphics/SVG/1.1/DTD/svg11.dtd">
<svg version="1.1"
	 sodipodi:docname="MultimediaConverter.svg" inkscape:version="0.48.4 r9939" xmlns:sodipodi="http://sodipodi.sourceforge.net/DTD/sodipodi-0.dtd" xmlns:svg="http://www.w3.org/2000/svg" xmlns:cc="http://creativecommons.org/ns#" xmlns:inkscape="http://www.inkscape.org/namespaces/inkscape" xmlns:dc="http://purl.org/dc/elements/1.1/" xmlns:rdf="http://www.w3.org/1999/02/22-rdf-syntax-ns#"
	 xmlns="http://www.w3.org/2000/svg" xmlns:xlink="http://www.w3.org/1999/xlink" x="0px" y="0px" width="1100.009px"
	 height="633.007px" viewBox="43.781 101.93 1100.009 633.007" enable-background="new 43.781 101.93 1100.009 633.007"
	 xml:space="preserve">
<sodipodi:namedview  inkscape:pageshadow="2" inkscape:window-height="1377" inkscape:pageopacity="0" inkscape:current-layer="svg2" inkscape:window-maximized="1" inkscape:window-width="2560" inkscape:window-x="-8" inkscape:window-y="-8" pagecolor="#ffffff" bordercolor="#666666" objecttolerance="10" gridtolerance="10" borderopacity="1" inkscape:zoom="1.2639534" guidetolerance="10" inkscape:cy="405.91614" inkscape:cx="667.35597" showgrid="false">
	</sodipodi:namedview>
<g transform="translate(9.7902102,-10.06993)">
</g>
<g transform="translate(9.7902102,-10.06993)">
</g>
<g transform="translate(9.7902102,-10.06993)">
</g>
<g transform="translate(9.7902102,-10.06993)">
</g>
<g transform="translate(9.7902102,-10.06993)">
</g>
<g transform="translate(9.7902102,-10.06993)">
</g>
<g transform="translate(9.7902102,-10.06993)">
</g>
<g transform="translate(9.7902102,-10.06993)">
</g>
<g transform="translate(9.7902102,-10.06993)">
</g>
<g transform="translate(9.7902102,-10.06993)">
</g>
<g transform="translate(9.7902102,-10.06993)">
</g>
<g transform="translate(9.7902102,-10.06993)">
</g>
<g transform="translate(9.7902102,-10.06993)">
</g>
<g transform="translate(9.7902102,-10.06993)">
</g>
<g transform="translate(9.7902102,-10.06993)">
</g>
<g>
	<polygon fill="#FFFFFF" points="693.262,129.279 690.849,122.037 689.606,122.037 692.606,130.762 693.86,130.762 696.86,122.037 
		695.676,122.037 	"/>
	<path fill="#FFFFFF" d="M701.776,124.762c-0.234-0.25-0.508-0.434-0.82-0.551c-0.312-0.117-0.672-0.176-1.078-0.176
		c-0.901,0-1.632,0.316-2.19,0.947c-0.56,0.631-0.838,1.479-0.838,2.545c0,1.082,0.287,1.918,0.862,2.506
		c0.576,0.588,1.388,0.881,2.431,0.881c0.265,0,0.483-0.015,0.658-0.046c0.174-0.031,0.368-0.076,0.584-0.135
		c0.152-0.043,0.324-0.102,0.516-0.178c0.191-0.076,0.351-0.14,0.479-0.191v-1.201h-0.063c-0.09,0.074-0.203,0.154-0.34,0.238
		c-0.138,0.084-0.306,0.17-0.504,0.26c-0.188,0.086-0.399,0.156-0.632,0.211c-0.231,0.055-0.469,0.082-0.711,0.082
		c-0.676,0-1.205-0.202-1.588-0.604s-0.573-0.984-0.573-1.746h4.534v-0.598c0-0.523-0.063-0.965-0.188-1.326
		S702.01,125.012,701.776,124.762z M697.969,126.76c0.022-0.278,0.077-0.52,0.163-0.729c0.087-0.209,0.212-0.4,0.375-0.572
		c0.169-0.168,0.354-0.295,0.56-0.383s0.455-0.133,0.748-0.133c0.297,0,0.545,0.043,0.746,0.129s0.366,0.211,0.496,0.375
		c0.117,0.149,0.208,0.33,0.27,0.545c0.063,0.215,0.097,0.471,0.105,0.768H697.969z"/>
	<path fill="#FFFFFF" d="M703.854,124.217v6.545h1.102v-4.887c0.278-0.234,0.563-0.423,0.854-0.57s0.573-0.221,0.847-0.221
		c0.277,0,0.496,0.041,0.656,0.121s0.285,0.201,0.375,0.365c0.082,0.156,0.138,0.365,0.167,0.625c0.028,0.26,0.044,0.539,0.044,0.84
		v3.727H709v-4.247c0-0.805-0.181-1.418-0.545-1.842c-0.364-0.424-0.867-0.637-1.512-0.637c-0.356,0-0.693,0.078-1.014,0.234
		c-0.321,0.156-0.646,0.381-0.974,0.674v-0.728H703.854z"/>
	<path fill="#FFFFFF" d="M710.739,124.216v4.248c0,0.441,0.051,0.816,0.155,1.125c0.104,0.309,0.25,0.565,0.437,0.768
		c0.188,0.203,0.407,0.351,0.659,0.445c0.252,0.094,0.521,0.141,0.806,0.141c0.375,0,0.716-0.075,1.021-0.23
		c0.305-0.155,0.627-0.381,0.967-0.678v0.727h1.101v-6.547h-1.102v4.887c-0.254,0.223-0.534,0.41-0.838,0.563
		s-0.591,0.229-0.861,0.229c-0.289,0-0.511-0.039-0.665-0.117c-0.154-0.078-0.275-0.201-0.366-0.369
		c-0.09-0.172-0.147-0.372-0.173-0.6c-0.024-0.228-0.038-0.517-0.038-0.865v-3.727H710.739z"/>
	<polygon fill="#FFFFFF" points="718.228,130.762 719.862,128.289 721.45,130.762 722.805,130.762 720.541,127.44 722.803,124.217 
		721.549,124.217 719.933,126.666 718.356,124.217 717.002,124.217 719.252,127.516 716.979,130.762 	"/>
	<polygon fill="#FFFFFF" points="731.74,126.894 729.561,122.037 727.979,122.037 727.979,130.762 729.063,130.762 729.063,123.244 
		731.318,128.359 732.021,128.359 734.294,123.244 734.294,130.762 735.454,130.762 735.455,130.762 735.455,122.037 
		733.844,122.037 	"/>
	<path fill="#FFFFFF" d="M737.328,124.216v4.248c0,0.441,0.051,0.816,0.155,1.125c0.104,0.309,0.25,0.565,0.437,0.768
		c0.188,0.203,0.407,0.351,0.659,0.445c0.252,0.094,0.521,0.141,0.806,0.141c0.375,0,0.716-0.075,1.021-0.23
		c0.305-0.155,0.627-0.381,0.967-0.678v0.727h1.101v-6.547h-1.102v4.887c-0.254,0.223-0.534,0.41-0.838,0.563
		s-0.591,0.229-0.861,0.229c-0.289,0-0.511-0.039-0.665-0.117c-0.153-0.078-0.275-0.201-0.366-0.369
		c-0.09-0.172-0.147-0.372-0.173-0.6c-0.024-0.228-0.038-0.517-0.038-0.865v-3.727H737.328z"/>
	<rect x="744.331" y="121.645" fill="#FFFFFF" width="1.103" height="9.117"/>
	<path fill="#FFFFFF" d="M747.384,122.336v1.881h-0.743v0.914h0.743v3.627c0,0.738,0.168,1.279,0.505,1.621
		c0.336,0.342,0.804,0.512,1.405,0.512c0.181,0,0.375-0.014,0.588-0.048c0.214-0.034,0.424-0.08,0.63-0.139v-0.99h-0.063
		c-0.074,0.035-0.195,0.08-0.362,0.133c-0.167,0.053-0.341,0.078-0.521,0.078c-0.254,0-0.456-0.033-0.604-0.102
		c-0.147-0.069-0.256-0.172-0.322-0.309c-0.077-0.156-0.122-0.324-0.135-0.504c-0.012-0.18-0.018-0.436-0.018-0.768v-3.111h2.025
		v-0.914h-2.025v-1.881H747.384z"/>
	<rect x="751.514" y="121.978" fill="#FFFFFF" width="1.255" height="1.143"/>
	<polygon fill="#FFFFFF" points="752.691,130.762 752.692,130.762 752.692,124.217 751.59,124.217 751.59,130.762 	"/>
	<path fill="#FFFFFF" d="M754.549,124.217v6.545h1.103v-4.887c0.246-0.23,0.5-0.419,0.762-0.568c0.263-0.149,0.513-0.223,0.75-0.223
		c0.246,0,0.441,0.036,0.586,0.111c0.146,0.075,0.256,0.19,0.334,0.346c0.074,0.145,0.123,0.346,0.146,0.602
		c0.022,0.256,0.035,0.533,0.035,0.834v3.785h1.102v-4.307c0-0.125-0.003-0.232-0.009-0.324c-0.006-0.092-0.011-0.172-0.016-0.238
		c0.278-0.262,0.548-0.461,0.807-0.6c0.259-0.139,0.502-0.209,0.729-0.209c0.246,0,0.441,0.036,0.586,0.111
		c0.146,0.075,0.256,0.19,0.334,0.346c0.074,0.145,0.123,0.346,0.146,0.602c0.022,0.256,0.035,0.533,0.035,0.834v3.785v0.001h1.104
		v-4.307c0-0.449-0.049-0.822-0.144-1.119c-0.095-0.297-0.231-0.545-0.407-0.744c-0.172-0.195-0.373-0.336-0.604-0.424
		c-0.231-0.088-0.487-0.133-0.769-0.133c-0.371,0-0.714,0.095-1.031,0.287c-0.316,0.192-0.641,0.473-0.973,0.844
		c-0.157-0.402-0.384-0.691-0.683-0.867c-0.3-0.176-0.642-0.264-1.028-0.264c-0.34,0-0.652,0.08-0.936,0.238
		c-0.282,0.158-0.568,0.381-0.857,0.67v-0.728H754.549z"/>
	<path fill="#FFFFFF" d="M770.07,127.006c0-0.523-0.063-0.965-0.188-1.326s-0.305-0.668-0.538-0.918
		c-0.234-0.25-0.509-0.434-0.82-0.551c-0.313-0.117-0.672-0.176-1.078-0.176c-0.902,0-1.632,0.316-2.191,0.947
		c-0.559,0.631-0.838,1.479-0.838,2.545c0,1.082,0.287,1.918,0.863,2.506s1.387,0.881,2.43,0.881c0.267,0,0.484-0.015,0.658-0.046
		c0.174-0.031,0.369-0.076,0.584-0.135c0.153-0.043,0.325-0.102,0.517-0.178c0.19-0.076,0.351-0.14,0.479-0.191v-1.201h-0.064
		c-0.09,0.074-0.202,0.154-0.34,0.238c-0.137,0.084-0.305,0.17-0.504,0.26c-0.188,0.086-0.398,0.156-0.631,0.211
		s-0.469,0.082-0.711,0.082c-0.676,0-1.205-0.202-1.588-0.604s-0.574-0.984-0.574-1.746h4.535V127.006z M765.535,126.76
		c0.023-0.278,0.078-0.52,0.164-0.729s0.211-0.4,0.375-0.572c0.168-0.168,0.354-0.295,0.559-0.383
		c0.205-0.088,0.455-0.133,0.748-0.133c0.298,0,0.545,0.043,0.746,0.129s0.367,0.211,0.496,0.375
		c0.118,0.149,0.208,0.33,0.271,0.545c0.062,0.215,0.097,0.471,0.104,0.768H765.535z"/>
	<path fill="#FFFFFF" d="M776.463,130.762v-9.117h-1.102v2.836c-0.271-0.152-0.526-0.264-0.769-0.336
		c-0.241-0.072-0.526-0.109-0.854-0.109c-0.371,0-0.727,0.082-1.064,0.244c-0.338,0.162-0.625,0.385-0.862,0.67
		c-0.262,0.313-0.467,0.68-0.615,1.1c-0.149,0.42-0.224,0.916-0.224,1.49c0,0.551,0.06,1.04,0.177,1.463s0.282,0.779,0.498,1.068
		c0.211,0.285,0.468,0.501,0.77,0.65s0.633,0.223,0.988,0.223c0.223,0,0.418-0.021,0.586-0.062s0.33-0.1,0.486-0.174
		c0.168-0.078,0.313-0.165,0.438-0.258c0.125-0.093,0.273-0.212,0.445-0.357v0.668H776.463z M774.536,129.701
		c-0.293,0.131-0.584,0.195-0.873,0.195c-0.543,0-0.938-0.202-1.184-0.611s-0.369-0.998-0.369-1.768c0-0.801,0.16-1.412,0.479-1.836
		c0.32-0.424,0.765-0.637,1.33-0.637c0.254,0,0.489,0.026,0.705,0.076s0.463,0.142,0.736,0.275v3.773
		C775.104,129.391,774.829,129.57,774.536,129.701z"/>
	<rect x="778.243" y="121.978" fill="#FFFFFF" width="1.254" height="1.143"/>
	<rect x="778.319" y="124.217" fill="#FFFFFF" width="1.102" height="6.545"/>
	<path fill="#FFFFFF" d="M783.317,126.599c-0.5,0.065-0.935,0.18-1.302,0.348c-0.413,0.188-0.717,0.442-0.907,0.76
		c-0.191,0.318-0.287,0.703-0.287,1.156c0,0.293,0.052,0.572,0.158,0.836c0.105,0.264,0.245,0.484,0.422,0.664
		c0.184,0.184,0.396,0.327,0.639,0.428s0.498,0.152,0.769,0.152c0.328,0,0.584-0.028,0.765-0.082
		c0.181-0.054,0.37-0.132,0.565-0.234c0.141-0.07,0.286-0.164,0.437-0.283c0.149-0.119,0.271-0.213,0.36-0.279v0.696h1.096v-4.477
		c0-0.41-0.059-0.758-0.176-1.043c-0.117-0.285-0.295-0.517-0.533-0.697c-0.246-0.184-0.523-0.311-0.832-0.381
		s-0.688-0.105-1.137-0.105c-0.371,0-0.746,0.035-1.125,0.105s-0.67,0.134-0.873,0.193v1.119h0.063
		c0.343-0.144,0.688-0.254,1.031-0.33c0.343-0.076,0.642-0.115,0.896-0.115c0.216,0,0.425,0.015,0.627,0.045
		c0.203,0.03,0.375,0.088,0.517,0.178c0.14,0.086,0.25,0.209,0.328,0.367s0.117,0.365,0.117,0.623v0.211
		C784.356,126.486,783.817,126.534,783.317,126.599z M784.936,127.335v1.816c-0.247,0.218-0.512,0.404-0.792,0.555
		c-0.281,0.151-0.595,0.225-0.943,0.225c-0.406,0-0.715-0.095-0.926-0.287s-0.316-0.475-0.316-0.85c0-0.332,0.095-0.59,0.287-0.775
		s0.435-0.324,0.728-0.414c0.246-0.074,0.569-0.131,0.97-0.172C784.342,127.392,784.673,127.358,784.936,127.335z"/>
	<polygon fill="#FFFFFF" points="797.35,123.068 797.35,122.037 791.895,122.037 791.895,130.761 797.35,130.761 797.35,129.73 
		793.055,129.73 793.055,126.49 797.057,126.49 797.057,125.459 793.055,125.459 793.055,123.068 	"/>
	<path fill="#FFFFFF" d="M798.778,124.217v6.545h1.102v-4.887c0.278-0.234,0.563-0.423,0.854-0.57s0.573-0.221,0.847-0.221
		c0.277,0,0.496,0.041,0.656,0.121s0.285,0.201,0.375,0.365c0.082,0.156,0.138,0.365,0.167,0.625c0.028,0.26,0.044,0.539,0.044,0.84
		v3.727h1.102v-4.247c0-0.805-0.181-1.418-0.545-1.842c-0.363-0.424-0.867-0.637-1.512-0.637c-0.355,0-0.693,0.078-1.014,0.234
		c-0.321,0.156-0.646,0.381-0.974,0.674v-0.728H798.778z"/>
	<path fill="#FFFFFF" d="M809.573,131.189c-0.051,0.211-0.139,0.397-0.264,0.557c-0.134,0.16-0.318,0.285-0.555,0.375
		c-0.235,0.09-0.523,0.135-0.864,0.135c-0.203,0-0.391-0.016-0.563-0.047c-0.172-0.031-0.359-0.072-0.563-0.123
		c-0.184-0.046-0.349-0.095-0.492-0.148c-0.145-0.053-0.254-0.096-0.328-0.127h-0.059v1.148c0.289,0.086,0.602,0.154,0.936,0.205
		s0.661,0.076,0.98,0.076c0.996,0,1.736-0.26,2.222-0.779s0.727-1.334,0.727-2.443v-5.801h-1.037l-0.063,0.281
		c-0.25-0.149-0.499-0.262-0.747-0.342s-0.542-0.121-0.882-0.121c-0.359,0-0.707,0.077-1.043,0.229s-0.627,0.369-0.873,0.65
		c-0.258,0.293-0.462,0.65-0.615,1.07c-0.153,0.42-0.229,0.9-0.229,1.443c0,1.039,0.221,1.836,0.661,2.391
		c0.441,0.555,1.035,0.832,1.781,0.832c0.429,0,0.787-0.061,1.072-0.184c0.285-0.123,0.576-0.314,0.873-0.572v0.574
		C809.649,130.738,809.624,130.978,809.573,131.189z M809.648,128.987c-0.242,0.203-0.514,0.361-0.816,0.474
		c-0.303,0.113-0.597,0.17-0.882,0.17c-0.547,0-0.942-0.189-1.187-0.568s-0.366-0.931-0.366-1.658c0-0.766,0.16-1.354,0.479-1.764
		c0.32-0.41,0.76-0.615,1.318-0.615c0.23,0,0.461,0.03,0.693,0.086c0.233,0.056,0.486,0.15,0.76,0.283V128.987z"/>
	<rect x="812.531" y="121.978" fill="#FFFFFF" width="1.254" height="1.143"/>
	<rect x="812.607" y="124.217" fill="#FFFFFF" width="1.102" height="6.545"/>
	<path fill="#FFFFFF" d="M815.565,124.217v6.545h1.102v-4.887c0.278-0.234,0.562-0.423,0.853-0.57s0.574-0.221,0.848-0.221
		c0.277,0,0.496,0.041,0.656,0.121s0.285,0.201,0.375,0.365c0.082,0.156,0.137,0.365,0.166,0.625c0.029,0.26,0.045,0.539,0.045,0.84
		v3.727h1.102v-4.247c0-0.805-0.181-1.418-0.545-1.842c-0.363-0.424-0.867-0.637-1.512-0.637c-0.356,0-0.693,0.078-1.014,0.234
		c-0.321,0.156-0.646,0.381-0.974,0.674v-0.728H815.565z"/>
	<path fill="#FFFFFF" d="M826.973,124.762c-0.233-0.25-0.508-0.434-0.819-0.551c-0.313-0.117-0.672-0.176-1.078-0.176
		c-0.902,0-1.632,0.316-2.19,0.947c-0.56,0.631-0.839,1.479-0.839,2.545c0,1.082,0.288,1.918,0.864,2.506s1.386,0.881,2.429,0.881
		h0.001c0.265,0,0.484-0.015,0.658-0.046c0.174-0.031,0.368-0.076,0.583-0.135c0.153-0.043,0.325-0.102,0.517-0.178
		c0.19-0.076,0.351-0.14,0.479-0.191v-1.201h-0.063c-0.091,0.074-0.203,0.154-0.341,0.238c-0.137,0.084-0.305,0.17-0.504,0.26
		c-0.188,0.086-0.396,0.156-0.63,0.211c-0.232,0.055-0.47,0.082-0.712,0.082c-0.676,0-1.205-0.202-1.588-0.604
		s-0.574-0.984-0.574-1.746h4.535v-0.598c0-0.523-0.063-0.965-0.188-1.326S827.207,125.012,826.973,124.762z M823.165,126.76
		c0.023-0.278,0.078-0.52,0.164-0.729s0.211-0.4,0.375-0.572c0.168-0.168,0.355-0.295,0.56-0.383
		c0.205-0.088,0.455-0.133,0.748-0.133c0.297,0,0.546,0.043,0.746,0.129c0.201,0.086,0.366,0.211,0.495,0.375
		c0.118,0.149,0.208,0.33,0.271,0.545c0.062,0.215,0.097,0.471,0.104,0.768H823.165z"/>
	<path fill="#FFFFFF" d="M643.253,136.438v5.443c0,0.621,0.063,1.143,0.188,1.567c0.125,0.424,0.34,0.788,0.645,1.093
		c0.271,0.266,0.597,0.466,0.979,0.601s0.83,0.202,1.342,0.202c0.535,0,0.984-0.065,1.353-0.198
		c0.369-0.133,0.694-0.334,0.972-0.604c0.308-0.301,0.522-0.668,0.646-1.102s0.187-0.954,0.187-1.559v-5.443h-1.16v5.473
		c0,0.39-0.027,0.721-0.08,0.99s-0.15,0.515-0.295,0.738c-0.156,0.234-0.375,0.412-0.656,0.533
		c-0.281,0.121-0.604,0.182-0.967,0.182c-0.386,0-0.714-0.061-0.982-0.182c-0.268-0.121-0.479-0.299-0.635-0.533
		c-0.148-0.219-0.248-0.465-0.299-0.741s-0.076-0.615-0.076-1.017v-5.443H643.253z"/>
	<path fill="#FFFFFF" d="M651.38,138.617v6.545h1.103v-4.887c0.277-0.234,0.561-0.424,0.852-0.571s0.575-0.22,0.849-0.22
		c0.276,0,0.495,0.04,0.655,0.12s0.285,0.202,0.375,0.366c0.082,0.156,0.138,0.364,0.166,0.624c0.029,0.26,0.045,0.54,0.045,0.841
		v3.727h1.103v-4.247c0-0.805-0.181-1.419-0.545-1.843c-0.364-0.424-0.867-0.636-1.513-0.636c-0.355,0-0.692,0.078-1.014,0.234
		c-0.321,0.156-0.645,0.381-0.973,0.674v-0.727H651.38z"/>
	<rect x="658.335" y="138.617" fill="#FFFFFF" width="1.103" height="6.545"/>
	<rect x="658.26" y="136.379" fill="#FFFFFF" width="1.255" height="1.143"/>
	<polygon fill="#FFFFFF" points="666.439,138.618 665.29,138.618 663.516,143.669 661.723,138.618 660.533,138.618 662.982,145.163 
		663.973,145.163 	"/>
	<path fill="#FFFFFF" d="M672.62,141.407c0-0.523-0.063-0.966-0.188-1.327s-0.306-0.667-0.539-0.917
		c-0.234-0.25-0.509-0.434-0.82-0.551c-0.312-0.117-0.672-0.176-1.078-0.176c-0.901,0-1.632,0.315-2.19,0.946
		c-0.56,0.631-0.839,1.48-0.839,2.546c0,1.082,0.289,1.917,0.865,2.505s1.385,0.882,2.428,0.882h0.001
		c0.265,0,0.485-0.015,0.66-0.046c0.174-0.031,0.366-0.076,0.581-0.135c0.153-0.043,0.325-0.103,0.517-0.179
		c0.19-0.076,0.351-0.139,0.479-0.19v-1.201h-0.063c-0.09,0.074-0.203,0.153-0.34,0.237c-0.138,0.084-0.306,0.171-0.505,0.261
		c-0.188,0.086-0.396,0.156-0.629,0.211c-0.232,0.055-0.471,0.082-0.713,0.082c-0.676,0-1.205-0.202-1.588-0.604
		c-0.383-0.402-0.574-0.984-0.574-1.746h4.535V141.407z M668.085,141.159c0.023-0.277,0.078-0.52,0.164-0.729
		s0.211-0.399,0.375-0.571c0.168-0.168,0.356-0.296,0.562-0.384s0.453-0.132,0.746-0.132c0.297,0,0.547,0.043,0.748,0.129
		c0.2,0.086,0.364,0.211,0.493,0.375c0.118,0.149,0.208,0.33,0.271,0.545c0.062,0.214,0.097,0.471,0.104,0.767H668.085z"/>
	<path fill="#FFFFFF" d="M673.973,138.616v6.545h1.102v-4.646c0.262-0.254,0.539-0.445,0.832-0.574
		c0.293-0.129,0.588-0.193,0.885-0.193c0.129,0,0.24,0.003,0.332,0.009c0.092,0.006,0.178,0.021,0.26,0.044h0.06l-0.001,0v-1.15
		c-0.07-0.011-0.132-0.02-0.189-0.026c-0.057-0.006-0.143-0.009-0.256-0.009c-0.281,0-0.57,0.073-0.869,0.22
		s-0.65,0.398-1.053,0.753v-0.973H673.973z"/>
	<path fill="#FFFFFF" d="M681.357,144.173c-0.098,0.063-0.245,0.114-0.445,0.155s-0.387,0.062-0.563,0.062
		c-0.242,0-0.477-0.033-0.7-0.1c-0.225-0.067-0.431-0.143-0.618-0.229c-0.211-0.097-0.38-0.191-0.507-0.281
		c-0.127-0.09-0.237-0.172-0.331-0.246h-0.06v1.236c0.25,0.133,0.565,0.258,0.946,0.375c0.381,0.117,0.79,0.176,1.229,0.176
		c0.444,0,0.815-0.05,1.11-0.151c0.295-0.101,0.561-0.25,0.794-0.445c0.216-0.179,0.379-0.395,0.489-0.647
		c0.111-0.252,0.167-0.519,0.167-0.8c0-0.484-0.122-0.866-0.366-1.148c-0.243-0.282-0.608-0.483-1.093-0.604
		c-0.223-0.055-0.435-0.104-0.636-0.145c-0.201-0.041-0.384-0.083-0.548-0.126c-0.328-0.086-0.566-0.197-0.715-0.331
		c-0.149-0.134-0.224-0.339-0.224-0.612c0-0.308,0.125-0.538,0.375-0.691c0.25-0.153,0.558-0.229,0.92-0.229
		c0.353,0,0.701,0.064,1.046,0.193c0.346,0.129,0.659,0.304,0.94,0.527h0.059v-1.178c-0.25-0.137-0.559-0.25-0.926-0.34
		c-0.367-0.09-0.733-0.135-1.096-0.135c-0.738,0-1.33,0.186-1.775,0.557c-0.444,0.371-0.668,0.851-0.668,1.441
		c0,0.43,0.113,0.796,0.34,1.099c0.228,0.303,0.591,0.526,1.091,0.671c0.19,0.054,0.399,0.105,0.627,0.152
		c0.227,0.047,0.409,0.088,0.551,0.123c0.363,0.09,0.616,0.201,0.759,0.334c0.143,0.133,0.214,0.33,0.214,0.592
		c0,0.203-0.03,0.356-0.091,0.457C681.592,143.987,681.494,144.083,681.357,144.173z"/>
	<path fill="#FFFFFF" d="M686.172,140.998c-0.5,0.065-0.934,0.181-1.301,0.349c-0.414,0.188-0.717,0.441-0.908,0.759
		c-0.19,0.318-0.287,0.704-0.287,1.157c0,0.293,0.053,0.571,0.158,0.835c0.106,0.264,0.246,0.485,0.422,0.665
		c0.185,0.184,0.396,0.327,0.64,0.428s0.498,0.152,0.768,0.152c0.328,0,0.584-0.028,0.765-0.082c0.182-0.054,0.37-0.132,0.565-0.234
		c0.141-0.07,0.287-0.165,0.438-0.284c0.149-0.119,0.27-0.212,0.359-0.278v0.696h1.097v-4.477c0-0.41-0.06-0.758-0.177-1.043
		s-0.295-0.517-0.533-0.697c-0.245-0.184-0.522-0.312-0.831-0.381c-0.31-0.07-0.688-0.105-1.138-0.105
		c-0.371,0-0.746,0.035-1.125,0.105s-0.67,0.134-0.873,0.193v1.119h0.064c0.343-0.144,0.688-0.255,1.031-0.331
		c0.343-0.076,0.642-0.114,0.896-0.114c0.215,0,0.424,0.014,0.627,0.044s0.375,0.089,0.516,0.179
		c0.141,0.086,0.25,0.208,0.328,0.366c0.078,0.158,0.117,0.366,0.117,0.624v0.211C687.211,140.886,686.672,140.933,686.172,140.998z
		 M687.79,141.735v1.816c-0.246,0.219-0.511,0.403-0.792,0.554s-0.595,0.226-0.942,0.226c-0.406,0-0.716-0.095-0.927-0.287
		c-0.211-0.192-0.315-0.475-0.315-0.85c0-0.332,0.095-0.591,0.287-0.776c0.191-0.185,0.434-0.323,0.727-0.413
		c0.246-0.074,0.57-0.132,0.97-0.173C687.197,141.791,687.528,141.758,687.79,141.735z"/>
	<rect x="690.696" y="136.045" fill="#FFFFFF" width="1.102" height="9.117"/>
	<polygon fill="#FFFFFF" points="701.495,141.294 699.315,136.437 697.733,136.437 697.733,145.162 698.817,145.162 
		698.817,137.644 701.073,142.759 701.776,142.759 704.049,137.644 704.049,145.162 705.209,145.162 705.21,145.162 705.21,136.437 
		703.6,136.437 	"/>
	<path fill="#FFFFFF" d="M709.426,144.294c-0.289,0-0.511-0.039-0.665-0.117c-0.153-0.078-0.275-0.201-0.365-0.369
		c-0.091-0.172-0.148-0.373-0.173-0.601c-0.025-0.228-0.038-0.516-0.038-0.864v-3.727h-1.103v4.248c0,0.441,0.051,0.816,0.155,1.125
		c0.104,0.309,0.25,0.565,0.437,0.768c0.188,0.203,0.407,0.351,0.659,0.445c0.252,0.094,0.521,0.141,0.807,0.141
		c0.375,0,0.715-0.076,1.02-0.231c0.305-0.155,0.627-0.38,0.967-0.677v0.727h1.102v-6.547h-1.103v4.887
		c-0.254,0.223-0.534,0.41-0.838,0.563S709.696,144.294,709.426,144.294z"/>
	<rect x="714.084" y="136.045" fill="#FFFFFF" width="1.103" height="9.117"/>
	<path fill="#FFFFFF" d="M716.395,139.531h0.744v3.627c0,0.738,0.168,1.278,0.504,1.62c0.336,0.342,0.804,0.513,1.405,0.513
		c0.181,0,0.377-0.015,0.591-0.049c0.213-0.034,0.422-0.079,0.629-0.138v-0.99h-0.064c-0.074,0.035-0.196,0.079-0.363,0.132
		s-0.341,0.079-0.521,0.079c-0.254,0-0.456-0.034-0.604-0.103c-0.147-0.069-0.256-0.171-0.321-0.308
		c-0.078-0.156-0.123-0.324-0.136-0.504c-0.012-0.18-0.018-0.436-0.018-0.768v-3.111h2.027v-0.914h-2.027v-1.881h-1.102v1.881
		h-0.744V139.531z"/>
	<rect x="721.344" y="138.617" fill="#FFFFFF" width="1.103" height="6.545"/>
	<rect x="721.269" y="136.379" fill="#FFFFFF" width="1.254" height="1.143"/>
	<path fill="#FFFFFF" d="M724.305,138.617v6.545h1.102v-4.887c0.246-0.23,0.5-0.419,0.762-0.568c0.263-0.149,0.513-0.223,0.75-0.223
		c0.246,0,0.441,0.036,0.586,0.111c0.146,0.075,0.256,0.19,0.334,0.346c0.074,0.145,0.123,0.345,0.146,0.601
		c0.022,0.256,0.035,0.534,0.035,0.835v3.785h1.102v-4.307c0-0.125-0.003-0.234-0.009-0.325c-0.006-0.091-0.011-0.171-0.015-0.237
		c0.277-0.262,0.547-0.462,0.806-0.601c0.259-0.139,0.502-0.208,0.729-0.208c0.246,0,0.441,0.036,0.587,0.111
		c0.145,0.075,0.256,0.19,0.334,0.346c0.073,0.145,0.122,0.345,0.146,0.601c0.022,0.256,0.035,0.534,0.035,0.835v3.785v0.001h1.104
		v-4.307c0-0.449-0.049-0.822-0.144-1.119c-0.095-0.297-0.231-0.545-0.407-0.744c-0.172-0.196-0.373-0.337-0.604-0.425
		c-0.231-0.088-0.487-0.132-0.769-0.132c-0.371,0-0.714,0.095-1.031,0.287c-0.316,0.192-0.641,0.473-0.973,0.844
		c-0.157-0.402-0.384-0.691-0.683-0.867c-0.3-0.176-0.642-0.264-1.028-0.264c-0.34,0-0.652,0.079-0.935,0.237
		c-0.283,0.158-0.569,0.382-0.858,0.671v-0.727H724.305z"/>
	<path fill="#FFFFFF" d="M735.01,139.382c-0.56,0.631-0.839,1.48-0.839,2.546c0,1.082,0.287,1.917,0.863,2.505
		s1.387,0.882,2.43,0.882h0.001c0.265,0,0.483-0.015,0.657-0.046c0.175-0.031,0.369-0.076,0.584-0.135
		c0.153-0.043,0.325-0.103,0.517-0.179c0.19-0.076,0.351-0.139,0.479-0.19v-1.201h-0.063c-0.091,0.074-0.203,0.153-0.341,0.237
		c-0.137,0.084-0.305,0.171-0.504,0.261c-0.188,0.086-0.398,0.156-0.631,0.211c-0.231,0.055-0.469,0.082-0.711,0.082
		c-0.676,0-1.205-0.202-1.588-0.604c-0.383-0.402-0.574-0.984-0.574-1.746h4.535v-0.598c0-0.523-0.063-0.966-0.188-1.327
		s-0.306-0.667-0.539-0.917c-0.234-0.25-0.509-0.434-0.82-0.551c-0.313-0.117-0.672-0.176-1.078-0.176
		C736.298,138.436,735.568,138.751,735.01,139.382z M738.378,139.847c0.118,0.149,0.208,0.33,0.271,0.545
		c0.062,0.214,0.097,0.471,0.104,0.767h-3.463c0.023-0.277,0.078-0.52,0.164-0.729s0.211-0.399,0.375-0.571
		c0.168-0.168,0.354-0.296,0.56-0.384s0.455-0.132,0.748-0.132c0.297,0,0.545,0.043,0.745,0.129
		C738.083,139.558,738.249,139.683,738.378,139.847z"/>
	<path fill="#FFFFFF" d="M742.429,138.679c-0.338,0.162-0.625,0.386-0.862,0.671c-0.262,0.313-0.466,0.679-0.615,1.099
		s-0.223,0.917-0.223,1.491c0,0.551,0.059,1.039,0.176,1.462c0.117,0.423,0.283,0.78,0.498,1.069c0.211,0.285,0.468,0.501,0.77,0.65
		c0.303,0.149,0.633,0.223,0.988,0.223c0.223,0,0.418-0.021,0.586-0.062s0.33-0.099,0.486-0.173
		c0.168-0.078,0.313-0.165,0.438-0.258s0.273-0.212,0.445-0.357v0.668h1.102v-9.117h-1.102v2.836
		c-0.271-0.152-0.526-0.265-0.769-0.337c-0.241-0.072-0.526-0.108-0.854-0.108C743.122,138.436,742.768,138.517,742.429,138.679z
		 M744.38,139.521c0.216,0.05,0.463,0.142,0.736,0.275v3.773c-0.258,0.222-0.532,0.401-0.825,0.532s-0.584,0.196-0.873,0.196
		c-0.543,0-0.938-0.203-1.184-0.612s-0.369-0.997-0.369-1.767c0-0.801,0.16-1.413,0.479-1.837c0.32-0.424,0.765-0.636,1.33-0.636
		C743.93,139.445,744.164,139.471,744.38,139.521z"/>
	<rect x="747.998" y="136.379" fill="#FFFFFF" width="1.254" height="1.143"/>
	<rect x="748.074" y="138.617" fill="#FFFFFF" width="1.102" height="6.545"/>
	<path fill="#FFFFFF" d="M753.071,140.998c-0.5,0.065-0.935,0.181-1.301,0.349c-0.414,0.188-0.718,0.441-0.908,0.759
		c-0.191,0.318-0.287,0.704-0.287,1.157c0,0.293,0.052,0.571,0.158,0.835c0.105,0.264,0.246,0.485,0.422,0.665
		c0.184,0.184,0.396,0.327,0.639,0.428s0.498,0.152,0.769,0.152c0.328,0,0.584-0.028,0.765-0.082
		c0.181-0.054,0.37-0.132,0.565-0.234c0.141-0.07,0.287-0.165,0.437-0.284c0.15-0.119,0.271-0.212,0.36-0.278v0.696h1.096v-4.477
		c0-0.41-0.059-0.758-0.176-1.043s-0.295-0.517-0.533-0.697c-0.246-0.184-0.523-0.312-0.832-0.381s-0.688-0.105-1.137-0.105
		c-0.371,0-0.746,0.035-1.125,0.105s-0.67,0.134-0.873,0.193v1.119h0.063c0.344-0.144,0.688-0.255,1.031-0.331
		c0.343-0.076,0.642-0.114,0.896-0.114c0.215,0,0.424,0.014,0.627,0.044s0.375,0.089,0.516,0.179c0.14,0.086,0.25,0.208,0.328,0.366
		c0.078,0.158,0.117,0.366,0.117,0.624v0.211C754.11,140.886,753.571,140.933,753.071,140.998z M754.689,141.735v1.816
		c-0.246,0.219-0.511,0.403-0.792,0.554s-0.595,0.226-0.943,0.226c-0.406,0-0.715-0.095-0.926-0.287
		c-0.211-0.192-0.316-0.475-0.316-0.85c0-0.332,0.096-0.591,0.287-0.776c0.192-0.185,0.435-0.323,0.728-0.413
		c0.246-0.074,0.569-0.132,0.97-0.173C754.096,141.791,754.427,141.758,754.689,141.735z"/>
	<polygon fill="#FFFFFF" points="761.65,136.437 761.65,145.162 762.734,145.162 762.734,137.644 764.99,142.759 765.694,142.759 
		767.967,137.644 767.967,145.162 769.127,145.162 769.127,136.437 767.517,136.437 765.412,141.294 763.232,136.437 	"/>
	<path fill="#FFFFFF" d="M773.086,140.998c-0.5,0.065-0.934,0.181-1.301,0.349c-0.414,0.188-0.717,0.441-0.908,0.759
		c-0.19,0.318-0.287,0.704-0.287,1.157c0,0.293,0.053,0.571,0.158,0.835c0.106,0.264,0.246,0.485,0.422,0.665
		c0.185,0.184,0.396,0.327,0.64,0.428c0.242,0.101,0.498,0.152,0.768,0.152c0.328,0,0.584-0.028,0.765-0.082
		c0.182-0.054,0.37-0.132,0.565-0.234c0.141-0.07,0.287-0.165,0.437-0.284c0.15-0.119,0.271-0.212,0.36-0.278v0.696h1.096v-4.477
		c0-0.41-0.059-0.758-0.176-1.043s-0.295-0.517-0.533-0.697c-0.245-0.184-0.522-0.312-0.832-0.381
		c-0.309-0.07-0.688-0.105-1.137-0.105c-0.371,0-0.746,0.035-1.125,0.105s-0.67,0.134-0.873,0.193v1.119h0.064
		c0.343-0.144,0.688-0.255,1.03-0.331c0.344-0.076,0.643-0.114,0.896-0.114c0.215,0,0.424,0.014,0.627,0.044
		s0.375,0.089,0.516,0.179c0.141,0.086,0.25,0.208,0.328,0.366c0.078,0.158,0.117,0.366,0.117,0.624v0.211
		C774.125,140.886,773.586,140.933,773.086,140.998z M774.704,141.735v1.816c-0.246,0.219-0.511,0.403-0.792,0.554
		s-0.595,0.226-0.942,0.226c-0.406,0-0.716-0.095-0.927-0.287c-0.211-0.192-0.315-0.475-0.315-0.85c0-0.332,0.095-0.591,0.287-0.776
		c0.191-0.185,0.434-0.323,0.727-0.413c0.246-0.074,0.57-0.132,0.97-0.173C774.111,141.791,774.442,141.758,774.704,141.735z"/>
	<path fill="#FFFFFF" d="M777.585,145.162h1.103v-4.887c0.277-0.234,0.562-0.424,0.853-0.571s0.574-0.22,0.847-0.22
		c0.277,0,0.496,0.04,0.656,0.12s0.285,0.202,0.375,0.366c0.082,0.156,0.139,0.364,0.167,0.624c0.029,0.26,0.044,0.54,0.044,0.841
		v3.727h1.103v-4.247c0-0.805-0.181-1.419-0.545-1.843c-0.364-0.424-0.867-0.636-1.513-0.636c-0.355,0-0.692,0.078-1.014,0.234
		c-0.321,0.156-0.645,0.381-0.973,0.674v-0.727h-1.103V145.162z"/>
	<path fill="#FFFFFF" d="M789.271,145.161v-4.477c0-0.41-0.06-0.758-0.177-1.043c-0.116-0.285-0.295-0.517-0.532-0.697
		c-0.246-0.184-0.523-0.312-0.832-0.381c-0.31-0.07-0.688-0.105-1.138-0.105c-0.371,0-0.746,0.035-1.125,0.105
		s-0.67,0.134-0.873,0.193v1.119h0.064c0.343-0.144,0.688-0.255,1.031-0.331c0.343-0.076,0.642-0.114,0.896-0.114
		c0.216,0,0.425,0.014,0.627,0.044c0.203,0.03,0.375,0.089,0.517,0.179c0.14,0.086,0.25,0.208,0.328,0.366
		c0.078,0.158,0.116,0.366,0.116,0.624v0.211c-0.577,0.032-1.116,0.079-1.616,0.144s-0.935,0.181-1.302,0.349
		c-0.414,0.188-0.717,0.441-0.907,0.759c-0.191,0.318-0.287,0.704-0.287,1.157c0,0.293,0.052,0.571,0.158,0.835
		c0.105,0.264,0.245,0.485,0.422,0.665c0.184,0.184,0.396,0.327,0.639,0.428s0.498,0.152,0.768,0.152
		c0.328,0,0.585-0.028,0.767-0.082c0.181-0.054,0.368-0.132,0.563-0.234c0.142-0.07,0.288-0.165,0.438-0.284
		c0.149-0.119,0.269-0.212,0.358-0.278v0.696H789.271z M787.382,144.105c-0.28,0.151-0.595,0.226-0.942,0.226
		c-0.406,0-0.715-0.095-0.926-0.287c-0.211-0.192-0.316-0.475-0.316-0.85c0-0.332,0.095-0.591,0.287-0.776
		c0.191-0.185,0.434-0.323,0.727-0.413c0.246-0.074,0.571-0.132,0.971-0.173c0.4-0.041,0.73-0.074,0.992-0.097v1.816
		C787.928,143.77,787.663,143.954,787.382,144.105z"/>
	<path fill="#FFFFFF" d="M790.836,140.383c-0.152,0.42-0.229,0.901-0.229,1.444c0,1.039,0.221,1.836,0.662,2.391
		c0.44,0.555,1.035,0.832,1.78,0.832c0.43,0,0.787-0.062,1.072-0.185s0.576-0.313,0.873-0.571v0.574c0,0.27-0.024,0.51-0.076,0.721
		c-0.051,0.211-0.139,0.397-0.264,0.557c-0.133,0.16-0.317,0.285-0.553,0.375c-0.236,0.09-0.525,0.135-0.865,0.135
		c-0.204,0-0.392-0.016-0.563-0.047c-0.172-0.031-0.359-0.072-0.563-0.123c-0.184-0.046-0.348-0.096-0.492-0.149
		c-0.144-0.053-0.254-0.095-0.328-0.126h-0.058v1.148c0.29,0.086,0.602,0.154,0.936,0.205c0.334,0.051,0.66,0.076,0.98,0.076
		c0.996,0,1.735-0.26,2.221-0.779c0.485-0.52,0.728-1.334,0.728-2.443v-5.801h-1.037l-0.064,0.281
		c-0.25-0.149-0.498-0.263-0.746-0.343s-0.543-0.12-0.883-0.12c-0.359,0-0.707,0.077-1.043,0.229s-0.627,0.369-0.873,0.65
		C791.193,139.607,790.989,139.963,790.836,140.383z M792.223,140.041c0.32-0.41,0.76-0.615,1.318-0.615
		c0.23,0,0.462,0.029,0.695,0.085c0.232,0.056,0.484,0.151,0.758,0.284v3.592c-0.242,0.203-0.512,0.361-0.814,0.474
		c-0.304,0.113-0.599,0.17-0.884,0.17c-0.547,0-0.941-0.189-1.186-0.568c-0.244-0.379-0.367-0.931-0.367-1.658
		C791.743,141.039,791.903,140.451,792.223,140.041z"/>
	<path fill="#FFFFFF" d="M797.479,141.928c0,1.082,0.289,1.917,0.865,2.505c0.575,0.588,1.385,0.882,2.428,0.882
		c0.266,0,0.486-0.015,0.66-0.046s0.367-0.076,0.582-0.135c0.152-0.043,0.324-0.103,0.516-0.179s0.352-0.139,0.48-0.19v-1.201
		h-0.064c-0.09,0.074-0.203,0.153-0.34,0.237c-0.137,0.084-0.305,0.171-0.504,0.261c-0.188,0.086-0.396,0.156-0.629,0.211
		c-0.233,0.055-0.472,0.082-0.713,0.082c-0.677,0-1.205-0.202-1.589-0.604c-0.383-0.402-0.573-0.984-0.573-1.746h4.535v-0.598
		c0-0.523-0.063-0.966-0.188-1.327s-0.305-0.667-0.539-0.917s-0.508-0.434-0.82-0.551c-0.312-0.117-0.672-0.176-1.077-0.176
		c-0.902,0-1.633,0.315-2.191,0.946C797.758,140.013,797.479,140.862,797.479,141.928z M798.762,140.43
		c0.087-0.209,0.212-0.399,0.375-0.571c0.168-0.168,0.356-0.296,0.562-0.384s0.453-0.132,0.746-0.132
		c0.297,0,0.547,0.043,0.748,0.129s0.364,0.211,0.494,0.375c0.118,0.149,0.208,0.33,0.27,0.545c0.063,0.214,0.097,0.471,0.105,0.767
		h-3.463C798.621,140.882,798.676,140.639,798.762,140.43z"/>
	<path fill="#FFFFFF" d="M804.487,145.162h1.102v-4.887c0.246-0.23,0.5-0.419,0.763-0.568c0.262-0.149,0.512-0.223,0.75-0.223
		c0.246,0,0.44,0.036,0.586,0.111c0.145,0.075,0.256,0.19,0.334,0.346c0.074,0.145,0.123,0.345,0.146,0.601
		c0.023,0.256,0.035,0.534,0.035,0.835v3.785h1.103v-4.307c0-0.125-0.004-0.234-0.01-0.325c-0.006-0.091-0.011-0.171-0.015-0.237
		c0.278-0.262,0.547-0.462,0.806-0.601c0.26-0.139,0.502-0.208,0.729-0.208c0.246,0,0.44,0.036,0.586,0.111
		c0.145,0.075,0.256,0.19,0.334,0.346c0.074,0.145,0.123,0.345,0.146,0.601c0.023,0.256,0.035,0.534,0.035,0.835v3.785v0.001h1.104
		v-4.307c0-0.449-0.05-0.822-0.145-1.119c-0.095-0.297-0.23-0.545-0.407-0.744c-0.172-0.196-0.373-0.337-0.604-0.425
		c-0.23-0.088-0.487-0.132-0.768-0.132c-0.371,0-0.715,0.095-1.031,0.287c-0.317,0.192-0.642,0.473-0.973,0.844
		c-0.157-0.402-0.385-0.691-0.684-0.867c-0.299-0.176-0.641-0.264-1.028-0.264c-0.34,0-0.651,0.079-0.935,0.237
		c-0.283,0.158-0.569,0.382-0.858,0.671v-0.727h-1.102V145.162z"/>
	<path fill="#FFFFFF" d="M814.354,141.928c0,1.082,0.288,1.917,0.863,2.505c0.576,0.588,1.387,0.882,2.43,0.882
		c0.266,0,0.484-0.015,0.659-0.046c0.174-0.031,0.368-0.076,0.583-0.135c0.152-0.043,0.324-0.103,0.516-0.179s0.351-0.139,0.48-0.19
		v-1.201h-0.064c-0.09,0.074-0.203,0.153-0.34,0.237c-0.137,0.084-0.306,0.171-0.504,0.261c-0.188,0.086-0.397,0.156-0.631,0.211
		c-0.232,0.055-0.47,0.082-0.711,0.082c-0.677,0-1.205-0.202-1.589-0.604c-0.383-0.402-0.573-0.984-0.573-1.746h4.534v-0.598
		c0-0.523-0.063-0.966-0.188-1.327s-0.306-0.667-0.539-0.917c-0.234-0.25-0.508-0.434-0.82-0.551
		c-0.312-0.117-0.672-0.176-1.078-0.176c-0.901,0-1.632,0.315-2.19,0.946C814.632,140.013,814.354,140.862,814.354,141.928z
		 M815.637,140.43c0.086-0.209,0.211-0.399,0.375-0.571c0.168-0.168,0.355-0.296,0.561-0.384s0.454-0.132,0.747-0.132
		c0.297,0,0.546,0.043,0.747,0.129s0.365,0.211,0.495,0.375c0.118,0.149,0.208,0.33,0.27,0.545c0.063,0.214,0.097,0.471,0.105,0.767
		h-3.464C815.496,140.882,815.551,140.639,815.637,140.43z"/>
	<path fill="#FFFFFF" d="M821.36,145.162h1.102v-4.887c0.278-0.234,0.562-0.424,0.853-0.571s0.574-0.22,0.848-0.22
		c0.277,0,0.496,0.04,0.656,0.12s0.285,0.202,0.375,0.366c0.082,0.156,0.137,0.364,0.166,0.624c0.029,0.26,0.045,0.54,0.045,0.841
		v3.727h1.102v-4.247c0-0.805-0.181-1.419-0.545-1.843c-0.363-0.424-0.867-0.636-1.512-0.636c-0.355,0-0.693,0.078-1.014,0.234
		c-0.321,0.156-0.646,0.381-0.974,0.674v-0.727h-1.102V145.162z"/>
	<path fill="#FFFFFF" d="M828.363,136.736v1.881h-0.744v0.914h0.744v3.627c0,0.738,0.168,1.278,0.504,1.62
		c0.336,0.342,0.804,0.513,1.406,0.513c0.18,0,0.375-0.015,0.588-0.049s0.424-0.079,0.631-0.138v-0.99h-0.064
		c-0.073,0.035-0.195,0.079-0.362,0.132s-0.341,0.079-0.521,0.079c-0.254,0-0.456-0.034-0.604-0.103
		c-0.148-0.069-0.257-0.171-0.322-0.308c-0.078-0.156-0.123-0.324-0.135-0.504c-0.013-0.18-0.019-0.436-0.019-0.768v-3.111h2.027
		v-0.914h-2.027v-1.881H828.363z"/>
	<path fill="#FFFFFF" d="M838.975,144.32c-0.449,0-0.915-0.099-1.4-0.296c-0.485-0.197-0.918-0.476-1.301-0.835h-0.082v1.453
		c0.391,0.191,0.808,0.352,1.251,0.483c0.442,0.131,0.98,0.196,1.614,0.196c0.53,0,0.974-0.067,1.326-0.204
		c0.354-0.137,0.672-0.332,0.952-0.586c0.25-0.231,0.444-0.512,0.583-0.844c0.14-0.332,0.208-0.668,0.208-1.008
		c0-0.543-0.139-1-0.416-1.371c-0.276-0.371-0.716-0.648-1.317-0.832c-0.235-0.07-0.53-0.147-0.885-0.231
		c-0.355-0.084-0.656-0.16-0.902-0.226c-0.371-0.101-0.655-0.261-0.85-0.48c-0.195-0.219-0.294-0.514-0.294-0.885
		c0-0.41,0.166-0.741,0.498-0.993s0.769-0.378,1.308-0.378c0.476,0,0.932,0.095,1.365,0.284c0.433,0.189,0.788,0.411,1.065,0.665
		h0.088v-1.389c-0.371-0.18-0.774-0.319-1.21-0.416c-0.436-0.097-0.898-0.146-1.386-0.146c-0.855,0-1.558,0.24-2.109,0.718
		c-0.551,0.478-0.826,1.071-0.826,1.778c0,0.339,0.05,0.639,0.149,0.899c0.1,0.26,0.239,0.486,0.419,0.677
		c0.185,0.196,0.394,0.354,0.633,0.475s0.508,0.221,0.81,0.299c0.336,0.086,0.615,0.155,0.838,0.205
		c0.222,0.05,0.468,0.115,0.738,0.193c0.375,0.105,0.647,0.267,0.819,0.486c0.172,0.219,0.258,0.502,0.258,0.85
		c0,0.438-0.164,0.791-0.491,1.058C840.1,144.186,839.615,144.32,838.975,144.32z"/>
	<polygon fill="#FFFFFF" points="844.915,147.577 848.437,138.618 847.287,138.618 845.506,143.464 843.719,138.618 842.53,138.618 
		844.909,144.847 843.737,147.577 	"/>
	<path fill="#FFFFFF" d="M852.326,144.173c-0.097,0.063-0.245,0.114-0.445,0.155c-0.199,0.041-0.387,0.062-0.563,0.062
		c-0.242,0-0.475-0.033-0.699-0.1c-0.224-0.067-0.431-0.143-0.619-0.229c-0.211-0.097-0.379-0.191-0.506-0.281
		c-0.127-0.09-0.238-0.172-0.332-0.246h-0.059v1.236c0.25,0.133,0.565,0.258,0.947,0.375c0.381,0.117,0.788,0.176,1.227,0.176
		c0.445,0,0.816-0.05,1.111-0.151c0.296-0.101,0.56-0.25,0.793-0.445c0.216-0.179,0.38-0.395,0.49-0.647
		c0.111-0.252,0.166-0.519,0.166-0.8c0-0.484-0.121-0.866-0.365-1.148c-0.243-0.282-0.609-0.483-1.094-0.604
		c-0.223-0.055-0.434-0.104-0.635-0.145c-0.201-0.041-0.385-0.083-0.549-0.126c-0.328-0.086-0.566-0.197-0.715-0.331
		c-0.149-0.134-0.224-0.339-0.224-0.612c0-0.308,0.125-0.538,0.375-0.691c0.25-0.153,0.558-0.229,0.92-0.229
		c0.353,0,0.702,0.064,1.048,0.193c0.345,0.129,0.657,0.304,0.938,0.527h0.06v-1.178c-0.25-0.137-0.56-0.25-0.927-0.34
		c-0.366-0.09-0.732-0.135-1.096-0.135c-0.738,0-1.33,0.186-1.775,0.557c-0.444,0.371-0.668,0.851-0.668,1.441
		c0,0.43,0.113,0.796,0.341,1.099c0.227,0.303,0.59,0.526,1.09,0.671c0.19,0.054,0.399,0.105,0.627,0.152
		c0.227,0.047,0.41,0.088,0.551,0.123c0.364,0.09,0.617,0.201,0.76,0.334c0.144,0.133,0.213,0.33,0.213,0.592
		c0,0.203-0.029,0.356-0.09,0.457S852.463,144.083,852.326,144.173z"/>
	<path fill="#FFFFFF" d="M855.174,136.736v1.881h-0.744v0.914h0.744v3.627c0,0.738,0.168,1.278,0.504,1.62
		c0.336,0.342,0.805,0.513,1.406,0.513c0.18,0,0.376-0.015,0.589-0.049c0.214-0.034,0.423-0.079,0.63-0.138v-0.99h-0.063
		c-0.074,0.035-0.196,0.079-0.363,0.132s-0.341,0.079-0.521,0.079c-0.254,0-0.456-0.034-0.604-0.103
		c-0.147-0.069-0.256-0.171-0.321-0.308c-0.078-0.156-0.123-0.324-0.136-0.504c-0.012-0.18-0.018-0.436-0.018-0.768v-3.111h2.026
		v-0.914h-2.026v-1.881H855.174z"/>
	<path fill="#FFFFFF" d="M864.561,141.407c0-0.523-0.063-0.966-0.188-1.327s-0.305-0.667-0.539-0.917
		c-0.233-0.25-0.508-0.434-0.819-0.551c-0.313-0.117-0.673-0.176-1.078-0.176c-0.902,0-1.633,0.315-2.191,0.946
		c-0.559,0.631-0.838,1.48-0.838,2.546c0,1.082,0.288,1.917,0.864,2.505c0.575,0.588,1.386,0.882,2.429,0.882
		c0.266,0,0.485-0.015,0.659-0.046s0.368-0.076,0.583-0.135c0.152-0.043,0.325-0.103,0.516-0.179c0.191-0.076,0.352-0.139,0.48-0.19
		v-1.201h-0.064c-0.09,0.074-0.203,0.153-0.34,0.237c-0.137,0.084-0.305,0.171-0.504,0.261c-0.188,0.086-0.397,0.156-0.63,0.211
		c-0.233,0.055-0.47,0.082-0.712,0.082c-0.676,0-1.205-0.202-1.588-0.604c-0.384-0.402-0.574-0.984-0.574-1.746h4.535V141.407z
		 M860.025,141.159c0.022-0.277,0.078-0.52,0.164-0.729s0.211-0.399,0.375-0.571c0.168-0.168,0.354-0.296,0.56-0.384
		s0.454-0.132,0.747-0.132c0.297,0,0.546,0.043,0.747,0.129s0.366,0.211,0.495,0.375c0.118,0.149,0.208,0.33,0.27,0.545
		c0.063,0.214,0.098,0.471,0.105,0.767H860.025z"/>
	<path fill="#FFFFFF" d="M865.915,138.617v6.545h1.103v-4.887c0.246-0.23,0.5-0.419,0.762-0.568s0.512-0.223,0.75-0.223
		c0.246,0,0.441,0.036,0.586,0.111c0.145,0.075,0.256,0.19,0.334,0.346c0.074,0.145,0.123,0.345,0.146,0.601
		c0.022,0.256,0.035,0.534,0.035,0.835v3.785h1.102v-4.307c0-0.125-0.004-0.234-0.01-0.325c-0.006-0.091-0.01-0.171-0.015-0.237
		c0.278-0.262,0.546-0.462,0.806-0.601c0.259-0.139,0.503-0.208,0.729-0.208c0.246,0,0.441,0.036,0.586,0.111
		c0.146,0.075,0.256,0.19,0.334,0.346c0.074,0.145,0.123,0.345,0.146,0.601c0.022,0.256,0.034,0.534,0.034,0.835v3.785l0.001,0.001
		h1.104v-4.307c0-0.449-0.05-0.822-0.145-1.119c-0.096-0.297-0.23-0.545-0.406-0.744c-0.172-0.196-0.373-0.337-0.604-0.425
		c-0.23-0.088-0.486-0.132-0.768-0.132c-0.371,0-0.714,0.095-1.031,0.287c-0.316,0.192-0.641,0.473-0.973,0.844
		c-0.157-0.402-0.387-0.691-0.685-0.867c-0.298-0.176-0.64-0.264-1.026-0.264c-0.34,0-0.653,0.079-0.937,0.237
		c-0.282,0.158-0.567,0.382-0.856,0.671v-0.727H865.915z"/>
	<rect x="918.089" y="681.819" fill="#FFFFFF" width="1.401" height="1.392"/>
	<rect x="918.089" y="687.636" fill="#FFFFFF" width="1.401" height="1.393"/>
	<rect x="898.627" y="681.819" fill="#FFFFFF" width="1.401" height="1.392"/>
	<rect x="898.627" y="687.636" fill="#FFFFFF" width="1.401" height="1.393"/>
	<path fill="#FFFFFF" d="M929.446,681.279c-0.243,0.717-0.365,1.664-0.365,2.842c0,1.867,0.33,3.218,0.991,4.044
		c0.552,0.688,1.311,1.033,2.276,1.033c0.733,0,1.341-0.196,1.821-0.588s0.842-0.945,1.083-1.664
		c0.241-0.716,0.362-1.659,0.362-2.825c0-0.987-0.075-1.772-0.226-2.354c-0.15-0.582-0.358-1.074-0.622-1.479
		c-0.265-0.406-0.601-0.717-1.006-0.931c-0.404-0.217-0.877-0.322-1.414-0.322c-0.729,0-1.334,0.194-1.814,0.583
		C930.053,680.007,929.69,680.562,929.446,681.279z M932.335,680.046c0.574,0,1.054,0.27,1.439,0.809
		c0.385,0.538,0.577,1.627,0.577,3.267c0,1.628-0.192,2.715-0.577,3.257c-0.386,0.544-0.861,0.814-1.427,0.814
		c-0.564,0-1.039-0.271-1.426-0.813c-0.385-0.539-0.576-1.627-0.576-3.26c0-1.636,0.211-2.754,0.636-3.36
		C931.319,680.284,931.771,680.046,932.335,680.046z"/>
	<path fill="#FFFFFF" d="M925.979,679.358c-0.406-0.216-0.877-0.322-1.415-0.322c-0.729,0-1.334,0.195-1.815,0.583
		c-0.479,0.389-0.843,0.943-1.086,1.66c-0.244,0.717-0.366,1.664-0.366,2.842c0,1.867,0.331,3.218,0.991,4.044
		c0.551,0.688,1.311,1.033,2.276,1.033c0.732,0,1.341-0.196,1.821-0.588s0.842-0.945,1.084-1.664
		c0.241-0.716,0.361-1.659,0.361-2.825c0-0.987-0.075-1.772-0.226-2.354c-0.15-0.582-0.357-1.074-0.622-1.479
		C926.719,679.882,926.384,679.572,925.979,679.358z M925.987,687.377c-0.385,0.544-0.859,0.814-1.425,0.814
		c-0.566,0-1.04-0.271-1.426-0.813c-0.386-0.539-0.577-1.627-0.577-3.26c0-1.636,0.212-2.754,0.636-3.36
		c0.337-0.476,0.788-0.714,1.354-0.714c0.574,0,1.055,0.27,1.438,0.809c0.386,0.539,0.578,1.627,0.578,3.267
		C926.565,685.748,926.373,686.835,925.987,687.377z"/>
	<path fill="#FFFFFF" d="M912.887,679.036c-0.729,0-1.334,0.195-1.814,0.583c-0.48,0.389-0.843,0.943-1.086,1.66
		c-0.244,0.717-0.366,1.664-0.366,2.842c0,1.867,0.331,3.218,0.991,4.044c0.551,0.688,1.311,1.033,2.275,1.033
		c0.733,0,1.342-0.196,1.821-0.588c0.481-0.392,0.842-0.945,1.084-1.664c0.242-0.716,0.362-1.659,0.362-2.825
		c0-0.987-0.075-1.772-0.227-2.354c-0.149-0.582-0.356-1.074-0.621-1.479c-0.265-0.407-0.599-0.717-1.005-0.931h0.001
		C913.896,679.143,913.425,679.036,912.887,679.036z M914.312,680.854c0.386,0.539,0.577,1.627,0.577,3.267
		c0.002,1.628-0.191,2.715-0.577,3.257c-0.386,0.544-0.859,0.814-1.425,0.814c-0.566,0-1.041-0.271-1.426-0.813
		c-0.386-0.539-0.578-1.627-0.578-3.26c0-1.636,0.213-2.754,0.637-3.36c0.337-0.476,0.787-0.714,1.354-0.714
		C913.447,680.045,913.928,680.314,914.312,680.854z"/>
	<path fill="#FFFFFF" d="M906.517,679.358c-0.405-0.216-0.878-0.322-1.415-0.322c-0.729,0-1.334,0.195-1.814,0.583
		c-0.48,0.389-0.844,0.943-1.088,1.66c-0.243,0.717-0.365,1.664-0.365,2.842c0,1.867,0.33,3.218,0.991,4.044
		c0.552,0.688,1.31,1.033,2.276,1.033c0.733,0,1.341-0.196,1.822-0.588c0.479-0.392,0.842-0.945,1.082-1.664
		c0.241-0.716,0.362-1.659,0.362-2.825c0-0.987-0.075-1.772-0.226-2.354c-0.15-0.582-0.358-1.074-0.622-1.479
		C907.258,679.882,906.921,679.572,906.517,679.358z M906.526,687.377c-0.386,0.544-0.861,0.814-1.426,0.814
		c-0.565,0-1.04-0.271-1.427-0.813c-0.385-0.539-0.576-1.627-0.576-3.26c0-1.636,0.211-2.754,0.636-3.36
		c0.338-0.476,0.789-0.714,1.354-0.714c0.574,0,1.054,0.27,1.439,0.809c0.385,0.539,0.577,1.627,0.577,3.267
		C907.104,685.748,906.911,686.835,906.526,687.377z"/>
	<path fill="#FFFFFF" d="M895.247,688.61c0.48-0.392,0.842-0.945,1.083-1.664c0.241-0.716,0.362-1.659,0.362-2.825
		c0-0.987-0.075-1.772-0.227-2.354c-0.149-0.582-0.357-1.074-0.622-1.479c-0.264-0.406-0.6-0.717-1.005-0.931
		c-0.405-0.217-0.878-0.322-1.415-0.322c-0.729,0-1.334,0.194-1.813,0.583c-0.481,0.389-0.845,0.942-1.088,1.66
		c-0.243,0.717-0.365,1.664-0.365,2.842c0,1.867,0.33,3.218,0.991,4.044c0.552,0.688,1.31,1.033,2.275,1.033
		C894.159,689.198,894.766,689.001,895.247,688.61z M891.999,687.38c-0.385-0.539-0.577-1.627-0.577-3.26
		c0-1.636,0.212-2.754,0.637-3.36c0.338-0.476,0.789-0.714,1.354-0.714c0.574,0,1.054,0.27,1.439,0.809
		c0.385,0.538,0.576,1.627,0.576,3.267c0,1.628-0.191,2.715-0.576,3.257c-0.387,0.544-0.861,0.814-1.427,0.814
		C892.86,688.192,892.385,687.922,891.999,687.38z"/>
	<path fill="#FFFFFF" d="M882.737,681.279c-0.244,0.717-0.366,1.664-0.366,2.842c0,1.867,0.331,3.218,0.991,4.044
		c0.551,0.688,1.311,1.033,2.276,1.033c0.732,0,1.341-0.196,1.82-0.588c0.481-0.392,0.842-0.945,1.084-1.664
		c0.242-0.716,0.362-1.659,0.362-2.825c0-0.987-0.075-1.772-0.226-2.354c-0.15-0.582-0.357-1.074-0.623-1.479
		c-0.265-0.406-0.599-0.717-1.005-0.931c-0.405-0.217-0.877-0.322-1.415-0.322c-0.729,0-1.334,0.194-1.814,0.583
		C883.343,680.007,882.98,680.562,882.737,681.279z M885.625,680.046c0.574,0,1.055,0.27,1.438,0.809
		c0.386,0.538,0.577,1.627,0.577,3.267c0,1.628-0.191,2.715-0.577,3.257c-0.386,0.544-0.859,0.814-1.425,0.814
		c-0.566,0-1.041-0.271-1.426-0.813c-0.386-0.539-0.578-1.627-0.578-3.26c0-1.636,0.213-2.754,0.637-3.36
		C884.608,680.284,885.061,680.046,885.625,680.046z"/>
	<path fill="#FFFFFF" d="M592.563,688.193c-0.28,0-0.537-0.067-0.772-0.199v1.113c0.242,0.056,0.497,0.092,0.772,0.092
		c0.733-0.001,1.341-0.198,1.821-0.589c0.481-0.392,0.843-0.945,1.084-1.664c0.242-0.716,0.362-1.659,0.362-2.825
		c0-0.987-0.075-1.772-0.226-2.354c-0.15-0.582-0.357-1.074-0.622-1.479c-0.266-0.406-0.6-0.717-1.005-0.931
		c-0.406-0.217-0.877-0.322-1.415-0.322c-0.277,0-0.531,0.037-0.772,0.094v1.094c0.226-0.116,0.479-0.177,0.759-0.177
		c0.574,0,1.055,0.27,1.438,0.808c0.386,0.539,0.578,1.628,0.578,3.268c0,1.628-0.192,2.715-0.578,3.257
		C593.603,687.923,593.128,688.193,592.563,688.193z"/>
	<path fill="#FFFFFF" d="M601.765,679.358c-0.405-0.216-0.878-0.322-1.415-0.322c-0.729,0-1.334,0.195-1.814,0.583
		c-0.48,0.389-0.844,0.943-1.088,1.66c-0.243,0.717-0.365,1.664-0.365,2.842c0,1.867,0.33,3.218,0.991,4.044
		c0.552,0.688,1.31,1.033,2.276,1.033c0.733,0,1.341-0.196,1.821-0.588s0.843-0.945,1.083-1.664
		c0.241-0.716,0.362-1.659,0.362-2.825c0-0.987-0.075-1.772-0.226-2.354c-0.15-0.582-0.358-1.074-0.622-1.479
		C602.505,679.882,602.169,679.572,601.765,679.358z M601.774,687.377c-0.386,0.544-0.861,0.814-1.426,0.814
		c-0.565,0-1.04-0.271-1.427-0.813c-0.385-0.539-0.577-1.627-0.577-3.26c0-1.636,0.212-2.754,0.637-3.36
		c0.338-0.476,0.789-0.714,1.354-0.714c0.574,0,1.054,0.27,1.439,0.809c0.385,0.539,0.577,1.627,0.577,3.267
		C602.353,685.748,602.159,686.835,601.774,687.377z"/>
	<path fill="#FFFFFF" d="M639.415,649.93H591.79v11h47.625c2.969,0,5.375-2.098,5.375-5.045v-0.249
		C644.79,652.688,642.384,649.93,639.415,649.93z"/>
	<path fill="#FFFFFF" d="M664.29,655.016c0-3.701-3.021-6.702-6.75-6.702c-3.729,0-6.75,3.001-6.75,6.702s3.021,6.703,6.75,6.703
		C661.27,661.719,664.29,658.717,664.29,655.016z M652.79,655.016c0-2.601,2.131-4.718,4.75-4.718s4.75,2.117,4.75,4.718
		c0,2.602-2.131,4.719-4.75,4.719S652.79,657.617,652.79,655.016z"/>
	<path fill="#FFFFFF" d="M611.79,683.93c0,2.193,1.791,4,4,4h254c2.209,0,4-1.807,4-4c0-2.194-1.791-4-4-4h-254
		C613.581,679.93,611.79,681.735,611.79,683.93z"/>
	<path fill="#FFFFFF" d="M807.79,671.93c3.313,0,6-2.451,6-5.741v-20.854c0-3.29-2.687-6.403-6-6.403h-129c-3.313,0-6,3.113-6,6.403
		v20.854c0,3.29,2.688,5.741,6,5.741H807.79z M778.79,645.686l9,8.671v-8.671l9,8.671v-9.427h2v19h-2v-8.561l-9,8.668v-8.668
		l-9,8.668V645.686z M735.79,644.032l17.026,10.831l-17.026,10.83V644.032z M687.79,644.93h2v9.427l9-8.67v8.67l9-8.67v18.352
		l-9-8.668v8.668l-9-8.668v8.56h-2V644.93z"/>
	<path fill="#FFFFFF" d="M835.387,649.802l4.403,2.525v-2.397h10.709c2.326,0,4.291,2.078,4.291,4.5c0,2.423-1.965,4.5-4.291,4.5
		H838.79v1h11.709c2.868,0,5.291-2.537,5.291-5.5c0-2.962-2.423-5.5-5.291-5.5H839.79v-1.651L835.387,649.802z"/>
	<path fill="#FFFFFF" d="M881.79,648.93h-10.125c-2.868,0-5.291,2.538-5.291,5.5s2.423,5.5,5.291,5.5h12.125v-1h-12.125
		c-2.326,0-4.291-2.078-4.291-4.5s1.965-4.5,4.291-4.5h10.125v2.397l4.404-2.525l-4.404-2.523V648.93z"/>
	<rect x="912.79" y="650.93" fill="#FFFFFF" width="13" height="6"/>
	<path fill="#FFFFFF" d="M907.79,661.93h23v-16h-23V661.93z M909.79,647.93h19v12h-19V647.93z"/>
	<path fill="#FFFFFF" d="M1086.027,677.036c-6.551,0-30.45,1.908-43.452,25.894h101.215v-25.818l-55.815-0.007
		C1087.964,677.102,1087.256,677.036,1086.027,677.036z M1140.79,691.014v8.916h-9L1140.79,691.014z"/>
	<path fill="#FFFFFF" d="M941.79,689.028c0,3.29-2.687,5.901-6,5.901h-344v8h152h294.416c13.67-26.759,37.715-28.975,44.821-28.975
		c1.16,0,1.918-0.025,2.158-0.025h58.604v-38h-202V689.028z"/>
	<polygon fill="#FFFFFF" points="591.79,184.93 1135.79,184.93 1135.79,619.93 1135.79,621.93 1135.79,624.93 591.79,624.93 
		591.79,631.93 1143.79,631.93 1143.79,176.93 591.79,176.93 	"/>
	<path fill="#FFFFFF" d="M947.864,172.93h195.926v-20h-142.082C977.367,152.93,957.7,159.586,947.864,172.93z"/>
	<path fill="#FFFFFF" d="M1098.041,110.68c-3.358,0-6.083,2.725-6.083,6.084s2.725,6.082,6.083,6.082
		c3.359,0,6.083-2.723,6.083-6.082S1101.4,110.68,1098.041,110.68z M1098.041,120.846c-2.251,0-4.083-1.831-4.083-4.082
		c0-2.252,1.832-4.084,4.083-4.084s4.083,1.832,4.083,4.084C1102.124,119.015,1100.292,120.846,1098.041,120.846z"/>
	<path fill="#FFFFFF" d="M1113.041,110.68c-3.358,0-6.083,2.725-6.083,6.084s2.725,6.082,6.083,6.082
		c3.359,0,6.083-2.723,6.083-6.082S1116.4,110.68,1113.041,110.68z M1113.041,120.846c-2.251,0-4.083-1.831-4.083-4.082
		c0-2.252,1.832-4.084,4.083-4.084s4.083,1.832,4.083,4.084C1117.124,119.015,1115.292,120.846,1113.041,120.846z"/>
	<path fill="#FFFFFF" d="M1083.041,110.68c-3.358,0-6.083,2.725-6.083,6.084s2.725,6.082,6.083,6.082
		c3.359,0,6.083-2.723,6.083-6.082S1086.4,110.68,1083.041,110.68z M1083.041,120.846c-2.251,0-4.083-1.831-4.083-4.082
		c0-2.252,1.832-4.084,4.083-4.084s4.083,1.832,4.083,4.084C1087.124,119.015,1085.292,120.846,1083.041,120.846z"/>
	<path fill="#FFFFFF" d="M1128.041,110.68c-3.358,0-6.083,2.725-6.083,6.084s2.725,6.082,6.083,6.082
		c3.359,0,6.083-2.723,6.083-6.082S1131.4,110.68,1128.041,110.68z M1128.041,120.846c-2.251,0-4.083-1.831-4.083-4.082
		c0-2.252,1.832-4.084,4.083-4.084s4.083,1.832,4.083,4.084C1132.124,119.015,1130.292,120.846,1128.041,120.846z"/>
	<path fill="#FFFFFF" d="M393.303,129.047l-0.286,1.266l-0.396,1.219l-0.468,1.102l-0.594,1.115l-0.117,0.181h6.928l0.233-0.591
		l0.476-1.578l0.384-1.841l0.201-1.691l0.069-1.742l-0.085-1.882l-0.252-1.835l-0.256-1.192l-0.324-1.167l-0.609-1.693l-0.75-1.621
		l-0.574-1.037l-0.632-0.999l-1.124-1.513l-1.256-1.403l-0.762-0.736l-0.797-0.696l-1.505-1.136l-1.608-0.995l-0.947-0.494
		l-0.975-0.447l-0.399,2.139l-0.585,2.086l-0.389,1.086l-0.472,1.133l-0.93,1.846l-0.876,1.434l-0.886,1.242l-1.316,1.561
		l-1.112,1.104l-0.77,0.656l-0.287,0.218l-0.288-0.218l-0.769-0.656l-1.111-1.104l-1.317-1.561l-1.162-1.67l-0.76-1.297l-0.77-1.555
		l-0.778-1.972l-0.604-2.062l-0.245-1.105l-0.221-1.305l-1.609,0.771l-1.626,0.967l-0.872,0.608l-0.928,0.726l-1.393,1.266
		l-1.271,1.388l-0.658,0.831l-0.615,0.864l-0.984,1.616l-0.787,1.602l-0.405,0.996l-0.39,1.137l-0.46,1.76l-0.305,1.817
		l-0.113,1.239l-0.038,1.26l0.085,1.957l0.215,1.683l0.349,1.632l0.51,1.675l0.198,0.494h6.929l-0.118-0.182l-0.594-1.115
		l-0.469-1.102l-0.396-1.219l-0.286-1.266l-0.166-1.23l-0.061-1.346l0.047-1.202l0.14-1.16l0.229-1.121l0.318-1.083l0.402-1.05
		l0.485-1.018l0.565-0.989l0.645-0.963l0.917,1.896l1.089,1.81l0.649,0.924l0.742,0.951l1.367,1.518l1.213,1.146l1.177,0.968
		l1.676,1.175l1.364,0.795c0,0,0.917,0.449,1.253,0.592l0.335-0.143l0.917-0.449l1.364-0.795l1.677-1.175l1.552-1.306l1.065-1.045
		l1.139-1.281l1.249-1.664l1.1-1.781l0.511-0.974l0.537-1.161l0.645,0.963l0.566,0.989l0.486,1.018l0.403,1.05l0.317,1.083
		l0.229,1.121l0.14,1.16l0.047,1.202l-0.061,1.346L393.303,129.047z"/>
	<path fill="#FFFFFF" d="M1133.79,101.93h-780c-5.522,0-10,4.477-10,10v22h15.806l-0.124-0.309l-0.524-1.715l-0.359-1.673
		l-0.226-1.726l-0.089-1.999l0.038-1.297l0.115-1.271l0.31-1.854l0.47-1.803l0.401-1.173l0.415-1.022l0.802-1.634l1.005-1.655
		l0.635-0.895l0.673-0.852l1.295-1.415l1.425-1.298l0.956-0.749l0.894-0.625l1.657-0.986l2.246-1.08l0.333,1.959l0.039,0.174
		c2.242-0.924,4.696-1.441,7.272-1.441c2.57,0,5.018,0.516,7.256,1.437l0.393-2.109l1.558,0.713l0.97,0.506l1.64,1.014l1.543,1.162
		l0.825,0.719l0.78,0.753l1.281,1.429l1.152,1.549l0.653,1.029l0.589,1.063l0.766,1.653l0.626,1.734l0.335,1.202l0.264,1.222
		l0.258,1.872l0.09,1.928l-0.069,1.783l-0.204,1.73l-0.391,1.885l-0.486,1.619l-0.177,0.447H544.79v-29h398v46
		c0,5.523-4.478,10-10,10h-189h-152v12h152h199.485c10.146-14.834,30.049-23,56.14-23h144.375v-38
		C1143.79,106.407,1139.313,101.93,1133.79,101.93z M1136.79,117.055c0,4.35-3.524,7.875-7.875,7.875h-46.25
		c-4.35,0-7.875-3.525-7.875-7.875v-0.25c0-4.35,3.525-7.875,7.875-7.875h46.25c4.351,0,7.875,3.525,7.875,7.875V117.055z"/>
	<path fill="#FFFFFF" d="M757.79,447.567V332.931c0-8.597-7.457-16.001-16.916-16.001h-82.58c-9.121,0-16.504,7.26-16.504,16.001
		v114.637c0,9.092,7.62,16.362,16.357,16.362h82.875C750.081,463.93,757.79,456.502,757.79,447.567z M741.022,459.93h-82.875
		c-6.569,0-12.357-5.438-12.357-12.362V332.931c0-6.5,5.627-12.001,12.504-12.001h82.58c6.354,0,12.916,5.067,12.916,12.001v114.637
		C753.79,454.253,747.829,459.93,741.022,459.93z"/>
	<path fill="#FFFFFF" d="M732.348,353.424c-10.82-0.004-54.103-0.002-64.923,0c-3.916,0-5.002,1.091-5.002,5.08
		c-0.004,21.563-0.004,43.123,0,64.687c0,4.004,1.05,5.064,5.017,5.065c21.641,0.004,43.281,0.004,64.922,0
		c3.789-0.002,4.826-1.009,4.826-4.727c0.008-21.799,0.008-43.599,0-65.396C737.186,354.457,736.113,353.426,732.348,353.424z
		 M676.79,421.508c0,0.785-0.637,1.422-1.423,1.422h-6.154c-0.785,0-1.423-0.637-1.423-1.422v-6.156
		c0-0.784,0.638-1.422,1.423-1.422h6.154c0.786,0,1.423,0.638,1.423,1.422V421.508z M676.79,407.508
		c0,0.785-0.637,1.422-1.423,1.422h-6.154c-0.785,0-1.423-0.637-1.423-1.422v-6.156c0-0.784,0.638-1.422,1.423-1.422h6.154
		c0.786,0,1.423,0.638,1.423,1.422V407.508z M676.79,393.508c0,0.785-0.637,1.422-1.423,1.422h-6.154
		c-0.785,0-1.423-0.637-1.423-1.422v-6.156c0-0.784,0.638-1.422,1.423-1.422h6.154c0.786,0,1.423,0.638,1.423,1.422V393.508z
		 M676.79,380.507c0,0.786-0.637,1.423-1.423,1.423h-6.154c-0.785,0-1.423-0.637-1.423-1.423v-6.153
		c0-0.786,0.638-1.424,1.423-1.424h6.154c0.786,0,1.423,0.638,1.423,1.424V380.507z M676.79,366.508
		c0,0.785-0.637,1.422-1.423,1.422h-6.154c-0.785,0-1.423-0.637-1.423-1.422v-6.156c0-0.784,0.638-1.422,1.423-1.422h6.154
		c0.786,0,1.423,0.638,1.423,1.422V366.508z M712.96,392.62c-7.494,4.492-14.987,8.986-22.545,13.373
		c-2.237,1.301-3.166,0.012-3.182-2.185c-0.029-4.371-0.033-21.672,0-25.948c0.02-2.566,1.272-3.313,3.479-2.018
		c7.453,4.38,14.89,8.792,22.289,13.257C714.771,390.168,714.764,391.539,712.96,392.62z M731.79,421.508
		c0,0.785-0.637,1.422-1.423,1.422h-6.154c-0.785,0-1.423-0.637-1.423-1.422v-6.156c0-0.784,0.638-1.422,1.423-1.422h6.154
		c0.786,0,1.423,0.638,1.423,1.422V421.508z M731.79,407.508c0,0.785-0.637,1.422-1.423,1.422h-6.154
		c-0.785,0-1.423-0.637-1.423-1.422v-6.156c0-0.784,0.638-1.422,1.423-1.422h6.154c0.786,0,1.423,0.638,1.423,1.422V407.508z
		 M731.79,393.508c0,0.785-0.637,1.422-1.423,1.422h-6.154c-0.785,0-1.423-0.637-1.423-1.422v-6.156
		c0-0.784,0.638-1.422,1.423-1.422h6.154c0.786,0,1.423,0.638,1.423,1.422V393.508z M731.79,380.507
		c0,0.786-0.637,1.423-1.423,1.423h-6.154c-0.785,0-1.423-0.637-1.423-1.423v-6.153c0-0.786,0.638-1.424,1.423-1.424h6.154
		c0.786,0,1.423,0.638,1.423,1.424V380.507z M731.79,366.508c0,0.785-0.637,1.422-1.423,1.422h-6.154
		c-0.785,0-1.423-0.637-1.423-1.422v-6.156c0-0.784,0.638-1.422,1.423-1.422h6.154c0.786,0,1.423,0.638,1.423,1.422V366.508z"/>
	<path fill="#FFFFFF" d="M662.31,487.797c0.248,0,0.457-0.209,0.457-0.457v-12.329c0-0.075-0.038-0.172-0.076-0.248
		c-0.037-0.056-0.076-0.094-0.133-0.151c-0.208-0.133-0.514-0.096-0.646,0.113l-4.719,6.564l-4.738-6.564
		c-0.151-0.209-0.437-0.246-0.646-0.113c-0.019,0.019-0.038,0.019-0.038,0.038c-0.113,0.075-0.189,0.21-0.189,0.361v12.329
		c0,0.248,0.209,0.457,0.475,0.457c0.248,0,0.457-0.209,0.457-0.457V476.4l4.263,5.897c0.095,0.152,0.228,0.209,0.399,0.209h0.038
		c0.134,0,0.285-0.057,0.38-0.209l4.262-5.915v10.957C661.854,487.588,662.043,487.797,662.31,487.797z"/>
	<path fill="#FFFFFF" d="M667.199,474.479h-0.058c-0.247,0-0.456,0.209-0.456,0.457v12.404c0,0.248,0.209,0.457,0.456,0.457
		c0.267,0,0.476-0.209,0.476-0.457v-5.231l3.292-0.038c2.093,0,3.786-1.693,3.786-3.786s-1.693-3.806-3.786-3.806H667.199z
		 M673.781,478.283c0,1.579-1.294,2.873-2.873,2.892h-3.292v-5.765h3.292C672.487,475.41,673.781,476.704,673.781,478.283z"/>
	<path fill="#FFFFFF" d="M684.928,487.797c0.267,0,0.476-0.209,0.476-0.457v-2.283h0.895c0.267,0,0.477-0.209,0.477-0.456
		s-0.21-0.456-0.477-0.456h-0.895v-9.134v-0.058c0-0.018-0.021-0.038-0.021-0.076c-0.036-0.077-0.075-0.171-0.15-0.229
		c-0.209-0.172-0.476-0.152-0.647,0.058l-0.019,0.019l-7.706,9.591c-0.172,0.189-0.152,0.495,0.057,0.646
		c0.076,0.076,0.19,0.095,0.285,0.095h0.039h0.019h7.212v2.283C684.472,487.588,684.681,487.797,684.928,487.797z M678.173,484.145
		l6.3-7.803v7.803H678.173z"/>
	<path fill="#FFFFFF" d="M705.68,474.822l-4.776,11.34l-4.757-11.34c-0.096-0.229-0.38-0.343-0.609-0.229
		c-0.228,0.095-0.342,0.38-0.247,0.608l5.157,12.272l0.019,0.02c0,0.019,0,0.038,0.02,0.038c0.038,0.114,0.115,0.189,0.226,0.228
		c0,0,0,0.021,0.021,0.021c0.037,0.019,0.113,0.019,0.171,0.019s0.114-0.018,0.171-0.038h0.021c0.152-0.057,0.247-0.209,0.266-0.381
		l5.157-12.178c0.095-0.228-0.019-0.513-0.247-0.608C706.04,474.479,705.755,474.593,705.68,474.822z"/>
	<path fill="#FFFFFF" d="M710.262,478.474c-0.246,0-0.455,0.189-0.455,0.456v8.41c0,0.248,0.209,0.457,0.455,0.457
		c0.268,0,0.477-0.209,0.477-0.457v-8.41C710.738,478.663,710.529,478.474,710.262,478.474z"/>
	<path fill="#FFFFFF" d="M710.738,475.886c0-0.248-0.209-0.457-0.477-0.457c-0.246,0-0.455,0.209-0.455,0.457v0.438
		c0,0.266,0.209,0.495,0.455,0.495c0.268,0,0.477-0.229,0.477-0.495V475.886z"/>
	<path fill="#FFFFFF" d="M723.066,487.797c0.248,0,0.457-0.209,0.457-0.457v-4.186v-0.19v-8.028c0-0.248-0.209-0.457-0.457-0.457
		c-0.268,0-0.477,0.209-0.477,0.457v5.364c-0.817-1.103-2.111-1.826-3.576-1.826c-2.513,0-4.511,2.094-4.511,4.682
		c0,2.55,1.998,4.643,4.511,4.643c1.465,0,2.759-0.704,3.576-1.808v1.35C722.59,487.588,722.799,487.797,723.066,487.797z
		 M719.014,486.864c-1.961,0-3.577-1.655-3.577-3.71c0-2.074,1.616-3.749,3.577-3.749c1.922,0,3.501,1.599,3.576,3.597v0.305
		C722.514,485.285,720.936,486.865,719.014,486.864z"/>
	<path fill="#FFFFFF" d="M735.752,482.889v-0.057v-0.02c-0.189-2.437-2.094-4.339-4.49-4.339c-2.511,0-4.528,2.094-4.528,4.682
		c0,2.549,2.018,4.642,4.527,4.643c1.579,0,2.969-0.837,3.769-2.111c0.133-0.229,0.057-0.494-0.152-0.646
		c-0.19-0.115-0.476-0.077-0.608,0.152c-0.628,1.046-1.771,1.692-3.007,1.692c-1.922,0-3.52-1.541-3.614-3.577h7.647
		C735.543,483.308,735.752,483.136,735.752,482.889z M727.704,482.412c0.342-1.77,1.809-3.025,3.56-3.025
		c1.712,0,3.195,1.274,3.5,3.025H727.704z"/>
	<path fill="#FFFFFF" d="M738.546,483.135c0,2.531,1.979,4.662,4.415,4.662c2.454,0,4.414-2.131,4.414-4.662
		c0-2.529-1.96-4.661-4.414-4.661C740.525,478.474,738.546,480.605,738.546,483.135z M746.462,483.135
		c0,2.074-1.599,3.749-3.501,3.749s-3.501-1.675-3.501-3.749c0-2.073,1.599-3.768,3.501-3.768S746.462,481.063,746.462,483.135z"/>
	<path fill="#FFFFFF" d="M684.529,449.725c-0.409,0-0.731,0.322-0.731,0.731s0.322,0.731,0.731,0.731s0.73-0.322,0.73-0.731
		S684.938,449.725,684.529,449.725z"/>
	<path fill="#FFFFFF" d="M695.918,441.057c-0.161-0.101-0.394-0.071-0.497,0.089l-3.626,5.043l-3.639-5.043
		c-0.117-0.16-0.337-0.19-0.498-0.089c-0.013,0.015-0.029,0.015-0.029,0.029c-0.088,0.059-0.146,0.161-0.146,0.277v9.473
		c0,0.191,0.161,0.353,0.365,0.353c0.19,0,0.351-0.162,0.351-0.353v-8.405l3.274,4.532c0.073,0.117,0.176,0.16,0.308,0.16h0.029
		c0.102,0,0.219-0.043,0.292-0.16l3.273-4.547h0.001v8.42c0,0.191,0.147,0.353,0.352,0.353c0.19,0,0.351-0.162,0.351-0.353v-9.473
		c0-0.059-0.03-0.13-0.059-0.189C695.99,441.13,695.961,441.101,695.918,441.057z"/>
	<path fill="#FFFFFF" d="M702.336,440.955h-2.852h-0.043c-0.191,0-0.353,0.161-0.353,0.35h0.001v9.531
		c0,0.191,0.162,0.353,0.353,0.353c0.204,0,0.365-0.162,0.365-0.353v-4.02l2.528-0.029c1.607,0,2.908-1.3,2.908-2.909
		C705.244,442.27,703.943,440.955,702.336,440.955z M702.335,446.1h-2.528v-4.429h2.528c1.213,0,2.207,0.993,2.207,2.207
		S703.548,446.086,702.335,446.1z"/>
	<path fill="#FFFFFF" d="M714.161,448.382h-0.688v-7.018v-0.043c0-0.017-0.016-0.03-0.016-0.06
		c-0.028-0.059-0.058-0.132-0.117-0.176c-0.159-0.131-0.364-0.117-0.495,0.044l-0.017,0.016l-5.92,7.366
		c-0.131,0.146-0.117,0.381,0.044,0.497c0.059,0.059,0.147,0.073,0.22,0.073h0.029h0.014h5.541v1.756
		c0,0.191,0.161,0.353,0.352,0.353c0.204,0,0.365-0.162,0.365-0.353v-1.754h0.688c0.204,0,0.365-0.16,0.365-0.351
		C714.526,448.542,714.365,448.382,714.161,448.382z M712.757,448.381h-4.839l4.839-5.994V448.381z"/>
	<path fill="#FFFFFF" d="M166.551,283.93h7.478c0.972,0,1.761-0.788,1.761-1.761v-7.479c0-0.973-0.788-1.761-1.761-1.761h-7.478
		c-0.972,0-1.761,0.788-1.761,1.761v7.479C164.79,283.142,165.578,283.93,166.551,283.93z"/>
	<path fill="#FFFFFF" d="M192.277,313.536c9.353-5.429,18.629-10.991,27.904-16.552c2.232-1.337,2.241-3.034,0.051-4.356
		c-9.16-5.526-18.363-10.987-27.588-16.408c-2.73-1.605-4.282-0.682-4.306,2.496c-0.041,5.294-0.036,26.706,0.001,32.117
		C188.359,313.551,189.507,315.146,192.277,313.536z"/>
	<path fill="#FFFFFF" d="M241.726,305.93h-7.617c-0.972,0-1.318,0.891-1.318,1.862v7.62c0,0.972,0.345,1.518,1.318,1.518h7.617
		c0.973,0,2.064-0.546,2.064-1.518v-7.62C243.79,306.821,242.7,305.93,241.726,305.93z"/>
	<path fill="#FFFFFF" d="M166.034,333.93h7.617c0.973,0,1.139-0.217,1.139-1.188v-7.62c0-0.971-0.166-2.19-1.139-2.19h-7.617
		c-0.973,0-1.244,1.219-1.244,2.19v7.62C164.79,333.712,165.061,333.93,166.034,333.93z"/>
	<path fill="#FFFFFF" d="M466.438,467.75c-2.499,0-4.531,2.151-4.531,4.875c0,2.75,2.032,4.938,4.531,4.938
		c2.524,0,4.594-2.188,4.594-4.938C471.031,469.901,468.962,467.75,466.438,467.75z"/>
	<path fill="#FFFFFF" d="M483.094,467.75c-2.3,0-4.206,1.644-4.656,3.969h9.25C487.287,469.419,485.343,467.75,483.094,467.75z"/>
	<path fill="#FFFFFF" d="M166.034,266.93h7.617c0.973,0,1.139-1.293,1.139-2.265v-7.619c0-0.971-0.166-2.116-1.139-2.116h-7.617
		c-0.973,0-1.244,1.144-1.244,2.116v7.619C164.79,265.637,165.061,266.93,166.034,266.93z"/>
	<path fill="#FFFFFF" d="M241.661,287.93h-6.741c-1.176,0-2.129,0.635-2.129,1.418v8.164c0,0.783,0.953,1.418,2.129,1.418h6.741
		c1.176,0,2.129-0.635,2.129-1.418v-8.164C243.79,288.565,242.837,287.93,241.661,287.93z"/>
	<path fill="#FFFFFF" d="M166.182,298.93h7.216c0.769,0,1.392-0.635,1.392-1.418v-8.164c0-0.783-0.623-1.418-1.392-1.418h-7.216
		c-0.769,0-1.392,0.635-1.392,1.418v8.164C164.79,298.295,165.413,298.93,166.182,298.93z"/>
	<path fill="#FFFFFF" d="M166.034,316.93h7.617c0.973,0,1.139-0.546,1.139-1.518v-7.62c0-0.971-0.166-1.862-1.139-1.862h-7.617
		c-0.973,0-1.244,0.891-1.244,1.862v7.62C164.79,316.384,165.061,316.93,166.034,316.93z"/>
	<path fill="#FFFFFF" d="M241.726,322.931h-7.617c-0.972,0-1.318,1.219-1.318,2.19v7.62c0,0.971,0.345,1.188,1.318,1.188h7.617
		c0.973,0,2.064-0.217,2.064-1.188v-7.62C243.79,324.15,242.7,322.931,241.726,322.931z"/>
	<path fill="#FFFFFF" d="M298.688,660.438c-3.974,0-7.219,3.302-7.219,7.625c0,4.274,3.245,7.625,7.219,7.625
		c3.849,0,7.099-3.351,7.125-7.625C305.788,663.739,302.538,660.438,298.688,660.438z"/>
	<path fill="#FFFFFF" d="M267.406,408.844c0-2.725-2.095-4.938-4.594-4.938c-2.5,0-4.625,2.214-4.625,4.938
		c0,2.723,2.125,4.938,4.625,4.938C265.312,413.781,267.406,411.567,267.406,408.844z"/>
	<path fill="#FFFFFF" d="M270.531,660.656h-2.625v15.031h2.625c4.149,0,7.531-3.32,7.531-7.469
		C278.063,664.045,274.68,660.683,270.531,660.656z"/>
	<polygon fill="#FFFFFF" points="237.063,627.094 242.219,627.094 239.656,620.25 	"/>
	<path fill="#FFFFFF" d="M377.188,462.531h-4.344v7.563h4.344c2.075-0.024,3.75-1.707,3.75-3.781S379.263,462.531,377.188,462.531z"
		/>
	<polygon fill="#FFFFFF" points="233.594,671.188 240.656,671.188 237.156,661.781 	"/>
	<path fill="#FFFFFF" d="M449.656,467.75c-0.156,0-0.316-0.017-0.469,0c-2.291,0.252-4.125,2.359-4.125,4.938
		c0,2.749,2.094,4.906,4.594,4.906c2.525,0,4.594-2.157,4.594-4.906C454.25,469.938,452.182,467.75,449.656,467.75z"/>
	<path fill="#FFFFFF" d="M423.406,423.813c0-1.51-1.24-2.75-2.75-2.75h-3.125v5.5h3.125
		C422.166,426.545,423.406,425.321,423.406,423.813z"/>
	<polygon fill="#FFFFFF" points="191.656,671.188 198.75,671.188 195.219,661.781 	"/>
	<path fill="#FFFFFF" d="M247.438,403.938c-2.299,0-4.236,1.644-4.688,3.969h9.281C251.631,405.606,249.687,403.938,247.438,403.938
		z"/>
	<path fill="#FFFFFF" d="M234.109,266.93h7.617c0.973,0,2.064-1.293,2.064-2.265v-7.619c0-0.971-1.09-2.116-2.064-2.116h-7.617
		c-0.972,0-1.318,1.144-1.318,2.116v7.619C232.791,265.637,233.136,266.93,234.109,266.93z"/>
	<path fill="#FFFFFF" d="M234.551,283.93h7.478c0.972,0,1.761-0.788,1.761-1.761v-7.479c0-0.973-0.788-1.761-1.761-1.761h-7.478
		c-0.972,0-1.761,0.788-1.761,1.761v7.479C232.79,283.142,233.578,283.93,234.551,283.93z"/>
	<path fill="#FFFFFF" d="M236.031,408.688c-0.1-2.624-2.194-4.719-4.719-4.719c-0.161,0-0.312-0.017-0.469,0
		c-2.355,0.252-4.219,2.352-4.219,4.906c0,2.699,2.113,4.875,4.688,4.875c2.525,0,4.619-2.088,4.719-4.688V408.688z"/>
	<polygon fill="#FFFFFF" points="225.281,627.094 230.438,627.094 227.875,620.25 	"/>
	<polygon fill="#FFFFFF" points="175.531,671.188 182.594,671.188 179.063,661.781 	"/>
	<path fill="#FFFFFF" d="M915.791,447.567V332.931c0-8.597-7.875-16.001-17.334-16.001h-82.58c-9.122,0-16.087,7.26-16.087,16.001
		v114.637c0,9.092,7.201,16.362,15.938,16.362h82.875C907.664,463.93,915.791,456.502,915.791,447.567z M898.603,459.93h-82.875
		c-6.568,0-11.938-5.438-11.938-12.362V332.931h0.001c0-6.5,5.207-12.001,12.086-12.001h82.58c6.353,0,13.334,5.067,13.334,12.001
		v114.637C911.79,454.253,905.41,459.93,898.603,459.93z"/>
	<path fill="#FFFFFF" d="M886.868,353.417c-2.284-1.103-4.959-0.308-5.552-0.1c-10.381,3.615-20.62,7.067-30.63,10.666
		c-6.457,2.319-8.563,5.615-8.604,12.713c-0.033,5.796-0.031,11.592-0.037,17.389c-0.005,4.988-0.002,9.978-0.002,15.159
		c-7.875-1.593-14.18,0.179-18.684,6.755c-3.079,4.495-2.188,10.72,1.982,13.373h-0.001c5.082,3.235,10.357,2.819,15.369,0.04
		c4.563-2.526,7.04-6.609,6.947-12.445c-0.146-9.059-0.007-18.117-0.055-27.176c-0.017-2.709,0.657-5.007,3.248-5.911
		c9.521-3.318,19.229-6.591,29.129-9.785c2.692-0.87,3.112,0.426,3.114,1.927c0.228,8.183,0.144,16.378,0.144,24.646
		c-9.359-1.58-15.294,0.137-19.657,5.381c-4.12,4.951-3.623,11.847,1.399,15.082c5.34,3.439,11,2.986,16.426,0.205
		c5.06-2.594,8.008-6.699,7.958-12.961c-0.122-15.934-0.134-31.868,0.032-47.803C889.433,356.872,889.226,354.773,886.868,353.417z"
		/>
	<path fill="#FFFFFF" d="M841.075,449.725c-0.409,0-0.729,0.322-0.729,0.731s0.32,0.731,0.729,0.731s0.729-0.322,0.729-0.731
		S841.484,449.725,841.075,449.725z"/>
	<path fill="#FFFFFF" d="M852.462,441.057c-0.16-0.101-0.394-0.071-0.496,0.089l-3.625,5.043l-3.641-5.043
		c-0.117-0.16-0.336-0.19-0.496-0.089c-0.015,0.015-0.029,0.015-0.029,0.029c-0.087,0.059-0.146,0.161-0.146,0.277v9.473
		c0,0.191,0.16,0.353,0.365,0.353c0.189,0,0.351-0.162,0.351-0.353v-8.405l3.274,4.532c0.074,0.117,0.176,0.16,0.307,0.16h0.029
		c0.104,0,0.22-0.043,0.293-0.16l3.273-4.547v8.42c0,0.191,0.146,0.353,0.352,0.353c0.189,0,0.352-0.162,0.352-0.353v-9.473
		c0-0.059-0.03-0.13-0.059-0.189C852.536,441.13,852.507,441.101,852.462,441.057z"/>
	<path fill="#FFFFFF" d="M858.881,440.955h-2.85h-0.045c-0.19,0-0.352,0.161-0.352,0.35h0.001v9.531
		c0,0.191,0.162,0.353,0.352,0.353c0.205,0,0.365-0.162,0.365-0.353v-4.02l2.528-0.029c1.608,0,2.909-1.3,2.909-2.909
		C861.79,442.27,860.489,440.955,858.881,440.955z M858.88,446.1h-2.528v-4.429h2.528c1.213,0,2.207,0.993,2.207,2.207
		S860.093,446.086,858.88,446.1z"/>
	<path fill="#FFFFFF" d="M869.698,441.482c0.029-0.043,0.044-0.102,0.044-0.16c0-0.205-0.161-0.365-0.365-0.365h-4.779
		c-0.205,0-0.366,0.16-0.366,0.365c0,0.204,0.161,0.365,0.366,0.365h3.916l-2.543,2.615c-0.146,0.146-0.146,0.38,0,0.526h0.016
		c0.073,0.087,0.175,0.146,0.292,0.146c0.701,0,1.403,0.264,1.93,0.805c0.541,0.526,0.806,1.228,0.806,1.93
		s-0.265,1.403-0.806,1.944c-0.541,0.524-1.242,0.789-1.944,0.789c-0.7,0-1.389-0.265-1.929-0.789c-0.146-0.146-0.381-0.146-0.512,0
		c-0.146,0.146-0.146,0.38,0,0.512c0.671,0.686,1.563,1.023,2.44,1.023c0.892,0,1.783-0.352,2.455-1.023
		c0.688-0.673,1.023-1.564,1.023-2.456s-0.336-1.783-1.009-2.456c-0.497-0.498-1.11-0.804-1.755-0.936l2.646-2.72
		C869.653,441.569,869.684,441.525,869.698,441.482z"/>
	<path fill="#FFFFFF" d="M369.786,442.93h103.109c8.47,0,15.895-6.162,15.895-14.479v-20.253l-40.65-41.902l-19.821,9.604
		L404.5,353.517l-49.71,24.83v50.104C354.79,437.064,361.614,442.93,369.786,442.93z M433.281,419.969
		c1.583,0,2.979,0.546,4.125,1.438c0.164,0.127,0.226,0.444,0.063,0.625c-0.146,0.182-0.406,0.209-0.625,0.063
		c-0.928-0.764-2.198-1.219-3.563-1.219c-3.183,0-5.719,2.475-5.719,5.531c0,3.092,2.537,5.594,5.719,5.594
		c1.237,0,2.429-0.401,3.375-1.094v-3.75h-3.469c-0.255,0-0.469-0.183-0.469-0.438s0.214-0.438,0.469-0.438h3.938h0.031
		c0.219,0.019,0.406,0.201,0.406,0.438v4.375v0.063c-0.018,0.127-0.065,0.271-0.156,0.344c-1.128,0.891-2.56,1.406-4.125,1.406
		c-3.656-0.019-6.625-2.899-6.625-6.5C426.656,422.859,429.625,419.969,433.281,419.969z M416.625,420.594
		c0-0.237,0.2-0.438,0.438-0.438h0.063h3.531c2.001,0,3.625,1.655,3.625,3.656c0,2-1.624,3.594-3.625,3.594l-3.125,0.063v5
		c0,0.236-0.214,0.438-0.469,0.438c-0.236,0-0.438-0.2-0.438-0.438V420.594z M405.063,429.344c0.236-0.072,0.478,0.063,0.531,0.281
		c0.455,1.4,1.753,2.393,3.281,2.375c1.892,0,3.438-1.515,3.438-3.406v-8c0-0.237,0.2-0.438,0.438-0.438s0.438,0.199,0.438,0.438v8
		c0,2.4-1.93,4.313-4.313,4.313c-1.91,0-3.549-1.273-4.094-3C404.707,429.668,404.825,429.417,405.063,429.344z M402.156,431.063
		c0.509,0,0.906,0.428,0.906,0.938c0,0.509-0.397,0.906-0.906,0.906s-0.906-0.397-0.906-0.906S401.647,431.063,402.156,431.063z"/>
	<path fill="#FFFFFF" d="M821.499,487.797c0.247,0,0.456-0.209,0.456-0.457v-12.329c0-0.075-0.038-0.172-0.076-0.248
		c-0.038-0.056-0.074-0.094-0.133-0.151c-0.209-0.133-0.513-0.096-0.646,0.113l-4.72,6.564l-4.737-6.564
		c-0.151-0.209-0.438-0.246-0.646-0.113c-0.019,0.019-0.038,0.019-0.038,0.038c-0.114,0.075-0.189,0.21-0.189,0.361v12.329
		c0,0.248,0.209,0.457,0.477,0.457c0.247,0,0.456-0.209,0.456-0.457V476.4l4.263,5.897c0.095,0.152,0.229,0.209,0.399,0.209h0.038
		c0.133,0,0.285-0.057,0.381-0.209l4.26-5.915v10.957C821.042,487.588,821.232,487.797,821.499,487.797z"/>
	<path fill="#FFFFFF" d="M826.386,474.479h-0.057c-0.248,0-0.457,0.209-0.457,0.457v12.404c0,0.248,0.209,0.457,0.457,0.457
		c0.267,0,0.476-0.209,0.476-0.457v-5.231l3.293-0.038c2.093,0,3.786-1.693,3.786-3.786s-1.693-3.806-3.786-3.806H826.386z
		 M832.97,478.283c0,1.579-1.294,2.873-2.872,2.892h-3.293v-5.765h3.293C831.676,475.41,832.97,476.704,832.97,478.283z"/>
	<path fill="#FFFFFF" d="M844.172,475.162c0.039-0.057,0.059-0.133,0.059-0.209c0-0.267-0.21-0.477-0.477-0.477h-6.223
		c-0.266,0-0.475,0.21-0.475,0.477s0.209,0.476,0.475,0.476h5.1l-3.311,3.406c-0.189,0.191-0.189,0.495,0,0.686h0.02
		c0.096,0.113,0.229,0.189,0.381,0.189c0.913,0,1.826,0.343,2.512,1.047c0.704,0.686,1.046,1.599,1.046,2.513
		c0,0.912-0.342,1.825-1.046,2.529c-0.704,0.686-1.617,1.027-2.53,1.027c-0.914,0-1.809-0.341-2.512-1.027
		c-0.19-0.189-0.495-0.189-0.666,0c-0.19,0.19-0.19,0.495,0,0.666c0.875,0.895,2.035,1.332,3.178,1.332
		c1.16,0,2.32-0.457,3.196-1.332c0.894-0.875,1.332-2.036,1.332-3.195c0-1.161-0.438-2.321-1.313-3.197
		c-0.646-0.647-1.444-1.046-2.282-1.218l3.443-3.539C844.116,475.277,844.154,475.22,844.172,475.162z"/>
	<path fill="#FFFFFF" d="M858.516,474.535c-0.191,0-0.382,0.114-0.457,0.286l-4.624,12.349c-0.095,0.229,0.038,0.513,0.267,0.609
		c0.057,0,0.133,0.019,0.171,0.019c0.19,0,0.362-0.115,0.438-0.305l1.18-3.14h6.069l1.179,3.14c0.077,0.19,0.267,0.305,0.438,0.305
		c0.059,0,0.096-0.019,0.172-0.019c0.228-0.096,0.343-0.38,0.248-0.609l-4.625-12.349
		C858.913,474.649,858.725,474.535,858.516,474.535z M855.831,483.421l2.702-7.155l2.683,7.155H855.831z"/>
	<path fill="#FFFFFF" d="M866.426,478.454c-0.246,0-0.457,0.19-0.457,0.457v5.08c0,2.093,1.676,3.806,3.769,3.806
		c2.132,0,3.825-1.713,3.825-3.806v-5.08c0-0.267-0.21-0.457-0.478-0.457c-0.228,0-0.457,0.19-0.457,0.457v5.08
		c0,1.599-1.293,2.873-2.892,2.893c-1.579-0.02-2.854-1.294-2.854-2.893v-5.08C866.882,478.645,866.673,478.454,866.426,478.454z"/>
	<path fill="#FFFFFF" d="M885.754,487.797c0.247,0,0.456-0.209,0.456-0.457v-4.186v-0.19v-8.028c0-0.248-0.209-0.457-0.456-0.457
		c-0.267,0-0.476,0.209-0.476,0.457v5.364c-0.818-1.103-2.112-1.826-3.577-1.826c-2.512,0-4.51,2.094-4.51,4.682
		c0,2.55,1.998,4.643,4.51,4.643c1.465,0,2.759-0.704,3.577-1.808v1.35C885.278,487.588,885.487,487.797,885.754,487.797z
		 M881.701,486.864c-1.96,0-3.577-1.655-3.577-3.71c0-2.074,1.617-3.749,3.577-3.749c1.922,0,3.501,1.599,3.577,3.597v0.305
		C885.202,485.285,883.623,486.865,881.701,486.864z"/>
	<path fill="#FFFFFF" d="M890.85,478.474c-0.247,0-0.457,0.189-0.457,0.456v8.41c0,0.248,0.21,0.457,0.457,0.457
		c0.267,0,0.477-0.209,0.477-0.457v-8.41C891.326,478.663,891.116,478.474,890.85,478.474z"/>
	<path fill="#FFFFFF" d="M891.326,475.886c0-0.248-0.21-0.457-0.477-0.457c-0.247,0-0.457,0.209-0.457,0.457v0.438
		c0,0.266,0.21,0.495,0.457,0.495c0.267,0,0.477-0.229,0.477-0.495V475.886z"/>
	<path fill="#FFFFFF" d="M895.28,483.135c0,2.531,1.979,4.662,4.415,4.662c2.454,0,4.414-2.131,4.414-4.662
		c0-2.529-1.96-4.661-4.414-4.661C897.26,478.474,895.28,480.605,895.28,483.135z M903.196,483.135c0,2.074-1.599,3.749-3.501,3.749
		c-1.903,0-3.501-1.675-3.501-3.749c0-2.073,1.598-3.768,3.501-3.768C901.598,479.367,903.196,481.063,903.196,483.135z"/>
	<path fill="#FFFFFF" d="M43.781,734.938h538V616.063c-23.723,3.685-49.335,5.771-76,6.156v41.063l-65.469-65.469l65.469-65.5
		v40.906c26.922-0.424,52.686-2.74,76-6.813V142.938h-538V734.938z M151.438,414.375c0,0.324-0.269,0.594-0.594,0.594
		c-0.35,0-0.594-0.269-0.594-0.594v-14.406l-5.594,7.781c-0.125,0.2-0.325,0.281-0.5,0.281h-0.063c-0.225,0-0.406-0.081-0.531-0.281
		l-5.594-7.75v14.375c0,0.324-0.269,0.594-0.594,0.594c-0.35,0-0.625-0.269-0.625-0.594v-16.188c0-0.2,0.1-0.369,0.25-0.469
		c0-0.025,0.038-0.037,0.063-0.063c0.069-0.044,0.142-0.078,0.219-0.094c0.231-0.047,0.475,0.045,0.625,0.25l6.219,8.625
		l6.188-8.625c0.175-0.274,0.6-0.332,0.875-0.156c0.075,0.074,0.106,0.113,0.156,0.188c0.05,0.101,0.094,0.245,0.094,0.344V414.375z
		 M159.094,410v4.375c0,0.324-0.275,0.594-0.625,0.594c-0.325,0-0.625-0.269-0.625-0.594v-16.219c0-0.35,0.3-0.625,0.625-0.625
		c0.35,0,0.625,0.275,0.625,0.625v10.125l10.563-10.563c0.25-0.226,0.644-0.226,0.844,0c0.25,0.225,0.25,0.626,0,0.875l-6.688,6.688
		l6.844,8.688c0.2,0.275,0.156,0.625-0.094,0.875c-0.125,0.1-0.256,0.125-0.406,0.125c-0.175,0-0.344-0.044-0.469-0.219l-6.75-8.594
		L159.094,410z M185.406,676.906c-0.1,0-0.175,0.031-0.25,0.031c-0.225,0-0.462-0.157-0.563-0.406l-1.563-4.125h-7.969l-1.531,4.125
		c-0.1,0.249-0.344,0.406-0.594,0.406c-0.05,0-0.144-0.031-0.219-0.031c-0.3-0.125-0.469-0.512-0.344-0.813l6.063-16.219
		c0.1-0.225,0.344-0.375,0.594-0.375c0.275,0,0.55,0.15,0.625,0.375l6.063,16.219C185.844,676.395,185.706,676.781,185.406,676.906z
		 M201.531,676.906c-0.1,0-0.144,0.031-0.219,0.031c-0.225,0-0.462-0.157-0.563-0.406l-1.563-4.125h-7.969l-1.531,4.125
		c-0.1,0.249-0.344,0.406-0.594,0.406c-0.05,0-0.144-0.031-0.219-0.031c-0.3-0.125-0.469-0.512-0.344-0.813l6.063-16.219
		c0.1-0.225,0.344-0.375,0.594-0.375c0.275,0,0.519,0.15,0.594,0.375l6.094,16.219C202,676.395,201.831,676.781,201.531,676.906z
		 M213.094,675.688c1.85,0,3.544-0.589,4.844-1.688c0.3-0.2,0.7-0.143,0.875,0.156c0.25,0.225,0.212,0.675-0.063,0.875
		c-1.524,1.175-3.507,1.906-5.656,1.906c-5.024,0-9.094-3.97-9.094-8.844c0.001-4.974,4.07-8.881,9.094-8.906
		c2.149,0,4.132,0.731,5.656,1.906c0.275,0.225,0.319,0.65,0.094,0.875c-0.2,0.3-0.594,0.325-0.844,0.125
		c-1.35-1.05-3.056-1.688-4.906-1.688c-4.374,0-7.875,3.414-7.875,7.688C205.219,672.269,208.72,675.688,213.094,675.688z
		 M243.469,676.906c-0.1,0-0.144,0.031-0.219,0.031c-0.225,0-0.494-0.157-0.594-0.406l-1.531-4.125h-7.969l-1.563,4.125
		c-0.1,0.249-0.313,0.406-0.563,0.406c-0.05,0-0.144-0.031-0.219-0.031c-0.3-0.125-0.5-0.512-0.375-0.813l6.094-16.219
		c0.1-0.225,0.344-0.375,0.594-0.375c0.275,0,0.519,0.15,0.594,0.375l6.063,16.219C243.906,676.395,243.769,676.781,243.469,676.906
		z M261.25,669.844c0,3.899-3.17,7.094-7.094,7.094c-3.874,0-7.063-3.194-7.063-7.094v-9.813c0-0.325,0.269-0.594,0.594-0.594
		c0.35,0,0.625,0.268,0.625,0.594v9.813c0,3.225,2.645,5.817,5.844,5.844c3.249-0.025,5.875-2.619,5.875-5.844v-9.813
		c0-0.325,0.269-0.594,0.594-0.594c0.35,0,0.625,0.268,0.625,0.594V669.844z M270.531,676.938h-3.219h-0.094
		c-0.3-0.025-0.563-0.3-0.563-0.625v-16.281c0-0.325,0.3-0.594,0.625-0.594h0.063h3.188c4.824,0,8.75,3.926,8.75,8.75
		C279.281,673.011,275.355,676.938,270.531,676.938z M284.781,676.313c0,0.324-0.275,0.625-0.625,0.625
		c-0.325,0-0.594-0.3-0.594-0.625v-16.281c0-0.325,0.269-0.594,0.594-0.594c0.35,0,0.625,0.268,0.625,0.594V676.313z
		 M298.688,676.938c-4.724,0-8.413-3.976-8.438-8.875c0.025-4.898,3.713-8.875,8.438-8.875c4.674,0,8.35,3.977,8.375,8.875
		C307.038,672.962,303.361,676.938,298.688,676.938z M366.906,472.875c0,3.3-2.663,5.938-5.938,5.938
		c-2.625,0-4.876-1.72-5.625-4.094c-0.102-0.325,0.05-0.681,0.375-0.781c0.325-0.1,0.675,0.075,0.75,0.375
		c0.625,1.925,2.4,3.307,4.5,3.281c2.6,0,4.719-2.12,4.719-4.719v-10.969c0-0.325,0.3-0.594,0.625-0.594s0.594,0.268,0.594,0.594
		V472.875z M377.188,471.281l-4.344,0.063v6.875c0,0.324-0.275,0.594-0.625,0.594c-0.325,0-0.594-0.269-0.594-0.594v-16.313
		c0-0.325,0.269-0.594,0.594-0.594h0.094h4.875c2.75,0,4.969,2.251,4.969,5S379.938,471.281,377.188,471.281z M400.406,476.344
		v0.094c-0.025,0.175-0.094,0.339-0.219,0.438c-1.549,1.225-3.507,1.938-5.656,1.938c-5.024-0.025-9.094-3.958-9.094-8.906
		c0-4.874,4.069-8.844,9.094-8.844c2.174,0,4.081,0.744,5.656,1.969c0.225,0.175,0.318,0.594,0.094,0.844
		c-0.2,0.249-0.575,0.325-0.875,0.125c-1.275-1.05-3.001-1.719-4.875-1.719c-4.374,0-7.875,3.426-7.875,7.625
		c0,4.249,3.501,7.688,7.875,7.688c1.7,0,3.325-0.55,4.625-1.5v-5.156h-4.781c-0.35,0-0.625-0.244-0.625-0.594
		c0-0.351,0.275-0.625,0.625-0.625h5.406h0.063c0.3,0.024,0.563,0.3,0.563,0.625V476.344z M415.469,478.219
		c0,0.324-0.275,0.594-0.625,0.594c-0.325,0-0.625-0.269-0.625-0.594v-16.313c0-0.325,0.3-0.594,0.625-0.594
		c0.35,0,0.625,0.268,0.625,0.594V478.219z M440.094,478.219c0,0.3-0.244,0.594-0.594,0.594c-0.325,0-0.563-0.294-0.563-0.594
		v-6.656c-0.05-2.074-1.714-3.813-3.813-3.813c-2.074,0-3.781,1.738-3.781,3.813v6.656v0.094c0,0.025-0.031,0.031-0.031,0.031v0.063
		c-0.05,0.149-0.156,0.237-0.281,0.313c-0.1,0.05-0.213,0.094-0.313,0.094h-0.063h-0.063c-0.025,0-0.031-0.031-0.031-0.031
		c-0.05,0-0.106-0.038-0.156-0.063c-0.025,0-0.068-0.036-0.094-0.063l-0.063-0.063c-0.025-0.025-0.037-0.063-0.063-0.063
		c0-0.024,0.025-0.036,0-0.063c0,0-0.006-0.005-0.031-0.031c0-0.024-0.006-0.068-0.031-0.094v-0.063v-0.063v-6.656
		c0-2.074-1.683-3.813-3.781-3.813c-2.1,0-3.781,1.738-3.781,3.813v6.656c0,0.2-0.075,0.399-0.25,0.5
		c-0.025,0.024-0.106,0.063-0.156,0.063c-0.025,0.025-0.044,0.031-0.094,0.031h-0.094h-0.063c-0.225-0.025-0.425-0.244-0.5-0.469
		v-0.125v-6.656v-0.219v-4.188c0-0.324,0.263-0.563,0.563-0.563c0.35,0,0.594,0.238,0.594,0.563v1.188
		c0.9-1.074,2.257-1.75,3.781-1.75c1.899,0,3.525,1.045,4.375,2.594c0.875-1.549,2.531-2.594,4.406-2.594
		c2.75,0,4.969,2.22,4.969,4.969V478.219z M455.438,478.219c0,0.324-0.269,0.594-0.594,0.594s-0.594-0.269-0.594-0.594v-1.844
		c-1.049,1.45-2.719,2.438-4.594,2.438c-3.224,0-5.813-2.776-5.813-6.125c0-3.35,2.589-6.125,5.813-6.125
		c1.875,0,3.544,0.957,4.594,2.406v-1.813c0-0.35,0.269-0.594,0.594-0.594s0.594,0.245,0.594,0.594V478.219z M472.219,477.844
		c0,3.174-2.582,5.75-5.781,5.75c-0.899,0-1.732-0.245-2.531-0.594c-0.25-0.175-0.4-0.506-0.25-0.781
		c0.15-0.325,0.481-0.456,0.781-0.281c0.625,0.3,1.25,0.438,2,0.438c2.55,0,4.594-2.006,4.594-4.531v-1.5
		c-1.025,1.475-2.72,2.375-4.594,2.375c-3.199,0-5.75-2.72-5.75-6.094c0-3.299,2.55-6.063,5.75-6.063
		c1.875,0,3.568,0.957,4.594,2.406v-1.813c0-0.324,0.275-0.594,0.625-0.594c0.3,0,0.563,0.269,0.563,0.594V477.844z M489,472.281
		v0.063c0,0.325-0.269,0.563-0.594,0.563h-10.063c0.125,2.674,2.226,4.688,4.75,4.688c1.625,0,3.144-0.845,3.969-2.219
		c0.175-0.3,0.531-0.339,0.781-0.188c0.275,0.2,0.394,0.544,0.219,0.844c-1.05,1.675-2.895,2.781-4.969,2.781
		c-3.299,0.001-5.938-2.744-5.938-6.094c0-3.399,2.638-6.156,5.938-6.156c3.149,0,5.656,2.488,5.906,5.688V472.281z M349.79,285.826
		c0-10.877,8.833-19.896,20.181-19.896h102.742c11.769,0,21.077,9.2,21.077,19.896v142.625c0,11.116-9.623,19.479-20.895,19.479
		H369.786c-10.87,0-19.996-8.168-19.996-19.479V285.826z M312.79,483.893v142.891c0,11.137-9.674,21.146-20.968,21.146H188.521
		c-10.89,0-19.731-9.814-19.731-21.146V483.893c0-10.898,8.546-19.963,19.916-19.963H291.64
		C303.43,463.93,312.79,473.176,312.79,483.893z M174.219,397.625c0.075-0.037,0.171-0.061,0.25-0.063
		c0.238-0.007,0.469,0.15,0.563,0.375l6.25,14.875l6.281-14.875c0.1-0.3,0.45-0.463,0.75-0.313c0.3,0.125,0.469,0.513,0.344,0.813
		l-6.781,16c-0.025,0.225-0.144,0.425-0.344,0.5H181.5c-0.075,0.024-0.144,0.031-0.219,0.031s-0.169-0.006-0.219-0.031h-0.031
		c-0.151-0.051-0.263-0.162-0.313-0.313c-0.025,0-0.031-0.036-0.031-0.063l-6.781-16.125
		C173.781,398.138,173.919,397.75,174.219,397.625z M200.469,397.625c0.075-0.037,0.171-0.061,0.25-0.063
		c0.238-0.007,0.469,0.15,0.563,0.375l6.25,14.875l6.281-14.875c0.1-0.3,0.45-0.463,0.75-0.313c0.3,0.125,0.469,0.513,0.344,0.813
		l-6.781,16c-0.025,0.225-0.144,0.425-0.344,0.5h-0.031c-0.075,0.024-0.144,0.031-0.219,0.031s-0.169-0.006-0.219-0.031h-0.031
		c-0.151-0.051-0.263-0.162-0.313-0.313c-0.025,0-0.031-0.036-0.031-0.063l-6.781-16.125
		C200.031,398.138,200.169,397.75,200.469,397.625z M219.844,402.719c0.35,0,0.625,0.275,0.625,0.625v11.031
		c0,0.324-0.275,0.594-0.625,0.594c-0.325,0-0.625-0.269-0.625-0.594v-11.031C219.219,402.994,219.519,402.719,219.844,402.719z
		 M219.219,399.906v-0.563c0-0.324,0.3-0.625,0.625-0.625c0.35,0,0.625,0.3,0.625,0.625v0.563c0,0.35-0.275,0.656-0.625,0.656
		C219.519,400.563,219.219,400.255,219.219,399.906z M231.313,414.969c-3.299,0-5.906-2.744-5.906-6.094
		c0-3.399,2.607-6.156,5.906-6.156c1.924,0,3.644,0.957,4.719,2.406v-7.031c0-0.325,0.275-0.625,0.625-0.625
		c0.325,0,0.594,0.299,0.594,0.625v10.531v0.25v5.5c0,0.324-0.269,0.594-0.594,0.594c-0.35,0-0.625-0.269-0.625-0.594v-1.781
		C234.956,414.043,233.237,414.969,231.313,414.969z M247.438,413.781c1.625,0,3.112-0.845,3.938-2.219
		c0.175-0.3,0.563-0.37,0.813-0.219c0.275,0.2,0.362,0.544,0.188,0.844c-1.05,1.675-2.863,2.781-4.938,2.781
		c-3.3,0.001-5.969-2.744-5.969-6.094c0-3.399,2.669-6.156,5.969-6.156c3.149,0,5.625,2.52,5.875,5.719v0.094
		c0,0.325-0.269,0.531-0.594,0.531h-10.031C242.813,411.736,244.914,413.781,247.438,413.781z M257,408.844
		c0-3.324,2.613-6.125,5.813-6.125c3.224,0,5.781,2.801,5.781,6.125s-2.557,6.125-5.781,6.125
		C259.613,414.969,257,412.168,257,408.844z M131.781,223.094c0-10.82,9.46-20.156,20.75-20.156h102.188
		c11.708,0,21.063,9.515,21.063,20.156V365c0,11.06-9.663,19.938-20.875,19.938H152.344c-10.815,0-20.563-8.685-20.563-19.938
		V223.094z"/>
	<path fill="#FFFFFF" d="M173.79,483.892L173.79,483.892v142.892c0,8.629,6.543,15.146,14.731,15.146h103.302
		c8.486,0,15.967-6.813,15.967-15.146V483.892c0-8.644-8.233-14.962-16.15-14.962H188.706
		C180.131,468.93,173.79,475.788,173.79,483.892z M220.125,631.281c-0.51,0-0.906-0.396-0.906-0.906c0-0.51,0.396-0.906,0.906-0.906
		c0.51,0,0.906,0.396,0.906,0.906C221.031,630.886,220.635,631.281,220.125,631.281z M232.469,631.281h-0.156
		c-0.164,0-0.333-0.099-0.406-0.281l-1.125-3h-5.813l-1.125,3c-0.073,0.183-0.255,0.281-0.438,0.281h-0.156
		c-0.219-0.091-0.341-0.375-0.25-0.594l4.406-11.813c0.073-0.163,0.255-0.281,0.438-0.281c0.201,0,0.382,0.118,0.438,0.281
		l4.438,11.813C232.81,630.906,232.687,631.19,232.469,631.281z M244.25,631.281h-0.156c-0.164,0-0.333-0.099-0.406-0.281l-1.156-3
		h-5.813l-1.125,3c-0.073,0.183-0.224,0.281-0.406,0.281h-0.156c-0.219-0.091-0.372-0.375-0.281-0.594l4.438-11.813
		c0.073-0.163,0.255-0.281,0.438-0.281c0.201,0,0.382,0.118,0.438,0.281l4.438,11.813
		C244.591,630.906,244.468,631.19,244.25,631.281z M252.688,630.406c1.348,0,2.584-0.449,3.531-1.25
		c0.219-0.146,0.497-0.093,0.625,0.125c0.182,0.164,0.139,0.479-0.063,0.625c-1.111,0.856-2.528,1.375-4.094,1.375
		c-3.662,0-6.656-2.854-6.656-6.406c0-3.625,2.994-6.514,6.656-6.531c1.566,0,2.983,0.55,4.094,1.406
		c0.201,0.164,0.258,0.492,0.094,0.656c-0.146,0.218-0.443,0.238-0.625,0.094c-0.984-0.766-2.214-1.25-3.563-1.25
		c-3.188,0-5.75,2.51-5.75,5.625C246.938,627.918,249.5,630.406,252.688,630.406z M198.038,587.436
		c5.614-8.197,13.472-10.405,23.288-8.422c0-6.459-0.003-12.678,0.003-18.894c0.007-7.226,0.005-14.45,0.046-21.675
		c0.05-8.847,2.675-12.955,10.724-15.848c12.476-4.482,25.24-8.787,38.179-13.296c0.739-0.259,4.073-1.249,6.92,0.125
		c2.939,1.691,3.197,4.308,3.151,8.917c-0.208,19.863-0.193,39.726-0.041,59.585c0.062,7.806-3.613,12.924-9.919,16.156
		c-6.764,3.468-13.819,4.032-20.475-0.256c-6.26-4.033-6.88-12.628-1.744-18.8c5.438-6.536,12.835-8.676,24.502-6.706
		c0-10.305,0.104-20.522-0.178-30.721c-0.003-1.87-0.527-3.485-3.883-2.4c-12.339,3.98-24.44,8.059-36.309,12.196
		c-3.229,1.128-4.069,3.991-4.049,7.369c0.059,11.291-0.112,22.581,0.068,33.872c0.115,7.275-2.971,12.365-8.66,15.515
		c-6.247,3.465-12.823,3.982-19.157-0.05v-0.001C195.307,600.796,194.196,593.037,198.038,587.436z"/>
	<path fill="#FFFFFF" d="M1001.408,449.677c-0.409,0-0.731,0.321-0.731,0.731c0,0.408,0.322,0.729,0.731,0.729
		s0.73-0.321,0.73-0.729C1002.139,449.998,1001.817,449.677,1001.408,449.677z"/>
	<path fill="#FFFFFF" d="M1007.607,440.906h-2.852h-0.044c-0.189,0-0.351,0.161-0.351,0.351h0.001v9.53
		c0,0.191,0.162,0.352,0.351,0.352c0.205,0,0.365-0.16,0.365-0.352v-4.021l2.529-0.028c1.606,0,2.908-1.301,2.908-2.908
		C1010.516,442.221,1009.214,440.906,1007.607,440.906z M1007.606,446.052h-2.529v-4.429h2.529c1.213,0,2.207,0.993,2.207,2.207
		C1009.813,445.043,1008.819,446.037,1007.606,446.052z"/>
	<path fill="#FFFFFF" d="M1020.104,441.007c-0.191,0-0.353,0.163-0.353,0.353v8.332l-6.196-8.597
		c-0.103-0.159-0.337-0.189-0.497-0.088c-0.133,0.104-0.177,0.25-0.133,0.396v9.384c0,0.192,0.162,0.352,0.353,0.352
		s0.35-0.16,0.35-0.352v-8.375l6.141,8.537c0.014,0.03,0.043,0.043,0.059,0.059c0.072,0.087,0.16,0.131,0.277,0.131
		c0.205,0,0.364-0.16,0.364-0.352v-9.428C1020.469,441.169,1020.31,441.007,1020.104,441.007z"/>
	<path fill="#FFFFFF" d="M1028.289,441.477c1.098,0,2.105,0.381,2.852,0.994c0.176,0.117,0.395,0.087,0.512-0.059
		c0.131-0.146,0.088-0.395-0.044-0.498c-0.921-0.715-2.047-1.154-3.318-1.154c-2.938,0-5.321,2.324-5.321,5.175
		c0,2.895,2.384,5.189,5.321,5.204c1.257,0,2.398-0.408,3.304-1.125c0.072-0.059,0.117-0.162,0.132-0.264v-0.059v-3.509
		c0-0.189-0.146-0.351-0.321-0.364h-0.044h-3.157c-0.204,0-0.365,0.16-0.365,0.364c0,0.205,0.161,0.352,0.365,0.352h2.79v3.011
		c-0.76,0.556-1.711,0.877-2.704,0.877c-2.557,0-4.604-2.002-4.604-4.487C1023.686,443.479,1025.731,441.477,1028.289,441.477z"/>
	<path fill="#FFFFFF" d="M966.949,474.724h-0.057c-0.248,0-0.457,0.209-0.457,0.457v12.405c0,0.248,0.209,0.457,0.457,0.457
		c0.267,0,0.476-0.209,0.476-0.457v-5.231l3.292-0.038c2.093,0,3.787-1.693,3.787-3.786s-1.694-3.807-3.787-3.807H966.949z
		 M973.532,478.529c0,1.579-1.294,2.873-2.873,2.892h-3.292v-5.765h3.292C972.238,475.656,973.532,476.95,973.532,478.529z"/>
	<path fill="#FFFFFF" d="M986.467,475.313v10.846l-8.067-11.188c-0.132-0.209-0.438-0.247-0.646-0.113
		c-0.172,0.134-0.229,0.324-0.172,0.514v12.216c0,0.248,0.209,0.457,0.457,0.457c0.247,0,0.457-0.209,0.457-0.457v-10.902
		l7.991,11.11c0.018,0.038,0.057,0.056,0.076,0.076c0.094,0.114,0.21,0.171,0.36,0.171c0.268,0,0.477-0.209,0.477-0.457v-12.271
		c0-0.247-0.209-0.457-0.477-0.457C986.676,474.855,986.467,475.065,986.467,475.313z"/>
	<path fill="#FFFFFF" d="M997.575,475.466c1.428,0,2.74,0.494,3.711,1.294c0.228,0.153,0.514,0.114,0.666-0.076
		c0.171-0.189,0.113-0.513-0.058-0.646c-1.198-0.932-2.663-1.503-4.319-1.503c-3.824,0-6.926,3.024-6.926,6.735
		c0,3.767,3.102,6.755,6.926,6.773c1.637,0,3.121-0.533,4.301-1.465c0.095-0.076,0.152-0.21,0.171-0.343v-0.076v-4.566
		c0-0.248-0.189-0.457-0.419-0.476h-0.057h-4.109c-0.268,0-0.477,0.209-0.477,0.476c0,0.268,0.209,0.456,0.477,0.456h3.634v3.92
		c-0.989,0.725-2.227,1.143-3.521,1.143c-3.33,0-5.994-2.607-5.994-5.842C991.581,478.072,994.245,475.466,997.575,475.466z"/>
	<path fill="#FFFFFF" d="M1012.562,475.181v12.405c0,0.248,0.209,0.457,0.457,0.457c0.266,0,0.476-0.209,0.476-0.457v-12.405
		c0-0.248-0.21-0.457-0.476-0.457C1012.771,474.724,1012.562,474.933,1012.562,475.181z"/>
	<path fill="#FFFFFF" d="M1031.355,487.606c0,0.229,0.19,0.438,0.438,0.438c0.268,0,0.457-0.209,0.457-0.438v-5.08
		c0-2.095-1.693-3.787-3.786-3.787c-1.428,0-2.684,0.798-3.35,1.979c-0.646-1.18-1.883-1.979-3.33-1.979
		c-1.16,0-2.188,0.514-2.873,1.332v-0.896c0-0.248-0.189-0.438-0.457-0.438c-0.228,0-0.438,0.19-0.438,0.438v3.197v0.152v5.08v0.095
		c0.059,0.172,0.211,0.324,0.382,0.343h0.057h0.058c0.038,0,0.058,0,0.076-0.019c0.038,0,0.094-0.038,0.114-0.059
		c0.133-0.076,0.209-0.209,0.209-0.36v-5.08c0-1.58,1.274-2.894,2.873-2.894s2.873,1.313,2.873,2.894v5.08v0.037v0.058
		c0.02,0.02,0.02,0.038,0.02,0.058c0.021,0.019,0.021,0.038,0.021,0.038c0.019,0.019,0.019,0.019,0.019,0.038
		c0.019,0,0.019,0.018,0.038,0.038l0.057,0.057c0.021,0.02,0.039,0.038,0.059,0.038c0.038,0.021,0.076,0.059,0.114,0.059
		c0,0,0.019,0.019,0.038,0.019h0.037h0.058c0.077,0,0.153-0.019,0.229-0.057c0.097-0.059,0.191-0.134,0.229-0.248v-0.038
		c0,0,0.02-0.019,0.02-0.038v-0.057v-5.08c0-1.58,1.293-2.894,2.873-2.894c1.599,0,2.854,1.313,2.893,2.894h-0.004V487.606z"/>
	<path fill="#FFFFFF" d="M1043.475,488.043c0.248,0,0.457-0.209,0.457-0.457v-8.41c0-0.267-0.209-0.456-0.457-0.456
		s-0.457,0.189-0.457,0.456v1.37c-0.8-1.103-2.073-1.826-3.5-1.826c-2.455,0-4.414,2.111-4.414,4.661s1.959,4.662,4.414,4.662
		c1.427,0,2.7-0.742,3.5-1.846v1.389C1043.018,487.834,1043.228,488.043,1043.475,488.043z M1039.518,487.13
		c-1.902,0-3.502-1.655-3.502-3.749c0-2.093,1.6-3.768,3.502-3.768c1.922,0,3.501,1.675,3.501,3.768
		C1043.019,485.475,1041.438,487.13,1039.518,487.13z"/>
	<path fill="#FFFFFF" d="M1052.299,490.765c-0.57,0-1.046-0.113-1.521-0.342c-0.229-0.134-0.495-0.038-0.609,0.209
		c-0.113,0.209,0,0.476,0.19,0.608c0.607,0.266,1.255,0.438,1.939,0.438c2.436,0,4.396-1.96,4.396-4.377v-8.125
		c0-0.247-0.209-0.456-0.438-0.456c-0.267,0-0.476,0.209-0.476,0.456v1.37c-0.78-1.103-2.054-1.826-3.481-1.826
		c-2.437,0-4.377,2.111-4.377,4.623c0,2.57,1.94,4.645,4.377,4.645c1.427,0,2.701-0.704,3.481-1.827v1.142
		C1055.78,489.224,1054.239,490.765,1052.299,490.765z M1052.298,487.092c-1.901,0-3.463-1.654-3.463-3.749
		c0-2.072,1.562-3.71,3.463-3.71c1.921,0,3.482,1.638,3.482,3.71C1055.78,485.438,1054.221,487.092,1052.298,487.092z"/>
	<path fill="#FFFFFF" d="M1069.456,483.135v-0.057v-0.021c-0.19-2.436-2.093-4.338-4.49-4.338c-2.511,0-4.527,2.094-4.527,4.682
		h-0.001c0,2.55,2.018,4.642,4.527,4.643c1.58,0,2.968-0.837,3.768-2.112c0.134-0.228,0.058-0.493-0.151-0.646
		c-0.19-0.115-0.476-0.077-0.608,0.152c-0.629,1.046-1.77,1.692-3.007,1.692c-1.922,0-3.52-1.541-3.615-3.577H1069
		C1069.247,483.554,1069.456,483.382,1069.456,483.135z M1061.409,482.659c0.342-1.771,1.807-3.026,3.558-3.025
		c1.712,0,3.196,1.274,3.501,3.025H1061.409z"/>
	<path fill="#FFFFFF" d="M1074.79,447.567V332.931c0-8.597-7.209-16.001-16.668-16.001h-82.58c-9.121,0-16.752,7.26-16.752,16.001
		v114.637c0,9.092,7.867,16.362,16.604,16.362h82.875C1067.33,463.93,1074.79,456.502,1074.79,447.567z M962.79,332.931
		c0-6.5,5.873-12.001,12.752-12.001h82.58c6.353,0,12.668,5.067,12.668,12.001v92.613l-31.738-32.794l-16.022,7.781l-19.323-18.01
		l-40.916,20.308V332.931z M1058.27,459.93h-82.875c-6.568,0-12.604-5.438-12.604-12.362v-40.271l40.23-19.958l19.28,17.99
		l15.872-7.719l32.617,33.679v16.279C1070.79,454.253,1065.076,459.93,1058.27,459.93z"/>
	<path fill="#FFFFFF" d="M1039.29,368.264c8.502,0,15.418-6.917,15.418-15.419s-6.916-15.419-15.418-15.419
		s-15.419,6.917-15.419,15.419S1030.788,368.264,1039.29,368.264z M1039.29,341.426c6.296,0,11.418,5.123,11.418,11.419
		s-5.122,11.419-11.418,11.419c-6.297,0-11.419-5.123-11.419-11.419S1032.993,341.426,1039.29,341.426z"/>
	<path fill="#FFFFFF" d="M449.283,324.811c7.833,0,14.206-6.375,14.206-14.209c0-7.832-6.373-14.207-14.206-14.207
		c-7.834,0-14.207,6.375-14.207,14.207C435.076,318.436,441.449,324.811,449.283,324.811z"/>
	<path fill="#FFFFFF" d="M429.13,369.931l20.015-9.682l39.646,40.801V285.825c0-8.627-8.175-13.896-16.077-13.896H369.971
		c-8.559,0-15.181,5.809-15.181,13.896v86.965l50.602-25.265L429.13,369.931z M449.283,291.418c10.577,0,19.183,8.605,19.183,19.184
		c0,10.579-8.604,19.184-19.183,19.184s-19.184-8.604-19.184-19.184C430.1,300.023,438.705,291.418,449.283,291.418z"/>
	<path fill="#FFFFFF" d="M152.344,380.938h102.563c8.425,0,15.875-7.663,15.875-15.938V223.094c0-8.581-8.198-15.156-16.063-15.156
		H152.531c-8.512,0-15.75,7.111-15.75,15.156V365C136.781,373.57,144.213,380.938,152.344,380.938z M185.39,369.474
		c-0.504,0-0.9-0.396-0.9-0.9c0-0.504,0.396-0.9,0.9-0.9c0.504,0,0.9,0.396,0.9,0.9C186.29,369.078,185.894,369.474,185.39,369.474z
		 M199.375,369.031c0,0.235-0.203,0.438-0.438,0.438c-0.253,0-0.406-0.201-0.406-0.438v-10.406l-4.063,5.625
		c-0.09,0.146-0.248,0.188-0.375,0.188h-0.031c-0.163,0-0.285-0.043-0.375-0.188l-4.063-5.625v10.406
		c0,0.235-0.202,0.438-0.438,0.438c-0.253,0-0.438-0.201-0.438-0.438v-11.719c0-0.145,0.08-0.271,0.188-0.344
		c0-0.019,0.013-0.015,0.031-0.031c0.05-0.031,0.101-0.051,0.156-0.063c0.167-0.034,0.33,0.007,0.438,0.156l4.531,6.25l4.469-6.25
		c0.127-0.199,0.426-0.221,0.625-0.094c0.054,0.054,0.089,0.102,0.125,0.156c0.036,0.072,0.063,0.146,0.063,0.219V369.031z
		 M213.219,369.375c-0.09,0.072-0.204,0.094-0.313,0.094c-0.126,0-0.222-0.029-0.313-0.156l-4.906-6.219l-2.781,2.781v3.156
		c0,0.235-0.215,0.438-0.469,0.438c-0.235,0-0.406-0.201-0.406-0.438v-11.75c0-0.253,0.171-0.438,0.406-0.438
		c0.253,0,0.469,0.185,0.469,0.438v7.344l7.656-7.656c0.181-0.163,0.481-0.163,0.625,0c0.181,0.163,0.181,0.443,0,0.625
		l-4.875,4.875l4.969,6.281C213.426,368.949,213.4,369.194,213.219,369.375z M226.313,357.5l-4.906,11.563
		c-0.018,0.163-0.106,0.321-0.25,0.375h-0.031c-0.054,0.018-0.103,0.031-0.156,0.031s-0.119,0.019-0.156,0
		c-0.018,0-0.031-0.031-0.031-0.031c-0.109-0.034-0.183-0.11-0.219-0.219c-0.018,0,0-0.015,0-0.031l-0.031-0.031l-4.906-11.656
		c-0.091-0.217,0.033-0.503,0.25-0.594c0.054-0.027,0.099-0.029,0.156-0.031c0.172-0.005,0.338,0.087,0.406,0.25l4.531,10.781
		l4.531-10.781c0.072-0.218,0.346-0.327,0.563-0.219C226.279,356.997,226.403,357.283,226.313,357.5z M157.629,254.759
		c0-4.937,1.344-6.288,6.191-6.288c13.392-0.003,66.962-0.005,80.355,0c4.661,0.002,5.988,1.279,5.99,5.829
		c0.01,26.98,0.01,53.962,0,80.942c0,4.602-1.283,5.848-5.973,5.851c-26.785,0.004-53.57,0.004-80.355,0
		c-4.91-0.002-6.208-1.315-6.208-6.271C157.625,308.133,157.625,281.447,157.629,254.759z"/>
</g>
</svg>
