<?xml version="1.0" encoding="utf-8"?>
<!-- Generator: Adobe Illustrator 16.0.0, SVG Export Plug-In . SVG Version: 6.00 Build 0)  -->
<!DOCTYPE svg PUBLIC "-//W3C//DTD SVG 1.1//EN" "http://www.w3.org/Graphics/SVG/1.1/DTD/svg11.dtd">
<svg version="1.1" id="Layer_1" xmlns="http://www.w3.org/2000/svg" xmlns:xlink="http://www.w3.org/1999/xlink" x="0px" y="0px"
	 width="100%" height="100%" viewBox="133.773 101.93 1100.01 633.01"
	 enable-background="new 133.773 101.93 1100.01 633.01" xml:space="preserve">
<g>
	<path fill="#FFFFFF" d="M783.253,129.279l-2.41-7.24h-1.24l3,8.72h1.25l3-8.72h-1.18L783.253,129.279z"/>
	<path fill="#FFFFFF" d="M791.772,124.76c-0.233-0.25-0.508-0.434-0.819-0.551c-0.313-0.117-0.673-0.176-1.078-0.176
		c-0.901,0-1.633,0.316-2.19,0.947c-0.56,0.631-0.838,1.479-0.838,2.545c0,1.082,0.287,1.918,0.862,2.506
		c0.576,0.588,1.388,0.881,2.431,0.881c0.265,0,0.483-0.015,0.658-0.046c0.174-0.031,0.368-0.076,0.584-0.135
		c0.151-0.043,0.324-0.102,0.516-0.178c0.191-0.076,0.352-0.14,0.479-0.191v-1.201h-0.063c-0.09,0.074-0.203,0.154-0.34,0.238
		c-0.138,0.084-0.306,0.17-0.504,0.26c-0.188,0.086-0.399,0.156-0.632,0.211c-0.231,0.055-0.469,0.082-0.711,0.082
		c-0.677,0-1.205-0.202-1.588-0.604c-0.384-0.402-0.573-0.984-0.573-1.746h4.534v-0.598c0-0.523-0.063-0.965-0.188-1.326
		C792.187,125.316,792.007,125.01,791.772,124.76 M787.966,126.757c0.021-0.278,0.077-0.52,0.163-0.729
		c0.087-0.209,0.212-0.4,0.375-0.572c0.169-0.168,0.354-0.295,0.56-0.383c0.206-0.088,0.455-0.133,0.748-0.133
		c0.297,0,0.545,0.043,0.746,0.129s0.366,0.211,0.496,0.375c0.117,0.149,0.208,0.33,0.27,0.545c0.063,0.215,0.098,0.471,0.105,0.768
		H787.966"/>
	<path fill="#FFFFFF" d="M793.843,124.22v6.545h1.102v-4.887c0.278-0.234,0.563-0.423,0.854-0.57s0.572-0.221,0.847-0.221
		c0.277,0,0.496,0.041,0.656,0.121s0.285,0.201,0.375,0.365c0.082,0.156,0.138,0.365,0.167,0.625c0.027,0.26,0.044,0.539,0.044,0.84
		v3.727h1.101v-4.247c0-0.805-0.181-1.418-0.545-1.842c-0.363-0.424-0.867-0.637-1.512-0.637c-0.356,0-0.693,0.078-1.014,0.234
		c-0.321,0.156-0.646,0.381-0.975,0.674v-0.728L793.843,124.22"/>
	<path fill="#FFFFFF" d="M800.732,124.22v4.248c0,0.441,0.051,0.816,0.155,1.125c0.104,0.309,0.25,0.565,0.437,0.768
		c0.188,0.203,0.407,0.351,0.659,0.445c0.252,0.094,0.521,0.141,0.807,0.141c0.375,0,0.716-0.075,1.021-0.229
		c0.305-0.155,0.627-0.381,0.967-0.678v0.727h1.102v-6.547h-1.103v4.887c-0.254,0.223-0.534,0.41-0.838,0.563
		s-0.591,0.229-0.86,0.229c-0.289,0-0.512-0.039-0.665-0.117c-0.154-0.078-0.275-0.201-0.366-0.369
		c-0.09-0.172-0.147-0.372-0.173-0.6c-0.024-0.228-0.038-0.517-0.038-0.865v-3.727H800.732"/>
	<path fill="#FFFFFF" d="M808.223,130.76l1.63-2.47l1.59,2.47h1.351l-2.261-3.32l2.261-3.22h-1.25l-1.62,2.45l-1.57-2.45h-1.36
		l2.25,3.3l-2.27,3.24H808.223z"/>
	<path fill="#FFFFFF" d="M821.732,126.89l-2.18-4.85h-1.58v8.72h1.08v-7.521l2.26,5.12h0.7l2.271-5.12v7.521h1.159h0.001v-8.72
		h-1.62L821.732,126.89z"/>
	<path fill="#FFFFFF" d="M827.322,124.22v4.248c0,0.441,0.052,0.816,0.155,1.125c0.104,0.309,0.25,0.565,0.438,0.768
		c0.188,0.203,0.406,0.351,0.659,0.445c0.252,0.094,0.521,0.141,0.806,0.141c0.375,0,0.716-0.075,1.021-0.229
		c0.306-0.155,0.627-0.381,0.967-0.678v0.727h1.102v-6.547h-1.102v4.887c-0.255,0.223-0.534,0.41-0.839,0.563
		c-0.304,0.153-0.591,0.229-0.86,0.229c-0.289,0-0.512-0.039-0.665-0.117c-0.153-0.078-0.275-0.201-0.366-0.369
		c-0.09-0.172-0.146-0.372-0.173-0.6c-0.024-0.228-0.038-0.517-0.038-0.865v-3.727H827.322"/>
	<path fill="#FFFFFF" d="M834.322,121.64h1.104v9.117h-1.104V121.64z"/>
	<path fill="#FFFFFF" d="M837.373,122.339v1.881h-0.743v0.914h0.743v3.627c0,0.738,0.168,1.279,0.505,1.621
		c0.336,0.342,0.804,0.512,1.405,0.512c0.181,0,0.375-0.014,0.588-0.048c0.214-0.034,0.424-0.08,0.63-0.139v-0.99h-0.063
		c-0.074,0.035-0.195,0.08-0.361,0.133c-0.168,0.053-0.342,0.078-0.521,0.078c-0.254,0-0.456-0.033-0.604-0.102
		c-0.147-0.069-0.257-0.172-0.322-0.309c-0.077-0.156-0.122-0.324-0.135-0.504c-0.013-0.18-0.019-0.436-0.019-0.768v-3.111h2.025
		v-0.914h-2.025v-1.881H837.373"/>
	<path fill="#FFFFFF" d="M841.503,121.979h1.255v1.143h-1.255V121.979z"/>
	<path fill="#FFFFFF" d="M842.683,130.76v-6.54h-1.1v6.54H842.683z"/>
	<path fill="#FFFFFF" d="M844.543,124.22v6.545h1.103v-4.887c0.246-0.23,0.5-0.419,0.763-0.568s0.513-0.223,0.75-0.223
		c0.245,0,0.44,0.036,0.586,0.111c0.146,0.075,0.256,0.19,0.334,0.346c0.073,0.145,0.123,0.346,0.146,0.602s0.035,0.533,0.035,0.834
		v3.785h1.102v-4.307c0-0.125-0.003-0.232-0.009-0.324c-0.006-0.092-0.011-0.172-0.016-0.238c0.277-0.262,0.548-0.461,0.807-0.6
		s0.502-0.209,0.729-0.209c0.245,0,0.44,0.036,0.586,0.111c0.146,0.075,0.256,0.19,0.334,0.346c0.073,0.145,0.123,0.346,0.146,0.602
		s0.035,0.533,0.035,0.834v3.785l0,0h1.104v-4.307c0-0.449-0.049-0.822-0.144-1.119c-0.095-0.297-0.231-0.545-0.407-0.744
		c-0.172-0.195-0.373-0.336-0.604-0.424c-0.231-0.088-0.487-0.133-0.77-0.133c-0.371,0-0.714,0.095-1.03,0.287
		s-0.642,0.473-0.974,0.844c-0.156-0.402-0.384-0.691-0.683-0.867c-0.3-0.176-0.643-0.264-1.028-0.264
		c-0.34,0-0.652,0.08-0.936,0.238c-0.282,0.158-0.568,0.381-0.857,0.67v-0.728h-1.102"/>
	<path fill="#FFFFFF" d="M860.063,127.01c0-0.523-0.063-0.965-0.188-1.326c-0.125-0.361-0.306-0.668-0.538-0.918
		c-0.234-0.25-0.509-0.434-0.82-0.551c-0.313-0.117-0.672-0.176-1.078-0.176c-0.901,0-1.632,0.316-2.19,0.947
		c-0.56,0.631-0.838,1.479-0.838,2.545c0,1.082,0.286,1.918,0.862,2.506c0.576,0.588,1.388,0.881,2.431,0.881
		c0.267,0,0.483-0.015,0.657-0.046c0.175-0.031,0.369-0.076,0.584-0.135c0.153-0.043,0.325-0.102,0.518-0.178
		c0.189-0.076,0.351-0.14,0.479-0.191v-1.201h-0.063c-0.09,0.074-0.202,0.154-0.34,0.238s-0.306,0.17-0.505,0.26
		c-0.188,0.086-0.397,0.156-0.631,0.211c-0.232,0.055-0.469,0.082-0.711,0.082c-0.676,0-1.205-0.202-1.588-0.604
		s-0.574-0.984-0.574-1.746h4.535L860.063,127.01L860.063,127.01z M855.527,126.764c0.023-0.278,0.078-0.52,0.164-0.729
		s0.211-0.4,0.375-0.572c0.168-0.168,0.354-0.295,0.56-0.383s0.455-0.133,0.748-0.133c0.298,0,0.545,0.043,0.745,0.129
		c0.201,0.086,0.367,0.211,0.496,0.375c0.118,0.149,0.208,0.33,0.271,0.545c0.062,0.215,0.097,0.471,0.104,0.768H855.527"/>
	<path fill="#FFFFFF" d="M866.453,130.76v-9.117h-1.103v2.836c-0.271-0.152-0.526-0.264-0.769-0.336
		c-0.241-0.072-0.526-0.109-0.854-0.109c-0.371,0-0.727,0.082-1.063,0.244c-0.338,0.162-0.625,0.385-0.862,0.67
		c-0.262,0.313-0.467,0.68-0.615,1.1c-0.148,0.42-0.224,0.916-0.224,1.49c0,0.551,0.06,1.04,0.177,1.463s0.282,0.779,0.498,1.068
		c0.211,0.285,0.468,0.501,0.771,0.65c0.302,0.149,0.633,0.223,0.987,0.223c0.224,0,0.418-0.021,0.586-0.062s0.33-0.1,0.486-0.174
		c0.168-0.078,0.313-0.165,0.438-0.258c0.125-0.093,0.273-0.212,0.445-0.357v0.668L866.453,130.76L866.453,130.76z M864.525,129.698
		c-0.293,0.131-0.584,0.195-0.873,0.195c-0.543,0-0.938-0.202-1.184-0.611c-0.246-0.409-0.369-0.998-0.369-1.768
		c0-0.801,0.16-1.412,0.479-1.836c0.32-0.424,0.766-0.637,1.33-0.637c0.255,0,0.489,0.026,0.705,0.076
		c0.217,0.05,0.463,0.142,0.736,0.275v3.773C865.094,129.389,864.818,129.567,864.525,129.698"/>
	<path fill="#FFFFFF" d="M868.232,121.979h1.254v1.143h-1.254V121.979z"/>
	<path fill="#FFFFFF" d="M868.313,124.22h1.103v6.545h-1.103V124.22z"/>
	<path fill="#FFFFFF" d="M873.313,126.6c-0.5,0.065-0.935,0.18-1.302,0.348c-0.413,0.188-0.717,0.442-0.907,0.76
		s-0.287,0.703-0.287,1.156c0,0.293,0.053,0.572,0.158,0.836c0.105,0.264,0.245,0.484,0.422,0.664
		c0.185,0.184,0.396,0.327,0.639,0.428c0.243,0.101,0.498,0.152,0.77,0.152c0.328,0,0.584-0.028,0.765-0.082
		c0.182-0.054,0.37-0.132,0.565-0.234c0.141-0.07,0.286-0.164,0.437-0.283c0.149-0.119,0.271-0.213,0.36-0.279v0.696h1.096v-4.477
		c0-0.41-0.059-0.758-0.176-1.043c-0.117-0.285-0.295-0.517-0.533-0.697c-0.246-0.184-0.522-0.311-0.832-0.381
		c-0.309-0.07-0.688-0.105-1.137-0.105c-0.371,0-0.746,0.035-1.125,0.105s-0.67,0.134-0.873,0.193v1.119h0.063
		c0.343-0.144,0.688-0.254,1.03-0.33c0.344-0.076,0.643-0.115,0.896-0.115c0.216,0,0.425,0.015,0.627,0.045
		c0.203,0.03,0.375,0.088,0.517,0.178c0.141,0.086,0.25,0.209,0.328,0.367c0.078,0.158,0.117,0.365,0.117,0.623v0.211
		C874.352,126.486,873.813,126.535,873.313,126.6 M874.932,127.335v1.816c-0.247,0.218-0.512,0.404-0.792,0.555
		c-0.281,0.151-0.595,0.225-0.942,0.225c-0.406,0-0.716-0.095-0.927-0.287s-0.315-0.475-0.315-0.85c0-0.332,0.095-0.59,0.287-0.775
		c0.191-0.185,0.435-0.324,0.728-0.414c0.246-0.074,0.569-0.131,0.97-0.172C874.338,127.393,874.669,127.358,874.932,127.335"/>
	<path fill="#FFFFFF" d="M887.343,123.069v-1.03h-5.46v8.72h5.46v-1.03h-4.3v-3.24h4.01v-1.03h-4.01v-2.39H887.343z"/>
	<path fill="#FFFFFF" d="M888.772,124.22v6.545h1.103v-4.887c0.277-0.234,0.563-0.423,0.854-0.57s0.573-0.221,0.848-0.221
		c0.276,0,0.495,0.041,0.655,0.121s0.285,0.201,0.375,0.365c0.082,0.156,0.138,0.365,0.167,0.625c0.028,0.26,0.044,0.539,0.044,0.84
		v3.727h1.103v-4.247c0-0.805-0.182-1.418-0.545-1.842c-0.363-0.424-0.867-0.637-1.513-0.637c-0.354,0-0.692,0.078-1.014,0.234
		c-0.321,0.156-0.646,0.381-0.974,0.674v-0.728L888.772,124.22"/>
	<path fill="#FFFFFF" d="M899.563,131.189c-0.051,0.211-0.139,0.397-0.264,0.557c-0.134,0.16-0.318,0.285-0.555,0.375
		c-0.235,0.09-0.523,0.135-0.864,0.135c-0.203,0-0.392-0.016-0.563-0.047s-0.358-0.072-0.563-0.123
		c-0.185-0.046-0.35-0.095-0.492-0.148c-0.145-0.053-0.254-0.096-0.328-0.127h-0.059v1.148c0.289,0.086,0.602,0.154,0.936,0.205
		c0.334,0.051,0.661,0.076,0.98,0.076c0.996,0,1.735-0.26,2.222-0.779c0.485-0.519,0.727-1.334,0.727-2.443v-5.801h-1.036
		l-0.063,0.281c-0.25-0.149-0.499-0.262-0.747-0.342c-0.248-0.08-0.542-0.121-0.882-0.121c-0.359,0-0.707,0.077-1.043,0.229
		c-0.336,0.152-0.627,0.369-0.873,0.65c-0.258,0.293-0.462,0.65-0.615,1.07s-0.229,0.9-0.229,1.443c0,1.039,0.221,1.836,0.661,2.391
		c0.44,0.555,1.034,0.832,1.78,0.832c0.429,0,0.787-0.061,1.072-0.184c0.285-0.123,0.576-0.314,0.873-0.572v0.574
		C899.638,130.738,899.613,130.979,899.563,131.189 M899.638,128.987c-0.242,0.203-0.514,0.361-0.816,0.474
		c-0.303,0.113-0.597,0.17-0.882,0.17c-0.547,0-0.941-0.189-1.187-0.568s-0.366-0.931-0.366-1.658c0-0.766,0.16-1.354,0.479-1.764
		c0.32-0.41,0.761-0.615,1.318-0.615c0.23,0,0.461,0.03,0.693,0.086c0.232,0.056,0.485,0.15,0.76,0.283L899.638,128.987"/>
	<path fill="#FFFFFF" d="M902.522,121.979h1.254v1.143h-1.254V121.979z"/>
	<path fill="#FFFFFF" d="M902.603,124.22h1.103v6.545h-1.103V124.22z"/>
	<path fill="#FFFFFF" d="M905.563,124.22v6.545h1.103v-4.887c0.277-0.234,0.562-0.423,0.853-0.57s0.574-0.221,0.848-0.221
		c0.277,0,0.496,0.041,0.656,0.121s0.285,0.201,0.375,0.365c0.082,0.156,0.137,0.365,0.166,0.625c0.029,0.26,0.045,0.539,0.045,0.84
		v3.727h1.103v-4.247c0-0.805-0.182-1.418-0.545-1.842c-0.363-0.424-0.867-0.637-1.513-0.637c-0.355,0-0.692,0.078-1.014,0.234
		c-0.321,0.156-0.646,0.381-0.974,0.674v-0.728L905.563,124.22"/>
	<path fill="#FFFFFF" d="M916.963,124.76c-0.233-0.25-0.508-0.434-0.819-0.551c-0.313-0.117-0.672-0.176-1.078-0.176
		c-0.901,0-1.632,0.316-2.189,0.947c-0.561,0.631-0.839,1.479-0.839,2.545c0,1.082,0.287,1.918,0.863,2.506
		c0.576,0.588,1.387,0.881,2.43,0.881c0.266,0,0.484-0.015,0.658-0.046c0.175-0.031,0.368-0.076,0.583-0.135
		c0.153-0.043,0.325-0.102,0.518-0.178c0.189-0.076,0.351-0.14,0.479-0.191v-1.201h-0.063c-0.091,0.074-0.203,0.154-0.341,0.238
		s-0.306,0.17-0.504,0.26c-0.188,0.086-0.396,0.156-0.631,0.211c-0.231,0.055-0.47,0.082-0.712,0.082
		c-0.676,0-1.205-0.202-1.588-0.604c-0.383-0.402-0.573-0.984-0.573-1.746h4.534v-0.598c0-0.523-0.063-0.965-0.188-1.326
		C917.378,125.316,917.196,125.01,916.963,124.76 M913.154,126.757c0.023-0.278,0.078-0.52,0.164-0.729s0.211-0.4,0.375-0.572
		c0.168-0.168,0.355-0.295,0.561-0.383c0.205-0.088,0.455-0.133,0.748-0.133c0.297,0,0.546,0.043,0.746,0.129
		c0.201,0.086,0.365,0.211,0.494,0.375c0.118,0.149,0.209,0.33,0.271,0.545c0.063,0.215,0.097,0.471,0.104,0.768H913.154"/>
	<path fill="#FFFFFF" d="M733.242,136.439v5.443c0,0.621,0.063,1.143,0.188,1.567c0.125,0.424,0.34,0.788,0.646,1.093
		c0.271,0.266,0.597,0.466,0.979,0.601s0.83,0.202,1.342,0.202c0.535,0,0.984-0.065,1.354-0.198s0.693-0.334,0.972-0.604
		c0.308-0.301,0.522-0.668,0.646-1.102c0.125-0.434,0.188-0.954,0.188-1.559v-5.443h-1.16v5.473c0,0.39-0.027,0.721-0.08,0.99
		s-0.149,0.515-0.295,0.738c-0.156,0.234-0.375,0.412-0.656,0.533c-0.28,0.121-0.604,0.182-0.967,0.182
		c-0.386,0-0.714-0.061-0.981-0.182c-0.269-0.121-0.479-0.299-0.636-0.533c-0.147-0.219-0.248-0.465-0.299-0.741
		c-0.051-0.276-0.076-0.615-0.076-1.017v-5.443H733.242"/>
	<path fill="#FFFFFF" d="M741.373,138.62v6.545h1.103v-4.887c0.277-0.234,0.562-0.424,0.853-0.571s0.574-0.22,0.849-0.22
		c0.276,0,0.495,0.04,0.655,0.12s0.285,0.202,0.375,0.366c0.082,0.156,0.138,0.364,0.166,0.624c0.028,0.26,0.045,0.54,0.045,0.841
		v3.727h1.103v-4.247c0-0.805-0.181-1.419-0.545-1.843c-0.364-0.424-0.867-0.636-1.513-0.636c-0.355,0-0.692,0.078-1.014,0.234
		c-0.321,0.156-0.646,0.381-0.974,0.674v-0.727H741.373"/>
	<path fill="#FFFFFF" d="M748.333,138.62h1.103v6.545h-1.103V138.62z"/>
	<path fill="#FFFFFF" d="M748.253,136.379h1.255v1.143h-1.255V136.379z"/>
	<path fill="#FFFFFF" d="M756.433,138.62h-1.15l-1.77,5.05l-1.8-5.05h-1.19l2.45,6.54h0.99L756.433,138.62z"/>
	<path fill="#FFFFFF" d="M762.612,141.41c0-0.523-0.063-0.966-0.188-1.327s-0.306-0.667-0.539-0.917
		c-0.234-0.25-0.509-0.434-0.82-0.551c-0.312-0.117-0.672-0.176-1.078-0.176c-0.9,0-1.632,0.315-2.189,0.946
		c-0.561,0.631-0.839,1.479-0.839,2.546c0,1.082,0.289,1.917,0.864,2.505c0.576,0.588,1.386,0.882,2.429,0.882
		c0.266,0,0.485-0.015,0.66-0.046c0.175-0.031,0.366-0.076,0.582-0.135c0.152-0.043,0.324-0.103,0.517-0.179
		c0.19-0.076,0.351-0.139,0.479-0.19v-1.201h-0.063c-0.09,0.074-0.203,0.153-0.34,0.237c-0.139,0.084-0.307,0.171-0.505,0.261
		c-0.188,0.086-0.396,0.156-0.629,0.211c-0.232,0.055-0.472,0.082-0.714,0.082c-0.676,0-1.205-0.202-1.588-0.604
		s-0.573-0.984-0.573-1.746h4.534V141.41 M758.078,141.162c0.022-0.277,0.077-0.52,0.163-0.729c0.087-0.209,0.212-0.399,0.375-0.571
		c0.169-0.168,0.356-0.296,0.563-0.384s0.453-0.132,0.746-0.132c0.297,0,0.547,0.043,0.748,0.129c0.2,0.086,0.364,0.211,0.493,0.375
		c0.117,0.149,0.207,0.33,0.271,0.545c0.062,0.214,0.097,0.471,0.104,0.767H758.078"/>
	<path fill="#FFFFFF" d="M763.963,138.62v6.545h1.102v-4.646c0.262-0.254,0.539-0.445,0.832-0.574s0.588-0.193,0.885-0.193
		c0.129,0,0.24,0.003,0.332,0.009c0.092,0.006,0.178,0.021,0.26,0.044h0.061v-1.15c-0.07-0.011-0.132-0.02-0.189-0.026
		c-0.057-0.006-0.143-0.009-0.256-0.009c-0.281,0-0.569,0.073-0.869,0.22c-0.299,0.147-0.649,0.398-1.053,0.753v-0.973H763.963"/>
	<path fill="#FFFFFF" d="M771.353,144.169c-0.098,0.063-0.245,0.114-0.445,0.155c-0.199,0.041-0.387,0.062-0.563,0.062
		c-0.242,0-0.478-0.033-0.7-0.1c-0.225-0.067-0.431-0.143-0.618-0.229c-0.211-0.097-0.38-0.191-0.507-0.281
		c-0.127-0.09-0.237-0.172-0.331-0.246h-0.06v1.236c0.25,0.133,0.564,0.258,0.945,0.375c0.381,0.117,0.79,0.176,1.229,0.176
		c0.444,0,0.815-0.05,1.11-0.151s0.561-0.25,0.794-0.445c0.216-0.179,0.379-0.395,0.488-0.647c0.111-0.252,0.167-0.519,0.167-0.8
		c0-0.484-0.122-0.866-0.365-1.148s-0.608-0.483-1.094-0.604c-0.223-0.055-0.435-0.104-0.636-0.145s-0.384-0.083-0.548-0.126
		c-0.328-0.086-0.566-0.197-0.715-0.331c-0.149-0.134-0.225-0.339-0.225-0.612c0-0.308,0.125-0.538,0.375-0.691
		c0.25-0.153,0.559-0.229,0.92-0.229c0.354,0,0.701,0.064,1.047,0.193s0.658,0.304,0.939,0.527h0.059v-1.178
		c-0.25-0.137-0.559-0.25-0.926-0.34c-0.367-0.09-0.732-0.135-1.096-0.135c-0.738,0-1.33,0.186-1.775,0.557
		c-0.443,0.371-0.668,0.851-0.668,1.441c0,0.43,0.113,0.796,0.34,1.099c0.229,0.303,0.592,0.526,1.092,0.671
		c0.189,0.054,0.398,0.105,0.627,0.152c0.227,0.047,0.408,0.088,0.551,0.123c0.363,0.09,0.616,0.201,0.759,0.334
		c0.144,0.133,0.214,0.33,0.214,0.592c0,0.203-0.029,0.356-0.091,0.457C771.588,143.983,771.489,144.08,771.353,144.169"/>
	<path fill="#FFFFFF" d="M776.162,141c-0.5,0.065-0.934,0.181-1.301,0.349c-0.414,0.188-0.717,0.441-0.908,0.759
		c-0.189,0.318-0.286,0.704-0.286,1.157c0,0.293,0.053,0.571,0.157,0.835c0.106,0.264,0.246,0.485,0.422,0.665
		c0.186,0.184,0.396,0.327,0.641,0.428s0.498,0.152,0.768,0.152c0.328,0,0.584-0.028,0.766-0.082
		c0.182-0.054,0.37-0.132,0.564-0.234c0.142-0.07,0.287-0.165,0.438-0.284c0.148-0.119,0.27-0.212,0.358-0.278v0.696h1.098v-4.477
		c0-0.41-0.061-0.758-0.178-1.043c-0.116-0.285-0.295-0.517-0.532-0.697c-0.245-0.184-0.522-0.312-0.831-0.381
		c-0.311-0.07-0.688-0.105-1.139-0.105c-0.371,0-0.746,0.035-1.125,0.105c-0.379,0.07-0.67,0.134-0.873,0.193v1.119h0.064
		c0.343-0.144,0.688-0.255,1.031-0.331c0.343-0.076,0.642-0.114,0.896-0.114c0.216,0,0.425,0.014,0.627,0.044
		c0.203,0.03,0.375,0.089,0.517,0.179c0.141,0.086,0.25,0.208,0.328,0.366s0.116,0.366,0.116,0.624v0.211
		C777.201,140.888,776.663,140.935,776.162,141 M777.78,141.736v1.816c-0.245,0.219-0.511,0.403-0.792,0.554
		c-0.28,0.151-0.595,0.226-0.941,0.226c-0.406,0-0.716-0.095-0.928-0.287c-0.211-0.192-0.314-0.475-0.314-0.85
		c0-0.332,0.095-0.591,0.287-0.776c0.19-0.185,0.434-0.323,0.727-0.413c0.246-0.074,0.57-0.132,0.971-0.173
		C777.188,141.792,777.519,141.759,777.78,141.736"/>
	<path fill="#FFFFFF" d="M780.692,136.04h1.103v9.117h-1.103V136.04z"/>
	<path fill="#FFFFFF" d="M791.492,141.29l-2.18-4.85h-1.59v8.72h1.09v-7.52l2.25,5.12h0.71l2.271-5.12v7.52h1.16v-8.72h-1.61
		L791.492,141.29z"/>
	<path fill="#FFFFFF" d="M799.423,144.29c-0.289,0-0.511-0.039-0.665-0.117c-0.153-0.078-0.275-0.201-0.365-0.369
		c-0.091-0.172-0.148-0.373-0.173-0.601c-0.025-0.228-0.038-0.516-0.038-0.864v-3.727h-1.104v4.248c0,0.441,0.052,0.816,0.155,1.125
		c0.104,0.309,0.25,0.565,0.438,0.768s0.407,0.351,0.659,0.445c0.252,0.094,0.521,0.141,0.807,0.141c0.375,0,0.715-0.076,1.02-0.231
		c0.306-0.155,0.627-0.38,0.968-0.677v0.727h1.102v-6.547h-1.103v4.887c-0.254,0.223-0.534,0.41-0.838,0.563
		C799.98,144.213,799.692,144.29,799.423,144.29"/>
	<path fill="#FFFFFF" d="M804.072,136.04h1.104v9.117h-1.104V136.04z"/>
	<path fill="#FFFFFF" d="M806.383,139.529h0.744v3.627c0,0.738,0.168,1.278,0.504,1.62c0.336,0.342,0.804,0.513,1.405,0.513
		c0.181,0,0.377-0.015,0.591-0.049c0.213-0.034,0.422-0.079,0.629-0.138v-0.99h-0.064c-0.073,0.035-0.195,0.079-0.362,0.132
		c-0.167,0.053-0.341,0.079-0.521,0.079c-0.254,0-0.456-0.034-0.604-0.103c-0.147-0.069-0.257-0.171-0.321-0.308
		c-0.078-0.156-0.123-0.324-0.136-0.504c-0.013-0.18-0.019-0.436-0.019-0.768v-3.111h2.027v-0.914h-2.027v-1.881h-1.102v1.881
		h-0.744V139.529"/>
	<path fill="#FFFFFF" d="M811.333,138.62h1.103v6.545h-1.103V138.62z"/>
	<path fill="#FFFFFF" d="M811.263,136.379h1.254v1.143h-1.254V136.379z"/>
	<path fill="#FFFFFF" d="M814.293,138.62v6.545h1.102v-4.887c0.246-0.23,0.5-0.419,0.762-0.568c0.264-0.149,0.514-0.223,0.75-0.223
		c0.246,0,0.441,0.036,0.586,0.111c0.146,0.075,0.257,0.19,0.334,0.346c0.074,0.145,0.123,0.345,0.146,0.601
		c0.021,0.256,0.035,0.534,0.035,0.835v3.785h1.102v-4.307c0-0.125-0.003-0.234-0.009-0.325c-0.006-0.091-0.011-0.171-0.015-0.237
		c0.276-0.262,0.547-0.462,0.806-0.601c0.259-0.139,0.502-0.208,0.729-0.208c0.245,0,0.44,0.036,0.587,0.111
		c0.145,0.075,0.256,0.19,0.334,0.346c0.072,0.145,0.122,0.345,0.146,0.601c0.022,0.256,0.035,0.534,0.035,0.835v3.785l0,0h1.104
		v-4.307c0-0.449-0.049-0.822-0.144-1.119c-0.095-0.297-0.231-0.545-0.407-0.744c-0.172-0.196-0.373-0.337-0.604-0.425
		c-0.231-0.088-0.487-0.132-0.77-0.132c-0.371,0-0.714,0.095-1.031,0.287c-0.315,0.192-0.641,0.473-0.973,0.844
		c-0.157-0.402-0.384-0.691-0.683-0.867c-0.3-0.176-0.643-0.264-1.028-0.264c-0.34,0-0.652,0.079-0.935,0.237
		c-0.283,0.158-0.569,0.382-0.858,0.671v-0.727L814.293,138.62"/>
	<path fill="#FFFFFF" d="M825.003,139.379c-0.561,0.631-0.839,1.48-0.839,2.546c0,1.082,0.287,1.917,0.862,2.505
		c0.576,0.588,1.388,0.882,2.431,0.882c0.266,0,0.483-0.015,0.657-0.046c0.176-0.031,0.369-0.076,0.584-0.135
		c0.153-0.043,0.325-0.103,0.518-0.179c0.189-0.076,0.351-0.139,0.479-0.19v-1.201h-0.063c-0.091,0.074-0.203,0.153-0.341,0.237
		s-0.306,0.171-0.504,0.261c-0.188,0.086-0.398,0.156-0.632,0.211c-0.23,0.055-0.469,0.082-0.711,0.082
		c-0.676,0-1.205-0.202-1.588-0.604s-0.573-0.984-0.573-1.746h4.534v-0.598c0-0.523-0.063-0.966-0.188-1.327
		s-0.307-0.667-0.539-0.917c-0.234-0.25-0.509-0.434-0.82-0.551c-0.313-0.117-0.672-0.176-1.078-0.176
		C826.291,138.434,825.561,138.749,825.003,139.379 M828.371,139.845c0.117,0.149,0.207,0.33,0.271,0.545
		c0.062,0.214,0.097,0.471,0.104,0.767h-3.464c0.023-0.277,0.078-0.52,0.164-0.729s0.211-0.399,0.375-0.571
		c0.168-0.168,0.354-0.296,0.561-0.384s0.455-0.132,0.748-0.132c0.297,0,0.545,0.043,0.745,0.129
		C828.075,139.556,828.241,139.681,828.371,139.845"/>
	<path fill="#FFFFFF" d="M832.423,138.68c-0.338,0.162-0.625,0.386-0.862,0.671c-0.262,0.313-0.466,0.679-0.615,1.099
		c-0.148,0.42-0.223,0.917-0.223,1.491c0,0.551,0.059,1.039,0.176,1.462c0.117,0.423,0.283,0.78,0.498,1.069
		c0.211,0.285,0.468,0.501,0.771,0.65s0.633,0.223,0.987,0.223c0.224,0,0.418-0.021,0.586-0.062c0.168-0.041,0.33-0.099,0.486-0.173
		c0.168-0.078,0.313-0.165,0.438-0.258s0.272-0.212,0.444-0.357v0.668h1.103v-9.117h-1.103v2.836
		c-0.271-0.152-0.525-0.265-0.769-0.337c-0.241-0.072-0.526-0.108-0.854-0.108C833.115,138.437,832.762,138.518,832.423,138.68
		 M834.374,139.521c0.216,0.05,0.463,0.142,0.735,0.275v3.773c-0.258,0.222-0.531,0.401-0.824,0.532
		c-0.294,0.131-0.584,0.196-0.873,0.196c-0.543,0-0.938-0.203-1.185-0.612s-0.369-0.997-0.369-1.767c0-0.801,0.16-1.413,0.479-1.837
		c0.319-0.424,0.765-0.636,1.33-0.636C833.924,139.445,834.157,139.472,834.374,139.521"/>
	<path fill="#FFFFFF" d="M837.992,136.379h1.255v1.143h-1.255V136.379z"/>
	<path fill="#FFFFFF" d="M838.063,138.62h1.103v6.545h-1.103V138.62z"/>
	<path fill="#FFFFFF" d="M843.063,141c-0.5,0.065-0.935,0.181-1.301,0.349c-0.414,0.188-0.718,0.441-0.908,0.759
		c-0.191,0.318-0.287,0.704-0.287,1.157c0,0.293,0.053,0.571,0.158,0.835c0.105,0.264,0.246,0.485,0.422,0.665
		c0.185,0.184,0.396,0.327,0.639,0.428c0.243,0.101,0.498,0.152,0.77,0.152c0.328,0,0.584-0.028,0.765-0.082
		c0.182-0.054,0.37-0.132,0.565-0.234c0.141-0.07,0.287-0.165,0.437-0.284c0.15-0.119,0.271-0.212,0.36-0.278v0.696h1.096v-4.477
		c0-0.41-0.059-0.758-0.176-1.043s-0.295-0.517-0.533-0.697c-0.246-0.184-0.522-0.312-0.832-0.381
		c-0.309-0.069-0.688-0.105-1.137-0.105c-0.371,0-0.746,0.035-1.125,0.105c-0.379,0.07-0.67,0.134-0.873,0.193v1.119h0.063
		c0.345-0.144,0.688-0.255,1.031-0.331c0.344-0.076,0.643-0.114,0.896-0.114c0.215,0,0.424,0.014,0.627,0.044
		c0.203,0.03,0.375,0.089,0.516,0.179c0.141,0.086,0.25,0.208,0.328,0.366s0.117,0.366,0.117,0.624v0.211
		C844.102,140.888,843.563,140.935,843.063,141 M844.681,141.736v1.816c-0.246,0.219-0.511,0.403-0.792,0.554
		s-0.595,0.226-0.943,0.226c-0.406,0-0.715-0.095-0.926-0.287s-0.316-0.475-0.316-0.85c0-0.332,0.097-0.591,0.287-0.776
		c0.192-0.185,0.436-0.323,0.729-0.413c0.246-0.074,0.568-0.132,0.97-0.173C844.088,141.792,844.419,141.759,844.681,141.736"/>
	<path fill="#FFFFFF" d="M851.643,136.439v8.72h1.08v-7.52l2.26,5.12h0.7l2.28-5.12v7.52h1.16v-8.72h-1.61l-2.11,4.85l-2.18-4.85
		H851.643z"/>
	<path fill="#FFFFFF" d="M863.083,141c-0.5,0.065-0.935,0.181-1.302,0.349c-0.414,0.188-0.717,0.441-0.907,0.759
		c-0.19,0.318-0.287,0.704-0.287,1.157c0,0.293,0.053,0.571,0.157,0.835c0.106,0.264,0.246,0.485,0.423,0.665
		c0.185,0.184,0.396,0.327,0.64,0.428c0.242,0.101,0.498,0.152,0.768,0.152c0.328,0,0.584-0.028,0.766-0.082
		c0.182-0.054,0.37-0.132,0.564-0.234c0.142-0.07,0.287-0.165,0.438-0.284c0.15-0.119,0.271-0.212,0.359-0.278v0.696h1.097v-4.477
		c0-0.41-0.06-0.758-0.176-1.043c-0.117-0.285-0.296-0.517-0.533-0.697c-0.245-0.184-0.522-0.312-0.832-0.381
		c-0.31-0.07-0.688-0.105-1.138-0.105c-0.37,0-0.745,0.035-1.125,0.105c-0.379,0.07-0.67,0.134-0.872,0.193v1.119h0.063
		c0.343-0.144,0.688-0.255,1.03-0.331c0.344-0.076,0.643-0.114,0.896-0.114c0.216,0,0.425,0.014,0.627,0.044
		c0.203,0.03,0.375,0.089,0.517,0.179c0.141,0.086,0.25,0.208,0.328,0.366s0.116,0.366,0.116,0.624v0.211
		C864.122,140.888,863.583,140.935,863.083,141 M864.701,141.736v1.816c-0.246,0.219-0.512,0.403-0.793,0.554
		c-0.28,0.151-0.595,0.226-0.941,0.226c-0.406,0-0.716-0.095-0.927-0.287s-0.315-0.475-0.315-0.85c0-0.332,0.095-0.591,0.287-0.776
		c0.191-0.185,0.434-0.323,0.727-0.413c0.246-0.074,0.57-0.132,0.971-0.173C864.107,141.792,864.438,141.759,864.701,141.736"/>
	<path fill="#FFFFFF" d="M867.583,145.16h1.103v-4.887c0.277-0.234,0.563-0.424,0.854-0.571s0.573-0.22,0.847-0.22
		c0.277,0,0.496,0.04,0.656,0.12s0.284,0.202,0.375,0.366c0.082,0.156,0.139,0.364,0.167,0.624c0.028,0.26,0.044,0.54,0.044,0.841
		v3.727h1.103v-4.247c0-0.805-0.181-1.419-0.545-1.843c-0.363-0.424-0.867-0.636-1.513-0.636c-0.355,0-0.692,0.078-1.014,0.234
		s-0.646,0.381-0.974,0.674v-0.727h-1.103V145.16"/>
	<path fill="#FFFFFF" d="M879.263,145.16v-4.477c0-0.41-0.06-0.758-0.177-1.043c-0.116-0.285-0.295-0.517-0.532-0.697
		c-0.246-0.184-0.523-0.312-0.832-0.381c-0.31-0.07-0.688-0.105-1.138-0.105c-0.371,0-0.746,0.035-1.125,0.105
		s-0.67,0.134-0.873,0.193v1.119h0.063c0.344-0.144,0.688-0.255,1.031-0.331s0.642-0.114,0.896-0.114
		c0.216,0,0.425,0.014,0.627,0.044c0.202,0.03,0.375,0.089,0.517,0.179c0.141,0.086,0.25,0.208,0.328,0.366s0.116,0.366,0.116,0.624
		v0.211c-0.577,0.032-1.116,0.079-1.616,0.144s-0.936,0.181-1.302,0.349c-0.414,0.188-0.718,0.441-0.907,0.759
		c-0.191,0.318-0.287,0.704-0.287,1.157c0,0.293,0.052,0.571,0.158,0.835c0.104,0.264,0.245,0.485,0.422,0.665
		c0.184,0.184,0.396,0.327,0.639,0.428c0.243,0.101,0.498,0.152,0.769,0.152c0.328,0,0.585-0.028,0.767-0.082
		c0.182-0.054,0.368-0.132,0.563-0.234c0.142-0.07,0.288-0.165,0.438-0.284c0.149-0.119,0.27-0.212,0.358-0.278v0.696H879.263
		 M877.374,144.104c-0.28,0.151-0.595,0.226-0.942,0.226c-0.406,0-0.715-0.095-0.926-0.287s-0.316-0.475-0.316-0.85
		c0-0.332,0.096-0.591,0.287-0.776s0.435-0.323,0.728-0.413c0.245-0.074,0.57-0.132,0.971-0.173s0.729-0.074,0.992-0.097v1.816
		C877.92,143.769,877.654,143.953,877.374,144.104"/>
	<path fill="#FFFFFF" d="M880.833,140.379c-0.152,0.42-0.229,0.901-0.229,1.444c0,1.039,0.221,1.836,0.662,2.391
		c0.44,0.555,1.035,0.832,1.78,0.832c0.43,0,0.787-0.062,1.071-0.185c0.285-0.123,0.576-0.313,0.873-0.571v0.574
		c0,0.271-0.023,0.51-0.075,0.721s-0.14,0.397-0.265,0.557c-0.133,0.16-0.316,0.285-0.553,0.375s-0.525,0.135-0.865,0.135
		c-0.203,0-0.392-0.016-0.563-0.047c-0.172-0.031-0.359-0.072-0.563-0.123c-0.184-0.046-0.348-0.096-0.491-0.149
		c-0.145-0.053-0.255-0.095-0.328-0.126h-0.059v1.148c0.29,0.086,0.603,0.154,0.937,0.205s0.659,0.076,0.979,0.076
		c0.996,0,1.735-0.26,2.221-0.779c0.485-0.52,0.729-1.334,0.729-2.443v-5.801h-1.037l-0.063,0.281
		c-0.25-0.149-0.498-0.263-0.746-0.343c-0.248-0.08-0.543-0.12-0.884-0.12c-0.358,0-0.706,0.077-1.043,0.229
		c-0.336,0.152-0.627,0.369-0.873,0.65C881.189,139.604,880.986,139.959,880.833,140.379 M882.22,140.038
		c0.32-0.41,0.76-0.615,1.318-0.615c0.229,0,0.462,0.029,0.694,0.085c0.232,0.056,0.484,0.151,0.759,0.284v3.592
		c-0.242,0.203-0.513,0.361-0.814,0.474c-0.304,0.113-0.599,0.17-0.884,0.17c-0.547,0-0.941-0.189-1.187-0.568
		c-0.243-0.379-0.366-0.931-0.366-1.658C881.74,141.036,881.899,140.447,882.22,140.038"/>
	<path fill="#FFFFFF" d="M887.473,141.93c0,1.082,0.289,1.917,0.865,2.505c0.574,0.588,1.385,0.882,2.428,0.882
		c0.266,0,0.486-0.015,0.66-0.046s0.367-0.076,0.582-0.135c0.151-0.043,0.324-0.103,0.516-0.179c0.192-0.076,0.352-0.139,0.48-0.19
		v-1.201h-0.064c-0.09,0.074-0.203,0.153-0.34,0.237s-0.305,0.171-0.504,0.261c-0.188,0.086-0.396,0.156-0.629,0.211
		c-0.233,0.055-0.473,0.082-0.713,0.082c-0.678,0-1.205-0.202-1.59-0.604c-0.383-0.402-0.572-0.984-0.572-1.746h4.534v-0.598
		c0-0.523-0.063-0.966-0.188-1.327s-0.305-0.667-0.539-0.917s-0.508-0.434-0.82-0.551c-0.312-0.117-0.672-0.176-1.077-0.176
		c-0.901,0-1.633,0.315-2.19,0.946C887.751,140.015,887.473,140.863,887.473,141.93 M888.756,140.432
		c0.087-0.209,0.212-0.399,0.375-0.571c0.168-0.168,0.355-0.296,0.562-0.384s0.453-0.132,0.746-0.132
		c0.297,0,0.547,0.043,0.748,0.129s0.364,0.211,0.494,0.375c0.118,0.149,0.208,0.33,0.27,0.545c0.063,0.214,0.097,0.471,0.105,0.767
		h-3.463C888.614,140.883,888.67,140.641,888.756,140.432"/>
	<path fill="#FFFFFF" d="M894.482,145.16h1.103v-4.887c0.245-0.23,0.5-0.419,0.763-0.568c0.262-0.149,0.512-0.223,0.75-0.223
		c0.246,0,0.439,0.036,0.586,0.111c0.145,0.075,0.256,0.19,0.334,0.346c0.074,0.145,0.123,0.345,0.146,0.601
		c0.022,0.256,0.034,0.534,0.034,0.835v3.785h1.104v-4.307c0-0.125-0.004-0.234-0.001-0.325c-0.006-0.091-0.011-0.171-0.016-0.237
		c0.278-0.262,0.548-0.462,0.807-0.601c0.26-0.139,0.502-0.208,0.729-0.208c0.246,0,0.44,0.036,0.586,0.111
		c0.146,0.075,0.256,0.19,0.334,0.346c0.074,0.145,0.123,0.345,0.146,0.601s0.035,0.534,0.035,0.835v3.785l0,0h1.104v-4.307
		c0-0.449-0.05-0.822-0.145-1.119c-0.096-0.297-0.23-0.545-0.407-0.744c-0.172-0.196-0.373-0.337-0.604-0.425
		c-0.229-0.088-0.486-0.132-0.768-0.132c-0.371,0-0.715,0.095-1.031,0.287c-0.316,0.192-0.642,0.473-0.973,0.844
		c-0.157-0.402-0.385-0.691-0.684-0.867c-0.3-0.176-0.642-0.264-1.028-0.264c-0.34,0-0.651,0.079-0.936,0.237
		c-0.282,0.158-0.568,0.382-0.857,0.671v-0.727h-1.103v6.545"/>
	<path fill="#FFFFFF" d="M904.343,141.93c0,1.082,0.288,1.917,0.862,2.505c0.576,0.588,1.388,0.882,2.431,0.882
		c0.266,0,0.483-0.015,0.659-0.046c0.174-0.031,0.367-0.076,0.583-0.135c0.151-0.043,0.323-0.103,0.516-0.179
		s0.351-0.139,0.479-0.19v-1.201h-0.063c-0.09,0.074-0.203,0.153-0.34,0.237c-0.138,0.084-0.307,0.171-0.504,0.261
		c-0.188,0.086-0.397,0.156-0.632,0.211c-0.231,0.055-0.47,0.082-0.711,0.082c-0.677,0-1.205-0.202-1.589-0.604
		c-0.383-0.402-0.572-0.984-0.572-1.746h4.533v-0.598c0-0.523-0.063-0.966-0.188-1.327s-0.306-0.667-0.539-0.917
		c-0.234-0.25-0.508-0.434-0.82-0.551c-0.312-0.117-0.672-0.176-1.078-0.176c-0.9,0-1.632,0.315-2.189,0.946
		C904.62,140.015,904.343,140.863,904.343,141.93 M905.625,140.432c0.087-0.209,0.212-0.399,0.375-0.571
		c0.169-0.168,0.355-0.296,0.562-0.384s0.454-0.132,0.747-0.132c0.297,0,0.546,0.043,0.747,0.129s0.365,0.211,0.495,0.375
		c0.117,0.149,0.208,0.33,0.27,0.545c0.063,0.214,0.098,0.471,0.105,0.767h-3.464C905.484,140.883,905.539,140.641,905.625,140.432"
		/>
	<path fill="#FFFFFF" d="M911.353,145.16h1.103v-4.887c0.277-0.234,0.562-0.424,0.853-0.571s0.574-0.22,0.848-0.22
		c0.277,0,0.496,0.04,0.656,0.12s0.285,0.202,0.375,0.366c0.082,0.156,0.138,0.364,0.166,0.624c0.029,0.26,0.045,0.54,0.045,0.841
		v3.727h1.103v-4.247c0-0.805-0.182-1.419-0.545-1.843c-0.363-0.424-0.867-0.636-1.513-0.636c-0.354,0-0.692,0.078-1.014,0.234
		s-0.646,0.381-0.974,0.674v-0.727h-1.103V145.16"/>
	<path fill="#FFFFFF" d="M918.353,136.739v1.881h-0.744v0.914h0.744v3.627c0,0.738,0.168,1.278,0.504,1.62
		c0.336,0.342,0.804,0.513,1.406,0.513c0.18,0,0.375-0.015,0.588-0.049c0.213-0.034,0.424-0.079,0.631-0.138v-0.99h-0.063
		c-0.073,0.035-0.195,0.079-0.362,0.132s-0.341,0.079-0.521,0.079c-0.255,0-0.457-0.034-0.604-0.103
		c-0.148-0.069-0.257-0.171-0.322-0.308c-0.078-0.156-0.123-0.324-0.135-0.504c-0.013-0.18-0.019-0.436-0.019-0.768v-3.111h2.026
		v-0.914h-2.026v-1.881H918.353"/>
	<path fill="#FFFFFF" d="M928.973,144.319c-0.449,0-0.915-0.099-1.4-0.296c-0.484-0.197-0.918-0.476-1.301-0.835h-0.082v1.453
		c0.391,0.191,0.809,0.352,1.251,0.483s0.98,0.196,1.614,0.196c0.53,0,0.974-0.067,1.326-0.204c0.354-0.137,0.672-0.332,0.952-0.586
		c0.25-0.231,0.443-0.512,0.583-0.844s0.208-0.668,0.208-1.01c0-0.543-0.14-1-0.416-1.371s-0.717-0.648-1.317-0.832
		c-0.235-0.07-0.53-0.147-0.885-0.231c-0.355-0.084-0.656-0.16-0.902-0.226c-0.371-0.101-0.655-0.261-0.85-0.48
		c-0.195-0.219-0.294-0.514-0.294-0.885c0-0.41,0.166-0.741,0.498-0.993c0.331-0.252,0.769-0.378,1.308-0.378
		c0.476,0,0.932,0.095,1.365,0.284c0.433,0.189,0.788,0.411,1.064,0.665h0.088v-1.389c-0.371-0.18-0.773-0.319-1.21-0.416
		c-0.436-0.097-0.897-0.146-1.386-0.146c-0.854,0-1.558,0.24-2.109,0.718c-0.551,0.478-0.825,1.071-0.825,1.778
		c0,0.339,0.05,0.639,0.148,0.899c0.101,0.26,0.239,0.486,0.419,0.677c0.186,0.196,0.395,0.354,0.633,0.475
		c0.239,0.121,0.509,0.221,0.811,0.299c0.336,0.086,0.615,0.155,0.838,0.205c0.222,0.05,0.468,0.115,0.738,0.193
		c0.375,0.105,0.646,0.267,0.818,0.486c0.172,0.219,0.258,0.502,0.258,0.85c0,0.438-0.163,0.791-0.49,1.058
		c-0.328,0.267-0.813,0.401-1.453,0.401"/>
	<path fill="#FFFFFF" d="M934.902,147.58l3.53-8.96h-1.15l-1.779,4.84l-1.79-4.84h-1.19l2.38,6.23l-1.17,2.73H934.902z"/>
	<path fill="#FFFFFF" d="M942.322,144.169c-0.097,0.063-0.244,0.114-0.444,0.155c-0.199,0.041-0.388,0.062-0.563,0.062
		c-0.242,0-0.475-0.033-0.699-0.1c-0.224-0.067-0.431-0.143-0.618-0.229c-0.212-0.097-0.38-0.191-0.507-0.281
		c-0.127-0.09-0.237-0.172-0.332-0.246H939.1v1.236c0.25,0.133,0.565,0.258,0.947,0.375c0.381,0.117,0.788,0.176,1.227,0.176
		c0.445,0,0.816-0.05,1.111-0.151c0.296-0.101,0.56-0.25,0.793-0.445c0.216-0.179,0.38-0.395,0.49-0.647
		c0.111-0.252,0.166-0.519,0.166-0.8c0-0.484-0.121-0.866-0.365-1.148c-0.243-0.282-0.609-0.483-1.094-0.604
		c-0.224-0.055-0.435-0.104-0.635-0.145c-0.201-0.041-0.386-0.083-0.55-0.126c-0.327-0.086-0.565-0.197-0.715-0.331
		c-0.148-0.134-0.224-0.339-0.224-0.612c0-0.308,0.125-0.538,0.375-0.691c0.25-0.153,0.558-0.229,0.92-0.229
		c0.353,0,0.702,0.064,1.048,0.193c0.345,0.129,0.657,0.304,0.938,0.527h0.06v-1.178c-0.25-0.137-0.56-0.25-0.927-0.34
		c-0.366-0.09-0.732-0.135-1.097-0.135c-0.737,0-1.33,0.186-1.774,0.557c-0.444,0.371-0.668,0.851-0.668,1.441
		c0,0.43,0.112,0.796,0.341,1.099c0.227,0.303,0.59,0.526,1.09,0.671c0.19,0.054,0.399,0.105,0.627,0.152s0.41,0.088,0.551,0.123
		c0.364,0.09,0.617,0.201,0.761,0.334c0.144,0.133,0.213,0.33,0.213,0.592c0,0.203-0.029,0.356-0.09,0.457
		C942.558,143.982,942.46,144.08,942.322,144.169"/>
	<path fill="#FFFFFF" d="M945.162,136.739v1.881h-0.743v0.914h0.743v3.627c0,0.738,0.169,1.278,0.505,1.62
		c0.336,0.342,0.805,0.513,1.405,0.513c0.181,0,0.376-0.015,0.59-0.049c0.214-0.034,0.423-0.079,0.63-0.138v-0.99h-0.063
		c-0.074,0.035-0.195,0.079-0.363,0.132c-0.166,0.053-0.341,0.079-0.521,0.079c-0.254,0-0.456-0.034-0.604-0.103
		c-0.146-0.069-0.256-0.171-0.32-0.308c-0.078-0.156-0.123-0.324-0.137-0.504c-0.012-0.18-0.018-0.436-0.018-0.768v-3.111h2.026
		v-0.914h-2.026v-1.881H945.162"/>
	<path fill="#FFFFFF" d="M954.553,141.41c0-0.523-0.063-0.966-0.188-1.327s-0.305-0.667-0.538-0.917s-0.509-0.434-0.819-0.551
		c-0.313-0.117-0.673-0.176-1.078-0.176c-0.902,0-1.633,0.315-2.191,0.946c-0.559,0.631-0.838,1.479-0.838,2.546
		c0,1.082,0.288,1.917,0.864,2.505c0.575,0.588,1.386,0.882,2.429,0.882c0.267,0,0.485-0.015,0.659-0.046
		c0.174-0.031,0.368-0.076,0.583-0.135c0.152-0.043,0.325-0.103,0.517-0.179c0.19-0.076,0.352-0.139,0.479-0.19v-1.201h-0.063
		c-0.091,0.074-0.203,0.153-0.341,0.237c-0.137,0.084-0.305,0.171-0.504,0.261c-0.188,0.086-0.396,0.156-0.63,0.211
		c-0.232,0.055-0.47,0.082-0.712,0.082c-0.676,0-1.205-0.202-1.588-0.604c-0.384-0.402-0.574-0.984-0.574-1.746h4.535
		L954.553,141.41L954.553,141.41z M950.017,141.162c0.022-0.277,0.078-0.52,0.164-0.729s0.211-0.399,0.375-0.571
		c0.168-0.168,0.354-0.296,0.56-0.384c0.206-0.088,0.454-0.132,0.747-0.132c0.298,0,0.546,0.043,0.747,0.129
		s0.366,0.211,0.495,0.375c0.118,0.149,0.208,0.33,0.271,0.545c0.063,0.214,0.098,0.471,0.104,0.767H950.017"/>
	<path fill="#FFFFFF" d="M955.902,138.62v6.545h1.104v-4.887c0.246-0.23,0.5-0.419,0.762-0.568s0.512-0.223,0.75-0.223
		c0.246,0,0.441,0.036,0.586,0.111c0.146,0.075,0.256,0.19,0.334,0.346c0.074,0.145,0.123,0.345,0.146,0.601
		c0.021,0.256,0.035,0.534,0.035,0.835v3.785h1.102v-4.307c0-0.125-0.004-0.234-0.001-0.325c-0.006-0.091-0.001-0.171-0.015-0.237
		c0.277-0.262,0.546-0.462,0.806-0.601c0.259-0.139,0.503-0.208,0.729-0.208c0.246,0,0.441,0.036,0.587,0.111
		c0.146,0.075,0.256,0.19,0.334,0.346c0.073,0.145,0.122,0.345,0.146,0.601c0.022,0.256,0.034,0.534,0.034,0.835v3.785l0,0h1.104
		v-4.307c0-0.449-0.05-0.822-0.145-1.119c-0.096-0.297-0.23-0.545-0.406-0.744c-0.172-0.196-0.373-0.337-0.604-0.425
		c-0.23-0.088-0.486-0.132-0.769-0.132c-0.371,0-0.714,0.095-1.031,0.287c-0.315,0.192-0.641,0.473-0.973,0.844
		c-0.157-0.402-0.387-0.691-0.685-0.867c-0.299-0.176-0.641-0.264-1.026-0.264c-0.34,0-0.653,0.079-0.938,0.237
		c-0.281,0.158-0.566,0.382-0.855,0.671v-0.727h-1.103"/>
	<path fill="#FFFFFF" d="M1008.083,681.819h1.4v1.393h-1.4V681.819z"/>
	<path fill="#FFFFFF" d="M1008.083,687.64h1.4v1.393h-1.4V687.64z"/>
	<path fill="#FFFFFF" d="M988.623,681.819h1.4v1.393h-1.4V681.819z"/>
	<path fill="#FFFFFF" d="M988.623,687.64h1.4v1.393h-1.4V687.64z"/>
	<path fill="#FFFFFF" d="M1019.442,681.279c-0.243,0.717-0.364,1.664-0.364,2.842c0,1.867,0.33,3.219,0.99,4.04
		c0.553,0.688,1.312,1.033,2.276,1.033c0.733,0,1.341-0.196,1.821-0.588c0.479-0.392,0.842-0.945,1.083-1.664
		c0.241-0.716,0.361-1.659,0.361-2.825c0-0.986-0.075-1.771-0.226-2.354s-0.358-1.074-0.622-1.479
		c-0.265-0.405-0.601-0.717-1.01-0.931c-0.404-0.217-0.877-0.322-1.414-0.322c-0.729,0-1.334,0.194-1.814,0.583
		c-0.479,0.39-0.842,0.944-1.086,1.661 M1022.328,680.043c0.573,0,1.054,0.27,1.438,0.809c0.385,0.538,0.577,1.627,0.577,3.267
		c0,1.628-0.192,2.716-0.577,3.258c-0.386,0.544-0.861,0.813-1.427,0.813c-0.564,0-1.039-0.271-1.426-0.813
		c-0.386-0.539-0.576-1.627-0.576-3.261c0-1.636,0.211-2.754,0.636-3.359C1021.312,680.28,1021.764,680.043,1022.328,680.043"/>
	<path fill="#FFFFFF" d="M1015.973,679.359c-0.406-0.216-0.877-0.322-1.415-0.322c-0.729,0-1.334,0.195-1.815,0.583
		c-0.479,0.39-0.843,0.943-1.086,1.66c-0.244,0.717-0.365,1.664-0.365,2.842c0,1.867,0.33,3.219,0.99,4.04
		c0.552,0.688,1.312,1.033,2.276,1.033c0.732,0,1.341-0.196,1.821-0.588c0.479-0.392,0.842-0.945,1.084-1.664
		c0.24-0.716,0.36-1.659,0.36-2.825c0-0.986-0.074-1.771-0.226-2.354c-0.15-0.582-0.357-1.074-0.622-1.479
		c-0.263-0.406-0.598-0.716-1-0.93 M1015.983,687.375c-0.385,0.545-0.858,0.814-1.425,0.814s-1.04-0.271-1.426-0.813
		c-0.387-0.539-0.577-1.628-0.577-3.261c0-1.636,0.212-2.754,0.636-3.359c0.337-0.477,0.788-0.714,1.354-0.714
		c0.573,0,1.055,0.27,1.438,0.809c0.386,0.539,0.578,1.627,0.578,3.267C1016.562,685.746,1016.369,686.834,1015.983,687.375"/>
	<path fill="#FFFFFF" d="M1002.883,679.039c-0.729,0-1.334,0.195-1.814,0.583c-0.479,0.39-0.843,0.943-1.086,1.66
		c-0.244,0.717-0.366,1.664-0.366,2.842c0,1.867,0.331,3.219,0.991,4.04c0.551,0.688,1.312,1.033,2.275,1.033
		c0.732,0,1.342-0.195,1.82-0.588c0.481-0.392,0.843-0.945,1.084-1.664c0.242-0.716,0.362-1.659,0.362-2.825
		c0-0.986-0.075-1.771-0.227-2.354c-0.149-0.582-0.356-1.074-0.621-1.479c-0.265-0.406-0.599-0.717-1-0.931
		c-0.405-0.214-0.876-0.321-1.414-0.321 M1004.313,680.854c0.386,0.539,0.577,1.627,0.577,3.267c0.002,1.628-0.19,2.716-0.577,3.257
		c-0.386,0.545-0.859,0.814-1.425,0.814c-0.566,0-1.041-0.271-1.426-0.813c-0.386-0.539-0.578-1.627-0.578-3.261
		c0-1.636,0.213-2.754,0.637-3.359c0.337-0.477,0.787-0.714,1.354-0.714C1003.447,680.045,1003.929,680.313,1004.313,680.854"/>
	<path fill="#FFFFFF" d="M996.513,679.359c-0.405-0.216-0.878-0.322-1.415-0.322c-0.729,0-1.334,0.195-1.814,0.583
		c-0.479,0.39-0.844,0.943-1.088,1.66c-0.242,0.717-0.364,1.664-0.364,2.842c0,1.867,0.329,3.219,0.99,4.04
		c0.553,0.688,1.311,1.033,2.276,1.033c0.733,0,1.341-0.196,1.822-0.588c0.479-0.392,0.842-0.945,1.082-1.664
		c0.24-0.716,0.361-1.659,0.361-2.825c0-0.986-0.074-1.771-0.226-2.354c-0.15-0.582-0.358-1.074-0.622-1.479
		c-0.262-0.406-0.599-0.716-1-0.93 M996.524,687.375c-0.386,0.545-0.86,0.814-1.426,0.814s-1.04-0.271-1.427-0.813
		c-0.385-0.539-0.576-1.628-0.576-3.261c0-1.636,0.211-2.754,0.636-3.359c0.338-0.477,0.789-0.714,1.354-0.714
		c0.573,0,1.054,0.27,1.438,0.809c0.386,0.539,0.577,1.627,0.577,3.267C997.102,685.746,996.91,686.834,996.524,687.375"/>
	<path fill="#FFFFFF" d="M985.242,688.609c0.48-0.392,0.843-0.945,1.084-1.664c0.24-0.716,0.361-1.659,0.361-2.825
		c0-0.986-0.075-1.771-0.227-2.354c-0.149-0.582-0.357-1.074-0.622-1.479s-0.601-0.717-1-0.931
		c-0.405-0.217-0.878-0.322-1.415-0.322c-0.729,0-1.334,0.194-1.813,0.583c-0.48,0.39-0.845,0.942-1.088,1.66
		c-0.243,0.717-0.364,1.664-0.364,2.842c0,1.867,0.329,3.219,0.99,4.04c0.553,0.688,1.311,1.033,2.275,1.033
		c0.736,0,1.343-0.196,1.824-0.587 M982,687.375c-0.385-0.539-0.577-1.627-0.577-3.26c0-1.636,0.212-2.754,0.637-3.359
		c0.338-0.477,0.789-0.715,1.354-0.715c0.573,0,1.054,0.271,1.438,0.81c0.386,0.538,0.576,1.627,0.576,3.267
		c0,1.628-0.19,2.715-0.576,3.258c-0.387,0.544-0.86,0.813-1.427,0.813C982.86,688.188,982.386,687.918,982,687.375"/>
	<path fill="#FFFFFF" d="M972.732,681.279c-0.244,0.717-0.366,1.664-0.366,2.842c0,1.867,0.331,3.219,0.991,4.04
		c0.551,0.688,1.312,1.033,2.276,1.033c0.731,0,1.341-0.196,1.819-0.588c0.481-0.392,0.843-0.945,1.084-1.664
		c0.242-0.716,0.362-1.659,0.362-2.825c0-0.986-0.075-1.771-0.226-2.354s-0.357-1.074-0.623-1.479s-0.6-0.717-1-0.931
		c-0.405-0.217-0.877-0.322-1.415-0.322c-0.729,0-1.334,0.194-1.814,0.583c-0.478,0.39-0.841,0.944-1.084,1.661 M975.626,680.043
		c0.573,0,1.055,0.27,1.438,0.809c0.386,0.538,0.577,1.627,0.577,3.267c0,1.628-0.191,2.716-0.577,3.258
		c-0.386,0.544-0.858,0.813-1.425,0.813s-1.041-0.271-1.426-0.813c-0.387-0.539-0.578-1.627-0.578-3.261
		c0-1.636,0.213-2.754,0.637-3.359C974.608,680.28,975.062,680.043,975.626,680.043"/>
	<path fill="#FFFFFF" d="M682.553,688.189c-0.28,0-0.537-0.067-0.772-0.199v1.113c0.242,0.056,0.497,0.092,0.772,0.092
		c0.732,0,1.341-0.198,1.821-0.589c0.48-0.392,0.843-0.945,1.084-1.664c0.241-0.716,0.361-1.659,0.361-2.825
		c0-0.986-0.075-1.771-0.226-2.354s-0.357-1.074-0.622-1.479c-0.267-0.405-0.601-0.717-1-0.931
		c-0.406-0.217-0.877-0.322-1.415-0.322c-0.277,0-0.531,0.037-0.771,0.094v1.095c0.226-0.116,0.479-0.178,0.759-0.178
		c0.573,0,1.055,0.271,1.438,0.809c0.386,0.539,0.578,1.628,0.578,3.268c0,1.628-0.192,2.715-0.578,3.257
		c-0.384,0.545-0.858,0.814-1.424,0.814"/>
	<path fill="#FFFFFF" d="M691.753,679.359c-0.405-0.216-0.878-0.322-1.415-0.322c-0.729,0-1.334,0.195-1.814,0.583
		c-0.479,0.39-0.844,0.943-1.088,1.66c-0.243,0.717-0.365,1.664-0.365,2.842c0,1.867,0.33,3.219,0.991,4.04
		c0.552,0.688,1.311,1.033,2.276,1.033c0.732,0,1.341-0.196,1.82-0.588c0.48-0.392,0.844-0.945,1.084-1.664
		c0.24-0.716,0.361-1.659,0.361-2.825c0-0.986-0.075-1.771-0.226-2.354s-0.358-1.074-0.622-1.479c-0.264-0.406-0.6-0.716-1-0.93
		 M691.765,687.375c-0.386,0.545-0.861,0.814-1.426,0.814c-0.565,0-1.04-0.271-1.427-0.813c-0.386-0.539-0.577-1.628-0.577-3.261
		c0-1.636,0.212-2.754,0.637-3.359c0.338-0.477,0.789-0.714,1.354-0.714c0.574,0,1.055,0.27,1.439,0.809s0.577,1.627,0.577,3.267
		C692.344,685.746,692.149,686.834,691.765,687.375"/>
	<path fill="#FFFFFF" d="M729.402,649.93h-47.625v11h47.625c2.969,0,5.375-2.099,5.375-5.04v-0.249c0-2.948-2.406-5.706-5.375-5.706
		"/>
	<path fill="#FFFFFF" d="M754.282,655.02c0-3.701-3.02-6.702-6.75-6.702c-3.729,0-6.75,3-6.75,6.702s3.021,6.703,6.75,6.703
		C751.263,661.723,754.282,658.723,754.282,655.02 M742.782,655.02c0-2.601,2.132-4.718,4.75-4.718c2.619,0,4.75,2.117,4.75,4.718
		c0,2.602-2.131,4.719-4.75,4.719C744.914,659.738,742.782,657.62,742.782,655.02"/>
	<path fill="#FFFFFF" d="M701.782,683.93c0,2.192,1.791,4,4,4h254c2.209,0,4-1.808,4-4c0-2.194-1.791-4-4-4h-254
		C703.573,679.93,701.782,681.734,701.782,683.93"/>
	<path fill="#FFFFFF" d="M897.782,671.93c3.313,0,6-2.451,6-5.741v-20.854c0-3.289-2.687-6.402-6-6.402h-129
		c-3.313,0-6,3.113-6,6.402v20.854c0,3.29,2.688,5.741,6,5.741H897.782 M868.782,645.689l9,8.671v-8.671l9,8.671v-9.427h2v19h-2
		v-8.561l-9,8.668v-8.668l-9,8.668V645.689 M825.782,644.035l17.03,10.831l-17.03,10.83V644.035 M777.782,644.934h2v9.427l9-8.67
		v8.67l9-8.67v18.353l-9-8.668v8.668l-9-8.668v8.56h-2V644.934"/>
	<path fill="#FFFFFF" d="M925.383,649.8l4.402,2.524v-2.396h10.709c2.326,0,4.291,2.078,4.291,4.5c0,2.423-1.965,4.5-4.291,4.5
		h-11.709v1h11.709c2.868,0,5.291-2.537,5.291-5.5c0-2.962-2.423-5.5-5.291-5.5h-10.709v-1.651L925.383,649.8"/>
	<path fill="#FFFFFF" d="M971.782,648.93h-10.125c-2.867,0-5.291,2.538-5.291,5.5s2.423,5.5,5.291,5.5h12.12v-1h-12.12
		c-2.325,0-4.291-2.078-4.291-4.5s1.966-4.5,4.291-4.5h10.125v2.396l4.404-2.524l-4.404-2.523V648.93"/>
	<path fill="#FFFFFF" d="M1002.782,650.93h13v6h-13V650.93z"/>
	<path fill="#FFFFFF" d="M997.782,661.93h23v-16h-23V661.93 M999.782,647.93h19v12h-19V647.93"/>
	<path fill="#FFFFFF" d="M1176.022,677.039c-6.551,0-30.45,1.908-43.45,25.895h101.211v-25.818l-55.815-0.007
		c-0.011-0.003-0.719-0.069-1.948-0.069 M1230.783,691.018v8.916h-9L1230.783,691.018"/>
	<path fill="#FFFFFF" d="M1031.782,689.029c0,3.29-2.687,5.901-6,5.901h-344v8h152h294.421c13.67-26.759,37.715-28.976,44.82-28.976
		c1.16,0,1.918-0.024,2.158-0.024h58.6v-38h-202L1031.782,689.029L1031.782,689.029z"/>
	<path fill="#FFFFFF" d="M681.782,184.93h544.001v435v2v3h-544v7h552v-455h-552L681.782,184.93z"/>
	<path fill="#FFFFFF" d="M1037.853,172.93h195.931v-20h-142.08c-24.342,0-44.011,6.656-53.845,20"/>
	<path fill="#FFFFFF" d="M1188.033,110.68c-3.358,0-6.084,2.725-6.084,6.084c0,3.359,2.726,6.082,6.084,6.082
		s6.082-2.723,6.082-6.082C1194.115,113.404,1191.392,110.68,1188.033,110.68 M1188.033,120.846c-2.252,0-4.084-1.831-4.084-4.082
		c0-2.252,1.832-4.084,4.084-4.084c2.25,0,4.082,1.832,4.082,4.084C1192.115,119.015,1190.283,120.846,1188.033,120.846"/>
	<path fill="#FFFFFF" d="M1203.033,110.68c-3.358,0-6.084,2.725-6.084,6.084c0,3.359,2.726,6.082,6.084,6.082
		s6.082-2.723,6.082-6.082C1209.115,113.404,1206.392,110.68,1203.033,110.68 M1203.033,120.846c-2.252,0-4.084-1.831-4.084-4.082
		c0-2.252,1.832-4.084,4.084-4.084c2.25,0,4.082,1.832,4.082,4.084C1207.115,119.015,1205.283,120.846,1203.033,120.846"/>
	<path fill="#FFFFFF" d="M1173.033,110.68c-3.358,0-6.084,2.725-6.084,6.084c0,3.359,2.726,6.082,6.084,6.082
		s6.082-2.723,6.082-6.082C1179.115,113.404,1176.392,110.68,1173.033,110.68 M1173.033,120.846c-2.252,0-4.084-1.831-4.084-4.082
		c0-2.252,1.832-4.084,4.084-4.084c2.25,0,4.082,1.832,4.082,4.084C1177.115,119.015,1175.283,120.846,1173.033,120.846"/>
	<path fill="#FFFFFF" d="M1218.033,110.68c-3.358,0-6.084,2.725-6.084,6.084c0,3.359,2.726,6.082,6.084,6.082
		s6.082-2.723,6.082-6.082C1224.115,113.404,1221.392,110.68,1218.033,110.68 M1218.033,120.846c-2.252,0-4.084-1.831-4.084-4.082
		c0-2.252,1.832-4.084,4.084-4.084c2.25,0,4.082,1.832,4.082,4.084C1222.115,119.015,1220.283,120.846,1218.033,120.846"/>
	<path fill="#FFFFFF" d="M483.293,129.049l-0.286,1.266l-0.396,1.219l-0.468,1.102l-0.594,1.115l-0.117,0.181h6.928l0.233-0.591
		l0.476-1.578l0.385-1.841l0.2-1.691l0.069-1.742l-0.085-1.882l-0.252-1.835l-0.256-1.192l-0.324-1.167l-0.609-1.693l-0.75-1.621
		l-0.573-1.037l-0.633-0.999l-1.124-1.513l-1.256-1.403l-0.762-0.736l-0.797-0.696l-1.505-1.136l-1.608-0.995l-0.947-0.494
		l-0.975-0.447l-0.399,2.139l-0.585,2.086l-0.389,1.086l-0.472,1.133l-0.93,1.846l-0.877,1.434l-0.886,1.242l-1.315,1.561
		l-1.112,1.104l-0.771,0.656l-0.286,0.218l-0.288-0.218l-0.77-0.656l-1.111-1.104l-1.316-1.561l-1.162-1.67l-0.76-1.297
		l-0.771-1.555l-0.777-1.972l-0.604-2.062l-0.245-1.105l-0.221-1.305l-1.609,0.771l-1.626,0.967l-0.872,0.608l-0.928,0.726
		l-1.393,1.266l-1.271,1.388l-0.658,0.831l-0.614,0.864l-0.984,1.616l-0.787,1.602l-0.405,0.996l-0.39,1.137l-0.46,1.76
		l-0.305,1.817l-0.113,1.239l-0.038,1.26l0.085,1.957l0.215,1.683l0.35,1.632l0.51,1.675l0.198,0.494h6.929l-0.118-0.182
		l-0.594-1.115l-0.469-1.102l-0.396-1.219l-0.286-1.266l-0.166-1.23l-0.061-1.346l0.047-1.202l0.14-1.16l0.229-1.121l0.317-1.083
		l0.402-1.05l0.485-1.018l0.564-0.989l0.646-0.963l0.917,1.896l1.089,1.811l0.648,0.924l0.742,0.951l1.367,1.518l1.213,1.146
		l1.177,0.968l1.677,1.175l1.363,0.795c0,0,0.917,0.449,1.253,0.592l0.335-0.143l0.917-0.449l1.364-0.795l1.677-1.175l1.553-1.306
		l1.064-1.045l1.14-1.281l1.249-1.664l1.1-1.781l0.511-0.974l0.537-1.161l0.646,0.963l0.565,0.989l0.486,1.018l0.402,1.05
		l0.317,1.083l0.229,1.121l0.14,1.16l0.047,1.202l-0.061,1.346L483.293,129.049"/>
	<path fill="#FFFFFF" d="M1223.783,101.93h-780c-5.522,0-10,4.477-10,10v22h15.806l-0.124-0.309l-0.524-1.715l-0.358-1.673
		l-0.227-1.726l-0.089-1.999l0.038-1.297l0.115-1.271l0.31-1.854l0.47-1.803l0.401-1.173l0.415-1.022l0.802-1.634l1-1.655
		l0.636-0.895l0.673-0.852l1.295-1.415l1.425-1.298l0.956-0.749l0.894-0.625l1.657-0.986l2.246-1.08l0.333,1.959l0.039,0.174
		c2.242-0.924,4.696-1.441,7.272-1.441c2.569,0,5.02,0.516,7.256,1.437l0.393-2.109l1.559,0.713l0.97,0.506l1.64,1.014l1.543,1.162
		l0.825,0.719l0.78,0.753l1.28,1.429l1.152,1.549l0.653,1.029l0.589,1.063l0.766,1.653l0.626,1.734l0.335,1.202l0.265,1.222
		l0.258,1.872l0.09,1.928l-0.069,1.783l-0.203,1.73l-0.392,1.885l-0.485,1.619l-0.178,0.447h145.88v-29h398v46
		c0,5.523-4.478,10-10,10h-189h-152v12h152h199.49c10.146-14.834,30.05-23,56.14-23h144.371v-38c0-5.524-4.478-10-10-10
		 M1226.775,117.051c0,4.35-3.524,7.875-7.875,7.875h-46.25c-4.351,0-7.875-3.525-7.875-7.875v-0.25c0-4.35,3.524-7.875,7.875-7.875
		h46.25c4.351,0,7.875,3.525,7.875,7.875V117.051"/>
	<path fill="#FFFFFF" d="M847.782,447.569V332.93c0-8.598-7.456-16-16.916-16h-82.579c-9.121,0-16.505,7.26-16.505,16v114.64
		c0,9.09,7.62,16.362,16.357,16.362h82.87c9.06,0,16.768-7.428,16.768-16.363 M831.01,459.932h-82.87
		c-6.569,0-12.357-5.438-12.357-12.362V332.93c0-6.5,5.627-12,12.505-12h82.579c6.354,0,12.916,5.066,12.916,12v114.64
		c0,6.686-5.961,12.362-12.768,12.362"/>
	<path fill="#FFFFFF" d="M822.343,353.42c-10.82-0.004-54.101-0.002-64.923,0c-3.916,0-5,1.091-5,5.08
		c-0.004,21.563-0.004,43.119,0,64.689c0,4,1.05,5.064,5.02,5.065c21.642,0.004,43.28,0.004,64.922,0
		c3.789-0.002,4.826-1.011,4.826-4.728c0.008-21.799,0.008-43.599,0-65.399c-0.002-3.677-1.075-4.707-4.84-4.709 M766.787,421.498
		c0,0.785-0.637,1.423-1.423,1.423h-6.153c-0.785,0-1.423-0.638-1.423-1.423v-6.155c0-0.784,0.638-1.422,1.423-1.422h6.153
		c0.786,0,1.423,0.638,1.423,1.422V421.498 M766.787,407.498c0,0.785-0.637,1.423-1.423,1.423h-6.153
		c-0.785,0-1.423-0.638-1.423-1.423v-6.155c0-0.784,0.638-1.422,1.423-1.422h6.153c0.786,0,1.423,0.638,1.423,1.422V407.498
		 M766.787,393.498c0,0.785-0.637,1.423-1.423,1.423h-6.153c-0.785,0-1.423-0.638-1.423-1.423v-6.155
		c0-0.784,0.638-1.422,1.423-1.422h6.153c0.786,0,1.423,0.638,1.423,1.422V393.498 M766.787,380.498
		c0,0.786-0.637,1.424-1.423,1.424h-6.153c-0.785,0-1.423-0.638-1.423-1.424v-6.152c0-0.786,0.638-1.424,1.423-1.424h6.153
		c0.786,0,1.423,0.638,1.423,1.424V380.498 M766.787,366.5c0,0.784-0.637,1.422-1.423,1.422h-6.153
		c-0.785,0-1.423-0.638-1.423-1.422v-6.156c0-0.784,0.638-1.422,1.423-1.422h6.153c0.786,0,1.423,0.638,1.423,1.422V366.5
		 M802.958,392.609c-7.494,4.492-14.987,8.986-22.546,13.373c-2.236,1.301-3.166,0.012-3.182-2.185
		c-0.029-4.371-0.033-21.672,0-25.948c0.021-2.566,1.272-3.313,3.479-2.021c7.452,4.381,14.89,8.792,22.289,13.258
		c1.77,1.068,1.763,2.439-0.041,3.521 M821.787,421.495c0,0.785-0.637,1.423-1.423,1.423h-6.153c-0.785,0-1.423-0.638-1.423-1.423
		v-6.155c0-0.784,0.638-1.422,1.423-1.422h6.153c0.786,0,1.423,0.638,1.423,1.422V421.495 M821.787,407.495
		c0,0.785-0.637,1.423-1.423,1.423h-6.153c-0.785,0-1.423-0.638-1.423-1.423v-6.155c0-0.784,0.638-1.422,1.423-1.422h6.153
		c0.786,0,1.423,0.638,1.423,1.422V407.495 M821.787,393.495c0,0.785-0.637,1.423-1.423,1.423h-6.153
		c-0.785,0-1.423-0.638-1.423-1.423v-6.155c0-0.784,0.638-1.422,1.423-1.422h6.153c0.786,0,1.423,0.638,1.423,1.422V393.495
		 M821.787,380.495c0,0.786-0.637,1.424-1.423,1.424h-6.153c-0.785,0-1.423-0.638-1.423-1.424v-6.152
		c0-0.786,0.638-1.424,1.423-1.424h6.153c0.786,0,1.423,0.638,1.423,1.424V380.495 M821.787,366.496
		c0,0.785-0.637,1.423-1.423,1.423h-6.153c-0.785,0-1.423-0.638-1.423-1.423v-6.155c0-0.784,0.638-1.422,1.423-1.422h6.153
		c0.786,0,1.423,0.638,1.423,1.422V366.496"/>
	<path fill="#FFFFFF" d="M752.303,487.8c0.248,0,0.457-0.209,0.457-0.457v-12.329c0-0.075-0.038-0.172-0.076-0.248
		c-0.037-0.056-0.076-0.094-0.133-0.151c-0.208-0.133-0.514-0.096-0.646,0.113l-4.719,6.563l-4.738-6.563
		c-0.15-0.209-0.437-0.246-0.646-0.113c-0.019,0.02-0.038,0.02-0.038,0.038c-0.113,0.075-0.189,0.21-0.189,0.361v12.329
		c0,0.248,0.209,0.457,0.476,0.457c0.248,0,0.457-0.209,0.457-0.457v-10.94l4.263,5.897c0.095,0.151,0.229,0.209,0.399,0.209h0.038
		c0.134,0,0.284-0.058,0.38-0.209l4.262-5.915v10.957C751.847,487.591,752.035,487.8,752.303,487.8"/>
	<path fill="#FFFFFF" d="M757.192,474.479h-0.058c-0.247,0-0.456,0.209-0.456,0.457v12.404c0,0.248,0.209,0.457,0.456,0.457
		c0.267,0,0.476-0.209,0.476-0.457v-5.231l3.292-0.038c2.094,0,3.786-1.692,3.786-3.786c0-2.093-1.692-3.806-3.786-3.806H757.192
		 M763.774,478.283c0,1.579-1.294,2.873-2.873,2.893h-3.292v-5.766h3.292C762.48,475.41,763.774,476.704,763.774,478.283"/>
	<path fill="#FFFFFF" d="M774.923,487.8c0.267,0,0.476-0.209,0.476-0.457v-2.283h0.896c0.267,0,0.477-0.209,0.477-0.456
		s-0.21-0.456-0.477-0.456h-0.896v-9.134v-0.059c0-0.018-0.021-0.037-0.021-0.075c-0.036-0.077-0.075-0.171-0.15-0.229
		c-0.209-0.172-0.476-0.152-0.646,0.059l-0.02,0.019l-7.706,9.591c-0.172,0.189-0.151,0.495,0.058,0.646
		c0.075,0.076,0.189,0.095,0.284,0.095h0.039h0.02h7.212v2.283C774.468,487.591,774.676,487.8,774.923,487.8 M768.168,484.147
		l6.3-7.803v7.803H768.168"/>
	<path fill="#FFFFFF" d="M795.673,474.819l-4.776,11.34l-4.757-11.34c-0.096-0.229-0.38-0.343-0.609-0.229
		c-0.228,0.095-0.342,0.38-0.247,0.607l5.157,12.272l0.02,0.02c0,0.02,0,0.038,0.02,0.038c0.038,0.114,0.115,0.189,0.226,0.229
		c0,0,0,0.021,0.021,0.021c0.037,0.02,0.113,0.02,0.171,0.02c0.059,0,0.114-0.019,0.171-0.038h0.021
		c0.151-0.058,0.247-0.209,0.266-0.381l5.157-12.179c0.095-0.228-0.019-0.513-0.247-0.607
		C796.032,474.477,795.748,474.592,795.673,474.819"/>
	<path fill="#FFFFFF" d="M800.253,478.47c-0.246,0-0.455,0.188-0.455,0.456v8.41c0,0.248,0.209,0.457,0.455,0.457
		c0.268,0,0.477-0.209,0.477-0.457v-8.41C800.729,478.658,800.52,478.47,800.253,478.47"/>
	<path fill="#FFFFFF" d="M800.732,475.89c0-0.248-0.209-0.457-0.477-0.457c-0.246,0-0.455,0.209-0.455,0.457v0.438
		c0,0.267,0.209,0.495,0.455,0.495c0.268,0,0.477-0.229,0.477-0.495V475.89"/>
	<path fill="#FFFFFF" d="M813.063,487.8c0.248,0,0.457-0.209,0.457-0.457v-4.187v-0.189v-8.03c0-0.248-0.209-0.457-0.457-0.457
		c-0.268,0-0.477,0.209-0.477,0.457v5.364c-0.817-1.104-2.111-1.826-3.576-1.826c-2.513,0-4.511,2.094-4.511,4.682
		c0,2.55,1.998,4.644,4.511,4.644c1.465,0,2.759-0.704,3.576-1.809v1.351c0,0.247,0.21,0.456,0.477,0.456 M809.011,486.864
		c-1.961,0-3.577-1.654-3.577-3.71c0-2.074,1.616-3.749,3.577-3.749c1.922,0,3.501,1.6,3.576,3.598v0.305
		C812.511,485.285,810.933,486.865,809.011,486.864"/>
	<path fill="#FFFFFF" d="M825.742,482.89v-0.058v-0.02c-0.188-2.437-2.094-4.339-4.489-4.339c-2.511,0-4.528,2.094-4.528,4.682
		c0,2.549,2.02,4.643,4.527,4.644c1.578,0,2.969-0.837,3.769-2.111c0.133-0.229,0.058-0.494-0.151-0.646
		c-0.19-0.115-0.477-0.077-0.608,0.151c-0.628,1.046-1.771,1.692-3.01,1.692c-1.923,0-3.521-1.541-3.614-3.577h7.646
		c0.247,0,0.456-0.172,0.456-0.419 M817.689,482.412c0.342-1.77,1.81-3.02,3.561-3.02c1.712,0,3.194,1.274,3.5,3.02H817.689"/>
	<path fill="#FFFFFF" d="M828.543,483.13c0,2.53,1.979,4.661,4.415,4.661c2.454,0,4.413-2.131,4.413-4.661
		c0-2.529-1.959-4.661-4.413-4.661C830.521,478.469,828.543,480.6,828.543,483.13 M836.459,483.13c0,2.073-1.6,3.749-3.501,3.749
		c-1.902,0-3.501-1.676-3.501-3.749s1.599-3.769,3.501-3.769C834.859,479.361,836.459,481.058,836.459,483.13"/>
	<path fill="#FFFFFF" d="M774.522,449.729c-0.409,0-0.73,0.322-0.73,0.731c0,0.408,0.321,0.73,0.73,0.73s0.73-0.322,0.73-0.73
		C775.253,450.052,774.932,449.729,774.522,449.729"/>
	<path fill="#FFFFFF" d="M785.912,441.06c-0.16-0.101-0.394-0.071-0.496,0.089l-3.626,5.04l-3.64-5.04
		c-0.117-0.16-0.337-0.189-0.498-0.089c-0.013,0.015-0.028,0.015-0.028,0.029c-0.089,0.059-0.146,0.161-0.146,0.276v9.474
		c0,0.19,0.161,0.353,0.365,0.353c0.19,0,0.351-0.162,0.351-0.353v-8.405l3.274,4.532c0.073,0.116,0.176,0.16,0.308,0.16h0.029
		c0.102,0,0.219-0.044,0.292-0.16l3.272-4.547v8.42c0,0.19,0.147,0.353,0.353,0.353c0.19,0,0.351-0.162,0.351-0.353v-9.474
		c0-0.059-0.029-0.13-0.059-0.188C785.983,441.133,785.955,441.104,785.912,441.06"/>
	<path fill="#FFFFFF" d="M792.333,440.949h-2.853h-0.043c-0.19,0-0.353,0.161-0.353,0.351v9.53c0,0.191,0.161,0.354,0.353,0.354
		c0.204,0,0.365-0.162,0.365-0.354v-4.02l2.528-0.029c1.606,0,2.907-1.3,2.907-2.908S793.938,440.949,792.333,440.949
		 M792.332,446.095h-2.528v-4.429h2.528c1.213,0,2.207,0.992,2.207,2.207C794.539,445.087,793.545,446.08,792.332,446.095"/>
	<path fill="#FFFFFF" d="M804.152,448.38h-0.688v-7.021v-0.043c0-0.017-0.017-0.03-0.017-0.06c-0.027-0.06-0.058-0.132-0.116-0.177
		c-0.159-0.131-0.364-0.116-0.495,0.045l-0.018,0.016l-5.92,7.366c-0.131,0.146-0.117,0.381,0.044,0.497
		c0.06,0.059,0.147,0.072,0.221,0.072h0.028h0.015h5.541v1.757c0,0.19,0.16,0.353,0.352,0.353c0.204,0,0.365-0.162,0.365-0.353
		v-1.755h0.688c0.204,0,0.365-0.159,0.365-0.351c0-0.19-0.161-0.35-0.365-0.35 M802.748,448.377h-4.839l4.839-5.993V448.377"/>
	<path fill="#FFFFFF" d="M256.542,283.93h7.478c0.972,0,1.761-0.788,1.761-1.761v-7.479c0-0.973-0.788-1.761-1.761-1.761h-7.478
		c-0.972,0-1.761,0.788-1.761,1.761v7.479C254.782,283.142,255.57,283.93,256.542,283.93"/>
	<path fill="#FFFFFF" d="M282.272,313.539c9.353-5.429,18.629-10.991,27.904-16.552c2.232-1.337,2.241-3.034,0.051-4.356
		c-9.16-5.526-18.363-10.987-27.588-16.408c-2.73-1.605-4.282-0.682-4.306,2.496c-0.041,5.294-0.036,26.706,0,32.12
		c0.02,2.718,1.168,4.313,3.938,2.703"/>
	<path fill="#FFFFFF" d="M331.723,305.93h-7.617c-0.972,0-1.318,0.891-1.318,1.861v7.62c0,0.973,0.345,1.519,1.318,1.519h7.617
		c0.973,0,2.064-0.546,2.064-1.519v-7.62C333.787,306.82,332.697,305.93,331.723,305.93"/>
	<path fill="#FFFFFF" d="M256.022,333.93h7.617c0.973,0,1.139-0.217,1.139-1.188v-7.62c0-0.971-0.166-2.189-1.139-2.189h-7.617
		c-0.973,0-1.244,1.219-1.244,2.189v7.62C254.779,333.712,255.05,333.93,256.022,333.93"/>
	<path fill="#FFFFFF" d="M556.433,467.75c-2.499,0-4.531,2.15-4.531,4.875c0,2.75,2.032,4.938,4.531,4.938
		c2.524,0,4.594-2.188,4.594-4.938C561.026,469.9,558.957,467.75,556.433,467.75"/>
	<path fill="#FFFFFF" d="M573.083,467.75c-2.301,0-4.206,1.644-4.656,3.969h9.25C577.275,469.419,575.332,467.75,573.083,467.75"/>
	<path fill="#FFFFFF" d="M256.022,266.93h7.617c0.973,0,1.139-1.293,1.139-2.265v-7.619c0-0.971-0.166-2.116-1.139-2.116h-7.617
		c-0.973,0-1.244,1.144-1.244,2.116v7.619C254.779,265.637,255.05,266.93,256.022,266.93"/>
	<path fill="#FFFFFF" d="M331.653,287.93h-6.741c-1.176,0-2.129,0.635-2.129,1.418v8.164c0,0.783,0.953,1.418,2.129,1.418h6.741
		c1.176,0,2.129-0.635,2.129-1.418v-8.164C333.782,288.564,332.829,287.93,331.653,287.93"/>
	<path fill="#FFFFFF" d="M256.173,298.93h7.216c0.769,0,1.392-0.635,1.392-1.418v-8.164c0-0.783-0.623-1.418-1.392-1.418h-7.216
		c-0.769,0-1.392,0.635-1.392,1.418v8.164C254.781,298.294,255.404,298.93,256.173,298.93"/>
	<path fill="#FFFFFF" d="M256.022,316.93h7.617c0.973,0,1.139-0.546,1.139-1.519v-7.62c0-0.971-0.166-1.861-1.139-1.861h-7.617
		c-0.973,0-1.244,0.891-1.244,1.861v7.62C254.779,316.384,255.05,316.93,256.022,316.93"/>
	<path fill="#FFFFFF" d="M331.723,322.93h-7.617c-0.972,0-1.318,1.219-1.318,2.189v7.62c0,0.972,0.345,1.188,1.318,1.188h7.617
		c0.973,0,2.064-0.217,2.064-1.188v-7.62C333.787,324.148,332.697,322.93,331.723,322.93"/>
	<path fill="#FFFFFF" d="M388.683,660.439c-3.974,0-7.219,3.302-7.219,7.625c0,4.274,3.245,7.625,7.219,7.625
		c3.849,0,7.099-3.351,7.125-7.625C395.783,663.74,392.533,660.439,388.683,660.439"/>
	<path fill="#FFFFFF" d="M357.403,408.84c0-2.726-2.095-4.938-4.594-4.938c-2.5,0-4.625,2.214-4.625,4.938
		c0,2.723,2.125,4.938,4.625,4.938S357.403,411.563,357.403,408.84"/>
	<path fill="#FFFFFF" d="M360.522,660.659h-2.625v15.03h2.625c4.149,0,7.531-3.32,7.531-7.469
		C368.054,664.048,364.672,660.686,360.522,660.659"/>
	<path fill="#FFFFFF" d="M327.053,627.09h5.16l-2.56-6.84L327.053,627.09z"/>
	<path fill="#FFFFFF" d="M467.183,462.529h-4.344v7.563h4.344c2.075-0.024,3.75-1.707,3.75-3.781S469.258,462.529,467.183,462.529"
		/>
	<path fill="#FFFFFF" d="M323.583,671.189h7.07l-3.5-9.41L323.583,671.189z"/>
	<path fill="#FFFFFF" d="M539.652,467.75c-0.155,0-0.315-0.018-0.469,0c-2.291,0.252-4.125,2.358-4.125,4.938
		c0,2.749,2.094,4.906,4.594,4.906c2.525,0,4.595-2.157,4.595-4.906C544.247,469.938,542.179,467.75,539.652,467.75"/>
	<path fill="#FFFFFF" d="M513.402,423.81c0-1.51-1.239-2.75-2.75-2.75h-3.125v5.5h3.125
		C512.163,426.541,513.402,425.317,513.402,423.81"/>
	<path fill="#FFFFFF" d="M281.653,671.189h7.09l-3.53-9.41L281.653,671.189z"/>
	<path fill="#FFFFFF" d="M337.433,403.939c-2.299,0-4.236,1.645-4.688,3.969h9.281C341.625,405.607,339.682,403.939,337.433,403.939
		"/>
	<path fill="#FFFFFF" d="M324.103,266.93h7.617c0.973,0,2.064-1.293,2.064-2.265v-7.619c0-0.971-1.09-2.116-2.064-2.116h-7.617
		c-0.972,0-1.318,1.144-1.318,2.116v7.619C322.785,265.637,323.13,266.93,324.103,266.93"/>
	<path fill="#FFFFFF" d="M324.542,283.93h7.478c0.972,0,1.761-0.788,1.761-1.761v-7.479c0-0.973-0.788-1.761-1.761-1.761h-7.478
		c-0.972,0-1.761,0.788-1.761,1.761v7.479C322.782,283.142,323.57,283.93,324.542,283.93"/>
	<path fill="#FFFFFF" d="M326.022,408.689c-0.1-2.624-2.194-4.719-4.719-4.719c-0.161,0-0.312-0.018-0.469,0
		c-2.355,0.252-4.219,2.352-4.219,4.906c0,2.698,2.113,4.875,4.688,4.875c2.525,0,4.619-2.089,4.719-4.688V408.689"/>
	<path fill="#FFFFFF" d="M315.272,627.09h5.16l-2.57-6.84L315.272,627.09z"/>
	<path fill="#FFFFFF" d="M265.522,671.189h7.06l-3.53-9.41L265.522,671.189z"/>
	<path fill="#FFFFFF" d="M1005.782,447.569V332.93c0-8.598-7.875-16-17.334-16h-82.579c-9.123,0-16.091,7.26-16.091,16v114.64
		c0,9.09,7.201,16.362,15.938,16.362h82.87c9.06,0,17.188-7.428,17.188-16.363 M988.587,459.932h-82.87
		c-6.568,0-11.938-5.438-11.938-12.362V332.93c0-6.5,5.208-12,12.091-12h82.579c6.354,0,13.334,5.066,13.334,12v114.64
		c0,6.686-6.381,12.362-13.188,12.362"/>
	<path fill="#FFFFFF" d="M976.862,353.42c-2.284-1.104-4.959-0.309-5.552-0.101c-10.381,3.615-20.62,7.07-30.63,10.666
		c-6.457,2.319-8.563,5.615-8.604,12.713c-0.032,5.796-0.03,11.593-0.036,17.39c-0.005,4.987-0.003,9.978-0.003,15.16
		c-7.875-1.594-14.18,0.179-18.684,6.755c-3.079,4.495-2.188,10.72,1.982,13.373c5.081,3.234,10.355,2.818,15.367,0.04
		c4.563-2.526,7.04-6.609,6.947-12.445c-0.146-9.061-0.007-18.12-0.055-27.18c-0.018-2.709,0.657-5.011,3.248-5.911
		c9.521-3.318,19.229-6.592,29.13-9.785c2.692-0.87,3.112,0.426,3.114,1.927c0.228,8.183,0.144,16.378,0.144,24.646
		c-9.358-1.58-15.294,0.137-19.657,5.381c-4.119,4.951-3.623,11.847,1.399,15.08c5.34,3.438,11,2.985,16.426,0.205
		c5.061-2.595,8.011-6.699,7.958-12.962c-0.122-15.934-0.134-31.867,0.032-47.803c0.039-3.7-0.168-5.799-2.526-7.155"/>
	<path fill="#FFFFFF" d="M931.072,449.729c-0.408,0-0.729,0.322-0.729,0.731c0,0.408,0.32,0.73,0.729,0.73
		c0.409,0,0.729-0.322,0.729-0.73C931.802,450.052,931.481,449.729,931.072,449.729"/>
	<path fill="#FFFFFF" d="M942.453,441.06c-0.16-0.101-0.395-0.071-0.496,0.089l-3.625,5.04l-3.642-5.04
		c-0.116-0.16-0.336-0.189-0.496-0.089c-0.015,0.015-0.028,0.015-0.028,0.029c-0.087,0.059-0.146,0.161-0.146,0.276v9.474
		c0,0.19,0.16,0.353,0.365,0.353c0.189,0,0.351-0.162,0.351-0.353v-8.405l3.274,4.532c0.074,0.116,0.176,0.16,0.307,0.16h0.029
		c0.104,0,0.22-0.044,0.293-0.16l3.273-4.547v8.42c0,0.19,0.146,0.353,0.352,0.353c0.189,0,0.352-0.162,0.352-0.353v-9.474
		c0-0.059-0.029-0.13-0.059-0.188C942.526,441.133,942.498,441.104,942.453,441.06"/>
	<path fill="#FFFFFF" d="M948.873,440.949h-2.851h-0.045c-0.189,0-0.352,0.161-0.352,0.351v9.53c0,0.191,0.162,0.354,0.352,0.354
		c0.205,0,0.365-0.162,0.365-0.354v-4.02l2.528-0.029c1.607,0,2.908-1.3,2.908-2.908S950.479,440.949,948.873,440.949
		 M948.871,446.095h-2.527v-4.429h2.527c1.214,0,2.207,0.992,2.207,2.207C951.078,445.087,950.084,446.08,948.871,446.095"/>
	<path fill="#FFFFFF" d="M959.692,441.479c0.029-0.043,0.044-0.102,0.044-0.16c0-0.205-0.16-0.365-0.364-0.365h-4.779
		c-0.205,0-0.366,0.16-0.366,0.365c0,0.204,0.161,0.365,0.366,0.365h3.916l-2.543,2.615c-0.146,0.146-0.146,0.38,0,0.525h0.016
		c0.073,0.087,0.175,0.146,0.292,0.146c0.701,0,1.403,0.264,1.93,0.805c0.541,0.526,0.807,1.229,0.807,1.93
		c0,0.702-0.266,1.403-0.807,1.944c-0.541,0.524-1.241,0.789-1.943,0.789c-0.7,0-1.389-0.265-1.929-0.789
		c-0.146-0.146-0.382-0.146-0.513,0c-0.146,0.146-0.146,0.38,0,0.512c0.671,0.687,1.563,1.023,2.44,1.023
		c0.892,0,1.783-0.352,2.455-1.023c0.688-0.673,1.022-1.563,1.022-2.456c0-0.892-0.336-1.782-1.01-2.456
		c-0.497-0.497-1.109-0.804-1.755-0.936l2.646-2.72C959.646,441.566,959.678,441.522,959.692,441.479"/>
	<path fill="#FFFFFF" d="M459.782,442.93h103.11c8.47,0,15.896-6.162,15.896-14.479v-20.253l-40.65-41.901l-19.821,9.604
		l-23.818-22.383l-49.71,24.83v50.1c0,8.613,6.823,14.479,14.995,14.479 M523.283,419.965c1.584,0,2.979,0.546,4.125,1.438
		c0.164,0.127,0.227,0.444,0.063,0.625c-0.146,0.183-0.406,0.209-0.625,0.063c-0.928-0.765-2.198-1.22-3.563-1.22
		c-3.183,0-5.719,2.476-5.719,5.531c0,3.092,2.537,5.594,5.719,5.594c1.237,0,2.43-0.4,3.375-1.094v-3.75h-3.469
		c-0.255,0-0.469-0.183-0.469-0.438s0.214-0.438,0.469-0.438h3.938h0.03c0.22,0.02,0.406,0.201,0.406,0.438v4.375v0.063
		c-0.018,0.127-0.064,0.271-0.156,0.344c-1.128,0.892-2.56,1.406-4.125,1.406c-3.655-0.019-6.625-2.898-6.625-6.5
		C516.658,422.854,519.628,419.965,523.283,419.965 M506.628,420.59c0-0.237,0.2-0.438,0.438-0.438h0.063h3.531
		c2,0,3.625,1.655,3.625,3.656c0,2-1.625,3.594-3.625,3.594l-3.125,0.063v5c0,0.235-0.215,0.438-0.47,0.438
		c-0.235,0-0.438-0.2-0.438-0.438V420.59 M495.065,429.34c0.236-0.072,0.479,0.063,0.531,0.28c0.455,1.4,1.753,2.394,3.281,2.375
		c1.892,0,3.438-1.515,3.438-3.405v-8c0-0.237,0.2-0.438,0.438-0.438c0.237,0,0.438,0.199,0.438,0.438v8
		c0,2.399-1.93,4.313-4.313,4.313c-1.91,0-3.549-1.272-4.094-3C494.71,429.663,494.828,429.412,495.065,429.34 M492.158,431.059
		c0.51,0,0.906,0.428,0.906,0.938s-0.396,0.906-0.906,0.906c-0.509,0-0.905-0.396-0.905-0.906
		C491.253,431.487,491.649,431.059,492.158,431.059"/>
	<path fill="#FFFFFF" d="M911.492,487.8c0.247,0,0.456-0.209,0.456-0.457v-12.329c0-0.075-0.038-0.172-0.075-0.248
		c-0.038-0.056-0.074-0.094-0.134-0.151c-0.209-0.133-0.513-0.096-0.646,0.113l-4.72,6.563l-4.737-6.563
		c-0.151-0.209-0.438-0.246-0.646-0.113c-0.019,0.02-0.037,0.02-0.037,0.038c-0.114,0.075-0.189,0.21-0.189,0.361v12.329
		c0,0.248,0.209,0.457,0.477,0.457c0.247,0,0.456-0.209,0.456-0.457v-10.94l4.264,5.897c0.095,0.151,0.229,0.209,0.398,0.209h0.038
		c0.133,0,0.285-0.058,0.381-0.209l4.26-5.915v10.957C911.035,487.591,911.226,487.8,911.492,487.8"/>
	<path fill="#FFFFFF" d="M916.383,474.479h-0.057c-0.248,0-0.457,0.209-0.457,0.457v12.404c0,0.248,0.209,0.457,0.457,0.457
		c0.267,0,0.476-0.209,0.476-0.457v-5.231l3.293-0.038c2.093,0,3.786-1.692,3.786-3.786c0-2.093-1.693-3.806-3.786-3.806H916.383
		 M922.967,478.283c0,1.579-1.294,2.873-2.872,2.893h-3.293v-5.766h3.293C921.673,475.41,922.967,476.704,922.967,478.283"/>
	<path fill="#FFFFFF" d="M934.162,475.159c0.039-0.057,0.06-0.133,0.06-0.209c0-0.267-0.21-0.477-0.478-0.477h-6.223
		c-0.266,0-0.475,0.21-0.475,0.477c0,0.268,0.209,0.477,0.475,0.477h5.1l-3.311,3.405c-0.189,0.191-0.189,0.495,0,0.687h0.021
		c0.096,0.113,0.229,0.188,0.381,0.188c0.913,0,1.825,0.344,2.512,1.048c0.704,0.686,1.046,1.599,1.046,2.513
		c0,0.912-0.342,1.825-1.046,2.529c-0.704,0.686-1.617,1.026-2.53,1.026c-0.914,0-1.809-0.341-2.512-1.026
		c-0.19-0.189-0.495-0.189-0.666,0c-0.19,0.189-0.19,0.494,0,0.666c0.875,0.895,2.035,1.332,3.178,1.332
		c1.16,0,2.32-0.457,3.196-1.332c0.894-0.875,1.332-2.036,1.332-3.195c0-1.161-0.438-2.321-1.313-3.197
		c-0.646-0.646-1.443-1.046-2.281-1.218l3.442-3.539C934.106,475.274,934.145,475.218,934.162,475.159"/>
	<path fill="#FFFFFF" d="M948.513,474.539c-0.191,0-0.382,0.114-0.457,0.286l-4.624,12.35c-0.095,0.229,0.038,0.513,0.268,0.608
		c0.057,0,0.133,0.02,0.171,0.02c0.189,0,0.361-0.115,0.438-0.305l1.18-3.141h6.069l1.179,3.141
		c0.077,0.189,0.268,0.305,0.438,0.305c0.059,0,0.096-0.02,0.172-0.02c0.229-0.096,0.343-0.38,0.248-0.608l-4.625-12.35
		C948.91,474.653,948.722,474.539,948.513,474.539 M945.828,483.426l2.701-7.155l2.684,7.155H945.828"/>
	<path fill="#FFFFFF" d="M956.423,478.449c-0.246,0-0.457,0.19-0.457,0.457v5.08c0,2.093,1.676,3.807,3.769,3.807
		c2.133,0,3.825-1.714,3.825-3.807v-5.08c0-0.267-0.21-0.457-0.478-0.457c-0.229,0-0.457,0.19-0.457,0.457v5.08
		c0,1.6-1.293,2.873-2.893,2.894c-1.579-0.021-2.854-1.294-2.854-2.894v-5.08C956.879,478.641,956.67,478.449,956.423,478.449"/>
	<path fill="#FFFFFF" d="M975.742,487.8c0.247,0,0.456-0.209,0.456-0.457v-4.187v-0.189v-8.03c0-0.248-0.209-0.457-0.456-0.457
		c-0.267,0-0.476,0.209-0.476,0.457v5.364c-0.818-1.104-2.112-1.826-3.577-1.826c-2.512,0-4.51,2.094-4.51,4.682
		c0,2.55,1.998,4.644,4.51,4.644c1.465,0,2.759-0.704,3.577-1.809v1.351c0,0.247,0.209,0.456,0.476,0.456 M971.689,486.864
		c-1.96,0-3.577-1.654-3.577-3.71c0-2.074,1.617-3.749,3.577-3.749c1.922,0,3.501,1.6,3.577,3.598v0.305
		C975.19,485.285,973.611,486.865,971.689,486.864"/>
	<path fill="#FFFFFF" d="M980.843,478.47c-0.247,0-0.457,0.188-0.457,0.456v8.41c0,0.248,0.21,0.457,0.457,0.457
		c0.267,0,0.477-0.209,0.477-0.457v-8.41C981.319,478.658,981.108,478.47,980.843,478.47"/>
	<path fill="#FFFFFF" d="M981.322,475.89c0-0.248-0.21-0.457-0.477-0.457c-0.247,0-0.457,0.209-0.457,0.457v0.438
		c0,0.267,0.21,0.495,0.457,0.495c0.267,0,0.477-0.229,0.477-0.495V475.89"/>
	<path fill="#FFFFFF" d="M985.272,483.13c0,2.53,1.979,4.661,4.415,4.661c2.454,0,4.414-2.131,4.414-4.661
		c0-2.529-1.96-4.661-4.414-4.661C987.253,478.469,985.272,480.6,985.272,483.13 M993.188,483.13c0,2.073-1.599,3.749-3.501,3.749
		s-3.501-1.676-3.501-3.749s1.599-3.769,3.501-3.769C991.591,479.361,993.188,481.058,993.188,483.13"/>
	<path fill="#FFFFFF" d="M133.773,734.939h538v-118.87c-23.723,3.686-49.34,5.771-76,6.156v41.06l-65.47-65.47l65.47-65.5v40.906
		c26.922-0.424,52.687-2.74,76-6.813v-423.47h-538V734.939 M241.434,414.379c0,0.323-0.269,0.594-0.594,0.594
		c-0.35,0-0.594-0.27-0.594-0.594v-14.406l-5.594,7.781c-0.125,0.199-0.325,0.28-0.5,0.28h-0.063c-0.225,0-0.406-0.081-0.531-0.28
		l-5.594-7.75v14.375c0,0.323-0.269,0.594-0.594,0.594c-0.35,0-0.625-0.27-0.625-0.594V398.19c0-0.2,0.1-0.369,0.25-0.469
		c0-0.025,0.038-0.037,0.063-0.063c0.069-0.044,0.142-0.077,0.219-0.094c0.231-0.047,0.475,0.045,0.625,0.25l6.219,8.625
		l6.188-8.625c0.175-0.273,0.6-0.332,0.875-0.156c0.075,0.074,0.106,0.113,0.156,0.188c0.05,0.101,0.094,0.245,0.094,0.344V414.379
		 M249.09,410.004v4.375c0,0.323-0.275,0.594-0.625,0.594c-0.325,0-0.625-0.27-0.625-0.594v-16.22c0-0.35,0.3-0.625,0.625-0.625
		c0.35,0,0.625,0.275,0.625,0.625v10.125l10.563-10.563c0.25-0.226,0.644-0.226,0.844,0c0.25,0.225,0.25,0.626,0,0.875l-6.688,6.688
		l6.844,8.688c0.2,0.275,0.156,0.625-0.094,0.875c-0.125,0.1-0.256,0.125-0.406,0.125c-0.175,0-0.344-0.044-0.469-0.219l-6.75-8.595
		L249.09,410.004 M275.402,676.914c-0.1,0-0.175,0.03-0.25,0.03c-0.225,0-0.462-0.157-0.563-0.405l-1.563-4.125h-7.969l-1.531,4.125
		c-0.1,0.248-0.344,0.405-0.594,0.405c-0.05,0-0.144-0.03-0.219-0.03c-0.3-0.125-0.469-0.513-0.344-0.813l6.06-16.219
		c0.1-0.226,0.344-0.375,0.594-0.375c0.275,0,0.55,0.149,0.625,0.375l6.06,16.219c0.126,0.302-0.012,0.688-0.312,0.813
		 M291.516,676.914c-0.1,0-0.144,0.03-0.219,0.03c-0.225,0-0.462-0.157-0.563-0.405l-1.563-4.125h-7.969l-1.531,4.125
		c-0.1,0.248-0.344,0.405-0.594,0.405c-0.05,0-0.144-0.03-0.219-0.03c-0.3-0.125-0.469-0.513-0.344-0.813l6.06-16.219
		c0.1-0.226,0.344-0.375,0.594-0.375c0.275,0,0.519,0.149,0.594,0.375l6.094,16.219c0.126,0.302-0.043,0.688-0.343,0.813
		 M303.076,675.695c1.85,0,3.544-0.589,4.844-1.688c0.3-0.2,0.7-0.144,0.875,0.156c0.25,0.225,0.212,0.675-0.063,0.875
		c-1.524,1.175-3.507,1.905-5.656,1.905c-5.02,0-9.09-3.97-9.09-8.844c0-4.974,4.07-8.881,9.09-8.906
		c2.149,0,4.132,0.731,5.656,1.906c0.275,0.225,0.319,0.65,0.094,0.875c-0.2,0.3-0.594,0.325-0.844,0.125
		c-1.35-1.05-3.056-1.688-4.906-1.688c-4.374,0-7.875,3.414-7.875,7.688C295.201,672.276,298.702,675.695,303.076,675.695
		 M333.451,676.914c-0.1,0-0.144,0.03-0.219,0.03c-0.225,0-0.494-0.157-0.594-0.405l-1.531-4.125h-7.969l-1.563,4.125
		c-0.1,0.248-0.313,0.405-0.563,0.405c-0.05,0-0.144-0.03-0.219-0.03c-0.3-0.125-0.5-0.513-0.375-0.813l6.094-16.219
		c0.1-0.226,0.344-0.375,0.594-0.375c0.275,0,0.519,0.149,0.594,0.375l6.06,16.219c0.125,0.302-0.012,0.688-0.312,0.813
		 M351.229,669.854c0,3.899-3.17,7.094-7.094,7.094c-3.874,0-7.06-3.193-7.06-7.094v-9.813c0-0.325,0.269-0.595,0.594-0.595
		c0.35,0,0.625,0.269,0.625,0.595v9.813c0,3.225,2.645,5.817,5.844,5.844c3.249-0.024,5.875-2.619,5.875-5.844v-9.813
		c0-0.325,0.269-0.595,0.594-0.595c0.35,0,0.625,0.269,0.625,0.595v9.813 M360.513,676.947h-3.219H357.2
		c-0.3-0.024-0.563-0.3-0.563-0.625v-16.28c0-0.325,0.3-0.595,0.625-0.595h0.063h3.188c4.824,0,8.75,3.927,8.75,8.75
		S365.337,676.947,360.513,676.947 M374.763,676.322c0,0.324-0.275,0.625-0.625,0.625c-0.325,0-0.594-0.3-0.594-0.625v-16.28
		c0-0.325,0.269-0.595,0.594-0.595c0.35,0,0.625,0.269,0.625,0.595V676.322 M388.67,676.947c-4.724,0-8.413-3.976-8.438-8.875
		c0.025-4.897,3.713-8.875,8.438-8.875c4.674,0,8.35,3.978,8.375,8.875C397.02,672.972,393.343,676.947,388.67,676.947
		 M456.89,472.888c0,3.3-2.663,5.938-5.938,5.938c-2.625,0-4.875-1.72-5.625-4.094c-0.102-0.325,0.051-0.681,0.375-0.781
		c0.325-0.1,0.676,0.075,0.75,0.375c0.625,1.926,2.4,3.308,4.5,3.281c2.601,0,4.72-2.12,4.72-4.719v-10.969
		c0-0.325,0.3-0.595,0.625-0.595s0.594,0.269,0.594,0.595V472.888 M467.172,471.294l-4.344,0.063v6.875
		c0,0.324-0.275,0.594-0.625,0.594c-0.325,0-0.595-0.269-0.595-0.594v-16.313c0-0.325,0.27-0.595,0.595-0.595h0.094h4.875
		c2.75,0,4.969,2.251,4.969,5S469.922,471.294,467.172,471.294 M490.392,476.356v0.094c-0.024,0.176-0.094,0.339-0.219,0.438
		c-1.549,1.225-3.507,1.938-5.656,1.938c-5.02-0.024-9.09-3.958-9.09-8.905c0-4.874,4.069-8.845,9.09-8.845
		c2.174,0,4.081,0.744,5.656,1.97c0.225,0.175,0.317,0.594,0.094,0.844c-0.2,0.249-0.575,0.325-0.875,0.125
		c-1.274-1.05-3-1.719-4.875-1.719c-4.374,0-7.875,3.426-7.875,7.625c0,4.249,3.501,7.688,7.875,7.688c1.7,0,3.325-0.55,4.625-1.5
		v-5.156h-4.781c-0.35,0-0.625-0.243-0.625-0.594s0.275-0.625,0.625-0.625h5.406h0.063c0.3,0.024,0.563,0.3,0.563,0.625
		L490.392,476.356 M505.453,478.231c0,0.324-0.275,0.594-0.625,0.594c-0.325,0-0.625-0.269-0.625-0.594v-16.313
		c0-0.325,0.3-0.595,0.625-0.595c0.35,0,0.625,0.269,0.625,0.595V478.231 M530.078,478.231c0,0.3-0.244,0.594-0.595,0.594
		c-0.325,0-0.563-0.294-0.563-0.594v-6.656c-0.05-2.073-1.714-3.813-3.813-3.813c-2.074,0-3.781,1.738-3.781,3.813v6.656v0.094
		c0,0.025-0.03,0.031-0.03,0.031v0.063c-0.05,0.148-0.156,0.236-0.281,0.313c-0.1,0.05-0.213,0.094-0.313,0.094h-0.063h-0.063
		c-0.025,0-0.031-0.03-0.031-0.03c-0.05,0-0.106-0.038-0.156-0.063c-0.025,0-0.068-0.036-0.094-0.063l-0.063-0.063
		c-0.024-0.025-0.037-0.063-0.063-0.063c0-0.024,0.024-0.036,0-0.063c0,0-0.006-0.005-0.031-0.031c0-0.023-0.006-0.067-0.031-0.094
		v-0.063v-0.063v-6.656c0-2.073-1.683-3.813-3.78-3.813c-2.101,0-3.781,1.738-3.781,3.813v6.656c0,0.2-0.075,0.399-0.25,0.5
		c-0.025,0.024-0.106,0.063-0.156,0.063c-0.025,0.024-0.044,0.03-0.094,0.03h-0.094h-0.063c-0.225-0.024-0.425-0.244-0.5-0.469
		v-0.125v-6.656v-0.219v-4.188c0-0.324,0.263-0.563,0.563-0.563c0.35,0,0.594,0.238,0.594,0.563v1.188
		c0.899-1.074,2.257-1.75,3.781-1.75c1.898,0,3.524,1.045,4.375,2.594c0.875-1.549,2.53-2.594,4.405-2.594
		c2.75,0,4.97,2.22,4.97,4.969v6.658H530.078z M545.422,478.231c0,0.324-0.27,0.594-0.594,0.594c-0.325,0-0.595-0.269-0.595-0.594
		v-1.844c-1.049,1.45-2.719,2.438-4.594,2.438c-3.224,0-5.813-2.775-5.813-6.125s2.59-6.125,5.813-6.125
		c1.875,0,3.544,0.957,4.594,2.406v-1.813c0-0.351,0.27-0.595,0.595-0.595c0.324,0,0.594,0.245,0.594,0.595v11.06 M562.203,477.854
		c0,3.174-2.582,5.75-5.781,5.75c-0.899,0-1.732-0.245-2.531-0.594c-0.25-0.175-0.4-0.506-0.25-0.781
		c0.15-0.325,0.48-0.456,0.781-0.281c0.625,0.3,1.25,0.438,2,0.438c2.55,0,4.594-2.011,4.594-4.531v-1.5
		c-1.025,1.475-2.72,2.375-4.594,2.375c-3.199,0-5.75-2.72-5.75-6.094c0-3.299,2.55-6.061,5.75-6.061
		c1.875,0,3.567,0.957,4.594,2.406v-1.813c0-0.324,0.275-0.595,0.625-0.595c0.3,0,0.563,0.27,0.563,0.595v10.688 M578.983,472.294
		v0.063c0,0.325-0.269,0.563-0.594,0.563h-10.06c0.125,2.674,2.226,4.688,4.75,4.688c1.625,0,3.144-0.845,3.969-2.219
		c0.175-0.3,0.531-0.339,0.781-0.188c0.274,0.2,0.394,0.544,0.219,0.845c-1.05,1.675-2.896,2.78-4.969,2.78
		c-3.3,0-5.938-2.744-5.938-6.094c0-3.399,2.638-6.156,5.938-6.156c3.148,0,5.655,2.488,5.905,5.688v0.03 M439.775,285.844
		c0-10.877,8.833-19.896,20.18-19.896h102.74c11.77,0,21.08,9.2,21.08,19.896v142.62c0,11.12-9.623,19.479-20.895,19.479h-103.11
		c-10.87,0-19.996-8.168-19.996-19.479L439.775,285.844 M402.774,483.913v142.891c0,11.137-9.674,21.149-20.968,21.149h-103.3
		c-10.89,0-19.731-9.813-19.731-21.149V483.913c0-10.897,8.546-19.963,19.916-19.963h102.93c11.79,0,21.15,9.246,21.15,19.963
		 M264.202,397.644c0.075-0.037,0.171-0.062,0.25-0.063c0.238-0.007,0.469,0.15,0.563,0.375l6.25,14.875l6.281-14.875
		c0.1-0.3,0.45-0.463,0.75-0.313c0.3,0.125,0.469,0.513,0.344,0.813l-6.781,16c-0.025,0.226-0.144,0.426-0.344,0.5h-0.032
		c-0.075,0.024-0.144,0.031-0.219,0.031s-0.169-0.006-0.219-0.031h-0.031c-0.151-0.051-0.263-0.161-0.313-0.313
		c-0.025,0-0.031-0.036-0.031-0.063l-6.781-16.119c-0.125-0.299,0.013-0.687,0.313-0.812 M290.452,397.648
		c0.075-0.037,0.171-0.061,0.25-0.063c0.238-0.008,0.469,0.149,0.563,0.375l6.25,14.875l6.281-14.875
		c0.1-0.301,0.45-0.463,0.75-0.313c0.3,0.125,0.469,0.513,0.344,0.813l-6.781,16c-0.025,0.225-0.144,0.425-0.344,0.5h-0.031
		c-0.075,0.023-0.144,0.03-0.219,0.03s-0.169-0.006-0.219-0.03h-0.031c-0.151-0.052-0.263-0.162-0.313-0.313
		c-0.025,0-0.031-0.036-0.031-0.063l-6.781-16.12c-0.126-0.298,0.012-0.687,0.312-0.812 M309.827,402.748
		c0.35,0,0.625,0.274,0.625,0.625v11.029c0,0.324-0.275,0.594-0.625,0.594c-0.325,0-0.625-0.269-0.625-0.594v-11.029
		C309.202,403.022,309.501,402.748,309.827,402.748 M309.202,399.935v-0.563c0-0.324,0.3-0.625,0.625-0.625
		c0.35,0,0.625,0.3,0.625,0.625v0.563c0,0.35-0.275,0.656-0.625,0.656C309.501,400.591,309.202,400.283,309.202,399.935
		 M321.292,414.994c-3.299,0-5.906-2.743-5.906-6.094c0-3.398,2.607-6.156,5.906-6.156c1.924,0,3.644,0.957,4.719,2.406v-7.029
		c0-0.325,0.275-0.625,0.625-0.625c0.325,0,0.594,0.299,0.594,0.625v10.53v0.25v5.5c0,0.324-0.269,0.595-0.594,0.595
		c-0.35,0-0.625-0.27-0.625-0.595v-1.78c-1.076,1.448-2.795,2.375-4.719,2.375 M337.412,413.808c1.625,0,3.112-0.845,3.938-2.219
		c0.175-0.3,0.563-0.37,0.813-0.22c0.275,0.2,0.362,0.545,0.188,0.845c-1.05,1.675-2.863,2.78-4.938,2.78
		c-3.3,0.001-5.969-2.743-5.969-6.094c0-3.398,2.669-6.156,5.969-6.156c3.149,0,5.625,2.521,5.875,5.72v0.094
		c0,0.325-0.269,0.531-0.594,0.531h-10.03C332.788,411.763,334.889,413.808,337.412,413.808 M346.975,408.871
		c0-3.324,2.613-6.125,5.813-6.125c3.224,0,5.781,2.801,5.781,6.125c0,3.323-2.557,6.125-5.781,6.125
		C349.587,414.996,346.975,412.194,346.975,408.871 M221.754,223.121c0-10.82,9.46-20.16,20.75-20.16h102.19
		c11.708,0,21.06,9.515,21.06,20.16v141.91c0,11.061-9.663,19.938-20.875,19.938h-102.56c-10.815,0-20.563-8.686-20.563-19.938
		v-141.91"/>
	<path fill="#FFFFFF" d="M263.783,483.89v142.89c0,8.629,6.543,15.15,14.731,15.15h103.3c8.486,0,15.967-6.813,15.967-15.15V483.89
		c0-8.645-8.232-14.962-16.149-14.962h-102.93c-8.575,0-14.916,6.857-14.916,14.962 M310.125,631.279
		c-0.51,0-0.906-0.396-0.906-0.906c0-0.51,0.396-0.905,0.906-0.905c0.51,0,0.906,0.396,0.906,0.905
		C311.031,630.885,310.635,631.279,310.125,631.279 M322.469,631.279h-0.156c-0.164,0-0.333-0.099-0.406-0.281l-1.125-3h-5.813
		l-1.125,3c-0.073,0.184-0.255,0.281-0.438,0.281h-0.156c-0.219-0.091-0.341-0.375-0.25-0.594l4.406-11.813
		c0.073-0.163,0.255-0.281,0.438-0.281c0.201,0,0.382,0.118,0.438,0.281l4.438,11.813
		C322.81,630.904,322.687,631.188,322.469,631.279 M334.25,631.279h-0.156c-0.164,0-0.333-0.099-0.406-0.281l-1.156-3h-5.813
		l-1.125,3c-0.073,0.184-0.224,0.281-0.406,0.281h-0.156c-0.219-0.091-0.372-0.375-0.281-0.594l4.438-11.813
		c0.073-0.163,0.255-0.281,0.438-0.281c0.201,0,0.382,0.118,0.438,0.281l4.438,11.813
		C334.591,630.904,334.468,631.188,334.25,631.279 M342.688,630.404c1.348,0,2.584-0.449,3.531-1.25
		c0.219-0.146,0.497-0.093,0.625,0.125c0.182,0.164,0.139,0.479-0.063,0.625c-1.111,0.856-2.528,1.375-4.094,1.375
		c-3.662,0-6.656-2.854-6.656-6.406c0-3.625,2.994-6.514,6.656-6.53c1.566,0,2.983,0.55,4.094,1.405
		c0.201,0.164,0.258,0.492,0.094,0.656c-0.146,0.219-0.443,0.238-0.625,0.094c-0.984-0.766-2.214-1.25-3.563-1.25
		c-3.188,0-5.75,2.511-5.75,5.625C336.937,627.917,339.5,630.404,342.688,630.404 M288.038,587.435
		c5.614-8.197,13.472-10.405,23.288-8.422c0-6.459-0.003-12.678,0.003-18.895c0.007-7.226,0.005-14.449,0.046-21.675
		c0.05-8.847,2.675-12.955,10.724-15.848c12.476-4.482,25.24-8.787,38.18-13.296c0.739-0.259,4.073-1.249,6.92,0.125
		c2.939,1.69,3.197,4.308,3.151,8.917c-0.208,19.863-0.193,39.726-0.041,59.59c0.062,7.806-3.613,12.924-9.919,16.16
		c-6.764,3.468-13.819,4.03-20.475-0.256c-6.26-4.03-6.88-12.628-1.744-18.801c5.438-6.535,12.835-8.676,24.502-6.705
		c0-10.306,0.104-20.522-0.178-30.722c-0.003-1.87-0.527-3.484-3.883-2.399c-12.339,3.979-24.439,8.06-36.31,12.195
		c-3.229,1.128-4.069,3.991-4.049,7.369c0.059,11.291-0.112,22.581,0.068,33.872c0.115,7.275-2.971,12.365-8.66,15.515
		c-6.247,3.466-12.823,3.982-19.16-0.05c-5.197-3.307-6.308-11.069-2.466-16.667"/>
	<path fill="#FFFFFF" d="M1091.402,449.68c-0.408,0-0.73,0.321-0.73,0.73c0,0.408,0.322,0.729,0.73,0.729
		c0.409,0,0.73-0.321,0.73-0.729C1092.133,450,1091.812,449.68,1091.402,449.68"/>
	<path fill="#FFFFFF" d="M1097.603,440.909h-2.852h-0.044c-0.189,0-0.352,0.161-0.352,0.352v9.53c0,0.19,0.162,0.352,0.352,0.352
		c0.205,0,0.364-0.16,0.364-0.352v-4.021l2.529-0.028c1.606,0,2.908-1.301,2.908-2.907
		C1100.511,442.226,1099.209,440.91,1097.603,440.909 M1097.602,446.057h-2.529v-4.429h2.529c1.213,0,2.207,0.992,2.207,2.207
		C1099.809,445.048,1098.814,446.042,1097.602,446.057"/>
	<path fill="#FFFFFF" d="M1110.093,441.01c-0.191,0-0.354,0.163-0.354,0.353v8.332l-6.195-8.597
		c-0.104-0.159-0.337-0.189-0.497-0.088c-0.133,0.104-0.178,0.25-0.133,0.396v9.384c0,0.192,0.161,0.353,0.353,0.353
		s0.35-0.16,0.35-0.353v-8.375l6.142,8.537c0.014,0.03,0.043,0.043,0.059,0.06c0.072,0.087,0.16,0.131,0.277,0.131
		c0.205,0,0.364-0.16,0.364-0.353v-9.428C1110.458,441.172,1110.299,441.01,1110.093,441.01"/>
	<path fill="#FFFFFF" d="M1118.283,441.479c1.098,0,2.104,0.381,2.852,0.994c0.176,0.117,0.395,0.087,0.512-0.06
		c0.131-0.146,0.088-0.395-0.044-0.497c-0.921-0.716-2.047-1.154-3.317-1.154c-2.938,0-5.321,2.324-5.321,5.175
		c0,2.895,2.384,5.189,5.321,5.204c1.257,0,2.397-0.408,3.304-1.125c0.072-0.059,0.117-0.162,0.132-0.264v-0.06v-3.509
		c0-0.189-0.146-0.351-0.321-0.364h-0.044h-3.156c-0.204,0-0.365,0.16-0.365,0.364c0,0.205,0.161,0.352,0.365,0.352h2.789v3.011
		c-0.76,0.556-1.711,0.877-2.703,0.877c-2.558,0-4.604-2-4.604-4.487C1113.681,443.48,1115.725,441.479,1118.283,441.479"/>
	<path fill="#FFFFFF" d="M1056.942,474.72h-0.057c-0.248,0-0.457,0.209-0.457,0.457v12.404c0,0.248,0.209,0.457,0.457,0.457
		c0.267,0,0.476-0.209,0.476-0.457v-5.23l3.292-0.038c2.094,0,3.787-1.693,3.787-3.786s-1.693-3.807-3.787-3.807H1056.942
		 M1063.525,478.524c0,1.579-1.294,2.873-2.873,2.892h-3.292v-5.765h3.292C1062.231,475.651,1063.525,476.945,1063.525,478.524"/>
	<path fill="#FFFFFF" d="M1076.463,475.31v10.846l-8.07-11.188c-0.132-0.209-0.438-0.247-0.646-0.113
		c-0.172,0.134-0.229,0.324-0.172,0.514v12.217c0,0.247,0.209,0.457,0.457,0.457c0.247,0,0.457-0.21,0.457-0.457v-10.902
		l7.991,11.11c0.019,0.037,0.058,0.056,0.076,0.075c0.094,0.114,0.21,0.171,0.36,0.171c0.268,0,0.477-0.209,0.477-0.457v-12.271
		c0-0.247-0.209-0.457-0.477-0.457c-0.247-0.003-0.456,0.207-0.456,0.455"/>
	<path fill="#FFFFFF" d="M1087.572,475.47c1.429,0,2.74,0.494,3.711,1.294c0.229,0.153,0.515,0.114,0.666-0.076
		c0.172-0.189,0.113-0.513-0.058-0.646c-1.198-0.933-2.663-1.504-4.319-1.504c-3.823,0-6.926,3.021-6.926,6.735
		c0,3.768,3.103,6.755,6.926,6.773c1.638,0,3.121-0.533,4.302-1.465c0.095-0.076,0.151-0.211,0.171-0.344v-0.076v-4.565
		c0-0.248-0.189-0.457-0.419-0.477h-0.058h-4.108c-0.269,0-0.478,0.209-0.478,0.477s0.209,0.456,0.478,0.456h3.634v3.92
		c-0.989,0.725-2.227,1.143-3.521,1.143c-3.33,0-5.993-2.606-5.993-5.842C1081.579,478.075,1084.242,475.47,1087.572,475.47"/>
	<path fill="#FFFFFF" d="M1102.553,475.18v12.405c0,0.247,0.209,0.456,0.457,0.456c0.266,0,0.476-0.209,0.476-0.456V475.18
		c0-0.248-0.21-0.457-0.476-0.457C1102.762,474.723,1102.553,474.932,1102.553,475.18"/>
	<path fill="#FFFFFF" d="M1121.353,487.609c0,0.229,0.19,0.438,0.438,0.438c0.268,0,0.457-0.209,0.457-0.438v-5.08
		c0-2.095-1.693-3.787-3.786-3.787c-1.429,0-2.685,0.799-3.351,1.979c-0.646-1.18-1.883-1.979-3.33-1.979
		c-1.159,0-2.188,0.515-2.873,1.332v-0.896c0-0.248-0.188-0.438-0.457-0.438c-0.228,0-0.438,0.19-0.438,0.438v3.197v0.151v5.08
		v0.095c0.059,0.173,0.211,0.324,0.382,0.344h0.058h0.058c0.038,0,0.058,0,0.076-0.02c0.038,0,0.094-0.038,0.114-0.059
		c0.133-0.076,0.209-0.209,0.209-0.36v-5.08c0-1.58,1.273-2.894,2.873-2.894c1.599,0,2.873,1.313,2.873,2.894v5.08v0.037v0.058
		c0.02,0.021,0.02,0.038,0.02,0.059c0.021,0.019,0.021,0.038,0.021,0.038c0.019,0.019,0.019,0.019,0.019,0.038
		c0.019,0,0.019,0.018,0.038,0.038l0.057,0.057c0.021,0.02,0.039,0.038,0.06,0.038c0.038,0.021,0.075,0.059,0.113,0.059
		c0,0,0.02,0.02,0.038,0.02h0.037h0.059c0.076,0,0.152-0.02,0.229-0.058c0.097-0.059,0.191-0.134,0.229-0.248v-0.038
		c0,0,0.021-0.019,0.021-0.037v-0.058v-5.08c0-1.58,1.293-2.894,2.873-2.894c1.599,0,2.854,1.313,2.893,2.894h-0.004v5.08H1121.353z
		"/>
	<path fill="#FFFFFF" d="M1133.463,488.039c0.248,0,0.457-0.209,0.457-0.457v-8.409c0-0.268-0.209-0.456-0.457-0.456
		s-0.457,0.188-0.457,0.456v1.37c-0.801-1.104-2.073-1.826-3.5-1.826c-2.455,0-4.414,2.11-4.414,4.661
		c0,2.55,1.959,4.661,4.414,4.661c1.427,0,2.699-0.741,3.5-1.846v1.389C1133.006,487.83,1133.216,488.039,1133.463,488.039
		 M1129.506,487.127c-1.902,0-3.502-1.655-3.502-3.749s1.6-3.769,3.502-3.769c1.922,0,3.501,1.675,3.501,3.769
		S1131.426,487.127,1129.506,487.127"/>
	<path fill="#FFFFFF" d="M1142.293,490.76c-0.57,0-1.046-0.113-1.521-0.342c-0.229-0.135-0.495-0.038-0.608,0.209
		c-0.113,0.209,0,0.476,0.189,0.607c0.607,0.267,1.255,0.438,1.939,0.438c2.436,0,4.396-1.96,4.396-4.377v-8.125
		c0-0.247-0.209-0.456-0.438-0.456c-0.268,0-0.477,0.209-0.477,0.456v1.369c-0.779-1.103-2.054-1.825-3.48-1.825
		c-2.438,0-4.377,2.11-4.377,4.623c0,2.569,1.939,4.645,4.377,4.645c1.427,0,2.701-0.704,3.48-1.827v1.143
		C1145.773,489.219,1144.232,490.76,1142.293,490.76 M1142.293,487.087c-1.901,0-3.463-1.654-3.463-3.749
		c0-2.072,1.562-3.71,3.463-3.71c1.921,0,3.481,1.638,3.481,3.71C1145.774,485.433,1144.216,487.087,1142.293,487.087"/>
	<path fill="#FFFFFF" d="M1159.453,483.13v-0.058v-0.021c-0.19-2.437-2.094-4.338-4.49-4.338c-2.512,0-4.527,2.094-4.527,4.682
		c0,2.55,2.021,4.642,4.526,4.643c1.58,0,2.968-0.837,3.768-2.111c0.134-0.229,0.058-0.493-0.151-0.646
		c-0.189-0.114-0.476-0.077-0.607,0.152c-0.629,1.046-1.771,1.692-3.01,1.692c-1.922,0-3.521-1.541-3.615-3.577h7.647
		c0.247,0,0.456-0.171,0.456-0.418 M1151.399,482.653c0.342-1.771,1.808-3.03,3.558-3.02c1.713,0,3.196,1.273,3.502,3.02H1151.399"
		/>
	<path fill="#FFFFFF" d="M1164.783,447.569V332.93c0-8.598-7.209-16-16.668-16h-82.58c-9.121,0-16.752,7.26-16.752,16v114.64
		c0,9.09,7.866,16.362,16.604,16.362h82.88c9.061,0,16.521-7.428,16.521-16.363 M1052.788,332.929c0-6.5,5.872-12,12.752-12h82.58
		c6.353,0,12.668,5.066,12.668,12v92.609l-31.738-32.794l-16.021,7.781l-19.322-18.01l-40.916,20.308v-69.897 M1148.271,459.926
		h-82.87c-6.567,0-12.604-5.438-12.604-12.362v-40.27l40.229-19.958l19.28,17.989l15.872-7.719l32.617,33.679v16.279
		c0,6.686-5.714,12.362-12.521,12.362"/>
	<path fill="#FFFFFF" d="M1129.283,368.26c8.502,0,15.418-6.917,15.418-15.419s-6.916-15.419-15.418-15.419
		s-15.42,6.917-15.42,15.419S1120.781,368.26,1129.283,368.26 M1129.283,341.422c6.296,0,11.418,5.123,11.418,11.419
		s-5.122,11.419-11.418,11.419c-6.298,0-11.42-5.123-11.42-11.419S1122.985,341.422,1129.283,341.422"/>
	<path fill="#FFFFFF" d="M539.272,324.81c7.833,0,14.206-6.375,14.206-14.209c0-7.832-6.373-14.207-14.206-14.207
		c-7.834,0-14.207,6.375-14.207,14.207C525.065,318.435,531.438,324.81,539.272,324.81"/>
	<path fill="#FFFFFF" d="M519.123,369.93l20.01-9.683l39.646,40.802v-115.22c0-8.627-8.175-13.896-16.08-13.896H459.959
		c-8.56,0-15.182,5.809-15.182,13.896v86.965l50.603-25.261l23.737,22.406 M539.268,291.43c10.577,0,19.18,8.605,19.18,19.18
		c0,10.579-8.604,19.18-19.18,19.18s-19.18-8.604-19.18-19.18C520.088,300.03,528.693,291.43,539.268,291.43"/>
	<path fill="#FFFFFF" d="M242.333,380.939h102.56c8.425,0,15.875-7.663,15.875-15.938V223.091c0-8.581-8.198-15.16-16.06-15.16
		h-102.19c-8.512,0-15.75,7.111-15.75,15.16v141.911c0,8.569,7.432,15.938,15.563,15.938 M275.381,369.476
		c-0.504,0-0.9-0.396-0.9-0.9s0.396-0.899,0.9-0.899c0.504,0,0.9,0.396,0.9,0.899S275.885,369.476,275.381,369.476 M289.366,369.032
		c0,0.235-0.203,0.438-0.438,0.438c-0.253,0-0.406-0.201-0.406-0.438v-10.405l-4.063,5.625c-0.09,0.146-0.248,0.188-0.375,0.188
		h-0.031c-0.163,0-0.285-0.043-0.375-0.188l-4.063-5.625v10.405c0,0.235-0.202,0.438-0.438,0.438c-0.253,0-0.438-0.201-0.438-0.438
		v-11.719c0-0.145,0.08-0.271,0.188-0.344c0-0.02,0.013-0.016,0.031-0.031c0.05-0.031,0.101-0.051,0.156-0.063
		c0.167-0.034,0.33,0.007,0.438,0.155l4.531,6.25l4.469-6.25c0.127-0.198,0.426-0.221,0.625-0.094
		c0.054,0.054,0.089,0.102,0.125,0.156c0.036,0.072,0.063,0.146,0.063,0.219L289.366,369.032 M303.209,369.377
		c-0.09,0.071-0.204,0.094-0.313,0.094c-0.126,0-0.222-0.029-0.313-0.156l-4.906-6.219l-2.781,2.781v3.155
		c0,0.235-0.215,0.438-0.469,0.438c-0.235,0-0.406-0.201-0.406-0.438v-11.75c0-0.253,0.171-0.438,0.406-0.438
		c0.253,0,0.469,0.185,0.469,0.438v7.345l7.656-7.656c0.181-0.163,0.481-0.163,0.625,0c0.181,0.163,0.181,0.442,0,0.625
		l-4.875,4.875l4.969,6.281C303.417,368.95,303.391,369.195,303.209,369.377 M316.3,357.502l-4.906,11.563
		c-0.018,0.163-0.106,0.321-0.25,0.375h-0.031c-0.054,0.019-0.103,0.031-0.156,0.031s-0.119,0.019-0.156,0
		c-0.018,0-0.031-0.031-0.031-0.031c-0.109-0.034-0.183-0.11-0.219-0.219c-0.018,0,0-0.016,0-0.031l-0.031-0.031l-4.906-11.655
		c-0.091-0.218,0.033-0.503,0.25-0.595c0.054-0.026,0.099-0.028,0.156-0.03c0.172-0.006,0.338,0.087,0.406,0.25l4.531,10.78
		l4.531-10.78c0.072-0.219,0.346-0.327,0.563-0.22C316.266,356.998,316.39,357.284,316.3,357.502 M247.62,254.762
		c0-4.937,1.344-6.288,6.191-6.288c13.392-0.003,66.962-0.005,80.36,0c4.661,0.002,5.988,1.279,5.99,5.829
		c0.001,26.98,0.001,53.962,0,80.941c0,4.603-1.283,5.849-5.973,5.852c-26.785,0.004-53.57,0.004-80.36,0
		c-4.91-0.002-6.208-1.315-6.208-6.271c-0.004-26.688-0.004-53.37,0-80.06"/>
</g>
</svg>
