<?xml version="1.0" encoding="utf-8"?>
<!-- Generator: Adobe Illustrator 16.0.0, SVG Export Plug-In . SVG Version: 6.00 Build 0)  -->
<!DOCTYPE svg PUBLIC "-//W3C//DTD SVG 1.1//EN" "http://www.w3.org/Graphics/SVG/1.1/DTD/svg11.dtd">
<svg version="1.1" id="Layer_2" xmlns="http://www.w3.org/2000/svg" xmlns:xlink="http://www.w3.org/1999/xlink" x="0px" y="0px"
	 width="100%" height="100%" viewBox="0 0 1070 627" enable-background="new 0 0 1070 627" xml:space="preserve">
<rect x="493.837" y="585.706" fill="#FFFFFF" width="1.401" height="1.392"/>
<rect x="493.837" y="579.889" fill="#FFFFFF" width="1.401" height="1.392"/>
<path fill="#FFFFFF" d="M623.07,20.107l-3,8.725h-1.254l-3-8.725h1.242l2.414,7.242l2.414-7.242H623.07z"/>
<path fill="#FFFFFF" d="M626.352,28.984c-1.043,0-1.854-0.293-2.43-0.881s-0.863-1.424-0.863-2.506c0-1.066,0.279-1.914,0.838-2.545
	s1.289-0.947,2.191-0.947c0.406,0,0.766,0.059,1.078,0.176s0.586,0.301,0.82,0.551s0.414,0.557,0.539,0.918s0.188,0.803,0.188,1.326
	v0.598h-4.535c0,0.762,0.191,1.344,0.574,1.746s0.912,0.604,1.588,0.604c0.242,0,0.479-0.027,0.711-0.082s0.443-0.125,0.631-0.211
	c0.199-0.09,0.367-0.176,0.504-0.26s0.25-0.164,0.34-0.238h0.064v1.201c-0.129,0.051-0.289,0.115-0.48,0.191
	s-0.363,0.135-0.516,0.178c-0.215,0.059-0.41,0.104-0.584,0.135S626.617,28.984,626.352,28.984z M627.641,24.83
	c-0.008-0.297-0.043-0.553-0.105-0.768s-0.152-0.396-0.27-0.545c-0.129-0.164-0.295-0.289-0.496-0.375s-0.449-0.129-0.746-0.129
	c-0.293,0-0.543,0.045-0.748,0.133s-0.391,0.215-0.559,0.383c-0.164,0.172-0.289,0.363-0.375,0.572s-0.141,0.451-0.164,0.729
	H627.641z"/>
<path fill="#FFFFFF" d="M635.21,28.832h-1.102v-3.727c0-0.301-0.015-0.58-0.044-0.84s-0.085-0.469-0.167-0.625
	c-0.09-0.164-0.215-0.285-0.375-0.365s-0.379-0.121-0.656-0.121c-0.273,0-0.556,0.074-0.847,0.221s-0.575,0.336-0.853,0.57v4.887
	h-1.102v-6.545h1.102v0.727c0.328-0.293,0.652-0.518,0.973-0.674s0.658-0.234,1.014-0.234c0.645,0,1.148,0.213,1.512,0.637
	s0.545,1.037,0.545,1.842V28.832z"/>
<path fill="#FFFFFF" d="M642.095,28.832h-1.102v-0.727c-0.34,0.297-0.662,0.523-0.967,0.678s-0.645,0.23-1.02,0.23
	c-0.285,0-0.554-0.047-0.806-0.141s-0.472-0.242-0.659-0.445s-0.333-0.459-0.437-0.768s-0.155-0.684-0.155-1.125v-4.248h1.102v3.727
	c0,0.348,0.013,0.637,0.038,0.865s0.083,0.428,0.173,0.6c0.09,0.168,0.212,0.291,0.366,0.369s0.376,0.117,0.665,0.117
	c0.27,0,0.557-0.076,0.861-0.229s0.584-0.34,0.838-0.563v-4.887h1.102V28.832z"/>
<path fill="#FFFFFF" d="M649.014,28.832h-1.354l-1.588-2.473l-1.635,2.473h-1.248l2.273-3.246l-2.25-3.299h1.354l1.576,2.449
	l1.617-2.449h1.254l-2.262,3.223L649.014,28.832z"/>
<path fill="#FFFFFF" d="M661.664,28.832h-1.16v-7.518l-2.273,5.115h-0.703l-2.256-5.115v7.518h-1.084v-8.725h1.582l2.18,4.857
	l2.104-4.857h1.611V28.832z"/>
<path fill="#FFFFFF" d="M668.684,28.832h-1.102v-0.727c-0.34,0.297-0.662,0.523-0.967,0.678s-0.645,0.23-1.02,0.23
	c-0.285,0-0.554-0.047-0.806-0.141s-0.472-0.242-0.659-0.445s-0.333-0.459-0.437-0.768s-0.155-0.684-0.155-1.125v-4.248h1.102v3.727
	c0,0.348,0.013,0.637,0.038,0.865s0.083,0.428,0.173,0.6c0.09,0.168,0.212,0.291,0.366,0.369s0.376,0.117,0.665,0.117
	c0.27,0,0.557-0.076,0.861-0.229s0.584-0.34,0.838-0.563v-4.887h1.102V28.832z"/>
<path fill="#FFFFFF" d="M671.643,28.832h-1.102v-9.117h1.102V28.832z"/>
<path fill="#FFFFFF" d="M675.504,28.961c-0.602,0-1.07-0.17-1.406-0.512s-0.504-0.883-0.504-1.621v-3.627h-0.744v-0.914h0.744
	v-1.881h1.102v1.881h2.026v0.914h-2.026v3.111c0,0.332,0.006,0.588,0.018,0.768s0.057,0.348,0.135,0.504
	c0.066,0.137,0.174,0.24,0.322,0.309s0.35,0.102,0.604,0.102c0.18,0,0.354-0.025,0.521-0.078c0.167-0.053,0.288-0.098,0.362-0.133
	h0.064v0.99c-0.207,0.059-0.417,0.105-0.63,0.139S675.684,28.961,675.504,28.961z"/>
<path fill="#FFFFFF" d="M678.978,21.191h-1.254v-1.143h1.254V21.191z M678.901,28.832H677.8v-6.545h1.102V28.832z"/>
<path fill="#FFFFFF" d="M688.188,28.832v-3.785c0-0.301-0.012-0.578-0.035-0.834s-0.072-0.457-0.146-0.602
	c-0.078-0.156-0.189-0.271-0.334-0.346s-0.34-0.111-0.586-0.111c-0.227,0-0.47,0.07-0.729,0.209s-0.528,0.338-0.806,0.6
	c0.004,0.066,0.009,0.146,0.015,0.238s0.009,0.199,0.009,0.324v4.307h-1.102v-3.785c0-0.301-0.012-0.578-0.035-0.834
	s-0.072-0.457-0.146-0.602c-0.078-0.156-0.189-0.271-0.334-0.346s-0.34-0.111-0.586-0.111c-0.238,0-0.488,0.074-0.75,0.223
	s-0.516,0.338-0.762,0.568v4.887h-1.102v-6.545h1.102v0.727c0.289-0.289,0.575-0.512,0.858-0.67s0.595-0.238,0.935-0.238
	c0.387,0,0.729,0.088,1.028,0.264s0.526,0.465,0.683,0.867c0.332-0.371,0.656-0.652,0.973-0.844s0.66-0.287,1.031-0.287
	c0.281,0,0.537,0.045,0.768,0.133s0.432,0.229,0.604,0.424c0.176,0.199,0.312,0.447,0.407,0.744s0.144,0.67,0.144,1.119v4.307
	H688.188z"/>
<path fill="#FFFFFF" d="M693.919,28.984c-1.043,0-1.854-0.293-2.43-0.881s-0.863-1.424-0.863-2.506c0-1.066,0.279-1.914,0.838-2.545
	s1.289-0.947,2.191-0.947c0.406,0,0.766,0.059,1.078,0.176s0.586,0.301,0.82,0.551s0.414,0.557,0.539,0.918s0.188,0.803,0.188,1.326
	v0.598h-4.535c0,0.762,0.191,1.344,0.574,1.746s0.912,0.604,1.588,0.604c0.242,0,0.479-0.027,0.711-0.082s0.443-0.125,0.631-0.211
	c0.199-0.09,0.367-0.176,0.504-0.26s0.25-0.164,0.34-0.238h0.064v1.201c-0.129,0.051-0.289,0.115-0.48,0.191
	s-0.363,0.135-0.516,0.178c-0.215,0.059-0.41,0.104-0.584,0.135S694.185,28.984,693.919,28.984z M695.208,24.83
	c-0.008-0.297-0.043-0.553-0.105-0.768s-0.152-0.396-0.27-0.545c-0.129-0.164-0.295-0.289-0.496-0.375s-0.449-0.129-0.746-0.129
	c-0.293,0-0.543,0.045-0.748,0.133s-0.391,0.215-0.559,0.383c-0.164,0.172-0.289,0.363-0.375,0.572s-0.141,0.451-0.164,0.729
	H695.208z"/>
<path fill="#FFFFFF" d="M702.673,28.832h-1.102v-0.668c-0.172,0.145-0.32,0.264-0.445,0.357s-0.271,0.18-0.439,0.258
	c-0.156,0.074-0.318,0.133-0.486,0.174s-0.363,0.061-0.586,0.061c-0.355,0-0.686-0.074-0.988-0.223s-0.559-0.365-0.77-0.65
	c-0.215-0.289-0.381-0.645-0.498-1.068s-0.176-0.912-0.176-1.463c0-0.574,0.074-1.07,0.223-1.49s0.354-0.787,0.615-1.1
	c0.238-0.285,0.525-0.508,0.863-0.67s0.693-0.244,1.064-0.244c0.328,0,0.613,0.037,0.855,0.109s0.498,0.184,0.768,0.336v-2.836
	h1.102V28.832z M701.571,27.238v-3.773c-0.273-0.133-0.52-0.225-0.736-0.275s-0.451-0.076-0.705-0.076
	c-0.566,0-1.01,0.213-1.33,0.637s-0.48,1.035-0.48,1.836c0,0.77,0.123,1.359,0.369,1.768s0.641,0.611,1.184,0.611
	c0.289,0,0.58-0.064,0.873-0.195S701.313,27.461,701.571,27.238z"/>
<path fill="#FFFFFF" d="M705.707,21.191h-1.254v-1.143h1.254V21.191z M705.631,28.832h-1.102v-6.545h1.102V28.832z"/>
<path fill="#FFFFFF" d="M711.145,28.135c-0.09,0.066-0.21,0.16-0.36,0.279s-0.296,0.213-0.437,0.283
	c-0.195,0.102-0.384,0.18-0.565,0.234s-0.437,0.082-0.765,0.082c-0.27,0-0.525-0.051-0.768-0.152s-0.455-0.244-0.639-0.428
	c-0.176-0.18-0.316-0.4-0.422-0.664s-0.158-0.543-0.158-0.836c0-0.453,0.096-0.838,0.287-1.156s0.494-0.572,0.908-0.76
	c0.367-0.168,0.801-0.283,1.301-0.348s1.039-0.113,1.617-0.145v-0.211c0-0.258-0.039-0.465-0.117-0.623s-0.188-0.281-0.328-0.367
	c-0.141-0.09-0.313-0.148-0.516-0.178s-0.412-0.045-0.627-0.045c-0.254,0-0.553,0.039-0.896,0.115s-0.688,0.186-1.031,0.33h-0.064
	v-1.119c0.203-0.059,0.494-0.123,0.873-0.193s0.754-0.105,1.125-0.105c0.449,0,0.828,0.035,1.137,0.105s0.586,0.197,0.832,0.381
	c0.238,0.18,0.416,0.412,0.533,0.697s0.176,0.633,0.176,1.043v4.477h-1.096V28.135z M711.145,27.221v-1.816
	c-0.262,0.023-0.593,0.057-0.993,0.098s-0.724,0.098-0.97,0.172c-0.293,0.09-0.535,0.229-0.727,0.414s-0.287,0.443-0.287,0.775
	c0,0.375,0.105,0.658,0.316,0.85S709.004,28,709.41,28c0.348,0,0.662-0.074,0.943-0.225S710.898,27.439,711.145,27.221z"/>
<path fill="#FFFFFF" d="M718.104,28.832v-8.725h5.455v1.031h-4.295v2.391h4.002v1.031h-4.002v3.24h4.295v1.031H718.104z"/>
<path fill="#FFFFFF" d="M730.134,28.832h-1.102v-3.727c0-0.301-0.015-0.58-0.044-0.84s-0.085-0.469-0.167-0.625
	c-0.09-0.164-0.215-0.285-0.375-0.365s-0.379-0.121-0.656-0.121c-0.273,0-0.556,0.074-0.847,0.221s-0.575,0.336-0.853,0.57v4.887
	h-1.102v-6.545h1.102v0.727c0.328-0.293,0.652-0.518,0.973-0.674s0.658-0.234,1.014-0.234c0.645,0,1.148,0.213,1.512,0.637
	s0.545,1.037,0.545,1.842V28.832z"/>
<path fill="#FFFFFF" d="M732.155,29.881c0.074,0.031,0.184,0.074,0.328,0.127s0.309,0.102,0.492,0.148
	c0.203,0.051,0.391,0.092,0.563,0.123s0.359,0.047,0.563,0.047c0.34,0,0.628-0.045,0.864-0.135s0.421-0.215,0.554-0.375
	c0.125-0.16,0.213-0.346,0.264-0.557s0.076-0.451,0.076-0.721v-0.574c-0.297,0.258-0.588,0.449-0.873,0.572
	s-0.643,0.184-1.072,0.184c-0.746,0-1.34-0.277-1.781-0.832s-0.662-1.352-0.662-2.391c0-0.543,0.076-1.023,0.229-1.443
	s0.357-0.777,0.615-1.07c0.246-0.281,0.537-0.498,0.873-0.65s0.684-0.229,1.043-0.229c0.34,0,0.634,0.041,0.882,0.121
	s0.497,0.193,0.747,0.342l0.064-0.281h1.037v5.801c0,1.109-0.242,1.924-0.727,2.443s-1.225,0.779-2.221,0.779
	c-0.32,0-0.647-0.025-0.981-0.076s-0.646-0.119-0.935-0.205v-1.148H732.155z M735.858,27.057v-3.592
	c-0.273-0.133-0.526-0.227-0.759-0.283s-0.464-0.086-0.694-0.086c-0.559,0-0.998,0.205-1.318,0.615s-0.48,0.998-0.48,1.764
	c0,0.727,0.122,1.279,0.366,1.658s0.64,0.568,1.187,0.568c0.285,0,0.579-0.057,0.882-0.17S735.616,27.26,735.858,27.057z"/>
<path fill="#FFFFFF" d="M739.995,21.191h-1.254v-1.143h1.254V21.191z M739.919,28.832h-1.102v-6.545h1.102V28.832z"/>
<path fill="#FFFFFF" d="M746.921,28.832h-1.102v-3.727c0-0.301-0.016-0.58-0.045-0.84s-0.084-0.469-0.166-0.625
	c-0.09-0.164-0.215-0.285-0.375-0.365s-0.379-0.121-0.656-0.121c-0.273,0-0.557,0.074-0.848,0.221s-0.574,0.336-0.852,0.57v4.887
	h-1.102v-6.545h1.102v0.727c0.328-0.293,0.652-0.518,0.973-0.674s0.658-0.234,1.014-0.234c0.645,0,1.148,0.213,1.512,0.637
	s0.545,1.037,0.545,1.842V28.832z"/>
<path fill="#FFFFFF" d="M751.549,28.984c-1.043,0-1.853-0.293-2.429-0.881s-0.864-1.424-0.864-2.506
	c0-1.066,0.279-1.914,0.838-2.545s1.289-0.947,2.191-0.947c0.406,0,0.766,0.059,1.078,0.176s0.586,0.301,0.82,0.551
	s0.414,0.557,0.539,0.918s0.188,0.803,0.188,1.326v0.598h-4.535c0,0.762,0.191,1.344,0.574,1.746s0.912,0.604,1.588,0.604
	c0.242,0,0.479-0.027,0.712-0.082s0.442-0.125,0.63-0.211c0.199-0.09,0.367-0.176,0.504-0.26s0.25-0.164,0.34-0.238h0.064v1.201
	c-0.129,0.051-0.289,0.115-0.48,0.191s-0.363,0.135-0.516,0.178c-0.215,0.059-0.409,0.104-0.583,0.135
	S751.814,28.984,751.549,28.984z M752.838,24.83c-0.008-0.297-0.043-0.553-0.105-0.768s-0.152-0.396-0.27-0.545
	c-0.129-0.164-0.294-0.289-0.495-0.375s-0.45-0.129-0.747-0.129c-0.293,0-0.542,0.045-0.747,0.133s-0.392,0.215-0.56,0.383
	c-0.164,0.172-0.289,0.363-0.375,0.572s-0.141,0.451-0.164,0.729H752.838z"/>
<path fill="#FFFFFF" d="M572.617,43.414c-0.512,0-0.959-0.067-1.342-0.202s-0.709-0.335-0.979-0.601
	c-0.305-0.305-0.52-0.669-0.645-1.093s-0.188-0.946-0.188-1.567v-5.443h1.16v5.443c0,0.402,0.025,0.741,0.076,1.017
	s0.15,0.522,0.299,0.741c0.156,0.234,0.367,0.412,0.635,0.533s0.596,0.182,0.982,0.182c0.363,0,0.686-0.061,0.967-0.182
	s0.5-0.299,0.656-0.533c0.145-0.223,0.242-0.469,0.295-0.738s0.08-0.6,0.08-0.99v-5.473h1.16v5.443c0,0.605-0.063,1.125-0.186,1.559
	s-0.338,0.801-0.646,1.102c-0.277,0.27-0.602,0.471-0.971,0.604S573.152,43.414,572.617,43.414z"/>
<path fill="#FFFFFF" d="M582.736,43.232h-1.102v-3.727c0-0.301-0.016-0.581-0.045-0.841s-0.084-0.468-0.166-0.624
	c-0.09-0.164-0.215-0.286-0.375-0.366s-0.379-0.12-0.656-0.12c-0.273,0-0.557,0.073-0.848,0.22s-0.574,0.337-0.852,0.571v4.887
	h-1.102v-6.545h1.102v0.727c0.328-0.293,0.652-0.518,0.973-0.674s0.658-0.234,1.014-0.234c0.645,0,1.148,0.212,1.512,0.636
	s0.545,1.038,0.545,1.843V43.232z"/>
<path fill="#FFFFFF" d="M585.724,35.592h-1.254v-1.143h1.254V35.592z M585.647,43.232h-1.102v-6.545h1.102V43.232z"/>
<path fill="#FFFFFF" d="M592.649,36.688l-2.467,6.545h-0.99l-2.449-6.545h1.189l1.793,5.051l1.775-5.051H592.649z"/>
<path fill="#FFFFFF" d="M596.469,43.385c-1.043,0-1.852-0.294-2.428-0.882s-0.865-1.423-0.865-2.505
	c0-1.066,0.279-1.915,0.838-2.546s1.289-0.946,2.191-0.946c0.406,0,0.766,0.059,1.078,0.176s0.586,0.301,0.82,0.551
	s0.414,0.556,0.539,0.917s0.188,0.804,0.188,1.327v0.598h-4.535c0,0.762,0.191,1.344,0.574,1.746s0.912,0.604,1.588,0.604
	c0.242,0,0.48-0.027,0.713-0.082s0.441-0.125,0.629-0.211c0.199-0.09,0.367-0.177,0.504-0.261s0.25-0.163,0.34-0.237h0.064v1.201
	c-0.129,0.051-0.289,0.114-0.48,0.19s-0.363,0.136-0.516,0.179c-0.215,0.059-0.408,0.104-0.582,0.135S596.734,43.385,596.469,43.385
	z M597.758,39.23c-0.008-0.297-0.043-0.553-0.105-0.768s-0.152-0.396-0.27-0.545c-0.129-0.164-0.293-0.289-0.494-0.375
	s-0.451-0.129-0.748-0.129c-0.293,0-0.541,0.044-0.746,0.132s-0.393,0.216-0.561,0.384c-0.164,0.172-0.289,0.362-0.375,0.571
	s-0.141,0.452-0.164,0.729H597.758z"/>
<path fill="#FFFFFF" d="M603.652,37.871h-0.059c-0.082-0.023-0.168-0.038-0.26-0.044s-0.203-0.009-0.332-0.009
	c-0.297,0-0.592,0.064-0.885,0.193s-0.57,0.32-0.832,0.574v4.646h-1.102v-6.545h1.102v0.973c0.402-0.355,0.754-0.606,1.053-0.753
	s0.588-0.22,0.869-0.22c0.113,0,0.199,0.003,0.256,0.009s0.119,0.015,0.189,0.026V37.871z"/>
<path fill="#FFFFFF" d="M606.518,43.391c-0.438,0-0.847-0.059-1.228-0.176s-0.696-0.242-0.946-0.375v-1.236h0.059
	c0.094,0.074,0.204,0.156,0.331,0.246s0.296,0.184,0.507,0.281c0.188,0.086,0.394,0.162,0.618,0.229s0.458,0.1,0.7,0.1
	c0.176,0,0.363-0.021,0.563-0.062s0.348-0.093,0.445-0.155c0.137-0.09,0.235-0.186,0.296-0.287s0.091-0.254,0.091-0.457
	c0-0.262-0.071-0.459-0.214-0.592s-0.396-0.244-0.759-0.334c-0.141-0.035-0.324-0.076-0.551-0.123s-0.436-0.098-0.627-0.152
	c-0.5-0.145-0.863-0.368-1.09-0.671s-0.34-0.669-0.34-1.099c0-0.59,0.223-1.07,0.668-1.441s1.037-0.557,1.775-0.557
	c0.363,0,0.729,0.045,1.096,0.135s0.676,0.203,0.926,0.34v1.178h-0.059c-0.281-0.223-0.595-0.398-0.94-0.527
	s-0.694-0.193-1.046-0.193c-0.363,0-0.67,0.076-0.92,0.229s-0.375,0.383-0.375,0.691c0,0.273,0.074,0.478,0.223,0.612
	s0.387,0.245,0.715,0.331c0.164,0.043,0.347,0.085,0.548,0.126s0.413,0.089,0.636,0.144c0.484,0.121,0.849,0.322,1.093,0.604
	s0.366,0.664,0.366,1.148c0,0.281-0.056,0.548-0.167,0.8s-0.274,0.468-0.489,0.647c-0.234,0.195-0.499,0.344-0.794,0.445
	S606.963,43.391,606.518,43.391z"/>
<path fill="#FFFFFF" d="M614,42.535c-0.09,0.066-0.21,0.159-0.36,0.278s-0.296,0.214-0.437,0.284
	c-0.195,0.102-0.384,0.18-0.565,0.234s-0.437,0.082-0.765,0.082c-0.27,0-0.525-0.051-0.768-0.152s-0.455-0.244-0.639-0.428
	c-0.176-0.18-0.316-0.401-0.422-0.665s-0.158-0.542-0.158-0.835c0-0.453,0.096-0.839,0.287-1.157s0.494-0.571,0.908-0.759
	c0.367-0.168,0.801-0.284,1.301-0.349s1.039-0.112,1.617-0.144v-0.211c0-0.258-0.039-0.466-0.117-0.624s-0.188-0.28-0.328-0.366
	c-0.141-0.09-0.313-0.149-0.516-0.179s-0.412-0.044-0.627-0.044c-0.254,0-0.553,0.038-0.896,0.114s-0.688,0.187-1.031,0.331h-0.064
	v-1.119c0.203-0.059,0.494-0.123,0.873-0.193s0.754-0.105,1.125-0.105c0.449,0,0.828,0.035,1.137,0.105s0.586,0.197,0.832,0.381
	c0.238,0.18,0.416,0.412,0.533,0.697s0.176,0.633,0.176,1.043v4.477H614V42.535z M614,41.621v-1.816
	c-0.262,0.023-0.593,0.056-0.993,0.097s-0.724,0.099-0.97,0.173c-0.293,0.09-0.535,0.228-0.727,0.413s-0.287,0.444-0.287,0.776
	c0,0.375,0.105,0.658,0.316,0.85s0.52,0.287,0.926,0.287c0.348,0,0.662-0.075,0.943-0.226S613.754,41.84,614,41.621z"/>
<path fill="#FFFFFF" d="M618.008,43.232h-1.102v-9.117h1.102V43.232z"/>
<path fill="#FFFFFF" d="M631.419,43.232h-1.16v-7.518l-2.273,5.115h-0.703l-2.256-5.115v7.518h-1.084v-8.725h1.582l2.18,4.857
	l2.104-4.857h1.611V43.232z"/>
<path fill="#FFFFFF" d="M638.438,43.232h-1.102v-0.727c-0.34,0.297-0.662,0.522-0.967,0.677s-0.645,0.231-1.02,0.231
	c-0.285,0-0.554-0.047-0.806-0.141s-0.472-0.242-0.659-0.445s-0.333-0.459-0.437-0.768s-0.155-0.684-0.155-1.125v-4.248h1.102v3.727
	c0,0.348,0.013,0.636,0.038,0.864s0.083,0.429,0.173,0.601c0.09,0.168,0.212,0.291,0.366,0.369s0.376,0.117,0.665,0.117
	c0.27,0,0.557-0.076,0.861-0.229s0.584-0.34,0.838-0.563v-4.887h1.102V43.232z"/>
<path fill="#FFFFFF" d="M641.396,43.232h-1.102v-9.117h1.102V43.232z"/>
<path fill="#FFFFFF" d="M645.258,43.361c-0.602,0-1.07-0.171-1.406-0.513s-0.504-0.882-0.504-1.62v-3.627h-0.744v-0.914h0.744
	v-1.881h1.102v1.881h2.027v0.914h-2.027v3.111c0,0.332,0.006,0.588,0.018,0.768s0.057,0.348,0.135,0.504
	c0.066,0.137,0.174,0.239,0.322,0.308s0.35,0.103,0.604,0.103c0.18,0,0.354-0.026,0.521-0.079s0.289-0.097,0.363-0.132h0.064v0.99
	c-0.207,0.059-0.416,0.104-0.629,0.138S645.438,43.361,645.258,43.361z"/>
<path fill="#FFFFFF" d="M648.732,35.592h-1.254v-1.143h1.254V35.592z M648.656,43.232h-1.102v-6.545h1.102V43.232z"/>
<path fill="#FFFFFF" d="M657.943,43.232v-3.785c0-0.301-0.012-0.579-0.035-0.835s-0.072-0.456-0.146-0.601
	c-0.078-0.156-0.189-0.271-0.334-0.346s-0.34-0.111-0.586-0.111c-0.227,0-0.47,0.069-0.729,0.208s-0.528,0.339-0.806,0.601
	c0.004,0.066,0.009,0.146,0.015,0.237s0.009,0.2,0.009,0.325v4.307h-1.102v-3.785c0-0.301-0.012-0.579-0.035-0.835
	s-0.072-0.456-0.146-0.601c-0.078-0.156-0.189-0.271-0.334-0.346s-0.34-0.111-0.586-0.111c-0.238,0-0.488,0.074-0.75,0.223
	s-0.516,0.338-0.762,0.568v4.887h-1.102v-6.545h1.102v0.727c0.289-0.289,0.575-0.513,0.858-0.671s0.595-0.237,0.935-0.237
	c0.387,0,0.729,0.088,1.028,0.264s0.526,0.465,0.683,0.867c0.332-0.371,0.656-0.652,0.973-0.844s0.66-0.287,1.031-0.287
	c0.281,0,0.537,0.044,0.768,0.132s0.432,0.229,0.604,0.425c0.176,0.199,0.312,0.447,0.407,0.744s0.144,0.67,0.144,1.119v4.307
	H657.943z"/>
<path fill="#FFFFFF" d="M663.674,43.385c-1.043,0-1.854-0.294-2.43-0.882s-0.863-1.423-0.863-2.505c0-1.066,0.279-1.915,0.838-2.546
	s1.289-0.946,2.191-0.946c0.406,0,0.766,0.059,1.078,0.176s0.586,0.301,0.82,0.551s0.414,0.556,0.539,0.917s0.188,0.804,0.188,1.327
	v0.598H661.5c0,0.762,0.191,1.344,0.574,1.746s0.912,0.604,1.588,0.604c0.242,0,0.479-0.027,0.711-0.082s0.443-0.125,0.631-0.211
	c0.199-0.09,0.367-0.177,0.504-0.261s0.25-0.163,0.34-0.237h0.064v1.201c-0.129,0.051-0.289,0.114-0.48,0.19
	s-0.363,0.136-0.516,0.179c-0.215,0.059-0.41,0.104-0.584,0.135S663.939,43.385,663.674,43.385z M664.963,39.23
	c-0.008-0.297-0.043-0.553-0.105-0.768s-0.152-0.396-0.27-0.545c-0.129-0.164-0.295-0.289-0.496-0.375s-0.449-0.129-0.746-0.129
	c-0.293,0-0.543,0.044-0.748,0.132s-0.391,0.216-0.559,0.384c-0.164,0.172-0.289,0.362-0.375,0.571s-0.141,0.452-0.164,0.729
	H664.963z"/>
<path fill="#FFFFFF" d="M672.428,43.232h-1.102v-0.668c-0.172,0.145-0.32,0.264-0.445,0.357s-0.271,0.18-0.439,0.258
	c-0.156,0.074-0.318,0.132-0.486,0.173s-0.363,0.062-0.586,0.062c-0.355,0-0.686-0.074-0.988-0.223s-0.559-0.365-0.77-0.65
	c-0.215-0.289-0.381-0.646-0.498-1.069s-0.176-0.911-0.176-1.462c0-0.574,0.074-1.071,0.223-1.491s0.354-0.786,0.615-1.099
	c0.238-0.285,0.525-0.509,0.863-0.671s0.693-0.243,1.064-0.243c0.328,0,0.613,0.036,0.855,0.108s0.498,0.185,0.768,0.337v-2.836
	h1.102V43.232z M671.326,41.639v-3.773c-0.273-0.133-0.52-0.225-0.736-0.275s-0.451-0.076-0.705-0.076
	c-0.566,0-1.01,0.212-1.33,0.636s-0.48,1.036-0.48,1.837c0,0.77,0.123,1.358,0.369,1.767s0.641,0.612,1.184,0.612
	c0.289,0,0.58-0.065,0.873-0.196S671.068,41.861,671.326,41.639z"/>
<path fill="#FFFFFF" d="M675.462,35.592h-1.254v-1.143h1.254V35.592z M675.386,43.232h-1.102v-6.545h1.102V43.232z"/>
<path fill="#FFFFFF" d="M680.899,42.535c-0.09,0.066-0.21,0.159-0.36,0.278s-0.296,0.214-0.437,0.284
	c-0.195,0.102-0.384,0.18-0.565,0.234s-0.437,0.082-0.765,0.082c-0.27,0-0.525-0.051-0.768-0.152s-0.455-0.244-0.639-0.428
	c-0.176-0.18-0.316-0.401-0.422-0.665s-0.158-0.542-0.158-0.835c0-0.453,0.096-0.839,0.287-1.157s0.494-0.571,0.908-0.759
	c0.367-0.168,0.801-0.284,1.301-0.349s1.039-0.112,1.617-0.144v-0.211c0-0.258-0.039-0.466-0.117-0.624s-0.188-0.28-0.328-0.366
	c-0.141-0.09-0.313-0.149-0.516-0.179s-0.412-0.044-0.627-0.044c-0.254,0-0.553,0.038-0.896,0.114s-0.688,0.187-1.031,0.331h-0.064
	v-1.119c0.203-0.059,0.494-0.123,0.873-0.193s0.754-0.105,1.125-0.105c0.449,0,0.828,0.035,1.137,0.105s0.586,0.197,0.832,0.381
	c0.238,0.18,0.416,0.412,0.533,0.697s0.176,0.633,0.176,1.043v4.477h-1.096V42.535z M680.899,41.621v-1.816
	c-0.262,0.023-0.593,0.056-0.993,0.097s-0.724,0.099-0.97,0.173c-0.293,0.09-0.535,0.228-0.727,0.413s-0.287,0.444-0.287,0.776
	c0,0.375,0.105,0.658,0.316,0.85s0.52,0.287,0.926,0.287c0.348,0,0.662-0.075,0.943-0.226S680.653,41.84,680.899,41.621z"/>
<path fill="#FFFFFF" d="M695.337,43.232h-1.16v-7.518l-2.273,5.115H691.2l-2.256-5.115v7.518h-1.084v-8.725h1.582l2.18,4.857
	l2.104-4.857h1.611V43.232z"/>
<path fill="#FFFFFF" d="M700.914,42.535c-0.09,0.066-0.21,0.159-0.36,0.278s-0.296,0.214-0.437,0.284
	c-0.195,0.102-0.384,0.18-0.565,0.234s-0.437,0.082-0.765,0.082c-0.27,0-0.525-0.051-0.768-0.152s-0.455-0.244-0.639-0.428
	c-0.176-0.18-0.316-0.401-0.422-0.665s-0.158-0.542-0.158-0.835c0-0.453,0.096-0.839,0.287-1.157s0.494-0.571,0.908-0.759
	c0.367-0.168,0.801-0.284,1.301-0.349s1.039-0.112,1.617-0.144v-0.211c0-0.258-0.039-0.466-0.117-0.624s-0.188-0.28-0.328-0.366
	c-0.141-0.09-0.313-0.149-0.516-0.179s-0.412-0.044-0.627-0.044c-0.254,0-0.553,0.038-0.896,0.114s-0.688,0.187-1.031,0.331h-0.064
	v-1.119c0.203-0.059,0.494-0.123,0.873-0.193s0.754-0.105,1.125-0.105c0.449,0,0.828,0.035,1.137,0.105s0.586,0.197,0.832,0.381
	c0.238,0.18,0.416,0.412,0.533,0.697s0.176,0.633,0.176,1.043v4.477h-1.096V42.535z M700.914,41.621v-1.816
	c-0.262,0.023-0.593,0.056-0.993,0.097s-0.724,0.099-0.97,0.173c-0.293,0.09-0.535,0.228-0.727,0.413s-0.287,0.444-0.287,0.776
	c0,0.375,0.105,0.658,0.316,0.85s0.52,0.287,0.926,0.287c0.348,0,0.662-0.075,0.943-0.226S700.668,41.84,700.914,41.621z"/>
<path fill="#FFFFFF" d="M708.941,43.232h-1.102v-3.727c0-0.301-0.015-0.581-0.044-0.841s-0.085-0.468-0.167-0.624
	c-0.09-0.164-0.215-0.286-0.375-0.366s-0.379-0.12-0.656-0.12c-0.273,0-0.556,0.073-0.847,0.22s-0.575,0.337-0.853,0.571v4.887
	h-1.102v-6.545h1.102v0.727c0.328-0.293,0.652-0.518,0.973-0.674s0.658-0.234,1.014-0.234c0.645,0,1.148,0.212,1.512,0.636
	s0.545,1.038,0.545,1.843V43.232z"/>
<path fill="#FFFFFF" d="M714.384,42.535c-0.09,0.066-0.209,0.159-0.359,0.278s-0.297,0.214-0.438,0.284
	c-0.195,0.102-0.383,0.18-0.564,0.234s-0.438,0.082-0.766,0.082c-0.27,0-0.525-0.051-0.768-0.152s-0.455-0.244-0.639-0.428
	c-0.176-0.18-0.316-0.401-0.422-0.665s-0.158-0.542-0.158-0.835c0-0.453,0.096-0.839,0.287-1.157s0.494-0.571,0.908-0.759
	c0.367-0.168,0.801-0.284,1.301-0.349s1.039-0.112,1.617-0.144v-0.211c0-0.258-0.039-0.466-0.117-0.624s-0.188-0.28-0.328-0.366
	c-0.141-0.09-0.313-0.149-0.516-0.179s-0.412-0.044-0.627-0.044c-0.254,0-0.553,0.038-0.896,0.114s-0.688,0.187-1.031,0.331h-0.064
	v-1.119c0.203-0.059,0.494-0.123,0.873-0.193s0.754-0.105,1.125-0.105c0.449,0,0.828,0.035,1.137,0.105s0.586,0.197,0.832,0.381
	c0.238,0.18,0.416,0.412,0.533,0.697s0.176,0.633,0.176,1.043v4.477h-1.096V42.535z M714.384,41.621v-1.816
	c-0.262,0.023-0.592,0.056-0.992,0.097s-0.725,0.099-0.971,0.173c-0.293,0.09-0.535,0.228-0.727,0.413s-0.287,0.444-0.287,0.776
	c0,0.375,0.105,0.658,0.316,0.85s0.52,0.287,0.926,0.287c0.348,0,0.662-0.075,0.943-0.226S714.138,41.84,714.384,41.621z"/>
<path fill="#FFFFFF" d="M717.501,44.281c0.074,0.031,0.184,0.073,0.328,0.126s0.309,0.103,0.492,0.149
	c0.203,0.051,0.391,0.092,0.563,0.123s0.359,0.047,0.563,0.047c0.34,0,0.629-0.045,0.865-0.135s0.42-0.215,0.553-0.375
	c0.125-0.16,0.213-0.346,0.264-0.557s0.076-0.451,0.076-0.721v-0.574c-0.297,0.258-0.588,0.448-0.873,0.571
	s-0.643,0.185-1.072,0.185c-0.746,0-1.34-0.277-1.781-0.832s-0.662-1.352-0.662-2.391c0-0.543,0.076-1.024,0.229-1.444
	s0.357-0.776,0.615-1.069c0.246-0.281,0.537-0.498,0.873-0.65s0.684-0.229,1.043-0.229c0.34,0,0.635,0.04,0.883,0.12
	s0.496,0.194,0.746,0.343l0.064-0.281h1.037v5.801c0,1.109-0.242,1.924-0.727,2.443s-1.225,0.779-2.221,0.779
	c-0.32,0-0.646-0.025-0.98-0.076s-0.646-0.119-0.936-0.205v-1.148H717.501z M721.204,41.457v-3.592
	c-0.273-0.133-0.525-0.228-0.758-0.284s-0.465-0.085-0.695-0.085c-0.559,0-0.998,0.205-1.318,0.615s-0.48,0.998-0.48,1.764
	c0,0.727,0.123,1.279,0.367,1.658s0.639,0.568,1.186,0.568c0.285,0,0.58-0.057,0.883-0.17S720.962,41.66,721.204,41.457z"/>
<path fill="#FFFFFF" d="M726.981,43.385c-1.043,0-1.852-0.294-2.428-0.882s-0.865-1.423-0.865-2.505
	c0-1.066,0.279-1.915,0.838-2.546s1.289-0.946,2.191-0.946c0.406,0,0.766,0.059,1.078,0.176s0.586,0.301,0.82,0.551
	s0.414,0.556,0.539,0.917s0.188,0.804,0.188,1.327v0.598h-4.535c0,0.762,0.191,1.344,0.574,1.746s0.912,0.604,1.588,0.604
	c0.242,0,0.48-0.027,0.713-0.082s0.441-0.125,0.629-0.211c0.199-0.09,0.367-0.177,0.504-0.261s0.25-0.163,0.34-0.237h0.064v1.201
	c-0.129,0.051-0.289,0.114-0.48,0.19s-0.363,0.136-0.516,0.179c-0.215,0.059-0.408,0.104-0.582,0.135S727.247,43.385,726.981,43.385
	z M728.271,39.23c-0.008-0.297-0.043-0.553-0.105-0.768s-0.152-0.396-0.27-0.545c-0.129-0.164-0.293-0.289-0.494-0.375
	s-0.451-0.129-0.748-0.129c-0.293,0-0.541,0.044-0.746,0.132s-0.393,0.216-0.561,0.384c-0.164,0.172-0.289,0.362-0.375,0.571
	s-0.141,0.452-0.164,0.729H728.271z"/>
<path fill="#FFFFFF" d="M738.126,43.232v-3.785c0-0.301-0.012-0.579-0.035-0.835s-0.072-0.456-0.146-0.601
	c-0.078-0.156-0.189-0.271-0.334-0.346s-0.34-0.111-0.586-0.111c-0.227,0-0.47,0.069-0.729,0.208s-0.528,0.339-0.806,0.601
	c0.004,0.066,0.009,0.146,0.015,0.237s0.009,0.2,0.009,0.325v4.307h-1.102v-3.785c0-0.301-0.012-0.579-0.035-0.835
	s-0.072-0.456-0.146-0.601c-0.078-0.156-0.189-0.271-0.334-0.346s-0.34-0.111-0.586-0.111c-0.238,0-0.488,0.074-0.75,0.223
	s-0.516,0.338-0.762,0.568v4.887h-1.102v-6.545h1.102v0.727c0.289-0.289,0.575-0.513,0.858-0.671s0.595-0.237,0.935-0.237
	c0.387,0,0.729,0.088,1.028,0.264s0.526,0.465,0.683,0.867c0.332-0.371,0.656-0.652,0.973-0.844s0.66-0.287,1.031-0.287
	c0.281,0,0.537,0.044,0.768,0.132s0.432,0.229,0.604,0.425c0.176,0.199,0.312,0.447,0.407,0.744s0.144,0.67,0.144,1.119v4.307
	H738.126z"/>
<path fill="#FFFFFF" d="M743.856,43.385c-1.043,0-1.853-0.294-2.429-0.882s-0.864-1.423-0.864-2.505
	c0-1.066,0.279-1.915,0.838-2.546s1.289-0.946,2.191-0.946c0.406,0,0.766,0.059,1.078,0.176s0.586,0.301,0.82,0.551
	s0.414,0.556,0.539,0.917s0.188,0.804,0.188,1.327v0.598h-4.535c0,0.762,0.191,1.344,0.574,1.746s0.912,0.604,1.588,0.604
	c0.242,0,0.479-0.027,0.712-0.082s0.442-0.125,0.63-0.211c0.199-0.09,0.367-0.177,0.504-0.261s0.25-0.163,0.34-0.237h0.064v1.201
	c-0.129,0.051-0.289,0.114-0.48,0.19s-0.363,0.136-0.516,0.179c-0.215,0.059-0.409,0.104-0.583,0.135S744.122,43.385,743.856,43.385
	z M745.146,39.23c-0.008-0.297-0.043-0.553-0.105-0.768s-0.152-0.396-0.27-0.545c-0.129-0.164-0.294-0.289-0.495-0.375
	s-0.45-0.129-0.747-0.129c-0.293,0-0.542,0.044-0.747,0.132s-0.392,0.216-0.56,0.384c-0.164,0.172-0.289,0.362-0.375,0.571
	s-0.141,0.452-0.164,0.729H745.146z"/>
<path fill="#FFFFFF" d="M752.716,43.232h-1.102v-3.727c0-0.301-0.016-0.581-0.045-0.841s-0.084-0.468-0.166-0.624
	c-0.09-0.164-0.215-0.286-0.375-0.366s-0.379-0.12-0.656-0.12c-0.273,0-0.557,0.073-0.848,0.22s-0.574,0.337-0.852,0.571v4.887
	h-1.102v-6.545h1.102v0.727c0.328-0.293,0.652-0.518,0.973-0.674s0.658-0.234,1.014-0.234c0.645,0,1.148,0.212,1.512,0.636
	s0.545,1.038,0.545,1.843V43.232z"/>
<path fill="#FFFFFF" d="M756.483,43.361c-0.602,0-1.07-0.171-1.406-0.513s-0.504-0.882-0.504-1.62v-3.627h-0.744v-0.914h0.744
	v-1.881h1.102v1.881h2.027v0.914h-2.027v3.111c0,0.332,0.006,0.588,0.018,0.768s0.057,0.348,0.135,0.504
	c0.066,0.137,0.174,0.239,0.322,0.308s0.35,0.103,0.604,0.103c0.18,0,0.354-0.026,0.521-0.079s0.289-0.097,0.363-0.132h0.064v0.99
	c-0.207,0.059-0.418,0.104-0.631,0.138S756.663,43.361,756.483,43.361z"/>
<path fill="#FFFFFF" d="M765.266,43.391c-0.633,0-1.171-0.065-1.614-0.196s-0.86-0.292-1.251-0.483v-1.453h0.082
	c0.383,0.359,0.816,0.638,1.301,0.835s0.951,0.296,1.4,0.296c0.641,0,1.125-0.134,1.453-0.401s0.492-0.62,0.492-1.058
	c0-0.348-0.086-0.631-0.258-0.85s-0.445-0.381-0.82-0.486c-0.27-0.078-0.516-0.143-0.738-0.193s-0.502-0.119-0.838-0.205
	c-0.301-0.078-0.57-0.178-0.809-0.299s-0.449-0.279-0.633-0.475c-0.18-0.191-0.319-0.417-0.419-0.677s-0.149-0.56-0.149-0.899
	c0-0.707,0.275-1.3,0.826-1.778s1.254-0.718,2.109-0.718c0.488,0,0.95,0.049,1.386,0.146s0.839,0.236,1.21,0.416v1.389h-0.088
	c-0.277-0.254-0.633-0.476-1.066-0.665s-0.889-0.284-1.365-0.284c-0.539,0-0.975,0.126-1.307,0.378s-0.498,0.583-0.498,0.993
	c0,0.371,0.098,0.666,0.293,0.885s0.479,0.379,0.85,0.48c0.246,0.066,0.547,0.142,0.902,0.226s0.65,0.161,0.885,0.231
	c0.602,0.184,1.041,0.461,1.318,0.832s0.416,0.828,0.416,1.371c0,0.34-0.069,0.676-0.208,1.008s-0.333,0.613-0.583,0.844
	c-0.281,0.254-0.599,0.449-0.952,0.586S765.797,43.391,765.266,43.391z"/>
<path fill="#FFFFFF" d="M774.646,36.688l-3.521,8.959h-1.178l1.172-2.73l-2.379-6.229h1.189l1.787,4.846l1.781-4.846H774.646z"/>
<path fill="#FFFFFF" d="M777.487,43.391c-0.438,0-0.846-0.059-1.227-0.176s-0.697-0.242-0.947-0.375v-1.236h0.059
	c0.094,0.074,0.205,0.156,0.332,0.246s0.295,0.184,0.506,0.281c0.188,0.086,0.395,0.162,0.619,0.229s0.457,0.1,0.699,0.1
	c0.176,0,0.363-0.021,0.563-0.062s0.348-0.093,0.445-0.155c0.137-0.09,0.236-0.186,0.297-0.287s0.09-0.254,0.09-0.457
	c0-0.262-0.07-0.459-0.213-0.592s-0.396-0.244-0.76-0.334c-0.141-0.035-0.324-0.076-0.551-0.123s-0.436-0.098-0.627-0.152
	c-0.5-0.145-0.863-0.368-1.09-0.671s-0.34-0.669-0.34-1.099c0-0.59,0.223-1.07,0.668-1.441s1.037-0.557,1.775-0.557
	c0.363,0,0.729,0.045,1.096,0.135s0.676,0.203,0.926,0.34v1.178h-0.059c-0.281-0.223-0.594-0.398-0.939-0.527
	s-0.695-0.193-1.047-0.193c-0.363,0-0.67,0.076-0.92,0.229s-0.375,0.383-0.375,0.691c0,0.273,0.074,0.478,0.223,0.612
	s0.387,0.245,0.715,0.331c0.164,0.043,0.348,0.085,0.549,0.126s0.412,0.089,0.635,0.144c0.484,0.121,0.85,0.322,1.094,0.604
	s0.365,0.664,0.365,1.148c0,0.281-0.055,0.548-0.166,0.8s-0.275,0.468-0.49,0.647c-0.234,0.195-0.498,0.344-0.793,0.445
	S777.933,43.391,777.487,43.391z"/>
<path fill="#FFFFFF" d="M783.294,43.361c-0.602,0-1.07-0.171-1.406-0.513s-0.504-0.882-0.504-1.62v-3.627h-0.744v-0.914h0.744
	v-1.881h1.102v1.881h2.027v0.914h-2.027v3.111c0,0.332,0.006,0.588,0.018,0.768s0.057,0.348,0.135,0.504
	c0.066,0.137,0.174,0.239,0.322,0.308s0.35,0.103,0.604,0.103c0.18,0,0.354-0.026,0.521-0.079s0.289-0.097,0.363-0.132h0.064v0.99
	c-0.207,0.059-0.417,0.104-0.63,0.138S783.474,43.361,783.294,43.361z"/>
<path fill="#FFFFFF" d="M788.409,43.385c-1.043,0-1.853-0.294-2.429-0.882s-0.864-1.423-0.864-2.505
	c0-1.066,0.279-1.915,0.838-2.546s1.289-0.946,2.191-0.946c0.406,0,0.766,0.059,1.078,0.176s0.586,0.301,0.82,0.551
	s0.414,0.556,0.539,0.917s0.188,0.804,0.188,1.327v0.598h-4.535c0,0.762,0.191,1.344,0.574,1.746s0.912,0.604,1.588,0.604
	c0.242,0,0.479-0.027,0.712-0.082s0.442-0.125,0.63-0.211c0.199-0.09,0.367-0.177,0.504-0.261s0.25-0.163,0.34-0.237h0.064v1.201
	c-0.129,0.051-0.289,0.114-0.48,0.19s-0.363,0.136-0.516,0.179c-0.215,0.059-0.409,0.104-0.583,0.135S788.675,43.385,788.409,43.385
	z M789.698,39.23c-0.008-0.297-0.043-0.553-0.105-0.768s-0.152-0.396-0.27-0.545c-0.129-0.164-0.294-0.289-0.495-0.375
	s-0.45-0.129-0.747-0.129c-0.293,0-0.542,0.044-0.747,0.132s-0.392,0.216-0.56,0.384c-0.164,0.172-0.289,0.362-0.375,0.571
	s-0.141,0.452-0.164,0.729H789.698z"/>
<path fill="#FFFFFF" d="M799.554,43.232v-3.785c0-0.301-0.012-0.579-0.035-0.835s-0.072-0.456-0.146-0.601
	c-0.078-0.156-0.189-0.271-0.334-0.346s-0.34-0.111-0.586-0.111c-0.227,0-0.471,0.069-0.73,0.208s-0.527,0.339-0.805,0.601
	c0.004,0.066,0.008,0.146,0.014,0.237s0.01,0.2,0.01,0.325v4.307h-1.102v-3.785c0-0.301-0.012-0.579-0.035-0.835
	s-0.072-0.456-0.146-0.601c-0.078-0.156-0.189-0.271-0.334-0.346s-0.34-0.111-0.586-0.111c-0.238,0-0.488,0.074-0.75,0.223
	s-0.516,0.338-0.762,0.568v4.887h-1.102v-6.545h1.102v0.727c0.289-0.289,0.574-0.513,0.857-0.671s0.596-0.237,0.936-0.237
	c0.387,0,0.729,0.088,1.027,0.264s0.527,0.465,0.684,0.867c0.332-0.371,0.656-0.652,0.973-0.844s0.66-0.287,1.031-0.287
	c0.281,0,0.537,0.044,0.768,0.132s0.432,0.229,0.604,0.425c0.176,0.199,0.311,0.447,0.406,0.744s0.145,0.67,0.145,1.119v4.307
	H799.554z"/>
<rect x="844.299" y="579.889" fill="#FFFFFF" width="1.401" height="1.392"/>
<rect x="844.299" y="585.706" fill="#FFFFFF" width="1.401" height="1.392"/>
<rect x="824.837" y="579.889" fill="#FFFFFF" width="1.401" height="1.392"/>
<rect x="824.837" y="585.706" fill="#FFFFFF" width="1.401" height="1.392"/>
<path fill="#FFFFFF" d="M855.656,579.349c-0.243,0.717-0.365,1.664-0.365,2.842c0,1.867,0.33,3.218,0.991,4.044
	c0.552,0.688,1.31,1.033,2.276,1.033c0.734,0,1.341-0.196,1.822-0.588c0.48-0.391,0.842-0.945,1.083-1.664
	c0.241-0.716,0.362-1.659,0.362-2.825c0-0.987-0.075-1.772-0.226-2.353c-0.15-0.582-0.358-1.075-0.622-1.479
	c-0.264-0.406-0.6-0.717-1.005-0.931c-0.405-0.216-0.878-0.322-1.415-0.322c-0.729,0-1.334,0.195-1.814,0.583
	C856.263,578.077,855.9,578.632,855.656,579.349z M858.545,578.116c0.574,0,1.054,0.269,1.439,0.808
	c0.385,0.539,0.577,1.627,0.577,3.267c0,1.628-0.192,2.715-0.577,3.257c-0.386,0.544-0.861,0.814-1.426,0.814
	s-1.04-0.27-1.426-0.812c-0.385-0.539-0.577-1.627-0.577-3.26c0-1.636,0.212-2.754,0.636-3.36
	C857.529,578.354,857.98,578.116,858.545,578.116z"/>
<path fill="#FFFFFF" d="M852.188,577.428c-0.406-0.216-0.877-0.322-1.415-0.322c-0.729,0-1.334,0.195-1.815,0.583
	c-0.48,0.389-0.843,0.943-1.086,1.66c-0.244,0.717-0.366,1.664-0.366,2.842c0,1.867,0.331,3.218,0.991,4.044
	c0.551,0.688,1.311,1.033,2.276,1.033c0.733,0,1.341-0.196,1.821-0.588c0.481-0.391,0.842-0.945,1.084-1.664
	c0.242-0.716,0.362-1.659,0.362-2.825c0-0.987-0.075-1.772-0.226-2.353c-0.15-0.582-0.357-1.075-0.622-1.479
	C852.928,577.952,852.594,577.642,852.188,577.428z M852.197,585.447c-0.385,0.544-0.859,0.814-1.425,0.814s-1.04-0.27-1.425-0.812
	c-0.386-0.539-0.578-1.627-0.578-3.26c0-1.636,0.212-2.754,0.636-3.36c0.337-0.476,0.788-0.714,1.354-0.714
	c0.574,0,1.054,0.269,1.438,0.808c0.386,0.539,0.578,1.627,0.578,3.267C852.775,583.818,852.583,584.905,852.197,585.447z"/>
<path fill="#FFFFFF" d="M840.512,577.428c-0.406-0.216-0.877-0.322-1.415-0.322c-0.729,0-1.334,0.195-1.815,0.583
	c-0.48,0.389-0.843,0.943-1.086,1.66c-0.244,0.717-0.366,1.664-0.366,2.842c0,1.867,0.331,3.218,0.991,4.044
	c0.551,0.688,1.311,1.033,2.276,1.033c0.733,0,1.341-0.196,1.821-0.588c0.481-0.391,0.842-0.945,1.084-1.664
	c0.242-0.716,0.362-1.659,0.362-2.825c0-0.987-0.075-1.772-0.226-2.353c-0.15-0.582-0.357-1.075-0.622-1.479
	C841.252,577.952,840.918,577.642,840.512,577.428z M840.521,585.447c-0.385,0.544-0.859,0.814-1.425,0.814s-1.04-0.27-1.425-0.812
	c-0.386-0.539-0.578-1.627-0.578-3.26c0-1.636,0.212-2.754,0.636-3.36c0.337-0.476,0.788-0.714,1.354-0.714
	c0.574,0,1.054,0.269,1.438,0.808c0.386,0.539,0.578,1.627,0.578,3.267C841.1,583.818,840.907,584.905,840.521,585.447z"/>
<path fill="#FFFFFF" d="M832.726,577.428c-0.405-0.216-0.878-0.322-1.415-0.322c-0.729,0-1.334,0.195-1.814,0.583
	c-0.481,0.389-0.844,0.943-1.088,1.66c-0.243,0.717-0.365,1.664-0.365,2.842c0,1.867,0.33,3.218,0.991,4.044
	c0.552,0.688,1.31,1.033,2.276,1.033c0.734,0,1.341-0.196,1.822-0.588c0.48-0.391,0.842-0.945,1.083-1.664
	c0.241-0.716,0.362-1.659,0.362-2.825c0-0.987-0.075-1.772-0.226-2.353c-0.15-0.582-0.358-1.075-0.622-1.479
	C833.467,577.952,833.131,577.642,832.726,577.428z M832.736,585.447c-0.386,0.544-0.861,0.814-1.426,0.814s-1.04-0.27-1.426-0.812
	c-0.385-0.539-0.577-1.627-0.577-3.26c0-1.636,0.212-2.754,0.636-3.36c0.338-0.476,0.789-0.714,1.354-0.714
	c0.574,0,1.054,0.269,1.439,0.808c0.385,0.539,0.577,1.627,0.577,3.267C833.313,583.818,833.121,584.905,832.736,585.447z"/>
<path fill="#FFFFFF" d="M821.457,586.68c0.48-0.391,0.842-0.945,1.083-1.664c0.241-0.716,0.362-1.659,0.362-2.825
	c0-0.987-0.075-1.772-0.226-2.353c-0.15-0.582-0.358-1.075-0.622-1.479c-0.264-0.406-0.6-0.717-1.005-0.931
	c-0.405-0.216-0.878-0.322-1.415-0.322c-0.729,0-1.334,0.195-1.814,0.583c-0.481,0.389-0.844,0.943-1.088,1.66
	c-0.243,0.717-0.365,1.664-0.365,2.842c0,1.867,0.33,3.218,0.991,4.044c0.552,0.688,1.31,1.033,2.276,1.033
	C820.369,587.268,820.976,587.071,821.457,586.68z M818.209,585.45c-0.385-0.539-0.577-1.627-0.577-3.26
	c0-1.636,0.212-2.754,0.636-3.36c0.338-0.476,0.789-0.714,1.354-0.714c0.574,0,1.054,0.269,1.439,0.808
	c0.385,0.539,0.577,1.627,0.577,3.267c0,1.628-0.192,2.715-0.577,3.257c-0.386,0.544-0.861,0.814-1.426,0.814
	S818.595,585.992,818.209,585.45z"/>
<path fill="#FFFFFF" d="M808.947,579.349c-0.244,0.717-0.366,1.664-0.366,2.842c0,1.867,0.331,3.218,0.991,4.044
	c0.551,0.688,1.311,1.033,2.276,1.033c0.733,0,1.341-0.196,1.821-0.588c0.481-0.391,0.842-0.945,1.084-1.664
	c0.242-0.716,0.362-1.659,0.362-2.825c0-0.987-0.075-1.772-0.226-2.353c-0.15-0.582-0.357-1.075-0.622-1.479
	c-0.265-0.406-0.599-0.717-1.005-0.931c-0.406-0.216-0.877-0.322-1.415-0.322c-0.729,0-1.334,0.195-1.815,0.583
	C809.553,578.077,809.19,578.632,808.947,579.349z M811.835,578.116c0.574,0,1.054,0.269,1.438,0.808
	c0.386,0.539,0.578,1.627,0.578,3.267c0,1.628-0.192,2.715-0.578,3.257c-0.385,0.544-0.859,0.814-1.425,0.814
	s-1.04-0.27-1.425-0.812c-0.386-0.539-0.578-1.627-0.578-3.26c0-1.636,0.212-2.754,0.636-3.36
	C810.818,578.354,811.27,578.116,811.835,578.116z"/>
<path fill="#FFFFFF" d="M520.594,586.68c0.481-0.391,0.842-0.945,1.084-1.664c0.242-0.716,0.362-1.659,0.362-2.825
	c0-0.987-0.075-1.772-0.226-2.353c-0.15-0.582-0.357-1.075-0.622-1.479c-0.265-0.406-0.599-0.717-1.005-0.931
	c-0.406-0.216-0.877-0.322-1.415-0.322c-0.277,0-0.531,0.037-0.772,0.094v1.094c0.225-0.117,0.478-0.177,0.759-0.177
	c0.574,0,1.054,0.269,1.438,0.808c0.386,0.539,0.578,1.627,0.578,3.267c0,1.628-0.192,2.715-0.578,3.257
	c-0.385,0.544-0.859,0.814-1.425,0.814c-0.28,0-0.537-0.067-0.772-0.199v1.113c0.242,0.056,0.497,0.092,0.772,0.092
	C519.506,587.268,520.113,587.071,520.594,586.68z"/>
<path fill="#FFFFFF" d="M527.974,577.428c-0.405-0.216-0.878-0.322-1.415-0.322c-0.729,0-1.334,0.195-1.814,0.583
	c-0.481,0.389-0.844,0.943-1.088,1.66c-0.243,0.717-0.365,1.664-0.365,2.842c0,1.867,0.33,3.218,0.991,4.044
	c0.552,0.688,1.31,1.033,2.276,1.033c0.734,0,1.341-0.196,1.822-0.588c0.48-0.391,0.842-0.945,1.083-1.664
	c0.241-0.716,0.362-1.659,0.362-2.825c0-0.987-0.075-1.772-0.226-2.353c-0.15-0.582-0.358-1.075-0.622-1.479
	C528.715,577.952,528.379,577.642,527.974,577.428z M527.984,585.447c-0.386,0.544-0.861,0.814-1.426,0.814s-1.04-0.27-1.426-0.812
	c-0.385-0.539-0.577-1.627-0.577-3.26c0-1.636,0.212-2.754,0.636-3.36c0.338-0.476,0.789-0.714,1.354-0.714
	c0.574,0,1.054,0.269,1.439,0.808c0.385,0.539,0.577,1.627,0.577,3.267C528.562,583.818,528.369,584.905,527.984,585.447z"/>
<path fill="#FFFFFF" d="M571,553.955v-0.249c0-2.948-2.406-5.706-5.375-5.706H518v11h47.625C568.594,559,571,556.902,571,553.955z"
	/>
<path fill="#FFFFFF" d="M590.5,553.086c0-3.702-3.021-6.703-6.75-6.703s-6.75,3.001-6.75,6.703c0,3.701,3.021,6.703,6.75,6.703
	S590.5,556.787,590.5,553.086z M579,553.086c0-2.601,2.131-4.718,4.75-4.718s4.75,2.117,4.75,4.718s-2.131,4.718-4.75,4.718
	S579,555.687,579,553.086z"/>
<path fill="#FFFFFF" d="M538,582c0,2.193,1.791,4,4,4h254c2.209,0,4-1.807,4-4c0-2.195-1.791-4-4-4H542
	C539.791,578,538,579.805,538,582z"/>
<path fill="#FFFFFF" d="M734,570c3.313,0,6-2.452,6-5.742v-20.854c0-3.29-2.687-6.403-6-6.403H605c-3.313,0-6,3.113-6,6.403v20.854
	c0,3.29,2.687,5.742,6,5.742H734z M705,543.756l9,8.67v-8.67l9,8.67V543h2v19h-2v-8.561l-9,8.668v-8.668l-9,8.668V543.756z
	 M662,542.102l17.026,10.831L662,563.763V542.102z M614,543h2v9.426l9-8.67v8.67l9-8.67v18.352l-9-8.668v8.668l-9-8.668V562h-2V543z
	"/>
<path fill="#FFFFFF" d="M761.596,547.872l4.404,2.525V548h10.709c2.326,0,4.291,2.078,4.291,4.5s-1.965,4.5-4.291,4.5H765v1h11.709
	c2.868,0,5.291-2.538,5.291-5.5s-2.423-5.5-5.291-5.5H766v-1.652L761.596,547.872z"/>
<path fill="#FFFFFF" d="M808,547h-10.125c-2.868,0-5.291,2.538-5.291,5.5s2.423,5.5,5.291,5.5H810v-1h-12.125
	c-2.326,0-4.291-2.078-4.291-4.5s1.965-4.5,4.291-4.5H808v2.397l4.404-2.525L808,545.348V547z"/>
<rect x="839" y="549" fill="#FFFFFF" width="13" height="6"/>
<path fill="#FFFFFF" d="M834,560h23v-16h-23V560z M836,546h19v12h-19V546z"/>
<polygon fill="#FFFFFF" points="642.959,340.097 644.813,397.944 682.976,354.432 729.358,389.05 719.132,332.083 775.117,317.403 
	724.202,289.88 747.632,236.957 694.369,259.603 667.601,208.288 652.097,264.05 595.286,252.985 629.217,299.873 585.146,337.39 
	"/>
<path fill="#FFFFFF" d="M937.813,322.405c5.061,0.237,9.335,4.574,9.496,9.638l0.428,13.356c0.163,5.063,3.028,6.091,6.369,2.282
	l8.813-10.047c3.341-3.809,9.396-4.445,13.456-1.415l10.71,7.991c4.06,3.031,6.649,1.431,5.755-3.557l-2.361-13.152
	c-0.896-4.986,2.382-10.118,7.282-11.402l12.928-3.39c4.901-1.285,5.264-4.308,0.807-6.718l-11.756-6.355
	c-4.456-2.409-6.426-8.171-4.375-12.804l5.41-12.22c2.051-4.633-0.086-6.801-4.749-4.819l-12.298,5.229
	c-4.662,1.982-10.395-0.071-12.737-4.563l-6.182-11.849c-2.343-4.492-5.37-4.174-6.728,0.708l-3.579,12.875
	c-1.357,4.881-6.536,8.083-11.509,7.114l-13.119-2.556c-4.974-0.968-6.612,1.597-3.642,5.702l7.835,10.827
	c2.971,4.104,2.243,10.15-1.614,13.434l-10.176,8.662c-3.857,3.284-2.874,6.164,2.188,6.402L937.813,322.405z"/>
<g>
	<polygon fill="#FFFFFF" points="1003.013,418.123 1002.452,419.432 999.254,415.197 995.121,411.98 996.419,411.444 
		993.754,407.916 995.5,418.925 1006.507,420.843 	"/>
	<polygon fill="#FFFFFF" points="940.184,424.153 941.154,423.764 939.385,425.865 938.277,428.237 938.226,427.242 
		931.861,434.801 945.131,429.473 944.381,415.163 	"/>
	<polygon fill="#FFFFFF" points="995.851,421.135 995.5,418.925 993.273,418.537 994.357,419.972 	"/>
	<polygon fill="#FFFFFF" points="935.653,417.841 937.054,418.096 933.639,422.155 931.422,426.902 930.609,425.756 
		927.764,429.139 938.108,424.986 937.527,413.828 	"/>
	<polygon fill="#FFFFFF" points="940.184,424.153 938.108,424.986 938.226,427.242 939.385,425.865 	"/>
	<polygon fill="#FFFFFF" points="1003.68,427.229 995.851,421.135 996.015,422.168 994.357,419.972 992.294,418.366 
		993.273,418.537 987.321,410.651 989.561,424.773 	"/>
	<polygon fill="#FFFFFF" points="927.178,454.254 917.812,462.423 930.226,463.128 929.302,458.528 	"/>
	<polygon fill="#FFFFFF" points="969.401,401.762 970.074,403.014 964.773,402.876 959.678,404.103 960.067,402.753 
		955.648,402.638 965.343,408.136 973.707,400.725 	"/>
	<polygon fill="#FFFFFF" points="1011.178,454.601 1023.167,451.303 1012.288,445.281 1011.121,449.838 	"/>
	<polygon fill="#FFFFFF" points="989.482,424.771 989.571,424.841 989.561,424.773 989.473,424.758 	"/>
	<polygon fill="#FFFFFF" points="967.289,409.239 965.343,408.136 963.65,409.635 965.446,409.683 	"/>
	<polygon fill="#FFFFFF" points="969.401,401.762 963.518,390.807 960.067,402.753 964.773,402.876 	"/>
	<polygon fill="#FFFFFF" points="967.289,409.239 968.2,409.756 965.446,409.683 962.906,410.294 963.65,409.635 953.775,409.372 
		966.215,416.424 976.936,406.917 	"/>
	<polygon fill="#FFFFFF" points="1003.013,418.123 1007.909,406.693 996.419,411.444 999.254,415.197 	"/>
	<polygon fill="#FFFFFF" points="935.653,417.841 923.421,415.61 930.609,425.756 933.639,422.155 	"/>
	<polygon fill="#FFFFFF" points="1004.335,448.99 1004.304,446.373 1004.781,447.246 1007.235,437.675 997.818,447.986 
		1001.205,434.354 991.417,445.008 998.27,434.932 986.646,431.153 1000.858,433.62 989.575,424.841 989.583,424.902 
		989.483,424.893 989.466,424.99 980.893,413.504 983.156,427.694 979.568,416.002 969.376,422.707 980.169,413.121 
		966.275,416.463 966.328,416.49 966.17,416.485 966.14,416.492 966.148,416.483 951.905,416.101 964.457,423.217 953.102,418.75 
		952.003,430.91 951.243,416.499 945.194,429.447 945.251,429.425 945.182,429.475 945.194,429.447 945.131,429.473 945.133,429.51 
		945.078,429.549 945,429.572 945,429.563 935.888,440.46 949.313,435.082 938.757,441.173 947.584,449.617 935.848,441.227 
		942.202,454.033 942.223,453.968 942.259,454.144 942.264,454.153 942.26,454.15 945.055,468.115 949.201,454.295 947.373,466.359 
		959.472,464.726 945.591,468.672 959.569,471.69 959.534,471.764 945.814,475.658 955.517,477.752 954.919,476.889 
		957.373,478.152 959.919,478.701 958.966,478.972 967.902,483.493 960,471.871 960,471.859 972.508,478.312 964.207,466.423 
		972.462,475.356 978.709,464.869 973.131,478.178 984.196,469.134 984.129,469.129 984.279,469.061 984.192,469.132 
		984.259,469.137 984.294,469.053 984.283,469.058 984.297,469.046 984.294,469.053 997.29,463.221 982.894,462.254 
		995.062,461.354 990.776,449.921 997.714,462.574 997.547,448.282 997.632,448.304 1004.476,460.802 1004.357,450.881 
		1003.652,451.652 	"/>
	<polygon fill="#FFFFFF" points="950.367,483.573 950.305,482.149 955.03,484.579 960.143,485.683 959.208,486.728 963.14,488.749 
		956.79,479.589 946.038,482.639 	"/>
	<polygon fill="#FFFFFF" points="955.517,477.752 956.79,479.589 958.966,478.972 957.373,478.152 	"/>
	<polygon fill="#FFFFFF" points="942.204,454.033 942.185,454.097 942.26,454.15 942.259,454.144 	"/>
	<polygon fill="#FFFFFF" points="950.367,483.573 950.916,495.995 959.208,486.728 955.03,484.579 	"/>
	<polygon fill="#FFFFFF" points="986.403,476.078 985.362,476.008 987.866,474.883 989.896,473.225 989.51,474.144 998.523,470.094 
		984.259,469.137 978.722,482.354 	"/>
	<polygon fill="#FFFFFF" points="1009.806,454.979 1011.121,449.838 1011.06,444.602 1012.288,445.281 1013.385,440.998 
		1005.866,449.229 1011.23,459.03 1011.178,454.601 	"/>
	<polygon fill="#FFFFFF" points="966.275,416.459 966.215,416.424 966.148,416.483 966.17,416.484 	"/>
	<polygon fill="#FFFFFF" points="987.101,484.26 997.8,491.048 995.797,479.199 987.792,483.695 	"/>
	<polygon fill="#FFFFFF" points="934.94,454.652 934.299,456.793 936.14,458.111 935.789,456.363 	"/>
	<polygon fill="#FFFFFF" points="1004.335,448.99 1004.357,450.881 1005.866,449.229 1004.781,447.246 	"/>
	<polygon fill="#FFFFFF" points="987.101,484.26 986.953,484.166 987.792,483.695 995.493,477.402 995.797,479.199 999.759,476.974 
		988.637,476.228 984.319,486.532 	"/>
	<polygon fill="#FFFFFF" points="986.403,476.078 988.637,476.228 989.51,474.144 987.866,474.883 	"/>
	<polygon fill="#FFFFFF" points="934.94,454.652 935.244,453.642 935.789,456.363 936.941,458.685 936.14,458.111 938.079,467.789 
		942.185,454.097 930.527,445.759 	"/>
	<polygon fill="#FFFFFF" points="927.178,454.254 928.254,453.314 929.302,458.528 931.627,463.208 930.226,463.128 
		931.097,467.462 934.299,456.793 925.207,450.288 	"/>
</g>
<path fill="#FFFFFF" d="M949.681,168.767c-2.271,8.454-3.09,19.658,1.222,37.125c3.229-12.775,6.502-21.376,11.338-25.871
	c5.308,7.749,14.852,16.246,27.037,24.166c-8.246-11.386-11.498-19.766-11.653-26.989c8.857,0.75,20.376-0.45,37.657-8.895
	c-15.813,0.391-24.527-1.692-29.951-5.873c6.075-6.594,11.852-16.795,16.247-30.081c-8.458,8.363-15.624,13.565-22.354,15.203
	c-1.285-8.748-5.669-19.638-17.062-33.239c4.937,15.392,4.373,23.42,1.368,29.423c-7.66-3.964-18.283-6.812-33.547-6.802
	c9.699,5.585,16.874,10.559,20.01,16.212c-8.429,3.469-18.323,11-28.569,22.872C934.803,168.511,942.935,167.278,949.681,168.767z"
	/>
<path fill="#FFFFFF" d="M1012.237,575.106c-6.551,0-30.45,1.908-43.452,25.894H1070v-25.819l-55.816-0.007
	C1014.177,575.172,1013.466,575.106,1012.237,575.106z M1067,589.084V598h-9L1067,589.084z"/>
<path fill="#FFFFFF" d="M868,587.098c0,3.29-2.687,5.902-6,5.902H518v8h152h294.416c13.67-26.759,37.715-28.975,44.821-28.975
	c1.16,0,1.918-0.025,2.158-0.025H1070v-38H868V587.098z"/>
<path fill="#FFFFFF" d="M887,505h158c2.757,0,5-2.243,5-5V389c0-2.757-2.243-5-5-5H887c-2.757,0-5,2.243-5,5v111
	C882,502.757,884.243,505,887,505z M885,391.5c0-2.481,2.019-4.5,4.5-4.5H1042c2.762,0,5,2.238,5,5v105.5c0,2.481-2.019,4.5-4.5,4.5
	h-153c-2.481,0-4.5-2.019-4.5-4.5V391.5z"/>
<path fill="#FFFFFF" d="M518,83h544v2H874.5c-4.136,0-7.5,3.364-7.5,7.5v421c0,4.136,3.364,7.5,7.5,7.5H1062v2H518v7h552V75H518V83z
	 M1062,88H874.5c-2.481,0-4.5,2.019-4.5,4.5v421c0,2.481,2.019,4.5,4.5,4.5H1062v2H874.5c-3.584,0-6.5-2.916-6.5-6.5v-421
	c0-3.584,2.916-6.5,6.5-6.5H1062V88z M889.5,245H1042c2.762,0,5,2.239,5,5v105.5c0,2.481-2.019,4.5-4.5,4.5h-153
	c-2.481,0-4.5-2.019-4.5-4.5v-106C885,247.019,887.019,245,889.5,245z M885,212.5v-106c0-2.481,2.019-4.5,4.5-4.5H1042
	c2.762,0,5,2.239,5,5v105.5c0,2.481-2.019,4.5-4.5,4.5h-153C887.019,217,885,214.981,885,212.5z M887,380h158c4.963,0,9,4.037,9,9
	v111c0,4.963-4.037,9-9,9H887c-4.963,0-9-4.037-9-9V389C878,384.037,882.037,380,887,380z"/>
<path fill="#FFFFFF" d="M1070,71V51H927.918c-24.341,0-44.008,6.656-53.844,20H1070z"/>
<path fill="#FFFFFF" d="M1024.251,8.75c-3.359,0-6.083,2.725-6.083,6.084s2.724,6.082,6.083,6.082s6.083-2.723,6.083-6.082
	S1027.61,8.75,1024.251,8.75z M1024.251,18.916c-2.251,0-4.083-1.831-4.083-4.082c0-2.252,1.832-4.084,4.083-4.084
	s4.083,1.832,4.083,4.084C1028.334,17.085,1026.502,18.916,1024.251,18.916z"/>
<path fill="#FFFFFF" d="M1039.251,8.75c-3.359,0-6.083,2.725-6.083,6.084s2.724,6.082,6.083,6.082s6.083-2.723,6.083-6.082
	S1042.61,8.75,1039.251,8.75z M1039.251,18.916c-2.251,0-4.083-1.831-4.083-4.082c0-2.252,1.832-4.084,4.083-4.084
	s4.083,1.832,4.083,4.084C1043.334,17.085,1041.502,18.916,1039.251,18.916z"/>
<path fill="#FFFFFF" d="M1009.251,8.75c-3.359,0-6.083,2.725-6.083,6.084s2.724,6.082,6.083,6.082s6.083-2.723,6.083-6.082
	S1012.61,8.75,1009.251,8.75z M1009.251,18.916c-2.251,0-4.083-1.831-4.083-4.082c0-2.252,1.832-4.084,4.083-4.084
	s4.083,1.832,4.083,4.084C1013.334,17.085,1011.502,18.916,1009.251,18.916z"/>
<path fill="#FFFFFF" d="M1054.251,8.75c-3.359,0-6.083,2.725-6.083,6.084s2.724,6.082,6.083,6.082s6.083-2.723,6.083-6.082
	S1057.61,8.75,1054.251,8.75z M1054.251,18.916c-2.251,0-4.083-1.831-4.083-4.082c0-2.252,1.832-4.084,4.083-4.084
	s4.083,1.832,4.083,4.084C1058.334,17.085,1056.502,18.916,1054.251,18.916z"/>
<path fill="#FFFFFF" d="M285.287,28.199l0.349,1.632l0.51,1.675L286.344,32h6.929l-0.118-0.182l-0.594-1.115l-0.469-1.102
	l-0.396-1.219l-0.286-1.266l-0.166-1.23l-0.061-1.346l0.047-1.202l0.14-1.16l0.229-1.121l0.318-1.083l0.402-1.05l0.485-1.018
	l0.565-0.989l0.645-0.963l0.917,1.896l1.089,1.81l0.649,0.924l0.742,0.951l1.367,1.518l1.213,1.146l1.177,0.968l1.676,1.175
	l1.364,0.795c0,0,0.917,0.449,1.253,0.592l0.335-0.143l0.917-0.449l1.364-0.795l1.677-1.175l1.552-1.306l1.065-1.045l1.139-1.281
	l1.249-1.664l1.1-1.781l0.511-0.974l0.537-1.161l0.645,0.963l0.566,0.989l0.486,1.018l0.403,1.05l0.317,1.083l0.229,1.121l0.14,1.16
	l0.047,1.202l-0.061,1.346l-0.166,1.23l-0.286,1.266l-0.396,1.219l-0.468,1.102l-0.594,1.115L317.652,32h6.928l0.233-0.591
	l0.476-1.578l0.384-1.841l0.201-1.691l0.069-1.742l-0.085-1.882l-0.252-1.835l-0.256-1.192l-0.324-1.167l-0.609-1.693l-0.75-1.621
	l-0.574-1.037l-0.632-0.999l-1.124-1.513l-1.256-1.403l-0.762-0.736l-0.797-0.696l-1.505-1.136l-1.608-0.995l-0.947-0.494
	l-0.975-0.447l-0.399,2.139l-0.585,2.086l-0.389,1.086l-0.472,1.133l-0.93,1.846l-0.876,1.434l-0.886,1.242l-1.316,1.561
	l-1.112,1.104l-0.769,0.656l-0.287,0.218l-0.288-0.218l-0.769-0.656l-1.111-1.104l-1.317-1.561l-1.162-1.67l-0.76-1.297l-0.77-1.555
	l-0.778-1.972l-0.604-2.062l-0.245-1.105l-0.221-1.305L295.83,6.48l-1.626,0.967l-0.872,0.608l-0.928,0.726l-1.393,1.266
	l-1.271,1.388l-0.658,0.831l-0.615,0.864l-0.984,1.616l-0.787,1.602l-0.405,0.996l-0.39,1.137l-0.46,1.76l-0.305,1.817l-0.113,1.239
	l-0.038,1.26l0.085,1.957L285.287,28.199z"/>
<path fill="#FFFFFF" d="M1060,0H280c-5.522,0-10,4.477-10,10v22h15.806l-0.124-0.309l-0.524-1.715l-0.359-1.673l-0.226-1.726
	l-0.089-1.999l0.038-1.297l0.115-1.271l0.31-1.854l0.47-1.803l0.401-1.173l0.415-1.022l0.802-1.634l1.005-1.655l0.635-0.895
	l0.673-0.852l1.295-1.415l1.425-1.298l0.956-0.749l0.894-0.625l1.657-0.986l2.246-1.08l0.333,1.959l0.039,0.174
	c2.242-0.924,4.696-1.441,7.272-1.441c2.57,0,5.018,0.516,7.256,1.436l0.393-2.109l1.558,0.713l0.97,0.506l1.64,1.014l1.543,1.162
	l0.825,0.719l0.78,0.753l1.281,1.429l1.152,1.549l0.653,1.029l0.589,1.063l0.766,1.653l0.626,1.734l0.335,1.202l0.263,1.222
	l0.258,1.872l0.09,1.928l-0.069,1.783l-0.204,1.73l-0.391,1.885l-0.486,1.619L325.116,32H471V3h398v46c0,5.523-4.478,10-10,10H670
	H518v12h152h199.485c10.146-14.834,30.049-23,56.14-23H1070V10C1070,4.477,1065.522,0,1060,0z M1063,15.125
	c0,4.35-3.525,7.875-7.875,7.875h-46.25c-4.35,0-7.875-3.525-7.875-7.875v-0.25c0-4.35,3.525-7.875,7.875-7.875h46.25
	c4.35,0,7.875,3.525,7.875,7.875V15.125z"/>
<path fill="#FFFFFF" d="M427,487.298v41.05l-65.464-65.48L427,397.387v40.908c28.863-0.454,56.392-3.094,81-7.729V41H0v586h508
	V480.323C482.891,484.51,455.549,486.885,427,487.298z M356.277,348.03l-3.853,12.499l-11.957-11.339l-4.856,15.747l-11.962-11.336
	l-4.857,15.747l-11.965-11.336l-0.741,12.748l-11.252,6.019l15.314,6.079l-12.244,11.027l15.315,6.081l-12.243,11.03l15.315,6.082
	l-8.526,8.312l1.933-0.759l6.465,16.756l-11.942-12.542l3.544-3.455l-13.404,5.263l1.41-16.416l-15.34,6.021l1.412-16.416
	l-15.341,6.02l1.401-16.423l-10.432,7.367l-11.721-5.046l4.795,15.766l-16.255-2.7l4.793,15.767l-16.253-2.701l4.791,15.769
	l-12.971-2.146l2.952,1.704l-9.068,15.502l2.825-17.751l3.292,0.545l-11.319-6.534l13.715-9.132l-14.271-8.24l13.715-9.138
	l-14.271-8.24l13.715-9.142l-12.263-3.559l-3.365-12.31l-9.334,13.578l-8.026-14.391l-9.337,13.578l-8.03-14.392l-9.338,13.578
	l-6.403-11.47l0.507,3.361l-17.775,2.574l15.637-8.857l1.631,2.922l-1.951-12.932l15.692,5.027l-2.456-16.294l15.689,5.029
	l-2.454-16.296l15.7,5.02l-4.862-11.809l7.526-10.305l-16.436,1.168l6.248-15.248l-16.438,1.168l6.249-15.246l-16.439,1.164
	l4.977-12.166l-2.316,2.497l-13.097-12.291l16.677,6.703l-1.264,3.09l8.889-9.584l5.854,15.403l11.208-12.081l5.859,15.404
	l11.208-12.081l5.862,15.405l6.198-11.165l12.75-0.541l-11.16-12.122l15.816-4.622l-11.16-12.125l15.817-4.627l-11.16-12.125
	l12.606-3.69l-3.39-0.254l1.447-17.902l5.155,17.216l-3.212,0.94l13.042,0.976l-8.394,14.18l16.433,1.231l-8.391,14.185
	l16.433,1.231l-8.39,14.188l12.593-2.114l8.372,9.631l2.52-16.284l13.475,9.484l2.521-16.284l13.479,9.482l2.521-16.285
	l10.746,7.556l-1.916-2.808l14.898-10.032l-10.246,14.765l-2.737-1.925l7.369,10.805l-16.319,2.279l9.283,13.615l-16.322,2.284
	l9.283,13.616l-16.323,2.285l9.505,8.527l-2.31,12.551l14.302-8.184l0.987,16.448l14.304-8.183l0.992,16.451l14.304-8.183
	L356.277,348.03l1.001-3.248l17.132,5.394l-17.932,1.195L356.277,348.03z"/>
<g>
</g>
<g>
</g>
<g>
</g>
<g>
</g>
<g>
</g>
<g>
</g>
<g>
</g>
<g>
</g>
<g>
</g>
<g>
</g>
<g>
</g>
<g>
</g>
<g>
</g>
<g>
</g>
<g>
</g>
</svg>
