<?xml version="1.0" encoding="utf-8"?>
<!-- Generator: Adobe Illustrator 16.0.0, SVG Export Plug-In . SVG Version: 6.00 Build 0)  -->
<!DOCTYPE svg PUBLIC "-//W3C//DTD SVG 1.1//EN" "http://www.w3.org/Graphics/SVG/1.1/DTD/svg11.dtd">
<svg version="1.1" id="Layer_1" xmlns="http://www.w3.org/2000/svg" xmlns:xlink="http://www.w3.org/1999/xlink" x="0px" y="0px"
	 width="100%" height="100%" viewBox="0 928 2048.002 192.001" enable-background="new 0 928 2048.002 192.001"
	 xml:space="preserve">
<g>
	<path fill="#FFFFFF" d="M1901.072,1053.744c-16.776,0-77.982,5.453-111.28,66.256H2048v-66l-142.448-0.048
		c-0.019-0.007-1.337-0.203-4.485-0.203 M2039.994,1089.608v22.394h-21.727L2039.994,1089.608"/>
	<path fill="#FFFFFF" d="M148.133,1053.747c-3.146,0-5.067,0.197-5.086,0.203L0,1053.998V1120h259.416
		C226.115,1059.2,164.909,1053.747,148.133,1053.747z M8,1112v-22.395L30.935,1112H8z"/>
	<path fill="#FFFFFF" d="M1531.2,950.4v134.11c0,8.429-6.4,14.685-14.884,14.685H527.771c-8.483,0-14.168-6.256-14.168-14.685V950.4
		H0.005v96h150.288c0.614,0,2.555-0.271,5.528-0.271c18.198,0,79.777,5.07,114.784,73.872h754h754
		c35.004-68.801,96.593-73.872,114.783-73.872c2.971,0,4.91,0.271,5.525,0.271h149.088v-96H1531.2"/>
	<path fill="#FFFFFF" d="M696.8,1081.6h650.496c5.657,0,10.243-3.982,10.243-9.6s-4.586-9.597-10.243-9.597H696.8
		c-5.657,0-10.243,3.979-10.243,9.597C686.557,1077.619,691.143,1081.6,696.8,1081.6"/>
	<path fill="#FFFFFF" d="M543.809,1059.76c-1.039-0.554-2.248-0.822-3.625-0.822c-1.864,0-3.416,0.498-4.646,1.489
		c-1.231,0.996-2.159,2.416-2.785,4.252c-0.624,1.837-0.935,4.261-0.935,7.278c0,4.782,0.847,8.24,2.539,10.359
		c1.41,1.762,3.354,2.642,5.826,2.642c1.882,0,3.435-0.5,4.668-1.504c1.231-1,2.154-2.419,2.774-4.261
		c0.617-1.834,0.928-4.244,0.928-7.235c0-2.527-0.191-4.537-0.579-6.023c-0.383-1.49-0.916-2.754-1.592-3.791
		C545.705,1061.101,544.848,1060.311,543.809,1059.76 M543.834,1080.301c-0.986,1.392-2.2,2.085-3.65,2.085
		c-1.445,0-2.662-0.692-3.646-2.078c-0.989-1.383-1.48-4.169-1.48-8.351c0-4.188,0.543-7.05,1.629-8.604
		c0.864-1.222,2.019-1.83,3.467-1.83c1.471,0,2.698,0.687,3.685,2.067c0.989,1.379,1.479,4.165,1.479,8.365
		C545.314,1076.125,544.822,1078.91,543.834,1080.301"/>
	<path fill="#FFFFFF" d="M560.128,1084.944c1.878,0,3.435-0.501,4.664-1.505c1.233-1,2.155-2.42,2.776-4.261
		c0.617-1.834,0.928-4.245,0.928-7.234c0-2.528-0.192-4.538-0.578-6.024c-0.384-1.491-0.918-2.754-1.592-3.79
		c-0.678-1.042-1.534-1.832-2.576-2.383c-1.038-0.554-2.243-0.822-3.622-0.822c-1.867,0-3.416,0.497-4.647,1.489
		c-1.231,0.995-2.159,2.416-2.783,4.252c-0.626,1.836-0.938,4.261-0.938,7.277c0,4.782,0.848,8.239,2.541,10.359
		C555.709,1084.063,557.652,1084.944,560.128,1084.944 M556.626,1063.339c0.865-1.221,2.019-1.83,3.467-1.83
		c1.472,0,2.699,0.688,3.686,2.068c0.986,1.38,1.479,4.165,1.479,8.365c0,4.168-0.492,6.954-1.479,8.344
		c-0.985,1.391-2.201,2.085-3.649,2.085s-2.664-0.692-3.648-2.078c-0.987-1.383-1.479-4.168-1.479-8.351
		C555,1067.755,555.541,1064.893,556.626,1063.339"/>
	<path fill="#FFFFFF" d="M574.4,1081.6h3.198v3.2H574.4V1081.6z"/>
	<path fill="#FFFFFF" d="M574.4,1065.6h3.198v3.2H574.4V1065.6z"/>
	<path fill="#FFFFFF" d="M593.648,1059.76c-1.04-0.554-2.247-0.822-3.625-0.822c-1.867,0-3.418,0.498-4.647,1.489
		c-1.231,0.996-2.161,2.416-2.784,4.252c-0.624,1.837-0.936,4.261-0.936,7.278c0,4.782,0.848,8.24,2.539,10.359
		c1.411,1.762,3.354,2.642,5.83,2.642c1.879,0,3.434-0.5,4.666-1.504c1.229-1,2.154-2.419,2.774-4.261
		c0.618-1.834,0.927-4.244,0.927-7.235c0-2.527-0.191-4.537-0.575-6.023c-0.386-1.49-0.917-2.754-1.595-3.791
		C595.544,1061.101,594.688,1060.311,593.648,1059.76 M593.674,1080.301c-0.986,1.392-2.202,2.085-3.65,2.085
		c-1.446,0-2.662-0.692-3.648-2.078c-0.988-1.383-1.479-4.169-1.479-8.351c0-4.188,0.541-7.05,1.629-8.604
		c0.862-1.222,2.018-1.83,3.465-1.83c1.471,0,2.699,0.687,3.686,2.067c0.987,1.379,1.479,4.165,1.479,8.365
		C595.152,1076.125,594.661,1078.91,593.674,1080.301"/>
	<path fill="#FFFFFF" d="M613.6,1059.76c-1.035-0.554-2.244-0.822-3.623-0.822c-1.866,0-3.416,0.498-4.647,1.489
		c-1.232,0.996-2.16,2.416-2.784,4.252c-0.624,1.837-0.936,4.261-0.936,7.278c0,4.782,0.846,8.24,2.537,10.359
		c1.412,1.762,3.354,2.642,5.828,2.642c1.881,0,3.437-0.5,4.665-1.504c1.233-1,2.159-2.419,2.776-4.261
		c0.617-1.834,0.927-4.244,0.927-7.235c0-2.527-0.194-4.537-0.576-6.023c-0.384-1.49-0.917-2.754-1.594-3.791
		C615.498,1061.101,614.64,1060.311,613.6,1059.76 M613.627,1080.301c-0.987,1.392-2.203,2.085-3.65,2.085
		c-1.446,0-2.664-0.692-3.649-2.078c-0.987-1.383-1.479-4.169-1.479-8.351c0-4.188,0.543-7.05,1.627-8.604
		c0.864-1.222,2.021-1.83,3.469-1.83c1.472,0,2.698,0.687,3.687,2.067c0.985,1.379,1.479,4.165,1.479,8.365
		C615.107,1076.125,614.613,1078.91,613.627,1080.301"/>
	<path fill="#FFFFFF" d="M624,1081.6h3.2v3.2H624V1081.6z"/>
	<path fill="#FFFFFF" d="M624,1065.6h3.2v3.2H624V1065.6z"/>
	<path fill="#FFFFFF" d="M643.504,1059.76c-1.04-0.554-2.248-0.822-3.624-0.822c-1.868,0-3.416,0.498-4.649,1.489
		c-1.231,0.996-2.157,2.416-2.781,4.252c-0.626,1.837-0.938,4.261-0.938,7.278c0,4.782,0.847,8.24,2.539,10.359
		c1.411,1.762,3.354,2.642,5.83,2.642c1.879,0,3.435-0.5,4.666-1.504c1.231-1,2.156-2.419,2.774-4.261
		c0.617-1.834,0.928-4.244,0.928-7.235c0-2.527-0.192-4.537-0.578-6.023c-0.384-1.49-0.916-2.754-1.593-3.791
		C645.4,1061.101,644.542,1060.311,643.504,1059.76 M643.529,1080.301c-0.987,1.392-2.203,2.085-3.649,2.085
		s-2.665-0.692-3.649-2.078c-0.986-1.383-1.479-4.169-1.479-8.351c0-4.188,0.541-7.05,1.629-8.604
		c0.864-1.222,2.021-1.83,3.468-1.83c1.471,0,2.697,0.687,3.686,2.067c0.984,1.379,1.479,4.165,1.479,8.365
		C645.01,1076.125,644.516,1078.91,643.529,1080.301"/>
	<path fill="#FFFFFF" d="M663.439,1059.76c-1.039-0.554-2.25-0.822-3.623-0.822c-1.867,0-3.416,0.498-4.65,1.489
		c-1.23,0.996-2.158,2.416-2.78,4.252c-0.626,1.837-0.938,4.261-0.938,7.278c0,4.782,0.847,8.24,2.537,10.359
		c1.413,1.762,3.355,2.642,5.831,2.642c1.881,0,3.435-0.5,4.668-1.504c1.231-1,2.154-2.419,2.772-4.261
		c0.619-1.834,0.931-4.244,0.931-7.235c0-2.527-0.195-4.537-0.578-6.023c-0.387-1.49-0.918-2.754-1.595-3.791
		C665.338,1061.101,664.479,1060.311,663.439,1059.76 M663.467,1080.301c-0.984,1.392-2.204,2.085-3.65,2.085
		s-2.663-0.692-3.65-2.078c-0.987-1.383-1.479-4.169-1.479-8.351c0-4.188,0.543-7.05,1.629-8.604c0.861-1.222,2.021-1.83,3.467-1.83
		c1.471,0,2.699,0.687,3.685,2.067c0.986,1.379,1.479,4.165,1.479,8.365C664.945,1076.125,664.453,1078.91,663.467,1080.301"/>
	<path fill="#FFFFFF" d="M1387.872,1084.944c1.877,0,3.435-0.501,4.665-1.505c1.234-1,2.156-2.42,2.775-4.261
		c0.625-1.834,0.933-4.245,0.933-7.234c0-2.528-0.198-4.538-0.581-6.024c-0.387-1.491-0.915-2.754-1.59-3.79
		c-0.682-1.042-1.537-1.832-2.578-2.383c-1.04-0.554-2.243-0.822-3.624-0.822c-1.866,0-3.416,0.497-4.649,1.489
		c-1.232,0.995-2.158,2.416-2.777,4.252c-0.627,1.836-0.94,4.261-0.94,7.277c0,4.782,0.854,8.239,2.537,10.359
		C1383.453,1084.063,1385.4,1084.944,1387.872,1084.944 M1384.375,1063.339c0.857-1.221,2.014-1.83,3.462-1.83
		c1.47,0,2.7,0.688,3.685,2.068c0.986,1.38,1.481,4.165,1.481,8.365c0,4.168-0.495,6.954-1.481,8.344
		c-0.983,1.391-2.2,2.085-3.648,2.085c-1.443,0-2.661-0.692-3.646-2.078c-0.989-1.383-1.483-4.168-1.483-8.351
		C1382.742,1067.755,1383.286,1064.893,1384.375,1063.339"/>
	<path fill="#FFFFFF" d="M1411.439,1059.76c-1.037-0.554-2.244-0.822-3.625-0.822c-1.861,0-3.412,0.498-4.644,1.489
		c-1.233,0.996-2.164,2.416-2.785,4.252c-0.628,1.837-0.938,4.261-0.938,7.278c0,4.782,0.847,8.24,2.538,10.359
		c1.416,1.762,3.354,2.642,5.83,2.642c1.881,0,3.437-0.5,4.668-1.504c1.229-1,2.156-2.419,2.771-4.261
		c0.618-1.834,0.933-4.244,0.933-7.235c0-2.527-0.197-4.537-0.58-6.023c-0.386-1.49-0.916-2.754-1.59-3.791
		C1413.341,1061.101,1412.48,1060.311,1411.439,1059.76 M1411.469,1080.301c-0.986,1.392-2.205,2.085-3.652,2.085
		c-1.44,0-2.661-0.692-3.649-2.078c-0.985-1.383-1.479-4.169-1.479-8.351c0-4.188,0.545-7.05,1.629-8.604
		c0.867-1.222,2.024-1.83,3.467-1.83c1.472,0,2.701,0.687,3.688,2.067c0.984,1.379,1.479,4.165,1.479,8.365
		C1412.949,1076.125,1412.453,1078.91,1411.469,1080.301"/>
	<path fill="#FFFFFF" d="M1420.8,1065.6h3.2v3.2h-3.2V1065.6z"/>
	<path fill="#FFFFFF" d="M1420.8,1081.6h3.2v3.2h-3.2V1081.6z"/>
	<path fill="#FFFFFF" d="M1441.344,1059.76c-1.037-0.554-2.252-0.822-3.627-0.822c-1.865,0-3.414,0.498-4.646,1.489
		c-1.233,0.996-2.16,2.416-2.783,4.252c-0.626,1.837-0.938,4.261-0.938,7.278c0,4.782,0.846,8.24,2.541,10.359
		c1.416,1.762,3.354,2.642,5.83,2.642c1.883,0,3.435-0.5,4.668-1.504c1.229-1,2.156-2.419,2.771-4.261
		c0.616-1.834,0.93-4.244,0.93-7.235c0-2.527-0.192-4.537-0.582-6.023c-0.381-1.49-0.911-2.754-1.591-3.791
		C1443.24,1061.101,1442.377,1060.311,1441.344,1059.76 M1441.368,1080.301c-0.984,1.392-2.206,2.085-3.651,2.085
		c-1.443,0-2.662-0.692-3.65-2.078c-0.983-1.383-1.477-4.169-1.477-8.351c0-4.188,0.543-7.05,1.629-8.604
		c0.865-1.222,2.021-1.83,3.463-1.83c1.474,0,2.703,0.687,3.688,2.067c0.988,1.379,1.479,4.165,1.479,8.365
		C1442.85,1076.125,1442.357,1078.91,1441.368,1080.301"/>
	<path fill="#FFFFFF" d="M1461.28,1059.76c-1.04-0.554-2.248-0.822-3.624-0.822c-1.867,0-3.416,0.498-4.648,1.489
		c-1.232,0.996-2.16,2.416-2.783,4.252c-0.625,1.837-0.936,4.261-0.936,7.278c0,4.782,0.846,8.24,2.538,10.359
		c1.411,1.762,3.354,2.642,5.831,2.642c1.878,0,3.434-0.5,4.665-1.504c1.233-1,2.155-2.419,2.772-4.261
		c0.618-1.834,0.93-4.244,0.93-7.235c0-2.527-0.193-4.537-0.578-6.023c-0.385-1.49-0.916-2.754-1.596-3.791
		C1463.176,1061.101,1462.321,1060.311,1461.28,1059.76 M1461.301,1080.301c-0.979,1.392-2.197,2.085-3.645,2.085
		c-1.45,0-2.666-0.692-3.651-2.078c-0.983-1.383-1.479-4.169-1.479-8.351c0-4.188,0.545-7.05,1.627-8.604
		c0.865-1.222,2.021-1.83,3.469-1.83c1.471,0,2.699,0.687,3.682,2.067c0.99,1.379,1.482,4.165,1.482,8.365
		C1462.785,1076.125,1462.293,1078.91,1461.301,1080.301"/>
	<path fill="#FFFFFF" d="M1470.4,1081.6h3.199v3.2h-3.199V1081.6z"/>
	<path fill="#FFFFFF" d="M1470.4,1065.6h3.199v3.2h-3.199V1065.6z"/>
	<path fill="#FFFFFF" d="M1491.184,1059.76c-1.035-0.554-2.242-0.822-3.619-0.822c-1.873,0-3.416,0.498-4.651,1.489
		c-1.229,0.996-2.16,2.416-2.779,4.252c-0.629,1.837-0.938,4.261-0.938,7.278c0,4.782,0.852,8.24,2.543,10.359
		c1.408,1.762,3.354,2.642,5.828,2.642c1.875,0,3.434-0.5,4.662-1.504c1.231-1,2.157-2.419,2.778-4.261
		c0.62-1.834,0.926-4.244,0.926-7.235c0-2.527-0.192-4.537-0.575-6.023c-0.387-1.49-0.918-2.754-1.595-3.791
		C1493.082,1061.101,1492.229,1060.311,1491.184,1059.76 M1491.213,1080.301c-0.984,1.392-2.201,2.085-3.648,2.085
		c-1.445,0-2.664-0.692-3.648-2.078c-0.988-1.383-1.48-4.169-1.48-8.351c0-4.188,0.543-7.05,1.631-8.604
		c0.861-1.222,2.021-1.83,3.465-1.83c1.469,0,2.699,0.687,3.686,2.067c0.988,1.379,1.479,4.165,1.479,8.365
		C1492.691,1076.125,1492.201,1078.91,1491.213,1080.301"/>
	<path fill="#FFFFFF" d="M1507.504,1084.944c1.882,0,3.436-0.501,4.674-1.505c1.228-1,2.155-2.42,2.771-4.261
		c0.618-1.834,0.926-4.245,0.926-7.234c0-2.528-0.19-4.538-0.575-6.024c-0.384-1.491-0.919-2.754-1.593-3.79
		c-0.673-1.042-1.537-1.832-2.572-2.383c-1.036-0.554-2.25-0.822-3.629-0.822c-1.86,0-3.412,0.497-4.643,1.489
		c-1.234,0.995-2.162,2.416-2.783,4.252c-0.627,1.836-0.938,4.261-0.938,7.277c0,4.782,0.849,8.239,2.539,10.359
		C1503.09,1084.063,1505.033,1084.944,1507.504,1084.944 M1504.007,1063.339c0.864-1.221,2.021-1.83,3.462-1.83
		c1.471,0,2.701,0.688,3.689,2.068c0.988,1.38,1.482,4.165,1.482,8.365c0,4.168-0.494,6.954-1.482,8.344
		c-0.988,1.391-2.206,2.085-3.654,2.085c-1.438,0-2.657-0.692-3.646-2.078c-0.985-1.383-1.477-4.168-1.477-8.351
		C1502.381,1067.755,1502.918,1064.893,1504.007,1063.339"/>
	<path fill="#FFFFFF" d="M1188.509,1041.6c8.483,0,14.691-7.147,14.691-15.569v-53.413c0-8.426-6.208-15.816-14.691-15.816H858.138
		c-8.482,0-14.938,7.392-14.938,15.816v53.411c0,8.424,6.454,15.57,14.938,15.57L1188.509,1041.6L1188.509,1041.6z M1113.6,973.52
		l24,22.204V973.52l22.4,22.204V972.8h4.8v48h-4.8v-22.48l-22.4,22.199v-22.199l-24,22.199V973.52z M1004.8,969.281l43.606,27.737
		l-43.606,27.737V969.281z M881.6,972.8h4.802v22.924L908.8,973.52v22.204l24-22.204v47l-24-22.198v22.198L886.4,998.32v22.479
		H881.6V972.8z"/>
	<path fill="#FFFFFF" d="M1502.4,976H1444.8v40h57.601V976 M1497.6,1011.2h-48v-30.4h48V1011.2"/>
	<path fill="#FFFFFF" d="M1457.6,987.2h32v16h-32V987.2z"/>
	<path fill="#FFFFFF" d="M821.008,997.408c0-9.479-7.736-17.167-17.286-17.167c-9.547,0-17.284,7.689-17.284,17.167
		c0,9.479,7.737,17.166,17.284,17.166C813.271,1014.574,821.008,1006.888,821.008,997.408 M791.559,997.408
		c0-6.656,5.456-12.078,12.163-12.078c6.709,0,12.165,5.422,12.165,12.078c0,6.662-5.456,12.085-12.165,12.085
		S791.559,1004.07,791.559,997.408"/>
	<ellipse fill="#FFFFFF" cx="546.656" cy="997.736" rx="12.8" ry="12.722"/>
	<path fill="#FFFFFF" d="M771.2,999.639v-0.637c0-7.549-6.3-13.402-13.901-13.402H587.635c-7.602,0-13.23,5.854-13.23,13.402v0.637
		c0,7.549,5.629,13.161,13.23,13.161h169.664c7.602,0,13.899-5.61,13.899-13.161 M588.75,1009.176
		c-5.745,0-10.402-4.624-10.402-10.331c0-5.709,4.658-10.333,10.402-10.333s10.402,4.623,10.402,10.333
		C599.152,1004.552,594.494,1009.176,588.75,1009.176"/>
	<path fill="#FFFFFF" d="M1260.719,984.064l11.281,6.465V984h25.888c5.957,0,10.987,6.594,10.987,12.8
		c0,6.198-5.032,12.8-10.987,12.8H1267.2v1.602h30.688c7.343,0,13.546-6.817,13.546-14.4c0-7.582-6.203-14.398-13.546-14.398H1272
		V977.6L1260.719,984.064z"/>
	<path fill="#FFFFFF" d="M1382.4,1009.6h-30.307c-5.96,0-10.99-6.602-10.99-12.8c0-6.206,5.032-12.8,10.99-12.8h27.105v6.529
		l11.277-6.465L1379.2,977.6v4.802h-27.105c-7.349,0-13.552,6.816-13.552,14.398c0,7.583,6.203,14.4,13.552,14.4h30.306V1009.6
		L1382.4,1009.6z"/>
	<path fill="#FFFFFF" d="M0,928h2048v12.8H0V928z"/>
</g>
</svg>
