<?xml version="1.0" encoding="utf-8"?>
<!-- Generator: Adobe Illustrator 16.0.0, SVG Export Plug-In . SVG Version: 6.00 Build 0)  -->
<!DOCTYPE svg PUBLIC "-//W3C//DTD SVG 1.1//EN" "http://www.w3.org/Graphics/SVG/1.1/DTD/svg11.dtd">
<svg version="1.1" id="Layer_1" xmlns="http://www.w3.org/2000/svg" xmlns:xlink="http://www.w3.org/1999/xlink" x="0px" y="0px"
	 width="100%" height="100%" viewBox="0 0 1280 800" enable-background="new 0 0 1280 800" xml:space="preserve">
<path fill="none" d="M512.649,771.908"/>
<g>
	<path fill="none" stroke="#231F20" stroke-width="5.1485" stroke-miterlimit="10" d="M405.791,364.091"/>
</g>
<g>
	<path fill="none" stroke="#231F20" stroke-width="5.1485" stroke-miterlimit="10" d="M405.788,364.091"/>
</g>
<g>
	<path fill="none" stroke="#231F20" stroke-width="5.1485" stroke-miterlimit="10" d="M405.791,375.182"/>
</g>
<g>
	<path fill="none" stroke="#231F20" stroke-width="5.1485" stroke-miterlimit="10" d="M405.788,375.182"/>
</g>
<g>
	<path fill="none" stroke="#231F20" stroke-width="5.1485" stroke-miterlimit="10" d="M405.791,386.278"/>
</g>
<g>
	<path fill="none" stroke="#231F20" stroke-width="5.1485" stroke-miterlimit="10" d="M405.788,386.278"/>
</g>
<g>
	<path fill="none" stroke="#231F20" stroke-width="5.1485" stroke-miterlimit="10" d="M405.791,397.365"/>
</g>
<g>
	<path fill="none" stroke="#231F20" stroke-width="5.1485" stroke-miterlimit="10" d="M405.788,397.365"/>
</g>
<g>
	<path fill="none" stroke="#231F20" stroke-width="5.1485" stroke-miterlimit="10" d="M405.791,408.461"/>
</g>
<g>
	<path fill="none" stroke="#231F20" stroke-width="5.1485" stroke-miterlimit="10" d="M405.788,408.461"/>
</g>
<g>
	<path fill="none" stroke="#231F20" stroke-width="5.1485" stroke-miterlimit="10" d="M405.791,419.552"/>
</g>
<g>
	<path fill="none" stroke="#231F20" stroke-width="5.1485" stroke-miterlimit="10" d="M405.788,419.552"/>
</g>
<g>
	<path fill="none" stroke="#231F20" stroke-width="5.1485" stroke-miterlimit="10" d="M405.791,430.645"/>
</g>
<g>
	<path fill="none" stroke="#231F20" stroke-width="5.1485" stroke-miterlimit="10" d="M405.788,430.645"/>
</g>
<g>
	<path fill="none" stroke="#231F20" stroke-width="5.1485" stroke-miterlimit="10" d="M405.791,441.736"/>
</g>
<g>
	<path fill="none" stroke="#231F20" stroke-width="5.1485" stroke-miterlimit="10" d="M405.788,441.736"/>
</g>
<g>
	<polygon fill="#FFFFFF" points="86,655 37,655 37,660.952 86,660.957 86,666.108 37,666.103 37,672 86,672 86,669 112,669 112,660 
		86,660 	"/>
	<polygon fill="#FFFFFF" points="86,688 37,688 37,694 86,694 86,700 37,700 37,705 86,705 86,700 112,700 112,691 86,691 	"/>
	<path fill="#FFFFFF" d="M153.667,491.064c2.824,0,5.116-2.223,5.116-4.958c0-2.737-2.292-4.959-5.116-4.959
		c-2.816,0-5.109,2.222-5.109,4.959C148.558,488.842,150.851,491.064,153.667,491.064z"/>
	<path fill="#FFFFFF" d="M406,448h34v-10h-34v-5H149.403c-0.856,2-2.37,2.366-4.094,2.366c-2.672,0-4.839-2.117-4.839-4.788
		c0-2.672,2.167-4.839,4.839-4.839c1.724,0,3.238,1.261,4.094,2.261H406v4h34v-10h-34l0,0H149.404c-0.856,2-2.37,2.33-4.095,2.33
		c-2.672,0-4.839-2.138-4.839-4.811c0-2.671,2.167-4.813,4.839-4.813c1.725,0,3.239,0.293,4.095,2.293H406v-1h34v-10h-34v5H149.122
		c-0.857,1-2.371,2.287-4.095,2.287c-2.672,0-4.839-2.164-4.839-4.836c0-2.672,2.167-4.78,4.839-4.78
		c1.724,0,3.237,0.329,4.094,2.329H406v-6H149.404c-0.856,1.404-2.37,2.232-4.095,2.232c-2.672,0-4.839-2.179-4.839-4.853
		c0-2.671,2.167-4.737,4.839-4.737c1.724,0,3.238,0.357,4.094,2.357H406v5h34v-10h-34v-1H149.121c-0.857,1-2.371,2.188-4.094,2.188
		c-2.672,0-4.839-2.204-4.839-4.875c0-2.672,2.167-4.708,4.839-4.708c1.725,0,3.238,0.395,4.095,2.395h256.785H440v-10h-34v4H149.12
		c-0.856,1-2.37,2.145-4.094,2.145c-2.672,0-4.839-2.231-4.839-4.903c0-2.671,2.167-5.175,4.839-5.175
		c1.725,0,3.238,0.933,4.095,1.933H406v-4h34v-10h-34v-2H200.357l-22.785-22.327c-2.41,0.938-5.272,0.358-7.221-1.534
		c-2.602-2.526-2.602-6.695,0-9.222c2.595-2.515,6.811-2.552,9.418-0.057c-0.64-0.621-1.249-1.228,0.032,0.015
		c0.012,0.012,0.023,0.016,0.034,0.026c-0.001-0.001-0.002-0.005-0.003-0.007c0.001,0.001,0.002,0.001,0.004,0.002
		c1.918,1.89,2.396,4.441,1.434,6.766L202.445,350H406v2h34v-10h-34v2H223.465l-47.928-46H37v27h110.541
		c1.028-2,3.387-3.968,6.126-3.968c3.684,0,6.682,2.875,6.682,6.451c0,3.573-2.998,6.449-6.682,6.449
		c-2.738,0-5.097-1.931-6.125-3.931H37v32h85.314c0.857-2,2.371-2.51,4.095-2.51c2.671,0,4.838,2.051,4.838,4.722
		c0,2.672-2.167,4.949-4.838,4.949c-1.725,0-3.238-1.162-4.095-2.162H37v5h85.314c0.857-1,2.371-1.957,4.095-1.957
		c2.671,0,4.838,2.316,4.838,4.988s-2.167,5.031-4.838,5.031c-1.725,0-3.237-1.063-4.095-2.063H37v6h85.313
		c0.857-2,2.371-2.413,4.096-2.413c2.671,0,4.838,2.093,4.838,4.766c0,2.672-2.167,4.874-4.838,4.874
		c-1.725,0-3.238-1.227-4.095-2.227H37v6h85.328c0.859-2,2.366-2.356,4.081-2.356c2.671,0,4.838,2.109,4.838,4.78
		c0,2.673-2.167,4.85-4.838,4.85c-1.733,0-3.253-0.87-4.107-2.273H37v6h85.314c0.857-2,2.37-2.315,4.095-2.315
		c2.671,0,4.838,2.134,4.838,4.806c0,2.672-2.167,4.802-4.838,4.802c-1.725,0-3.239-1.292-4.096-2.292H37v6h85.313
		c0.857-2,2.371-2.273,4.096-2.273c2.671,0,4.838,2.161,4.838,4.832c0,2.673-2.167,4.771-4.838,4.771
		c-1.725,0-3.239-0.33-4.096-2.33H37v6h85.314c0.857-1,2.37-2.234,4.095-2.234c2.671,0,4.838,2.18,4.838,4.852
		s-2.167,4.741-4.838,4.741c-1.725,0-3.238-0.358-4.095-2.358H37v6h85.336c0.86-1,2.363-2.165,4.073-2.165
		c2.671,0,4.838,2.219,4.838,4.89s-2.167,4.707-4.838,4.707c-1.738,0-3.262-1.431-4.115-2.431H37v6h369V448z M179.971,323.028
		C180.519,323.56,180.934,323.963,179.971,323.028L179.971,323.028z M145.026,359.494c1.725,0,3.238,0.506,4.095,2.506H406v5
		H149.121c-0.857,1-2.37,2.092-4.095,2.092c-2.672,0-4.839-2.117-4.839-4.789S142.354,359.494,145.026,359.494z M145.309,446.415
		c-2.672,0-4.839-2.111-4.839-4.782s2.167-4.86,4.839-4.86c1.724,0,3.238,1.227,4.094,2.227H406v5H149.403
		C148.547,445,147.033,446.415,145.309,446.415z"/>
	<path fill="#FFFFFF" d="M109,722H86l0,0H37v31.701c0,4.949,3.896,8.299,8.843,8.299H110v-15h-1V722z"/>
	<path fill="#FFFFFF" d="M204.539,495H406l0,0h34v-9h-34v3H193.593c-1.028,2-3.387,3.752-6.127,3.752
		c-3.681,0-6.679-2.994-6.679-6.566c0-3.576,2.999-6.791,6.679-6.791c2.741,0,5.1,1.605,6.128,3.605H406v-4h34v-9h-34v-3H233.085
		c-0.95,2-2.924,2.981-5.204,2.981c-3.205,0-5.807-2.728-5.807-5.934c0-3.205,2.602-6.042,5.807-6.042
		c2.28,0,4.254,0.995,5.204,2.995H406v3h34v-10h-34v1H37v6h158.197l11.431,11H406v5H204.539l-11.43-10H37v16h110.542
		c1.029-2,3.387-3.634,6.125-3.634c3.684,0,6.682,3.034,6.682,6.609c0,3.572-2.998,6.701-6.682,6.701
		c-2.738,0-5.096-1.676-6.125-3.676H37v17h156.109L204.539,495z"/>
	<path fill="#FFFFFF" d="M153.667,332.411c2.824,0,5.116-2.226,5.116-4.961c0-2.739-2.292-4.961-5.116-4.961
		c-2.816,0-5.109,2.222-5.109,4.961C148.558,330.185,150.851,332.411,153.667,332.411z"/>
	<path fill="#FFFFFF" d="M916.416,702.941c-2.82,0-5.113,2.226-5.113,4.962c0,2.735,2.292,4.957,5.113,4.957
		c2.816,0,5.109-2.222,5.109-4.957C921.525,705.167,919.232,702.941,916.416,702.941z"/>
	<path fill="#FFFFFF" d="M946.99,691.847c-2.82,0-5.116,2.226-5.116,4.962c0,2.734,2.295,4.961,5.116,4.961
		c2.817,0,5.106-2.227,5.106-4.961C952.097,694.072,949.808,691.847,946.99,691.847z"/>
	<polygon fill="#FFFFFF" points="1175,644 1133,644 1133,655 1175,655 1175,650 1244,650 1244,644 1175,644 	"/>
	<path fill="#FFFFFF" d="M899.302,712.86c2.82,0,5.258-2.222,5.258-4.957c0-2.736-2.512-4.962-5.332-4.962
		c-2.468,0-4.229,1.709-5.229,3.974v1.977C895,711.154,896.834,712.86,899.302,712.86z"/>
	<path fill="#FFFFFF" d="M774.215,756.526c-2.816,0-5.103,1.956-5.103,4.692c0,0.361,0.041,0.782,0.116,0.782h9.985
		c0.075,0,0.116-0.41,0.116-0.77C779.33,758.493,777.037,756.526,774.215,756.526z"/>
	<path fill="#FFFFFF" d="M438.847,736.82c-1.995,1.934-1.995,5.081,0,7.015c1.99,1.934,5.233,1.934,7.225,0
		c0.003-0.003,0.006-0.006,0.009-0.01l0.188-0.194c1.795-1.946,1.729-4.944-0.197-6.812
		C444.08,734.884,440.837,734.884,438.847,736.82z"/>
	<path fill="#FFFFFF" d="M720,236h3v35h9v-35h6v-92.119l-35-33.114V38h-6v25.585c2,0.989,4.048,3.291,4.048,5.965
		c0,3.574-3.007,6.482-6.688,6.482c-3.683,0-6.588-2.908-6.588-6.482c0-2.702,1.229-5.022,4.229-5.995V38h-6.452l-0.008,82.006
		L720,153.171V236z M692,116.308V97.211c-3-0.98-4.082-3.292-4.082-5.981c0-3.574,3.012-6.484,6.696-6.484
		c3.683,0,6.582,2.91,6.582,6.484c0,2.689-1.195,5.001-4.195,5.981v16.918l34,33.113V236h-5v-86.579L692,116.308z"/>
	<polygon fill="#FFFFFF" points="609,271 619,271 619,236 624,236 624,38 618,38 618,236 612,236 612,38 606,38 606,236 609,236 	
		"/>
	<path fill="#FFFFFF" d="M504.337,60L572,125.501V236h5v35h10v-35h3V38h-33.379c2.718,0,4.587,2.972,4.587,5.875
		c0,2.687-2.208,4.683-4.208,5.664v22.233l27,25.477V236h-6V99.428l-26-25.476V49.541c-2-0.98-4.075-2.978-4.075-5.666
		c0-2.903,2.009-5.875,4.724-5.875H335.554l23.069,22H504.337z"/>
	<rect x="652" y="38" fill="#FFFFFF" width="6" height="198"/>
	<polygon fill="#FFFFFF" points="642,271 652,271 652,236 647,236 647,38 640,38 640,236 642,236 	"/>
	<path fill="#FFFFFF" d="M549.526,43.56c0,2.736,2.287,4.959,5.107,4.959c2.823,0,5.115-2.224,5.115-4.959
		c0-2.737-2.292-4.961-5.115-4.961C551.813,38.599,549.526,40.823,549.526,43.56z"/>
	<rect x="1175" y="655" fill="#FFFFFF" width="69" height="6"/>
	<path fill="#FFFFFF" d="M699.717,91.229c0-2.736-2.29-4.961-5.107-4.961c-2.818,0-5.109,2.225-5.109,4.961
		c0,2.735,2.292,4.961,5.109,4.961C697.428,96.19,699.717,93.965,699.717,91.229z"/>
	<polygon fill="#FFFFFF" points="467.319,111 527,168.847 527,236 529,236 529,271 538,271 538,236 544,236 544,137.655 492.332,87 
		346.386,87 305,47.401 305,38 231,38 231,83.766 246.868,100 471.152,100 538,164.415 538,236 533,236 533,166.594 469.063,105 
		244.779,105 225,85.945 225,38 219,38 219,87.821 243.295,111 	"/>
	<polygon fill="#FFFFFF" points="238.652,306 406,306 406,304 440,304 440,294 406,294 406,289 246.366,289 199.205,243 37,243 
		37,249 196.127,249 243.549,295 406,295 406,300 241.461,300 194.04,254 37,254 37,260 190.776,260 	"/>
	<polygon fill="#FFFFFF" points="225.553,339 406,339 406,336 440,336 440,326 406,326 406,322 232.489,322 184.418,276 37,276 
		37,282 181.929,282 229.938,328 406,328 406,333 227.849,333 179.841,287 37,287 37,293 177.625,293 	"/>
	<polygon fill="#FFFFFF" points="458,214.497 458,236 464,236 464,271 474,271 474,236 476,236 476,209.71 429.518,165 37,165 
		37,169 427.432,169 470,210.697 470,236 465,236 465,212.876 425.344,175 37,175 37,180 422.774,180 	"/>
	<path fill="#FFFFFF" d="M115.528,96.19c0,2.735,2.289,4.961,5.107,4.961c2.82,0,5.115-2.226,5.115-4.961s-2.295-4.961-5.115-4.961
		C117.817,91.229,115.528,93.455,115.528,96.19z"/>
	<path fill="#FFFFFF" d="M481,207.531V236h-1v35h10v-35h-3v-29.114L433.266,154H197.572l-35.848-34h-34.96
		c-1.027,2-3.385,3.726-6.128,3.726c-3.681,0-6.677-3.006-6.677-6.581c0-3.574,2.996-6.771,6.677-6.771
		c2.743,0,5.101,1.627,6.128,3.627h37.049l35.848,35h235.693L492,204.707V236h4v35h10v-35h4v-60.61L460.167,127H236.021L203,94.542
		V38h-6.275l-0.009,58.472L233.977,132h223.329L504,177.734V236h-5v-56.087L455.22,138H231.889l-40.32-38.923L191.577,38H123v52.208
		c3,0.98,4.205,3.292,4.205,5.983c0,3.575-2.937,6.482-6.624,6.482c-3.681,0-6.676-2.907-6.676-6.482
		c0-2.689,2.095-5.001,4.095-5.981V38H45.843C40.896,38,37,41.281,37,46.229V159h394.606L481,207.531z"/>
	<rect x="1099" y="742" fill="#FFFFFF" width="11" height="20"/>
	<path fill="#FFFFFF" d="M780.479,645.659c0,2.737,2.294,4.962,5.115,4.962s5.108-2.225,5.108-4.962c0-2.735-2.288-4.96-5.108-4.96
		S780.479,642.924,780.479,645.659z"/>
	<path fill="#FFFFFF" d="M769.113,739.831c0,2.735,2.286,4.961,5.103,4.961c2.822,0,5.115-2.226,5.115-4.961
		c0-2.736-2.293-4.962-5.115-4.962C771.399,734.869,769.113,737.095,769.113,739.831z"/>
	<polygon fill="#FFFFFF" points="982,733 873.854,733 843.065,762 851.149,762 875.786,739 982,739 982,738 1025,738 1025,733 
		982,733 	"/>
	<path fill="#FFFFFF" d="M870.161,701.77c2.817,0,5.104-2.227,5.104-4.961c0-2.736-2.288-4.962-5.104-4.962
		c-2.82,0-5.111,2.226-5.111,4.962C865.05,699.543,867.341,701.77,870.161,701.77z"/>
	<polygon fill="#FFFFFF" points="1133,738 1175,738 1175,739 1244,739 1244,733 1175,733 1175,728 1133,728 	"/>
	<path fill="#FFFFFF" d="M1061.54,529.826c-2.818,0-5.111,2.226-5.111,4.962c0,2.735,2.292,4.96,5.111,4.96
		c2.817,0,5.109-2.225,5.109-4.96C1066.649,532.052,1064.357,529.826,1061.54,529.826z"/>
	<path fill="#FFFFFF" d="M1144,129h-33.168c-3.407,6-8.832,11.315-14.832,14.605V176h-1v106.585L1054.395,322H905v4h-37v10h37v3
		h190.066L1142,293.91v-85.528L1188.96,162H1244v-6h-57.683L1135,206.481v85.731L1092.441,333H905v-5h185.353L1130,290.034v-85.728
		L1184.229,151H1244v-22H1144L1144,129z"/>
	<polygon fill="#FFFFFF" points="1159,214.985 1159,299.924 1102.22,356 905,356 905,358 868,358 868,368 905,368 905,372 
		1110.573,372 1177,308.42 1177,222.982 1205.494,195 1244,195 1244,189 1202.233,189 1171,220.098 1171,305.06 1107.277,367 
		905,367 905,362 1105.189,362 1166,302.881 1166,217.919 1200.146,184 1244,184 1244,179 1196.901,179 	"/>
	<path fill="#FFFFFF" d="M327.177,636.376c-2.818,0-5.113,2.226-5.113,4.961c0,2.736,2.295,4.962,5.113,4.962
		c2.816,0,5.107-2.226,5.107-4.962C332.284,638.602,329.994,636.376,327.177,636.376z"/>
	<path fill="#FFFFFF" d="M1235.194,38H1095v11h1v32.145c6,3.292,11.419,7.855,14.827,14.855H1144l0,0h100V46.229
		C1244,41.281,1240.144,38,1235.194,38z"/>
	<path fill="#FFFFFF" d="M293.207,616.307c-2.82,0-5.113,2.223-5.113,4.961c0,2.736,2.292,4.961,5.113,4.961
		c2.817,0,5.109-2.225,5.109-4.961C298.316,618.529,296.024,616.307,293.207,616.307z"/>
	<polygon fill="#FFFFFF" points="905,438 868,438 868,448 905,448 905,450 1244,450 1244,444 905,444 905,439 1244,439 1244,433 
		905,433 	"/>
	<polygon fill="#FFFFFF" points="1133,705 1175,705 1175,705 1244,705 1244,700 1175,700 1175,694 1133,694 	"/>
	<polygon fill="#FFFFFF" points="1175,711 1133,711 1133,721 1175,721 1175,716 1244,716 1244,711 1175,711 	"/>
	<rect x="1175" y="722" fill="#FFFFFF" width="69" height="6"/>
	<polygon fill="#FFFFFF" points="982,744 877.875,744 858.504,762 1024,762 1024,744 982,744 	"/>
	<polygon fill="#FFFFFF" points="1175,661 1133,661 1133,671 1175,671 1175,672 1244,672 1244,666 1175,666 	"/>
	<polygon fill="#FFFFFF" points="1175,678 1133,678 1133,688 1175,688 1175,683 1244,683 1244,677 1175,677 	"/>
	<rect x="1175" y="688" fill="#FFFFFF" width="69" height="6"/>
	<rect x="1116" y="742" fill="#FFFFFF" width="11" height="20"/>
	<path fill="#FFFFFF" d="M1087.141,666H1069.8c-3.512,0-5.8,4.545-5.8,8.733V686h-7v28h43v-28h-7v-11.267
		C1093,670.545,1090.653,666,1087.141,666z M1081,703h-5v-9h5V703z M1090,686h-24v-11.267c0-2.513,1.961-4.733,3.8-4.733h17.341
		c1.837,0,2.859,2.221,2.859,4.733V686z"/>
	<rect x="1030" y="742" fill="#FFFFFF" width="12" height="20"/>
	<path fill="#FFFFFF" d="M689.241,69.55c0,2.736,2.292,4.961,5.109,4.961c2.817,0,5.107-2.226,5.107-4.961
		c0-2.736-2.29-4.961-5.107-4.961C691.533,64.589,689.241,66.814,689.241,69.55z"/>
	<rect x="1047" y="742" fill="#FFFFFF" width="12" height="20"/>
	<rect x="1064" y="742" fill="#FFFFFF" width="12" height="20"/>
	<rect x="1081" y="742" fill="#FFFFFF" width="12" height="20"/>
	<polygon fill="#FFFFFF" points="86,711 37,711 37,716 86,716 86,716 112,716 112,707 86,707 	"/>
	<polygon fill="#FFFFFF" points="86,677 37,677 37,683 86,683 86,685 112,685 112,675 86,675 	"/>
	<polygon fill="#FFFFFF" points="86,644 37,644 37,650 86,650 86,654 112,654 112,644 86,644 	"/>
	<polygon fill="#FFFFFF" points="166,722 166,722 144,722 144,747 143,747 143,762 227,762 227,761.25 186.247,722 	"/>
	<polygon fill="#FFFFFF" points="123,719 115,719 115,747 115,747 115,762 124,762 124,747 123,747 	"/>
	<polygon fill="#FFFFFF" points="138,719 129,719 129,747 129,747 129,762 138,762 138,747 138,747 	"/>
	<polygon fill="#FFFFFF" points="406,528 406,527 440,527 440,518 406,518 406,522 182.347,522 129,573.745 129,613 129,613 
		129,641 138,641 138,613 138,613 138,573.721 185.022,528 	"/>
	<polygon fill="#FFFFFF" points="234.577,317 406,317 406,320 440,320 440,310 406,310 406,311 236.563,311 188.688,265 37,265 
		37,271 186.506,271 	"/>
	<path fill="#FFFFFF" d="M120.635,112.092c-2.818,0-5.107,2.226-5.107,4.961s2.289,4.961,5.107,4.961
		c2.82,0,5.115-2.226,5.115-4.961S123.455,112.092,120.635,112.092z"/>
	<polygon fill="#FFFFFF" points="447,218.58 447,236 447,236 447,271 458,271 458,236 453,236 453,216.675 420.687,185 37,185 
		37,190 417.965,190 	"/>
	<path fill="#FFFFFF" d="M171.459,323.941c-1.992,1.934-1.992,5.08,0.002,7.015c1.975,1.917,5.176,1.932,7.177,0.049l0.309-0.319
		c1.73-1.947,1.646-4.898-0.262-6.745C176.694,322.007,173.454,322.007,171.459,323.941z"/>
	<path fill="#FFFFFF" d="M187.466,481.148c-2.818,0-5.107,2.222-5.107,4.959c0,2.735,2.29,4.958,5.107,4.958
		c2.817,0,5.11-2.223,5.11-4.958C192.576,483.37,190.283,481.148,187.466,481.148z"/>
	<polygon fill="#FFFFFF" points="771,271 781,271 781,236 783,236 783,38 777,38 777,236 772,236 772,38 765,38 765,236 771,236 	
		"/>
	<polygon fill="#FFFFFF" points="1147,210.558 1147,296.089 1097.154,344 905,344 905,342 868,342 868,352 905,352 905,350 
		1100.131,350 1154,297.745 1154,212.807 1194.813,174 1244,174 1244,168 1191.048,168 	"/>
	<path fill="#FFFFFF" d="M1212.817,300.04c-0.013,0.012-0.027,0.024-0.04,0.037C1212.293,300.546,1211.846,300.98,1212.817,300.04z"
		/>
	<path fill="#FFFFFF" d="M1144,115h-28.98c-0.229,3-0.745,5-1.513,8H1144l0,0h100v-8H1144L1144,115z"/>
	<path fill="#FFFFFF" d="M1212.817,293.025c-1.995-1.937-5.231-1.937-7.226-0.003c-1.928,1.871-1.994,4.868-0.197,6.812l0.15,0.156
		c0.016,0.015,0.031,0.031,0.046,0.047c1.981,1.924,5.188,1.936,7.186,0.04c0.026-0.025,0.052-0.051,0.078-0.076
		C1214.809,298.061,1214.797,294.945,1212.817,293.025z"/>
	<polygon fill="#FFFFFF" points="166,711 166,707 141,707 141,716 166,716 166,716 188.334,716 232,759.075 232,762 238,762 
		238,756.414 190.954,711 	"/>
	<path fill="#FFFFFF" d="M1175,744h-42v18h102.194c4.949,0,8.806-3.35,8.806-8.299V744H1175L1175,744z"/>
	<path fill="#FFFFFF" d="M1144,102h-30.494c0.769,2,1.284,5,1.514,7H1144v1h100v-9h-100V102z"/>
	<polygon fill="#FFFFFF" points="905,422 868,422 868,432 905,432 905,428 1244,428 1244,422.108 905,422.128 	"/>
	<polygon fill="#FFFFFF" points="868,416 905,416 905,416.978 1244,416.957 1244,411 905,411 905,406 868,406 	"/>
	<path fill="#FFFFFF" d="M258.542,646.299c2.818,0,5.108-2.226,5.108-4.962c0-2.735-2.29-4.961-5.108-4.961
		c-2.82,0-5.109,2.226-5.109,4.961C253.434,644.073,255.723,646.299,258.542,646.299z"/>
	<rect x="905" y="400" fill="#FFFFFF" width="339" height="6"/>
	<path fill="#FFFFFF" d="M1182,225.161v85.438L1112.662,378H905v-4h-37v10h37v-0.298l210.52-0.003l87.411-84.747
		c-0.965-2.331-0.439-5.099,1.498-6.988c-2.564,2.485,2.613-2.523,0.047-0.025c2.6-2.518,6.839-2.515,9.436,0.01
		c2.608,2.525,2.612,6.638,0.004,9.164c-1.946,1.893-4.808,2.368-7.215,1.429l-89.093,86.308L905,388.854V390h-37v10h37v-5h339V200
		h-36.418L1182,225.161z"/>
	<path fill="#FFFFFF" d="M1212.855,300c-0.013,0.013-0.025,0.026-0.038,0.04C1213.788,299.096,1213.34,299.53,1212.855,300z"/>
	<path fill="#FFFFFF" d="M406,517v-6h34v-9h-34v-2H206.628l-11.431,11H37v128h49v-1h23v-25h1v-77.317
		c-2-0.949-3.347-2.923-3.347-5.205c0-3.205,2.547-5.808,5.756-5.808c3.208,0,5.819,2.603,5.819,5.808
		c0,2.281-1.228,4.256-3.228,5.205V613l0,0v28h8v-28h1v-41.431L180.259,517H406z M227.881,502.629c2.28,0,4.254,1.371,5.204,3.371
		H406v5H233.085c-0.95,2-2.924,3.166-5.204,3.166c-3.205,0-5.807-2.561-5.807-5.767
		C222.074,505.193,224.676,502.629,227.881,502.629z"/>
	<path fill="#FFFFFF" d="M1082,77.107c3,0.222,5,0.738,8,1.517V49l0,0V38h-9v11h1V77.107z"/>
	<path fill="#FFFFFF" d="M905,317h147.306L1090,280.406V176l0,0v-29.875c-3,0.77-5,1.282-8,1.504V176h-1v103.898L1049,311H905v-1
		h-37v10h37V317z"/>
	<path fill="#FFFFFF" d="M1002.441,143.356c0-2.739-2.289-4.961-5.111-4.961c-2.817,0-5.109,2.222-5.109,4.961
		c0,2.735,2.292,4.959,5.109,4.959C1000.152,148.315,1002.441,146.091,1002.441,143.356z"/>
	<polygon fill="#FFFFFF" points="830,236 828,236 828,38 822,38 822,236 820,236 820,271 830,271 	"/>
	<path fill="#FFFFFF" d="M1068,78.613c2-0.769,5-1.28,8-1.502V49l0,0V38h-9v11h1V78.613z"/>
	<path fill="#FFFFFF" d="M997.33,291.406c2.822,0,5.111-2.226,5.111-4.961c0-2.736-2.289-4.961-5.111-4.961
		c-2.817,0-5.109,2.226-5.109,4.961C992.22,289.181,994.513,291.406,997.33,291.406z"/>
	<path fill="#FFFFFF" d="M836,271h10v-35h5v-74.205L904.833,110H1013v-1h29.36c0.229-2,0.744-5,1.512-7H1013v-1H905.475L845,159.967
		V236h-5v-78.212L903.387,96H1013l0,0h33.548c3.41-7,8.452-11.581,15.452-14.872V49l0,0V38h-62v36.118
		c2,0.98,4.059,3.291,4.059,5.98c0,3.574-2.998,6.483-6.685,6.483c-3.683,0-6.581-2.91-6.581-6.483c0-2.689,1.207-5,4.207-5.98V38
		H834v198h2V271z"/>
	<path fill="#FFFFFF" d="M992.22,80.099c0,2.738,2.292,4.96,5.109,4.96c2.822,0,5.111-2.222,5.111-4.96
		c0-2.735-2.289-4.959-5.111-4.959C994.513,75.14,992.22,77.364,992.22,80.099z"/>
	<polygon fill="#FFFFFF" points="797,236 794,236 794,38 788,38 788,236 787,236 787,271 797,271 	"/>
	<polygon fill="#FFFFFF" points="462.256,122 515,173.211 515,236 512,236 512,271 522,271 522,236 522,236 522,171.026 
		465.231,116 241.206,116 214,90 214,38 208,38 208,92.37 238.115,122 	"/>
	<path fill="#FFFFFF" d="M1013,123L1013,123h30.873c-0.769-3-1.283-5-1.513-8H1013l0,0H906.922L856,163.974V236h-4v35h10v-35h1
		v-69.771L906.699,123H1013z"/>
	<path fill="#FFFFFF" d="M1062.271,98.355l7.53,13.158l-7.606,13.277c0,0-3.878,6.057,2.013,9.429
		c5.892,3.369,9.164-3.069,9.164-3.069l5.597-9.779l5.957,10.438c0,0,3.368,5.728,8.997,2.304c5.25-3.199,2.217-8.675,2.217-8.675
		l-7.999-13.917l7.531-13.155c0,0,3.845-6.082-2.003-9.427c-5.843-3.345-9.139,3.04-9.139,3.04l-5.562,9.703l-5.542-9.704
		c0,0-3.295-6.389-9.14-3.049C1058.439,92.269,1062.271,98.355,1062.271,98.355z"/>
	<polygon fill="#FFFFFF" points="804,271 814,271 814,236 817,236 817,38 811,38 811,236 806,236 806,38 800,38 800,236 804,236 	
		"/>
	<polygon fill="#FFFFFF" points="668,271 668,236 669,236 669,38 663,38 663,236 658,236 658,271 	"/>
	<path fill="#FFFFFF" d="M684,236h-3v-41.923c-2-0.95-3.399-2.922-3.399-5.203c0-3.206,2.512-5.807,5.721-5.807
		s5.858,2.601,5.858,5.807c0,2.282-1.18,4.256-3.18,5.205V236h4v35h10v-35h3v-41.921c-1-0.949-3.03-2.923-3.03-5.205
		c0-3.206,2.707-5.807,5.912-5.807s6.082,2.601,6.082,5.807c0,2.282-0.964,4.256-2.964,5.205V236h-2v35h9v-35h-1v-80.654
		l-34.538-33.166L680.399,38H674v198l0,0v35h10V236z M694.621,160.984c3.628,0,6.479,2.951,6.479,6.58
		c0,2.716-1.101,5.052-4.101,6.055V236h-5v-62.38c-2-1.004-3.982-3.34-3.982-6.055C688.018,163.936,690.993,160.984,694.621,160.984
		z"/>
	<polygon fill="#FFFFFF" points="743,236 739,236 739,271 749,271 749,236.451 749,138.938 715,106.34 715,38 709,38 709,108.589 
		743,141.702 	"/>
	<polygon fill="#FFFFFF" points="636,236 635,236 635,38 629,38 629,236 626,236 626,271 636,271 	"/>
	<polygon fill="#FFFFFF" points="603,236 601,236 601,38 595,38 595,236 593,236 593,271 603,271 	"/>
	<polygon fill="#FFFFFF" points="499.612,71 561,130.357 561,236.451 561,271 571,271 571,236 567,236 567,127.679 502.249,65 
		356.535,65 329.061,38.602 329.048,38 322,38 322,40.518 353.788,71 	"/>
	<polygon fill="#FFFFFF" points="494.42,82 549,135.476 549,236 545,236 545,271 554,271 554,236 556,236 556,132.536 497.524,76 
		351.699,76 317,42.697 317,38 310,38 310,45.222 348.474,82 	"/>
	<polygon fill="#FFFFFF" points="754,236 755,236 755,271 765,271 765,236 760,236 760,38 720,38 720,104.15 754,136.747 	"/>
	<path fill="#FFFFFF" d="M749.083,328H726v132h23.083c36.1,0,65.458-29.685,65.458-65.781C814.542,357.901,785.183,329,749.083,328z
		"/>
	<path fill="#FFFFFF" d="M860,279H448v248h412V279z M606,408.598c0,33.926-27.575,61.546-61.716,61.546
		c-33.707,0-61.284-27.621-61.284-61.546v-85.464c0-2.827,2.563-5.22,5.392-5.22c3.042,0,5.608,2.394,5.608,5.22v85.464
		c0,28.053,22.947,50.673,50.783,50.889C573.054,459.271,596,436.65,596,408.598v-85.464c0-2.827,2.064-5.22,4.891-5.22
		c3.045,0,5.109,2.394,5.109,5.22V408.598z M661,464.924c0,2.829-2.063,5.22-5.108,5.22c-2.826,0-4.892-2.392-4.892-5.22v-141.79
		c0-2.827,2.065-5.22,4.892-5.22c3.045,0,5.108,2.394,5.108,5.22V464.924z M749.083,470h-28.054h-0.869
		c-2.611,0-5.16-2.248-5.16-5.076v-141.79c0-2.827,2.769-5.134,5.594-5.134h0.655h27.834c41.971,0,76.114,34.245,76.114,76.218
		C825.197,436.189,791.054,470,749.083,470z"/>
	<path fill="#FFFFFF" d="M868,270.568V272h37v1h63.651L995,247.445v-98.109c-3-0.98-4.229-3.291-4.229-5.98
		c0-3.574,2.916-6.482,6.6-6.482c3.688,0,6.708,2.908,6.708,6.482c0,2.69-2.079,5-4.079,5.98v100.288L970.739,278H905l0,0h-37v10h37
		v-4h86.205c1.027-2,3.384-3.976,6.125-3.976c3.688,0,6.677,2.881,6.677,6.455c0,3.573-2.989,6.458-6.677,6.458
		c-2.74,0-5.097-1.938-6.125-3.938H905v5h-37v10h37v2h141.914L1076,277.72V176l0,0v-28.369c-3-0.221-6-0.732-8-1.502V176h-1v101.401
		L1043.804,300H905v-5h136.716L1062,275.223V176l0,0v-32.391c-7-3.29-12.041-8.609-15.451-14.609H1013l0,0H908.788L868,168.405V236
		l0,0V270.568z M912.405,176.822c2.284,0,4.256,1.178,5.205,3.178h28.587c0.95-2,2.925-3.162,5.206-3.162
		c3.205,0,5.806,2.607,5.806,5.814s-2.601,5.703-5.806,5.703c-2.281,0-4.256-1.354-5.206-3.354H917.61
		c-0.949,2-2.921,3.375-5.205,3.375c-3.208,0-5.808-2.564-5.808-5.771S909.196,176.822,912.405,176.822z M912.405,196.503
		c2.284,0,4.256,1.497,5.205,3.497h28.587c0.95-2,2.925-3.488,5.206-3.488c3.205,0,5.806,2.46,5.806,5.667
		c0,3.207-2.601,5.931-5.806,5.931c-2.281,0-4.256-1.11-5.206-3.11H917.61c-0.949,2-2.921,3.055-5.205,3.055
		c-3.208,0-5.808-2.578-5.808-5.785S909.196,196.503,912.405,196.503z M912.405,215.65c2.287,0,4.262,1.35,5.209,3.35h28.58
		c0.948-2,2.926-3.354,5.21-3.354c3.205,0,5.806,2.552,5.806,5.759c0,3.206-2.601,5.825-5.806,5.825
		c-2.276,0-4.246-1.229-5.199-3.229h-28.602c-0.951,2-2.92,3.183-5.198,3.183c-3.208,0-5.808-2.525-5.808-5.732
		C906.597,218.244,909.196,215.65,912.405,215.65z"/>
	<path fill="#FFFFFF" d="M248.454,284H406v4h34v-10h-34l0,0h-99.729l-32.028-31.122c-2.015,0.713-4.349,0.268-5.986-1.321
		c-2.302-2.234-2.357-5.921-0.123-8.223c2.234-2.302,5.913-2.364,8.213-0.131c1.638,1.59,2.137,4.022,1.483,6.058L308.358,273H406
		v-1h34v-1h1v-35h1v-15.242L415.876,196H37v42h164.293L248.454,284z M322.771,228.097c2.741,0,5.102,1.903,6.131,3.903h60.191
		c1.029-2,3.39-3.898,6.132-3.898c3.68,0,6.676,2.91,6.676,6.485c0,3.573-2.996,6.394-6.676,6.394c-2.742,0-5.103-1.98-6.132-3.98
		h-60.191c-1.029,2-3.39,3.996-6.131,3.996c-3.685,0-6.678-2.898-6.678-6.471C316.093,230.95,319.086,228.097,322.771,228.097z"/>
	<path fill="#FFFFFF" d="M395.225,239.555c2.814,0,5.107-2.226,5.107-4.961s-2.293-4.961-5.107-4.961
		c-2.827,0-5.116,2.226-5.116,4.961S392.397,239.555,395.225,239.555z"/>
	<path fill="#FFFFFF" d="M322.771,239.555c2.826,0,5.112-2.226,5.112-4.961s-2.287-4.961-5.112-4.961
		c-2.818,0-5.111,2.226-5.111,4.961S319.953,239.555,322.771,239.555z"/>
	<polygon fill="#FFFFFF" points="700,536 690,536 690,570 686,570 686,762 692,762 692,570 697,570 697,762 703,762 703,570 
		700,570 	"/>
	<polygon fill="#FFFFFF" points="674,536 674,570 674,570 674,762 681,762 681,570 684,570 684,536 	"/>
	<polygon fill="#FFFFFF" points="466.55,705 522,652.053 522,570 522,570 522,536 512,536 512,570 515,570 515,649.792 464.125,700 
		311.004,700 267,742.432 267,762 273,762 273,747.064 314.1,705 	"/>
	<path fill="#FFFFFF" d="M480,570h1v66.16l-31.063,29.977L166,666.113v-5.149l281.922,0.021l28.078-27V570h-2v-34h-10v34h-6v58.562
		L442.546,644H333.304c-1.029,2-3.389,3.867-6.127,3.867c-3.685,0-6.68-2.937-6.68-6.51c0-3.575,2.995-6.376,6.68-6.376
		c2.738,0,5.098,2.019,6.127,4.019h107.153L453,626.387V570h5v-34h-11v34l0,0v11.917v11.19L415.326,624H299.337
		c-1.03,2-3.392,3.827-6.13,3.827c-3.681,0-6.682-2.952-6.682-6.526c0-3.575,3.001-6.841,6.682-6.841
		c2.74,0,5.102,1.541,6.131,3.541h113.899L442,590.932v-9.014V570h-1v-34h-1v-2h-34v-1H187.114L143,575.896V613h1v25h22v1h86.415
		c1.028-2,3.387-4.024,6.127-4.024c3.681,0,6.677,2.846,6.677,6.422c0,3.573-2.996,6.495-6.677,6.495
		c-2.74,0-5.099-1.892-6.127-3.892H166l0,0h-25v10h25v-4h278.18L465,630.059V570h5v62.234L446.268,655H166v5h-25v9h25v3h286.544
		L487,638.287V570h3v-34h-10V570z M246.446,595.806c0,3.205-2.49,5.808-5.699,5.808c-3.208,0-5.89-2.603-5.89-5.808
		c0-2.283,1.143-4.257,3.143-5.205v-27.096c-2-0.949-3.094-2.922-3.094-5.206c0-3.205,2.673-5.808,5.881-5.808
		c3.209,0,5.63,2.603,5.63,5.808c0,2.283-1.417,4.257-3.417,5.206V590.6C245,591.549,246.446,593.523,246.446,595.806z
		 M266.418,595.806c0,3.205-2.505,5.808-5.71,5.808c-3.205,0-5.87-2.603-5.87-5.808c0-2.282,2.162-4.256,3.162-5.205v-27.097
		c-1-0.949-3.121-2.922-3.121-5.205c0-3.205,2.664-5.808,5.869-5.808c3.206,0,5.649,2.603,5.649,5.808
		c0,2.283-1.397,4.256-3.397,5.205v27.098C265,591.55,266.418,593.523,266.418,595.806z M286.348,595.806
		c0,3.205-2.539,5.808-5.744,5.808s-5.817-2.603-5.817-5.808c0-2.282,1.213-4.256,3.213-5.205v-27.097
		c-2-0.949-3.191-2.922-3.191-5.205c0-3.205,2.629-5.808,5.834-5.808c3.206,0,5.702,2.603,5.702,5.808
		c0,2.283-1.346,4.256-3.346,5.205v27.097C285,591.55,286.348,593.523,286.348,595.806z"/>
	<path fill="#FFFFFF" d="M462.037,694L510,647.616V570h-4v-34h-10v34h-4v70.462L454.632,677H166v-2h-25v10h25v-2h48.468
		l13.297,12.979c2.017-0.715,4.352-0.251,5.99,1.339c2.301,2.234,2.354,5.931,0.122,8.232c-2.234,2.301-5.911,2.365-8.212,0.131
		c-1.638-1.589-2.136-4.052-1.483-6.088L212.379,688H166v3h-25v9h25v5h27.042L243,754.238V762h7v-10.229L195.676,700H166v-6h31.765
		l0.844,0.845L255,749.596V762h7v-21.744L308.916,694H462.037z M255.969,719.718c0.653,2.035,0.155,4.427-1.483,6.017
		c-2.301,2.234-5.979,2.215-8.212-0.085c-2.232-2.301-2.179-5.96,0.122-8.195c1.638-1.59,3.973-2.079,5.989-1.365L286.415,683H457.4
		l41.6-39.942V570h5v75.233L459.488,688H288.503L255.969,719.718z"/>
	<polygon fill="#FFFFFF" points="715,570 716,570 716,536 707,536 707,570 709,570 709,762 749,762 749,726.908 715,694.312 	"/>
	<path fill="#FFFFFF" d="M544,570h-6v-34h-9v34h-2v84.228L468.638,711H316.256L278,749.176V762h7v-10.177L320.129,716h43.479
		c0.95-2,2.924-3.021,5.204-3.021c3.205,0,5.807,2.71,5.807,5.916c0,3.206-2.602,6.07-5.807,6.07c-2.281,0-4.255-1.965-5.205-2.965
		h-41.34L290,753.947V762h171.698l-16.728-15.942c-2.409,0.939-5.286,0.603-7.234-1.289c-2.604-2.525-2.604-6.568,0-9.093
		c2.604-2.529,6.843-2.495,9.446,0.035c-2.604-2.529,2.605,2.525,0,0c1.951,1.891,2.457,4.409,1.486,6.747L469.097,762H476v-35.032
		l68-66.223V570z M538,658.659L473.147,722h-60.022c-0.949,1-2.922,3.019-5.205,3.019c-3.209,0-5.807-2.709-5.807-5.915
		s2.598-6.073,5.807-6.073c2.282,0,4.255,0.968,5.205,2.968h57.934L533,656.482V570h5V658.659z"/>
	<path fill="#FFFFFF" d="M982,677H848.035L817,646.943V570h-3v-34h-10v34h-4v82.518c2,0.95,3,2.924,3,5.205
		c0,3.206-2.715,5.806-5.924,5.806s-6.057-2.601-6.057-5.806c0-2.281,1.981-4.256,2.981-5.206V570h3v-34h-10v34h1v69.682
		c3,0.98,4.191,3.291,4.191,5.977c0,3.577-2.917,6.484-6.598,6.484c-3.686,0-6.697-2.907-6.697-6.484c0-2.688,2.104-5,4.104-5.979
		V570h-2v-34h-10v34h-6v100.804L789.565,694h74.468c1.027-2,3.384-3.792,6.127-3.792c3.681,0,6.676,2.969,6.676,6.543
		c0,3.575-2.995,6.823-6.676,6.823c-2.744,0-5.102-1.574-6.129-3.574h-76.555L760,672.979V570h5v-34h-10v34h-1v105.713l34.32,33.198
		L788.184,762h15.248l58.979-57h31.065c1.028-2,3.386-3.742,6.125-3.742c3.688,0,6.68,2.995,6.68,6.572
		c0,3.572-2.992,6.768-6.68,6.768c-2.739,0-5.096-1.599-6.125-3.599h-28.977l-53.669,51h8.351l7.075-6.592
		c-0.652-2.036-0.155-4.216,1.482-5.806c2.301-2.234,5.98-2.105,8.214,0.196c2.231,2.301,2.179,6.017-0.122,8.251
		c-1.639,1.59-3.974,1.764-5.989,1.05L826.584,762h9.09l36.091-34H982v-1h43v-5h-43l0,0H868.801l-16.982,16.267
		c0.652,2.035,0.154,4.246-1.483,5.835c-2.301,2.236-5.978,2.129-8.212-0.174c-2.23-2.301-2.179-6.004,0.123-8.238
		c1.638-1.59,3.973-2.245,5.988-1.531L866.713,716H982l0,0h43v-5h-43l0,0h-59.454c-1.029,2-3.39,3.648-6.13,3.648
		c-3.685,0-6.681-3.042-6.681-6.615c0-3.577,2.996-6.714,6.681-6.714c2.74,0,5.101,1.681,6.13,3.681H982l0,0h43v-5h-43l0,0h-28.884
		c-1.028,2-3.386,3.597-6.126,3.597c-3.688,0-6.685-3.06-6.685-6.635c0-3.574,2.998-6.671,6.685-6.671
		c2.738,0,5.096,1.709,6.125,3.709H982l0,0h43v-5h-43v-1H828.18h-35.693L772,668.06V570h5v95.884L794.574,683h33.333h0.272H982l0,0
		h43v-5h-43V677z M808.343,674.625c-3.205,0-5.694-2.601-5.694-5.806c0-2.281,1.351-4.256,3.351-5.206V570h5v93.613
		c2,0.95,3.191,2.924,3.191,5.205C814.191,672.023,811.549,674.625,808.343,674.625z"/>
	<polygon fill="#FFFFFF" points="668,536 658,536 658,570 663,570 663,762 669,762 669,570 668,570 	"/>
	<rect x="652" y="570" fill="#FFFFFF" width="6" height="192"/>
	<polygon fill="#FFFFFF" points="982,666 852.778,666 828,642.422 828,570 830,570 830,536 820,536 820,570 822,570 822,644.778 
		850.135,672 982,672 982,671 1025,671 1025,667 982,667 	"/>
	<path fill="#FFFFFF" d="M749,570.143V536h-10v34h4v111.64l34,33.115v19.093c2,0.98,4.002,3.293,4.002,5.983
		c0,3.572-3.048,6.481-6.736,6.481c-3.677,0-6.523-2.909-6.523-6.481c0-2.689,1.257-5.001,4.257-5.981v-16.92l-34-33.115V570h-6v-34
		h-9v34h-3v122.125l34,32.596V762h6v-39.532l-34-33.111V570h5v117.181l34,33.112V762h2.634c-0.057,0-0.087-0.412-0.087-0.77
		c0-3.576,2.991-6.345,6.668-6.345c3.688,0,6.689,2.698,6.689,6.274c0,0.358-0.032,0.84-0.09,0.84h2.223l0.205-50.912L749,677.888
		V570.143z"/>
	<path fill="#FFFFFF" d="M601,570h2v-34h-10v34h2v122.782l-57,55.187v13.755c0,0.225,0.833,0.276,1.211,0.276H556v-22.224l45-44.149
		V570z"/>
	<polygon fill="#FFFFFF" points="626,536 626,570 629,570 629,762 635,762 635,570 636,570 636,536 	"/>
	<polygon fill="#FFFFFF" points="619,536 609,536 609,570 606,570 606,697.803 561,741.951 561,762 567,762 567,744.485 
		612,700.334 612,570 618,570 618,702.509 572,746.662 572,762 624,762 624,570 619,570 	"/>
	<polygon fill="#FFFFFF" points="642,536 642,570 640,570 640,762 647,762 647,570 652,570 652,536 	"/>
	<polygon fill="#FFFFFF" points="556,570 554,570 554,536 545,536 545,570 549,570 549,662.92 481,729.145 481,762 487,762 
		487,731.353 556,665.094 	"/>
	<path fill="#FFFFFF" d="M590,570h-3v-34h-10v34h-5v102.002l-68,66.218V762h27.574c0.373,0,0.426-0.051,1.426-0.276v-15.931
		l57-55.186V570z M584,676.39l-69,66.222v8.622c2,0.949,3.344,2.923,3.344,5.205c0,3.205-2.543,5.808-5.751,5.808
		c-3.209,0-5.815-2.603-5.815-5.808c0-2.282,1.223-4.256,3.223-5.205v-10.798l68-66.22V570h6V676.39z"/>
	<path fill="#FFFFFF" d="M905,454h-37v10h37v-3h163.098l15.496,15.211c2.015-0.714,4.349-0.198,5.989,1.392
		c2.298,2.234,2.357,5.952,0.123,8.257c-2.234,2.301-5.908,2.378-8.212,0.144c-1.636-1.59-2.136-3.647-1.484-5.683L1066.01,467H905
		v3h-37v9h37v4h146.258L1087,518.197V598h-5v-77.625L1049.169,489H905v-3h-37v9h37l0,0h141.47l29.53,27.845V598h-6v-72.98
		L1044.381,500H905v2h-37v9h37v6h105.107L1041,547.028V598h-5v-48.796L1008.019,522H905v-4h-37v9h37v1h100.328L1030,551.673V598h-5
		v-44.152L1003.24,533H905v1h-37v2.451V570l0,0v49.783c2,0.95,3.123,2.923,3.123,5.204c0,3.205-2.663,5.806-5.869,5.806
		s-5.65-2.602-5.65-5.806c0-2.281,1.396-4.255,3.396-5.204V570h-1v-34h-10v34h4v60.155l9.757,8.845h15.406
		c0.95-1,2.925-3.118,5.206-3.118c3.205,0,5.806,2.664,5.806,5.869s-2.601,5.648-5.806,5.648c-2.281,0-4.255-1.399-5.205-3.399
		h-17.496L851,632.33V570h-5v-34h-10v34h-2v70.251L854.871,661H982l0,0h43v-6h-43l0,0h-67.944L888,629.589v-52.317
		c-2-0.949-3.155-2.923-3.155-5.203c0-3.205,2.634-5.808,5.839-5.808c3.205,0,5.674,2.603,5.674,5.808
		c0,2.28-1.358,4.254-3.358,5.203v50.153L916.161,650H982v-1h43v-5h-43l0,0h-62.712L900,624.529v-29.757
		c-2-0.95-3.571-2.925-3.571-5.206c0-3.205,2.427-5.806,5.636-5.806c3.209,0,5.987,2.601,5.987,5.806
		c0,2.281-2.051,4.256-3.051,5.206v27.58L921.376,639H982v-1h42v-40h6v43h11v-43h6v43h11v-43h7v43h11v-43h6v43h11v-43h6v43h11v-43h6
		v43h11v-43h6v40h42v1h69V500h-101.665l-9.335,9.127V598h-6v-91.048L1140.247,495H1244v-6h-106.667L1121,504.271V598h-5v-95.905
		L1135.245,483H1244v-6h-111.375L1110,499.707V598h-5V497.532L1130.537,472H1244v-17H905V454z M897.862,646.957
		c3.209,0,5.808,2.703,5.808,5.908c0,3.206-2.599,5.59-5.808,5.59c-2.282,0-4.255-1.455-5.205-3.455h-34.534L840,637.827V570h5
		v65.649L860.211,650h32.447C893.607,648,895.58,646.957,897.862,646.957z M1053,598h-6v-53.009L1012.285,511H905v-5h109.366
		L1053,542.809V598z M1064,540.77V598h-5v-57.23c-3-0.98-4.122-3.292-4.122-5.981c0-3.574,2.993-6.485,6.681-6.485
		c3.68,0,6.612,2.911,6.612,6.485C1068.171,537.478,1067,539.789,1064,540.77z M1098,598h-5v-81.747L1053.417,477H905v-5h150.505
		L1098,514.078V598z"/>
	<polygon fill="#FFFFFF" points="567,570 571,570 571,536 561,536 561,570.143 561,667.269 492,733.528 492,762 499,762 
		499,736.045 567,669.826 	"/>
	<path fill="#FFFFFF" d="M1278.352,15.248c-1.209-2.911-2.827-5.527-5.034-7.775c-2.234-2.275-4.792-4.146-7.716-5.405
		c-3.065-1.32-6.257-2.067-9.597-2.067H24.958c-3.34,0-6.588,0.747-9.653,2.067c-2.924,1.26-5.54,3.091-7.774,5.367
		c-2.208,2.248-4.192,4.883-5.401,7.794C0.884,18.228,0,21.417,0,24.669v750.676c0,3.252,0.884,6.422,2.13,9.421
		c1.209,2.911,3.067,5.527,5.275,7.775c2.234,2.275,4.913,4.138,7.836,5.397c3.065,1.321,6.376,2.061,9.716,2.061h1231.047
		c3.34,0,6.588-0.74,9.653-2.061c2.924-1.26,5.54-3.087,7.773-5.362c2.208-2.249,3.711-4.882,4.92-7.793
		c1.246-2.999,1.648-6.187,1.648-9.439V24.669C1280,21.417,1279.597,18.247,1278.352,15.248z M1259,775.345
		c0,1.852-1.176,3.655-2.995,3.655H24.958c-1.818,0-2.958-1.803-2.958-3.655V24.669C22,22.817,23.139,21,24.958,21h1231.116
		l-0.183,0.158c1.818,0,3.109,1.659,3.109,3.511V775.345z"/>
</g>
</svg>
