<?xml version="1.0" encoding="utf-8"?>
<!-- Generator: Adobe Illustrator 16.0.0, SVG Export Plug-In . SVG Version: 6.00 Build 0)  -->
<!DOCTYPE svg PUBLIC "-//W3C//DTD SVG 1.1//EN" "http://www.w3.org/Graphics/SVG/1.1/DTD/svg11.dtd">
<svg version="1.1" id="Layer_1" xmlns="http://www.w3.org/2000/svg" xmlns:xlink="http://www.w3.org/1999/xlink" x="0px" y="0px"
	 width="158.667px" height="336.59px" viewBox="0 0 158.667 336.59" enable-background="new 0 0 158.667 336.59"
	 xml:space="preserve">
<g>
	<path fill="#FFFFFF" d="M62.395,236.661h-10.48c-2.601-14.137-3.899-25.266-3.899-33.393c0-35.583,11.048-62.027,33.147-79.333
		c22.096-17.305,36.231-29.692,42.41-37.168c6.172-7.472,9.262-16.574,9.262-27.298c0-12.834-5.607-24.045-16.818-33.635
		c-11.211-9.585-25.268-14.38-42.164-14.38c-15.764,0-28.761,4.021-38.998,12.064c-10.236,8.043-15.354,14.989-15.354,20.839
		c0,2.438,3.126,3.819,9.383,4.144c6.253,0.327,11.577,2.887,15.964,7.678c4.387,4.794,6.581,10.198,6.581,16.208
		c0,6.5-2.399,12.026-7.19,16.573c-4.794,4.551-10.522,6.824-17.183,6.824c-7.799,0-14.258-2.639-19.376-7.921
		C2.559,82.586,0,74.581,0,63.856c0-17.385,7.19-32.374,21.57-44.968C35.95,6.299,53.376,0,73.851,0
		c25.834,0,46.43,8.816,61.785,26.444c15.354,17.633,23.031,37.656,23.031,60.079c0,16.901-4.063,31.891-12.187,44.968
		c-8.127,13.082-25.513,28.803-52.157,47.162c-21.937,15.438-32.905,30.63-32.905,45.577
		C61.42,228.458,61.743,232.601,62.395,236.661z M31.929,305.636c0-8.445,2.962-15.637,8.896-21.57
		c5.929-5.929,13.119-8.896,21.57-8.896c8.447,0,15.72,2.967,21.813,8.896c6.094,5.935,9.142,13.125,9.142,21.57
		c0,8.614-3.011,15.927-9.019,21.937c-6.014,6.01-13.326,9.018-21.937,9.018c-8.451,0-15.641-3.046-21.57-9.14
		C34.891,321.355,31.929,314.086,31.929,305.636z"/>
</g>
</svg>
