<?xml version="1.0" encoding="utf-8"?>
<!-- Generator: Adobe Illustrator 16.0.0, SVG Export Plug-In . SVG Version: 6.00 Build 0)  -->
<!DOCTYPE svg PUBLIC "-//W3C//DTD SVG 1.1//EN" "http://www.w3.org/Graphics/SVG/1.1/DTD/svg11.dtd">
<svg version="1.1" id="Layer_1" xmlns="http://www.w3.org/2000/svg" xmlns:xlink="http://www.w3.org/1999/xlink" x="0px" y="0px"
	 width="158.667px" height="388.744px" viewBox="0 0 158.667 388.744" enable-background="new 0 0 158.667 388.744"
	 xml:space="preserve">
<g>
	<g>
		<path fill="#FFFFFF" d="M18.96,374.322c1.377,0,2.641,0.479,3.618,1.232c0.176,0.144,0.208,0.416,0.064,0.56
			c-0.128,0.192-0.384,0.208-0.544,0.08c-0.865-0.672-1.953-1.088-3.138-1.088c-2.801,0-5.042,2.192-5.042,4.93
			c0,2.673,2.241,4.866,5.042,4.866c1.185,0,2.273-0.385,3.105-1.089c0.192-0.128,0.448-0.096,0.56,0.097
			c0.16,0.144,0.128,0.432-0.048,0.56c-0.977,0.753-2.241,1.217-3.618,1.217c-3.217,0-5.826-2.529-5.826-5.65
			C13.134,376.851,15.743,374.338,18.96,374.322z"/>
		<path fill="#FFFFFF" d="M28.976,377.844c2.065,0,3.713,1.792,3.713,3.921s-1.648,3.922-3.713,3.922
			c-2.049,0-3.713-1.793-3.713-3.922S26.927,377.844,28.976,377.844z M28.976,384.918c1.601,0,2.945-1.408,2.945-3.153
			c0-1.744-1.345-3.169-2.945-3.169s-2.945,1.425-2.945,3.169C26.03,383.51,27.375,384.918,28.976,384.918z"/>
		<path fill="#FFFFFF" d="M46.851,381.045c-0.032-1.329-1.088-2.434-2.433-2.434c-1.329,0-2.417,1.104-2.417,2.434v4.273v0.048
			c0,0.017-0.016,0.032-0.016,0.032v0.032c-0.032,0.096-0.112,0.16-0.192,0.208c-0.064,0.032-0.128,0.048-0.192,0.048h-0.048h-0.032
			c-0.016,0-0.032-0.016-0.032-0.016c-0.032,0-0.064-0.032-0.096-0.049c-0.016,0-0.032-0.016-0.048-0.031l-0.048-0.049
			c-0.016-0.016-0.016-0.031-0.032-0.031c0-0.017,0-0.017-0.016-0.032c0,0,0-0.016-0.016-0.032c0-0.016,0-0.032-0.016-0.048v-0.048
			v-0.032v-4.273c0-1.329-1.072-2.434-2.417-2.434c-1.344,0-2.417,1.104-2.417,2.434v4.273c0,0.128-0.064,0.24-0.176,0.304
			c-0.016,0.017-0.064,0.049-0.096,0.049c-0.016,0.016-0.032,0.016-0.064,0.016h-0.048H35.95c-0.144-0.016-0.272-0.145-0.32-0.288
			v-0.08v-4.273v-0.128v-2.689c0-0.208,0.176-0.368,0.368-0.368c0.224,0,0.384,0.16,0.384,0.368v0.752
			c0.577-0.688,1.441-1.12,2.417-1.12c1.217,0,2.257,0.672,2.801,1.665c0.56-0.993,1.617-1.665,2.817-1.665
			c1.761,0,3.185,1.425,3.185,3.186v4.273c0,0.192-0.16,0.368-0.384,0.368c-0.208,0-0.368-0.176-0.368-0.368V381.045z"/>
		<path fill="#FFFFFF" d="M50.862,375.666c0-0.208,0.176-0.384,0.384-0.384c0.224,0,0.4,0.176,0.4,0.384v0.368
			c0,0.225-0.176,0.417-0.4,0.417c-0.208,0-0.384-0.192-0.384-0.417V375.666z M50.862,378.228c0-0.224,0.176-0.384,0.384-0.384
			c0.224,0,0.4,0.16,0.4,0.384v7.075c0,0.208-0.176,0.384-0.4,0.384c-0.208,0-0.384-0.176-0.384-0.384V378.228z"/>
		<path fill="#FFFFFF" d="M60.944,381.045c0-1.329-1.072-2.417-2.417-2.417c-1.329,0-2.401,1.088-2.433,2.417v4.258v0.063
			c-0.016,0.064-0.032,0.128-0.08,0.176c-0.064,0.097-0.176,0.145-0.288,0.145H55.63c-0.112-0.032-0.208-0.112-0.256-0.208
			c-0.016-0.016-0.016-0.032-0.016-0.048c0-0.017-0.016-0.032-0.016-0.032v-0.096v-4.258v-0.128v-2.674
			c0-0.208,0.16-0.384,0.384-0.384c0.208,0,0.368,0.176,0.368,0.384v0.753c0.577-0.688,1.457-1.137,2.433-1.137
			c1.761,0,3.186,1.44,3.186,3.186v4.258c0,0.224-0.176,0.384-0.384,0.384s-0.384-0.16-0.384-0.384V381.045z"/>
		<path fill="#FFFFFF" d="M72,385.063c0,2.032-1.648,3.682-3.697,3.682c-0.577,0-1.121-0.145-1.633-0.368
			c-0.16-0.112-0.257-0.337-0.16-0.513c0.096-0.208,0.32-0.288,0.512-0.176c0.4,0.192,0.801,0.288,1.281,0.288
			c1.632,0,2.929-1.297,2.929-2.913v-0.961c-0.656,0.944-1.729,1.537-2.929,1.537c-2.049,0-3.682-1.745-3.682-3.905
			c0-2.113,1.633-3.89,3.682-3.89c1.2,0,2.272,0.607,2.929,1.536v-1.152c0-0.208,0.176-0.384,0.4-0.384
			c0.191,0,0.368,0.176,0.368,0.384V385.063z M71.232,381.733c0-1.745-1.313-3.122-2.929-3.122c-1.602,0-2.914,1.377-2.914,3.122
			c0,1.76,1.313,3.152,2.914,3.152C69.919,384.886,71.232,383.493,71.232,381.733z"/>
		<path fill="#FFFFFF" d="M79.965,384.054c0.128-0.16,0.368-0.192,0.544-0.048c0.544,0.4,1.408,0.912,2.401,0.912
			c0.608,0,1.136-0.191,1.488-0.479c0.384-0.257,0.592-0.608,0.592-0.961c-0.016-0.368-0.159-0.624-0.56-0.96
			c-0.336-0.257-0.896-0.448-1.665-0.576l-0.032-0.017c-0.704-0.128-1.328-0.288-1.776-0.608c-0.496-0.288-0.849-0.8-0.849-1.408
			c0-0.624,0.353-1.169,0.849-1.537c0.464-0.319,1.12-0.527,1.921-0.527c1.008,0,1.729,0.464,2.337,0.848
			c0.176,0.128,0.224,0.368,0.112,0.545c-0.112,0.176-0.353,0.224-0.528,0.111c-0.576-0.384-1.152-0.784-1.921-0.784
			c-0.641,0-1.152,0.176-1.488,0.448c-0.32,0.256-0.497,0.576-0.497,0.896s0.145,0.544,0.448,0.784
			c0.353,0.24,0.881,0.433,1.601,0.544h0.032c0.753,0.112,1.36,0.337,1.905,0.641c0.512,0.336,0.88,0.944,0.88,1.601
			s-0.368,1.185-0.896,1.585c-0.544,0.4-1.185,0.624-1.952,0.624c-1.265-0.016-2.257-0.608-2.897-1.12
			C79.853,384.422,79.837,384.214,79.965,384.054z"/>
		<path fill="#FFFFFF" d="M91.726,377.844c2.065,0,3.714,1.792,3.714,3.921s-1.648,3.922-3.714,3.922
			c-2.049,0-3.713-1.793-3.713-3.922S89.677,377.844,91.726,377.844z M91.726,384.918c1.601,0,2.945-1.408,2.945-3.153
			c0-1.744-1.345-3.169-2.945-3.169s-2.945,1.425-2.945,3.169C88.781,383.51,90.125,384.918,91.726,384.918z"/>
		<path fill="#FFFFFF" d="M101.726,377.844c2.065,0,3.714,1.792,3.714,3.921s-1.648,3.922-3.714,3.922
			c-2.049,0-3.713-1.793-3.713-3.922S99.677,377.844,101.726,377.844z M101.726,384.918c1.601,0,2.945-1.408,2.945-3.153
			c0-1.744-1.345-3.169-2.945-3.169s-2.945,1.425-2.945,3.169C98.781,383.51,100.125,384.918,101.726,384.918z"/>
		<path fill="#FFFFFF" d="M113.983,381.045c0-1.329-1.072-2.417-2.417-2.417c-1.328,0-2.4,1.088-2.433,2.417v4.258v0.063
			c-0.016,0.064-0.032,0.128-0.08,0.176c-0.064,0.097-0.176,0.145-0.288,0.145h-0.096c-0.112-0.032-0.208-0.112-0.257-0.208
			c-0.016-0.016-0.016-0.032-0.016-0.048c0-0.017-0.016-0.032-0.016-0.032v-0.096v-4.258v-0.128v-2.674
			c0-0.208,0.159-0.384,0.384-0.384c0.208,0,0.368,0.176,0.368,0.384v0.753c0.576-0.688,1.456-1.137,2.433-1.137
			c1.761,0,3.186,1.44,3.186,3.186v4.258c0,0.224-0.176,0.384-0.384,0.384s-0.385-0.16-0.385-0.384V381.045z"/>
	</g>
	<g>
		<path fill="#FFFFFF" d="M62.395,236.661h-10.48c-2.601-14.137-3.899-25.265-3.899-33.392c0-35.584,11.048-62.028,33.147-79.334
			c22.096-17.305,36.232-29.692,42.41-37.168c6.172-7.472,9.262-16.574,9.262-27.298c0-12.834-5.607-24.045-16.818-33.635
			c-11.211-9.585-25.268-14.38-42.164-14.38c-15.764,0-28.761,4.021-38.998,12.064c-10.236,8.043-15.354,14.989-15.354,20.839
			c0,2.438,3.126,3.819,9.383,4.144c6.253,0.327,11.577,2.887,15.964,7.678c4.387,4.794,6.581,10.198,6.581,16.208
			c0,6.5-2.399,12.026-7.19,16.573c-4.794,4.551-10.522,6.824-17.183,6.824c-7.799,0-14.258-2.639-19.376-7.921
			C2.559,82.586,0,74.581,0,63.856c0-17.385,7.19-32.374,21.57-44.968C35.95,6.299,53.376,0,73.851,0
			c25.834,0,46.43,8.816,61.785,26.444c15.354,17.633,23.031,37.656,23.031,60.079c0,16.901-4.063,31.891-12.186,44.968
			c-8.127,13.082-25.512,28.803-52.158,47.162c-21.936,15.438-32.904,30.63-32.904,45.577
			C61.42,228.458,61.743,232.601,62.395,236.661z M31.929,305.636c0-8.446,2.962-15.637,8.896-21.57
			c5.929-5.929,13.119-8.896,21.57-8.896c8.447,0,15.72,2.967,21.814,8.896c6.094,5.934,9.141,13.124,9.141,21.57
			c0,8.614-3.01,15.926-9.018,21.936c-6.014,6.01-13.326,9.018-21.937,9.018c-8.451,0-15.641-3.046-21.57-9.14
			C34.891,321.356,31.929,314.086,31.929,305.636z"/>
	</g>
</g>
</svg>
