<?xml version="1.0" encoding="utf-8"?>
<!-- Generator: Adobe Illustrator 16.0.0, SVG Export Plug-In . SVG Version: 6.00 Build 0)  -->
<!DOCTYPE svg PUBLIC "-//W3C//DTD SVG 1.1//EN" "http://www.w3.org/Graphics/SVG/1.1/DTD/svg11.dtd">
<svg version="1.1" id="Layer_1" xmlns="http://www.w3.org/2000/svg" xmlns:xlink="http://www.w3.org/1999/xlink" x="0px" y="0px"
	 width="100%" height="100%" viewBox="0 0 1220.166 1220.166" enable-background="new 0 0 1220.166 1220.166"
	 xml:space="preserve">
<g>
	<linearGradient id="SVGID_1_" gradientUnits="userSpaceOnUse" x1="610.0825" y1="0" x2="610.0825" y2="1220.1665">
		<stop  offset="0" style="stop-color:#F8F8F8"/>
		<stop  offset="1" style="stop-color:#ACACAC"/>
	</linearGradient>
	<circle fill="url(#SVGID_1_)" cx="610.083" cy="610.083" r="610.083"/>
</g>
<g>
	<linearGradient id="SVGID_2_" gradientUnits="userSpaceOnUse" x1="609.8306" y1="205.1396" x2="609.8305" y2="1014.522">
		<stop  offset="0" style="stop-color:#333333"/>
		<stop  offset="0.9946" style="stop-color:#000000"/>
	</linearGradient>
	<circle fill="url(#SVGID_2_)" cx="609.831" cy="609.83" r="404.691"/>
	<linearGradient id="SVGID_3_" gradientUnits="userSpaceOnUse" x1="609.8306" y1="205.1396" x2="609.8305" y2="1014.522">
		<stop  offset="0" style="stop-color:#333333"/>
		<stop  offset="0.9946" style="stop-color:#000000"/>
	</linearGradient>
	<path fill="url(#SVGID_3_)" d="M609.831,293.547c42.737,0,84.149,8.35,123.085,24.819c37.651,15.925,71.486,38.743,100.562,67.819
		c29.075,29.075,51.893,62.909,67.818,100.561c16.468,38.936,24.818,80.348,24.818,123.084c0,42.737-8.351,84.148-24.818,123.085
		c-15.926,37.652-38.743,71.486-67.818,100.562c-29.076,29.076-62.91,51.893-100.562,67.818
		c-38.937,16.469-80.349,24.819-123.085,24.819s-84.148-8.351-123.084-24.819c-37.652-15.926-71.486-38.743-100.562-67.818
		c-29.076-29.075-51.893-62.909-67.819-100.562c-16.469-38.937-24.819-80.348-24.819-123.085c0-42.737,8.35-84.148,24.819-123.084
		c15.925-37.652,38.743-71.486,67.819-100.562c29.075-29.076,62.909-51.893,100.562-67.819
		C525.682,301.897,567.094,293.547,609.831,293.547 M609.831,205.14c-223.504,0-404.691,181.187-404.691,404.69
		c0,223.505,181.187,404.691,404.691,404.691c223.505,0,404.691-181.187,404.691-404.691
		C1014.521,386.326,833.336,205.14,609.831,205.14L609.831,205.14z"/>
</g>
<g>
</g>
<g>
</g>
<g>
</g>
<g>
</g>
<g>
</g>
<g>
</g>
<g>
</g>
<g>
</g>
<g>
</g>
<g>
</g>
<g>
</g>
<g>
</g>
<g>
</g>
<g>
</g>
<g>
</g>
</svg>
