<?xml version="1.0" encoding="utf-8"?>
<!-- Generator: Adobe Illustrator 16.0.0, SVG Export Plug-In . SVG Version: 6.00 Build 0)  -->
<!DOCTYPE svg PUBLIC "-//W3C//DTD SVG 1.1//EN" "http://www.w3.org/Graphics/SVG/1.1/DTD/svg11.dtd">
<svg version="1.1" id="Layer_1" xmlns="http://www.w3.org/2000/svg" xmlns:xlink="http://www.w3.org/1999/xlink" x="0px" y="0px"
	  height="100%" width="100%" viewBox="0 0 36 48" enable-background="new 0 0 36 48" xml:space="preserve">
<path fill="#FFFFFF" d="M27,0v3H9V0H0v48h9v-3h18v3h9V0H27z M6,45H3v-6h3V45z M6,36H3v-6h3V36z M6,27H3v-6h3V27z M6,18H3v-6h3V18z
	 M6,9H3V3h3V9z M27,42H9V27h18V42z M27,21H9V6h18V21z M33,45h-3v-6h3V45z M33,36h-3v-6h3V36z M33,27h-3v-6h3V27z M33,18h-3v-6h3V18z
	 M33,9h-3V3h3V9z"/>
</svg>
