<?xml version="1.0" encoding="utf-8"?>
<!-- Generator: Adobe Illustrator 16.0.0, SVG Export Plug-In . SVG Version: 6.00 Build 0)  -->
<!DOCTYPE svg PUBLIC "-//W3C//DTD SVG 1.1//EN" "http://www.w3.org/Graphics/SVG/1.1/DTD/svg11.dtd">
<svg version="1.1" id="Layer_1" xmlns="http://www.w3.org/2000/svg" xmlns:xlink="http://www.w3.org/1999/xlink" x="0px" y="0px"
	 width="1711.739px" height="432.993px" viewBox="0 0 1711.739 432.993" enable-background="new 0 0 1711.739 432.993"
	 xml:space="preserve">
<g>
	<g>
		<circle fill="#1077FF" cx="1549.661" cy="167.577" r="148.077"/>
		<path fill="none" stroke="#1077FF" stroke-width="7" stroke-miterlimit="10" d="M1549.662,325.654
			c-87.165,0-158.078-70.913-158.078-158.077S1462.497,9.5,1549.662,9.5c87.163,0,158.076,70.913,158.076,158.077
			S1636.825,325.654,1549.662,325.654z"/>
	</g>
	<g>
		<path fill="#FFFFFF" d="M1639,80.941c0-1.072-0.869-1.941-1.941-1.941h-176.117c-1.072,0-1.941,0.869-1.941,1.941v173.117
			c0,1.072,0.869,1.941,1.941,1.941h176.117c1.072,0,1.941-0.869,1.941-1.941V80.941z M1620.209,85.179
			c1.5,0,2.717,1.217,2.717,2.718s-1.217,2.718-2.717,2.718c-1.502,0-2.719-1.217-2.719-2.718S1618.707,85.179,1620.209,85.179z
			 M1573.357,85.179c1.502,0,2.719,1.217,2.719,2.718s-1.217,2.718-2.719,2.718c-1.5,0-2.717-1.217-2.717-2.718
			S1571.857,85.179,1573.357,85.179z M1526.508,85.179c1.5,0,2.717,1.217,2.717,2.718s-1.217,2.718-2.717,2.718
			c-1.502,0-2.719-1.217-2.719-2.718S1525.006,85.179,1526.508,85.179z M1479.658,85.179c1.5,0,2.717,1.217,2.717,2.718
			s-1.217,2.718-2.717,2.718c-1.502,0-2.719-1.217-2.719-2.718S1478.156,85.179,1479.658,85.179z M1479.658,250.385
			c-1.502,0-2.719-1.217-2.719-2.717c0-1.502,1.217-2.719,2.719-2.719c1.5,0,2.717,1.217,2.717,2.719
			C1482.375,249.168,1481.158,250.385,1479.658,250.385z M1526.508,250.385c-1.502,0-2.719-1.217-2.719-2.717
			c0-1.502,1.217-2.719,2.719-2.719c1.5,0,2.717,1.217,2.717,2.719C1529.225,249.168,1528.008,250.385,1526.508,250.385z
			 M1573.357,250.385c-1.5,0-2.717-1.217-2.717-2.717c0-1.502,1.217-2.719,2.717-2.719c1.502,0,2.719,1.217,2.719,2.719
			C1576.076,249.168,1574.859,250.385,1573.357,250.385z M1620.209,250.385c-1.502,0-2.719-1.217-2.719-2.717
			c0-1.502,1.217-2.719,2.719-2.719c1.5,0,2.717,1.217,2.717,2.719C1622.926,249.168,1621.709,250.385,1620.209,250.385z
			 M1628,213.791c0,1.072,0.129,2.209-0.822,2.209h-0.174H1621v23h-143v-5h-4.748h-0.221c-0.951,0-2.031-0.889-2.031-1.961v-13.588
			c0-1.072,1.08-2.451,2.031-2.451h0.221H1478v-97h-4.748h-0.221c-0.951,0-2.031-0.426-2.031-1.498v-13.589
			c0-1.072,1.08-1.913,2.031-1.913h0.221H1478v-6h143v24h6.004h0.174c0.951,0,0.822,0.701,0.822,1.773V213.791z"/>
		<path fill="#FFFFFF" d="M1624.449,121h-12.035c-1.072,0-1.941,0.928-1.941,2s0.869,2,1.941,2H1622v85h-9.586
			c-1.072,0-1.941,0.928-1.941,2s0.869,2,1.941,2h12.035c1.072,0,1.551-0.689,1.551-1.762v-88.913
			C1626,122.254,1625.521,121,1624.449,121z"/>
		<path fill="#FFFFFF" d="M1588.178,110.125c-5.791,0-10.484,4.693-10.484,10.483s4.693,10.483,10.484,10.483
			c5.789,0,10.482-4.694,10.482-10.483S1593.967,110.125,1588.178,110.125z M1588.178,124.879c-2.359,0-4.271-1.912-4.271-4.271
			c0-2.358,1.912-4.271,4.271-4.271c2.357,0,4.27,1.912,4.27,4.271C1592.447,122.967,1590.535,124.879,1588.178,124.879z"/>
		<circle fill="#FFFFFF" cx="1588.178" cy="120.608" r="2.952"/>
		<path fill="#FFFFFF" d="M1573.086,155.896c0.104,0.128,0.262,0.321,0.557,0.321c0.143,0,0.291-0.047,0.467-0.149l12.777-7.377
			c0.449-0.259,0.77-0.678,0.904-1.179s0.064-1.024-0.193-1.473c-0.346-0.599-0.992-0.971-1.684-0.971
			c-0.34,0-0.674,0.09-0.969,0.26l-12.777,7.377c-0.6,0.346-0.439,0.769-0.363,0.972c0.014,0.038,0.027,0.073,0.039,0.109
			l-6.865,3.547c-2.832-4.175-6.979-6.737-12.979-7.083v-7.05c1-0.021,0.271-0.034,0.33-0.043c0.559-0.094,0.67-0.425,0.67-0.807
			v-14.754c0-1.07-0.93-1.941-2-1.941s-2,0.871-2,1.941v14.754c0,0.689,0.592,0.767,0.797,0.8c0.033,0.005,0.203,0.01,0.203,0.016
			v7.087c-5,0.362-8.934,3.04-11.686,7.079l-5.854-3.541c0.012-0.037,0.143-0.072,0.158-0.11c0.084-0.203,0.318-0.627-0.285-0.976
			l-12.736-7.377c-0.297-0.17-0.617-0.26-0.955-0.26c-0.689,0-1.324,0.372-1.67,0.971c-0.535,0.927-0.211,2.116,0.717,2.652
			l12.782,7.377c0.176,0.102,0.325,0.149,0.468,0.149c0.295,0,0.453-0.193,0.557-0.321c0.027-0.031,0.051-0.061,0.078-0.089
			l6.135,3.542c-1.082,2.218-1.631,4.596-1.631,7.074c0,2.478,0.549,4.855,1.631,7.074l-6.135,3.542
			c-0.025-0.029-0.051-0.059-0.076-0.09c-0.105-0.128-0.262-0.321-0.557-0.321c-0.143,0-0.291,0.047-0.467,0.149l-12.777,7.376
			c-0.928,0.535-1.246,1.725-0.711,2.652c0.346,0.6,0.99,0.971,1.682,0.971c0.34,0,0.676-0.09,0.971-0.26l12.777-7.377
			c0.6-0.347,0.439-0.77,0.363-0.973c-0.016-0.039-0.029-0.075-0.041-0.112l5.576-3.541c2.752,4.039,6.686,6.717,11.686,7.079v7.086
			c0,0.006-0.17,0.01-0.203,0.016c-0.205,0.033-0.797,0.111-0.797,0.8v14.753c0,1.07,1.93,1.752,3,1.752h-0.049
			c1.072,0,1.049-0.682,1.049-1.752v-14.753c0-0.382-0.111-0.713-0.67-0.808c-0.059-0.01,0.67-0.021-0.33-0.043v-7.049
			c6-0.347,10.146-2.908,12.979-7.083l6.504,3.547c-0.01,0.038,0.135,0.074,0.121,0.111c-0.111,0.325-0.063,0.668,0.461,0.97
			l12.828,7.377c0.295,0.17,0.65,0.26,0.99,0.26c0.695,0,1.352-0.371,1.699-0.971c0.258-0.449,0.332-0.972,0.201-1.472
			c-0.133-0.502-0.45-0.921-0.899-1.181l-12.774-7.376c-0.178-0.102-0.324-0.149-0.467-0.149c-0.295,0-0.453,0.193-0.557,0.321
			c-0.025,0.031-0.051,0.061-0.076,0.089l-6.135-3.542c1.082-2.218,1.631-4.596,1.631-7.074s-0.549-4.856-1.633-7.074l6.137-3.542
			C1573.035,155.835,1573.059,155.865,1573.086,155.896z M1540.162,166.423c0-1.753,0.367-3.442,1.094-5.026l8.707,5.026
			l-8.707,5.026C1540.529,169.866,1540.162,168.177,1540.162,166.423z M1550,178.493c-3-0.344-6.693-2.234-8.703-5.028l8.703-5.025
			V178.493z M1550,164.405l-8.703-5.025c2.01-2.794,5.703-4.684,8.703-5.027V164.405z M1552,154.349c4,0.318,6.59,2.049,8.703,5.03
			l-8.703,5.025V154.349z M1552,178.497v-10.058l8.705,5.026C1558.592,176.448,1556,178.179,1552,178.497z M1563.328,171.449
			l-8.707-5.026l8.707-5.026c0.725,1.584,1.094,3.273,1.094,5.027C1564.422,168.177,1564.055,169.866,1563.328,171.449z"/>
		<polygon fill="#FFFFFF" points="1526,154.483 1526,178.363 1529,176.122 1529,156.725 		"/>
		<path fill="#FFFFFF" d="M1532.102,207h-1.164H1529v-24.721l-3,2.24V207h-13.053l-5.721,0.083
			c-0.887-0.181-2.227-0.894-2.227-1.833v-74.547c0-0.939,1.127-1.75,2.014-1.929l18.986-0.012v19.574l3,2.244V129h1.938h1.164
			c1.072,0,0.898-1.107,0.898-2.18v-13.978c0-0.439,0.893-0.843,0.646-0.843H1529v-8.476c0-1.072-0.428-1.941-1.5-1.941
			s-1.5,0.87-1.5,1.941V112h-5.545c-1.072,0-2.455-1.191-2.455-2.263v-5.815c0-0.246-0.213-0.921-0.652-0.921h-41.543
			c-1.072,0-2.805,1.394-2.805,2.466v10.483c0,1.072,1.301,1.941,2.371,1.941l18.922,0.015c0.887,0.208,1.707,1.141,1.707,2.224
			v95.696c0,1.082-0.605,2.016-1.492,2.223l-19.23,0.016c-1.072,0-2.277,0.869-2.277,1.941v10.482c0,1.072,1.732,1.514,2.805,1.514
			h41.543c0.439,0,0.652,0.277,0.652,0.031v-5.816c0-1.072,1.383-2.215,2.455-2.215H1526v8.428c0,1.072,0.428,1.941,1.5,1.941
			s1.5-0.869,1.5-1.941V224h4.646c0.246,0-0.646-0.451-0.646-0.891v-13.977C1533,208.061,1533.174,207,1532.102,207z"/>
	</g>
</g>
<g>
	<path fill="#FFFFFF" d="M1448.555,401.027l-5.021-3.05c-3.148-1.923-5.389-3.813-6.721-5.675c-1.332-1.86-1.998-4.002-1.998-6.424
		c0-3.633,1.261-6.582,3.782-8.851c2.52-2.267,5.795-3.401,9.824-3.401c3.854,0,7.387,1.082,10.602,3.244v7.497
		c-3.324-3.198-6.902-4.797-10.733-4.797c-2.158,0-3.931,0.499-5.317,1.497s-2.08,2.275-2.08,3.832c0,1.382,0.511,2.676,1.532,3.882
		c1.022,1.206,2.665,2.474,4.929,3.8l5.045,2.984c5.627,3.362,8.441,7.641,8.441,12.836c0,3.699-1.238,6.705-3.715,9.016
		c-2.478,2.313-5.697,3.469-9.66,3.469c-4.559,0-8.709-1.4-12.451-4.203v-8.389c3.566,4.52,7.695,6.779,12.385,6.779
		c2.069,0,3.792-0.576,5.168-1.729c1.376-1.151,2.064-2.594,2.064-4.326C1454.631,406.211,1452.605,403.547,1448.555,401.027z"/>
	<path fill="#FFFFFF" d="M1468.105,374.221h26.156v5.879h-19.551v14.068h18.891v5.912h-18.891v14.333h20.178v5.879h-26.783V374.221z
		"/>
	<path fill="#FFFFFF" d="M1541.686,409.658v7.266c-4.844,2.642-10.436,3.963-16.776,3.963c-5.151,0-9.522-1.035-13.111-3.105
		c-3.589-2.068-6.429-4.92-8.521-8.553s-3.137-7.563-3.137-11.791c0-6.715,2.394-12.361,7.182-16.941
		c4.789-4.579,10.695-6.869,17.719-6.869c4.844,0,10.227,1.266,16.149,3.798v7.101c-5.395-3.082-10.667-4.623-15.819-4.623
		c-5.283,0-9.671,1.667-13.16,5.003c-3.49,3.335-5.234,7.513-5.234,12.532c0,5.064,1.717,9.227,5.152,12.484
		c3.434,3.259,7.826,4.888,13.176,4.888C1530.897,414.81,1536.357,413.092,1541.686,409.658z"/>
	<path fill="#FFFFFF" d="M1581.911,374.221h6.638v26.189c0,3.545-0.258,6.221-0.775,8.025c-0.518,1.806-1.156,3.309-1.916,4.508
		c-0.76,1.201-1.689,2.273-2.79,3.221c-3.655,3.148-8.433,4.723-14.333,4.723c-6.011,0-10.832-1.563-14.465-4.689
		c-1.102-0.969-2.031-2.053-2.791-3.254c-0.76-1.199-1.387-2.669-1.883-4.408c-0.495-1.739-0.742-4.47-0.742-8.191v-26.123h6.637
		v26.189c0,4.338,0.496,7.354,1.486,9.049c0.991,1.696,2.499,3.055,4.525,4.079c2.025,1.024,4.414,1.536,7.166,1.536
		c3.919,0,7.111-1.024,9.578-3.072c1.299-1.1,2.234-2.398,2.807-3.896c0.572-1.497,0.858-4.063,0.858-7.695V374.221z"/>
	<path fill="#FFFFFF" d="M1597.896,420.357v-46.137h11.559c4.667,0,8.372,1.156,11.113,3.469c2.741,2.312,4.112,5.438,4.112,9.379
		c0,2.686-0.672,5.009-2.016,6.969c-1.343,1.959-3.27,3.424-5.779,4.393c1.475,0.969,2.918,2.289,4.326,3.963
		c1.409,1.673,3.391,4.59,5.945,8.752c1.606,2.619,2.895,4.59,3.863,5.91l2.444,3.303h-7.86l-2.012-3.039
		c-0.066-0.11-0.198-0.297-0.396-0.563l-1.285-1.817l-2.045-3.37l-2.211-3.602c-1.363-1.895-2.611-3.402-3.747-4.523
		s-2.161-1.929-3.075-2.423c-0.915-0.495-2.452-0.742-4.612-0.742h-1.72v20.079H1597.896z M1606.482,379.836h-1.982V394.4h2.51
		c3.348,0,5.643-0.287,6.887-0.859c1.243-0.572,2.213-1.437,2.906-2.592c0.693-1.156,1.04-2.472,1.04-3.947
		c0-1.453-0.386-2.768-1.155-3.946c-0.771-1.178-1.855-2.009-3.254-2.493S1609.719,379.836,1606.482,379.836z"/>
	<path fill="#FFFFFF" d="M1638.55,374.221h26.156v5.879h-19.552v14.068h18.891v5.912h-18.891v14.333h20.18v5.879h-26.784V374.221z"
		/>
</g>
<g>
	<g>
		<circle fill="#1077FF" cx="1086.762" cy="167.577" r="148.077"/>
		<path fill="none" stroke="#1077FF" stroke-width="7" stroke-miterlimit="10" d="M1086.763,325.654
			c-87.165,0-158.078-70.913-158.078-158.077S999.598,9.5,1086.763,9.5c87.163,0,158.076,70.913,158.076,158.077
			S1173.926,325.654,1086.763,325.654z"/>
	</g>
	<path fill="#FFFFFF" d="M1143,143V96.507C1143,79.635,1132.604,67,1118.126,67h-61.645C1042.003,67,1028,79.635,1028,96.507V143
		h-13v105h141V143H1143z M1096,209h-22v-25h3.03h19.131H1096V209z M1128,143h-85V96.507c0-8.878,6.952-15.507,13.481-15.507h61.645
		c6.527,0,9.874,6.628,9.874,15.507V143z"/>
</g>
<g>
	<path fill="#FFFFFF" d="M948.5,420.357v-46.202h14.631c4.402,0,7.914,1.188,10.535,3.567c2.619,2.377,3.93,5.57,3.93,9.576
		c0,2.688-0.672,5.064-2.015,7.135c-1.343,2.068-3.183,3.572-5.516,4.508c-2.334,0.936-5.681,1.402-10.04,1.402h-4.887v20.014H948.5
		z M961.975,380.033h-6.836v14.433h7.232c2.686,0,4.756-0.632,6.209-1.899c1.453-1.266,2.18-3.076,2.18-5.432
		C970.76,382.4,967.83,380.033,961.975,380.033z"/>
	<path fill="#FFFFFF" d="M983.54,420.357v-46.137h11.559c4.667,0,8.372,1.156,11.113,3.469c2.741,2.312,4.112,5.438,4.112,9.379
		c0,2.686-0.672,5.009-2.016,6.969c-1.343,1.959-3.27,3.424-5.779,4.393c1.475,0.969,2.918,2.289,4.326,3.963
		c1.409,1.673,3.391,4.59,5.945,8.752c1.606,2.619,2.895,4.59,3.863,5.91l2.444,3.303h-7.86l-2.012-3.039
		c-0.066-0.11-0.198-0.297-0.396-0.563l-1.285-1.817l-2.045-3.37l-2.211-3.602c-1.363-1.895-2.611-3.402-3.747-4.523
		s-2.161-1.929-3.075-2.423c-0.915-0.495-2.452-0.742-4.612-0.742h-1.72v20.079H983.54z M992.127,379.836h-1.982V394.4h2.51
		c3.348,0,5.643-0.287,6.887-0.859c1.243-0.572,2.213-1.437,2.906-2.592c0.693-1.156,1.04-2.472,1.04-3.947
		c0-1.453-0.386-2.768-1.155-3.946c-0.771-1.178-1.855-2.009-3.254-2.493S995.363,379.836,992.127,379.836z"/>
	<path fill="#FFFFFF" d="M1042.771,373.561c7.128,0,13.063,2.258,17.805,6.771c4.742,4.514,7.113,10.172,7.113,16.976
		c0,6.803-2.393,12.434-7.179,16.893c-4.786,4.458-10.819,6.688-18.103,6.688c-6.953,0-12.745-2.229-17.377-6.688
		c-4.631-4.459-6.946-10.045-6.946-16.762c0-6.891,2.331-12.593,6.997-17.106C1029.746,375.818,1035.643,373.561,1042.771,373.561z
		 M1043.035,379.836c-5.279,0-9.617,1.65-13.016,4.953c-3.399,3.303-5.099,7.52-5.099,12.648c0,4.977,1.704,9.115,5.114,12.418
		s7.678,4.954,12.803,4.954c5.146,0,9.441-1.685,12.884-5.053s5.164-7.563,5.164-12.583c0-4.888-1.722-8.999-5.164-12.335
		C1052.279,381.504,1048.051,379.836,1043.035,379.836z"/>
	<path fill="#FFFFFF" d="M1067.49,374.155h38.541v5.878h-16.083v40.324h-6.638v-40.324h-15.82V374.155z"/>
	<path fill="#FFFFFF" d="M1112.273,374.221h26.156v5.879h-19.551v14.068h18.891v5.912h-18.891v14.333h20.178v5.879h-26.783V374.221z
		"/>
	<path fill="#FFFFFF" d="M1185.854,409.658v7.266c-4.844,2.642-10.436,3.963-16.776,3.963c-5.151,0-9.522-1.035-13.111-3.105
		c-3.589-2.068-6.429-4.92-8.521-8.553s-3.137-7.563-3.137-11.791c0-6.715,2.394-12.361,7.182-16.941
		c4.789-4.579,10.695-6.869,17.719-6.869c4.844,0,10.227,1.266,16.149,3.798v7.101c-5.395-3.082-10.667-4.623-15.819-4.623
		c-5.283,0-9.671,1.667-13.16,5.003c-3.49,3.335-5.234,7.513-5.234,12.532c0,5.064,1.717,9.227,5.152,12.484
		c3.434,3.259,7.826,4.888,13.176,4.888C1175.065,414.81,1180.525,413.092,1185.854,409.658z"/>
	<path fill="#FFFFFF" d="M1190.049,374.155h38.541v5.878h-16.084v40.324h-6.639v-40.324h-15.818V374.155z"/>
</g>
<g>
	<path fill="#FFFFFF" d="M93.214,420.357v-46.202h14.63c4.403,0,7.915,1.188,10.535,3.567c2.62,2.377,3.93,5.57,3.93,9.576
		c0,2.688-0.672,5.064-2.014,7.135c-1.343,2.068-3.182,3.572-5.516,4.508c-2.334,0.936-5.68,1.402-10.04,1.402h-4.888v20.014H93.214
		z M106.689,380.033h-6.836v14.433h7.232c2.686,0,4.756-0.632,6.209-1.899c1.453-1.266,2.18-3.076,2.18-5.432
		C115.474,382.4,112.545,380.033,106.689,380.033z"/>
	<path fill="#FFFFFF" d="M128.056,374.221h6.605v40.127h20.773v6.01h-27.378V374.221z"/>
	<path fill="#FFFFFF" d="M175.945,373.957h4.642l20.687,46.4h-6.761l-6.149-13.672h-19.684l-5.765,13.672h-6.788L175.945,373.957z
		 M185.649,400.807l-7.443-16.711l-6.903,16.711H185.649z"/>
	<path fill="#FFFFFF" d="M226.645,374.221h8.018l-17.041,21.731v24.405h-6.771v-24.405l-17.041-21.731h7.974l12.347,15.906
		L226.645,374.221z"/>
</g>
<g>
	<g>
		<circle fill="#1077FF" cx="161.577" cy="167.577" r="148.077"/>
		<path fill="none" stroke="#1077FF" stroke-width="7" stroke-miterlimit="10" d="M161.577,325.654
			C74.413,325.654,3.5,254.741,3.5,167.577S74.413,9.5,161.577,9.5s158.077,70.913,158.077,158.077S248.741,325.654,161.577,325.654
			z"/>
	</g>
	<polygon fill="#FFFFFF" points="113,93.655 241.11,172.202 113,250.74 	"/>
</g>
<g>
	<path fill="#FFFFFF" d="M558.372,368.221h26.156v5.879h-19.551v14.068h18.891v5.912h-18.891v14.333h20.179v5.879h-26.784V368.221z"
		/>
	<path fill="#FFFFFF" d="M592.255,414.292v-46.071h15.555c6.275,0,11.239,0.941,14.895,2.824c3.654,1.883,6.561,4.651,8.719,8.307
		c2.157,3.654,3.236,7.64,3.236,11.955c0,3.082-0.594,6.032-1.783,8.85c-1.189,2.819-2.885,5.296-5.086,7.432
		c-2.246,2.201-4.855,3.863-7.827,4.986c-1.74,0.684-3.335,1.14-4.789,1.371c-1.453,0.23-4.228,0.347-8.323,0.347H592.255z
		 M607.117,374.1h-8.257v34.313h8.455c3.303,0,5.867-0.226,7.695-0.677c1.827-0.451,3.352-1.023,4.574-1.717
		c1.222-0.693,2.339-1.547,3.352-2.561c3.258-3.303,4.888-7.475,4.888-12.516c0-4.954-1.673-8.994-5.02-12.121
		c-1.233-1.166-2.648-2.124-4.244-2.873c-1.596-0.748-3.11-1.244-4.541-1.486C612.588,374.221,610.288,374.1,607.117,374.1z"/>
	<path fill="#FFFFFF" d="M642.983,368.221h6.605v46.137h-6.605V368.221z"/>
	<path fill="#FFFFFF" d="M655.896,368.155h38.541v5.878h-16.083v40.324h-6.638v-40.324h-15.819V368.155z"/>
</g>
<g>
	<circle fill="#1077FF" cx="624.438" cy="161.577" r="148.077"/>
	<path fill="none" stroke="#1077FF" stroke-width="7" stroke-miterlimit="10" d="M624.439,319.654
		c-87.165,0-158.078-70.913-158.078-158.077S537.275,3.5,624.439,3.5c87.164,0,158.076,70.913,158.076,158.077
		S711.603,319.654,624.439,319.654z"/>
</g>
<g>
	<polygon fill="#FFFFFF" points="620.904,215.07 606.975,224.787 605.525,207.865 	"/>
	
		<rect x="654.103" y="86.054" transform="matrix(-0.9055 -0.4244 0.4244 -0.9055 1188.1525 562.9922)" fill="#FFFFFF" width="5.345" height="126.241"/>
	
		<rect x="630.899" y="74.934" transform="matrix(-0.9055 -0.4242 0.4242 -0.9055 1147.7163 531.6344)" fill="#FFFFFF" width="4.279" height="126.242"/>
	
		<rect x="642.476" y="80.608" transform="matrix(-0.9054 -0.4246 0.4246 -0.9054 1168.2399 547.7731)" fill="#FFFFFF" width="5.348" height="126.24"/>
	<path fill="#FFFFFF" d="M658.211,74.237l4.693-10.018c1.67-3.563,6.262-4.936,9.824-3.267l17.746,8.314
		c3.564,1.669,5.1,5.912,3.432,9.476l-4.691,10.017L658.211,74.237z"/>
</g>
<polyline fill="none" stroke="#FFFFFF" stroke-width="7" stroke-miterlimit="10" points="671,138.5 703.5,138.5 703.5,247.5 
	537.5,247.5 537.5,138.5 625,138.5 "/>
</svg>
