<?xml version="1.0" encoding="utf-8"?>
<!-- Generator: Adobe Illustrator 16.0.0, SVG Export Plug-In . SVG Version: 6.00 Build 0)  -->
<!DOCTYPE svg PUBLIC "-//W3C//DTD SVG 1.1//EN" "http://www.w3.org/Graphics/SVG/1.1/DTD/svg11.dtd">
<svg version="1.1" id="Layer_1" xmlns="http://www.w3.org/2000/svg" xmlns:xlink="http://www.w3.org/1999/xlink" x="0px" y="0px"
	 width="379.516px" height="93.345px" viewBox="0 0 379.516 93.345" enable-background="new 0 0 379.516 93.345"
	 xml:space="preserve">
<g>
	<path fill="none" stroke="#FFFFFF" stroke-width="1.5525" stroke-miterlimit="10" d="M343.682,72.224
		c-19.331,0-35.058-15.728-35.058-35.059s15.727-35.058,35.058-35.058s35.058,15.727,35.058,35.058S363.013,72.224,343.682,72.224z"
		/>
</g>
<g>
	<path fill="#FFFFFF" d="M363.495,17.951c0-0.238-0.193-0.431-0.431-0.431h-39.059c-0.238,0-0.431,0.192-0.431,0.431v38.394
		c0,0.237,0.192,0.431,0.431,0.431h39.059c0.237,0,0.431-0.193,0.431-0.431V17.951L363.495,17.951z M359.328,18.892
		c0.332,0,0.603,0.27,0.603,0.603s-0.271,0.603-0.603,0.603c-0.334,0-0.603-0.27-0.603-0.603S358.994,18.892,359.328,18.892z
		 M348.938,18.892c0.333,0,0.603,0.27,0.603,0.603s-0.27,0.603-0.603,0.603s-0.604-0.27-0.604-0.603S348.604,18.892,348.938,18.892z
		 M338.547,18.892c0.332,0,0.603,0.27,0.603,0.603s-0.271,0.603-0.603,0.603c-0.333,0-0.603-0.27-0.603-0.603
		S338.214,18.892,338.547,18.892z M328.156,18.892c0.333,0,0.604,0.27,0.604,0.603s-0.271,0.603-0.604,0.603
		s-0.603-0.27-0.603-0.603S327.823,18.892,328.156,18.892z M328.156,55.53c-0.333,0-0.603-0.271-0.603-0.603
		c0-0.333,0.27-0.604,0.603-0.604s0.604,0.271,0.604,0.604C328.76,55.26,328.489,55.53,328.156,55.53z M338.547,55.53
		c-0.333,0-0.603-0.271-0.603-0.603c0-0.333,0.27-0.604,0.603-0.604c0.332,0,0.603,0.271,0.603,0.604
		C339.149,55.26,338.879,55.53,338.547,55.53z M348.938,55.53c-0.333,0-0.604-0.271-0.604-0.603c0-0.333,0.271-0.604,0.604-0.604
		s0.603,0.271,0.603,0.604C349.54,55.26,349.271,55.53,348.938,55.53z M359.328,55.53c-0.334,0-0.603-0.271-0.603-0.603
		c0-0.333,0.269-0.604,0.603-0.604c0.332,0,0.603,0.271,0.603,0.604C359.931,55.26,359.66,55.53,359.328,55.53z M361.056,47.414
		c0,0.238,0.028,0.49-0.182,0.49h-0.039h-1.332v5.101h-31.714v-1.109h-1.053h-0.049c-0.212,0-0.451-0.196-0.451-0.435v-3.013
		c0-0.238,0.239-0.544,0.451-0.544h0.049h1.053V26.392h-1.053h-0.049c-0.212,0-0.451-0.094-0.451-0.332v-3.014
		c0-0.237,0.239-0.424,0.451-0.424h0.049h1.053v-1.331h31.714v5.323h1.332h0.039c0.21,0,0.182,0.154,0.182,0.393V47.414z"/>
	<path fill="#FFFFFF" d="M360.269,26.835h-2.67c-0.237,0-0.43,0.206-0.43,0.444c0,0.237,0.192,0.443,0.43,0.443h2.126v18.851h-2.126
		c-0.237,0-0.43,0.206-0.43,0.444c0,0.237,0.192,0.443,0.43,0.443h2.67c0.237,0,0.344-0.153,0.344-0.392V27.351
		C360.612,27.113,360.506,26.835,360.269,26.835z"/>
	<path fill="#FFFFFF" d="M352.224,24.424c-1.284,0-2.325,1.041-2.325,2.325c0,1.283,1.041,2.324,2.325,2.324
		s2.325-1.041,2.325-2.324C354.549,25.465,353.508,24.424,352.224,24.424z M352.224,27.695c-0.523,0-0.947-0.424-0.947-0.946
		c0-0.523,0.424-0.948,0.947-0.948s0.947,0.424,0.947,0.948C353.171,27.271,352.747,27.695,352.224,27.695z"/>
	<circle fill="#FFFFFF" cx="352.224" cy="26.749" r="0.655"/>
	<path fill="#FFFFFF" d="M348.877,34.574c0.022,0.028,0.058,0.071,0.123,0.071c0.031,0,0.064-0.011,0.104-0.033l2.833-1.636
		c0.1-0.058,0.171-0.149,0.2-0.261c0.03-0.111,0.015-0.228-0.043-0.327c-0.076-0.134-0.219-0.216-0.373-0.216
		c-0.075,0-0.149,0.02-0.215,0.058l-2.833,1.637c-0.134,0.076-0.098,0.17-0.081,0.215c0.003,0.009,0.006,0.017,0.009,0.024
		l-1.522,0.787c-0.629-0.926-1.548-1.495-2.879-1.571v-1.563c0.222-0.005,0.061-0.008,0.073-0.01
		c0.124-0.021,0.148-0.094,0.148-0.179v-3.272c0-0.237-0.206-0.43-0.443-0.43s-0.443,0.192-0.443,0.43v3.272
		c0,0.152,0.132,0.17,0.177,0.177c0.007,0.002,0.045,0.003,0.045,0.004v1.572c-1.108,0.08-1.981,0.674-2.592,1.569l-1.299-0.785
		c0.003-0.008,0.032-0.016,0.035-0.023c0.02-0.046,0.071-0.14-0.063-0.217l-2.825-1.637c-0.065-0.038-0.137-0.058-0.211-0.058
		c-0.153,0-0.294,0.082-0.371,0.216c-0.118,0.205-0.047,0.47,0.159,0.588l2.835,1.636c0.039,0.022,0.072,0.033,0.104,0.033
		c0.066,0,0.101-0.043,0.124-0.071c0.006-0.007,0.012-0.013,0.017-0.02l1.361,0.786c-0.24,0.491-0.361,1.019-0.361,1.568
		s0.121,1.076,0.361,1.569l-1.361,0.785c-0.005-0.007-0.011-0.014-0.017-0.021c-0.023-0.028-0.058-0.071-0.123-0.071
		c-0.032,0-0.064,0.011-0.104,0.033l-2.833,1.636c-0.206,0.119-0.276,0.383-0.158,0.589c0.077,0.133,0.22,0.215,0.374,0.215
		c0.075,0,0.149-0.02,0.215-0.058l2.834-1.636c0.133-0.077,0.097-0.171,0.08-0.216c-0.004-0.009-0.007-0.017-0.009-0.025
		l1.236-0.785c0.61,0.896,1.483,1.49,2.592,1.57v1.571c0,0.002-0.038,0.002-0.045,0.004c-0.045,0.007-0.177,0.024-0.177,0.177v3.272
		c0,0.237,0.428,0.389,0.665,0.389h-0.011c0.238,0,0.232-0.151,0.232-0.389v-3.272c0-0.085-0.024-0.157-0.148-0.179
		c-0.013-0.002,0.148-0.005-0.073-0.01v-1.563c1.331-0.076,2.25-0.645,2.879-1.57l1.442,0.786c-0.003,0.009,0.03,0.017,0.026,0.025
		c-0.024,0.072-0.014,0.147,0.103,0.215l2.845,1.636c0.065,0.038,0.145,0.058,0.22,0.058c0.154,0,0.3-0.082,0.377-0.215
		c0.057-0.101,0.074-0.216,0.045-0.326c-0.03-0.111-0.101-0.205-0.2-0.263l-2.832-1.636c-0.04-0.022-0.073-0.033-0.104-0.033
		c-0.065,0-0.101,0.043-0.123,0.071c-0.005,0.007-0.012,0.014-0.017,0.021l-1.36-0.786c0.239-0.492,0.361-1.02,0.361-1.568
		c0-0.55-0.122-1.077-0.362-1.569l1.361-0.785C348.865,34.562,348.871,34.567,348.877,34.574z M341.575,36.909
		c0-0.389,0.081-0.764,0.242-1.115l1.932,1.115l-1.932,1.115C341.656,37.673,341.575,37.298,341.575,36.909z M343.757,39.586
		c-0.666-0.076-1.484-0.495-1.93-1.115l1.93-1.114V39.586z M343.757,36.462l-1.93-1.114c0.445-0.62,1.264-1.039,1.93-1.115V36.462z
		 M344.2,34.231c0.887,0.07,1.462,0.454,1.93,1.115l-1.93,1.114V34.231z M344.2,39.587v-2.23l1.931,1.114
		C345.662,39.132,345.087,39.517,344.2,39.587z M346.713,38.024l-1.931-1.115l1.931-1.115c0.16,0.352,0.243,0.727,0.243,1.115
		S346.874,37.673,346.713,38.024z"/>
	<polygon fill="#FFFFFF" points="338.435,34.261 338.435,39.558 339.1,39.061 339.1,34.759 	"/>
	<path fill="#FFFFFF" d="M339.787,45.908h-0.258h-0.43v-5.482l-0.665,0.497v4.985h-2.895l-1.27,0.019
		c-0.197-0.04-0.494-0.198-0.494-0.406V28.987c0-0.208,0.25-0.389,0.447-0.428l4.211-0.002v4.341l0.665,0.497v-4.786h0.43h0.258
		c0.237,0,0.199-0.245,0.199-0.483v-3.1c0-0.098,0.198-0.188,0.144-0.188h-1.03V22.96c0-0.238-0.096-0.431-0.333-0.431
		s-0.332,0.192-0.332,0.431v1.879h-1.229c-0.238,0-0.545-0.264-0.545-0.501v-1.29c0-0.055-0.048-0.205-0.145-0.205h-9.214
		c-0.237,0-0.622,0.31-0.622,0.548v2.325c0,0.237,0.289,0.431,0.526,0.431l4.196,0.003c0.196,0.046,0.379,0.253,0.379,0.493v21.224
		c0,0.239-0.135,0.446-0.331,0.492l-4.266,0.004c-0.237,0-0.505,0.192-0.505,0.431v2.324c0,0.238,0.385,0.336,0.623,0.336h9.213
		c0.097,0,0.145,0.062,0.145,0.007v-1.29c0-0.237,0.307-0.491,0.545-0.491h1.229v1.869c0,0.238,0.095,0.431,0.332,0.431
		s0.333-0.192,0.333-0.431v-1.869h1.03c0.055,0-0.144-0.101-0.144-0.197v-3.101C339.986,46.144,340.025,45.908,339.787,45.908z"/>
</g>
<g>
	<path fill="#0071BC" d="M321.259,88.939l-1.114-0.677c-0.698-0.427-1.194-0.846-1.49-1.259s-0.443-0.888-0.443-1.425
		c0-0.805,0.28-1.459,0.839-1.962s1.285-0.755,2.179-0.755c0.855,0,1.638,0.24,2.352,0.72v1.662
		c-0.737-0.709-1.53-1.063-2.381-1.063c-0.479,0-0.871,0.11-1.179,0.332s-0.461,0.504-0.461,0.85c0,0.307,0.113,0.594,0.34,0.861
		c0.227,0.267,0.591,0.549,1.093,0.842l1.119,0.663c1.247,0.745,1.872,1.694,1.872,2.846c0,0.82-0.275,1.487-0.824,2
		c-0.55,0.514-1.264,0.769-2.143,0.769c-1.011,0-1.932-0.31-2.761-0.932v-1.86c0.79,1.003,1.706,1.503,2.746,1.503
		c0.459,0,0.842-0.127,1.146-0.383c0.306-0.255,0.457-0.575,0.457-0.959C322.605,90.089,322.157,89.498,321.259,88.939z"/>
	<path fill="#0071BC" d="M325.594,82.994h5.802v1.304h-4.337v3.12h4.189v1.312h-4.189v3.178h4.476v1.305h-5.94V82.994z"/>
	<path fill="#0071BC" d="M341.913,90.854v1.612c-1.074,0.585-2.314,0.878-3.721,0.878c-1.143,0-2.112-0.229-2.908-0.688
		s-1.426-1.092-1.89-1.896c-0.464-0.806-0.695-1.678-0.695-2.615c0-1.49,0.531-2.741,1.593-3.757s2.372-1.524,3.93-1.524
		c1.074,0,2.269,0.281,3.582,0.843v1.575c-1.197-0.684-2.366-1.025-3.509-1.025c-1.172,0-2.145,0.369-2.919,1.109
		c-0.773,0.739-1.16,1.666-1.16,2.779c0,1.123,0.381,2.047,1.142,2.769c0.763,0.723,1.736,1.084,2.923,1.084
		C339.521,91.996,340.731,91.615,341.913,90.854z"/>
	<path fill="#0071BC" d="M350.834,82.994h1.473v5.809c0,0.786-0.058,1.379-0.172,1.779c-0.115,0.4-0.257,0.734-0.426,1
		c-0.168,0.267-0.374,0.504-0.618,0.715c-0.811,0.697-1.87,1.047-3.179,1.047c-1.333,0-2.402-0.347-3.208-1.04
		c-0.244-0.215-0.451-0.455-0.619-0.722c-0.169-0.266-0.308-0.591-0.418-0.978c-0.109-0.385-0.164-0.991-0.164-1.816v-5.794h1.472
		v5.809c0,0.962,0.11,1.63,0.33,2.007c0.219,0.377,0.554,0.678,1.003,0.904c0.449,0.228,0.979,0.342,1.59,0.342
		c0.868,0,1.577-0.229,2.124-0.682c0.288-0.244,0.495-0.532,0.622-0.864s0.19-0.901,0.19-1.707V82.994L350.834,82.994z"/>
	<path fill="#0071BC" d="M354.379,93.227V82.994h2.564c1.034,0,1.856,0.256,2.464,0.77c0.607,0.513,0.912,1.206,0.912,2.08
		c0,0.596-0.149,1.11-0.447,1.546c-0.298,0.434-0.725,0.759-1.281,0.974c0.327,0.215,0.646,0.508,0.959,0.879
		s0.752,1.019,1.318,1.941c0.356,0.58,0.642,1.018,0.857,1.311l0.542,0.732h-1.743l-0.447-0.674
		c-0.014-0.024-0.043-0.066-0.087-0.125l-0.285-0.402l-0.453-0.748l-0.49-0.799c-0.303-0.421-0.579-0.755-0.832-1.003
		c-0.251-0.249-0.479-0.428-0.682-0.537c-0.203-0.11-0.544-0.165-1.022-0.165h-0.382v4.453H354.379L354.379,93.227z M356.283,84.239
		h-0.439v3.23h0.557c0.743,0,1.252-0.063,1.527-0.19s0.491-0.319,0.645-0.575c0.154-0.257,0.23-0.548,0.23-0.875
		c0-0.322-0.085-0.614-0.256-0.875c-0.171-0.262-0.411-0.446-0.722-0.553C357.515,84.293,357.001,84.239,356.283,84.239z"/>
	<path fill="#0071BC" d="M363.395,82.994h5.802v1.304h-4.336v3.12h4.189v1.312h-4.189v3.178h4.475v1.305h-5.94V82.994z"/>
</g>
<g>
	<path fill="none" stroke="#FFFFFF" stroke-width="1.5525" stroke-miterlimit="10" d="M241.021,72.224
		c-19.331,0-35.059-15.728-35.059-35.059s15.728-35.058,35.059-35.058s35.058,15.727,35.058,35.058S260.352,72.224,241.021,72.224z"
		/>
</g>
<path fill="#FFFFFF" d="M253.493,31.714V21.403c0-3.742-2.307-6.544-5.517-6.544h-13.672c-3.211,0-6.316,2.802-6.316,6.544v10.311
	h-2.883v23.287h31.271V31.714H253.493z M243.069,46.352h-4.879v-5.544h0.672h4.242h-0.035V46.352z M250.166,31.714h-18.851V21.403
	c0-1.969,1.541-3.438,2.989-3.438h13.672c1.447,0,2.189,1.47,2.189,3.438V31.714z"/>
<g>
	<path fill="#0071BC" d="M210.356,93.227V82.979h3.245c0.977,0,1.755,0.264,2.337,0.791c0.581,0.527,0.871,1.235,0.871,2.124
		c0,0.596-0.148,1.123-0.447,1.582c-0.297,0.459-0.705,0.792-1.223,1.001c-0.518,0.207-1.26,0.31-2.227,0.31h-1.084v4.439H210.356z
		 M213.345,84.283h-1.516v3.201h1.604c0.595,0,1.055-0.141,1.377-0.422c0.321-0.28,0.483-0.682,0.483-1.204
		C215.294,84.808,214.644,84.283,213.345,84.283z"/>
	<path fill="#0071BC" d="M218.128,93.227V82.994h2.563c1.035,0,1.856,0.256,2.465,0.77c0.608,0.513,0.912,1.206,0.912,2.08
		c0,0.596-0.149,1.11-0.447,1.546c-0.298,0.434-0.726,0.759-1.281,0.974c0.327,0.215,0.647,0.508,0.959,0.879
		c0.313,0.371,0.752,1.019,1.318,1.941c0.356,0.58,0.643,1.018,0.856,1.311l0.543,0.732h-1.744l-0.445-0.674
		c-0.016-0.024-0.045-0.066-0.088-0.125l-0.285-0.402L223,91.277l-0.49-0.799c-0.302-0.421-0.579-0.755-0.831-1.003
		c-0.252-0.249-0.479-0.428-0.682-0.537c-0.203-0.11-0.544-0.165-1.023-0.165h-0.381v4.453H218.128L218.128,93.227z M220.032,84.239
		h-0.439v3.23h0.557c0.742,0,1.252-0.063,1.527-0.19s0.49-0.319,0.645-0.575c0.154-0.257,0.23-0.548,0.23-0.875
		c0-0.322-0.085-0.614-0.256-0.875c-0.171-0.262-0.412-0.446-0.722-0.553C221.265,84.293,220.75,84.239,220.032,84.239z"/>
	<path fill="#0071BC" d="M231.265,82.849c1.58,0,2.896,0.5,3.949,1.501c1.051,1.001,1.577,2.256,1.577,3.765
		s-0.532,2.758-1.593,3.747c-1.061,0.988-2.399,1.483-4.016,1.483c-1.541,0-2.826-0.495-3.854-1.483
		c-1.026-0.989-1.539-2.228-1.539-3.718c0-1.528,0.516-2.793,1.551-3.794S229.683,82.849,231.265,82.849z M231.323,84.239
		c-1.171,0-2.133,0.366-2.887,1.099c-0.754,0.733-1.131,1.668-1.131,2.806c0,1.104,0.377,2.021,1.134,2.754
		c0.756,0.732,1.702,1.099,2.839,1.099c1.142,0,2.094-0.374,2.858-1.121c0.763-0.747,1.145-1.677,1.145-2.79
		c0-1.085-0.382-1.996-1.145-2.736C233.373,84.609,232.435,84.239,231.323,84.239z"/>
	<path fill="#0071BC" d="M236.747,82.979h8.547v1.304h-3.566v8.943h-1.473v-8.943h-3.508V82.979L236.747,82.979z"/>
	<path fill="#0071BC" d="M246.679,82.994h5.801v1.304h-4.336v3.12h4.189v1.312h-4.189v3.178h4.475v1.305h-5.939V82.994z"/>
	<path fill="#0071BC" d="M262.997,90.854v1.612c-1.074,0.585-2.314,0.878-3.721,0.878c-1.143,0-2.111-0.229-2.908-0.688
		c-0.796-0.459-1.426-1.092-1.89-1.896c-0.464-0.806-0.695-1.678-0.695-2.615c0-1.49,0.531-2.741,1.593-3.757
		c1.063-1.016,2.372-1.524,3.93-1.524c1.074,0,2.269,0.281,3.582,0.843v1.575c-1.197-0.684-2.366-1.025-3.509-1.025
		c-1.172,0-2.146,0.369-2.919,1.109c-0.773,0.739-1.16,1.666-1.16,2.779c0,1.123,0.381,2.047,1.143,2.769
		c0.762,0.723,1.734,1.084,2.922,1.084C260.604,91.996,261.815,91.615,262.997,90.854z"/>
	<path fill="#0071BC" d="M263.927,82.979h8.548v1.304h-3.566v8.943h-1.473v-8.943h-3.509V82.979z"/>
</g>
<g>
	<path fill="#0071BC" d="M20.673,93.227V82.979h3.245c0.976,0,1.755,0.264,2.336,0.791c0.582,0.527,0.872,1.235,0.872,2.124
		c0,0.596-0.149,1.123-0.447,1.582c-0.297,0.459-0.706,0.792-1.224,1.001c-0.517,0.207-1.259,0.31-2.226,0.31h-1.084v4.439H20.673z
		 M23.661,84.283h-1.516v3.201h1.604c0.596,0,1.055-0.141,1.377-0.422c0.322-0.28,0.483-0.682,0.483-1.204
		C25.609,84.808,24.96,84.283,23.661,84.283z"/>
	<path fill="#0071BC" d="M28.4,82.994h1.464v8.899h4.607v1.333H28.4V82.994L28.4,82.994z"/>
	<path fill="#0071BC" d="M39.021,82.936h1.029l4.588,10.291h-1.5l-1.363-3.032H37.41l-1.279,3.032h-1.505L39.021,82.936z
		 M41.173,88.891l-1.65-3.706l-1.531,3.706H41.173z"/>
	<path fill="#0071BC" d="M50.265,82.994h1.778l-3.779,4.819v5.413h-1.501v-5.413l-3.779-4.819h1.768l2.738,3.527L50.265,82.994z"/>
</g>
<g>
	<path fill="none" stroke="#FFFFFF" stroke-width="1.5525" stroke-miterlimit="10" d="M35.834,72.224
		c-19.331,0-35.058-15.728-35.058-35.059S16.503,2.107,35.834,2.107s35.058,15.727,35.058,35.058S55.166,72.224,35.834,72.224z"/>
</g>
<polygon fill="#FFFFFF" points="25.061,20.771 53.473,38.19 25.061,55.609 "/>
<g>
	<path fill="#0071BC" d="M123.835,81.664h5.801v1.303H125.3v3.12h4.189v1.312H125.3v3.179h4.476v1.305h-5.94V81.664z"/>
	<path fill="#0071BC" d="M131.35,91.882V81.664h3.449c1.392,0,2.493,0.209,3.304,0.626c0.81,0.418,1.455,1.031,1.933,1.843
		c0.479,0.811,0.718,1.694,0.718,2.651c0,0.683-0.132,1.337-0.396,1.962s-0.64,1.175-1.128,1.648
		c-0.498,0.488-1.077,0.856-1.736,1.105c-0.386,0.151-0.74,0.253-1.062,0.305c-0.322,0.051-0.938,0.077-1.846,0.077H131.35
		L131.35,91.882z M134.646,82.967h-1.832v7.61h1.875c0.733,0,1.301-0.05,1.707-0.149c0.405-0.101,0.743-0.228,1.015-0.382
		c0.271-0.153,0.519-0.343,0.743-0.567c0.723-0.732,1.084-1.658,1.084-2.776c0-1.099-0.371-1.994-1.114-2.688
		c-0.273-0.259-0.586-0.471-0.941-0.638c-0.354-0.166-0.69-0.276-1.007-0.329C135.859,82.994,135.349,82.967,134.646,82.967z"/>
	<path fill="#0071BC" d="M142.6,81.664h1.464v10.231H142.6V81.664z"/>
	<path fill="#0071BC" d="M145.464,81.649h8.547v1.304h-3.567v8.942h-1.473v-8.942h-3.508V81.649L145.464,81.649z"/>
</g>
<path fill="none" stroke="#FFFFFF" stroke-width="1.5525" stroke-miterlimit="10" d="M138.487,70.893
	c-19.332,0-35.059-15.727-35.059-35.059c0-19.331,15.728-35.058,35.059-35.058s35.058,15.727,35.058,35.058
	C173.545,55.166,157.818,70.893,138.487,70.893z"/>
<g>
	<polygon fill="#FFFFFF" points="137.703,47.698 134.614,49.854 134.292,46.101 	"/>
	
		<rect x="145.061" y="19.086" transform="matrix(0.9052 0.425 -0.425 0.9052 27.8704 -58.7664)" fill="#FFFFFF" width="1.186" height="27.998"/>
	
		<rect x="139.925" y="16.627" transform="matrix(0.9057 0.4238 -0.4238 0.9057 26.2124 -56.6171)" fill="#FFFFFF" width="0.949" height="27.997"/>
	
		<rect x="142.487" y="17.874" transform="matrix(0.9053 0.4247 -0.4247 0.9053 27.0798 -57.7472)" fill="#FFFFFF" width="1.187" height="27.998"/>
	<path fill="#FFFFFF" d="M145.978,16.464l1.04-2.221c0.371-0.791,1.389-1.096,2.179-0.725l3.936,1.844
		c0.791,0.37,1.131,1.311,0.762,2.101l-1.041,2.222L145.978,16.464z"/>
</g>
<polyline fill="none" stroke="#FFFFFF" stroke-width="1.5525" stroke-miterlimit="10" points="148.813,30.717 156.021,30.717 
	156.021,54.891 119.206,54.891 119.206,30.717 138.612,30.717 "/>
</svg>
