<?xml version="1.0" encoding="utf-8"?>
<!-- Generator: Adobe Illustrator 16.0.0, SVG Export Plug-In . SVG Version: 6.00 Build 0)  -->
<!DOCTYPE svg PUBLIC "-//W3C//DTD SVG 1.1//EN" "http://www.w3.org/Graphics/SVG/1.1/DTD/svg11.dtd">
<svg version="1.1" id="Communicate" xmlns="http://www.w3.org/2000/svg" xmlns:xlink="http://www.w3.org/1999/xlink" x="0px"
	 y="0px" width="100%" height="100%" viewBox="0 0 82 82" enable-background="new 0 0 82 82" xml:space="preserve">
<g>
	<path fill-rule="evenodd" clip-rule="evenodd" fill="#FFFFFF" d="M21.026,39.988c0.023,0.073,0.079,0.178,0.143,0.194
		c0.445,0.114,0.381,0.452,0.418,0.732c0.109,0.827,0.434,1.557,1.128,2.146c0.109,0.093,0.195,0.286,0.172,0.415
		c-0.213,1.112,1.179,3.012,2.122,3.433c0.776-0.329,2.335-2.32,2.121-3.433c-0.024-0.129,0.062-0.322,0.172-0.415
		c0.694-0.589,1.019-1.318,1.128-2.146c0.036-0.28-0.027-0.618,0.417-0.732c0.064-0.016,0.121-0.121,0.143-0.194
		c0.166-0.519,0.34-1.036,0.474-1.562c0.08-0.32,0.072-0.646-0.444-0.689c0-0.576,0.035-1.121-0.008-1.659
		c-0.096-1.225-0.604-2.25-1.993-2.728c-0.655-0.225-1.33-0.309-2.011-0.299c-0.681-0.01-1.356,0.074-2.011,0.299
		c-1.389,0.479-1.897,1.503-1.995,2.728c-0.042,0.539-0.007,1.083-0.007,1.659c-0.515,0.044-0.523,0.369-0.442,0.689
		C20.687,38.952,20.861,39.47,21.026,39.988z"/>
	<path fill-rule="evenodd" clip-rule="evenodd" fill="#FFFFFF" d="M33.193,46.544c-1.955-1.238-2.554-1.298-4.996-2.962
		C27.842,44.693,27.538,46,25.038,47h-0.029c-2.5-1-2.805-2.307-3.16-3.418c-2.441,1.664-4.389,2.117-6.389,3.096
		c-0.911,0.451-1.543,2.853-0.538,3.364c2.601,1.072,10.408,1.604,10.408,1.604s5.858-0.788,8.458-1.863
		C34.794,49.271,34.151,47.165,33.193,46.544z"/>
	<path fill-rule="evenodd" clip-rule="evenodd" fill="#FFFFFF" d="M53.43,37.443c0.143,0.564,0.33,1.12,0.508,1.677
		c0.024,0.079,0.086,0.191,0.154,0.209c0.478,0.122,0.408,0.484,0.447,0.787c0.118,0.888,0.467,1.67,1.212,2.303
		c0.118,0.1,0.211,0.307,0.186,0.444c-0.229,1.197,1.443,3.335,2.278,3.688c1.012-0.452,2.506-2.491,2.277-3.688
		c-0.025-0.138,0.066-0.344,0.185-0.444c0.745-0.633,1.095-1.416,1.211-2.303c0.04-0.302-0.028-0.665,0.448-0.787
		c0.069-0.018,0.131-0.13,0.154-0.209c0.178-0.557,0.365-1.112,0.508-1.677c0.087-0.344,0.077-0.693-0.477-0.74
		c0-0.618,0.039-1.202-0.007-1.782c-0.104-1.314-0.649-2.415-2.142-2.928c-0.703-0.243-1.428-0.333-2.158-0.322
		c-0.732-0.011-1.457,0.079-2.16,0.322c-1.491,0.514-2.038,1.614-2.143,2.928c-0.045,0.58-0.006,1.165-0.006,1.782
		C53.352,36.75,53.344,37.1,53.43,37.443z"/>
	<path fill-rule="evenodd" clip-rule="evenodd" fill="#FFFFFF" d="M48.785,49.68c2.792,1.154,9.083,2.045,9.083,2.045
		s8.385-0.481,11.178-1.635c1.081-0.548,0.399-2.959-0.578-3.445c-2.147-1.049-4.239-1.701-6.86-3.488
		C61.226,44.346,60.899,46,58.215,47h-0.032c-2.685-1-3.013-2.654-3.395-3.844c-2.622,1.787-3.265,1.421-5.364,2.751
		C48.395,46.573,47.704,49.133,48.785,49.68z"/>
	<path fill-rule="evenodd" clip-rule="evenodd" fill="#FFFFFF" d="M76,22.353l-38.67,4.979l4.822,0.866L74,24.561v32.24l-30-3.13
		v1.769l10,1.095v0.888l-2.934-0.299L38.905,58.95l-8.333-1.274L28,57.973v-0.912l15-1.71V29.324L6,22.353v37.14l19.919-2.237
		l0.039,0.917l-11.379,1.372l9.532,3.101l18.086-3.035l14.795,2.483l9.524-3.101l-11.401-1.373l0.08-0.884L76,59.077V22.353z
		 M8,57.48V24.63l33,5.974v23.327L8,57.48z"/>
	<ellipse fill-rule="evenodd" clip-rule="evenodd" fill="#FFFFFF" cx="31.1" cy="41.061" rx="0.798" ry="0.706"/>
	<ellipse fill-rule="evenodd" clip-rule="evenodd" fill="#FFFFFF" cx="33.892" cy="41.061" rx="0.797" ry="0.706"/>
	<ellipse fill-rule="evenodd" clip-rule="evenodd" fill="#FFFFFF" cx="36.682" cy="41.061" rx="0.796" ry="0.706"/>
	<ellipse fill-rule="evenodd" clip-rule="evenodd" fill="#FFFFFF" cx="46.586" cy="41.061" rx="0.797" ry="0.706"/>
	<ellipse fill-rule="evenodd" clip-rule="evenodd" fill="#FFFFFF" cx="49.378" cy="41.061" rx="0.797" ry="0.706"/>
	<ellipse fill-rule="evenodd" clip-rule="evenodd" fill="#FFFFFF" cx="52.169" cy="41.061" rx="0.797" ry="0.706"/>
</g>
</svg>
