<?xml version="1.0" encoding="utf-8"?>
<!-- Generator: Adobe Illustrator 16.0.0, SVG Export Plug-In . SVG Version: 6.00 Build 0)  -->
<!DOCTYPE svg PUBLIC "-//W3C//DTD SVG 1.1//EN" "http://www.w3.org/Graphics/SVG/1.1/DTD/svg11.dtd">
<svg version="1.1" id="Convert" xmlns="http://www.w3.org/2000/svg" xmlns:xlink="http://www.w3.org/1999/xlink" x="0px" y="0px"
	 width="100%" height="100%" viewBox="0 0 82 82" enable-background="new 0 0 82 82" xml:space="preserve">
<g>
	<polygon fill="#FFFFFF" points="43,63 11,63 11,43 17,43 17,39 7,39 7,67 47,67 47,56 43,56 	"/>
	<path fill="#FFFFFF" d="M20,15v38h54V15H20z M69,48H25V21h44V48z"/>
</g>
<polygon fill="#FFFFFF" points="35,28 35,23.579 28.228,30.353 35,37.126 35,32 51,32 51,28 "/>
<polygon fill="#FFFFFF" points="64.772,38.353 58,31.579 58,36 42,36 42,40 58,40 58,45.127 "/>
</svg>
