<?xml version="1.0" encoding="utf-8"?>
<!-- Generator: Adobe Illustrator 16.0.0, SVG Export Plug-In . SVG Version: 6.00 Build 0)  -->
<!DOCTYPE svg PUBLIC "-//W3C//DTD SVG 1.1//EN" "http://www.w3.org/Graphics/SVG/1.1/DTD/svg11.dtd">
<svg version="1.1" id="view" xmlns="http://www.w3.org/2000/svg" xmlns:xlink="http://www.w3.org/1999/xlink" x="0px" y="0px"
	 width="100%" height="100%" viewBox="0 0 82 82" enable-background="new 0 0 82 82" xml:space="preserve">
<g>
	<path fill-rule="evenodd" clip-rule="evenodd" fill="#FFFFFF" d="M15.196,2.996c17.56,0,35.121,0,52.682,0
		c0.28,0.098,0.556,0.245,0.847,0.285C75.417,4.232,79.999,9.507,80,16.287c0.002,16.602,0.006,33.203-0.009,49.805
		c-0.001,1.029-0.087,2.066-0.229,3.086c-0.855,6.05-6.341,10.812-12.5,10.816c-17.119,0.014-34.24,0.012-51.36,0
		c-5.745-0.001-10.904-4.046-12.325-9.622c-0.211-0.827-0.387-1.665-0.579-2.496c0-17.562,0-35.122,0-52.682
		c0.1-0.28,0.25-0.553,0.29-0.841c0.764-5.42,4.39-9.48,9.683-10.815C13.711,3.35,14.454,3.176,15.196,2.996z M77.8,32.393
		c-0.576,0.55-0.951,0.894-1.313,1.254c-7.095,7.092-14.186,14.19-21.286,21.278c-1.975,1.969-4.616,2.332-6.857,0.992
		c-3.264-1.947-3.667-6.121-0.831-8.963c9.745-9.761,19.503-19.508,29.255-29.262c1.338-1.337,1.49-2.166,0.68-4.146
		c-0.373,0.347-0.716,0.648-1.036,0.97c-3.063,3.056-6.118,6.115-9.176,9.172c-7.187,7.187-14.369,14.375-21.561,21.555
		c-2.001,1.999-4.598,2.411-6.852,1.13c-3.336-1.898-3.772-6.158-0.892-9.042C48.075,27.171,58.232,17.023,68.383,6.87
		c0.379-0.378,0.741-0.772,1.154-1.205c-1.701-0.742-2.934-0.551-4.014,0.527c-1.5,1.497-2.996,2.997-4.494,4.496
		c-8.317,8.317-16.644,16.626-24.946,24.959c-1.571,1.577-3.404,2.208-5.534,1.631c-4.313-1.169-5.547-6.202-2.317-9.448
		C35.308,20.72,42.413,13.637,49.506,6.54c0.342-0.342,0.658-0.708,0.986-1.063c-1.334-0.013-2.543-0.621-3.656,0.505
		c-8.399,8.48-16.86,16.899-25.275,25.363c-0.458,0.46-0.815,1.121-0.984,1.751c-1.426,5.284-2.794,10.582-4.187,15.876
		c-0.102,0.387-0.261,0.76-0.393,1.14c-0.148,0.091-0.297,0.183-0.446,0.274c-3.397-3.456-6.793-6.911-10.228-10.403
		c-0.023,0.281-0.061,0.532-0.061,0.783C5.26,49.848,5.259,58.93,5.268,68.01c0,0.428,0.055,0.863,0.153,1.279
		c1.282,5.458,5.4,8.639,11.314,8.659c8.432,0.029,16.865,0.01,25.297,0.007c0.4,0,0.8-0.055,1.2-0.082
		c0.056-0.12,0.111-0.239,0.167-0.358c-3.43-3.421-6.859-6.843-10.333-10.306c0.337-0.117,0.576-0.218,0.825-0.282
		c5.34-1.378,10.688-2.726,16.012-4.157c0.824-0.222,1.688-0.684,2.289-1.279c8.166-8.102,16.254-16.281,24.457-24.345
		C78.048,35.77,78.081,34.369,77.8,32.393z"/>
	<path fill-rule="evenodd" clip-rule="evenodd" fill="#FFFFFF" d="M15.24,54.438c4.513,4.51,8.997,8.991,13.567,13.561
		c-1.954,0.52-3.957,1.065-5.966,1.585c-2.247,0.58-4.493,1.165-6.753,1.687c-0.742,0.173-1.537,0.266-2.292,0.203
		c-1.376-0.114-2.263-1.033-2.15-2.409c0.123-1.485,0.455-2.965,0.819-4.418c0.803-3.207,1.681-6.397,2.534-9.592
		C15.062,54.821,15.175,54.604,15.24,54.438z"/>
</g>
</svg>
