<?xml version="1.0" encoding="utf-8"?>
<!-- Generator: Adobe Illustrator 16.0.0, SVG Export Plug-In . SVG Version: 6.00 Build 0)  -->
<!DOCTYPE svg PUBLIC "-//W3C//DTD SVG 1.1//EN" "http://www.w3.org/Graphics/SVG/1.1/DTD/svg11.dtd">
<svg version="1.1" id="Edit" xmlns="http://www.w3.org/2000/svg" xmlns:xlink="http://www.w3.org/1999/xlink" x="0px" y="0px"
	 width="100%" height="100%" viewBox="0 0 82 82" enable-background="new 0 0 82 82" xml:space="preserve">
<g>
	<polygon fill="#FFFFFF" points="33.795,29.103 19.52,43.378 18.691,47.522 22.835,46.693 68.342,1.186 62.105,0.793 35.917,26.981 
		31.075,22 0,22 0,25 29.808,25 	"/>
	<polygon fill="#FFFFFF" points="77.691,4.316 72.859,1.641 25.321,49.18 26.564,55.395 32.779,56.638 80.146,9.271 	"/>
	<polygon fill="#FFFFFF" points="81.148,13.242 35.265,59.123 34.437,63.267 38.58,62.438 52.82,48.197 56,51.403 56,82 59,82 
		59,50.169 54.941,46.076 81.118,19.899 	"/>
	<polygon fill="#FFFFFF" points="15.881,66.076 26.198,65.69 16.267,55.76 	"/>
</g>
</svg>
