<?xml version="1.0" encoding="utf-8"?>
<!-- Generator: Adobe Illustrator 16.0.0, SVG Export Plug-In . SVG Version: 6.00 Build 0)  -->
<!DOCTYPE svg PUBLIC "-//W3C//DTD SVG 1.1//EN" "http://www.w3.org/Graphics/SVG/1.1/DTD/svg11.dtd">
<svg version="1.1" id="Manage" xmlns="http://www.w3.org/2000/svg" xmlns:xlink="http://www.w3.org/1999/xlink" x="0px" y="0px"
	 width="100%" height="100%" viewBox="0 0 82 82" enable-background="new 0 0 82 82" xml:space="preserve">
<g>
	<path fill-rule="evenodd" clip-rule="evenodd" fill="#FFFFFF" d="M51.317,25.813c0-1.674,0.091-3.258-0.019-4.828
		c-0.248-3.564-1.557-6.544-5.127-7.935c-1.685-0.656-3.42-0.902-5.172-0.873c-1.752-0.029-3.487,0.216-5.172,0.873
		c-3.57,1.391-4.879,4.371-5.127,7.935c-0.109,1.57-0.019,3.154-0.019,4.828c-1.326,0.129-1.891,1.075-1.683,2.008
		c0.341,1.529,0.79,3.035,1.215,4.544c0.06,0.212,0.203,0.516,0.369,0.564c1.144,0.332,1.522,1.314,1.617,2.129
		c0.28,2.408,1.116,4.529,2.901,6.244c0.282,0.272,0.504,0.831,0.441,1.204c-0.548,3.241,0.587,5.71,3.202,7.638
		c0.792,0.583,1.387,1.435,2.254,2.355c0.867-0.921,1.462-1.772,2.254-2.355c2.615-1.928,3.75-4.396,3.202-7.638
		c-0.063-0.373,0.159-0.932,0.441-1.204c1.785-1.715,2.621-3.836,2.901-6.244c0.095-0.815,0.474-1.797,1.617-2.129
		c0.166-0.048,0.31-0.353,0.369-0.564c0.425-1.509,0.874-3.015,1.215-4.544C53.208,26.888,52.644,25.942,51.317,25.813z"/>
	<path fill-rule="evenodd" clip-rule="evenodd" fill="#FFFFFF" d="M36.405,55.864c1.034-0.612,1.914-1.133,2.939-1.739
		c0.34,3.472-1.845,11.125-3.032,15.054c-8.25-5.096-14.563-1.304-21.25-4.429c-2.588-1.487-0.889-4.789-0.521-5.609
		c0.503-1.12,1.375-2.391,1.938-2.703c5.144-2.846,10.115-4.25,16.395-9.094C33.787,50.572,36.375,52.406,36.405,55.864z"/>
	<g>
		<path fill-rule="evenodd" clip-rule="evenodd" fill="#FFFFFF" d="M62.012,67.802c0.161,0.48,0.31,0.967,0.49,1.441
			c0.247,0.649,0.197,0.959-0.345,1.403c-0.832,0.679-1.8,1.061-2.865,1.173c-0.553,0.058-0.832-0.14-1.042-0.659
			c-0.079-0.199-0.161-0.4-0.229-0.604c-0.328-0.965-1.219-1.621-2.208-1.627c-0.966-0.003-1.865,0.646-2.21,1.586
			c-0.09,0.249-0.202,0.492-0.297,0.741c-0.106,0.28-0.314,0.438-0.6,0.461c-0.264,0.021-0.538,0.032-0.794-0.018
			c-0.88-0.172-1.679-0.542-2.386-1.092c-0.571-0.445-0.646-0.777-0.373-1.441c0.473-1.146,0.314-2.206-0.467-2.963
			c-0.691-0.668-1.516-0.864-2.443-0.617c-0.178,0.047-0.35,0.119-0.52,0.189c-0.707,0.289-1.021,0.215-1.471-0.412
			c-0.58-0.807-0.934-1.711-1.021-2.703c-0.063-0.695,0.096-0.896,0.724-1.18c0.416-0.188,0.867-0.363,1.201-0.659
			c1.251-1.108,0.927-3.142-0.583-3.862c-0.213-0.102-0.428-0.203-0.65-0.277c-0.422-0.141-0.611-0.446-0.605-0.863
			c0.002-0.295,0.037-0.596,0.11-0.881c0.209-0.824,0.56-1.588,1.118-2.236c0.418-0.482,0.711-0.52,1.306-0.309
			c0.469,0.166,0.955,0.37,1.44,0.389c1.642,0.062,2.767-1.627,2.145-3.151c-0.115-0.284-0.221-0.574-0.346-0.854
			c-0.143-0.315-0.094-0.6,0.104-0.868c0.066-0.091,0.136-0.184,0.221-0.256c0.866-0.746,1.872-1.179,3.008-1.272
			c0.612-0.051,0.824,0.113,1.053,0.679c0.099,0.247,0.195,0.496,0.288,0.745c0.345,0.912,1.18,1.5,2.155,1.516
			c0.92,0.014,1.781-0.563,2.148-1.439c0.099-0.236,0.204-0.47,0.294-0.711c0.136-0.365,0.411-0.552,0.779-0.531
			c0.386,0.023,0.778,0.074,1.147,0.182c0.704,0.204,1.357,0.529,1.911,1.022c0.469,0.417,0.534,0.706,0.278,1.28
			c-0.24,0.538-0.46,1.068-0.387,1.683c0.176,1.483,1.695,2.425,3.1,1.906c0.338-0.125,0.676-0.245,1.006-0.386
			c0.307-0.131,0.588-0.097,0.836,0.11c0.18,0.15,0.354,0.317,0.488,0.505c0.531,0.739,0.847,1.571,0.98,2.467
			c0.11,0.734-0.076,1.021-0.764,1.296c-0.22,0.088-0.438,0.177-0.656,0.269c-0.886,0.372-1.459,1.23-1.449,2.174
			c0.009,0.954,0.609,1.807,1.518,2.158c0.4,0.156,0.795,0.33,1.199,0.479c0.344,0.125,0.516,0.375,0.529,0.719
			c0.01,0.275,0.002,0.557-0.057,0.825c-0.186,0.864-0.554,1.652-1.108,2.344c-0.458,0.569-0.772,0.628-1.45,0.359
			c-0.504-0.199-1.004-0.448-1.529-0.536c-1.401-0.238-2.636,0.863-2.639,2.279C62.066,67.783,62.039,67.792,62.012,67.802z
			 M61.805,59.183c0.001-3.23-2.601-5.836-5.831-5.838c-3.225-0.002-5.832,2.611-5.829,5.841c0.001,3.21,2.607,5.817,5.817,5.82
			C59.196,65.01,61.804,62.409,61.805,59.183z"/>
	</g>
</g>
</svg>
