<?xml version="1.0" encoding="utf-8"?>
<!-- Generator: Adobe Illustrator 16.0.0, SVG Export Plug-In . SVG Version: 6.00 Build 0)  -->
<!DOCTYPE svg PUBLIC "-//W3C//DTD SVG 1.1//EN" "http://www.w3.org/Graphics/SVG/1.1/DTD/svg11.dtd">
<svg version="1.1" id="Organize" xmlns="http://www.w3.org/2000/svg" xmlns:xlink="http://www.w3.org/1999/xlink" x="0px" y="0px"
	 width="80%" height="80%" viewBox="0 0 82 82" enable-background="new 0 0 82 82" xml:space="preserve">
<g>
	<path fill="#FFFFFF" d="M69.178,27h-0.872l0.072-1.193c0.309-2.047-0.684-3.233-2.601-3.169c0.142-1.459,0.211-2.477,0.211-3.642
		c0-5.954-1.393-8.996-2.487-8.996H23.835c-1.304,0-1.629,4-2.035,5h-2.461c-1.478,1-2.492,1.43-2.568,7.552
		c-1.484,0.167-2.668,1.445-2.5,3.677L15.521,35h-1.804C11.576,35,9,35.397,9,37.538v0.044l4.022,29.073
		C13.047,68.774,15.196,71,17.322,71H65.02c2.126,0,3.859-2.227,3.882-3.348l4.134-36.526C72.902,28.143,71.232,27,69.178,27z
		 M24.984,12h37.377c0.985,0,1.89,3.135,1.89,8.041c0,1.995,0.111,3.959-0.313,6.959h-2.699c0.117-2,0.177-3.042,0.177-4.277
		c0-5.955-1.443-7.723-2.482-7.723H23.617C23.832,14,24.12,12,24.984,12z M20.913,17h36.589c1.365,0,2.021,1.688,2.021,5.992
		c0,1.235-0.063,2.008-0.183,4.008h-8.606c-0.193,0-1.927-0.615-3.12,0.158c-1.195,0.775-1.616,2.597-1.633,2.659L45.102,35H19.825
		c-0.723-5-1.104-9.545-1.104-11.28C18.721,19.01,19.36,17,20.913,17z"/>
	<path fill="#FFFFFF" d="M73.057,29.94l-0.021,0.186c0.006,0.083,0.025,0.159,0.025,0.246L73.057,29.94z"/>
	<rect x="23" y="23" fill="#FFFFFF" width="33" height="2"/>
	<rect x="23" y="19" fill="#FFFFFF" width="33" height="2"/>
	<rect x="23" y="27" fill="#FFFFFF" width="19" height="2"/>
	<rect x="23" y="31" fill="#FFFFFF" width="19" height="2"/>
</g>
</svg>
