<?xml version="1.0" encoding="utf-8"?>
<!-- Generator: Adobe Illustrator 16.0.0, SVG Export Plug-In . SVG Version: 6.00 Build 0)  -->
<!DOCTYPE svg PUBLIC "-//W3C//DTD SVG 1.1//EN" "http://www.w3.org/Graphics/SVG/1.1/DTD/svg11.dtd">
<svg version="1.1" id="Search" xmlns="http://www.w3.org/2000/svg" xmlns:xlink="http://www.w3.org/1999/xlink" x="0px" y="0px"
	 width="100%" height="100%" viewBox="0 0 82 82" enable-background="new 0 0 82 82" xml:space="preserve">
<path fill="#FFFFFF" d="M47.563,12.375c-8.628,0-15.649,7.021-15.649,15.649c0,4.866,2.233,9.219,5.729,12.092l-2.34,3.397
	c-0.451-0.158-0.924-0.247-1.41-0.247c-1.38,0-2.681,0.671-3.479,1.796L18.431,61.94c-0.659,0.928-0.918,2.057-0.729,3.179
	c0.19,1.124,0.807,2.106,1.737,2.767c0.726,0.515,1.578,0.788,2.466,0.788c1.38,0,2.681-0.672,3.479-1.796l11.983-16.88
	c0.66-0.93,0.918-2.059,0.728-3.182c-0.125-0.733-0.447-1.396-0.903-1.958l2.355-3.42c2.349,1.409,5.084,2.235,8.017,2.235
	c8.629,0,15.649-7.021,15.649-15.649C63.213,19.396,56.192,12.375,47.563,12.375z M47.563,39.274c-6.213,0-11.25-5.037-11.25-11.25
	c0,0,3.029,7.493,11.25,7.493c8.884,0,11.25-7.493,11.25-7.493C58.813,34.237,53.777,39.274,47.563,39.274z"/>
</svg>
