<?xml version="1.0" encoding="utf-8"?>
<!-- Generator: Adobe Illustrator 16.0.0, SVG Export Plug-In . SVG Version: 6.00 Build 0)  -->
<!DOCTYPE svg PUBLIC "-//W3C//DTD SVG 1.1//EN" "http://www.w3.org/Graphics/SVG/1.1/DTD/svg11.dtd">
<svg version="1.1" id="share" xmlns="http://www.w3.org/2000/svg" xmlns:xlink="http://www.w3.org/1999/xlink" x="0px" y="0px"
	 width="100%" height="100%" viewBox="0 0 82.281 82.283" enable-background="new 0 0 82.281 82.283" xml:space="preserve">
<path fill="#FFFFFF" d="M52.94,49.091c-2.454,0-4.691,0.926-6.385,2.446l-13.941-7.732c0.093-0.535,0.145-1.086,0.145-1.648
	c0-0.563-0.052-1.114-0.145-1.65l13.941-7.731c1.693,1.521,3.931,2.446,6.385,2.446c5.279,0,9.56-4.28,9.56-9.56
	c0-5.28-4.28-9.56-9.56-9.56s-9.56,4.28-9.56,9.56c0,0.563,0.051,1.113,0.145,1.649l-13.94,7.732
	c-1.693-1.521-3.931-2.446-6.385-2.446c-5.28,0-9.56,4.28-9.56,9.56c0,5.279,4.28,9.559,9.56,9.559c2.454,0,4.691-0.926,6.385-2.445
	l13.94,7.731c-0.094,0.536-0.145,1.087-0.145,1.649c0,5.279,4.28,9.56,9.56,9.56s9.56-4.28,9.56-9.56S58.22,49.091,52.94,49.091z"/>
</svg>
