<?xml version="1.0" encoding="utf-8"?>
<!-- Generator: Adobe Illustrator 16.0.0, SVG Export Plug-In . SVG Version: 6.00 Build 0)  -->
<!DOCTYPE svg PUBLIC "-//W3C//DTD SVG 1.1//EN" "http://www.w3.org/Graphics/SVG/1.1/DTD/svg11.dtd">
<svg version="1.1" id="uid" xmlns="http://www.w3.org/2000/svg" xmlns:xlink="http://www.w3.org/1999/xlink" x="0px" y="0px"
	 width="100%" height="100%" viewBox="0 0 82.281 82.283" enable-background="new 0 0 82.281 82.283" xml:space="preserve">
<g>
	<path fill="#FFFFFF" d="M48.37,38.102h-0.729v8h0.729c2.377,0,4.286-1.624,4.286-4.019C52.656,39.725,50.747,38.102,48.37,38.102z"
		/>
	<path fill="#FFFFFF" d="M66.141,25.102h-0.5v-7h-3v7h-12v-7h-3v7h-12v-7h-3v7h-12v-7h-3v7h-1.5h-3.5v2.5v28v3.5h3.5h1.5v7h3v-7h12
		v7h3v-7h12v7h3v-7h12v7h3v-7h0.5h2.5v-3.5v-28v-2.5H66.141z M36.641,43.233c0,2.862-2.619,5.203-5.5,5.203
		c-2.899,0-5.5-2.341-5.5-5.203v-6.41c0-0.558,0.433-0.991,0.991-0.991c0.54,0,1.009,0.433,1.009,0.991v6.41
		c0,1.764,1.735,3.205,3.5,3.205c1.782,0,3.5-1.441,3.5-3.205v-6.41c0-0.558,0.45-0.991,1.009-0.991s0.991,0.433,0.991,0.991V43.233
		z M41.641,47.446c0,0.559-0.469,0.99-1.009,0.99c-0.559,0-0.991-0.432-0.991-0.99V36.823c0-0.558,0.433-0.991,0.991-0.991
		c0.54,0,1.009,0.433,1.009,0.991V47.446z M48.37,48.102h-2.124c-0.559,0-0.605-0.116-0.605-0.656V36.823
		c0-0.558,0.047-0.721,0.605-0.721h2.124c3.476,0,6.284,2.525,6.284,5.982C54.654,45.578,51.846,48.102,48.37,48.102z"/>
</g>
</svg>
