<?xml version="1.0" encoding="utf-8"?>
<!-- Generator: Adobe Illustrator 16.0.0, SVG Export Plug-In . SVG Version: 6.00 Build 0)  -->
<!DOCTYPE svg PUBLIC "-//W3C//DTD SVG 1.1//EN" "http://www.w3.org/Graphics/SVG/1.1/DTD/svg11.dtd">
<svg version="1.1" id="view" xmlns="http://www.w3.org/2000/svg" xmlns:xlink="http://www.w3.org/1999/xlink" x="0px" y="0px"
	 width="100%" height="100%" viewBox="0 0 82 82" enable-background="new 0 0 82 82" xml:space="preserve">
<path fill="#FFFFFF" d="M73.31,40.584c-0.097-0.213-9.988-21.26-32.523-21.26c-22.573,0-31.137,21.097-31.221,21.31L9.421,41
	l0.144,0.366c0.084,0.213,8.648,21.31,31.221,21.31c22.535,0,32.427-21.047,32.523-21.26L73.5,41L73.31,40.584z M40.869,56.392
	c-8.487,0-15.392-6.904-15.392-15.392c0-8.487,6.905-15.392,15.392-15.392c3.079,0,6.053,0.907,8.598,2.623l-1.678,2.487
	c-2.048-1.38-4.44-2.11-6.92-2.11c-6.833,0-12.392,5.559-12.392,12.392c0,6.833,5.559,12.392,12.392,12.392
	c2.483,0,4.88-0.731,6.928-2.115l1.68,2.486C46.93,55.482,43.954,56.392,40.869,56.392z M40.888,50.921
	c-5.492,0-9.944-4.453-9.944-9.945c0-1.717,0.338-3.389,1.202-4.741l8.743,4.741l-2.983-9.489c0.942-0.295,1.944-0.456,2.983-0.456
	c5.492,0,9.944,4.453,9.944,9.945S46.38,50.921,40.888,50.921z"/>
</svg>
