<svg xmlns="http://www.w3.org/2000/svg" viewBox="232.142 0 815.719 719.999" enable-background="new 232.142 0 815.719 719.999"><g fill="#fff"><path d="m211.05 138.75c.277-8.431 5.655-16.01 12.694-20.341 12.585-7.858 29.821-7.323 41.98 1.134 6.873 4.741 11.96 12.633 11.848 21.16.069 8.268-4.859 15.938-11.595 20.458-12.11 8.247-29.04 8.262-41.45.639-7.926-4.826-13.975-13.489-13.479-23.05" transform="matrix(1.25 0 0-1.25 381.97 540.2)"/><path d="m201.19 129.98c.475-13.07 9.487-24.19 20.12-30.981 18.703-11.973 42.07-14.906 63.734-11.641 17.872 2.857 35.952 10.288 47.777 24.465 7.527 8.877 11 21.555 7.125 32.772-4.638 13.823-17.298 23.2-30.334 28.533-21.624 8.637-46.34 8.721-68.35 1.398-14.677-5.084-29.12-14.05-36.438-28.23-2.54-5.03-3.89-10.678-3.633-16.32" transform="matrix(1.25 0 0-1.25 469.15 462.72)"/><path d="m222.08 139.49c1.777-31.781-7.41-62.89-15.33-93.34-12.01-41.32-25.43-82.38-42.628-121.85-2.229-.405-3.104 9.187-4.938 12.237-19.895 59.838-40.673 120.13-48.03 183.06-.577 6.091-.954 12.205-.984 18.327-35.876-19.503-77.25-25.691-113.33-44.624-11.13-5.712-20.509-15.361-22.835-28.03-9.628-39.17-11.151-79.76-13.601-119.86-.735-23.817-2.56-48.28-2.241-71.71 71.59-8.296 143.72-11.822 215.78-12.295 66.24.48 133.27 2.488 197.84 18.587 8.299-.137 7.763 5.247 6.473 11.785-4.448 53.859-4.577 108.42-16.1 161.42-2.318 11.985-8.01 23.713-18.941 30.01-36.841 23.21-80.908 31.539-118.03 54.25l-3.103 2.031" transform="matrix(1.25 0 0-1.25 284.5 546.75)"/><path d="m203.38 106.35c.93-25.14 18.305-46.49 38.748-59.55 35.789-22.9 80.32-28.787 121.88-23.356 35.2 4.928 70.877 18.627 95.18 45.45 15.17 16.489 23.462 40.41 17.18 62.48-7.267 26.534-30.416 45.28-54.57 56.25-41.602 18.505-89.84 19.794-133.31 7.28-29.809-8.952-59.36-25.482-75.8-52.81-6.317-10.755-9.88-23.22-9.299-35.739" transform="matrix(1.25 0 0-1.25 449.76 253.9)"/><path d="m226.66 142.38c-13.72-8.816-22.24-23.767-25.598-39.463-.043-1.691-1.722-2.164-2.123-.341-3.446 8.55-7.195 17.325-14.563 23.287-11.776 11.436-28.327 19.767-34.05 36.12-1.043 5.966.902 12.185.282 18.28-.491 9.612-1.238 19.504-5.634 28.23-2.898 6.275-1.639 13.73-4.897 19.779-3.908 3.03-9.1 4.558-12.306 8.652-8.284 8.455-8.05 21.18-8.141 32.2.277 3.085 1.421 8.145 5.584 7.08 3.477-.911 5.708 2.614 5.01 5.772-1.152 15.839-5.809 31.904-1.771 47.731 4.184 13.96 10.587 27.721 20.584 38.5 14.12 14.674 35.488 21.305 55.51 18.17 16.539-1.42 32.507-8.91 43.37-21.601 11.637-12.143 19.713-28.22 20.492-45.18.078-12.97-3.484-25.874-2.223-38.814.645-3.293 4.115-2.625 6.379-1.775 3.449-.934 3.154-5.946 3.382-8.835-.344-15.211-7.29-30.628-20.434-38.909-6.113-4.356-12.605-10.482-11.872-18.694-1.341-14.404-2.182-29.512 2.755-43.32-1.919-11.398-9.632-21.435-19.736-26.878" transform="matrix(1.25 0 0-1.25 243.98 572.32)"/></g></svg>