<?xml version="1.0" encoding="utf-8"?>
<!-- Generator: Adobe Illustrator 16.0.0, SVG Export Plug-In . SVG Version: 6.00 Build 0)  -->
<!DOCTYPE svg PUBLIC "-//W3C//DTD SVG 1.1//EN" "http://www.w3.org/Graphics/SVG/1.1/DTD/svg11.dtd">
<svg version="1.1"
	 id="Layer_1" xmlns:dc="http://purl.org/dc/elements/1.1/" xmlns:cc="http://creativecommons.org/ns#" xmlns:rdf="http://www.w3.org/1999/02/22-rdf-syntax-ns#" xmlns:svg="http://www.w3.org/2000/svg" xmlns:sodipodi="http://sodipodi.sourceforge.net/DTD/sodipodi-0.dtd"
	 xmlns="http://www.w3.org/2000/svg" xmlns:xlink="http://www.w3.org/1999/xlink" x="0px" y="0px" width="1280px" height="720px"
	 viewBox="-232.141 0 1280 720" enable-background="new -232.141 0 1280 720" xml:space="preserve">
<sodipodi:namedview  pagecolor="#ffffff" bordercolor="#666666" borderopacity="1.0" showgrid="false"></sodipodi:namedview>
<g>
	<path fill="#FFFFFF" d="M760.584,631.59c16.344,10.204,38.729,9.51,54.521-1.473c8.926-6.158,15.532-16.407,15.388-27.486
		c0.091-10.737-6.311-20.698-15.057-26.568c-15.729-10.712-37.713-10.729-53.832-0.831c-10.293,6.27-18.15,17.519-17.506,29.94
		C744.459,616.122,751.441,625.967,760.584,631.59z"/>
	<path fill="#FFFFFF" d="M962.666,480.019c-28.084-11.217-60.181-11.326-88.765-1.816c-19.062,6.603-37.82,18.244-47.322,36.658
		c-3.298,6.526-5.051,13.867-4.719,21.194c0.618,16.973,12.321,31.41,26.128,40.236c24.289,15.55,54.633,19.359,82.77,15.119
		c23.213-3.711,46.691-13.361,62.051-31.772c9.775-11.53,14.289-27.994,9.252-42.563
		C996.037,499.124,979.596,486.949,962.666,480.019z"/>
	<path fill="#FFFFFF" d="M513.079,636.848c-0.75-7.911-1.238-15.852-1.277-23.802C465.209,638.375,411.483,646.411,364.618,671
		c-14.455,7.417-26.636,19.949-29.656,36.401c-1.029,4.186-1.962,8.389-2.856,12.599h196.248
		C521.707,692.61,516.364,664.931,513.079,636.848z"/>
	<path fill="#FFFFFF" d="M814.459,684.107c-47.847-30.141-105.076-40.961-153.282-70.458l-4.031-2.639
		c2.071,37.029-7.317,73.353-16.698,108.989h197.951C835.035,705.535,827.715,691.747,814.459,684.107z"/>
	<path fill="#FFFFFF" d="M1159.098,317.288c-9.439-34.461-39.504-58.809-70.879-73.054c-54.029-24.032-116.678-25.708-173.135-9.455
		c-38.713,11.626-77.09,33.095-98.439,68.586c-8.205,13.968-12.833,30.157-12.076,46.415c1.207,32.642,23.771,60.381,50.32,77.343
		c46.48,29.74,104.311,37.386,158.289,30.333c45.711-6.401,92.049-24.192,123.611-59.027
		C1156.49,377.014,1167.26,345.942,1159.098,317.288z"/>
	<path fill="#FFFFFF" d="M508.568,522.269c4.23,7.856,2.595,17.537,6.36,25.687c5.709,11.341,6.68,24.187,7.317,36.671
		c0.805,7.915-1.721,15.992-0.367,23.74c7.429,21.235,28.923,32.055,44.219,46.907c9.568,7.742,14.437,19.138,18.912,30.242
		c0.521,2.366,2.702,1.753,2.758-0.444c4.366-20.384,15.425-39.801,33.244-51.25c13.123-7.069,23.138-20.105,25.63-34.906
		c-6.412-17.928-5.318-37.55-3.576-56.258c-0.951-10.664,7.479-18.62,15.418-24.276c17.07-10.755,26.091-30.777,26.538-50.532
		c-0.298-3.751,0.087-10.26-4.394-11.472c-2.939,1.104-7.447,1.97-8.285-2.307c-1.638-16.805,2.988-33.563,2.887-50.409
		c-1.012-22.015-11.5-42.898-26.613-58.669c-14.102-16.482-34.839-26.21-56.319-28.053c-26.005-4.067-53.754,4.544-72.095,23.601
		c-12.982,14-21.298,31.871-26.73,50.001c-5.246,20.555,0.802,41.418,2.3,61.988c0.906,4.101-1.99,8.681-6.506,7.497
		c-5.407-1.387-6.893,5.184-7.251,9.19c0.111,14.309-0.187,30.833,10.572,41.813C496.751,516.349,503.493,518.337,508.568,522.269z"
		/>
</g>
</svg>
