<?xml version="1.0" encoding="utf-8"?>
<!-- Generator: Adobe Illustrator 16.0.0, SVG Export Plug-In . SVG Version: 6.00 Build 0)  -->
<!DOCTYPE svg PUBLIC "-//W3C//DTD SVG 1.1//EN" "http://www.w3.org/Graphics/SVG/1.1/DTD/svg11.dtd">
<svg version="1.1" id="Layer_1" xmlns="http://www.w3.org/2000/svg" xmlns:xlink="http://www.w3.org/1999/xlink" x="0px" y="0px"
	 width="100%" height="100%" viewBox="0 0 1280 820" enable-background="new 0 0 1280 820" xml:space="preserve">
<g>
	<path fill="#FFFFFF" d="M699.205,757.09c-14.641,0-26.551,11.91-26.551,26.551c0,14.642,11.91,26.553,26.551,26.553
		s26.552-11.911,26.552-26.553C725.757,769,713.846,757.09,699.205,757.09z M699.205,804.193c-11.332,0-20.551-9.22-20.551-20.553
		c0-11.332,9.219-20.551,20.551-20.551s20.552,9.219,20.552,20.551C719.757,794.974,710.537,804.193,699.205,804.193z"/>
	<rect x="754" y="779" fill="#FFFFFF" width="386" height="10"/>
	<path fill="#FFFFFF" d="M978.902,669.097c39.16-39.16,63.775-88.979,71.174-142.911c0.015,2.1,1.754,3.845,3.926,3.845
		c2.182,0,3.998-1.759,3.998-3.87V509h16.277c2.111,0,3.869-1.854,3.869-4.035c0-2.041-1.758-3.965-3.869-3.965H1058v-12h18.951
		c2.04,0,3.869-1.854,3.869-4.035c0-2.11-1.829-3.965-3.869-3.965h-22.797c-0.141,0-0.141,0-0.141,0h-0.07
		c-0.625,0-1.201,0.047-1.717,0.303c-2.544-63.192-28.342-122.292-73.324-167.273c-47.428-47.428-110.487-73.576-177.561-73.576
		c-67.074,0-130.133,26.106-177.562,73.535c-47.428,47.428-73.548,110.48-73.548,177.554c0,25.429,3.762,50.274,11.008,73.915
		l-62.217,22.58c-10.249-18.478-29.858-30.34-51.495-30.34c-6.565,0-13.063,1.099-19.312,3.268L120.097,667.81
		c-14.857,5.135-26.822,15.755-33.691,29.903c-6.879,14.17-7.822,30.172-2.658,45.051c8.21,23.709,30.579,39.639,55.661,39.639
		c6.558,0,13.05-1.098,19.298-3.263l308.123-106.872c14.878-5.153,26.851-15.788,33.714-29.943
		c5.405-11.147,7.116-23.431,5.084-35.408l62.25-22.594c12.463,31.379,31.311,60.182,55.903,84.774
		c47.428,47.428,110.487,73.548,177.562,73.548C868.415,742.645,931.475,716.524,978.902,669.097z M482.547,633.599
		c-4.531,9.346-12.438,16.367-22.268,19.771L152.154,760.243c-4.134,1.433-8.423,2.159-12.746,2.159
		c-16.565,0-31.339-10.522-36.765-26.19c-3.413-9.834-2.791-20.404,1.754-29.764c4.533-9.339,12.429-16.348,22.242-19.739
		L434.772,579.86c4.137-1.437,8.428-2.164,12.756-2.164c16.56,0,31.33,10.518,36.756,26.178
		C487.694,613.698,487.077,624.254,482.547,633.599z M572.693,582.574l7.293-2.647c16.728,42.132,45.193,78.642,82.976,105.593
		c40.646,28.994,88.43,44.319,138.186,44.319c37.195,0,74.381-8.825,107.538-25.521c34.26-17.251,64.219-42.982,86.638-74.411
		c36.965-51.82,51.539-114.927,41.036-177.696c-10.502-62.771-44.826-117.698-96.648-154.663
		c-40.643-28.992-88.425-44.316-138.183-44.316c-37.195,0-74.381,8.824-107.536,25.517c-34.261,17.25-64.221,42.98-86.642,74.411
		c-36.961,51.816-51.532,114.924-41.029,177.698c1.722,10.289,4.095,20.362,7.069,30.185l-7.353,2.669
		c-7.019-22.835-10.807-47.071-10.807-72.177c0-135.705,110.405-246.109,246.11-246.109s246.109,110.404,246.109,246.109
		S937.047,737.645,801.342,737.645C697.781,737.645,608.963,673.344,572.693,582.574z M1003.676,442.488
		c-5.749-2.093-11.244,1.46-15.064,13.424c-4.671,14.624-7.089,31.078-6.972,46.062c0.115,14.711,2.024,30.848,6.611,45.217
		c3.624,11.352,8.554,14.819,14.433,13.409c2.365-0.567,4.886-2.34,7.436-4.996c-6.819,22.14-17.23,43.278-31.076,62.688
		c-40.89,57.323-107.393,91.547-177.895,91.547c-31.059,0-61.279-6.528-89.168-19.093c98.703-11.784,175.477-95.827,175.477-197.66
		c0-103.614-79.482-188.81-180.675-198.21c29.187-14.037,61.521-21.644,94.747-21.644c45.569,0,89.335,14.039,126.568,40.598
		c47.124,33.614,78.441,83.444,88.31,140.418C1013.214,449.067,1009.273,444.526,1003.676,442.488z M1016.934,476.605
		c1.019,2.511,1.881,5.239,2.606,8.032c0.496,14.731-0.499,29.363-2.943,43.718c-0.046,0.104-0.09,0.211-0.137,0.313
		c-3.45,7.589-7.584,13.097-11.553,13.926c-4.232,0.884-7.729-3.196-10.36-11.568c-2.935-9.337-4.764-19.646-4.861-29.053
		c-0.098-9.432,1.876-19.788,4.88-29.101c2.756-8.542,6.439-12.495,10.821-11.308
		C1009.495,462.679,1013.692,468.618,1016.934,476.605z M883.457,493.086c0,102.019-78.632,185.813-178.471,194.354
		c-7.706-3.808-15.22-8.085-22.506-12.825c1.892,0.059,3.784,0.099,5.678,0.099C788.426,674.714,870,593.14,870,492.872
		c0-100.268-81.574-181.842-181.842-181.842c-3.281,0-6.56,0.091-9.831,0.266c6.934-4.725,14.131-9.04,21.55-12.936
		C802.129,304.429,883.457,389.333,883.457,493.086z M688.158,315.03C786.221,315.03,866,394.81,866,492.872
		s-79.779,177.842-177.842,177.842c-4.025,0-8.051-0.146-12.063-0.414c-0.506-0.354-1.016-0.702-1.519-1.062
		c-2.658-1.896-5.25-3.851-7.797-5.843c7.06,0.876,14.195,1.318,21.378,1.318c94.754,0,171.842-77.088,171.842-171.842
		S782.912,321.03,688.158,321.03c-8.533,0-16.987,0.629-25.325,1.86c3.001-2.459,6.067-4.83,9.188-7.122
		C677.378,315.286,682.764,315.03,688.158,315.03z M688.158,329.03C778.501,329.03,852,402.529,852,492.872
		s-73.499,163.842-163.842,163.842c-11.281,0-22.438-1.14-33.353-3.396c-22.839-20.656-40.437-45.373-52.479-72.258
		c19.291,1.856,39.036-2.635,62.984,12.158c4.609-15.259,13.096-44.979,11.773-58.46c-3.98,2.354-7.396,4.377-11.414,6.754
		c-0.117-13.428-10.17-20.549-13.709-33.09c-23.95,18.474-42.998,24.069-62.593,34.729c-14.454-59.508-4.005-124.726,34.266-178.377
		c8.184-11.472,17.408-22,27.47-31.533C663.184,330.447,675.581,329.03,688.158,329.03z"/>
	<path fill="#FFFFFF" d="M1096.965,530.03c2.111,0,4.035-1.688,4.035-3.87v-41.511c0-2.181-1.924-3.87-4.035-3.87
		c-2.182,0-3.965,1.689-3.965,3.87v41.511C1093,528.342,1094.783,530.03,1096.965,530.03z"/>
	<path fill="#FFFFFF" d="M1140.979,522H1122v-37.351c0-2.11-1.854-3.87-4.035-3.87s-3.965,1.76-3.965,3.87v41.511
		c0,2.111,1.789,3.84,3.971,3.84c0,0,0,0,0.07,0c0,0,0,0,0.141,0h22.797c2.039,0,3.869-1.854,3.869-3.965
		C1144.848,523.854,1143.018,522,1140.979,522z"/>
	<path fill="#FFFFFF" d="M1180.59,522H1162v-13h15.916c2.111,0,3.869-1.854,3.869-4.035c0-2.041-1.758-3.965-3.869-3.965H1162v-12
		h18.59c2.04,0,3.869-1.854,3.869-4.035S1182.63,481,1180.59,481h-22.797c-0.141,0-0.141,0-0.141,0h-0.07
		c-2.181,0-3.582,1.469-3.582,3.649v41.511c0,2.111,2,3.87,4,3.87V530h22.59c2.04,0,3.869-1.854,3.869-3.965
		C1184.459,523.854,1182.63,522,1180.59,522z"/>
	<path fill="#FFFFFF" d="M641.737,424.813c-5.149,0.5-5.23,4.175-4.422,7.796c1.324,5.937,3.067,11.785,4.718,17.647
		c0.232,0.822,0.789,2.004,1.433,2.19c4.44,1.29,3.8,5.104,4.169,8.27c1.087,9.35,4.334,17.589,11.268,24.247
		c1.096,1.059,1.955,3.229,1.713,4.678c-2.127,12.586,2.281,22.174,12.436,29.66c3.076,2.264,5.387,5.57,8.753,9.146
		c3.368-3.576,5.677-6.883,8.753-9.146c10.155-7.486,14.563-17.074,12.434-29.66c-0.24-1.449,0.619-3.619,1.716-4.678
		c6.932-6.658,10.179-14.897,11.267-24.247c0.368-3.165-0.273-6.979,4.168-8.27c0.646-0.187,1.202-1.368,1.433-2.19
		c1.65-5.862,3.394-11.711,4.718-17.647c0.807-3.621,0.729-7.296-4.421-7.796c0-6.5,0.353-12.65-0.071-18.748
		c-0.965-13.841-6.046-25.415-19.91-30.815c-6.543-2.547-13.281-3.501-20.085-3.388c-6.804-0.113-13.542,0.841-20.085,3.388
		c-13.863,5.401-18.945,16.975-19.908,30.815C641.387,412.162,641.737,418.313,641.737,424.813z"/>
	<path fill="#FFFFFF" d="M699.871,541.512c-4.02-2.377-7.436-4.399-11.416-6.754c-1.322,13.481,7.164,43.201,11.774,58.46
		c32.038-19.79,56.552-5.063,82.522-17.199c10.051-5.776,3.454-18.598,2.023-21.783c-1.955-4.349-5.34-9.282-7.527-10.497
		c-19.977-11.051-39.281-16.505-63.67-35.316C710.041,520.963,699.986,528.084,699.871,541.512z"/>
	<path fill="#FFFFFF" d="M917.212,428.292c-5.083-0.32-7.699-0.292-13.23-0.292c-0.031,0-0.047,0-0.078,0
		c-2.332,0-3.701,3.377-3.333,9.453c1.154,41.473,2.631,85.584-0.387,126.978c-0.436,4.875,0.755,8.325,3.017,8.397
		c2.337,0.074,4.879-3.148,5.325-8.075c1.097-14.271,0.565-28.602,0.305-42.894c3.668-0.296,5.364-0.466,8.626-0.836
		c13.51-7.093,13.589-31.471,14.031-43.797C931.943,464.516,934.883,432.981,917.212,428.292z M924.669,476.61
		c-0.502,13.91-3.386,22.955-7.207,22.985c-3.242,0.025-4.938,0.032-8.644,0.013c0.252-16.658,0.855-33.312,0.724-49.974
		c3.646,0.128,5.372,0.221,8.724,0.444C925.227,456.314,924.986,467.799,924.669,476.61z"/>
	<path fill="#FFFFFF" d="M943.688,431.558c-0.065-0.012-0.066-0.012-0.066-0.012c-2.045-0.355-3.526,2.479-3.604,8.57
		c-0.973,41.418-1.186,82.328-0.95,123.745c-0.04,5.025,1.37,7.589,3.425,7.356s3.78-3.001,3.738-8.008
		c-0.172-15.392-0.663-30.775-1.155-46.159c3.069-0.44,4.661-0.662,8.069-1.08c0.66,0.32,2.606,1.659,4.24,4.456
		c0.934,1.599,1.849,3.725,2.358,6.11c0.511,2.393,0.918,5.438,0.975,9.807c0.165,12.67,0.526,20.37,1.596,24.9
		c0.519,2.196,1.497,3.79,2.475,4.579c1.075,0.867,2.213,0.855,2.973,0.721c0.076-0.014,0.077-0.014,0.077-0.014
		c0.76-0.135,1.394-0.456,1.676-0.63c2.189-1.349,3.635-6.013,2.998-11.252c-0.373-3.069-2.174-5.528-2.592-6.263
		c-0.561-0.984-0.267-6.182-0.16-12.894c0.149-9.387-0.948-17.508-2.571-22.798c-0.837-2.728-2.952-5.393-2.961-6.13
		c-0.031-2.593,6.828-11.304,6.624-25.479c-0.192-13.389,0.96-41.24-15.332-47.373C950.724,432.82,948.386,432.374,943.688,431.558z
		 M961.734,480.498c-0.247,12.822-4.272,18.863-8.495,18.802c-3.644-0.054-5.314-0.062-8.516-0.058
		c0.814-15.294,1.458-30.595,2.058-45.898c3.17,0.47,4.783,0.716,8.146,1.225C958.825,455.158,961.99,467.217,961.734,480.498z"/>
</g>
</svg>
