<?xml version="1.0" encoding="utf-8"?>
<!-- Generator: Adobe Illustrator 16.0.0, SVG Export Plug-In . SVG Version: 6.00 Build 0)  -->
<!DOCTYPE svg PUBLIC "-//W3C//DTD SVG 1.1//EN" "http://www.w3.org/Graphics/SVG/1.1/DTD/svg11.dtd">
<svg version="1.1" xmlns="http://www.w3.org/2000/svg" xmlns:xlink="http://www.w3.org/1999/xlink" x="0px" y="0px" width="100%"
	 height="100%" viewBox="0 0 1280 820" enable-background="new 0 0 1280 820" xml:space="preserve">
<g id="Layer_2" display="none">
	<rect x="-0.5" y="0.5" display="inline" fill="#39A6FF" stroke="#000000" stroke-miterlimit="10" width="1280" height="820"/>
</g>
<g id="Layer_1">
	<g>
		<path fill="#FFFFFF" d="M369.067,343.025c0.717,0.473,1.413,0.751,2.138,0.872c2.279,0.377,3.774-1.561,4.335-5.792
			c1.322-9.742,4.567-19.154,8.611-28.078c12.352,0.671,24.719,1.052,37.086,1.278c0.674,10.037,2.125,20.045,4.711,29.774
			c1.172,4.468,5.1,6.777,9.554,6.837c1.417,0.019,2.877-0.15,3.932-0.487c6.082-1.939,9.673-8.034,8.05-14.499
			c-5.321-22.418-5.786-44.006-8.256-66.668c-2.563-23.519-6.364-45.83-6.294-69.722c0.055-4.669-1.556-6.832-3.838-6.578
			c-2.04,0.228-5.37,2.96-7.743,7.745c-10.737,23.608-18.112,49.566-30.608,72.271c-10.948,19.89-22.644,35.606-27.961,58.339
			C362.04,334.224,365.44,340.632,369.067,343.025z M418.894,239.179c1.253,15.737,3.143,30.26,2.073,46.056
			c-10.046-0.058-14.751-0.102-23.906-0.24C406.858,269.722,412.902,256.358,418.894,239.179z"/>
		<path fill="#FFFFFF" d="M535.152,298.355c1.648,2.589,3.175,5.769,4.201,10.299c2.073,9.149,3.513,19.063,7.636,27.224
			c1.39,2.752,3.509,5.177,5.559,6.51c2.241,1.457,4.532,1.633,6.053,1.503c0.153-0.013,0.153-0.013,0.153-0.013
			c1.52-0.13,2.767-0.574,3.333-0.821c4.286-1.868,6.857-8.149,4.697-14.182c-1.268-3.542-5.267-5.967-6.343-7.112
			c-0.872-0.928-1.802-6.678-3.351-13.682c-2.177-9.841-7.014-18.583-12.004-24.904c-2.562-3.246-7.438-6.495-7.811-7.792
			c-1.259-4.379,7.401-22.02,6.527-34.274c-1.375-19.277-11.756-49.913-34.871-52.314c-9.519-0.726-14.396-0.958-24.383-1.185
			c-0.14-0.003-0.139-0.003-0.139-0.003c-4.35-0.098-7.774,4.441-7.767,11.671c0.071,46.068,0.005,92.132-0.129,138.2
			c-0.015,6.347,6.056,10.658,13.299,10.617s12.543-4.415,12.214-10.731c-0.92-17.154-2.495-34.243-4.32-51.321
			c8.55,0.027,12.619,0.031,20.472,0.011c1.593,0.45,6.28,2.246,10.478,5.491C531.055,293.403,533.55,295.837,535.152,298.355z
			 M514.302,263.558c-7.412,0.039-11.212,0.062-19.117,0.109c-0.496-16.743-0.88-33.487-1.479-50.228
			c7.396,0.221,11.004,0.37,18.082,0.749c11.496,2.131,15.787,16.59,16.441,26.456C528.829,249.694,525.511,262.975,514.302,263.558
			z"/>
		<path fill="#FFFFFF" d="M677.979,363.148c-6.723,5.867-16.904,9.852-32.166,9.852C584.329,373,520,373,520,373v39
			c0,0,101.056,0,127.664,0c11.805,0,20.07,2.381,25.877,5.716c3.117-13.908,4.773-28.361,4.773-43.196
			C678.314,370.702,678.193,366.913,677.979,363.148z"/>
		<path fill="#FFFFFF" d="M297.984,448.609c7.829,19.26,18.611,37.013,31.788,52.696c3.502-2.56,8.78-4.306,16.673-4.306
			C355.23,497,454,497,454,497v-37c0,0-99.028,0-124.085,0C316.862,460,306.375,455.436,297.984,448.609z"/>
		<path fill="#FFFFFF" d="M283.823,363.981c-0.185,3.49-0.283,7.003-0.283,10.539c0,14.646,1.617,28.92,4.658,42.665
			c5.748-3.053,13.749-5.185,24.917-5.185C339.723,412,454,412,454,412v-39c0,0-77.55,0-139.034,0
			C300.447,373,290.542,369.384,283.823,363.981z"/>
		<path fill="#FFFFFF" d="M626.334,330.756c12.72-5.529,25.391-12.736,36.635-20.687c1.33-0.94,2.477-2.042,3.398-3.207
			c-1.368-3.739-2.857-7.42-4.442-11.05c-2.375,0.049-4.821,0.952-6.397,2.742c-6.228,7.068-14.199,12.503-22.326,14.189
			c-9.902,2.055-19.45-3.451-25.989-10.542c-9.378-10.17-20.386-23.59-23.782-34.487c-2.798-8.978,0.471-23.852,5.665-33.674
			c4.186-7.915,10.738-11.559,19.006-9.199c0.726,0.207,1.445,0.441,2.163,0.687c-8.652-7.521-17.966-14.297-27.836-20.239
			c-14.217,10.694-16.425,55.763-14.707,62.492C571.277,281.718,599.364,342.479,626.334,330.756z"/>
		<path fill="#FFFFFF" d="M520,460v37c0,0,70.831,0,97.438,0c6.833,0,11.264,1.996,14.099,4.951
			c13.712-16.181,24.873-34.585,32.847-54.596C653.498,454.605,638.631,460,618.473,460C556.988,460,520,460,520,460z"/>
		<path fill="#FFFFFF" d="M383.817,207.909c1.663-2.955,2.598-5.251,2.801-6.75c-11.951,6.527-23.151,14.262-33.449,23.026
			c6.038-1.24,12.09-2.416,18.16-3.488C374.804,220.086,380.343,214.085,383.817,207.909z"/>
		<path fill="#FFFFFF" d="M317.15,326.19c-0.041-0.038-0.062-0.057-0.102-0.095c0,0,0.22,0.146,0.455,0.245
			c10.697,4.46,21.32,8.957,32.366,12.5c2.642,0.825,2.296-2.845,0.705-8.733c-1.645-6.085-4.712-11.912-8.102-12.512
			c-11.256-2.153-22.385-4.568-33.546-7.171c-2.469-11.731-3.318-20.738,0.489-32.407c11.407,0.534,22.812,1.023,34.223,1.457
			c4.174,0.148,9.408-4.667,11.827-9.924c2.263-4.918-0.562-10.049-4.785-9.953c-10.249,0.249-20.496,0.532-30.744,0.835
			c-10.276,14.458-18.646,30.356-24.764,47.323c1.245,2.511,2.735,5.025,4.529,7.54C304.354,319.873,313.495,324.644,317.15,326.19z
			"/>
		<rect x="212" y="689" fill="#FFFFFF" width="242" height="10"/>
		<rect x="520" y="689" fill="#FFFFFF" width="229" height="10"/>
		<rect x="212" y="641" fill="#FFFFFF" width="242" height="10"/>
		<rect x="520" y="641" fill="#FFFFFF" width="229" height="10"/>
		<rect x="647" y="571" fill="#FFFFFF" width="102" height="10"/>
		<rect x="212" y="571" fill="#FFFFFF" width="104" height="10"/>
		<path fill="#FFFFFF" d="M724,258v33.108c0,4.301,3.129,7.632,7.431,7.632s7.569-3.331,7.569-7.632v-81.871
			c0-4.302-3.268-7.632-7.569-7.632s-7.431,3.33-7.431,7.632V243h-36v-33.763c0-4.302-3.768-7.632-8.07-7.632
			c-4.301,0-7.93,3.33-7.93,7.632v23.824c6,7.942,11.415,15.938,16.23,24.938H724z"/>
		<path fill="#FFFFFF" d="M1137.82,621.22c-5.57-13.864-16.207-24.728-29.953-30.591L826.227,470.584
			c-6.998-2.986-14.375-4.5-21.926-4.5c-19.094,0-36.55,9.667-46.754,25.271l-57.977-23.737c1.071-2.523,2.116-5.059,3.099-7.618
			H749v-10h-42.751c7.641-22.946,11.765-47.167,12.118-72H755v-10h-36.685c-1.633-61.157-26.214-118.413-69.646-161.844
			c-44.972-44.972-104.765-69.739-168.364-69.739c-63.599,0-123.392,24.767-168.364,69.739
			c-12.806,12.806-23.958,26.821-33.382,41.776c-1.227-0.742-2.494-1.448-3.809-2.089c-5.55-2.637-12.072-4.842-19.149-5.842h-0.278
			c-7.493-1-13.737-3.586-17.345-6.084c-1.804-1.249-3.053-2.487-3.747-3.597c-0.694-1.11-0.972-2.215-0.972-3.88
			c0-2.914,1.526-5.964,5.273-8.739c3.747-2.775,9.297-4.717,15.541-4.717c8.465,0,15.264,4.164,22.341,8.882
			c3.33,2.22,7.771,1.249,9.852-2.082c2.22-3.191,1.249-7.631-1.943-9.852c-7.077-4.579-16.929-11.101-30.25-11.101
			c-9.02,0-17.484,2.637-24.006,7.354c-6.383,4.718-11.101,11.934-11.101,20.259c0,4.163,1.11,8.034,3.191,11.364
			c3.053,4.856,7.632,8.311,12.905,10.809s11.378,4.383,17.9,5.383h0.277c7.651,1.928,14.077,3.646,18.171,6.042
			c-4.24,7.711-8.028,15.644-11.371,23.762c-1.823,0.313-3.721,0.504-5.689,0.504c-9.852,0.139-20.398-5.689-26.504-10.685
			c-3.053-2.498-7.632-2.082-10.13,0.971c-2.359,3.053-1.942,7.632,1.11,10.13c7.91,6.244,20.537,13.738,35.523,13.876
			c0.057,0,0.114-0.002,0.17-0.003c-7.524,22.45-11.704,46.121-12.253,70.402H212v10h30.258c0.449,24.484,4.567,48.362,12.105,71
			H212v10h45.943c11.799,30.727,30.027,58.911,53.999,82.884c44.972,44.972,104.765,69.739,168.364,69.739
			s123.392-24.768,168.364-69.739c17.112-17.112,31.28-36.38,42.289-57.178l58.789,24.068c-2.489,10.978-1.61,22.438,2.68,33.105
			c5.574,13.86,16.214,24.719,29.955,30.573l281.625,120.062c6.989,2.989,14.362,4.505,21.913,4.505
			c22.449,0,42.643-13.354,51.443-34.014C1143.226,650.274,1143.388,635.079,1137.82,621.22z M480.306,607.623
			c-128.533,0-233.103-104.569-233.103-233.103c0-128.534,104.569-233.104,233.103-233.104
			c128.534,0,233.104,104.57,233.104,233.104C713.409,503.054,608.84,607.623,480.306,607.623z M1118.967,656.16
			c-5.656,13.279-18.628,21.859-33.046,21.859c-4.833,0-9.56-0.974-14.06-2.898L790.224,555.054
			c-8.827-3.761-15.66-10.733-19.239-19.636c-3.58-8.9-3.479-18.659,0.287-27.485c5.653-13.272,18.618-21.849,33.029-21.849
			c4.838,0,9.574,0.974,14.08,2.896l281.642,120.046c8.829,3.766,15.661,10.744,19.239,19.649
			C1122.838,637.577,1122.734,647.336,1118.967,656.16z"/>
		<path fill="#FFFFFF" d="M642.574,213.426C599.416,170.268,542.035,146.5,481,146.5s-118.416,23.768-161.574,66.926
			C276.268,256.584,252.5,313.965,252.5,375c0,61.034,23.768,118.416,66.926,161.573C362.584,579.731,419.965,603.5,481,603.5
			s118.416-23.769,161.574-66.927C685.731,493.416,709.5,436.034,709.5,375C709.5,313.965,685.731,256.584,642.574,213.426z
			 M481,578.5c-112.21,0-203.5-91.29-203.5-203.5c0-112.21,91.29-203.5,203.5-203.5S684.5,262.79,684.5,375
			C684.5,487.21,593.21,578.5,481,578.5z"/>
	</g>
</g>
</svg>
