<?xml version="1.0" encoding="utf-8"?>
<!-- Generator: Adobe Illustrator 16.0.0, SVG Export Plug-In . SVG Version: 6.00 Build 0)  -->
<!DOCTYPE svg PUBLIC "-//W3C//DTD SVG 1.1//EN" "http://www.w3.org/Graphics/SVG/1.1/DTD/svg11.dtd">
<svg version="1.1" xmlns="http://www.w3.org/2000/svg" xmlns:xlink="http://www.w3.org/1999/xlink" x="0px" y="0px" width="100%"
	 height="100%" viewBox="0 0 1280 820" enable-background="new 0 0 1280 820" xml:space="preserve">
<g id="Layer_2" display="none">
	<rect x="-0.5" y="0.5" display="inline" fill="#39A6FF" stroke="#000000" stroke-miterlimit="10" width="1280" height="820"/>
</g>
<g id="Layer_1">
	<g>
		<path fill="#FFFFFF" d="M694.655,533c6.81,0,12.374-5.502,12.404-12.305c0.02-3.314-1.254-6.418-3.586-8.775
			c-2.33-2.355-5.438-3.652-8.813-3.669c-6.808,0-12.374,5.505-12.408,12.311c-0.035,6.839,5.5,12.438,12.34,12.438H694.655z
			 M687.338,520.592c0.021-4.063,3.258-7.35,7.36-7.35c1.977,0.01,3.831,0.798,5.222,2.204c1.392,1.406,2.324,3.237,2.313,5.219
			C702.213,524.727,699,528,695,528h-0.209C690.707,528,687.316,524.675,687.338,520.592z"/>
		<path fill="#FFFFFF" d="M1010.193,280.624c-0.155-0.278-0.31-0.557-0.467-0.835c0.09,0.189,0.188,0.377,0.273,0.567
			C1010.068,280.446,1010.127,280.534,1010.193,280.624z"/>
		<rect x="734" y="688" fill="#FFFFFF" width="379" height="10"/>
		<rect x="734" y="757" fill="#FFFFFF" width="379" height="10"/>
		<rect x="734" y="97" fill="#FFFFFF" width="379" height="10"/>
		<path fill="#FFFFFF" d="M649.537,712.367c2.403,0,4.754-0.632,6.751-1.885c3.801-2.384,5.896-6.593,5.898-11.852
			c0.002-3.879,0.007-7.437,0.012-10.93c0.013-0.297,0.013-0.577,0.001-0.837c0.001-0.402,0.002-0.804,0.002-1.205
			c0.008-4.816,0.016-9.602,0.016-15.034c0-2.915,0.498-3.638,2.806-4.072c3.021-0.57,7.465-1.607,11.036-2.441
			c1.149-0.269,2.032-0.52,2.972-0.735l0.97-0.267v-12.391l-1.616,0.385c-2.211,0.469-4.007,0.903-5.847,1.326
			c-2.601,0.597-5.115,1.161-8.216,1.766c-3.491,0.681-5.321,2.978-5.321,6.826v9.604c0,5.431,0.101,10.215,0.093,15.029
			c-0.001,0.593,0.052,1.187,0.052,1.782c-0.049,1.376-0.479,5.215-4.032,5.616c-0.71,0.079-1.961,0.172-3.381,0.276
			c-2.701,0.199-5.756,0.425-7.116,0.694c-3.928,0.78-6.182,3.16-6.526,6.884c-0.388,4.237,1.681,8.173,5.304,10.045
			C645.353,711.898,647.466,712.367,649.537,712.367z M662,661.021c0-3.071,1.572-3.614,2.944-3.881
			c3.149-0.615,5.487-1.185,8.112-1.787c1.303-0.299,2.943-0.604,3.943-0.924v6.291c0,0.147-1.115,0.305-1.819,0.47
			c-3.543,0.827-7.963,1.856-10.92,2.414c-0.892,0.168-1.261,0.413-2.261,0.72V661.021z M641.079,701.182
			c0.222-2.393,1.494-3.692,4.127-4.215c1.18-0.235,4.273-0.463,6.759-0.646c1.48-0.109,2.76-0.203,3.51-0.288
			c1.552-0.175,2.769-0.73,3.715-1.506c-0.001,1.334-0.002,2.696-0.003,4.102c-0.003,4.189-1.599,7.496-4.492,9.313
			c-2.854,1.79-6.683,1.909-9.959,0.327C642.238,706.979,640.803,704.196,641.079,701.182z"/>
		<path fill="#FFFFFF" d="M641,796.86l53.658-32.896L641,730.288V796.86z M644,735.712l44.967,28.223L644,791.503V735.712z"/>
		<path fill="#FFFFFF" d="M680.186,94h0.033c3.571,0,6.49-2.683,6.507-6.251c0.011-1.737-0.657-3.265-1.88-4.5
			c-1.223-1.236-2.854-1.867-4.625-1.875c-3.569,0-6.489,2.71-6.508,6.28C673.695,91.24,676.599,94,680.186,94z M680.239,84.429
			c0.937,0.004,1.815,0.374,2.474,1.04c0.659,0.666,0.909,1.548,0.903,2.486c-0.009,1.908-1.591,3.458-3.568,3.483
			c-1.911-0.034-3.399-1.602-3.39-3.52C676.668,85.994,678.297,84.429,680.239,84.429z"/>
		<path fill="#FFFFFF" d="M697,74h-69v55h69V74z M694,126h-63v-23.763l0.342,0.504l19.786-13.421l16.262,17.205l8.426-6.113
			L694,120.199V126z M694,115.766l-17.784-19.351l-8.455,6.135l-16.205-17.145L631,99.349V77h63V115.766z"/>
		<path fill="#FFFFFF" d="M545.75,477.898l-52.727,19.137c-10.249-18.478-29.858-30.339-51.495-30.339
			c-6.565,0-13.063,1.1-19.312,3.269L114.097,576.81c-14.857,5.135-26.822,15.755-33.691,29.903
			c-6.879,14.17-7.822,30.172-2.658,45.051c8.21,23.709,30.579,39.639,55.661,39.639c6.558,0,13.05-1.098,19.298-3.263
			l308.123-106.872c14.878-5.153,26.851-15.788,33.714-29.943c5.405-11.147,7.116-23.431,5.084-35.408l52.739-19.142
			C549.932,490.591,547.72,484.297,545.75,477.898z M476.547,542.599c-4.531,9.346-12.438,16.367-22.268,19.771L146.154,669.243
			c-4.134,1.433-8.423,2.159-12.746,2.159c-16.565,0-31.339-10.522-36.765-26.19c-3.413-9.834-2.791-20.404,1.754-29.764
			c4.533-9.339,12.429-16.348,22.242-19.739L428.772,488.86c4.137-1.437,8.428-2.164,12.756-2.164
			c16.56,0,31.33,10.518,36.756,26.178C481.694,522.698,481.077,533.254,476.547,542.599z"/>
		<path fill="#FFFFFF" d="M768.666,499.145c-4.046-0.143-6.914,2.99-6.979,7.984c-0.789,33.028-1.701,65.18-6.844,97.747
			c5.224,1.034,10.493,1.866,15.797,2.495c6.636-33.667,7.362-65.071,6.082-99.578C776.469,502.799,772.581,499.282,768.666,499.145
			z"/>
		<path fill="#FFFFFF" d="M884.969,502.633c-0.137-0.002-0.14,0.001-0.14,0.001c-2.514,0.023-4.685,1.407-6.225,3.848
			c-10.161,14.422-21.982,27.42-33.025,41.164c-8.18-14.708-17.072-28.935-26.474-42.887c-1.583-2.413-4.429-3.753-6.893-3.854
			c-0.309-0.013-0.31-0.013-0.463-0.019c-4.618-0.188-8.133,3.413-7.926,8.199c1.375,34.291-0.235,66.384-7.742,99.725
			c4.975-0.022,9.919-0.231,14.832-0.6c5.501-23.655,7.979-46.991,9.02-71.355c6.346,10.632,12.132,21.432,16.931,32.86
			c1.224,2.7,3.378,4.053,5.888,3.921c0.056-0.003,0.085-0.006,0.141-0.009s0.084-0.004,0.14-0.007
			c2.513-0.133,4.962-1.708,6.833-4.513c7.9-12.114,16.289-23.134,25.964-33.886c-2.141,21.188-4.837,41.592-11.093,61.724
			c5.569-1.964,11.037-4.176,16.404-6.6c8.956-25.495,12.182-51.774,11.932-79.161C893.033,506.669,889.082,502.677,884.969,502.633
			z"/>
		<path fill="#FFFFFF" d="M954.069,498.893c-3.09,0.328-6.857,2.696-8.743,6.166c-12.933,24.271-25.324,48.936-39.838,72.288
			c8.271-5.155,16.181-10.907,23.681-17.205c-0.737,0.146-1.517,0.298-2.354,0.461c6.182-10.319,12.115-20.746,18.703-30.819
			c-0.203,6.677-0.616,11.598-1.208,16.323c5.506-5.644,10.704-11.639,15.588-17.944c0.739-8.877,0.801-17.52,0.714-24.813
			C960.214,500.153,957.385,498.541,954.069,498.893z"/>
		<path fill="#FFFFFF" d="M727,511c0-10.262-8.319-18-19.353-18h-98.865c0.827,1.676,1.673,3.343,2.546,4.998L707.647,498
			c8.183,0,14.353,5.589,14.353,13v65.503l-35.326-38.438l-16.725,12.135l-32.072-33.933l-10.625,7.243
			c0.982,1.347,1.983,2.682,3,4.007l6.919-4.717l32.161,34.024l16.674-12.098l35.987,39.158c-0.04,3.978-1.799,7.421-4.653,9.784
			c1.685,0.683,3.378,1.34,5.079,1.977c2.862-3.175,4.581-7.309,4.581-11.897v-0.854l0.474-0.436L727,581.943V511z"/>
		<path fill="#FFFFFF" d="M758.799,471.681c0.807,0.474,1.657,0.764,2.614,0.91c3.008,0.461,5.84-1.291,7.131-5.183
			c2.82-9.226,4.472-14.703,7.78-25.211c10.942,0.657,21.874,1.256,32.832,1.591c2.269,11.096,3.472,16.897,6.2,26.882
			c1.114,4.224,4.07,6.541,7.104,6.594c0.965,0.017,1.927-0.153,2.601-0.488c3.867-1.923,5.63-7.833,4.173-13.713
			c-9.352-37.431-18.194-74.744-29.081-111.788c-1.268-3.79-4.315-5.76-7.29-5.633c-2.838,0.121-5.956,2.345-7.107,6.187
			c-9.375,36.033-21.337,70.553-31.854,106.205C752.528,463.339,754.801,469.331,758.799,471.681z M793.775,383.769
			c3.724,12.393,8.669,24.564,10.873,37.364c-8.271-0.159-12.475-0.255-21.463-0.508
			C787.898,408.62,790.909,396.314,793.775,383.769z"/>
		<path fill="#FFFFFF" d="M884.855,476.761c26.648-0.246,39.17-36.764,41.066-58.144c1.554-21.382-0.474-42.993-2.016-64.355
			c-0.45-5.564-3.821-9.661-7.709-9.648s-6.784,4.12-6.457,9.675c1.131,21.461,2.812,43.114,1.533,64.577
			c-1.066,14.358-9.66,36.739-26.709,36.752c-17.517,0.014-25.984-21.743-26.678-36.671c-0.894-21.563,1.285-43.219,2.619-64.749
			c0.348-5.555-2.96-9.608-7.079-9.621c-4.257-0.013-7.787,3.999-8.094,9.565c-1.151,21.544-2.893,43.166-2.194,64.738
			C843.95,442.872,855.7,477.03,884.855,476.761z"/>
		<path fill="#FFFFFF" d="M954.432,345.08c-3.709-0.14-6.1,3.867-5.617,9.41c2.715,36.953,1.969,72.358-3.425,109.061
			c-0.948,5.669,0.964,9.741,4.673,9.334c5.646-0.621,8.491-0.964,14.27-1.714c11.486-1.726,23.037-8.74,32.584-18.238
			c7.675-29.629,8.592-60.295,3.2-89.788c-8.831-9.485-19.896-16.365-31.508-17.331C962.896,345.432,960.078,345.292,954.432,345.08
			z M1001.887,406.697c-0.135,18.282-14.726,41.092-33.943,44.042c-3.062,0.313-4.575,0.467-7.584,0.757
			c3.283-28.907,3.81-57.451,2.459-86.497c2.972,0.103,4.467,0.163,7.48,0.3C989.207,366.786,1002.013,389.549,1001.887,406.697z"/>
		<path fill="#FFFFFF" d="M628.342,463.767c4.015,1.938,8.338,2.9,12.579,2.9c4.911,0,9.71-1.29,13.789-3.849
			c7.764-4.869,12.043-13.489,12.05-24.271c0.003-8.118,0.013-15.568,0.024-22.881c0.026-0.618,0.026-1.203,0.003-1.742
			c0.001-0.87,0.002-1.739,0.004-2.607c0.016-10.056,0.031-20.054,0.031-31.397c0-5.964,0.924-8.123,6.394-9.153
			c6.332-1.193,15.652-3.371,23.142-5.12c2.384-0.557,4.686-1.079,6.635-1.526l2.008-0.445v-24.641l-3.086,0.642
			c-4.613,0.98-8.636,1.889-12.462,2.768c-5.46,1.254-10.527,2.438-17.043,3.709c-6.966,1.355-10.409,5.952-10.409,13.663v20.104
			c0,11.34-0.104,21.335-0.12,31.389c-0.002,1.328-0.048,2.656-0.052,3.989c-0.123,3.148-1.227,11.322-9.088,12.208
			c-1.463,0.164-4.229,0.367-7.146,0.582c-5.634,0.415-12.027,0.886-14.835,1.444c-7.917,1.573-12.467,6.359-13.155,13.84
			C616.81,451.983,621,459.977,628.342,463.767z M667,359.816c0-6.591,3.013-8.103,6.365-8.755
			c6.598-1.287,11.815-2.48,17.316-3.744c2.943-0.676,6.318-1.37,9.318-2.099v14.476c-2,0.336-3.08,0.702-4.715,1.083
			c-7.441,1.738-16.647,3.902-22.873,5.075c-2.28,0.43-4.412,1.114-5.412,1.986V359.816z M622.58,443.83
			c0.483-5.265,3.391-8.249,9.148-9.394c2.507-0.499,9.003-0.978,14.223-1.362c3.095-0.228,5.768-0.425,7.327-0.6
			c3.709-0.418,6.467-1.928,8.489-3.977c-0.003,3.255-0.006,6.59-0.007,10.046c-0.006,9-3.453,16.116-9.707,20.039
			c-6.156,3.86-14.408,4.122-21.478,0.711C625.112,456.474,621.974,450.403,622.58,443.83z"/>
		<path fill="#FFFFFF" d="M787.935,313.718c0.227,0.369,0.49,1.151,0.515,1.457c0.012,0.147,0.113,0.184,0.113,0.184
			c0.096,0.36,0.482,0.804,0.548,1.085c0.055,0.232,0.046,0.436,0.079,0.531c0.096,0.272,0.633,0.792,0.829,0.904
			c0.059,0.034,0.131,0.004,0.131,0.004c0.358,0.36,0.875,1.005,1.077,1.075c0.087,0.03,0.129,0.004,0.129,0.004
			s0.083,0.142,0.113,0.176c0.035,0.04,0.816,0.305,1.02,0.375c0.087,0.03,0.26,0.007,0.26,0.007
			c0.377,0.183,0.905,0.198,1.299,0.208s0.854-0.075,1.325-0.136c0.109-0.014,0.264,0.008,0.264,0.008
			c0.408-0.162,0.872-0.226,1.077-0.316c0.114-0.051,0.174-0.148,0.276-0.167c0.344-0.062,0.84-0.672,1.113-0.84
			c0.274-0.168,0.272-0.169,0.272-0.169c0.287-0.343,0.561-0.512,0.845-0.858c0.143-0.173,0.142-0.173,0.295-0.524
			s0.578-0.96,0.721-1.052c0.045-0.029,0.095-0.059,0.14-0.176c0.112-0.292,0.45-1.07,0.6-1.429
			c11.882-36.38,20.18-74,30.785-110.788c0.737-2.531,0.719-5.33,0.113-7.833c-4.387-0.779-8.802-1.424-13.243-1.919
			c-0.041,0.128-0.088,0.248-0.126,0.38c-7.676,29.553-13.993,59.274-22.402,88.649c-7.122-30.257-18.171-58.965-29.149-88.013
			c-0.042-0.109-0.091-0.207-0.135-0.313c-4.606,0.635-9.174,1.42-13.7,2.354c-0.651,2.894-0.551,6.129,0.565,8.898
			C767.805,241.844,780.099,275.392,787.935,313.718z"/>
		<path fill="#FFFFFF" d="M860.565,320.143c4.683-0.031,9.161-4.44,9.165-10.333c-0.014-35.77-1.089-70.154-4.905-105.651
			c-4.233-1.502-8.511-2.87-12.83-4.093c-0.032,36.793,0.204,73.556,0.644,110.347C852.709,316.106,855.727,320.174,860.565,320.143
			z"/>
		<path fill="#FFFFFF" d="M915.436,319.046c9.437-0.305,14.234-0.484,23.533-0.902c17.916-0.412,29.423-12.588,33.412-27.253
			c-5.951-9.642-12.727-18.85-20.305-27.515c3.214,13.768-3.871,28.767-20.46,30.227c-4.269,0.439-6.421,0.655-10.736,1.073
			c-7.471-26.697-15.112-52.26-26.612-77.422c-3.693-1.999-7.438-3.881-11.23-5.646c9.91,31.926,15.422,62.765,20.057,96.28
			C903.904,314.095,909.237,319.247,915.436,319.046z"/>
		<path fill="#FFFFFF" d="M676.094,229.782l45.638,27.872L635,310.937v-42.821c-2,2.072-4,4.184-5,6.33v45.421l101.271-62.212
			L680.684,226.7C679.157,227.708,677.594,228.734,676.094,229.782z"/>
		<path fill="#FFFFFF" d="M965.06,571.06c45.424-45.425,70.44-105.819,70.44-170.06c0-64.24-25.017-124.635-70.44-170.059
			C919.635,185.517,859.24,160.5,795,160.5s-124.635,25.017-170.059,70.441S554.5,336.76,554.5,401
			c0,64.24,25.017,124.635,70.441,170.06C670.365,616.483,730.76,641.5,795,641.5S919.635,616.483,965.06,571.06z M579.5,401
			c0-118.827,96.673-215.5,215.5-215.5s215.5,96.673,215.5,215.5S913.827,616.5,795,616.5S579.5,519.827,579.5,401z"/>
		<path fill="#FFFFFF" d="M1055.968,521.059c-14.283,0-25.964,11.258-25.964,25.399c0,14.071,11.68,25.259,25.963,25.259
			c5.98,0,11.401-2.041,15.834-5.488c0.704-0.492,1.199-1.055,1.199-1.688v-0.07c0-0.141,0.395-0.211,0.465-0.352
			c0.07-0.423,0.535-0.704,0.535-1.196v-15.549c0-2.252-2.203-4.373-4.454-4.373c0,0,0,0-0.07,0c0,0,0,0-0.07,0h-13.861
			c-2.181,0-4.01,1.713-4.01,3.965c0,2.182,1.829,4.035,4.01,4.035H1066v10.022c-3,1.618-6.318,2.673-9.836,2.673
			c-5.066,0-9.598-1.898-12.764-5.136c-3.307-3.166-5.326-7.458-5.326-12.102c0-4.784,1.945-9.076,5.252-12.242
			c3.166-3.236,7.587-5.136,12.653-5.136c4.222,0,8.084,1.477,11.109,3.799c1.759,1.407,4.359,1.056,5.696-0.633
			c1.337-1.76,1.055-4.362-0.775-5.699C1067.648,523.1,1061.948,521.059,1055.968,521.059z"/>
		<path fill="#FFFFFF" d="M1116.335,530c2.04,0,3.869-1.854,3.869-4.035s-1.829-3.965-3.869-3.965h-22.796c-0.141,0-0.141,0-0.141,0
			h-0.071c-2.181,0-4.327,2.154-4.327,4.336v41.512c0,2.11,1.918,3.869,4.098,3.869l0.187,0.071c0,0,0.114,0.212,0.255,0.212h22.796
			c2.04,0,3.869-1.854,3.869-3.965c0-2.182-1.829-4.035-3.869-4.035H1097v-13h16.661c2.11,0,3.87-1.854,3.87-4.035
			c0-2.041-1.76-3.965-3.87-3.965H1097v-13H1116.335z"/>
		<path fill="#FFFFFF" d="M1086.965,378.249c-2.182,0-3.965,1.689-3.965,3.87v41.512c0,2.181,1.783,3.869,3.965,3.869
			c2.111,0,4.035-1.688,4.035-3.869v-41.512C1091,379.938,1089.076,378.249,1086.965,378.249z"/>
		<path fill="#FFFFFF" d="M1142.776,384.371c-4.151-4.644-10.343-7.529-16.815-7.529c-6.755,0-12.946,2.885-17.238,7.529
			c-4.362,4.644-6.966,10.835-6.966,17.8c0,6.966,2.604,13.228,6.966,17.801c4.292,4.573,10.483,7.528,17.238,7.528
			c6.473,0,12.664-2.955,16.815-7.528c4.362-4.573,7.105-10.835,7.105-17.801C1149.882,395.206,1147.139,389.014,1142.776,384.371z
			 M1137.077,414.414c-2.955,3.166-6.896,5.064-11.116,5.064c-4.503,0-8.443-1.898-11.398-5.064
			c-2.955-3.025-4.784-7.458-4.784-12.243c0-4.784,1.829-9.217,4.784-12.313c2.955-3.166,6.896-4.996,11.398-4.996
			c4.221,0,8.161,1.83,11.116,4.996c2.885,3.096,4.784,7.528,4.784,12.313C1141.861,406.956,1139.962,411.389,1137.077,414.414z"/>
		<path fill="#FFFFFF" d="M1069.491,290c2.04,0,3.869-1.854,3.869-3.965c0-2.181-1.829-4.035-3.869-4.035H1050v-13h16.817
			c2.11,0,3.87-1.854,3.87-4.035c0-2.041-1.76-3.965-3.87-3.965H1050v-12h19.491c2.04,0,3.869-1.854,3.869-4.035
			s-1.829-3.965-3.869-3.965h-22.796c-0.141,0-0.141,0-0.141,0h-0.071c-2.181,0-3.483,1.438-3.483,3.619v41.511
			c0,2.102,0.994,3.852,3.965,3.867c-0.077,0.001-0.278,0.003-0.27,0.003H1069.491z"/>
		<path fill="#FFFFFF" d="M1089.121,246.871c-4.362,4.644-6.966,10.835-6.966,17.8c0,6.966,2.604,13.228,6.966,17.801
			c4.292,4.573,10.483,7.528,17.238,7.528c6.473,0,12.664-2.955,16.815-7.528c4.362-4.573,7.105-10.835,7.105-17.801
			c0-6.965-2.743-13.157-7.105-17.8c-4.151-4.644-10.343-7.529-16.815-7.529C1099.604,239.342,1093.413,242.227,1089.121,246.871z
			 M1122.26,264.671c0,4.785-1.899,9.217-4.784,12.243c-2.955,3.166-6.896,5.065-11.116,5.065c-4.503,0-8.443-1.899-11.398-5.065
			c-2.955-3.025-4.784-7.458-4.784-12.243c0-4.784,1.829-9.217,4.784-12.313c2.955-3.166,6.896-4.996,11.398-4.996
			c4.221,0,8.161,1.83,11.116,4.996C1120.36,255.454,1122.26,259.887,1122.26,264.671z"/>
		<path fill="#FFFFFF" d="M974.369,580.369c4.044-4.044,7.93-8.204,11.664-12.466c0.079,1.527,1.003,2.978,2.529,3.557
			c0.422,0.141,0.844,0.233,1.336,0.233c1.549,0,3.025-0.956,3.659-2.505l3.447-9.188h17.098l3.447,9.2
			c0.563,1.549,2.04,2.489,3.588,2.489c0.493,0,0.985-0.057,1.337-0.197c2.041-0.773,3.025-3.019,2.322-5.06l-12.789-33.914
			c19.276-31.685,31.311-67.213,35.232-104.519h0.34c13.579,0,24.555-11.297,24.555-24.946c0-13.48-10.93-24.756-24.469-24.803
			c-2.871-32.483-11.876-63.689-26.442-92.266c6.656-4.415,11.046-11.901,11.046-20.529c0-13.509-10.976-24.457-24.555-24.457
			h-8.303c-2.181,0-3.412,1.438-3.412,3.619v1.589c-6.631-8.574-13.841-16.788-21.631-24.578
			C926.458,173.719,862.757,147.333,795,147.333s-131.458,26.386-179.37,74.297c-47.911,47.912-74.297,111.613-74.297,179.37
			s26.386,131.458,74.297,179.369c47.912,47.912,111.613,74.298,179.37,74.298S926.458,628.281,974.369,580.369z M1048.235,386.092
			c8.977,0.347,16.09,7.714,16.09,16.712c0,9.177-7.31,16.754-16.348,17.103c0.458-6.261,0.689-12.566,0.689-18.907
			C1048.667,396.007,1048.52,391.037,1048.235,386.092z M999.819,552l1.126-2.827c2.033-2.815,4.006-5.666,5.916-8.553l4.356,11.38
			H999.819z M1003,249h4.715c9.287,0,16.745,7.308,16.745,16.524c0,5.645-2.724,10.473-6.915,13.53
			c-4.408-8.018-9.253-15.818-14.545-23.359V249z M547.333,401c0-136.564,111.103-247.667,247.667-247.667
			S1042.667,264.436,1042.667,401c0,136.564-111.103,247.667-247.667,247.667S547.333,537.564,547.333,401z"/>
	</g>
</g>
</svg>
