<?xml version="1.0" encoding="utf-8"?>
<!-- Generator: Adobe Illustrator 16.0.0, SVG Export Plug-In . SVG Version: 6.00 Build 0)  -->
<!DOCTYPE svg PUBLIC "-//W3C//DTD SVG 1.1//EN" "http://www.w3.org/Graphics/SVG/1.1/DTD/svg11.dtd">
<svg version="1.1" id="Layer_1" xmlns="http://www.w3.org/2000/svg" xmlns:xlink="http://www.w3.org/1999/xlink" x="0px" y="0px"
	 width="1280px" height="120px" viewBox="0 0 1280 120" enable-background="new 0 0 1280 120" xml:space="preserve">
<g>
	<path fill="#FFFFFF" d="M1188.169,78.592c-10.485,0-48.739,3.408-69.55,41.408H1280V78.749l-89.027-0.03
		C1190.961,78.715,1190.137,78.592,1188.169,78.592z M1275,101.004V115h-13.579L1275,101.004z"/>
	<path fill="#FFFFFF" d="M92.583,78.592c-1.966,0-3.167,0.123-3.179,0.127L0,78.749V120h162.135
		C141.322,82,103.068,78.592,92.583,78.592z M5,115v-13.996L19.334,115H5z"/>
	<path fill="#FFFFFF" d="M957,14v83.823c0,5.267-4,9.177-9.302,9.177H329.855c-5.303,0-8.855-3.91-8.855-9.177V14H0v60h93.931
		c0.384,0,1.597-0.169,3.455-0.169c11.374,0,49.861,3.169,71.741,46.169h471.25h471.251c21.878-43,60.367-46.169,71.74-46.169
		c1.857,0,3.069,0.169,3.453,0.169H1280V14H957z"/>
	<path fill="#FFFFFF" d="M435.497,96h406.56c3.536,0,6.402-2.49,6.402-6.002c0-3.51-2.866-5.998-6.402-5.998h-406.56
		c-3.536,0-6.402,2.488-6.402,5.998C429.095,93.51,431.961,96,435.497,96z"/>
	<path fill="#FFFFFF" d="M339.881,82.346c-0.649-0.346-1.405-0.514-2.265-0.514c-1.166,0-2.135,0.311-2.904,0.931
		c-0.77,0.622-1.35,1.51-1.741,2.657c-0.39,1.148-0.584,2.663-0.584,4.549c0,2.989,0.529,5.15,1.587,6.475
		c0.881,1.101,2.096,1.651,3.642,1.651c1.175,0,2.146-0.313,2.917-0.94c0.77-0.625,1.347-1.512,1.734-2.663
		c0.386-1.146,0.58-2.653,0.58-4.522c0-1.58-0.12-2.836-0.362-3.765c-0.239-0.932-0.573-1.721-0.995-2.369
		C341.067,83.184,340.531,82.69,339.881,82.346z M339.897,95.184c-0.616,0.869-1.375,1.303-2.281,1.303
		c-0.904,0-1.664-0.433-2.28-1.299c-0.618-0.864-0.925-2.605-0.925-5.219c0-2.617,0.339-4.406,1.017-5.377
		c0.541-0.763,1.262-1.144,2.167-1.144c0.919,0,1.687,0.429,2.303,1.293c0.618,0.862,0.925,2.603,0.925,5.228
		C340.822,92.574,340.515,94.315,339.897,95.184z"/>
	<path fill="#FFFFFF" d="M350.08,98.095c1.174,0,2.146-0.313,2.915-0.94c0.771-0.625,1.347-1.512,1.735-2.663
		c0.386-1.146,0.58-2.653,0.58-4.522c0-1.58-0.12-2.836-0.361-3.765c-0.24-0.932-0.574-1.721-0.995-2.369
		c-0.423-0.651-0.959-1.145-1.61-1.489c-0.649-0.346-1.402-0.514-2.264-0.514c-1.167,0-2.135,0.311-2.905,0.931
		c-0.77,0.622-1.35,1.51-1.74,2.657c-0.391,1.148-0.585,2.663-0.585,4.549c0,2.989,0.529,5.15,1.588,6.475
		C347.318,97.544,348.533,98.095,350.08,98.095z M347.891,84.592c0.541-0.763,1.262-1.144,2.167-1.144
		c0.919,0,1.687,0.429,2.303,1.293c0.617,0.862,0.924,2.603,0.924,5.228c0,2.605-0.308,4.347-0.924,5.215
		c-0.616,0.869-1.376,1.303-2.281,1.303c-0.905,0-1.665-0.433-2.281-1.299c-0.617-0.864-0.924-2.605-0.924-5.219
		C346.874,87.352,347.213,85.563,347.891,84.592z"/>
	<rect x="359" y="96" fill="#FFFFFF" width="2" height="2"/>
	<rect x="359" y="86" fill="#FFFFFF" width="2" height="2"/>
	<path fill="#FFFFFF" d="M371.033,82.346c-0.65-0.346-1.404-0.514-2.265-0.514c-1.167,0-2.136,0.311-2.905,0.931
		c-0.77,0.622-1.351,1.51-1.74,2.657c-0.39,1.148-0.585,2.663-0.585,4.549c0,2.989,0.53,5.15,1.587,6.475
		c0.882,1.101,2.097,1.651,3.644,1.651c1.174,0,2.146-0.313,2.916-0.94c0.769-0.625,1.347-1.512,1.735-2.663
		c0.386-1.146,0.579-2.653,0.579-4.522c0-1.58-0.12-2.836-0.36-3.765c-0.241-0.932-0.573-1.721-0.997-2.369
		C372.218,83.184,371.682,82.69,371.033,82.346z M371.049,95.184c-0.616,0.869-1.376,1.303-2.281,1.303
		c-0.905,0-1.665-0.433-2.281-1.299c-0.618-0.864-0.925-2.605-0.925-5.219c0-2.617,0.339-4.406,1.018-5.377
		c0.54-0.763,1.261-1.144,2.166-1.144c0.919,0,1.687,0.429,2.303,1.293c0.617,0.862,0.924,2.603,0.924,5.228
		C371.973,92.574,371.666,94.315,371.049,95.184z"/>
	<path fill="#FFFFFF" d="M383.495,82.346c-0.648-0.346-1.403-0.514-2.265-0.514c-1.167,0-2.135,0.311-2.905,0.931
		c-0.77,0.622-1.35,1.51-1.74,2.657c-0.39,1.148-0.585,2.663-0.585,4.549c0,2.989,0.529,5.15,1.586,6.475
		c0.883,1.101,2.097,1.651,3.643,1.651c1.175,0,2.147-0.313,2.916-0.94c0.771-0.625,1.349-1.512,1.735-2.663
		c0.386-1.146,0.579-2.653,0.579-4.522c0-1.58-0.121-2.836-0.36-3.765c-0.24-0.932-0.573-1.721-0.996-2.369
		C384.681,83.184,384.145,82.69,383.495,82.346z M383.512,95.184c-0.617,0.869-1.377,1.303-2.282,1.303
		c-0.904,0-1.665-0.433-2.281-1.299c-0.617-0.864-0.924-2.605-0.924-5.219c0-2.617,0.339-4.406,1.017-5.377
		c0.54-0.763,1.262-1.144,2.167-1.144c0.92,0,1.687,0.429,2.304,1.293c0.616,0.862,0.924,2.603,0.924,5.228
		C384.437,92.574,384.128,94.315,383.512,95.184z"/>
	<rect x="390" y="96" fill="#FFFFFF" width="2" height="2"/>
	<rect x="390" y="86" fill="#FFFFFF" width="2" height="2"/>
	<path fill="#FFFFFF" d="M402.185,82.346c-0.65-0.346-1.405-0.514-2.265-0.514c-1.168,0-2.135,0.311-2.906,0.931
		c-0.77,0.622-1.349,1.51-1.739,2.657c-0.391,1.148-0.586,2.663-0.586,4.549c0,2.989,0.529,5.15,1.587,6.475
		c0.882,1.101,2.097,1.651,3.644,1.651c1.174,0,2.146-0.313,2.916-0.94c0.77-0.625,1.348-1.512,1.734-2.663
		c0.386-1.146,0.58-2.653,0.58-4.522c0-1.58-0.12-2.836-0.361-3.765c-0.24-0.932-0.573-1.721-0.996-2.369
		C403.37,83.184,402.834,82.69,402.185,82.346z M402.201,95.184c-0.617,0.869-1.377,1.303-2.281,1.303
		c-0.904,0-1.666-0.433-2.281-1.299c-0.617-0.864-0.925-2.605-0.925-5.219c0-2.617,0.338-4.406,1.018-5.377
		c0.54-0.763,1.262-1.144,2.167-1.144c0.919,0,1.686,0.429,2.303,1.293c0.616,0.862,0.924,2.603,0.924,5.228
		C403.125,92.574,402.817,94.315,402.201,95.184z"/>
	<path fill="#FFFFFF" d="M414.647,82.346c-0.65-0.346-1.406-0.514-2.265-0.514c-1.167,0-2.135,0.311-2.906,0.931
		c-0.769,0.622-1.349,1.51-1.738,2.657c-0.391,1.148-0.586,2.663-0.586,4.549c0,2.989,0.529,5.15,1.586,6.475
		c0.883,1.101,2.098,1.651,3.645,1.651c1.175,0,2.146-0.313,2.917-0.94c0.77-0.625,1.347-1.512,1.733-2.663
		c0.387-1.146,0.581-2.653,0.581-4.522c0-1.58-0.122-2.836-0.361-3.765c-0.241-0.932-0.573-1.721-0.996-2.369
		C415.833,83.184,415.296,82.69,414.647,82.346z M414.664,95.184c-0.616,0.869-1.378,1.303-2.282,1.303s-1.665-0.433-2.282-1.299
		c-0.617-0.864-0.924-2.605-0.924-5.219c0-2.617,0.34-4.406,1.018-5.377c0.539-0.763,1.263-1.144,2.167-1.144
		c0.919,0,1.687,0.429,2.303,1.293c0.616,0.862,0.924,2.603,0.924,5.228C415.588,92.574,415.28,94.315,414.664,95.184z"/>
	<path fill="#FFFFFF" d="M867.423,98.095c1.173,0,2.147-0.313,2.916-0.94c0.771-0.625,1.348-1.512,1.734-2.663
		c0.391-1.146,0.583-2.653,0.583-4.522c0-1.58-0.124-2.836-0.363-3.765c-0.242-0.932-0.572-1.721-0.994-2.369
		c-0.426-0.651-0.96-1.145-1.611-1.489c-0.65-0.346-1.402-0.514-2.265-0.514c-1.166,0-2.135,0.311-2.906,0.931
		c-0.77,0.622-1.349,1.51-1.736,2.657c-0.392,1.148-0.588,2.663-0.588,4.549c0,2.989,0.533,5.15,1.586,6.475
		C864.661,97.544,865.878,98.095,867.423,98.095z M865.237,84.592c0.537-0.763,1.259-1.144,2.164-1.144
		c0.919,0,1.688,0.429,2.303,1.293c0.616,0.862,0.926,2.603,0.926,5.228c0,2.605-0.31,4.347-0.926,5.215
		c-0.615,0.869-1.376,1.303-2.281,1.303c-0.903,0-1.663-0.433-2.278-1.299c-0.619-0.864-0.928-2.605-0.928-5.219
		C864.217,87.352,864.557,85.563,865.237,84.592z"/>
	<path fill="#FFFFFF" d="M882.15,82.346c-0.648-0.346-1.403-0.514-2.266-0.514c-1.163,0-2.133,0.311-2.902,0.931
		c-0.771,0.622-1.352,1.51-1.74,2.657c-0.393,1.148-0.587,2.663-0.587,4.549c0,2.989,0.529,5.15,1.586,6.475
		c0.885,1.101,2.097,1.651,3.644,1.651c1.176,0,2.148-0.313,2.918-0.94c0.768-0.625,1.348-1.512,1.732-2.663
		c0.386-1.146,0.582-2.653,0.582-4.522c0-1.58-0.123-2.836-0.362-3.765c-0.241-0.932-0.573-1.721-0.994-2.369
		C883.338,83.184,882.801,82.69,882.15,82.346z M882.168,95.184c-0.617,0.869-1.378,1.303-2.283,1.303
		c-0.901,0-1.664-0.433-2.281-1.299c-0.616-0.864-0.924-2.605-0.924-5.219c0-2.617,0.34-4.406,1.018-5.377
		c0.541-0.763,1.265-1.144,2.166-1.144c0.92,0,1.688,0.429,2.305,1.293c0.615,0.862,0.924,2.603,0.924,5.228
		C883.092,92.574,882.783,94.315,882.168,95.184z"/>
	<rect x="888" y="86" fill="#FFFFFF" width="2" height="2"/>
	<rect x="888" y="96" fill="#FFFFFF" width="2" height="2"/>
	<path fill="#FFFFFF" d="M900.841,82.346c-0.648-0.346-1.408-0.514-2.267-0.514c-1.166,0-2.134,0.311-2.904,0.931
		c-0.771,0.622-1.35,1.51-1.74,2.657c-0.391,1.148-0.586,2.663-0.586,4.549c0,2.989,0.528,5.15,1.587,6.475
		c0.885,1.101,2.097,1.651,3.644,1.651c1.177,0,2.147-0.313,2.918-0.94c0.769-0.625,1.348-1.512,1.732-2.663
		c0.385-1.146,0.581-2.653,0.581-4.522c0-1.58-0.121-2.836-0.364-3.765c-0.238-0.932-0.57-1.721-0.994-2.369
		C902.026,83.184,901.487,82.69,900.841,82.346z M900.856,95.184c-0.615,0.869-1.379,1.303-2.282,1.303
		c-0.902,0-1.664-0.433-2.282-1.299c-0.615-0.864-0.922-2.605-0.922-5.219c0-2.617,0.339-4.406,1.017-5.377
		c0.541-0.763,1.264-1.144,2.165-1.144c0.92,0,1.689,0.429,2.305,1.293c0.617,0.862,0.925,2.603,0.925,5.228
		C901.781,92.574,901.474,94.315,900.856,95.184z"/>
	<path fill="#FFFFFF" d="M913.303,82.346c-0.65-0.346-1.405-0.514-2.265-0.514c-1.167,0-2.135,0.311-2.905,0.931
		c-0.771,0.622-1.35,1.51-1.74,2.657c-0.39,1.148-0.584,2.663-0.584,4.549c0,2.989,0.528,5.15,1.586,6.475
		c0.882,1.101,2.096,1.651,3.644,1.651c1.174,0,2.146-0.313,2.916-0.94c0.771-0.625,1.347-1.512,1.733-2.663
		c0.387-1.146,0.581-2.653,0.581-4.522c0-1.58-0.121-2.836-0.361-3.765c-0.241-0.932-0.573-1.721-0.998-2.369
		C914.488,83.184,913.954,82.69,913.303,82.346z M913.316,95.184c-0.613,0.869-1.374,1.303-2.278,1.303
		c-0.906,0-1.666-0.433-2.282-1.299c-0.615-0.864-0.924-2.605-0.924-5.219c0-2.617,0.34-4.406,1.016-5.377
		c0.541-0.763,1.263-1.144,2.168-1.144c0.919,0,1.688,0.429,2.301,1.293c0.619,0.862,0.927,2.603,0.927,5.228
		C914.243,92.574,913.936,94.315,913.316,95.184z"/>
	<rect x="919" y="96" fill="#FFFFFF" width="2" height="2"/>
	<rect x="919" y="86" fill="#FFFFFF" width="2" height="2"/>
	<path fill="#FFFFFF" d="M931.989,82.346c-0.647-0.346-1.402-0.514-2.263-0.514c-1.17,0-2.135,0.311-2.907,0.931
		c-0.768,0.622-1.35,1.51-1.737,2.657c-0.393,1.148-0.587,2.663-0.587,4.549c0,2.989,0.532,5.15,1.589,6.475
		c0.88,1.101,2.097,1.651,3.643,1.651c1.172,0,2.146-0.313,2.914-0.94c0.77-0.625,1.348-1.512,1.737-2.663
		c0.387-1.146,0.578-2.653,0.578-4.522c0-1.58-0.12-2.836-0.36-3.765c-0.241-0.932-0.573-1.721-0.996-2.369
		C933.175,83.184,932.641,82.69,931.989,82.346z M932.007,95.184c-0.616,0.869-1.376,1.303-2.28,1.303s-1.666-0.433-2.281-1.299
		c-0.618-0.864-0.926-2.605-0.926-5.219c0-2.617,0.339-4.406,1.02-5.377c0.538-0.763,1.262-1.144,2.165-1.144
		c0.918,0,1.687,0.429,2.303,1.293c0.618,0.862,0.924,2.603,0.924,5.228C932.931,92.574,932.625,94.315,932.007,95.184z"/>
	<path fill="#FFFFFF" d="M942.187,98.095c1.176,0,2.147-0.313,2.921-0.94c0.767-0.625,1.347-1.512,1.731-2.663
		c0.387-1.146,0.579-2.653,0.579-4.522c0-1.58-0.12-2.836-0.36-3.765c-0.24-0.932-0.574-1.721-0.995-2.369
		c-0.421-0.651-0.961-1.145-1.608-1.489c-0.648-0.346-1.406-0.514-2.268-0.514c-1.163,0-2.133,0.311-2.902,0.931
		c-0.771,0.622-1.351,1.51-1.739,2.657c-0.392,1.148-0.587,2.663-0.587,4.549c0,2.989,0.53,5.15,1.587,6.475
		C939.428,97.544,940.643,98.095,942.187,98.095z M940.001,84.592c0.54-0.763,1.263-1.144,2.164-1.144
		c0.919,0,1.688,0.429,2.306,1.293c0.617,0.862,0.927,2.603,0.927,5.228c0,2.605-0.31,4.347-0.927,5.215
		c-0.618,0.869-1.379,1.303-2.284,1.303c-0.899,0-1.661-0.433-2.28-1.299c-0.616-0.864-0.922-2.605-0.922-5.219
		C938.984,87.352,939.321,85.563,940.001,84.592z"/>
	<path fill="#FFFFFF" d="M742.818,71c5.302,0,9.182-4.468,9.182-9.732V27.885c0-5.266-3.88-9.885-9.182-9.885H536.336
		c-5.302,0-9.336,4.619-9.336,9.885v33.382c0,5.265,4.034,9.732,9.336,9.732H742.818z M696,28.45l15,13.877V28.45l14,13.877V28h3v30
		h-3V43.949l-14,13.875V43.949l-15,13.875V28.45z M628,25.801l27.254,17.336L628,60.473V25.801z M551,28h3v14.327l14-13.877v13.877
		l15-13.877v29.375l-15-13.875v13.875l-14-13.875V58h-3V28z"/>
	<path fill="#FFFFFF" d="M939,30h-36v25h36V30z M936,52h-30V33h30V52z"/>
	<rect x="911" y="37" fill="#FFFFFF" width="20" height="10"/>
	<path fill="#FFFFFF" d="M513.127,43.383c0-5.924-4.836-10.729-10.804-10.729c-5.967,0-10.803,4.806-10.803,10.729
		c0,5.925,4.836,10.729,10.803,10.729C508.291,54.111,513.127,49.308,513.127,43.383z M494.721,43.383
		c0-4.16,3.41-7.549,7.602-7.549c4.193,0,7.603,3.389,7.603,7.549c0,4.164-3.41,7.553-7.603,7.553
		C498.13,50.936,494.721,47.547,494.721,43.383z"/>
	<ellipse fill="#FFFFFF" cx="341.661" cy="43.585" rx="8.003" ry="7.951"/>
	<path fill="#FFFFFF" d="M482,44.774v-0.398c0-4.718-3.937-8.376-8.688-8.376H367.27c-4.751,0-8.27,3.658-8.27,8.376v0.398
		c0,4.718,3.518,8.226,8.27,8.226h106.043C478.063,53,482,49.493,482,44.774z M367.971,50.735c-3.591,0-6.502-2.89-6.502-6.457
		c0-3.568,2.912-6.458,6.502-6.458c3.59,0,6.501,2.889,6.501,6.458C374.473,47.845,371.561,50.735,367.971,50.735z"/>
	<path fill="#FFFFFF" d="M787.949,35.04L795,39.081V35h16.18c3.723,0,6.867,4.121,6.867,8c0,3.874-3.145,8-6.867,8H792v1h19.18
		c4.589,0,8.466-4.261,8.466-9s-3.877-9-8.466-9H795v-3L787.949,35.04z"/>
	<path fill="#FFFFFF" d="M864,51h-18.941c-3.725,0-6.869-4.126-6.869-8c0-3.879,3.145-8,6.869-8H862v4.081l7.049-4.041L862,31v3
		h-16.941c-4.593,0-8.47,4.261-8.47,9s3.877,9,8.47,9H864V51z"/>
	<rect fill="#FFFFFF" width="1280" height="8"/>
</g>
<g>
</g>
<g>
</g>
<g>
</g>
<g>
</g>
<g>
</g>
<g>
</g>
<g>
</g>
<g>
</g>
<g>
</g>
<g>
</g>
<g>
</g>
<g>
</g>
<g>
</g>
<g>
</g>
<g>
</g>
</svg>
